<svg viewBox="0 0 43 43" fill="none" xmlns="http://www.w3.org/2000/svg">
<rect width="43" height="43" rx="21.5" fill="#F4F4F4"/>
<path d="M27.9718 21.0269C27.9435 18.0307 30.419 16.5921 30.5254 16.5254C29.1351 14.4896 26.9674 14.2059 26.1985 14.1718C24.3542 13.986 22.5964 15.26 21.6587 15.26C20.7209 15.26 19.2781 14.2031 17.7502 14.2328C15.7357 14.2612 13.8857 15.4033 12.8501 17.1993C10.7618 20.8226 12.3138 26.1937 14.3525 29.1318C15.3456 30.5704 16.5302 32.1862 18.0865 32.1281C19.5888 32.0699 20.1549 31.1591 21.9694 31.1591C23.7839 31.1591 24.2918 32.1281 25.8793 32.104C27.4923 32.0699 28.5152 30.6314 29.4997 29.1928C30.2056 28.1537 30.7584 27.0185 31.1412 25.822C31.1142 25.8093 28.0016 24.6148 27.9718 21.0269Z" fill="#B0B2B0"/>
<path d="M24.9869 12.2305C25.8168 11.2304 26.3743 9.83722 26.2197 8.45117C25.0294 8.49657 23.5866 9.24563 22.7354 10.243C21.9665 11.1325 21.2926 12.5526 21.4756 13.9088C22.8021 14.0096 24.1626 13.2321 24.9869 12.2305Z" fill="#B0B2B0"/>
</svg>
