<svg  viewBox="0 0 43 43" fill="none" xmlns="http://www.w3.org/2000/svg">
<rect width="43" height="43" rx="21.5" fill="#221F20"/>
<path d="M22.1604 11.0607C22.1856 11.0654 22.2108 11.073 22.2363 11.0742C23.0562 11.1116 23.8535 11.2634 24.6208 11.5603C25.1637 11.7704 25.6608 12.0585 26.0945 12.4539C26.7053 13.0109 27.0763 13.7029 27.2463 14.51C27.3142 14.8325 27.3607 15.1583 27.3732 15.4877C27.3875 15.864 27.403 16.2407 27.4035 16.6172C27.4063 18.3859 27.4046 20.1545 27.4032 21.9232C27.4028 22.3594 27.4521 22.7869 27.6004 23.1994C27.7228 23.5399 27.906 23.8467 28.1144 24.1391C28.2294 24.3005 28.3477 24.4596 28.4655 24.619C28.5438 24.725 28.6035 24.8393 28.6268 24.9708C28.6591 25.1537 28.6029 25.3034 28.4624 25.4224C28.3316 25.5331 28.2001 25.6429 28.0712 25.7557C27.4888 26.2652 26.9072 26.7758 26.3249 27.2855C26.1296 27.4565 25.9095 27.5141 25.662 27.4204C25.6137 27.4021 25.5688 27.3699 25.5283 27.3368C25.0294 26.9274 24.5973 26.4567 24.2477 25.9106C24.1712 25.791 24.0903 25.6742 24.0111 25.5563C23.9932 25.5297 23.974 25.504 23.9497 25.4697C23.9202 25.4984 23.8951 25.5222 23.8707 25.5467C23.5559 25.8635 23.2305 26.1684 22.8781 26.4428C22.3392 26.8624 21.7504 27.1826 21.0887 27.3587C20.7636 27.4452 20.4329 27.4988 20.0985 27.5294C19.7553 27.561 19.4111 27.5741 19.0666 27.5646C18.4551 27.5479 17.8618 27.4377 17.2989 27.1899C16.3077 26.7533 15.6338 26.0133 15.2549 24.9964C15.0978 24.5749 15.01 24.1374 14.9676 23.6895C14.9411 23.4084 14.93 23.1267 14.9404 22.8452C14.9788 21.8036 15.2611 20.8417 15.8798 19.9944C16.2816 19.4442 16.7841 19.0067 17.3681 18.6622C17.8973 18.3499 18.464 18.1316 19.0548 17.9732C19.6354 17.8177 20.225 17.7083 20.8204 17.63C21.182 17.5824 21.5438 17.5359 21.9062 17.4943C22.219 17.4584 22.5325 17.4307 22.8457 17.3983C23.0124 17.381 23.179 17.3617 23.3456 17.3428C23.3538 17.3419 23.3616 17.3366 23.3745 17.3313C23.3761 17.3063 23.3793 17.2804 23.3793 17.2545C23.3787 16.9014 23.3825 16.5481 23.3749 16.1951C23.3689 15.9162 23.3371 15.6397 23.2588 15.3699C23.0959 14.8084 22.736 14.4338 22.1893 14.254C21.479 14.0203 20.7856 14.0919 20.1311 14.4465C19.5739 14.7483 19.2511 15.2358 19.1239 15.8572C19.094 16.003 19.0344 16.1333 18.9299 16.2397C18.8224 16.3492 18.6963 16.3982 18.539 16.3795C18.1153 16.3292 17.6908 16.2869 17.2667 16.2409C16.9098 16.2023 16.553 16.1628 16.1962 16.1238C16.0938 16.1126 15.9909 16.1049 15.8892 16.09C15.8346 16.082 15.7791 16.0678 15.7283 16.0462C15.4887 15.9449 15.3711 15.739 15.4182 15.4819C15.6279 14.3363 16.1351 13.3555 17.0137 12.5837C17.5442 12.1177 18.153 11.7879 18.8113 11.5478C19.3525 11.3504 19.9108 11.223 20.4812 11.1481C20.7731 11.1098 21.0657 11.081 21.3602 11.0737C21.3798 11.0733 21.399 11.0651 21.4185 11.0605C21.6658 11.0605 21.913 11.0605 22.1604 11.0605V11.0607ZM23.3794 19.6632C23.3479 19.6609 23.3277 19.6583 23.3076 19.6583C22.7089 19.6591 22.1136 19.6986 21.5266 19.8241C21.1426 19.9061 20.7711 20.0258 20.4237 20.2144C19.7565 20.5765 19.3375 21.1255 19.1851 21.8772C19.1186 22.2054 19.1086 22.536 19.1375 22.8688C19.1618 23.1485 19.2214 23.4198 19.3369 23.676C19.5185 24.0788 19.8001 24.3812 20.2173 24.5398C20.596 24.6838 20.9827 24.6892 21.3707 24.5842C21.8137 24.4644 22.1737 24.2106 22.4747 23.8672C22.7875 23.5104 22.9987 23.0956 23.1487 22.6474C23.3152 22.1501 23.3642 21.6338 23.3745 21.1137C23.3835 20.6598 23.3783 20.2057 23.3793 19.7517C23.3793 19.7254 23.3793 19.6991 23.3793 19.6633L23.3794 19.6632Z" fill="white"/>
<path d="M10.9436 27.674C10.9566 27.6625 10.9726 27.6532 10.982 27.6393C11.0624 27.52 11.1722 27.4855 11.3025 27.5424C11.3374 27.5577 11.3706 27.5774 11.4034 27.5971C11.9363 27.918 12.4653 28.2456 13.0024 28.5589C14.012 29.1476 15.0545 29.6688 16.1489 30.0799C16.8683 30.35 17.6019 30.5725 18.3546 30.7279C18.6247 30.7837 18.8956 30.8367 19.1677 30.8814C19.373 30.9152 19.5807 30.9361 19.7877 30.9586C20.021 30.9839 20.2547 31.0087 20.4886 31.0257C20.6733 31.0391 20.8587 31.0439 21.0438 31.0465C21.2881 31.0499 21.5325 31.0515 21.7767 31.0459C21.9763 31.0413 22.1757 31.0251 22.3752 31.0137C22.4836 31.0074 22.5922 31.0023 22.7005 30.9934C22.8321 30.9826 22.9638 30.9709 23.0947 30.9549C23.2578 30.9352 23.4206 30.9132 23.5829 30.8878C23.8438 30.8468 24.105 30.8072 24.3642 30.7579C24.8519 30.6653 25.3341 30.5479 25.8122 30.4141C26.4129 30.246 27.0035 30.047 27.5861 29.8237C28.1634 29.6025 28.7315 29.3592 29.29 29.0931C29.3878 29.0465 29.4853 28.9962 29.5994 28.9991C29.7488 29.003 29.8256 29.0842 29.8193 29.236C29.8151 29.3345 29.7738 29.4205 29.7215 29.4995C29.6711 29.5756 29.6151 29.6492 29.553 29.716C29.2414 30.0506 28.8858 30.3338 28.5167 30.6C28.023 30.9563 27.5025 31.2683 26.9584 31.5399C26.0669 31.9849 25.1376 32.3245 24.1663 32.5425C23.8315 32.6178 23.4933 32.6788 23.1548 32.7352C22.9351 32.7717 22.7122 32.7882 22.4908 32.8134C22.1869 32.848 21.8821 32.8664 21.5762 32.8689C21.4616 32.8698 21.3469 32.8848 21.2326 32.8819C20.9887 32.8754 20.745 32.8633 20.5014 32.8499C20.3256 32.8402 20.1496 32.8299 19.9746 32.81C19.759 32.7855 19.5437 32.7557 19.3297 32.7192C18.9011 32.6463 18.4768 32.5518 18.0585 32.4327C17.458 32.2617 16.8729 32.0468 16.3022 31.7928C15.2996 31.3469 14.3606 30.7904 13.4758 30.1395C12.7822 29.6294 12.132 29.0693 11.5368 28.4453C11.3758 28.2764 11.2248 28.0978 11.0727 27.9207C11.0369 27.879 11.0163 27.8243 10.9867 27.7769C10.9753 27.7586 10.958 27.744 10.9434 27.7277C10.9434 27.7098 10.9434 27.692 10.9434 27.6742L10.9436 27.674Z" fill="#FF9300"/>
<path d="M30.4028 27.3203C30.7359 27.3244 31.0666 27.3486 31.3926 27.4167C31.4927 27.4377 31.5897 27.4745 31.687 27.5073C31.8787 27.5723 31.9499 27.7168 31.9538 27.9116C31.9583 28.1293 31.9346 28.344 31.896 28.5568C31.8127 29.016 31.6893 29.4644 31.4953 29.8894C31.2684 30.3868 30.9761 30.8398 30.5703 31.2109C30.5065 31.2693 30.4366 31.3174 30.3521 31.341C30.2608 31.3665 30.1979 31.3166 30.2095 31.2221C30.2153 31.1757 30.2292 31.1292 30.2461 31.0853C30.347 30.8227 30.4546 30.5627 30.5508 30.2985C30.6946 29.9031 30.8235 29.5025 30.8982 29.0872C30.9237 28.9451 30.9359 28.7994 30.9411 28.6549C30.9487 28.445 30.8519 28.3006 30.6528 28.2251C30.5108 28.1713 30.3637 28.1439 30.2147 28.1319C30.042 28.1179 29.8682 28.1114 29.6949 28.1138C29.5307 28.116 29.3667 28.1329 29.2027 28.1449C29.0417 28.1566 28.8806 28.1686 28.72 28.1834C28.5738 28.197 28.4283 28.2156 28.2822 28.2299C28.1802 28.2398 28.0777 28.2512 27.9753 28.2526C27.865 28.254 27.8238 28.1785 27.8875 28.0894C27.9262 28.0351 27.9778 27.9875 28.0312 27.947C28.2068 27.8138 28.4078 27.7282 28.6103 27.6476C28.9505 27.5121 29.3025 27.4198 29.6641 27.3658C29.7568 27.352 29.8513 27.3495 29.9451 27.3441C30.0976 27.3352 30.2503 27.3282 30.4029 27.3204L30.4028 27.3203Z" fill="#FF9300"/>
</svg>
