<svg  viewBox="0 0 90 33" fill="none" xmlns="http://www.w3.org/2000/svg">
<rect y="0.238281" width="90" height="32" rx="16" fill="#FCF5E2"/>
<circle cx="16" cy="16.2383" r="12" fill="#7A7267"/>
<path d="M22.4012 16.2598L22.2818 16.1896C22.0603 15.9853 21.7961 15.8327 21.5084 15.7428C21.2207 15.653 20.9166 15.6282 20.6181 15.6701C20.0974 15.7116 19.5954 15.883 19.158 16.1686C19.1618 15.9691 19.1759 15.7699 19.2002 15.5719C19.2385 15.3608 19.262 15.1474 19.2703 14.9331C19.2739 14.7465 19.2429 14.5608 19.1791 14.3855C19.1706 14.3646 19.1561 14.3467 19.1373 14.3342C19.1185 14.3216 19.0964 14.3151 19.0738 14.3153C18.8254 14.334 18.5849 14.411 18.3718 14.5399L18.3227 14.6452C18.3156 14.947 18.2828 15.2476 18.2244 15.5438V15.621C18.1436 16.3794 18.1436 17.1441 18.2244 17.9025C18.2244 17.9657 18.3578 18.064 18.4561 18.0991C18.6729 18.1069 18.8888 18.0662 19.0878 17.9797H19.158C19.1728 17.978 19.1871 17.9733 19.2001 17.966C19.2131 17.9587 19.2245 17.9489 19.2336 17.9371C19.2428 17.9253 19.2495 17.9119 19.2534 17.8975C19.2573 17.8831 19.2583 17.8681 19.2563 17.8534V17.6638C19.3477 17.3345 19.5264 17.036 19.7736 16.8C20.0207 16.564 20.3271 16.3992 20.6603 16.323C20.8238 16.2893 20.9933 16.2988 21.1521 16.3505C21.3109 16.4022 21.4534 16.4943 21.5658 16.6178C21.6385 16.9319 21.5856 17.2619 21.4184 17.5375C21.1812 17.9264 20.8127 18.2177 20.3795 18.3588C19.871 18.5388 19.3311 18.6129 18.793 18.5764L18.2034 18.1833C17.665 17.7845 17.0805 17.4522 16.4625 17.1935C16.3245 17.1195 16.197 17.0274 16.0834 16.9197L16.0272 16.8776C15.7043 16.6178 15.0936 16.1756 14.6233 15.8807L14.3565 15.7052V15.635L14.6794 15.4385C14.9317 15.3223 15.1677 15.1736 15.3814 14.9962H15.4446L16.4625 14.3715C17.4745 13.8804 18.4184 13.2598 19.2703 12.5252V12.434V12.3427C19.3089 12.2265 19.3089 12.1009 19.2703 11.9847C19.267 11.9647 19.2579 11.9461 19.2442 11.9312C19.2305 11.9162 19.2127 11.9056 19.1931 11.9004C18.8801 11.9119 18.5724 11.9855 18.2881 12.1168C18.0037 12.2482 17.7482 12.4347 17.5365 12.6656C17.4352 12.7629 17.3191 12.8434 17.1925 12.9043L17.1013 12.9534C16.4835 13.3044 15.0936 14.1679 14.3635 14.6382C14.4317 13.6957 14.556 12.758 14.7356 11.8302V11.7179L14.6584 11.5775L14.6022 11.4722C14.5467 11.4487 14.487 11.4365 14.4267 11.4365C14.3664 11.4365 14.3067 11.4487 14.2512 11.4722L14.1038 11.5214L13.9073 11.5916C13.8901 11.5971 13.8744 11.6062 13.8611 11.6183C13.8478 11.6304 13.8372 11.6452 13.83 11.6618C13.4356 12.7333 13.1991 13.8566 13.1281 14.9962C12.5936 14.6609 12.0405 14.3562 11.4714 14.0836H11.4223C11.2844 14.048 11.1537 13.9886 11.0362 13.9081L10.7765 13.7326L10.3693 13.4729H10.264C10.0261 13.5441 9.81548 13.6861 9.66032 13.8801C9.65427 13.9007 9.65427 13.9226 9.66032 13.9432C9.6537 13.9757 9.6537 14.0091 9.66032 14.0415V14.1187V14.1679C10.0127 14.4817 10.4045 14.7483 10.8256 14.9611L11.3802 15.256L12.2295 15.7193L12.377 15.8316L12.4752 15.8948L10.9309 16.9337L10.1166 17.4673C9.9648 17.5521 9.80771 17.6272 9.64628 17.6919C9.49331 17.7472 9.36428 17.8539 9.28125 17.9938V18.0429L9.34443 18.085L9.42867 18.1412L9.51992 18.2044H9.60416C9.86804 18.1674 10.1227 18.0817 10.3553 17.9516C10.7203 17.7902 11.7031 17.1935 12.1313 16.9408L12.3068 16.8284C12.3947 16.8192 12.4767 16.7794 12.5384 16.7161C12.6602 16.63 12.7894 16.5549 12.9245 16.4915C12.9649 16.465 13.0071 16.4416 13.0509 16.4213V16.4704C13.0411 17.4604 13.1186 18.4494 13.2825 19.4258C13.3848 19.6495 13.458 19.8855 13.5001 20.1278L13.6616 20.6683L13.7107 20.7175C13.8807 20.8176 14.0751 20.8686 14.2723 20.8649H14.3144V20.8017C14.3251 20.7178 14.3251 20.6329 14.3144 20.549C14.3144 20.4507 14.3144 20.3454 14.3144 20.2121V20.0155C14.2583 19.1169 14.2021 17.8112 14.2021 16.9408V16.8776L15.0234 17.39C16.2403 18.257 17.5521 18.9824 18.9334 19.5522C18.956 19.5645 18.9814 19.5709 19.0071 19.5709C19.0329 19.5709 19.0582 19.5645 19.0808 19.5522L19.2423 19.4469C19.2791 19.4193 19.3086 19.3832 19.3282 19.3416C19.3478 19.2999 19.3568 19.2541 19.3546 19.2082C19.8717 19.2008 20.3821 19.0902 20.8558 18.8829C21.3296 18.6756 21.7571 18.3756 22.1133 18.0008C22.348 17.7024 22.4765 17.3344 22.4784 16.9548C22.4878 16.8396 22.474 16.7238 22.4378 16.614C22.4017 16.5043 22.3438 16.403 22.2678 16.316" fill="#F9B000"/>
<path d="M37.3125 20.7383H38.543V17.5527L39.7734 16.1582L43.1777 20.7383H44.6816L40.5391 15.3105L44.6816 10.8398H43.0684L38.666 15.7344H38.543V10.8398H37.3125V20.7383ZM46.0078 20.7383H49.6035C51.9414 20.7383 52.9189 19.5967 52.9258 18.1133C52.9189 16.541 51.8389 15.6934 50.916 15.6387V15.543C51.7773 15.3037 52.5361 14.7363 52.5293 13.4648C52.5361 12.0088 51.5586 10.8398 49.4805 10.8398H46.0078V20.7383ZM47.2383 19.6445V16.2402H49.6582C50.9297 16.2402 51.7432 17.0947 51.7363 18.0996C51.7432 18.9609 51.1416 19.6445 49.5898 19.6445H47.2383ZM47.2383 15.1738V11.9336H49.4805C50.7725 11.9336 51.3535 12.6172 51.3535 13.4785C51.3535 14.5107 50.5127 15.1807 49.4395 15.1738H47.2383ZM65.1484 15.4746H54.0742V16.3633H65.1484V15.4746ZM54.7031 13.8887L55.0859 14.75C57.0889 14.4971 58.9414 13.6016 59.6113 12.2549C60.2812 13.6016 62.1475 14.4971 64.1367 14.75L64.5332 13.8887C62.3799 13.6426 60.3564 12.583 60.3086 11.209H64.1641V10.3203H55.0859V11.209H58.9141C58.8662 12.5967 56.8223 13.6426 54.7031 13.8887ZM55.4141 19.6309C55.4072 21.0391 56.9863 21.8184 59.6113 21.8184C62.2158 21.8184 63.7812 21.0391 63.7949 19.6309C63.7812 18.2363 62.2158 17.4297 59.6113 17.4297C56.9863 17.4297 55.4072 18.2363 55.4141 19.6309ZM56.5078 19.6309C56.4941 18.7764 57.6631 18.291 59.6113 18.2773C61.5391 18.291 62.708 18.7764 62.7148 19.6309C62.708 20.4785 61.5391 20.9639 59.6113 20.957C57.6631 20.9639 56.4941 20.4785 56.5078 19.6309ZM76.2363 9.70508H75.1426V16.3086H72.4629V17.1836H75.1426V18.8926H76.2363V9.70508ZM66.0918 14.5176L66.2422 15.4062C67.2266 15.4062 68.3682 15.3926 69.5645 15.3379V18.0859H70.6309V15.2832C71.793 15.208 72.9824 15.0918 74.1172 14.9004L74.0352 14.1211C73.584 14.1826 73.1191 14.2373 72.6475 14.2783C72.9072 12.7266 72.9072 11.5918 72.9004 10.9219V10.4434H67.1855V11.3184H71.834C71.8271 12.0156 71.7861 13.0273 71.5469 14.3672C69.6191 14.4971 67.6572 14.5107 66.0918 14.5176ZM67.9102 21.5859H76.5371V20.6836H68.9902V17.8672H67.9102V21.5859Z" fill="#7A7267"/>
</svg>
