<svg  viewBox="0 0 121 32" fill="none" xmlns="http://www.w3.org/2000/svg">
<rect width="121" height="32" rx="16" fill="#EBF0FF"/>
<rect x="4" y="4" width="24" height="24" rx="12" fill="#0046FF"/>
<g clip-path="url(#clip0_914_40020)">
<rect width="16.4211" height="16.4211" transform="translate(7.78955 7.78906)" fill="#0046FF"/>
<path d="M15.6369 7.79638C13.4592 7.89533 11.41 8.85431 9.93992 10.4624C8.46988 12.0705 7.69941 14.1961 7.79796 16.3716C7.89708 18.5437 8.85443 20.5879 10.4601 22.0559C12.0657 23.5239 14.1886 24.2959 16.3632 24.2025C18.541 24.1036 20.5902 23.1446 22.0602 21.5365C23.5303 19.9284 24.3007 17.8028 24.2022 15.6273C24.1014 13.4558 23.1436 11.4126 21.5383 9.94491C19.933 8.47726 17.8111 7.70471 15.6369 7.79638ZM14.128 23.0579C13.0353 22.9733 11.996 22.5515 11.1539 21.8508C10.3444 21.1191 9.75839 20.1737 9.46343 19.1237C9.1942 18.1855 9.08149 17.0847 9.52603 17.1722C9.67004 17.1722 9.9017 17.7977 10.1521 18.2418C10.3214 18.5727 10.5557 18.8663 10.8409 19.1049C10.9285 19.1737 11.2478 18.4795 11.6986 18.0792C11.9679 17.8602 12.2559 17.7852 12.3248 18.4357C12.3811 19.2363 12.2371 20.1933 12.4688 20.1933C12.7004 20.1933 13.1825 20.0244 14.2657 19.9368C14.6727 19.8993 14.8918 19.9743 14.5162 20.5248C14.2319 20.9538 13.8711 21.3269 13.4518 21.6256C14.3722 22.4825 15.4804 22.3824 15.4992 22.7514C15.5054 23.0079 14.8668 23.1267 14.128 23.0579ZM19.619 22.7077C18.8162 23.2389 17.8771 23.5277 16.9142 23.5395C16.8808 23.5448 16.8467 23.5433 16.8139 23.535C16.7811 23.5268 16.7503 23.512 16.7234 23.4915C16.6965 23.4711 16.674 23.4454 16.6573 23.416C16.6406 23.3866 16.63 23.3542 16.6262 23.3206C16.6262 23.133 16.8954 23.0829 16.8954 23.0829C19.356 22.6013 18.636 20.9876 17.7657 20.162C17.3963 19.818 13.9715 16.8595 13.9715 16.8595C10.6969 14.0511 10.9598 11.8557 10.9598 11.8557C11.1164 9.15366 13.4643 8.4844 15.28 8.64077C15.4866 8.64077 15.6056 8.78463 15.5681 8.95976C15.5305 9.13489 15.2487 9.16617 15.2487 9.16617C14.7381 9.15337 14.2331 9.27412 13.7836 9.51643C12.3373 10.4859 12.763 12.1372 14.6915 13.9761L15.4491 14.6953C15.4491 14.6953 15.8435 15.0394 16.6074 15.7712C18.0913 17.1347 18.899 17.8665 18.899 17.8665C21.5099 20.0306 20.6208 22.0196 19.619 22.7077ZM21.2031 13.6383C20.3891 14.2325 19.5564 13.9886 19.2246 12.8189C19.0618 12.231 18.6485 11.9308 18.2228 12.0996C17.797 12.2685 18.0537 13.0316 18.3731 13.7509C18.9992 15.3834 17.4214 15.3271 17.2335 15.3083C16.9932 15.2593 16.7709 15.1453 16.5909 14.9788C16.411 14.8122 16.2802 14.5995 16.213 14.3638C16.1508 14.0184 16.1508 13.6647 16.213 13.3193C16.3167 12.6118 16.5279 11.9242 16.8391 11.2803C17.2147 10.3358 16.3006 9.77913 16.4509 9.40385C16.6575 8.92849 17.3086 9.52894 18.0412 9.57272C18.6673 9.57272 19.043 9.57272 19.5314 9.64153C20.182 9.68386 20.8024 9.93133 21.3033 10.3483C21.6163 10.7236 21.1342 11.1739 20.5519 10.8925C20.1262 10.6861 19.594 10.8112 19.9258 11.2552C20.1582 11.5504 20.4981 11.7415 20.8713 11.7869C21.084 11.8067 21.2844 11.8956 21.4417 12.04C21.5991 12.1844 21.7046 12.3764 21.7423 12.5865C21.7799 12.7966 21.7476 13.0132 21.6502 13.2032C21.5528 13.3932 21.3957 13.546 21.2031 13.6383Z" fill="white"/>
</g>
<rect x="4.25" y="4.25" width="23.5" height="23.5" rx="11.75" stroke="black" stroke-opacity="0.15" stroke-width="0.5"/>
<path d="M46.7285 9.4668H45.6621V18.3809H46.7285V9.4668ZM36.8164 15.7832L37.4043 16.6172C38.8262 16.0498 39.9336 14.8535 40.46 13.3633C41 14.7646 42.0938 15.8584 43.502 16.3984L44.0625 15.5371C42.251 14.8809 40.9863 13.2197 41 11.3672V10.1504H39.9062V11.3672C39.9062 13.2881 38.6553 15.0654 36.8164 15.7832ZM38.8809 21.3477H47.1113V20.4453H39.9473V17.5605H38.8809V21.3477ZM58.2949 9.4668H57.2285V18.5723H58.2949V14.375H60.127V13.4727H58.2949V9.4668ZM48.8203 11.832H56.0664V10.957H52.9766V9.4668H51.9102V10.957H48.8203V11.832ZM49.5176 14.7715C49.5107 16.1387 50.6865 17.0205 52.4434 17.0137C54.1797 17.0205 55.3555 16.1387 55.3691 14.7715C55.3555 13.3906 54.1797 12.502 52.4434 12.502C50.6865 12.502 49.5107 13.3906 49.5176 14.7715ZM50.543 14.7715C50.5361 13.9033 51.2949 13.3428 52.4434 13.3496C53.5781 13.3428 54.3438 13.9033 54.3574 14.7715C54.3438 15.626 53.5781 16.1797 52.4434 16.166C51.2949 16.1797 50.5361 15.626 50.543 14.7715ZM50.6934 21.3477H58.8555V20.4453H51.7461V17.8477H50.6934V21.3477ZM72.0078 16.8223H60.8789V17.7109H65.8965V21.6074H66.9492V17.7109H72.0078V16.8223ZM62.3691 15.5645H70.75V14.6895H63.4355V13.1855H70.3262V12.3242H63.4355V10.9023H70.6133V10.0273H62.3691V15.5645ZM77.1074 13.1855V11.5996H79.8418V10.7109H73.2246V11.5996H76.0547V13.1855C76.041 15.2568 74.5371 17.5674 72.7871 18.4219L73.4434 19.2695C74.8037 18.5723 76.0205 17 76.5811 15.2158C77.1279 16.8633 78.2832 18.2988 79.6504 18.9688L80.2656 18.1211C78.502 17.2803 77.0938 15.1338 77.1074 13.1855ZM81.332 21.6074H82.3984V15.291H84.4355V14.375H82.3984V9.45312H81.332V21.6074ZM96.166 15.2363H85.0918V16.125H96.166V15.2363ZM85.7207 13.6504L86.1035 14.5117C88.1064 14.2588 89.959 13.3633 90.6289 12.0166C91.2988 13.3633 93.165 14.2588 95.1543 14.5117L95.5508 13.6504C93.3975 13.4043 91.374 12.3447 91.3262 10.9707H95.1816V10.082H86.1035V10.9707H89.9316C89.8838 12.3584 87.8398 13.4043 85.7207 13.6504ZM86.4316 19.3926C86.4248 20.8008 88.0039 21.5801 90.6289 21.5801C93.2334 21.5801 94.7988 20.8008 94.8125 19.3926C94.7988 17.998 93.2334 17.1914 90.6289 17.1914C88.0039 17.1914 86.4248 17.998 86.4316 19.3926ZM87.5254 19.3926C87.5117 18.5381 88.6807 18.0527 90.6289 18.0391C92.5566 18.0527 93.7256 18.5381 93.7324 19.3926C93.7256 20.2402 92.5566 20.7256 90.6289 20.7188C88.6807 20.7256 87.5117 20.2402 87.5254 19.3926ZM107.254 9.4668H106.16V16.0703H103.48V16.9453H106.16V18.6543H107.254V9.4668ZM97.1094 14.2793L97.2598 15.168C98.2441 15.168 99.3857 15.1543 100.582 15.0996V17.8477H101.648V15.0449C102.811 14.9697 104 14.8535 105.135 14.6621L105.053 13.8828C104.602 13.9443 104.137 13.999 103.665 14.04C103.925 12.4883 103.925 11.3535 103.918 10.6836V10.2051H98.2031V11.0801H102.852C102.845 11.7773 102.804 12.7891 102.564 14.1289C100.637 14.2588 98.6748 14.2725 97.1094 14.2793ZM98.9277 21.3477H107.555V20.4453H100.008V17.6289H98.9277V21.3477Z" fill="#0046FF"/>
<defs>
<clipPath id="clip0_914_40020">
<rect width="16.4211" height="16.4211" fill="white" transform="translate(7.78955 7.78906)"/>
</clipPath>
</defs>
</svg>
