<svg  viewBox="0 0 97 32" fill="none" xmlns="http://www.w3.org/2000/svg">
<rect width="97" height="32" rx="16" fill="#AFF34D" fill-opacity="0.2"/>
<g clip-path="url(#clip0_914_40026)">
<path d="M12.6438 8.32325C10.6099 8.41575 8.69612 9.31229 7.32322 10.8157C5.95031 12.3191 5.23076 14.3062 5.3228 16.3401C5.41536 18.3707 6.30945 20.2818 7.80901 21.6542C9.30857 23.0266 11.2912 23.7483 13.3221 23.6611C15.3559 23.5686 17.2698 22.672 18.6427 21.1686C20.0156 19.6652 20.7351 17.6781 20.6431 15.6442C20.549 13.6141 19.6544 11.704 18.1552 10.3319C16.656 8.95979 14.6743 8.23755 12.6438 8.32325V8.32325ZM11.2345 22.591C10.2141 22.5119 9.24343 22.1175 8.45701 21.4624C7.70098 20.7784 7.15368 19.8946 6.87822 18.9129C6.62678 18.0358 6.52151 17.0067 6.93668 17.0885C7.07117 17.0885 7.28752 17.6733 7.52142 18.0885C7.67954 18.3979 7.89829 18.6723 8.16464 18.8954C8.24651 18.9597 8.54472 18.3107 8.96574 17.9364C9.21718 17.7318 9.48616 17.6616 9.55048 18.2697C9.60311 19.0182 9.46862 19.9129 9.68498 19.9129C9.90133 19.9129 10.3516 19.755 11.3632 19.6731C11.7433 19.638 11.9479 19.7082 11.5971 20.2228C11.3316 20.6238 10.9947 20.9727 10.603 21.2519C11.4626 22.053 12.4976 21.9595 12.5151 22.3045C12.521 22.5442 11.9245 22.6553 11.2345 22.591V22.591ZM16.3628 22.2635C15.613 22.7602 14.7359 23.0302 13.8367 23.0412C13.8055 23.0462 13.7736 23.0447 13.743 23.037C13.7123 23.0293 13.6836 23.0155 13.6585 22.9964C13.6333 22.9772 13.6123 22.9532 13.5967 22.9258C13.5811 22.8983 13.5712 22.868 13.5677 22.8366C13.5677 22.6612 13.8191 22.6144 13.8191 22.6144C16.1172 22.1641 15.4447 20.6555 14.6319 19.8836C14.2869 19.562 11.0884 16.7962 11.0884 16.7962C8.03015 14.1707 8.27574 12.1182 8.27574 12.1182C8.42193 9.59214 10.6147 8.96646 12.3105 9.11265C12.5034 9.11265 12.6145 9.24714 12.5795 9.41087C12.5444 9.5746 12.2812 9.60383 12.2812 9.60383C11.8044 9.59187 11.3327 9.70476 10.9129 9.93129C9.56219 10.8376 9.9598 12.3814 11.7608 14.1005L12.4684 14.773C12.4684 14.773 12.8368 15.0946 13.5501 15.7787C14.936 17.0535 15.6903 17.7376 15.6903 17.7376C18.1287 19.7608 17.2983 21.6203 16.3628 22.2635V22.2635ZM17.8421 13.7847C17.082 14.3403 16.3043 14.1122 15.9944 13.0187C15.8423 12.4691 15.4564 12.1884 15.0588 12.3463C14.6611 12.5042 14.9009 13.2175 15.1991 13.89C15.7839 15.4162 14.3103 15.3636 14.1349 15.346C13.9104 15.3002 13.7028 15.1936 13.5347 15.0379C13.3667 14.8822 13.2446 14.6834 13.1817 14.4631C13.1237 14.1401 13.1237 13.8094 13.1817 13.4865C13.2787 12.8251 13.4759 12.1823 13.7665 11.5803C14.1173 10.6973 13.2636 10.1769 13.404 9.82604C13.5969 9.38163 14.205 9.94299 14.8892 9.98392C15.4739 9.98392 15.8248 9.98392 16.2809 10.0482C16.8885 10.0878 17.4679 10.3192 17.9357 10.709C18.2281 11.0598 17.7778 11.4809 17.234 11.2177C16.8364 11.0248 16.3394 11.1417 16.6493 11.5569C16.8663 11.8328 17.1838 12.0115 17.5322 12.0539C17.7309 12.0724 17.9181 12.1555 18.065 12.2905C18.212 12.4255 18.3105 12.605 18.3457 12.8014C18.3809 12.9978 18.3507 13.2004 18.2597 13.378C18.1688 13.5556 18.0221 13.6985 17.8421 13.7847V13.7847Z" fill="white"/>
</g>
<circle cx="16" cy="16" r="12" fill="#AFF34D"/>
<path d="M17.9919 9.33301C18.3214 9.40249 18.664 9.43571 18.9782 9.54789C20.6638 10.1492 21.6328 11.3629 21.9497 13.1054C22.0016 13.3911 22.0107 13.688 22.0114 13.9795C22.0161 16.2667 22.0114 18.5538 22.0172 20.841C22.0178 21.1311 21.9107 21.3094 21.6396 21.4287C20.8404 21.7798 20.0496 22.1499 19.2548 22.5112C18.9284 22.6597 18.7803 22.5601 18.7803 22.1954C18.7803 19.8689 18.7803 17.5424 18.7803 15.2156C18.7803 13.1264 17.3812 11.3687 15.3421 10.9087C15.0652 10.8464 14.7781 10.8284 14.4541 10.7843C14.6531 10.603 14.8256 10.4278 15.0161 10.2753C15.6658 9.756 16.405 9.44689 17.2361 9.36317C17.2741 9.35944 17.311 9.34318 17.3483 9.33301C17.5628 9.33301 17.7774 9.33301 17.9919 9.33301V9.33301Z" fill="#002C2C"/>
<path d="M10.1328 14.8784C10.1904 14.5984 10.2236 14.3103 10.3094 14.0392C10.8456 12.3458 11.9532 11.2558 13.7161 10.8786C13.9398 10.8308 14.1726 10.8247 14.4268 10.8359C14.3929 10.8813 14.3597 10.9274 14.3245 10.9718C13.674 11.7927 13.3571 12.7309 13.3548 13.7724C13.3497 15.9067 13.3507 18.0413 13.3564 20.1756C13.3571 20.4339 13.2632 20.5945 13.0246 20.701C12.2068 21.0657 11.3947 21.4422 10.5802 21.814C10.3562 21.9164 10.2853 21.8991 10.1332 21.7083C10.1332 19.4317 10.1332 17.155 10.1332 14.8784H10.1328Z" fill="#002C2C"/>
<path d="M48.168 14.3066H46.1992V9.45312H45.1328V21.6074H46.1992V15.209H48.168V14.3066ZM37.2988 18.5176H38.2695C40.1084 18.5176 41.9951 18.3945 44.0938 17.9707L43.957 17.0547C41.9541 17.4785 40.1426 17.6152 38.3652 17.6152V10.6562H37.2988V18.5176ZM60.0078 16.5215H48.8789V17.4102H53.8828V21.6074H54.9355V17.4102H60.0078V16.5215ZM50.3145 14.8672H58.5586V10.1367H50.3145V14.8672ZM51.3672 14.0195V11.0117H57.4922V14.0195H51.3672ZM72.0664 15.2363H60.9922V16.125H72.0664V15.2363ZM61.6211 13.6504L62.0039 14.5117C64.0068 14.2588 65.8594 13.3633 66.5293 12.0166C67.1992 13.3633 69.0654 14.2588 71.0547 14.5117L71.4512 13.6504C69.2979 13.4043 67.2744 12.3447 67.2266 10.9707H71.082V10.082H62.0039V10.9707H65.832C65.7842 12.3584 63.7402 13.4043 61.6211 13.6504ZM62.332 19.3926C62.3252 20.8008 63.9043 21.5801 66.5293 21.5801C69.1338 21.5801 70.6992 20.8008 70.7129 19.3926C70.6992 17.998 69.1338 17.1914 66.5293 17.1914C63.9043 17.1914 62.3252 17.998 62.332 19.3926ZM63.4258 19.3926C63.4121 18.5381 64.5811 18.0527 66.5293 18.0391C68.457 18.0527 69.626 18.5381 69.6328 19.3926C69.626 20.2402 68.457 20.7256 66.5293 20.7188C64.5811 20.7256 63.4121 20.2402 63.4258 19.3926ZM83.1543 9.4668H82.0605V16.0703H79.3809V16.9453H82.0605V18.6543H83.1543V9.4668ZM73.0098 14.2793L73.1602 15.168C74.1445 15.168 75.2861 15.1543 76.4824 15.0996V17.8477H77.5488V15.0449C78.7109 14.9697 79.9004 14.8535 81.0352 14.6621L80.9531 13.8828C80.502 13.9443 80.0371 13.999 79.5654 14.04C79.8252 12.4883 79.8252 11.3535 79.8184 10.6836V10.2051H74.1035V11.0801H78.752C78.7451 11.7773 78.7041 12.7891 78.4648 14.1289C76.5371 14.2588 74.5752 14.2725 73.0098 14.2793ZM74.8281 21.3477H83.4551V20.4453H75.9082V17.6289H74.8281V21.3477Z" fill="#002C2C"/>
<defs>
<clipPath id="clip0_914_40026">
<rect width="15.3495" height="15.3495" fill="white" transform="translate(5.31738 8.31641)"/>
</clipPath>
</defs>
</svg>
