<svg  viewBox="0 0 90 32" fill="none" xmlns="http://www.w3.org/2000/svg">
<rect width="90" height="32" rx="16" fill="#DD052B" fill-opacity="0.06"/>
<circle cx="16" cy="16" r="12" fill="#DD052B"/>
<g clip-path="url(#clip0_914_40023)">
<path d="M11.1784 18.0647C10.7199 17.8499 10.3327 17.676 10.3327 17.318C10.3327 17.0521 10.5466 16.8475 10.9746 16.8475C11.1274 16.8475 11.2599 16.868 11.3924 16.8884C11.4637 16.8987 11.535 16.9089 11.5961 16.9089C11.9732 16.9089 12.1769 16.6839 12.3196 16.2645L12.3807 16.0906C12.3196 16.0701 11.7082 15.7939 10.9236 15.7939C9.66015 15.7939 8.99784 16.602 8.99784 17.451C8.99784 17.8806 9.1303 18.1875 9.33409 18.4228C9.59901 18.7398 9.98621 18.9342 10.3428 19.1183C10.8625 19.374 11.3312 19.5684 11.3312 19.9468C11.3312 20.2844 10.9848 20.4787 10.5263 20.4787C9.89451 20.4787 9.33409 20.1105 9.26276 20.0696L8.73291 21.0618C8.82462 21.1129 9.49712 21.5425 10.5976 21.5425C11.7796 21.5425 12.666 20.8674 12.666 19.8241C12.666 18.7808 11.8407 18.3921 11.1784 18.0647Z" fill="white"/>
<path d="M15.7843 18.5565L17.9241 15.9277H16.3957L14.694 18.1985H14.6635V15.9277H13.4102V21.4922H13.4815C14.0215 21.4922 14.6736 21.2365 14.6736 20.3261V19.0475H14.694L16.4262 21.4206H18.026L15.7843 18.5565Z" fill="white"/>
<path d="M17.9855 9.96289C17.5474 10.0447 16.8953 10.4436 16.8953 11.1597C16.8953 11.8041 17.4251 12.1928 17.4251 13.0418C17.4251 13.676 17.0787 14.1056 16.7017 14.3408C16.8545 14.3306 17.0175 14.3204 17.2111 14.3204C17.5983 14.3204 17.8327 14.3613 17.8429 14.3613L19.8196 11.9166C19.2694 11.0881 18.6275 10.4539 17.9855 9.96289Z" fill="white"/>
<path d="M19.657 16.5507C19.9117 16.162 19.9423 15.538 19.9627 14.9038C19.9831 14.3105 20.1053 13.8707 20.9001 13.8707C21.0733 13.8707 21.2364 13.8912 21.542 13.8912C22.6934 13.8912 23.4475 13.4922 23.9162 13.2263C22.9584 12.6126 21.5624 11.9886 19.8302 11.917C19.7181 12.2341 18.8418 14.689 18.7705 14.8834C18.7807 14.8936 18.9335 15.0675 19.1271 15.405C19.4023 15.8755 19.5551 16.2642 19.657 16.5507Z" fill="white"/>
<path d="M15.3402 14.5452C15.2384 14.5452 15.1874 14.4839 15.1772 14.3611C15.167 14.2486 14.6677 9.69677 14.5964 9.01144C14.5862 8.90915 14.5659 8.72503 14.5557 8.66366C14.5557 8.56137 14.627 8.5 14.7085 8.5C14.9429 8.5 16.2267 8.79664 17.5819 9.75815C17.1947 9.87066 16.4815 10.2798 16.4815 11.1186C16.4815 11.8653 17.0215 12.2744 17.0215 13.0314C17.0317 14.2486 15.6256 14.5452 15.3402 14.5452Z" fill="white"/>
<path d="M20.0288 16.8782C20.0492 16.9396 20.0696 16.9805 20.0899 17.0112C20.1205 17.0623 20.1613 17.093 20.2122 17.093C20.2428 17.093 20.2835 17.0828 20.3243 17.0623C20.4262 17.0112 24.5631 15.0779 25.1847 14.7915C25.2764 14.7506 25.4496 14.6688 25.5005 14.6381C25.5617 14.6074 25.5821 14.5562 25.5821 14.5051C25.5821 14.4744 25.5719 14.454 25.5617 14.4233C25.4802 14.3005 25.0828 13.8709 24.4103 13.4004C23.8804 13.697 23.0449 14.1471 21.812 14.1573C21.5063 14.1573 21.4451 14.1369 21.2312 14.1369C20.63 14.1369 20.4771 14.3926 20.4568 14.9245C20.4568 15.0268 20.4466 15.1597 20.4466 15.303C20.4466 15.7837 20.3854 16.4384 20.0288 16.8782Z" fill="white"/>
</g>
<path d="M42.7949 13.0898H43.998C43.9502 11.5859 42.5693 10.4648 40.6484 10.4648C38.7275 10.4648 37.2373 11.5654 37.2441 13.2402C37.2373 14.5801 38.208 15.373 39.7598 15.8242L40.9766 16.1523C42.0156 16.4463 42.9316 16.8154 42.9316 17.7793C42.9316 18.8594 41.9062 19.5635 40.5391 19.5566C39.3633 19.5635 38.3311 19.0371 38.2285 17.9297H36.9707C37.0869 19.5703 38.4062 20.6709 40.5391 20.6777C42.8359 20.6709 44.1348 19.4199 44.1348 17.8066C44.1348 15.9541 42.3916 15.3457 41.332 15.0723L40.3477 14.7988C39.5957 14.6143 38.4404 14.2246 38.4336 13.1855C38.4404 12.2422 39.2949 11.5586 40.6074 11.5586C41.79 11.5586 42.6924 12.1191 42.7949 13.0898ZM45.8984 20.5H47.1289V17.3145L48.3594 15.9199L51.7637 20.5H53.2676L49.125 15.0723L53.2676 10.6016H51.6543L47.252 15.4961H47.1289V10.6016H45.8984V20.5ZM65.0664 15.2363H53.9922V16.125H65.0664V15.2363ZM54.6211 13.6504L55.0039 14.5117C57.0068 14.2588 58.8594 13.3633 59.5293 12.0166C60.1992 13.3633 62.0654 14.2588 64.0547 14.5117L64.4512 13.6504C62.2979 13.4043 60.2744 12.3447 60.2266 10.9707H64.082V10.082H55.0039V10.9707H58.832C58.7842 12.3584 56.7402 13.4043 54.6211 13.6504ZM55.332 19.3926C55.3252 20.8008 56.9043 21.5801 59.5293 21.5801C62.1338 21.5801 63.6992 20.8008 63.7129 19.3926C63.6992 17.998 62.1338 17.1914 59.5293 17.1914C56.9043 17.1914 55.3252 17.998 55.332 19.3926ZM56.4258 19.3926C56.4121 18.5381 57.5811 18.0527 59.5293 18.0391C61.457 18.0527 62.626 18.5381 62.6328 19.3926C62.626 20.2402 61.457 20.7256 59.5293 20.7188C57.5811 20.7256 56.4121 20.2402 56.4258 19.3926ZM76.1543 9.4668H75.0605V16.0703H72.3809V16.9453H75.0605V18.6543H76.1543V9.4668ZM66.0098 14.2793L66.1602 15.168C67.1445 15.168 68.2861 15.1543 69.4824 15.0996V17.8477H70.5488V15.0449C71.7109 14.9697 72.9004 14.8535 74.0352 14.6621L73.9531 13.8828C73.502 13.9443 73.0371 13.999 72.5654 14.04C72.8252 12.4883 72.8252 11.3535 72.8184 10.6836V10.2051H67.1035V11.0801H71.752C71.7451 11.7773 71.7041 12.7891 71.4648 14.1289C69.5371 14.2588 67.5752 14.2725 66.0098 14.2793ZM67.8281 21.3477H76.4551V20.4453H68.9082V17.6289H67.8281V21.3477Z" fill="#DD052B"/>
<defs>
<clipPath id="clip0_914_40023">
<rect width="16.5986" height="13.0418" fill="white" transform="translate(8.73291 8.5)"/>
</clipPath>
</defs>
</svg>
