<svg  viewBox="0 0 40 40" fill="none" xmlns="http://www.w3.org/2000/svg">
<path d="M20 40C31.0457 40 40 31.0457 40 20C40 8.95431 31.0457 0 20 0C8.95431 0 0 8.95431 0 20C0 31.0457 8.95431 40 20 40Z" fill="#202124"/>
<path fill-rule="evenodd" clip-rule="evenodd" d="M25.9264 22.0569C25.4491 23.3467 24.5615 24.4462 23.4003 25.1863L27.1278 28.0289C28.8896 26.4682 30.0856 24.3684 30.5308 22.0569C30.6622 21.3784 30.7266 20.6892 30.7266 20C30.7266 19.335 30.6649 18.6699 30.5442 18.0156H20V22.0569H25.9264Z" fill="#4285F4"/>
<path fill-rule="evenodd" clip-rule="evenodd" d="M24.0082 14.9612C22.9195 14.0682 21.525 13.5346 19.9992 13.5346C17.229 13.5292 14.778 15.3313 13.9628 17.9781L10.3828 15.2267C12.1929 11.5716 15.9231 9.26275 19.9992 9.27347C22.7076 9.27347 25.1747 10.2684 27.0599 11.9122L24.0082 14.9639V14.9612Z" fill="#EA4335"/>
<path fill-rule="evenodd" clip-rule="evenodd" d="M13.6821 19.8524C13.6821 19.1981 13.7813 18.5706 13.9636 17.9779L10.3836 15.2266C9.673 16.6612 9.27344 18.2836 9.27344 19.9999C9.27344 21.7161 9.65423 23.2634 10.3354 24.6767L14.0199 21.9119C13.8 21.2656 13.6794 20.5738 13.6794 19.8524H13.6821Z" fill="#FBBC05"/>
<path fill-rule="evenodd" clip-rule="evenodd" d="M20.0006 26.1706C21.2529 26.1706 22.4194 25.8085 23.3982 25.1864L27.1284 28.0289C25.1654 29.772 22.6286 30.732 20.0006 30.7267C15.8843 30.7374 12.1273 28.3829 10.3359 24.6769L14.0205 21.9121C14.8947 24.465 17.3002 26.1786 19.9979 26.1706H20.0006Z" fill="#34A853"/>
</svg>
