<svg  viewBox="0 0 38 38" fill="none" xmlns="http://www.w3.org/2000/svg">
<circle cx="19" cy="19" r="19" fill="#DD052B"/>
<g clip-path="url(#clip0_914_33993)">
<path d="M11.3661 22.2683C10.6401 21.9282 10.0271 21.6528 10.0271 21.086C10.0271 20.6649 10.3659 20.341 11.0435 20.341C11.2855 20.341 11.4952 20.3734 11.7049 20.4058C11.8179 20.422 11.9308 20.4382 12.0276 20.4382C12.6245 20.4382 12.9472 20.0819 13.1731 19.4179L13.2699 19.1425C13.1731 19.1101 12.2051 18.6729 10.9628 18.6729C8.96227 18.6729 7.91361 19.9523 7.91361 21.2965C7.91361 21.9768 8.12334 22.4626 8.446 22.8351C8.86547 23.3372 9.47853 23.6449 10.0432 23.9364C10.866 24.3413 11.6081 24.649 11.6081 25.2483C11.6081 25.7827 11.0596 26.0905 10.3336 26.0905C9.33334 26.0905 8.446 25.5074 8.33307 25.4426L7.49414 27.0136C7.63934 27.0946 8.70414 27.7748 10.4465 27.7748C12.318 27.7748 13.7216 26.7059 13.7216 25.0539C13.7216 23.402 12.4148 22.7865 11.3661 22.2683Z" fill="white"/>
<path d="M18.6591 23.0461L22.0471 18.8838H19.6271L16.9328 22.4792H16.8844V18.8838H14.9V27.6942H15.013C15.868 27.6942 16.9006 27.2893 16.9006 25.8479V23.8235H16.9328L19.6755 27.5809H22.2084L18.6591 23.0461Z" fill="white"/>
<path d="M22.1441 9.44043C21.4504 9.56999 20.4179 10.2016 20.4179 11.3353C20.4179 12.3556 21.2568 12.9711 21.2568 14.3153C21.2568 15.3195 20.7083 15.9997 20.1113 16.3722C20.3533 16.356 20.6115 16.3398 20.918 16.3398C21.5311 16.3398 21.9021 16.4046 21.9183 16.4046L25.0481 12.5338C24.1769 11.222 23.1605 10.2178 22.1441 9.44043Z" fill="white"/>
<path d="M24.7904 19.8708C25.1938 19.2554 25.2422 18.2674 25.2744 17.2633C25.3067 16.324 25.5003 15.6275 26.7587 15.6275C27.033 15.6275 27.2911 15.6599 27.7751 15.6599C29.5982 15.6599 30.792 15.0283 31.5341 14.6072C30.0176 13.6355 27.8074 12.6475 25.0647 12.5342C24.8872 13.0362 23.4998 16.9232 23.3868 17.2309C23.403 17.2471 23.645 17.5224 23.9515 18.0569C24.3871 18.8019 24.6291 19.4173 24.7904 19.8708Z" fill="white"/>
<path d="M17.9555 16.6966C17.7942 16.6966 17.7135 16.5995 17.6974 16.4051C17.6813 16.227 16.8907 9.01989 16.7778 7.93478C16.7617 7.77283 16.7294 7.4813 16.7133 7.38413C16.7133 7.22217 16.8262 7.125 16.9553 7.125C17.3263 7.125 19.3591 7.59467 21.5048 9.11707C20.8918 9.29522 19.7624 9.94304 19.7624 11.2711C19.7624 12.4534 20.6175 13.1012 20.6175 14.2997C20.6336 16.227 18.4072 16.6966 17.9555 16.6966Z" fill="white"/>
<path d="M25.3787 20.3903C25.4109 20.4875 25.4432 20.5523 25.4755 20.6009C25.5239 20.6818 25.5884 20.7304 25.6691 20.7304C25.7175 20.7304 25.782 20.7142 25.8465 20.6818C26.0079 20.6009 32.558 17.5399 33.5421 17.0864C33.6873 17.0216 33.9616 16.892 34.0422 16.8435C34.139 16.7949 34.1713 16.7139 34.1713 16.6329C34.1713 16.5843 34.1552 16.5519 34.139 16.5034C34.01 16.309 33.3808 15.6288 32.316 14.8838C31.477 15.3535 30.1541 16.0661 28.202 16.0823C27.718 16.0823 27.6212 16.0499 27.2824 16.0499C26.3305 16.0499 26.0885 16.4548 26.0563 17.2969C26.0563 17.4589 26.0401 17.6694 26.0401 17.8962C26.0401 18.6574 25.9433 19.6939 25.3787 20.3903Z" fill="white"/>
</g>
<defs>
<clipPath id="clip0_914_33993">
<rect width="26.2811" height="20.6495" fill="white" transform="translate(7.49414 7.125)"/>
</clipPath>
</defs>
</svg>
