<svg viewBox="0 0 38 38" fill="none" xmlns="http://www.w3.org/2000/svg">
<path d="M19 38C29.4934 38 38 29.4934 38 19C38 8.50659 29.4934 0 19 0C8.50659 0 0 8.50659 0 19C0 29.4934 8.50659 38 19 38Z" fill="#0046FF"/>
<g clip-path="url(#clip0_914_33979)">
<rect width="26" height="26" transform="translate(6 6)" fill="#0046FF"/>
<path d="M18.425 6.01159C14.9769 6.16826 11.7323 7.68665 9.40475 10.2328C7.07718 12.779 5.85728 16.1445 6.01332 19.589C6.17025 23.0282 7.68605 26.2648 10.2283 28.5892C12.7706 30.9135 16.1319 32.1358 19.575 31.988C23.0231 31.8313 26.2677 30.3129 28.5953 27.7668C30.9228 25.2206 32.1427 21.8551 31.9867 18.4105C31.8272 14.9723 30.3105 11.7372 27.7688 9.41343C25.2271 7.08964 21.8674 5.86645 18.425 6.01159ZM16.0358 30.1757C14.3058 30.0418 12.6602 29.3738 11.3269 28.2644C10.0452 27.1058 9.11733 25.609 8.65031 23.9465C8.22403 22.461 8.04557 20.718 8.74942 20.8567C8.97743 20.8567 9.34423 21.847 9.74077 22.5501C10.0088 23.0741 10.3797 23.5389 10.8313 23.9168C10.9701 24.0257 11.4756 22.9265 12.1894 22.2926C12.6157 21.946 13.0717 21.8272 13.1808 22.8571C13.27 24.1248 13.042 25.64 13.4088 25.64C13.7756 25.64 14.5389 25.3726 16.2539 25.2339C16.8983 25.1745 17.2453 25.2934 16.6505 26.1648C16.2004 26.8441 15.6292 27.4349 14.9652 27.9078C16.4225 29.2646 18.1772 29.1061 18.2069 29.6904C18.2168 30.0965 17.2056 30.2846 16.0358 30.1757ZM24.73 29.6211C23.4589 30.4623 21.972 30.9196 20.4474 30.9382C20.3945 30.9466 20.3404 30.9442 20.2885 30.9311C20.2366 30.9181 20.1879 30.8946 20.1452 30.8622C20.1026 30.8299 20.067 30.7892 20.0406 30.7427C20.0141 30.6962 19.9974 30.6448 19.9913 30.5916C19.9913 30.2945 20.4176 30.2153 20.4176 30.2153C24.3136 29.4527 23.1736 26.8977 21.7956 25.5905C21.2107 25.0458 15.788 20.3615 15.788 20.3615C10.6033 15.9149 11.0196 12.4388 11.0196 12.4388C11.2675 8.16061 14.985 7.10095 17.8599 7.34853C18.1871 7.34853 18.3754 7.57631 18.316 7.85361C18.2565 8.1309 17.8104 8.18041 17.8104 8.18041C17.0019 8.16015 16.2023 8.35134 15.4906 8.735C13.2006 10.27 13.8747 12.8845 16.9281 15.7961L18.1276 16.9349C18.1276 16.9349 18.7522 17.4796 19.9616 18.6383C22.3111 20.7972 23.5899 21.9559 23.5899 21.9559C27.7238 25.3825 26.3162 28.5317 24.73 29.6211ZM27.2381 15.2613C25.9493 16.2021 24.6309 15.8159 24.1054 13.964C23.8477 13.033 23.1934 12.5577 22.5193 12.8251C21.8452 13.0925 22.2516 14.3007 22.7572 15.4395C23.7486 18.0243 21.2504 17.9352 20.953 17.9055C20.5724 17.8279 20.2204 17.6474 19.9355 17.3837C19.6506 17.12 19.4436 16.7832 19.3371 16.4101C19.2387 15.8632 19.2387 15.3031 19.3371 14.7562C19.5014 13.636 19.8357 12.5473 20.3284 11.5277C20.9232 10.0323 19.4758 9.15094 19.7138 8.55674C20.0409 7.80409 21.0719 8.75481 22.2318 8.82413C23.2231 8.82413 23.8179 8.82413 24.5912 8.93307C25.6214 9.00009 26.6037 9.39192 27.3967 10.0521C27.8924 10.6463 27.1291 11.3594 26.2071 10.9137C25.533 10.5869 24.6903 10.785 25.2157 11.4881C25.5837 11.9554 26.1219 12.2581 26.7127 12.3299C27.0495 12.3612 27.3668 12.5019 27.6159 12.7306C27.8651 12.9593 28.0322 13.2632 28.0918 13.5959C28.1515 13.9286 28.1003 14.2716 27.9461 14.5724C27.7919 14.8732 27.5431 15.1152 27.2381 15.2613Z" fill="white"/>
</g>
<defs>
<clipPath id="clip0_914_33979">
<rect width="26" height="26" fill="white" transform="translate(6 6)"/>
</clipPath>
</defs>
</svg>
