<svg viewBox="0 0 38 38" fill="none" xmlns="http://www.w3.org/2000/svg">
<circle cx="19" cy="19" r="19" fill="#7A7267"/>
<path d="M29.1349 19.0334L28.9459 18.9222C28.5951 18.5987 28.1769 18.357 27.7213 18.2148C27.2658 18.0726 26.7843 18.0333 26.3118 18.0997C25.4873 18.1653 24.6924 18.4367 23.9999 18.8889C24.0059 18.573 24.0282 18.2577 24.0666 17.9441C24.1274 17.61 24.1645 17.272 24.1778 16.9327C24.1834 16.6372 24.1344 16.3433 24.0333 16.0657C24.0199 16.0326 23.9968 16.0042 23.9671 15.9844C23.9373 15.9646 23.9023 15.9542 23.8666 15.9545C23.4733 15.9842 23.0925 16.1061 22.7551 16.3102L22.6773 16.4769C22.6661 16.9548 22.6141 17.4307 22.5217 17.8997V18.0219C22.3938 19.2226 22.3938 20.4336 22.5217 21.6343C22.5217 21.7343 22.7329 21.8899 22.8885 21.9455C23.2318 21.958 23.5736 21.8934 23.8888 21.7565H23.9999C24.0234 21.7538 24.046 21.7464 24.0666 21.7348C24.0871 21.7233 24.1052 21.7077 24.1196 21.6891C24.1341 21.6705 24.1447 21.6491 24.1509 21.6264C24.1571 21.6036 24.1587 21.5798 24.1555 21.5565V21.2564C24.3003 20.735 24.5833 20.2624 24.9746 19.8887C25.3659 19.5149 25.851 19.254 26.3785 19.1334C26.6374 19.0801 26.9058 19.095 27.1572 19.1769C27.4086 19.2587 27.6343 19.4046 27.8122 19.6002C27.9273 20.0975 27.8436 20.62 27.5788 21.0563C27.2032 21.6721 26.6198 22.1334 25.9339 22.3567C25.1289 22.6418 24.274 22.7591 23.422 22.7013L22.4884 22.0789C21.6359 21.4475 20.7104 20.9212 19.7319 20.5117C19.5135 20.3945 19.3117 20.2487 19.1317 20.0782L19.0428 20.0115C18.5316 19.6002 17.5646 18.9 16.8199 18.4332L16.3976 18.1553V18.0441L16.9088 17.7329C17.3082 17.5489 17.6819 17.3135 18.0203 17.0327H18.1203L19.7319 16.0435C21.3343 15.2659 22.8288 14.2833 24.1778 13.1202V12.9758V12.8313C24.2388 12.6472 24.2388 12.4484 24.1778 12.2644C24.1724 12.2328 24.158 12.2033 24.1363 12.1797C24.1146 12.156 24.0866 12.1391 24.0555 12.131C23.5599 12.1492 23.0728 12.2657 22.6225 12.4737C22.1722 12.6816 21.7677 12.977 21.4325 13.3425C21.2721 13.4965 21.0882 13.6241 20.8878 13.7204L20.7434 13.7983C19.7653 14.354 17.5646 15.7211 16.4087 16.4658C16.5166 14.9735 16.7133 13.4888 16.9977 12.0199V11.842L16.8755 11.6197L16.7866 11.453C16.6987 11.4157 16.6042 11.3965 16.5087 11.3965C16.4132 11.3965 16.3187 11.4157 16.2308 11.453L15.9974 11.5308L15.6862 11.642C15.6591 11.6507 15.6342 11.6652 15.6131 11.6843C15.592 11.7035 15.5752 11.7269 15.564 11.7531C14.9394 13.4497 14.565 15.2282 14.4525 17.0327C13.6062 16.5017 12.7305 16.0193 11.8295 15.5878H11.7516C11.5333 15.5313 11.3265 15.4372 11.1403 15.3099L10.7291 15.032L10.0845 14.6208H9.91774C9.54099 14.7335 9.20755 14.9583 8.96188 15.2654C8.95231 15.2981 8.95231 15.3328 8.96188 15.3655C8.9514 15.4168 8.9514 15.4697 8.96188 15.5211V15.6433V15.7211C9.5199 16.2179 10.1401 16.6401 10.8069 16.9771L11.685 17.4439L13.0298 18.1775L13.2632 18.3554L13.4188 18.4554L10.9736 20.1004L9.68433 20.9451C9.44399 21.0795 9.19525 21.1983 8.93966 21.3008C8.69745 21.3884 8.49316 21.5573 8.36169 21.7788V21.8566L8.46173 21.9233L8.59511 22.0122L8.7396 22.1122H8.87297C9.29078 22.0537 9.69406 21.9181 10.0622 21.7121C10.6402 21.4564 12.1962 20.5117 12.8742 20.1115L13.1521 19.9337C13.2914 19.919 13.4211 19.8561 13.5189 19.7558C13.7118 19.6195 13.9163 19.5005 14.1302 19.4002C14.1941 19.3583 14.2609 19.3211 14.3302 19.289V19.3668C14.3148 20.9344 14.4375 22.5002 14.697 24.0462C14.859 24.4004 14.9748 24.774 15.0416 25.1577L15.2972 26.0135L15.375 26.0913C15.6441 26.2498 15.9519 26.3306 16.2642 26.3248H16.3309V26.2247C16.3478 26.0919 16.3478 25.9574 16.3309 25.8246C16.3309 25.669 16.3309 25.5023 16.3309 25.2911V24.9799C16.2419 23.5571 16.153 21.4898 16.153 20.1115V20.0115L17.4534 20.8229C19.3802 22.1956 21.4572 23.3442 23.6443 24.2463C23.6801 24.2657 23.7202 24.2759 23.761 24.2759C23.8017 24.2759 23.8419 24.2657 23.8777 24.2463L24.1333 24.0795C24.1916 24.0359 24.2384 23.9787 24.2694 23.9128C24.3004 23.8469 24.3147 23.7744 24.3111 23.7016C25.1299 23.69 25.938 23.5149 26.6881 23.1866C27.4382 22.8583 28.1151 22.3834 28.6792 21.7899C29.0507 21.3175 29.2541 20.7347 29.2571 20.1337C29.2721 19.9514 29.2502 19.768 29.193 19.5942C29.1357 19.4205 29.0441 19.26 28.9237 19.1223" fill="#F9B000"/>
</svg>
