<svg viewBox="0 0 38 38" fill="none" xmlns="http://www.w3.org/2000/svg">
<g clip-path="url(#clip0_914_33972)">
<path d="M13.6863 6.84579C10.466 6.99226 7.43581 8.41177 5.26205 10.7921C3.08828 13.1725 1.94899 16.3188 2.09472 19.5391C2.24128 22.7543 3.65692 25.7802 6.03122 27.9532C8.40552 30.1261 11.5447 31.2688 14.7602 31.1307C17.9805 30.9842 21.0107 29.5647 23.1845 27.1843C25.3583 24.8039 26.4976 21.6576 26.3518 18.4374C26.2029 15.223 24.7864 12.1986 22.4127 10.0261C20.0389 7.85365 16.9012 6.7101 13.6863 6.84579ZM11.455 29.4364C9.83923 29.3112 8.30238 28.6867 7.05722 27.6495C5.86017 26.5664 4.99362 25.1671 4.55746 23.6128C4.15935 22.2241 3.99268 20.5946 4.65002 20.7242C4.86297 20.7242 5.20553 21.65 5.57587 22.3074C5.82622 22.7973 6.17257 23.2318 6.5943 23.585C6.72392 23.6869 7.19609 22.6592 7.8627 22.0667C8.26081 21.7426 8.6867 21.6315 8.78855 22.5944C8.87187 23.7795 8.65894 25.196 9.0015 25.196C9.34406 25.196 10.057 24.946 11.6587 24.8164C12.2605 24.7609 12.5845 24.872 12.029 25.6867C11.6087 26.3217 11.0752 26.8741 10.4551 27.3162C11.8161 28.5846 13.4548 28.4365 13.4826 28.9827C13.4918 29.3623 12.5475 29.5382 11.455 29.4364ZM19.5746 28.9179C18.3875 29.7043 16.9989 30.1318 15.575 30.1493C15.5256 30.1571 15.4751 30.1548 15.4266 30.1426C15.3781 30.1304 15.3326 30.1085 15.2928 30.0782C15.253 30.0479 15.2198 30.0099 15.1951 29.9664C15.1704 29.9229 15.1547 29.8749 15.1491 29.8252C15.1491 29.5475 15.5472 29.4734 15.5472 29.4734C19.1858 28.7605 18.121 26.3718 16.8341 25.1497C16.2879 24.6405 11.2235 20.2613 11.2235 20.2613C6.38136 16.1042 6.77021 12.8545 6.77021 12.8545C7.00167 8.85487 10.4736 7.86422 13.1585 8.09568C13.4641 8.09568 13.64 8.30863 13.5844 8.56786C13.5289 8.8271 13.1122 8.87339 13.1122 8.87339C12.3572 8.85445 11.6104 9.03318 10.9458 9.39186C8.80708 10.8269 9.43664 13.2711 12.2882 15.9931L13.4085 17.0578C13.4085 17.0578 13.9918 17.5671 15.1213 18.6503C17.3156 20.6686 18.5099 21.7519 18.5099 21.7519C22.3707 24.9553 21.056 27.8995 19.5746 28.9179ZM21.917 15.4932C20.7134 16.3727 19.4821 16.0116 18.9914 14.2803C18.7506 13.41 18.1396 12.9656 17.51 13.2156C16.8804 13.4656 17.26 14.5951 17.7322 15.6598C18.6581 18.0763 16.3249 17.9929 16.0472 17.9652C15.6918 17.8926 15.3631 17.7239 15.097 17.4774C14.8308 17.2308 14.6375 16.916 14.5381 16.5671C14.4462 16.0559 14.4462 15.5323 14.5381 15.021C14.6915 13.9737 15.0037 12.9559 15.4639 12.0027C16.0194 10.6047 14.6677 9.78072 14.8899 9.22521C15.1954 8.52157 16.1583 9.41038 17.2415 9.47519C18.1673 9.47519 18.7229 9.47519 19.445 9.57703C20.4071 9.63969 21.3245 10.006 22.0652 10.6232C22.5281 11.1787 21.8152 11.8453 20.9541 11.4287C20.3246 11.1232 19.5376 11.3084 20.0283 11.9657C20.3719 12.4026 20.8746 12.6855 21.4263 12.7527C21.7409 12.7819 22.0373 12.9135 22.2699 13.1273C22.5025 13.3411 22.6587 13.6252 22.7143 13.9362C22.77 14.2472 22.7222 14.5679 22.5782 14.8491C22.4342 15.1303 22.2019 15.3566 21.917 15.4932Z" fill="white"/>
</g>
<circle cx="19" cy="19" r="19" fill="#AFF34D"/>
<path d="M22.1541 8.44434C22.6757 8.55435 23.2182 8.60694 23.7157 8.78457C26.3845 9.73659 27.9188 11.6583 28.4205 14.4173C28.5026 14.8697 28.5171 15.3398 28.5182 15.8013C28.5257 19.4226 28.5182 23.0439 28.5273 26.6653C28.5284 27.1246 28.3588 27.4069 27.9295 27.5958C26.6641 28.1518 25.4121 28.7378 24.1536 29.3099C23.6368 29.5449 23.4023 29.3872 23.4023 28.8097C23.4023 25.1261 23.4023 21.4426 23.4023 17.7585C23.4023 14.4505 21.187 11.6675 17.9585 10.9392C17.5201 10.8405 17.0655 10.812 16.5525 10.7423C16.8675 10.4552 17.1407 10.1777 17.4423 9.93623C18.471 9.11408 19.6415 8.62465 20.9573 8.4921C21.0174 8.48619 21.0759 8.46044 21.135 8.44434C21.4747 8.44434 21.8144 8.44434 22.1541 8.44434Z" fill="#002C2C"/>
<path d="M9.71033 17.2246C9.80156 16.7814 9.85415 16.3252 9.98992 15.8959C10.8389 13.2148 12.5927 11.4889 15.3838 10.8916C15.738 10.816 16.1067 10.8063 16.5092 10.824C16.4555 10.8959 16.4029 10.9689 16.3471 11.0392C15.3173 12.339 14.8155 13.8244 14.8117 15.4736C14.8037 18.8528 14.8053 22.2327 14.8144 25.612C14.8155 26.0209 14.6668 26.2753 14.289 26.4438C12.9941 27.0212 11.7083 27.6174 10.4187 28.2061C10.064 28.3682 9.95182 28.3408 9.71086 28.0387C9.71086 24.434 9.71086 20.8293 9.71086 17.2246H9.71033Z" fill="#002C2C"/>
<defs>
<clipPath id="clip0_914_33972">
<rect width="24.3034" height="24.3034" fill="white" transform="translate(2.08618 6.83496)"/>
</clipPath>
</defs>
</svg>
