<svg viewBox="0 0 118 135" fill="none" xmlns="http://www.w3.org/2000/svg">
<path d="M40.314 74.733C40.314 73.927 40.951 73.498 41.913 73.498C42.862 73.498 43.512 73.966 43.512 74.772V75.097C43.512 75.539 43.837 75.838 44.396 75.838C44.929 75.838 45.267 75.539 45.267 75.006V74.616C45.267 72.796 43.824 72.016 41.913 72.016C39.989 72.016 38.559 72.796 38.559 74.616V75.591C38.559 76.878 38.923 77.528 41.445 78.529C43.317 79.257 43.564 79.465 43.564 80.752V81.454C43.564 82.26 42.888 82.741 41.913 82.741C40.964 82.741 40.262 82.26 40.262 81.454V80.986C40.262 80.479 39.95 80.154 39.391 80.154C38.819 80.154 38.507 80.479 38.507 80.986V81.623C38.507 83.443 39.95 84.223 41.887 84.223C43.811 84.223 45.319 83.443 45.319 81.623V80.414C45.319 78.672 45.072 78.139 42.329 77.047C40.821 76.449 40.314 76.176 40.314 75.513V74.733ZM45.95 73.03C45.95 73.524 46.275 73.784 46.886 73.784H48.576V83.092C48.576 83.716 48.901 84.054 49.473 84.054C50.058 84.054 50.383 83.716 50.383 83.092V73.784H52.151C52.71 73.784 53.022 73.524 53.022 73.03C53.022 72.536 52.684 72.276 52.086 72.276H46.886C46.275 72.276 45.95 72.536 45.95 73.03ZM59.2171 83.963C59.7761 83.963 60.1141 83.69 60.1141 83.209C60.1141 82.715 59.7761 82.455 59.2171 82.455H55.7201V78.711H58.9961C59.5551 78.711 59.8541 78.438 59.8541 77.983C59.8541 77.528 59.5551 77.242 58.9961 77.242H55.7201V73.784H59.0871C59.6461 73.784 59.9841 73.524 59.9841 73.03C59.9841 72.536 59.6461 72.276 59.0871 72.276H54.9141C54.3031 72.276 53.9521 72.614 53.9521 73.238V83.001C53.9521 83.625 54.3031 83.963 54.9141 83.963H59.2171ZM67.8324 74.707C67.8324 73.056 66.9874 72.276 65.3884 72.276H62.1384C61.5144 72.276 61.1504 72.627 61.1504 73.251V83.131C61.1504 83.729 61.4754 84.054 62.0344 84.054C62.6064 84.054 62.9184 83.729 62.9184 83.131V79.881H65.3884C66.9874 79.881 67.8324 79.075 67.8324 77.424V74.707ZM62.9184 73.745H64.7774C65.7134 73.745 66.1034 74.148 66.1034 75.032V77.125C66.1034 78.009 65.7134 78.412 64.7774 78.412H62.9184V73.745ZM77.0786 75.266C77.0786 76.202 76.6496 76.761 75.0766 78.178C72.9706 80.102 72.5936 80.856 72.5936 81.909V83.001C72.5936 83.625 72.9316 83.963 73.5426 83.963H78.1706C78.6776 83.963 79.0026 83.716 79.0026 83.261C79.0026 82.806 78.6776 82.559 78.1706 82.559H74.3876V81.883C74.3876 81.064 74.9856 80.596 76.5326 79.062C78.1316 77.502 78.8466 76.761 78.8466 75.266V74.668C78.8466 72.952 77.5986 71.99 75.7396 71.99C73.8546 71.99 72.6716 72.952 72.6716 74.603V74.824C72.6716 75.279 72.9836 75.63 73.5296 75.63C74.0756 75.63 74.4006 75.279 74.4006 74.824V74.59C74.4006 73.888 74.8296 73.394 75.7396 73.394C76.5976 73.394 77.0786 73.914 77.0786 74.668V75.266Z" fill="#7C492C"/>
<path d="M32.8597 113.15C33.2097 113.15 33.4797 112.96 33.4797 112.62V110.07H34.5197V112.62C34.5197 112.96 34.7997 113.15 35.1497 113.15C35.4997 113.15 35.7797 112.96 35.7797 112.62V106.9C35.7797 106.55 35.4997 106.36 35.1497 106.36C34.7997 106.36 34.5197 106.55 34.5197 106.9V108.94H33.4797V106.89C33.4797 106.55 33.2097 106.36 32.8597 106.36C32.5097 106.36 32.2297 106.55 32.2297 106.89V112.62C32.2297 112.96 32.5097 113.15 32.8597 113.15ZM27.7397 111.87C28.9197 111.85 30.0997 111.78 31.2897 111.54C31.5997 111.48 31.7897 111.29 31.7897 111C31.7897 110.69 31.5497 110.39 31.2097 110.46C30.2697 110.67 29.3197 110.75 28.3797 110.77V109.64H30.7797C31.1797 109.64 31.3997 109.42 31.3997 109.01V107.25C31.3997 106.85 31.1797 106.63 30.7797 106.63H27.5597C27.2697 106.63 27.0297 106.87 27.0297 107.16C27.0297 107.45 27.2697 107.68 27.5597 107.68H30.1297V108.62H27.7197C27.3197 108.62 27.0997 108.85 27.0997 109.25V111.27C27.0997 111.68 27.3197 111.88 27.7397 111.87ZM35.4397 115.61C35.7497 115.61 35.9997 115.36 35.9997 115.06C35.9997 114.75 35.7497 114.5 35.4397 114.5H28.9797V113.09C28.9797 112.7 28.6597 112.48 28.2697 112.48C27.8797 112.48 27.5597 112.7 27.5597 113.09V114.96C27.5597 115.38 27.7897 115.61 28.2097 115.61H35.4397ZM44.6997 106.36C44.3097 106.36 43.9997 106.58 43.9997 106.96V108.25H42.0797C41.7897 108.25 41.5497 108.49 41.5497 108.77C41.5497 109.06 41.7897 109.3 42.0797 109.3H43.9997V111.1C43.9997 111.48 44.3097 111.7 44.6997 111.7C45.0897 111.7 45.3997 111.48 45.3997 111.1V106.96C45.3997 106.58 45.0897 106.36 44.6997 106.36ZM37.6597 111.35C39.2197 111.32 40.7797 111.2 42.3397 110.96C42.6397 110.93 42.8197 110.72 42.8197 110.45C42.8197 110.15 42.5897 109.88 42.2697 109.93C40.9797 110.15 39.6997 110.26 38.4197 110.31V107.65H41.4997C41.7797 107.65 42.0097 107.42 42.0097 107.14C42.0097 106.86 41.7797 106.63 41.4997 106.63H37.6397C37.2397 106.63 37.0197 106.85 37.0197 107.25V110.76C37.0197 111.17 37.2597 111.36 37.6597 111.35ZM38.0597 112.06C37.6597 112.06 37.4397 112.28 37.4397 112.68V114.98C37.4397 115.38 37.6797 115.61 38.0697 115.59L44.0397 115.33C44.1297 115.57 44.3897 115.69 44.6997 115.69C45.0897 115.69 45.3997 115.5 45.3997 115.12V112.68C45.3997 112.28 45.1797 112.06 44.7797 112.06H38.0597ZM43.9997 113.07V114.31L38.8497 114.52V113.07H43.9997ZM47.2997 111.04C49.1097 110.86 50.4797 109.99 50.9797 108.93C51.4797 109.99 52.8497 110.86 54.6597 111.04C54.9897 111.08 55.2697 110.82 55.2697 110.49C55.2697 110.2 55.0497 109.96 54.7697 109.94C52.9497 109.75 51.8197 108.63 51.7297 107.81H54.6097C54.9197 107.81 55.1697 107.56 55.1697 107.25C55.1697 106.94 54.9197 106.69 54.6097 106.69H47.3497C47.0397 106.69 46.7897 106.94 46.7897 107.25C46.7897 107.56 47.0397 107.81 47.3497 107.81H50.2197C50.1497 108.63 49.0097 109.75 47.1897 109.94C46.9097 109.96 46.6897 110.2 46.6897 110.49C46.6897 110.82 46.9797 111.08 47.2997 111.04ZM50.9797 115.79C51.3797 115.79 51.6897 115.53 51.6897 115.14V112.92H55.0497C55.3597 112.92 55.6097 112.67 55.6097 112.36C55.6097 112.05 55.3597 111.8 55.0497 111.8H46.9097C46.5997 111.8 46.3497 112.05 46.3497 112.36C46.3497 112.67 46.5997 112.92 46.9097 112.92H50.2697V115.14C50.2697 115.53 50.5897 115.79 50.9797 115.79ZM64.3297 111.82C64.7197 111.82 65.0397 111.6 65.0397 111.22V106.97C65.0397 106.59 64.7197 106.36 64.3297 106.36C63.9397 106.36 63.6197 106.59 63.6197 106.97V111.22C63.6197 111.6 63.9397 111.82 64.3297 111.82ZM56.8797 111.43C56.9697 111.43 57.0397 111.42 57.1097 111.39C58.1097 111 58.9797 110.32 59.3297 109.5C59.6897 110.32 60.5497 111 61.5597 111.4C61.6297 111.43 61.7097 111.44 61.7897 111.44C62.1097 111.44 62.3797 111.17 62.3797 110.84C62.3797 110.6 62.2397 110.39 62.0197 110.29C60.8797 109.83 60.0397 108.93 60.0397 107.79V107.06C60.0397 106.67 59.7297 106.45 59.3397 106.45C58.9397 106.45 58.6297 106.67 58.6297 107.06V107.79C58.6297 108.93 57.7897 109.83 56.6497 110.29C56.4397 110.38 56.2897 110.6 56.2897 110.84C56.2897 111.17 56.5597 111.43 56.8797 111.43ZM64.3097 115.71C64.7097 115.71 65.0397 115.47 65.0397 115.08V112.83C65.0397 112.41 64.8097 112.18 64.3897 112.18H57.3797C57.0797 112.18 56.8297 112.43 56.8297 112.73C56.8297 113.04 57.0797 113.29 57.3797 113.29H63.5897V115.08C63.5897 115.47 63.9097 115.71 64.3097 115.71ZM71.1577 107.07C71.1577 106.67 70.9277 106.42 70.5077 106.42C70.1577 106.42 69.9777 106.55 69.7777 106.85C69.6477 107.04 69.4077 107.24 69.0477 107.3C68.8477 107.34 68.6177 107.49 68.6177 107.83C68.6177 108.13 68.8277 108.35 69.1077 108.35H69.7977V114.9C69.7977 115.3 70.0677 115.61 70.4777 115.61C70.8877 115.61 71.1577 115.3 71.1577 114.9V107.07ZM73.1403 111.04C74.9503 110.86 76.3203 109.99 76.8203 108.93C77.3203 109.99 78.6903 110.86 80.5003 111.04C80.8303 111.08 81.1103 110.82 81.1103 110.49C81.1103 110.2 80.8903 109.96 80.6103 109.94C78.7903 109.75 77.6603 108.63 77.5703 107.81H80.4503C80.7603 107.81 81.0103 107.56 81.0103 107.25C81.0103 106.94 80.7603 106.69 80.4503 106.69H73.1903C72.8803 106.69 72.6303 106.94 72.6303 107.25C72.6303 107.56 72.8803 107.81 73.1903 107.81H76.0603C75.9903 108.63 74.8503 109.75 73.0303 109.94C72.7503 109.96 72.5303 110.2 72.5303 110.49C72.5303 110.82 72.8203 111.08 73.1403 111.04ZM76.8203 115.79C77.2203 115.79 77.5303 115.53 77.5303 115.14V112.92H80.8903C81.2003 112.92 81.4503 112.67 81.4503 112.36C81.4503 112.05 81.2003 111.8 80.8903 111.8H72.7503C72.4403 111.8 72.1903 112.05 72.1903 112.36C72.1903 112.67 72.4403 112.92 72.7503 112.92H76.1103V115.14C76.1103 115.53 76.4303 115.79 76.8203 115.79ZM90.3303 109.98C90.5703 109.98 90.7703 109.78 90.7703 109.53C90.7703 109.29 90.5703 109.09 90.3303 109.09H83.9803V108.65H90.1003C90.4503 108.65 90.6503 108.45 90.6503 108.09V107.08C90.6503 106.72 90.4503 106.52 90.1003 106.52H83.0003C82.7603 106.52 82.5503 106.72 82.5503 106.97C82.5503 107.21 82.7603 107.42 83.0003 107.42H89.2603V107.82H83.1503C82.7903 107.82 82.5903 108.02 82.5903 108.38V109.43C82.5903 109.79 82.7903 109.98 83.1503 109.98H90.3303ZM90.7503 111.5C91.0203 111.5 91.2503 111.28 91.2503 110.99C91.2503 110.72 91.0203 110.49 90.7503 110.49H82.4903C82.2203 110.49 81.9903 110.72 81.9903 110.99C81.9903 111.28 82.2203 111.5 82.4903 111.5H90.7503ZM90.4203 115.61C90.6703 115.61 90.8703 115.41 90.8703 115.16C90.8703 114.91 90.6703 114.71 90.4203 114.71H83.9803V114.22H90.1003C90.4503 114.22 90.6503 114.02 90.6503 113.66V112.58C90.6503 112.22 90.4503 112.02 90.1003 112.02H83.0003C82.7603 112.02 82.5503 112.22 82.5503 112.47C82.5503 112.72 82.7603 112.91 83.0003 112.91H89.2603V113.37H83.1503C82.7903 113.37 82.5903 113.57 82.5903 113.92V115.06C82.5903 115.42 82.7903 115.61 83.1503 115.61H90.4203ZM32.0185 123.07C32.0185 122.67 31.7885 122.42 31.3685 122.42C31.0185 122.42 30.8385 122.55 30.6385 122.85C30.5085 123.04 30.2685 123.24 29.9085 123.3C29.7085 123.34 29.4785 123.49 29.4785 123.83C29.4785 124.13 29.6885 124.35 29.9685 124.35H30.6585V130.9C30.6585 131.3 30.9285 131.61 31.3385 131.61C31.7485 131.61 32.0185 131.3 32.0185 130.9V123.07ZM33.2411 129.68C33.2411 131 34.3111 131.74 35.6611 131.74C37.0111 131.74 38.0811 131 38.0811 129.68V124.36C38.0811 123.04 37.0111 122.3 35.6611 122.3C34.3111 122.3 33.2411 123.04 33.2411 124.36V129.68ZM34.5611 124.36C34.5611 123.78 35.0211 123.38 35.6611 123.38C36.3011 123.38 36.7611 123.78 36.7611 124.36V129.68C36.7611 130.25 36.3011 130.65 35.6611 130.65C35.0211 130.65 34.5611 130.25 34.5611 129.68V124.36ZM38.9981 129.68C38.9981 131 40.0681 131.74 41.4181 131.74C42.7681 131.74 43.8381 131 43.8381 129.68V124.36C43.8381 123.04 42.7681 122.3 41.4181 122.3C40.0681 122.3 38.9981 123.04 38.9981 124.36V129.68ZM40.3181 124.36C40.3181 123.78 40.7781 123.38 41.4181 123.38C42.0581 123.38 42.5181 123.78 42.5181 124.36V129.68C42.5181 130.25 42.0581 130.65 41.4181 130.65C40.7781 130.65 40.3181 130.25 40.3181 129.68V124.36ZM50.8051 122.95C50.9251 122.63 50.8151 122.4 50.5651 122.32C50.2351 122.23 49.9951 122.38 49.8851 122.67L46.7151 131.08C46.5951 131.4 46.7051 131.64 46.9551 131.71C47.2851 131.81 47.5351 131.66 47.6351 131.38L50.8051 122.95ZM44.8151 126.24C44.8151 127.04 45.4651 127.49 46.3651 127.49C47.2651 127.49 47.9251 127.04 47.9251 126.24V123.77C47.9251 122.98 47.2651 122.52 46.3651 122.52C45.4651 122.52 44.8151 122.98 44.8151 123.77V126.24ZM45.7651 123.98C45.7651 123.66 45.9751 123.44 46.3651 123.44C46.7551 123.44 46.9751 123.66 46.9751 123.98V126.03C46.9751 126.35 46.7551 126.57 46.3651 126.57C45.9751 126.57 45.7651 126.35 45.7651 126.03V123.98ZM49.5851 130.26C49.5851 131.06 50.2451 131.51 51.1451 131.51C52.0451 131.51 52.7051 131.06 52.7051 130.26V127.79C52.7051 127 52.0451 126.54 51.1451 126.54C50.2451 126.54 49.5851 127 49.5851 127.79V130.26ZM50.5351 128C50.5351 127.68 50.7551 127.46 51.1451 127.46C51.5351 127.46 51.7551 127.68 51.7551 128V130.05C51.7551 130.37 51.5351 130.59 51.1451 130.59C50.7551 130.59 50.5351 130.37 50.5351 130.05V128ZM64.5243 127.82C64.8543 127.82 65.1143 127.56 65.1143 127.23C65.1143 126.9 64.8543 126.64 64.5243 126.64H58.2943V123.81H64.4343C64.7543 123.81 65.0143 123.55 65.0143 123.23C65.0143 122.91 64.7543 122.65 64.4343 122.65H57.5043C57.1043 122.65 56.8843 122.86 56.8843 123.27V127.2C56.8843 127.6 57.1043 127.82 57.5043 127.82H64.5243ZM64.9543 131.38C65.2743 131.38 65.5443 131.11 65.5443 130.79C65.5443 130.46 65.2743 130.19 64.9543 130.19H56.8843C56.5543 130.19 56.2843 130.46 56.2843 130.79C56.2843 131.11 56.5543 131.38 56.8843 131.38H64.9543ZM74.3043 131.69C74.6943 131.69 75.0043 131.43 75.0043 131.05V122.99C75.0043 122.62 74.6943 122.36 74.3043 122.36C73.9143 122.36 73.6043 122.62 73.6043 122.99V124.44H72.1743C71.8643 124.44 71.6143 124.69 71.6143 125C71.6143 125.31 71.8643 125.57 72.1743 125.57H73.6043V127.12H72.1743C71.8643 127.12 71.6143 127.37 71.6143 127.68C71.6143 127.99 71.8643 128.24 72.1743 128.24H73.6043V131.05C73.6043 131.43 73.9143 131.69 74.3043 131.69ZM67.1143 131.18C68.7343 131.13 70.3443 131 71.9543 130.67C72.3143 130.59 72.4843 130.38 72.4843 130.07C72.4843 129.72 72.2643 129.39 71.8643 129.49C70.5243 129.79 69.1943 129.94 67.8543 129.99V127.36H70.3143C70.7043 127.36 70.9243 127.16 70.9643 126.78L71.3143 123.46C71.3643 123.04 71.1443 122.81 70.7243 122.81H66.9743C66.6643 122.81 66.4043 123.07 66.4043 123.39C66.4043 123.7 66.6643 123.96 66.9743 123.96H69.8843L69.6343 126.25H67.0943C66.6943 126.25 66.4743 126.47 66.4743 126.87V130.59C66.4743 131 66.7143 131.19 67.1143 131.18ZM82.1943 127.77C83.6643 127.77 84.7043 126.63 84.7043 125.19C84.7043 123.73 83.6643 122.6 82.1943 122.6H78.8343C77.3643 122.6 76.3243 123.73 76.3243 125.19C76.3243 126.63 77.3643 127.77 78.8343 127.77H82.1943ZM79.1243 126.64C78.3243 126.64 77.7443 126.04 77.7443 125.19C77.7443 124.33 78.3243 123.73 79.1243 123.73H81.9043C82.7143 123.73 83.2943 124.33 83.2943 125.19C83.2943 126.04 82.7143 126.64 81.9043 126.64H79.1243ZM84.5643 131.38C84.8843 131.38 85.1443 131.13 85.1443 130.8C85.1443 130.48 84.8843 130.22 84.5643 130.22H83.0343V128.71C83.0343 128.35 82.7343 128.14 82.3643 128.14C81.9843 128.14 81.6943 128.35 81.6943 128.71V130.22H79.3643V128.71C79.3643 128.35 79.0743 128.14 78.6943 128.14C78.3143 128.14 78.0243 128.35 78.0243 128.71V130.22H76.4643C76.1543 130.22 75.8843 130.48 75.8843 130.8C75.8843 131.13 76.1543 131.38 76.4643 131.38H84.5643ZM86.6943 131.3C86.9943 131.3 87.2143 131.09 87.2143 130.79V130.45C87.2143 130.15 86.9943 129.93 86.6943 129.93H86.3743C86.0743 129.93 85.8543 130.15 85.8543 130.45V130.79C85.8543 131.09 86.0743 131.3 86.3743 131.3H86.6943Z" fill="#7C492C"/>
<path d="M52.16 27.8641C51.8593 26.7418 51.6743 25.5728 51.6743 24.3571C51.6743 17.2495 57.3631 11.498 64.3931 11.498C71.4231 11.498 77.1118 17.2495 77.1118 24.3571C77.1118 30.5528 72.7874 35.7197 67.0293 36.9355" stroke="#7C492C" stroke-width="3" stroke-linecap="round" stroke-linejoin="round"/>
<path d="M66.1644 39.2383H74.7744C77.7009 39.2383 80.0469 41.5794 80.0469 44.4461C80.0469 47.3366 77.6767 49.6539 74.7744 49.6539H54.2651C53.733 49.6539 53.2251 49.5105 52.7898 49.2L40.1407 40.8627C39.391 40.3849 38.9556 39.5488 38.9556 38.6649V28.1299H54.773L64.1086 33.911C66.3821 35.3205 67.0593 38.2588 65.6323 40.5044C64.2054 42.75 61.2305 43.4189 58.9571 42.0094L52.1609 37.781" stroke="#7C492C" stroke-width="3" stroke-linecap="round" stroke-linejoin="round"/>
<path d="M59.9025 20.666L62.0639 27.9338L64.2489 20.666L66.434 27.9338L68.5954 20.666" stroke="#7C492C" stroke-width="2.59787" stroke-linecap="round" stroke-linejoin="round"/>
<path d="M58.4541 23.5879H60.7817" stroke="#7C492C" stroke-width="2.59787" stroke-miterlimit="10" stroke-linecap="round"/>
<path d="M67.718 23.5879H70.0456" stroke="#7C492C" stroke-width="2.59787" stroke-miterlimit="10" stroke-linecap="round"/>
</svg>
