<svg viewBox="0 0 118 143" fill="none" xmlns="http://www.w3.org/2000/svg">
<path d="M40.314 74.733C40.314 73.927 40.951 73.498 41.913 73.498C42.862 73.498 43.512 73.966 43.512 74.772V75.097C43.512 75.539 43.837 75.838 44.396 75.838C44.929 75.838 45.267 75.539 45.267 75.006V74.616C45.267 72.796 43.824 72.016 41.913 72.016C39.989 72.016 38.559 72.796 38.559 74.616V75.591C38.559 76.878 38.923 77.528 41.445 78.529C43.317 79.257 43.564 79.465 43.564 80.752V81.454C43.564 82.26 42.888 82.741 41.913 82.741C40.964 82.741 40.262 82.26 40.262 81.454V80.986C40.262 80.479 39.95 80.154 39.391 80.154C38.819 80.154 38.507 80.479 38.507 80.986V81.623C38.507 83.443 39.95 84.223 41.887 84.223C43.811 84.223 45.319 83.443 45.319 81.623V80.414C45.319 78.672 45.072 78.139 42.329 77.047C40.821 76.449 40.314 76.176 40.314 75.513V74.733ZM45.95 73.03C45.95 73.524 46.275 73.784 46.886 73.784H48.576V83.092C48.576 83.716 48.901 84.054 49.473 84.054C50.058 84.054 50.383 83.716 50.383 83.092V73.784H52.151C52.71 73.784 53.022 73.524 53.022 73.03C53.022 72.536 52.684 72.276 52.086 72.276H46.886C46.275 72.276 45.95 72.536 45.95 73.03ZM59.2171 83.963C59.7761 83.963 60.1141 83.69 60.1141 83.209C60.1141 82.715 59.7761 82.455 59.2171 82.455H55.7201V78.711H58.9961C59.5551 78.711 59.8541 78.438 59.8541 77.983C59.8541 77.528 59.5551 77.242 58.9961 77.242H55.7201V73.784H59.0871C59.6461 73.784 59.9841 73.524 59.9841 73.03C59.9841 72.536 59.6461 72.276 59.0871 72.276H54.9141C54.3031 72.276 53.9521 72.614 53.9521 73.238V83.001C53.9521 83.625 54.3031 83.963 54.9141 83.963H59.2171ZM67.8324 74.707C67.8324 73.056 66.9874 72.276 65.3884 72.276H62.1384C61.5144 72.276 61.1504 72.627 61.1504 73.251V83.131C61.1504 83.729 61.4754 84.054 62.0344 84.054C62.6064 84.054 62.9184 83.729 62.9184 83.131V79.881H65.3884C66.9874 79.881 67.8324 79.075 67.8324 77.424V74.707ZM62.9184 73.745H64.7774C65.7134 73.745 66.1034 74.148 66.1034 75.032V77.125C66.1034 78.009 65.7134 78.412 64.7774 78.412H62.9184V73.745ZM75.8436 78.386C76.7536 78.425 77.4426 78.828 77.4426 79.673V81.584C77.4426 82.338 76.8576 82.858 75.9476 82.858C75.0376 82.858 74.4136 82.338 74.4136 81.584V81.025C74.4136 80.479 74.0886 80.141 73.5426 80.141C72.9836 80.141 72.6586 80.479 72.6586 81.025V81.584C72.6586 83.326 74.1016 84.262 75.9476 84.262C77.7806 84.262 79.1976 83.3 79.1976 81.584V79.777C79.1976 78.477 78.4696 77.905 77.5336 77.645C78.3526 77.398 79.0936 76.735 79.0936 75.643V74.668C79.0936 72.952 77.7286 71.99 75.9476 71.99C74.1406 71.99 72.7886 72.926 72.7886 74.59V74.733C72.7886 75.188 73.1136 75.5 73.6466 75.5C74.1796 75.5 74.5046 75.175 74.5046 74.733V74.603C74.5046 73.849 75.0636 73.342 75.9476 73.342C76.8056 73.342 77.3646 73.875 77.3646 74.616V75.734C77.3646 76.475 76.5846 76.917 75.8826 76.943H75.6876C75.2716 76.956 74.9986 77.216 74.9986 77.658C74.9986 78.1 75.2716 78.373 75.6876 78.373L75.8436 78.386Z" fill="#7C492C"/>
<path d="M14.721 103.04C16.531 102.86 17.901 101.99 18.401 100.93C18.901 101.99 20.271 102.86 22.081 103.04C22.411 103.08 22.691 102.82 22.691 102.49C22.691 102.2 22.471 101.96 22.191 101.94C20.371 101.75 19.241 100.63 19.151 99.81H22.031C22.341 99.81 22.591 99.56 22.591 99.25C22.591 98.94 22.341 98.69 22.031 98.69H14.771C14.461 98.69 14.211 98.94 14.211 99.25C14.211 99.56 14.461 99.81 14.771 99.81H17.641C17.571 100.63 16.431 101.75 14.611 101.94C14.331 101.96 14.111 102.2 14.111 102.49C14.111 102.82 14.401 103.08 14.721 103.04ZM18.401 107.79C18.801 107.79 19.111 107.53 19.111 107.14V104.92H22.471C22.781 104.92 23.031 104.67 23.031 104.36C23.031 104.05 22.781 103.8 22.471 103.8H14.331C14.021 103.8 13.771 104.05 13.771 104.36C13.771 104.67 14.021 104.92 14.331 104.92H17.691V107.14C17.691 107.53 18.011 107.79 18.401 107.79ZM31.751 103.82C32.141 103.82 32.461 103.6 32.461 103.22V98.97C32.461 98.59 32.141 98.36 31.751 98.36C31.361 98.36 31.041 98.59 31.041 98.97V103.22C31.041 103.6 31.361 103.82 31.751 103.82ZM24.301 103.43C24.391 103.43 24.461 103.42 24.531 103.39C25.531 103 26.401 102.32 26.751 101.5C27.111 102.32 27.971 103 28.981 103.4C29.051 103.43 29.131 103.44 29.211 103.44C29.531 103.44 29.801 103.17 29.801 102.84C29.801 102.6 29.661 102.39 29.441 102.29C28.301 101.83 27.461 100.93 27.461 99.79V99.06C27.461 98.67 27.151 98.45 26.761 98.45C26.361 98.45 26.051 98.67 26.051 99.06V99.79C26.051 100.93 25.211 101.83 24.071 102.29C23.861 102.38 23.711 102.6 23.711 102.84C23.711 103.17 23.981 103.43 24.301 103.43ZM31.731 107.71C32.131 107.71 32.461 107.47 32.461 107.08V104.83C32.461 104.41 32.231 104.18 31.811 104.18H24.801C24.501 104.18 24.251 104.43 24.251 104.73C24.251 105.04 24.501 105.29 24.801 105.29H31.011V107.08C31.011 107.47 31.331 107.71 31.731 107.71ZM40.461 102.08C41.381 102.08 42.141 101.32 42.141 100.28C42.141 99.24 41.381 98.47 40.461 98.47H35.551C34.611 98.47 33.871 99.24 33.871 100.28C33.871 101.32 34.611 102.08 35.551 102.08H40.461ZM35.851 101C35.491 101 35.221 100.72 35.221 100.27C35.221 99.83 35.491 99.55 35.851 99.55H40.151C40.511 99.55 40.781 99.83 40.781 100.27C40.781 100.72 40.511 101 40.151 101H35.851ZM42.091 104.06C42.381 104.06 42.631 103.82 42.631 103.52C42.631 103.21 42.381 102.97 42.091 102.97H33.921C33.621 102.97 33.371 103.21 33.371 103.52C33.371 103.82 33.621 104.06 33.921 104.06H42.091ZM41.721 107.61C42.011 107.61 42.251 107.38 42.251 107.09C42.251 106.79 42.011 106.56 41.721 106.56H35.361V105.22C35.361 104.84 35.051 104.62 34.671 104.62C34.281 104.62 33.971 104.84 33.971 105.22V106.96C33.971 107.38 34.201 107.61 34.621 107.61H41.721ZM54.149 105.23C54.539 105.23 54.859 105.01 54.859 104.62V98.97C54.859 98.59 54.539 98.36 54.149 98.36C53.759 98.36 53.439 98.59 53.439 98.97V104.62C53.439 105.01 53.759 105.23 54.149 105.23ZM46.699 103.8C46.779 103.8 46.859 103.78 46.929 103.75C47.929 103.33 48.799 102.63 49.149 101.79C49.509 102.64 50.369 103.34 51.379 103.76C51.449 103.78 51.529 103.8 51.609 103.8C51.929 103.8 52.199 103.53 52.199 103.21C52.199 102.96 52.059 102.75 51.839 102.66C50.699 102.18 49.859 101.28 49.859 100.11V99.06C49.859 98.67 49.549 98.45 49.159 98.45C48.759 98.45 48.449 98.67 48.449 99.06V100.11C48.449 101.28 47.609 102.18 46.469 102.66C46.249 102.75 46.109 102.96 46.109 103.21C46.109 103.53 46.379 103.8 46.699 103.8ZM54.549 107.61C54.849 107.61 55.099 107.36 55.099 107.06C55.099 106.76 54.849 106.51 54.549 106.51H48.289V105.02C48.289 104.63 47.969 104.41 47.569 104.41C47.179 104.41 46.859 104.63 46.859 105.02V106.96C46.859 107.38 47.089 107.61 47.509 107.61H54.549ZM56.569 103.6C57.659 103.36 58.559 102.84 58.919 101.97C59.279 102.81 60.179 103.31 61.279 103.54C61.609 103.61 61.929 103.34 61.929 102.99C61.929 102.72 61.749 102.5 61.489 102.45C60.439 102.22 59.609 101.57 59.609 100.38V100.1H61.309C61.589 100.1 61.829 99.86 61.829 99.57C61.829 99.28 61.589 99.04 61.309 99.04H59.619V98.66C59.619 98.32 59.309 98.1 58.919 98.1C58.539 98.1 58.229 98.32 58.229 98.66V99.04H56.529C56.249 99.04 56.009 99.28 56.009 99.57C56.009 99.86 56.249 100.1 56.529 100.1H58.239V100.38C58.239 101.61 57.399 102.27 56.349 102.51C56.099 102.57 55.909 102.79 55.909 103.05C55.909 103.4 56.229 103.67 56.569 103.6ZM63.259 101.73V103.3C63.259 103.68 63.569 103.9 63.959 103.9C64.349 103.9 64.659 103.68 64.659 103.3V98.96C64.659 98.58 64.349 98.36 63.959 98.36C63.569 98.36 63.259 98.58 63.259 98.96V100.65H61.859C61.559 100.65 61.319 100.89 61.319 101.19C61.319 101.49 61.559 101.73 61.859 101.73H63.259ZM56.529 105.89C56.529 106.92 57.389 107.66 58.469 107.66H62.839C63.939 107.66 64.799 106.92 64.799 105.89C64.799 104.86 63.939 104.13 62.839 104.13H58.469C57.389 104.13 56.529 104.86 56.529 105.89ZM58.729 106.6C58.269 106.6 57.929 106.33 57.929 105.89C57.929 105.47 58.269 105.19 58.729 105.19H62.579C63.059 105.19 63.399 105.47 63.399 105.89C63.399 106.33 63.059 106.6 62.579 106.6H58.729ZM73.789 103.3C74.179 103.3 74.499 103.08 74.499 102.69V98.97C74.499 98.59 74.179 98.36 73.789 98.36C73.389 98.36 73.079 98.59 73.079 98.97V102.69C73.079 103.08 73.389 103.3 73.789 103.3ZM68.649 103.12C70.139 103.12 71.359 102.43 71.359 101.03V100.53C71.359 99.13 70.139 98.43 68.649 98.43C67.139 98.43 65.919 99.13 65.919 100.53V101.03C65.919 102.43 67.139 103.12 68.649 103.12ZM68.649 102.1C67.879 102.1 67.309 101.74 67.309 101.06V100.51C67.309 99.83 67.879 99.45 68.649 99.45C69.399 99.45 69.979 99.83 69.979 100.51V101.06C69.979 101.74 69.399 102.1 68.649 102.1ZM74.259 107.61C74.519 107.61 74.739 107.4 74.739 107.14C74.739 106.87 74.519 106.66 74.259 106.66H67.779V106.05H73.949C74.299 106.05 74.499 105.86 74.499 105.5V104.21C74.499 103.85 74.299 103.66 73.949 103.66H66.789C66.539 103.66 66.329 103.86 66.329 104.12C66.329 104.38 66.539 104.59 66.789 104.59H73.089V105.17H66.929C66.579 105.17 66.379 105.36 66.379 105.72V107.06C66.379 107.42 66.579 107.61 66.929 107.61H74.259ZM83.659 103.96C83.959 103.96 84.199 103.72 84.199 103.42C84.199 103.11 83.959 102.87 83.659 102.87H77.369V101.79H83.409C83.809 101.79 84.029 101.57 84.029 101.17V99.27C84.029 98.86 83.809 98.65 83.409 98.65H76.429C76.139 98.65 75.899 98.89 75.899 99.18C75.899 99.47 76.139 99.71 76.429 99.71H82.639V100.75H76.589C76.189 100.75 75.969 100.97 75.969 101.36V103.34C75.969 103.74 76.189 103.96 76.589 103.96H83.659ZM84.059 107.38C84.369 107.38 84.629 107.13 84.629 106.81C84.629 106.49 84.369 106.23 84.059 106.23H80.709V104.99C80.709 104.6 80.399 104.38 79.999 104.38C79.609 104.38 79.289 104.6 79.289 104.99V106.23H75.949C75.629 106.23 75.369 106.49 75.369 106.81C75.369 107.13 75.629 107.38 75.949 107.38H84.059ZM93.209 103.12C93.609 103.12 93.829 102.89 93.829 102.5V99.12C93.829 98.74 93.519 98.52 93.129 98.52C92.739 98.52 92.429 98.74 92.429 99.12V99.69H87.169V99.13C87.169 98.74 86.859 98.52 86.469 98.52C86.079 98.52 85.769 98.74 85.769 99.13V102.5C85.769 102.89 85.989 103.12 86.389 103.12H93.209ZM92.429 102.03H87.169V100.75H92.429V102.03ZM85.729 104.02C85.419 104.02 85.169 104.28 85.169 104.59C85.169 104.9 85.419 105.15 85.729 105.15H89.089V107.14C89.089 107.53 89.409 107.79 89.799 107.79C90.199 107.79 90.509 107.53 90.509 107.14V105.15H93.869C94.179 105.15 94.429 104.9 94.429 104.59C94.429 104.28 94.179 104.02 93.869 104.02H85.729ZM103.189 107.69C103.579 107.69 103.889 107.43 103.889 107.05V98.99C103.889 98.62 103.579 98.36 103.189 98.36C102.799 98.36 102.489 98.62 102.489 98.99V103.12H100.439C100.129 103.12 99.869 103.37 99.869 103.69C99.869 104 100.129 104.26 100.439 104.26H102.489V107.05C102.489 107.43 102.799 107.69 103.189 107.69ZM100.119 99.94C100.429 99.94 100.679 99.69 100.679 99.38C100.679 99.07 100.429 98.81 100.119 98.81H95.849C95.539 98.81 95.289 99.07 95.289 99.38C95.289 99.69 95.539 99.94 95.849 99.94H100.119ZM95.999 107.18C97.599 107.16 99.209 107.08 100.799 106.73C101.129 106.67 101.339 106.44 101.339 106.13C101.339 105.78 101.079 105.48 100.709 105.55C99.259 105.86 97.929 105.97 96.759 105.99V102.17H100.009C100.309 102.17 100.559 101.92 100.559 101.61C100.559 101.31 100.309 101.06 100.009 101.06H95.979C95.579 101.06 95.359 101.28 95.359 101.68V106.59C95.359 107 95.599 107.19 95.999 107.18ZM26.3644 116.82C26.3644 117.54 26.0344 117.97 24.8244 119.06C23.2044 120.54 22.9144 121.12 22.9144 121.93V122.77C22.9144 123.25 23.1744 123.51 23.6444 123.51H27.2044C27.5944 123.51 27.8444 123.32 27.8444 122.97C27.8444 122.62 27.5944 122.43 27.2044 122.43H24.2944V121.91C24.2944 121.28 24.7544 120.92 25.9444 119.74C27.1744 118.54 27.7244 117.97 27.7244 116.82V116.36C27.7244 115.04 26.7644 114.3 25.3344 114.3C23.8844 114.3 22.9744 115.04 22.9744 116.31V116.48C22.9744 116.83 23.2144 117.1 23.6344 117.1C24.0544 117.1 24.3044 116.83 24.3044 116.48V116.3C24.3044 115.76 24.6344 115.38 25.3344 115.38C25.9944 115.38 26.3644 115.78 26.3644 116.36V116.82ZM28.4705 121.68C28.4705 123 29.5405 123.74 30.8905 123.74C32.2405 123.74 33.3105 123 33.3105 121.68V116.36C33.3105 115.04 32.2405 114.3 30.8905 114.3C29.5405 114.3 28.4705 115.04 28.4705 116.36V121.68ZM29.7905 116.36C29.7905 115.78 30.2505 115.38 30.8905 115.38C31.5305 115.38 31.9905 115.78 31.9905 116.36V121.68C31.9905 122.25 31.5305 122.65 30.8905 122.65C30.2505 122.65 29.7905 122.25 29.7905 121.68V116.36ZM36.9776 119.53C37.9376 119.53 38.7876 119.2 39.2376 118.54H41.5676V119.26C41.5676 119.64 41.8776 119.86 42.2676 119.86C42.6576 119.86 42.9676 119.64 42.9676 119.26V114.97C42.9676 114.58 42.6576 114.36 42.2676 114.36C41.8776 114.36 41.5676 114.58 41.5676 114.97V115.37H39.1976C38.7376 114.75 37.9076 114.43 36.9776 114.43C35.5576 114.43 34.3876 115.17 34.3876 116.58V117.38C34.3876 118.81 35.5576 119.53 36.9776 119.53ZM35.7276 116.56C35.7276 115.85 36.2676 115.47 36.9876 115.47C37.6976 115.47 38.2476 115.85 38.2476 116.56V117.41C38.2476 118.12 37.6976 118.49 36.9876 118.49C36.2676 118.49 35.7276 118.12 35.7276 117.41V116.56ZM41.5676 117.5H39.5676V117.38V116.58C39.5676 116.52 39.5676 116.47 39.5576 116.41H41.5676V117.5ZM36.6576 120.13C35.5676 120.13 34.7076 120.85 34.7076 121.89C34.7076 122.93 35.5676 123.66 36.6576 123.66H41.1576C42.2576 123.66 43.1176 122.93 43.1176 121.89C43.1176 120.85 42.2576 120.13 41.1576 120.13H36.6576ZM36.9076 122.6C36.4476 122.6 36.1076 122.33 36.1076 121.89C36.1076 121.46 36.4476 121.19 36.9076 121.19H40.8976C41.3776 121.19 41.7176 121.46 41.7176 121.89C41.7176 122.33 41.3776 122.6 40.8976 122.6H36.9076ZM52.0676 114.36C51.6776 114.36 51.3676 114.58 51.3676 114.97V116.23H49.3476C49.1776 115.04 48.0876 114.43 46.7776 114.43C45.3576 114.43 44.1876 115.15 44.1876 116.55V117.07C44.1876 118.47 45.3576 119.18 46.7776 119.18C48.0976 119.18 49.1976 118.57 49.3476 117.36H51.3676V118.73C51.3676 119.11 51.6776 119.33 52.0676 119.33C52.4576 119.33 52.7676 119.11 52.7676 118.73V114.97C52.7676 114.58 52.4576 114.36 52.0676 114.36ZM48.0476 117.09C48.0476 117.78 47.4976 118.14 46.7876 118.14C46.0676 118.14 45.5276 117.78 45.5276 117.09V116.53C45.5276 115.84 46.0676 115.47 46.7876 115.47C47.4976 115.47 48.0476 115.84 48.0476 116.53V117.09ZM52.0676 119.59C51.6776 119.59 51.3676 119.81 51.3676 120.19V120.52H46.0476V120.19C46.0476 119.81 45.7376 119.59 45.3476 119.59C44.9576 119.59 44.6476 119.81 44.6476 120.19V122.98C44.6476 123.38 44.8876 123.6 45.2776 123.59L51.4076 123.33C51.4976 123.57 51.7576 123.69 52.0676 123.69C52.4576 123.69 52.7676 123.5 52.7676 123.12V120.19C52.7676 119.81 52.4576 119.59 52.0676 119.59ZM51.3676 121.56V122.28L46.0476 122.5V121.56H51.3676ZM61.8576 119.3C62.2476 119.3 62.5676 119.08 62.5676 118.69V114.97C62.5676 114.59 62.2476 114.36 61.8576 114.36C61.4576 114.36 61.1476 114.59 61.1476 114.97V118.69C61.1476 119.08 61.4576 119.3 61.8576 119.3ZM56.7176 119.12C58.2076 119.12 59.4276 118.43 59.4276 117.03V116.53C59.4276 115.13 58.2076 114.43 56.7176 114.43C55.2076 114.43 53.9876 115.13 53.9876 116.53V117.03C53.9876 118.43 55.2076 119.12 56.7176 119.12ZM56.7176 118.1C55.9476 118.1 55.3776 117.74 55.3776 117.06V116.51C55.3776 115.83 55.9476 115.45 56.7176 115.45C57.4676 115.45 58.0476 115.83 58.0476 116.51V117.06C58.0476 117.74 57.4676 118.1 56.7176 118.1ZM62.3276 123.61C62.5876 123.61 62.8076 123.4 62.8076 123.14C62.8076 122.87 62.5876 122.66 62.3276 122.66H55.8476V122.05H62.0176C62.3676 122.05 62.5676 121.86 62.5676 121.5V120.21C62.5676 119.85 62.3676 119.66 62.0176 119.66H54.8576C54.6076 119.66 54.3976 119.86 54.3976 120.12C54.3976 120.38 54.6076 120.59 54.8576 120.59H61.1576V121.17H54.9976C54.6476 121.17 54.4476 121.36 54.4476 121.72V123.06C54.4476 123.42 54.6476 123.61 54.9976 123.61H62.3276ZM74.4456 123.69C74.8456 123.69 75.1556 123.43 75.1556 123.04V115.01C75.1556 114.62 74.8456 114.36 74.4456 114.36C74.0556 114.36 73.7356 114.62 73.7356 115.01V123.04C73.7356 123.43 74.0556 123.69 74.4456 123.69ZM69.2956 123.38C70.8256 123.38 72.0056 122.42 72.0056 120.99V116.94C72.0056 115.51 70.8256 114.55 69.2956 114.55C67.7656 114.55 66.5856 115.51 66.5856 116.94V120.99C66.5856 122.42 67.7656 123.38 69.2956 123.38ZM69.3056 122.26C68.5156 122.26 67.9656 121.77 67.9656 121.06V116.87C67.9656 116.18 68.5156 115.67 69.3056 115.67C70.0956 115.67 70.6456 116.18 70.6456 116.87V121.06C70.6456 121.77 70.0956 122.26 69.3056 122.26ZM81.9256 123.69C82.2756 123.69 82.5556 123.47 82.5556 123.12V119.28H83.7756V123.11C83.7756 123.46 84.0656 123.69 84.4256 123.69C84.7856 123.69 85.0656 123.46 85.0656 123.11V114.94C85.0656 114.59 84.7856 114.36 84.4256 114.36C84.0656 114.36 83.7756 114.59 83.7756 114.94V118.11H82.5556V114.93C82.5556 114.58 82.2756 114.36 81.9256 114.36C81.5756 114.36 81.2956 114.58 81.2956 114.93V123.12C81.2956 123.47 81.5756 123.69 81.9256 123.69ZM77.2256 123.14C78.2456 123.07 79.2756 122.95 80.3056 122.67C80.6656 122.58 80.8356 122.37 80.8356 122.06C80.8356 121.7 80.5756 121.39 80.1756 121.49C79.3656 121.72 78.5656 121.83 77.7656 121.88V115.3C77.7656 114.93 77.4656 114.69 77.0956 114.69C76.7256 114.69 76.4256 114.93 76.4256 115.3V122.43C76.4256 122.94 76.7156 123.16 77.2256 123.14ZM92.2056 114.36C91.8656 114.36 91.5856 114.58 91.5856 114.92V118.15H90.3556V116.54C90.3556 115.36 89.4356 114.55 88.2756 114.55C87.1056 114.55 86.1856 115.36 86.1856 116.54V121.39C86.1856 122.57 87.1056 123.38 88.2756 123.38C89.4356 123.38 90.3556 122.57 90.3556 121.39V119.31H91.5856V123.13C91.5856 123.47 91.8656 123.69 92.2056 123.69C92.5556 123.69 92.8356 123.47 92.8356 123.13V114.92C92.8356 114.58 92.5556 114.36 92.2056 114.36ZM94.2356 114.36C93.8856 114.36 93.6056 114.59 93.6056 114.93V123.12C93.6056 123.46 93.8856 123.69 94.2356 123.69C94.5856 123.69 94.8656 123.46 94.8656 123.12V114.93C94.8656 114.59 94.5856 114.36 94.2356 114.36ZM89.1256 121.37C89.1256 121.91 88.7556 122.27 88.2856 122.27C87.8156 122.27 87.4456 121.91 87.4456 121.37V116.56C87.4456 116.03 87.8156 115.66 88.2856 115.66C88.7556 115.66 89.1256 116.03 89.1256 116.56V121.37ZM28.2673 130.36C27.9173 130.36 27.6373 130.58 27.6373 130.92V132.78H26.2473C26.2673 132.43 26.2773 132.06 26.2773 131.68V131.48C26.2773 131.05 26.0373 130.81 25.6073 130.81H22.7373C22.4173 130.81 22.1573 131.08 22.1573 131.39C22.1573 131.72 22.4173 131.97 22.7373 131.97H24.9673C24.9773 134.81 24.4173 137.11 22.4473 137.99C22.2473 138.08 22.0973 138.29 22.0973 138.52C22.0973 138.85 22.3673 139.11 22.6973 139.11C22.7673 139.11 22.8573 139.09 22.9273 139.06C24.5873 138.35 25.7573 136.81 26.1473 133.92H27.6373V135.97H26.3973C26.0873 135.97 25.8473 136.22 25.8473 136.52C25.8473 136.83 26.0873 137.08 26.3973 137.08H27.6373V139.13C27.6373 139.47 27.9173 139.69 28.2673 139.69C28.6173 139.69 28.8873 139.47 28.8873 139.13V130.92C28.8873 130.58 28.6173 130.36 28.2673 130.36ZM30.3473 130.36C29.9973 130.36 29.7173 130.59 29.7173 130.93V139.12C29.7173 139.46 29.9973 139.69 30.3473 139.69C30.6973 139.69 30.9773 139.46 30.9773 139.12V130.93C30.9773 130.59 30.6973 130.36 30.3473 130.36ZM40.2973 134.05V130.99C40.2973 130.62 39.9873 130.36 39.5973 130.36C39.2173 130.36 38.8973 130.62 38.8973 130.99V139.05C38.8973 139.43 39.2173 139.69 39.5973 139.69C39.9873 139.69 40.2973 139.43 40.2973 139.05V135.25H41.0173C41.3373 135.25 41.5873 134.98 41.5873 134.65C41.5873 134.32 41.3373 134.05 41.0173 134.05H40.2973ZM32.5373 134.63C32.2773 134.7 32.0773 134.92 32.0773 135.2C32.0773 135.58 32.4273 135.88 32.8073 135.78C33.8573 135.52 34.7073 134.91 35.0973 134.02C35.4773 134.91 36.3273 135.53 37.3773 135.78C37.7473 135.87 38.1073 135.58 38.1073 135.2C38.1073 134.92 37.9173 134.7 37.6673 134.62C36.5873 134.31 35.7773 133.54 35.7773 132.23V131.81H37.4873C37.7873 131.81 38.0473 131.56 38.0473 131.25C38.0473 130.94 37.7873 130.69 37.4873 130.69H32.7073C32.3973 130.69 32.1473 130.94 32.1473 131.25C32.1473 131.56 32.3973 131.81 32.7073 131.81H34.4173V132.23C34.4173 133.53 33.5973 134.32 32.5373 134.63ZM37.8873 137.78C37.1873 137.9 36.4873 137.99 35.7873 138.06V136.44C35.7873 136.06 35.4873 135.81 35.0973 135.81C34.7073 135.81 34.3973 136.06 34.3973 136.44V138.17C33.7073 138.22 33.0173 138.25 32.3273 138.27C32.0373 138.27 31.7873 138.54 31.7873 138.84C31.7873 139.18 32.0773 139.43 32.4073 139.42C34.2673 139.36 36.1073 139.24 37.9673 138.93C38.2973 138.88 38.5073 138.65 38.5073 138.35C38.5073 138.01 38.2573 137.72 37.8873 137.78ZM49.8373 135.96C50.1373 135.96 50.3773 135.72 50.3773 135.42C50.3773 135.11 50.1373 134.87 49.8373 134.87H43.5473V133.79H49.5873C49.9873 133.79 50.2073 133.57 50.2073 133.17V131.27C50.2073 130.86 49.9873 130.65 49.5873 130.65H42.6073C42.3173 130.65 42.0773 130.89 42.0773 131.18C42.0773 131.47 42.3173 131.71 42.6073 131.71H48.8173V132.75H42.7673C42.3673 132.75 42.1473 132.97 42.1473 133.36V135.34C42.1473 135.74 42.3673 135.96 42.7673 135.96H49.8373ZM50.2373 139.38C50.5473 139.38 50.8073 139.13 50.8073 138.81C50.8073 138.49 50.5473 138.23 50.2373 138.23H46.8873V136.99C46.8873 136.6 46.5773 136.38 46.1773 136.38C45.7873 136.38 45.4673 136.6 45.4673 136.99V138.23H42.1273C41.8073 138.23 41.5473 138.49 41.5473 138.81C41.5473 139.13 41.8073 139.38 42.1273 139.38H50.2373ZM62.4354 133.34C62.7054 133.34 62.9254 133.12 62.9254 132.84C62.9254 132.57 62.7054 132.35 62.4354 132.35H56.1454V131.49H62.3954C62.6554 131.49 62.8754 131.27 62.8754 131.01C62.8754 130.74 62.6554 130.52 62.3954 130.52H55.3654C54.9654 130.52 54.7454 130.74 54.7454 131.14V132.72C54.7454 133.12 54.9654 133.34 55.3654 133.34H62.4354ZM62.8854 135.09C63.1754 135.09 63.4054 134.85 63.4054 134.57C63.4054 134.28 63.1754 134.04 62.8854 134.04H54.6654C54.3754 134.04 54.1454 134.28 54.1454 134.57C54.1454 134.85 54.3754 135.09 54.6654 135.09H62.8854ZM62.5554 139.61C62.8154 139.61 63.0254 139.4 63.0254 139.14C63.0254 138.88 62.8154 138.67 62.5554 138.67H56.1254V138.1H62.2554C62.6054 138.1 62.8054 137.9 62.8054 137.55V136.34C62.8054 135.99 62.6054 135.79 62.2554 135.79H55.1354C54.8854 135.79 54.6754 135.99 54.6754 136.25C54.6754 136.49 54.8854 136.7 55.1354 136.7H61.4154V137.23H55.3054C54.9454 137.23 54.7454 137.43 54.7454 137.78V139.06C54.7454 139.42 54.9454 139.61 55.3054 139.61H62.5554ZM72.1654 130.36C71.7754 130.36 71.4654 130.62 71.4654 130.99V134.16H69.4554V132.94C69.4554 131.51 68.3354 130.55 66.8754 130.55C65.4154 130.55 64.2954 131.51 64.2954 132.94V136.99C64.2954 138.42 65.4154 139.38 66.8754 139.38C68.3354 139.38 69.4554 138.42 69.4554 136.99V135.32H71.4654V139.05C71.4654 139.43 71.7754 139.69 72.1654 139.69C72.5554 139.69 72.8654 139.43 72.8654 139.05V130.99C72.8654 130.62 72.5554 130.36 72.1654 130.36ZM68.1354 137.06C68.1354 137.78 67.6154 138.26 66.8854 138.26C66.1454 138.26 65.6354 137.78 65.6354 137.06V132.86C65.6354 132.17 66.1454 131.67 66.8854 131.67C67.6154 131.67 68.1354 132.17 68.1354 132.86V137.06ZM82.2954 134.05V130.99C82.2954 130.62 81.9854 130.36 81.5954 130.36C81.2154 130.36 80.8954 130.62 80.8954 130.99V139.05C80.8954 139.43 81.2154 139.69 81.5954 139.69C81.9854 139.69 82.2954 139.43 82.2954 139.05V135.25H83.0154C83.3354 135.25 83.5854 134.98 83.5854 134.65C83.5854 134.32 83.3354 134.05 83.0154 134.05H82.2954ZM77.0654 136.01C78.5854 136.01 79.8654 135.28 79.8654 133.72V132.81C79.8654 131.25 78.5854 130.49 77.0654 130.49C75.5354 130.49 74.2654 131.25 74.2654 132.81V133.72C74.2654 135.28 75.5354 136.01 77.0654 136.01ZM75.6454 132.75C75.6454 131.99 76.2854 131.56 77.0654 131.56C77.8654 131.56 78.5054 131.99 78.5054 132.75V133.78C78.5054 134.51 77.8654 134.94 77.0654 134.94C76.2854 134.94 75.6454 134.51 75.6454 133.78V132.75ZM79.9054 137.78C79.2054 137.9 78.4954 137.99 77.7954 138.06V136.92C77.7954 136.55 77.4854 136.33 77.0954 136.33C76.7154 136.33 76.4054 136.55 76.4054 136.92V138.17C75.7154 138.22 75.0154 138.25 74.3254 138.27C74.0354 138.28 73.7854 138.54 73.7854 138.84C73.7854 139.18 74.0754 139.43 74.4054 139.42C76.2654 139.36 78.1154 139.24 79.9754 138.93C80.3054 138.88 80.5154 138.65 80.5154 138.35C80.5154 138.01 80.2654 137.72 79.9054 137.78ZM89.8554 135.77C91.3254 135.77 92.3654 134.63 92.3654 133.19C92.3654 131.73 91.3254 130.6 89.8554 130.6H86.4954C85.0254 130.6 83.9854 131.73 83.9854 133.19C83.9854 134.63 85.0254 135.77 86.4954 135.77H89.8554ZM86.7854 134.64C85.9854 134.64 85.4054 134.04 85.4054 133.19C85.4054 132.33 85.9854 131.73 86.7854 131.73H89.5654C90.3754 131.73 90.9554 132.33 90.9554 133.19C90.9554 134.04 90.3754 134.64 89.5654 134.64H86.7854ZM92.2254 139.38C92.5454 139.38 92.8054 139.13 92.8054 138.8C92.8054 138.48 92.5454 138.22 92.2254 138.22H90.6954V136.71C90.6954 136.35 90.3954 136.14 90.0254 136.14C89.6454 136.14 89.3554 136.35 89.3554 136.71V138.22H87.0254V136.71C87.0254 136.35 86.7354 136.14 86.3554 136.14C85.9754 136.14 85.6854 136.35 85.6854 136.71V138.22H84.1254C83.8154 138.22 83.5454 138.48 83.5454 138.8C83.5454 139.13 83.8154 139.38 84.1254 139.38H92.2254ZM94.3554 139.3C94.6554 139.3 94.8754 139.09 94.8754 138.79V138.45C94.8754 138.15 94.6554 137.93 94.3554 137.93H94.0354C93.7354 137.93 93.5154 138.15 93.5154 138.45V138.79C93.5154 139.09 93.7354 139.3 94.0354 139.3H94.3554Z" fill="#7C492C"/>
<path d="M73.6353 17.6104H41.0232C39.2221 17.6104 37.762 19.0339 37.762 20.79V39.8681C37.762 41.6242 39.2221 43.0478 41.0232 43.0478H73.6353C75.4364 43.0478 76.8965 41.6242 76.8965 39.8681V20.79C76.8965 19.0339 75.4364 17.6104 73.6353 17.6104Z" stroke="#7C492C" stroke-width="3" stroke-linecap="round" stroke-linejoin="round"/>
<path d="M37.762 24.459L76.8965 24.459" stroke="#7C492C" stroke-width="3" stroke-linecap="round" stroke-linejoin="round"/>
<path d="M45.5889 37.1777L50.4807 37.1777" stroke="#7C492C" stroke-width="3" stroke-linecap="round" stroke-linejoin="round"/>
</svg>
