<svg viewBox="0 0 343 250" fill="none" xmlns="http://www.w3.org/2000/svg">
<rect width="163" height="250" rx="19" fill="#F7F7F7"/>
<rect x="180" width="163" height="250" rx="19" fill="#F7F7F7"/>
<path d="M40.5838 217.15H43.4398V212.526H44.3238V217.15H47.1798V206.287H44.3238V209.466H43.4398V206.287H40.5838V217.15ZM31.9648 215.807H39.9548V213.359H34.9058V212.305H39.5298V206.457H32.0498V208.871H36.5888V209.925H31.9648V215.807ZM32.2198 221.927H47.4348V218.952H35.9598V216.895H32.2198V221.927ZM49.1348 214.855H58.9098V212.356H52.6198V208.956H58.7398V206.457H49.1348V214.855ZM56.9718 218.425H60.3548V219.547H56.9718V222.097H64.0098V215.875H56.9718V218.425ZM56.2578 215.875H49.2198V222.097H56.2578V219.547H52.8748V218.425H56.2578V215.875ZM57.0398 211.897H60.4398V215.025H64.0098V206.287H60.4398V209.415H57.0398V211.897ZM66.4748 209.687H71.2008C70.4698 211.251 68.5998 211.948 65.5568 212.373L66.8828 215.348C69.9938 214.94 74.2778 213.699 75.2298 209.687H80.5848V206.627H66.4748V209.687ZM65.5398 219.173H71.4898V222.267H75.5698V219.173H81.5198V216.113H65.5398V219.173ZM81.5198 212.22C79.0378 211.863 77.2528 211.064 75.9948 209.857C75.7398 211.115 75.2468 212.067 74.4308 212.951C75.8928 214.175 77.7288 215.025 80.0408 215.348L81.5198 212.22ZM98.0098 216.215H83.2198V219.275H94.4398V222.097H98.0098V216.215ZM89.6458 206.287H86.0078V207.732C86.0078 210.435 84.8858 211.693 82.1998 212.526L83.7638 215.365C87.8098 213.988 89.6458 211.897 89.6458 207.494V206.287ZM94.4398 215.365H98.0098V206.287H94.4398V215.365ZM93.7428 212.356C92.0938 211.914 90.8698 211.268 90.0878 209.993C89.8668 211.455 89.2888 212.441 88.5578 213.274C89.5608 214.107 90.7508 214.787 92.1788 215.195L93.7428 212.356ZM113.773 218.442H111.274V206.457H107.976C107.976 207.63 107.075 208.191 105.29 208.191V211.353H107.704V218.442H104.95V221.672H113.773V218.442ZM116.462 209.687H121.188C120.457 211.251 118.587 211.948 115.544 212.373L116.87 215.348C119.981 214.94 124.265 213.699 125.217 209.687H130.572V206.627H116.462V209.687ZM115.527 219.173H121.477V222.267H125.557V219.173H131.507V216.113H115.527V219.173ZM131.507 212.22C129.025 211.863 127.24 211.064 125.982 209.857C125.727 211.115 125.234 212.067 124.418 212.951C125.88 214.175 127.716 215.025 130.028 215.348L131.507 212.22Z" fill="#080808"/>
<rect x="53.6465" y="23.0059" width="55.7531" height="28.075" rx="14.0375" stroke="#A1A1A1"/>
<path d="M83.0245 43.2435C83.0565 43.3223 83.0565 43.431 83.0096 43.4948L82.9479 43.5736L82.8861 43.6354L82.6497 43.793C82.6028 43.825 82.5411 43.8399 82.4921 43.8399H82.3196L82.2408 43.8867C82.13 43.9655 82.0363 43.9804 81.9745 43.9336L81.8638 43.8718H81.5507L81.1737 43.9038L80.9395 43.9506L80.8926 43.9655L80.5007 43.9804C80.4539 43.9804 80.3751 43.9655 80.3282 43.9336L80.1876 43.8399L79.9683 43.9016C79.9363 43.9165 79.9065 43.9165 79.8895 43.9165H79.5295L79.4678 43.9016L79.2633 43.8399L79.1227 43.9506C79.0908 43.9826 79.0439 43.9975 78.9971 43.9975L78.684 44.0294H78.2921L78.0727 44.0145L77.8534 43.9677L77.5701 44.0294C77.5233 44.0443 77.4594 44.0443 77.4125 44.0294L77.1931 43.9506C77.1314 43.9826 77.0675 43.9975 77.0355 43.9655L76.9887 43.9187L76.7842 43.9655C76.7523 43.9804 76.7054 43.9975 76.6756 43.9804L76.4711 43.9336L76.2368 43.8718C76.2368 43.8718 76.2219 43.8718 76.2219 43.8569L76.0963 43.9677C76.0494 44.0145 75.9557 44.0294 75.8918 44.0145L75.5617 43.9826L75.3743 44.0294C75.3423 44.0443 75.2955 44.0443 75.2635 44.0294L75.091 43.9975L74.7609 43.8867L74.4627 43.8548C74.4478 43.8548 74.4308 43.8548 74.401 43.8399L74.3541 43.825C74.2135 43.7781 74.1347 43.6674 74.1496 43.5736L74.1816 43.4011L74.1496 43.1349V43.0412L74.2433 42.7111L74.2114 42.4448L74.0857 42.1467C74.0538 42.053 74.0708 41.9742 74.1177 41.9124L74.2433 41.725V41.4268L74.0857 41.1925C74.0538 41.1308 74.0538 41.0349 74.0708 40.9732L74.1326 40.8155V40.4386L74.2114 40.1084L74.1795 39.8571V39.8252L74.1944 39.4802L74.1475 39.4184C74.0687 39.3076 74.0538 39.1841 74.1156 39.1053L74.2263 38.9797L74.1007 38.7922C74.0687 38.7305 74.0538 38.6666 74.0687 38.5878L74.1795 38.2576L74.1645 37.9275L74.1177 37.8658C74.0708 37.787 74.0389 37.7082 74.0708 37.6144L74.1816 37.3312V37.1587L74.1347 36.7348C74.1347 36.688 74.1198 36.6731 74.1347 36.6411L74.1965 36.4835L74.1645 36.0277L74.1177 35.8552V35.7445L74.1965 35.4612L74.2433 35.1013L74.1965 35.0544C74.1496 35.0076 74.1028 34.9607 74.1028 34.8819L74.0879 34.5986L74.073 34.2068L74.041 33.9554V33.9086L74.0559 33.6253C74.0559 33.5934 74.0879 33.5465 74.1028 33.5146L74.2135 33.3421L74.073 33.0758C74.0581 33.0439 74.041 33.029 74.041 32.9821V32.7627C74.041 32.7308 74.041 32.701 74.0559 32.652L74.1816 32.4177L74.1667 32.0088L74.1198 31.947C74.0879 31.9002 74.0879 31.8363 74.1049 31.7745L74.1518 31.5551L74.1198 31.0525L74.1049 30.9737V30.9269L74.1198 30.5967C74.1198 30.5179 74.1667 30.4562 74.2306 30.4093L74.4031 30.2687C74.4499 30.2219 74.4968 30.2219 74.5437 30.2219H74.6225L75.14 30.1899H75.2806C75.3125 30.1899 75.3274 30.2048 75.3594 30.2219L75.6256 30.3156L75.9387 30.175C75.9855 30.1431 76.0643 30.1431 76.1112 30.1601L76.173 30.175L76.6117 30.2219C76.6905 30.1431 76.8162 30.1282 76.9248 30.1899L77.191 30.3156L77.3784 30.4263C77.4253 30.4583 77.4572 30.5201 77.4721 30.5669L77.519 30.6926C77.5339 30.7394 77.5339 30.7714 77.5339 30.8012L77.519 31.0355L77.4721 31.4593C77.4721 31.4912 77.4572 31.5062 77.4572 31.5211L77.3955 31.6936L77.4423 32.1323L77.4572 32.4923L77.4892 32.6797C77.4892 32.6946 77.5041 32.7116 77.5041 32.7265V32.9779C77.5041 33.0098 77.4892 33.0396 77.4892 33.0567L77.3806 33.4017L77.3656 33.5593L77.4274 33.9512L77.5062 34.2174C77.5211 34.2792 77.5382 34.3431 77.5062 34.4048L77.4125 34.6242L77.3656 34.9075L77.4125 35.0949V35.1737L77.3806 35.6124L77.4423 35.7998L77.5041 36.1449L77.5509 36.3323V36.4111L77.536 36.8498L77.5509 36.9116V37.0053L77.519 37.3653L77.4253 37.804L77.3635 38.0234L77.4253 38.1022C77.5041 38.2129 77.519 38.3215 77.4721 38.4003L77.3784 38.5409L77.4721 39.0265L77.5041 39.2139V39.2927L77.4892 39.5121C77.4892 39.559 77.4743 39.5739 77.4572 39.6058L77.3784 39.7634L77.4721 40.0467C77.487 40.0786 77.487 40.1404 77.487 40.1723L77.4402 40.5493L77.3933 40.7069H77.4402C77.4551 40.7069 77.4721 40.7069 77.502 40.7218L77.7384 40.7836L78.0514 40.8943L78.4284 40.8794L78.6946 40.8475L78.9928 40.8326L79.3059 40.7857L79.4933 40.724C79.5253 40.7091 79.5551 40.692 79.587 40.692H79.9321C79.947 40.692 79.964 40.7069 79.9789 40.7069L80.1195 40.7389L80.5582 40.692H80.8713L81.0758 40.7389L81.4677 40.7069L81.7978 40.7218L81.9703 40.6899H82.0491L82.4261 40.7367C82.441 40.7367 82.4729 40.7367 82.4878 40.7517L82.5496 40.7836C82.5815 40.7985 82.6114 40.8155 82.6284 40.8454L82.8158 41.0796C82.8478 41.1116 82.8776 41.1584 82.8776 41.2202L82.9095 41.5184L82.9244 41.8166L82.9862 41.9273C83.0011 41.9593 83.0331 42.0061 83.0331 42.053V42.2723C83.0331 42.2872 83.0182 42.3043 83.0182 42.3192L82.9244 42.7579L82.8776 42.9155L83.0182 43.2286L83.0245 43.2435ZM88.9987 36.6262L88.9199 37.033L88.9348 37.2204C88.9348 37.2822 88.9199 37.361 88.8879 37.4079L88.8261 37.4696L88.8879 37.7209C88.9199 37.8296 88.873 37.9254 88.8091 37.9872L88.5748 38.2385C88.528 38.3002 88.4492 38.3002 88.3874 38.3002H88.2149L87.8848 38.2214L87.6185 38.3002C87.5866 38.3152 87.5568 38.3152 87.5078 38.3002L87.3502 38.2534L87.397 38.3641C87.4439 38.4578 87.4588 38.5516 87.4119 38.6304L87.2863 38.8966L87.3651 39.084C87.38 39.116 87.397 39.1458 87.397 39.1628L87.4588 39.6016L87.4737 39.6484V39.8209C87.4737 39.8529 87.4588 39.8827 87.4418 39.9317L87.2692 40.2298L87.2842 40.4961L87.3779 40.8411L87.4247 41.1542V41.233L87.4098 41.3736C87.4098 41.4055 87.3949 41.4055 87.3949 41.4204L87.3012 41.6717L87.2692 42.0487L87.3161 42.4086V42.4874L87.3012 42.7217L87.3481 43.0518L87.363 43.0987V43.382L87.4247 43.5864C87.4567 43.6801 87.4567 43.7589 87.4396 43.7909L87.4077 43.8377L87.1883 44.1359C87.1564 44.1828 87.0946 44.2147 87.0478 44.2296L86.7645 44.3084L86.7325 44.3233L86.4663 44.3553C86.4045 44.3553 86.3556 44.3553 86.2938 44.3084L86.1532 44.2147L85.7763 44.2616L85.4781 44.2765L85.2587 44.2616L85.0713 44.3233C84.9925 44.3553 84.9137 44.3382 84.8519 44.3084L84.7582 44.2467L84.46 44.2318C84.3493 44.2318 84.2407 44.1849 84.2258 44.121L84.0383 43.5566V43.416C84.0383 43.3543 84.0383 43.3074 84.0703 43.2584L84.181 43.1179L84.1342 42.6152L84.0554 42.4576C84.0405 42.4108 84.0234 42.3788 84.0405 42.3171L84.1193 42.004L84.0085 41.7378C83.9936 41.7228 84.0085 41.676 84.0085 41.6589V41.5184C84.0085 41.4566 84.0405 41.3608 84.0873 41.3139L84.181 41.2202L84.0405 40.9369C83.9936 40.8262 84.0085 40.7176 84.0554 40.6707L84.1342 40.577L84.0405 40.2469C84.0256 40.2 84.0256 40.1681 84.0256 40.1383L84.1044 39.8081L84.0256 39.5568V39.4482L84.0724 39.1969L84.1342 38.8987L84.0085 38.6474C83.9766 38.5856 83.9936 38.4898 84.0085 38.46L84.0405 38.3982L84.0873 37.9744L84.0554 37.5506L84.0405 37.5186C84.0256 37.4717 84.0085 37.3929 84.0256 37.3461L84.1044 37.1416L84.0426 36.8584V36.7476L84.1044 36.5133L84.0894 36.0107L84.0745 35.917V35.8382L84.1853 35.4612L84.1235 35.3356C84.1086 35.2887 84.0767 35.2418 84.0916 35.1779L84.1704 34.8329L84.2023 34.4879L84.1086 34.4091C84.0469 34.3473 83.9979 34.2366 84.0298 34.1258L84.0916 33.9533V33.5614L84.1384 33.1695L84.0596 32.9182C84.0447 32.8863 84.0447 32.8394 84.0596 32.8075L84.1065 32.6669L84.0447 32.4624L84.0298 32.4156L84.0149 32.1494V32.0706L84.1086 31.7106L84.2023 31.3975L84.0298 31.0845C84.0298 31.0695 84.0149 31.0525 84.0149 31.0227L83.983 30.8353V30.7565L84.0149 30.3795L84.0298 30.3007L84.0916 30.175C84.0916 30.1601 84.1065 30.1431 84.1065 30.1282L84.2471 29.9557C84.3088 29.8619 84.4196 29.83 84.5133 29.8449L84.7476 29.8769L84.8562 29.8151C84.8881 29.7831 84.935 29.7682 84.9669 29.7682L85.1714 29.7363C85.297 29.7214 85.4078 29.7512 85.4227 29.7981L85.4696 29.8769L85.9232 29.7512L85.985 29.7363H86.2981L86.5494 29.7682H86.658C86.7049 29.7682 86.7687 29.7682 86.8156 29.8002L86.9732 29.8939L87.1926 30.0345C87.3033 30.0962 87.3651 30.207 87.3502 30.3007L87.3182 30.4583L87.2714 30.8502L87.3182 30.929C87.3502 30.9758 87.3651 31.0546 87.3651 31.1164L87.3502 31.2889L87.3353 31.619L87.397 32.0109C87.397 32.0578 87.3821 32.1046 87.3651 32.1515L87.3331 32.2452L87.38 32.5285L87.4737 32.9672C87.4886 33.0141 87.4737 33.078 87.4588 33.1078L87.38 33.3421L87.4119 33.6722L87.4439 33.8127C87.4588 33.8596 87.4588 33.8915 87.4588 33.9235L87.4269 34.128C87.4269 34.1599 87.4119 34.1748 87.4119 34.1897L87.3012 34.424L87.4269 34.8308C87.4418 34.8926 87.4418 34.9096 87.4269 34.9714L87.4119 35.0033L87.7101 35.0502L87.9934 35.0352L88.1978 34.9884L88.2596 34.9735H88.5258C88.6195 34.9735 88.7303 35.0054 88.7772 35.0991L88.8879 35.2866C88.9199 35.3483 88.9199 35.4442 88.9028 35.5059L88.8091 35.7892L88.841 35.9298L88.9199 36.3067L88.9816 36.4473C89.0136 36.5091 89.0136 36.573 88.9965 36.6198L88.9987 36.6262Z" fill="#040000"/>
<path d="M39.8282 133.006C39.8282 142.076 58.4982 149.431 81.5244 149.431C104.554 149.431 123.221 142.076 123.221 133.006C123.221 123.937 104.551 116.582 81.5244 116.582C58.4982 116.582 39.8282 123.937 39.8282 133.006Z" fill="black"/>
<path d="M119.626 134.271C112.591 134.271 106.889 128.569 106.889 121.534C106.889 114.5 112.591 108.797 119.626 108.797C126.661 108.797 132.363 114.5 132.363 121.534C132.363 128.569 126.661 134.271 119.626 134.271Z" fill="#FFA9FF"/>
<path d="M43.4209 134.271C36.3863 134.271 30.6836 128.569 30.6836 121.534C30.6836 114.5 36.3863 108.797 43.4209 108.797C50.4555 108.797 56.1582 114.5 56.1582 121.534C56.1582 128.569 50.4555 134.271 43.4209 134.271Z" fill="#FFA9FF"/>
<path d="M82.639 151.882C63.0882 151.882 47.239 136.033 47.239 116.482C47.239 96.9312 63.0882 81.082 82.639 81.082C102.19 81.082 118.039 96.9312 118.039 116.482C118.039 136.033 102.19 151.882 82.639 151.882Z" fill="#FFA9FF"/>
<path d="M88.1945 120.167C88.9055 118.526 89.7291 118.336 90.1313 118.336C90.5335 118.336 91.3571 118.526 92.0681 120.167C93.2842 123.081 93.9824 126.643 90.1313 126.643C86.2802 126.643 86.9783 123.085 88.1945 120.167Z" fill="#F380FF"/>
<path d="M80.3072 127.75C81.3657 131.077 84.924 132.917 88.2539 131.855" stroke="black" stroke-width="0.965192" stroke-linecap="round" stroke-linejoin="round"/>
<path d="M38.0881 119.349C39.375 119.014 40.8292 119.05 42.2577 119.536C44.5291 120.308 46.1571 122.019 46.7266 123.943" stroke="black" stroke-width="0.965192" stroke-linecap="round" stroke-linejoin="round"/>
<path d="M124.1 119.349C122.813 119.014 121.358 119.05 119.93 119.536C117.659 120.308 116.031 122.019 115.461 123.943" stroke="black" stroke-width="0.965192" stroke-linecap="round" stroke-linejoin="round"/>
<path d="M34.469 134.347C34.469 134.347 37.3518 121.23 46.1607 109.175C46.1607 109.175 46.1704 107.495 46.5404 104.86C46.7495 103.374 47.0744 101.582 47.5796 99.6161C49.8542 90.746 55.7869 78.3175 71.2396 74.1833C71.2461 74.1833 71.2525 74.1801 71.2589 74.1769C71.5195 74.1093 71.7801 74.0417 72.0439 73.9774C72.0729 73.971 72.1019 73.9645 72.1308 73.9549C72.3786 73.8937 72.6295 73.8391 72.8837 73.7811C72.9319 73.7715 72.977 73.7618 73.0252 73.749C73.2665 73.6975 73.5078 73.646 73.7523 73.5978C73.8135 73.5849 73.8746 73.5752 73.9357 73.5624C74.1706 73.5173 74.4055 73.4755 74.6435 73.4337C74.7175 73.4208 74.7947 73.4079 74.8687 73.3951C75.0972 73.3565 75.3288 73.3211 75.5605 73.2857C75.6473 73.2728 75.7374 73.2599 75.8243 73.2471C76.0495 73.2149 76.2747 73.1827 76.5031 73.1538C76.6029 73.1409 76.7026 73.128 76.8023 73.1184C77.0243 73.0926 77.2463 73.0669 77.4683 73.0412C77.5777 73.0283 77.6903 73.0186 77.8029 73.009C78.0185 72.9865 78.2373 72.9672 78.456 72.9479C78.5815 72.9382 78.707 72.9286 78.8325 72.9189C79.0448 72.9028 79.2539 72.8867 79.4695 72.8739C79.6111 72.8642 79.7558 72.8578 79.8974 72.8513C80.1001 72.8417 80.2996 72.8288 80.5055 72.8192C80.676 72.8127 80.8497 72.8095 81.0235 72.8031C81.2036 72.7966 81.3806 72.7902 81.5607 72.787C81.8632 72.7806 82.1656 72.7773 82.4712 72.7773C82.5259 72.7773 82.5806 72.7773 82.6353 72.7773C82.6353 72.7773 82.6353 72.7773 82.6385 72.7773C82.6385 72.7773 82.6385 72.7773 82.6418 72.7773C106.762 72.7773 114.931 88.8285 117.698 99.6129C118.203 101.579 118.528 103.371 118.737 104.857C119.107 107.492 119.116 109.172 119.116 109.172C127.922 121.23 130.805 134.347 130.805 134.347C132.674 153.226 109.481 155.073 110.832 154.616C112.183 154.162 112.91 142.535 112.756 136.892C112.659 133.443 112.215 120.558 111.884 111.066C105.97 111.066 98.0108 105.706 95.8391 100.379C95.1828 98.7667 94.7807 97.1227 94.5458 95.5559C93.4776 97.1034 92.21 98.7474 90.7365 100.379C83.9222 107.91 72.6552 115.143 55.8706 110.986C55.8641 111.038 55.8609 111.066 55.8609 111.066C55.5295 120.558 55.0855 133.443 54.989 136.892C54.8346 142.535 55.5617 154.159 56.913 154.616C58.2642 155.07 32.603 153.226 34.4723 134.347H34.469Z" fill="#1F2020"/>
<path d="M80.8753 122.425C79.2262 122.425 77.8893 121.088 77.8893 119.439C77.8893 117.79 79.2262 116.453 80.8753 116.453C82.5244 116.453 83.8613 117.79 83.8613 119.439C83.8613 121.088 82.5244 122.425 80.8753 122.425Z" fill="black"/>
<path d="M98.6722 122.425C97.0231 122.425 95.6862 121.088 95.6862 119.439C95.6862 117.79 97.0231 116.453 98.6722 116.453C100.321 116.453 101.658 117.79 101.658 119.439C101.658 121.088 100.321 122.425 98.6722 122.425Z" fill="black"/>
<path d="M80.7692 187.033C81.1678 187.49 81.8789 187.49 82.2774 187.033L88.0806 180.369C88.6441 179.722 88.1845 178.712 87.3265 178.712L81.5233 178.712L75.7202 178.712C74.8622 178.712 74.4026 179.722 74.9661 180.369L80.7692 187.033Z" fill="black"/>
<path d="M220.053 217.152H222.909V212.528H223.793V217.152H226.649V206.289H223.793V209.468H222.909V206.289H220.053V217.152ZM211.434 215.809H219.424V213.361H214.375V212.307H218.999V206.459H211.519V208.873H216.058V209.927H211.434V215.809ZM211.689 221.929H226.904V218.954H215.429V216.897H211.689V221.929ZM228.604 214.857H238.379V212.358H232.089V208.958H238.209V206.459H228.604V214.857ZM236.441 218.427H239.824V219.549H236.441V222.099H243.479V215.877H236.441V218.427ZM235.727 215.877H228.689V222.099H235.727V219.549H232.344V218.427H235.727V215.877ZM236.509 211.899H239.909V215.027H243.479V206.289H239.909V209.417H236.509V211.899ZM245.944 209.689H250.67C249.939 211.253 248.069 211.95 245.026 212.375L246.352 215.35C249.463 214.942 253.747 213.701 254.699 209.689H260.054V206.629H245.944V209.689ZM245.009 219.175H250.959V222.269H255.039V219.175H260.989V216.115H245.009V219.175ZM260.989 212.222C258.507 211.865 256.722 211.066 255.464 209.859C255.209 211.117 254.716 212.069 253.9 212.953C255.362 214.177 257.198 215.027 259.51 215.35L260.989 212.222ZM277.479 216.217H262.689V219.277H273.909V222.099H277.479V216.217ZM269.115 206.289H265.477V207.734C265.477 210.437 264.355 211.695 261.669 212.528L263.233 215.367C267.279 213.99 269.115 211.899 269.115 207.496V206.289ZM273.909 215.367H277.479V206.289H273.909V215.367ZM273.212 212.358C271.563 211.916 270.339 211.27 269.557 209.995C269.336 211.457 268.758 212.443 268.027 213.276C269.03 214.109 270.22 214.789 271.648 215.197L273.212 212.358ZM293.242 218.444H290.743V206.459H287.445C287.445 207.632 286.544 208.193 284.759 208.193V211.355H287.173V218.444H284.419V221.674H293.242V218.444ZM295.931 209.689H300.657C299.926 211.253 298.056 211.95 295.013 212.375L296.339 215.35C299.45 214.942 303.734 213.701 304.686 209.689H310.041V206.629H295.931V209.689ZM294.996 219.175H300.946V222.269H305.026V219.175H310.976V216.115H294.996V219.175ZM310.976 212.222C308.494 211.865 306.709 211.066 305.451 209.859C305.196 211.117 304.703 212.069 303.887 212.953C305.349 214.177 307.185 215.027 309.497 215.35L310.976 212.222Z" fill="#080808"/>
<path d="M259.878 152.35C279.428 152.35 295.277 136.501 295.277 116.95C295.277 97.3996 279.428 81.5508 259.878 81.5508C240.327 81.5508 224.479 97.3996 224.479 116.95C224.479 136.501 240.327 152.35 259.878 152.35Z" fill="#FFA9FF"/>
<path d="M252.821 126.622C254.858 126.622 256.51 124.97 256.51 122.932C256.51 120.894 254.858 119.242 252.821 119.242C250.783 119.242 249.131 120.894 249.131 122.932C249.131 124.97 250.783 126.622 252.821 126.622Z" fill="#F380FF"/>
<path d="M222.892 134.741C229.928 134.741 235.632 129.037 235.632 122.001C235.632 114.965 229.928 109.262 222.892 109.262C215.856 109.262 210.152 114.965 210.152 122.001C210.152 129.037 215.856 134.741 222.892 134.741Z" fill="#FFA9FF"/>
<path d="M299.095 134.741C306.131 134.741 311.835 129.037 311.835 122.001C311.835 114.965 306.131 109.262 299.095 109.262C292.059 109.262 286.355 114.965 286.355 122.001C286.355 129.037 292.059 134.741 299.095 134.741Z" fill="#FFA9FF"/>
<path d="M244.02 122.954C245.678 122.954 247.022 121.61 247.022 119.952C247.022 118.293 245.678 116.949 244.02 116.949C242.362 116.949 241.018 118.293 241.018 119.952C241.018 121.61 242.362 122.954 244.02 122.954Z" fill="#040000"/>
<path d="M261.914 122.954C263.573 122.954 264.917 121.61 264.917 119.952C264.917 118.293 263.573 116.949 261.914 116.949C260.256 116.949 258.912 118.293 258.912 119.952C258.912 121.61 260.256 122.954 261.914 122.954Z" fill="#040000"/>
<path d="M258.545 75.1121C221.846 75.1121 223.317 109.856 223.4 111.427C223.4 111.502 223.4 111.543 223.4 111.543C223.707 117.676 225.219 124.674 229.722 128.619V110.815C236.052 109.094 237.563 104.534 237.776 99.4314V99.5039C237.776 96.5311 240.286 94.1196 243.383 94.1196C245.821 94.1196 247.894 95.6127 248.668 97.6993C249.441 95.6127 251.514 94.1196 253.953 94.1196C256.157 94.1196 258.053 95.3441 258.969 97.1192C259.117 97.4415 259.367 98.1316 259.533 99.3454C259.554 99.622 259.587 99.8933 259.622 100.162C259.624 100.205 259.63 100.242 259.632 100.285C259.646 100.444 259.667 100.581 259.7 100.696C261.176 109.421 269.754 114.397 278.927 114.521C281.599 114.556 284.757 114.048 287.137 113.232L287.185 113.296V128.614C293.622 125.075 295.821 118.799 296.259 113.296C296.318 112.539 296.348 111.798 296.348 111.081C296.348 105.138 296.087 75.1094 258.542 75.1094L258.545 75.1121Z" fill="#1F2020"/>
<path d="M304.404 119.813C303.118 119.48 301.665 119.515 300.236 119.998C297.967 120.769 296.337 122.482 295.768 124.405" stroke="#1F2020" stroke-width="1.19324" stroke-linecap="round" stroke-linejoin="round"/>
<path d="M218.389 119.813C219.675 119.48 221.128 119.515 222.556 119.998C224.826 120.769 226.456 122.482 227.025 124.405" stroke="#1F2020" stroke-width="1.19324" stroke-linecap="round" stroke-linejoin="round"/>
<path d="M262.194 128.215C261.133 131.542 257.578 133.382 254.248 132.321" stroke="#1F2020" stroke-width="1.19324" stroke-linecap="round" stroke-linejoin="round"/>
<rect x="233.115" y="23.0078" width="55.7531" height="28.075" rx="14.0375" stroke="#A1A1A1"/>
<path d="M246.59 38.2382L246.386 38.0508C246.339 38.0039 246.324 37.9571 246.307 37.9102L246.275 37.7228L246.103 37.4395C246.088 37.4076 246.071 37.3927 246.071 37.3458L246.056 37.1733L245.883 37.0008C245.868 36.9859 245.851 36.9689 245.836 36.922L245.775 36.7644C245.76 36.7495 245.76 36.6856 245.76 36.6707V36.6238C245.76 36.5131 245.792 36.4194 245.9 36.3576L246.199 36.2C246.213 36.2 246.23 36.1851 246.245 36.1851L246.307 36.1702L246.81 35.9508L246.967 35.7932L247.125 35.6675C247.157 35.6356 247.219 35.6207 247.251 35.6207L247.517 35.5738L247.721 35.4333L248.051 35.2288L248.271 34.9775L248.522 34.6793L248.616 34.2874L248.648 34.0681C248.648 34.0212 248.68 33.9573 248.71 33.9275L248.756 33.8806L248.976 33.5675V33.5207C248.961 33.5058 248.929 33.4887 248.914 33.4589L248.852 33.3972L248.618 33.4909C248.539 33.5228 248.431 33.5228 248.367 33.476L248.209 33.3503L247.943 33.4909C247.896 33.5228 247.832 33.5377 247.785 33.5228L247.581 33.476L247.078 33.3354L246.701 33.4462C246.607 33.4781 246.514 33.4462 246.45 33.3844L246.216 33.165C246.154 33.1033 246.122 33.0713 246.122 33.0074L246.137 32.9286L246.199 32.6304L246.245 32.1917L246.277 31.9723L246.169 31.7679C246.154 31.7359 246.137 31.6891 246.137 31.6273L246.152 31.4228C246.152 31.3909 246.184 31.344 246.199 31.3121L246.309 31.1396L246.371 31.0778L246.59 30.9053C246.605 30.9053 246.622 30.9053 246.637 30.8904L246.842 30.7967C246.874 30.7818 246.935 30.7818 246.967 30.7818H247.234L247.562 30.72H247.766L248.032 30.7349L248.409 30.7818L248.629 30.72C248.675 30.7051 248.739 30.7051 248.786 30.72L249.052 30.8137H249.067L249.021 30.4367L248.989 30.2025C248.989 30.1556 248.989 30.1407 249.003 30.0917L249.05 29.9192C249.065 29.8723 249.097 29.8574 249.112 29.8404L249.223 29.7147C249.255 29.6679 249.317 29.6359 249.363 29.621L249.63 29.5742L249.864 29.4954L249.896 29.4804L250.13 29.4336C250.177 29.4336 250.241 29.4336 250.271 29.4485L250.554 29.5593L250.712 29.5124L251.042 29.4804C251.12 29.4655 251.199 29.4804 251.246 29.5273L251.372 29.6381L251.764 29.6061H251.968C252.015 29.6061 252.077 29.621 252.109 29.6381L252.188 29.6849C252.296 29.7467 252.36 29.8894 252.328 30.015L252.266 30.2195L252.251 30.392L252.345 30.5496C252.377 30.5965 252.377 30.6433 252.377 30.7072V30.8329L252.611 30.8797L252.848 30.786C252.91 30.7541 253.005 30.7541 253.067 30.786L253.24 30.8648L253.333 30.818C253.365 30.8031 253.427 30.786 253.459 30.786H253.883L254.166 30.7711L254.526 30.8031C254.541 30.8031 254.558 30.8031 254.588 30.818L254.713 30.8648C254.76 30.8797 254.807 30.9117 254.839 30.9585L254.95 31.1161C254.965 31.1311 254.982 31.163 254.982 31.1949L255.014 31.2737L255.139 31.557C255.154 31.589 255.154 31.6507 255.154 31.6976L255.122 32.0277L255.107 32.0596L255.029 32.3898L255.044 32.4047C255.105 32.4515 255.154 32.5623 255.154 32.639V33.0457C255.154 33.1395 255.076 33.2502 254.997 33.2971L254.713 33.4547C254.699 33.4696 254.667 33.4696 254.652 33.4696L254.543 33.5015C254.481 33.5164 254.385 33.5015 254.339 33.4696L254.213 33.3908L253.915 33.4845C253.883 33.4994 253.821 33.5164 253.789 33.4994L253.461 33.4057L253.131 33.3439L253.02 33.4376C252.959 33.4994 252.895 33.5164 252.816 33.4994L252.658 33.4674L252.234 33.4206V33.4674L252.202 33.8274L252.17 34.0936C252.17 34.1405 252.139 34.2193 252.109 34.2512L252.03 34.3449L251.983 34.7368C251.983 34.7688 251.983 34.8156 251.968 34.8305L251.811 35.1138C251.842 35.2544 251.811 35.3651 251.7 35.4269L251.512 35.5355V35.8486C251.512 35.9103 251.497 35.9742 251.434 36.036L251.355 36.1148L251.293 36.1467L251.059 36.2724L250.871 36.5067L250.778 36.8049L250.731 36.8986L250.573 37.0562C250.573 37.0562 250.558 37.0881 250.541 37.0881L250.29 37.2606L249.992 37.4331L249.819 37.6376C249.804 37.6696 249.772 37.6696 249.757 37.6845L249.444 37.857C249.429 37.8719 249.412 37.8719 249.412 37.8719L249.146 37.9507L248.895 38.1701L248.535 38.3745L248.049 38.6258L247.862 38.7196C247.847 38.7345 247.815 38.7345 247.8 38.7345L247.502 38.7813L247.344 38.907C247.251 38.9858 247.125 39.0007 247.031 38.9538L246.938 38.8921C246.906 38.8772 246.859 38.8303 246.844 38.7813L246.703 38.4682L246.593 38.2489L246.59 38.2382ZM260.326 42.4254V43.0835C260.326 43.0984 260.311 43.1304 260.311 43.1623L260.232 43.4136L260.153 43.7438C260.262 43.8694 260.232 44.0569 260.091 44.1676C260.059 44.1995 260.012 44.2145 259.966 44.2145L259.714 44.2294H259.682L259.29 44.2145L258.992 44.3401C258.945 44.3721 258.913 44.387 258.852 44.3721L258.647 44.3401C258.632 44.3401 258.6 44.3252 258.585 44.3082L258.272 44.1676L258.053 44.3252C258.006 44.3572 257.942 44.387 257.895 44.387H257.77C257.755 44.387 257.738 44.3721 257.723 44.3721L257.44 44.3103L257.063 44.2315L256.905 44.2783L256.843 44.2933H256.451C256.436 44.2933 256.419 44.2933 256.39 44.2783L256.153 44.2166L255.902 44.2634H255.823L255.619 44.2485L255.242 44.2954C255.21 44.2954 255.18 44.3103 255.148 44.2954L254.929 44.2485L254.584 44.3103L254.349 44.3252H253.847L253.721 44.3401C253.689 44.3401 253.659 44.355 253.612 44.3401L253.235 44.2464C253.203 44.2315 253.174 44.2315 253.157 44.2145L253.095 44.1825L252.688 44.2933L252.501 44.3252C252.469 44.3252 252.407 44.3252 252.375 44.3103L251.968 44.1846L251.828 44.2783C251.749 44.3401 251.687 44.3572 251.608 44.3401L251.468 44.3082L251.108 44.1825L250.701 44.1974L250.607 44.2592C250.545 44.306 250.467 44.306 250.388 44.2741L250.183 44.2272L249.619 44.306H249.525L249.18 44.2272C249.165 44.2272 249.133 44.2123 249.101 44.1953H248.914L248.741 44.1804L248.49 44.2911C248.411 44.338 248.333 44.3231 248.256 44.2762L248.037 44.1676L247.817 44.1995L247.598 44.2464L247.206 44.3401C247.159 44.355 247.112 44.355 247.065 44.3401L246.878 44.2933C246.831 44.2783 246.784 44.2464 246.752 44.2145L246.533 43.9312C246.501 43.8843 246.486 43.8204 246.486 43.7736V43.7118C246.486 43.665 246.471 43.6501 246.486 43.6181L246.597 43.3348V42.9898L246.503 42.8024C246.488 42.7704 246.471 42.7555 246.471 42.7087V42.3487L246.503 42.0974V41.7524L246.55 41.5181L246.565 41.4862L246.659 41.2668L246.533 41.0325C246.518 40.9857 246.518 40.9388 246.518 40.9069V40.6875C246.518 40.6555 246.533 40.6406 246.533 40.6257L246.627 40.3595L246.565 40.1721C246.518 40.0315 246.565 39.9059 246.705 39.8271L246.94 39.7014C246.955 39.7014 246.972 39.6865 246.987 39.6865L247.395 39.5757C247.427 39.5608 247.457 39.5757 247.474 39.5757L247.758 39.5906C247.767 39.5906 247.783 39.5956 247.804 39.6056L248.103 39.6993L248.386 39.7142H248.842L248.92 39.6524C248.999 39.5906 249.108 39.5736 249.204 39.6205L249.376 39.6822L249.517 39.6354C249.579 39.6034 249.657 39.6205 249.721 39.6503L249.894 39.7291C250.004 39.7759 250.081 39.9016 250.066 40.0422L250.034 40.2615L250.081 40.4191C250.096 40.466 250.081 40.5448 250.066 40.5917L249.941 40.9047L249.894 41.2029L249.926 41.533L249.973 41.6267L250.081 41.6118L250.441 41.5799L250.801 41.4713C250.833 41.4564 250.863 41.4393 250.912 41.4564L251.099 41.5032L251.365 41.4713H251.412L251.74 41.5032L252.006 41.4244C252.038 41.4095 252.068 41.4244 252.1 41.4244L252.305 41.4713L252.618 41.533L252.995 41.4862C253.042 41.4862 253.074 41.4862 253.12 41.5181L253.214 41.565L253.621 41.5181C253.683 41.5181 253.761 41.533 253.808 41.5799L253.887 41.6416L254.279 41.5948L254.639 41.516H254.701L255.218 41.5628L255.563 41.484C255.61 41.4691 255.642 41.4691 255.674 41.484L255.8 41.5309L256.224 41.4372L256.255 41.4223H256.554L256.726 41.4691L257.118 41.516H257.495L257.636 41.5628L257.855 41.484C257.902 41.4691 257.964 41.4691 258.027 41.499L258.341 41.6246L258.481 41.5309C258.528 41.499 258.607 41.484 258.669 41.499L259.092 41.5927L259.312 41.499C259.344 41.484 259.373 41.499 259.405 41.499L259.719 41.5139V41.499C259.78 41.484 259.876 41.484 259.938 41.5309L260.125 41.6416C260.266 41.7354 260.33 41.861 260.283 41.9718L260.204 42.1294L260.298 42.3019C260.313 42.3338 260.33 42.3956 260.33 42.4275L260.326 42.4254ZM255.073 36.0126L255.231 36.0743L255.418 36.1063C255.48 36.1212 255.559 36.168 255.591 36.217L255.732 36.4045C255.763 36.4513 255.778 36.5301 255.778 36.577L255.763 36.7026C255.763 36.7495 255.749 36.7963 255.717 36.8432L255.418 37.1882L255.308 37.3927L255.276 37.5503C255.261 37.644 255.197 37.7079 255.135 37.7377L254.995 37.8165L254.837 38.1765L254.805 38.3809C254.79 38.4597 254.743 38.5066 254.679 38.5385L254.586 38.6003L254.428 38.7728C254.334 38.8665 254.177 38.8985 254.068 38.8346L253.881 38.7238L253.708 38.677L253.238 38.4895L252.954 38.3639L252.829 38.317C252.797 38.3021 252.75 38.2851 252.735 38.2553L252.594 38.0827L252.328 37.7995L252.077 37.6589L251.794 37.5333L251.589 37.4395C251.51 37.3927 251.478 37.3288 251.463 37.267L251.385 36.9689C251.37 36.8751 251.399 36.7644 251.478 36.6856L251.604 36.577L251.823 36.3576L251.981 36.1063L252.043 36.0275L252.23 35.9018L252.245 35.5887C252.245 35.5738 252.245 35.527 252.26 35.5099L252.339 35.3225L252.386 35.2437L252.669 34.9604L252.701 34.773C252.716 34.6942 252.795 34.6154 252.873 34.5856C252.935 34.5537 253.014 34.6175 253.031 34.7113L253.063 34.8838L253.408 35.118L253.659 35.2586L253.972 35.3992L254.034 35.4311L254.113 35.5099L254.379 35.6824L254.66 35.7613L254.722 35.7932L255.067 36.0126H255.073ZM256.641 32.9542C256.641 32.9073 256.626 32.8924 256.641 32.8605L256.735 32.6091L256.703 32.4835V32.4217L256.735 31.983L256.703 31.9042C256.688 31.8424 256.688 31.7636 256.703 31.7167L256.828 31.4186L256.75 31.0586V30.9798L256.782 30.7924L256.688 30.6199C256.656 30.5411 256.641 30.4325 256.688 30.3537L256.799 30.1662L256.956 29.9618C257.018 29.883 257.114 29.8212 257.207 29.8361L257.38 29.851L257.584 29.8979L257.868 29.851H257.947L258.26 29.883L258.447 29.8361C258.479 29.8212 258.509 29.8361 258.541 29.8361L258.839 29.883L259.058 29.8212C259.12 29.8063 259.199 29.8063 259.246 29.8361L259.325 29.883L259.606 29.8681C259.699 29.8681 259.793 29.883 259.842 29.9618L259.889 30.0236C259.904 30.0555 259.921 30.0853 259.921 30.1343L259.953 30.4005L260.032 30.6838C260.047 30.7306 260.047 30.7456 260.047 30.7945L260 31.1864L259.985 31.4697L260.017 31.6273L260.049 32.0192V32.1129L260.002 32.2854L260.017 32.771C260.095 32.8498 260.11 32.9584 260.078 33.0543L260.032 33.2119L260.064 33.4951C260.064 33.5271 260.064 33.5739 260.049 33.6208L259.938 33.9658L259.953 34.1852L260.015 34.592L260.061 34.7176L260.076 34.8114V35.2032L260.108 35.4546V35.7676C260.108 35.7996 260.093 35.8294 260.076 35.8614L259.983 36.1127L260.044 36.2532C260.059 36.3001 260.076 36.332 260.076 36.3938L260.044 36.8006L259.998 37.02L260.059 37.3799L260.091 37.5993C260.106 37.693 260.091 37.8037 260.044 37.8506L259.951 37.9294V38.3681L260.012 38.5087C260.044 38.5556 260.044 38.6344 260.027 38.6961L259.98 38.8537L260.059 39.2925V39.3862C260.074 39.465 260.044 39.5587 259.98 39.6205L259.776 39.8079C259.744 39.8398 259.682 39.8547 259.65 39.8547L259.463 39.9016C259.416 39.9165 259.369 39.9016 259.322 39.8867L259.024 39.761L258.852 39.8547C258.805 39.8696 258.741 39.8867 258.694 39.8696L258.507 39.8228L258.319 39.8079L257.912 39.9335C257.851 39.9485 257.772 39.9335 257.725 39.9016L257.521 39.793L257.442 39.7781L257.222 39.8569C257.129 39.8888 257.003 39.8718 256.924 39.7951L256.813 39.6844C256.767 39.6375 256.767 39.6056 256.752 39.5438L256.69 39.1668L256.675 38.9624L256.643 38.711V38.6642L256.658 38.2872L256.673 38.0039V37.7207L256.767 37.25C256.688 37.1882 256.626 37.0924 256.641 36.9838L256.673 36.8112L256.767 36.3406V36.0573L256.813 35.7272L256.705 35.5078C256.673 35.446 256.69 35.3672 256.72 35.2884L256.767 35.1947L256.828 34.8816L256.72 34.7091C256.673 34.6474 256.673 34.5515 256.705 34.4748L256.813 34.1916L256.705 34.0191C256.658 33.9254 256.658 33.8146 256.72 33.7209L256.828 33.5633L256.671 33.2034C256.671 33.1884 256.656 33.1714 256.656 33.1416L256.641 32.9542Z" fill="#040000"/>
<path d="M276.224 39.3669V39.5245C276.224 39.5565 276.209 39.6034 276.192 39.6353L276.067 39.8398L276.192 40.123C276.224 40.2018 276.224 40.2955 276.192 40.3573L276.131 40.4681L276.005 40.7194C275.943 40.8301 275.832 40.8919 275.707 40.877L275.502 40.8301L275.189 40.7982L274.906 40.7513L274.702 40.8301C274.64 40.8621 274.561 40.845 274.497 40.8152L274.293 40.7045L273.98 40.7364L273.666 40.7982L273.289 40.845H273.243L272.678 40.8301C272.631 40.8301 272.585 40.8152 272.553 40.7833L272.442 40.6896L272.269 40.8003C272.222 40.8322 272.161 40.8472 272.112 40.8472L271.688 40.8152L271.468 40.8301L271.217 40.8152L270.872 40.7534L270.559 40.8472V40.8621L270.621 40.9728C270.653 41.0346 270.668 41.0985 270.668 41.1453L270.636 41.4435C270.636 41.4755 270.621 41.4904 270.621 41.5053L270.542 41.6927L270.574 42.0228V42.1016L270.495 42.4616L270.557 42.5872L270.651 42.9173C270.651 42.9322 270.666 42.9322 270.666 42.9642L270.68 43.2624C270.68 43.3092 270.68 43.3561 270.649 43.4029L270.491 43.6542L270.617 43.9375C270.617 43.9524 270.631 43.9695 270.631 43.9993L270.646 44.11C270.661 44.2208 270.614 44.2974 270.553 44.3613L270.286 44.5956C270.24 44.6425 270.176 44.6574 270.129 44.6574H270.035C269.988 44.6574 269.927 44.6425 269.878 44.6105L269.705 44.4998L269.36 44.6105C269.298 44.6425 269.249 44.6425 269.187 44.6105L269.03 44.5637L268.857 44.6105C268.842 44.6254 268.81 44.6425 268.779 44.6425H268.48C268.448 44.6425 268.419 44.6276 268.402 44.6105L268.182 44.5317L267.869 44.6254C267.79 44.6574 267.665 44.6574 267.603 44.5935L267.492 44.4998L267.352 44.5466C267.273 44.5786 267.164 44.5615 267.085 44.5147L266.898 44.3741C266.836 44.3273 266.789 44.2485 266.789 44.1697V44.0291L266.868 43.716L266.774 43.2453V43.1516L266.806 43.0579L266.838 42.5723L266.791 42.4786C266.777 42.4317 266.777 42.4168 266.777 42.3678V42.0377C266.777 42.0228 266.791 42.0058 266.791 41.9909L266.885 41.6139L266.853 41.5819C266.791 41.4882 266.791 41.3945 266.821 41.2987L266.947 41.0005V40.8748H266.821C266.789 40.8748 266.742 40.8599 266.711 40.8429L266.523 40.7172L266.257 40.828C266.195 40.8599 266.116 40.8599 266.052 40.828L265.927 40.7662L265.582 40.7811L265.111 40.8131L264.766 40.845H264.579L264.265 40.7662L263.906 40.7513L263.733 40.7833L263.388 40.894C263.356 40.9089 263.326 40.894 263.309 40.894L263.011 40.8791L262.634 40.8173L262.351 40.8791C262.289 40.894 262.225 40.894 262.178 40.8642L262.038 40.7705L261.803 40.7087C261.789 40.7087 261.771 40.6938 261.757 40.6938L261.505 40.5532C261.412 40.4915 261.365 40.4127 261.38 40.319V40.2572C261.38 40.1954 261.395 40.1635 261.426 40.1315L261.52 40.0059L261.409 39.614L261.348 39.269V39.1902L261.38 39.0496V38.8771C261.38 38.8622 261.365 38.8153 261.38 38.7983L261.49 38.5321L261.505 38.187C261.505 38.0933 261.552 38.0465 261.616 37.9996L261.742 37.9059L261.789 37.8739L261.946 37.8122C262.008 37.7802 262.072 37.7802 262.119 37.7973L262.464 37.8761L262.525 37.8143C262.572 37.7675 262.636 37.7355 262.698 37.7355H262.981C263.013 37.7355 263.06 37.7504 263.107 37.7824L263.343 37.908L263.578 37.8612H264.031L264.268 37.8143C264.3 37.7994 264.314 37.8143 264.346 37.8143L264.519 37.8292L264.943 37.7973L264.975 37.7824C265.054 37.7504 265.132 37.7675 265.209 37.7973L265.492 37.9229L265.665 37.8292C265.744 37.7824 265.822 37.7973 265.884 37.8143L266.057 37.8612L266.355 37.7675C266.402 37.7525 266.449 37.7525 266.495 37.7675L266.855 37.8612L267.122 37.8292H267.262C267.277 37.8292 267.309 37.8292 267.341 37.8441L267.654 37.9378L267.888 37.7802C267.935 37.7483 267.999 37.7483 268.046 37.7483L268.674 37.7632L268.894 37.7483H268.94L269.271 37.7802C269.302 37.7802 269.332 37.7951 269.364 37.8122L269.473 37.859L269.786 37.891L270.052 37.7802C270.114 37.7483 270.193 37.7483 270.272 37.7951L270.538 37.9208L270.772 37.859C270.804 37.8441 270.834 37.859 270.851 37.859H271.258L271.398 37.7802C271.477 37.7334 271.556 37.7483 271.618 37.7653L271.869 37.8441L272.152 37.891L272.34 37.8122C272.401 37.7802 272.48 37.7653 272.544 37.7973L272.67 37.8441L272.921 37.8292H273L273.33 37.891L273.549 37.8441C273.564 37.8441 273.581 37.8292 273.596 37.8292L273.894 37.8143H274.193L274.254 37.8292L274.584 37.908L275.008 37.8292L275.04 37.8143C275.102 37.7675 275.213 37.7675 275.292 37.7994L275.543 37.8931L275.637 37.8782C275.73 37.8463 275.841 37.8931 275.903 37.957L276.107 38.1615C276.154 38.2083 276.186 38.2701 276.186 38.334V38.4596L276.171 38.8196V39.0539L276.218 39.384L276.224 39.3669ZM262.223 32.3727C262.208 32.3577 262.223 32.2939 262.223 32.2789V31.7933C262.223 31.7784 262.238 31.7614 262.238 31.7465L262.332 31.3866L262.3 31.1821C262.285 31.1203 262.315 31.0245 262.347 30.9776L262.408 30.8988L262.347 30.5687C262.347 30.5219 262.361 30.475 262.378 30.4281L262.472 30.2407C262.519 30.13 262.63 30.0533 262.738 30.0682L262.864 30.0831C262.896 30.0831 262.943 30.098 262.975 30.13L263.179 30.2556L263.571 30.147C263.603 30.1321 263.633 30.1321 263.65 30.1321H263.884L264.229 30.164L264.449 30.1172C264.481 30.1023 264.527 30.1023 264.559 30.1172L264.764 30.164L265.156 30.1023H265.235L265.375 30.1172L265.752 30.179L266.176 30.2578L266.348 30.2428L266.662 30.2578H267.039L267.211 30.1172C267.258 30.0703 267.352 30.0384 267.415 30.0554L267.541 30.0703L267.807 30.0554C267.854 30.0554 267.901 30.0554 267.933 30.0703L268.278 30.2279L268.561 30.1023C268.623 30.0703 268.702 30.0703 268.766 30.1023L268.97 30.1811L269.128 30.1023C269.16 30.0874 269.207 30.0703 269.239 30.0703H269.552L269.739 30.1023L270.178 30.1491L270.491 30.1023C270.523 30.1023 270.57 30.1023 270.602 30.1172L270.821 30.164L270.915 30.1172C270.977 30.0703 271.055 30.0554 271.134 30.0852L271.494 30.196L271.605 30.1811H271.997L272.374 30.1491H272.766L272.827 30.1172C272.874 30.0852 272.953 30.0703 273.015 30.0852L273.187 30.1001L273.515 30.1151C273.562 30.1151 273.609 30.13 273.656 30.1619L273.75 30.1001C273.796 30.0682 273.858 30.0533 273.907 30.0533L274.188 30.0682C274.22 30.0682 274.25 30.0831 274.282 30.1001L274.565 30.2407L274.77 30.13C274.802 30.1151 274.849 30.0831 274.895 30.0831H274.974C275.068 30.0831 275.179 30.1449 275.225 30.2407L275.383 30.5538L275.477 30.8669L275.524 30.9606C275.556 31.0224 275.585 31.0863 275.571 31.1331L275.539 31.3525L275.46 31.6826L275.366 32.0425L275.507 32.3727C275.522 32.4195 275.539 32.4834 275.522 32.5303L275.428 32.969L275.396 33.314L275.458 33.5653C275.458 33.5973 275.473 33.6271 275.473 33.6591L275.426 34.0041C275.426 34.0509 275.411 34.0659 275.394 34.0978L275.347 34.1915L275.332 34.6771L275.347 34.7091C275.394 34.7879 275.394 34.8965 275.347 34.9923L275.238 35.1797L275.3 35.5248C275.3 35.5716 275.285 35.6355 275.268 35.6824L275.157 35.9017L275.172 36.2319L275.187 36.3575C275.187 36.4044 275.172 36.4683 275.14 36.5151L275 36.7345V36.9539C275 37.0646 274.953 37.1881 274.842 37.2371L274.608 37.3479C274.546 37.3798 274.497 37.3798 274.45 37.3628L274.293 37.3308C274.278 37.3308 274.246 37.3159 274.231 37.2989L273.965 37.1583L273.854 37.1903C273.775 37.2222 273.666 37.2052 273.603 37.1434L273.445 37.0327L273.021 36.9539C272.989 36.9539 272.959 36.939 272.942 36.9219L272.832 36.8602L272.504 36.8921H272.442L272.035 36.8133L272.003 36.7984C271.956 36.7984 271.909 36.7984 271.877 36.7664L271.784 36.6876C271.658 36.5939 271.611 36.4534 271.658 36.3575L271.769 36.185L271.831 35.9337L271.909 35.4311L271.863 35.3203C271.848 35.2884 271.831 35.2266 271.831 35.1797L271.863 34.8347L271.894 34.5365C271.894 34.5046 271.894 34.4577 271.909 34.4428L272.003 34.2554L271.971 33.8486V33.6612L271.986 33.5824L272.144 33.1117L272.129 33.1266C272.082 33.1586 272.003 33.1735 271.941 33.1586L271.754 33.1117L271.362 33.1436C271.315 33.1436 271.268 33.1436 271.236 33.1287L271.079 33.035L270.827 33.1287C270.781 33.1436 270.702 33.1436 270.655 33.1287L270.45 33.035L270.152 33.0499L269.995 33.1436C269.963 33.1586 269.901 33.1756 269.854 33.1756L269.149 33.1436C269.134 33.1436 269.117 33.1287 269.102 33.1287L268.962 33.0819L268.664 33.1607C268.632 33.1756 268.585 33.1756 268.553 33.1607L268.146 33.0499L268.084 33.0819C268.005 33.1138 267.912 33.1138 267.848 33.0819L267.675 32.9711L267.55 33.0648C267.456 33.1266 267.345 33.1436 267.251 33.0798L267.079 32.969L266.828 33.0947C266.717 33.1564 266.593 33.1564 266.544 33.0947L266.451 32.9839L266.059 33.0947C266.012 33.1096 265.965 33.1096 265.918 33.0947L265.652 33.0009L265.401 33.0947C265.369 33.1096 265.339 33.1096 265.322 33.1096H265.103C265.041 33.1096 264.994 33.0947 264.962 33.0776L264.915 33.0308L264.664 33.1415C264.617 33.1564 264.57 33.1564 264.523 33.1415L264.146 33.0478L263.833 33.1415H263.725L263.567 33.1096L263.158 33.0478L262.954 33.0798L262.845 33.1117C262.734 33.1266 262.64 33.0798 262.579 33.0031L262.359 32.69C262.344 32.6751 262.327 32.658 262.327 32.6431L262.217 32.3769L262.223 32.3727Z" fill="#040000"/>
<path d="M260.238 187.036C260.637 187.494 261.348 187.494 261.746 187.036L267.549 180.373C268.113 179.726 267.653 178.716 266.795 178.716L260.992 178.716L255.189 178.716C254.331 178.716 253.871 179.726 254.435 180.373L260.238 187.036Z" fill="black"/>
</svg>
