<svg viewBox="0 0 118 143" fill="none" xmlns="http://www.w3.org/2000/svg">
<path d="M42.314 74.733C42.314 73.927 42.951 73.498 43.913 73.498C44.862 73.498 45.512 73.966 45.512 74.772V75.097C45.512 75.539 45.837 75.838 46.396 75.838C46.929 75.838 47.267 75.539 47.267 75.006V74.616C47.267 72.796 45.824 72.016 43.913 72.016C41.989 72.016 40.559 72.796 40.559 74.616V75.591C40.559 76.878 40.923 77.528 43.445 78.529C45.317 79.257 45.564 79.465 45.564 80.752V81.454C45.564 82.26 44.888 82.741 43.913 82.741C42.964 82.741 42.262 82.26 42.262 81.454V80.986C42.262 80.479 41.95 80.154 41.391 80.154C40.819 80.154 40.507 80.479 40.507 80.986V81.623C40.507 83.443 41.95 84.223 43.887 84.223C45.811 84.223 47.319 83.443 47.319 81.623V80.414C47.319 78.672 47.072 78.139 44.329 77.047C42.821 76.449 42.314 76.176 42.314 75.513V74.733ZM47.95 73.03C47.95 73.524 48.275 73.784 48.886 73.784H50.576V83.092C50.576 83.716 50.901 84.054 51.473 84.054C52.058 84.054 52.383 83.716 52.383 83.092V73.784H54.151C54.71 73.784 55.022 73.524 55.022 73.03C55.022 72.536 54.684 72.276 54.086 72.276H48.886C48.275 72.276 47.95 72.536 47.95 73.03ZM61.2171 83.963C61.7761 83.963 62.1141 83.69 62.1141 83.209C62.1141 82.715 61.7761 82.455 61.2171 82.455H57.7201V78.711H60.9961C61.5551 78.711 61.8541 78.438 61.8541 77.983C61.8541 77.528 61.5551 77.242 60.9961 77.242H57.7201V73.784H61.0871C61.6461 73.784 61.9841 73.524 61.9841 73.03C61.9841 72.536 61.6461 72.276 61.0871 72.276H56.9141C56.3031 72.276 55.9521 72.614 55.9521 73.238V83.001C55.9521 83.625 56.3031 83.963 56.9141 83.963H61.2171ZM69.8324 74.707C69.8324 73.056 68.9874 72.276 67.3884 72.276H64.1384C63.5144 72.276 63.1504 72.627 63.1504 73.251V83.131C63.1504 83.729 63.4754 84.054 64.0344 84.054C64.6064 84.054 64.9184 83.729 64.9184 83.131V79.881H67.3884C68.9874 79.881 69.8324 79.075 69.8324 77.424V74.707ZM64.9184 73.745H66.7774C67.7134 73.745 68.1034 74.148 68.1034 75.032V77.125C68.1034 78.009 67.7134 78.412 66.7774 78.412H64.9184V73.745ZM77.7136 72.991C77.7136 72.471 77.4146 72.146 76.8686 72.146C76.4136 72.146 76.1796 72.315 75.9196 72.705C75.7506 72.952 75.4386 73.212 74.9706 73.29C74.7106 73.342 74.4116 73.537 74.4116 73.979C74.4116 74.369 74.6846 74.655 75.0486 74.655H75.9456V83.17C75.9456 83.69 76.2966 84.093 76.8296 84.093C77.3626 84.093 77.7136 83.69 77.7136 83.17V72.991Z" fill="#7C492C"/>
<path d="M10.0829 100.41C10.0829 99.79 10.5729 99.46 11.3129 99.46C12.0429 99.46 12.5429 99.82 12.5429 100.44V100.69C12.5429 101.03 12.7929 101.26 13.2229 101.26C13.6329 101.26 13.8929 101.03 13.8929 100.62V100.32C13.8929 98.92 12.7829 98.32 11.3129 98.32C9.83293 98.32 8.73293 98.92 8.73293 100.32V101.07C8.73293 102.06 9.01293 102.56 10.9529 103.33C12.3929 103.89 12.5829 104.05 12.5829 105.04V105.58C12.5829 106.2 12.0629 106.57 11.3129 106.57C10.5829 106.57 10.0429 106.2 10.0429 105.58V105.22C10.0429 104.83 9.80293 104.58 9.37293 104.58C8.93293 104.58 8.69293 104.83 8.69293 105.22V105.71C8.69293 107.11 9.80293 107.71 11.2929 107.71C12.7729 107.71 13.9329 107.11 13.9329 105.71V104.78C13.9329 103.44 13.7429 103.03 11.6329 102.19C10.4729 101.73 10.0829 101.52 10.0829 101.01V100.41ZM14.7683 106.87C14.7683 107.33 15.0183 107.58 15.4483 107.58C15.8883 107.58 16.1283 107.33 16.1283 106.87V103.15L18.4083 107.16C18.6083 107.54 18.9483 107.66 19.3083 107.52C19.7183 107.38 19.8383 107.01 19.6183 106.6L17.4483 102.85L19.5583 99.4C19.7983 98.98 19.6983 98.63 19.2983 98.49C18.9483 98.37 18.6283 98.45 18.4183 98.83L16.1283 102.62V99.16C16.1283 98.7 15.8883 98.45 15.4483 98.45C15.0183 98.45 14.7683 98.7 14.7683 99.16V106.87ZM21.2049 102.05C23.0649 101.94 24.3949 101.41 24.9049 100.62C25.4149 101.41 26.7449 101.94 28.6049 102.05C28.9049 102.07 29.1549 101.83 29.1549 101.53C29.1549 101.25 28.9249 101.02 28.6549 101.01C26.8949 100.92 25.6849 100.31 25.6349 99.61H28.4849C28.7749 99.61 29.0049 99.37 29.0049 99.08C29.0049 98.8 28.7749 98.56 28.4849 98.56H21.3249C21.0449 98.56 20.8049 98.8 20.8049 99.08C20.8049 99.37 21.0449 99.61 21.3249 99.61H24.1749C24.1149 100.31 22.9249 100.92 21.1549 101.01C20.8849 101.02 20.6649 101.25 20.6649 101.53C20.6649 101.83 20.9149 102.07 21.2049 102.05ZM28.9949 103.76C29.2949 103.76 29.5349 103.51 29.5349 103.22C29.5349 102.92 29.2949 102.67 28.9949 102.67H20.8249C20.5249 102.67 20.2749 102.92 20.2749 103.22C20.2749 103.51 20.5249 103.76 20.8249 103.76H28.9949ZM20.7249 106.01C20.7249 106.9 21.3849 107.65 22.3749 107.65H27.4349C28.4249 107.65 29.0849 106.9 29.0849 106.01C29.0849 105.14 28.4249 104.38 27.4349 104.38H22.3749C21.3849 104.38 20.7249 105.14 20.7249 106.01ZM22.6849 106.6C22.3249 106.6 22.0649 106.34 22.0649 105.99C22.0649 105.66 22.3249 105.41 22.6849 105.41H27.0949C27.4649 105.41 27.7349 105.66 27.7349 105.99C27.7349 106.34 27.4649 106.6 27.0949 106.6H22.6849ZM35.3649 103.45C35.0849 103.45 34.8449 103.69 34.8449 103.98C34.8449 104.26 35.0849 104.49 35.3649 104.49H37.5949V105.17C37.5949 105.55 37.9049 105.8 38.2949 105.8C38.6849 105.8 38.9949 105.55 38.9949 105.17V98.99C38.9949 98.62 38.6849 98.36 38.2949 98.36C37.9049 98.36 37.5949 98.62 37.5949 98.99V103.45H35.3649ZM32.5849 104.47C32.4749 104.89 32.8549 105.16 33.2549 105.16C33.5949 105.16 33.8349 104.93 33.9149 104.61C34.0749 103.98 34.1849 103.35 34.2449 102.72H36.6849C36.9749 102.72 37.2249 102.48 37.2249 102.19C37.2249 101.89 36.9749 101.65 36.6849 101.65H35.7749C36.0449 100.87 36.1649 100.08 36.2549 99.3C36.3149 98.87 36.0849 98.61 35.6449 98.61H31.1949C30.9049 98.61 30.6649 98.85 30.6649 99.14C30.6649 99.43 30.9049 99.66 31.1949 99.66H34.8849C34.8049 100.32 34.7049 100.99 34.4549 101.65H30.5749C30.2849 101.65 30.0349 101.89 30.0349 102.19C30.0349 102.48 30.2849 102.72 30.5749 102.72H32.9049C32.8549 103.3 32.7349 103.88 32.5849 104.47ZM32.3249 106.55V105.27C32.3249 104.91 32.0249 104.7 31.6449 104.7C31.2649 104.7 30.9649 104.91 30.9649 105.27V106.96C30.9649 107.38 31.1949 107.61 31.6149 107.61H38.6849C38.9849 107.61 39.2249 107.37 39.2249 107.08C39.2249 106.78 38.9849 106.55 38.6849 106.55H32.3249ZM48.9929 98.36C48.6429 98.36 48.3629 98.58 48.3629 98.92V100.78H46.9729C46.9929 100.43 47.0029 100.06 47.0029 99.68V99.48C47.0029 99.05 46.7629 98.81 46.3329 98.81H43.4629C43.1429 98.81 42.8829 99.08 42.8829 99.39C42.8829 99.72 43.1429 99.97 43.4629 99.97H45.6929C45.7029 102.81 45.1429 105.11 43.1729 105.99C42.9729 106.08 42.8229 106.29 42.8229 106.52C42.8229 106.85 43.0929 107.11 43.4229 107.11C43.4929 107.11 43.5829 107.09 43.6529 107.06C45.3129 106.35 46.4829 104.81 46.8729 101.92H48.3629V103.97H47.1229C46.8129 103.97 46.5729 104.22 46.5729 104.52C46.5729 104.83 46.8129 105.08 47.1229 105.08H48.3629V107.13C48.3629 107.47 48.6429 107.69 48.9929 107.69C49.3429 107.69 49.6129 107.47 49.6129 107.13V98.92C49.6129 98.58 49.3429 98.36 48.9929 98.36ZM51.0729 98.36C50.7229 98.36 50.4429 98.59 50.4429 98.93V107.12C50.4429 107.46 50.7229 107.69 51.0729 107.69C51.4229 107.69 51.7029 107.46 51.7029 107.12V98.93C51.7029 98.59 51.4229 98.36 51.0729 98.36ZM61.0229 102.05V98.99C61.0229 98.62 60.7129 98.36 60.3229 98.36C59.9429 98.36 59.6229 98.62 59.6229 98.99V107.05C59.6229 107.43 59.9429 107.69 60.3229 107.69C60.7129 107.69 61.0229 107.43 61.0229 107.05V103.25H61.7429C62.0629 103.25 62.3129 102.98 62.3129 102.65C62.3129 102.32 62.0629 102.05 61.7429 102.05H61.0229ZM53.2629 102.63C53.0029 102.7 52.8029 102.92 52.8029 103.2C52.8029 103.58 53.1529 103.88 53.5329 103.78C54.5829 103.52 55.4329 102.91 55.8229 102.02C56.2029 102.91 57.0529 103.53 58.1029 103.78C58.4729 103.87 58.8329 103.58 58.8329 103.2C58.8329 102.92 58.6429 102.7 58.3929 102.62C57.3129 102.31 56.5029 101.54 56.5029 100.23V99.81H58.2129C58.5129 99.81 58.7729 99.56 58.7729 99.25C58.7729 98.94 58.5129 98.69 58.2129 98.69H53.4329C53.1229 98.69 52.8729 98.94 52.8729 99.25C52.8729 99.56 53.1229 99.81 53.4329 99.81H55.1429V100.23C55.1429 101.53 54.3229 102.32 53.2629 102.63ZM58.6129 105.78C57.9129 105.9 57.2129 105.99 56.5129 106.06V104.44C56.5129 104.06 56.2129 103.81 55.8229 103.81C55.4329 103.81 55.1229 104.06 55.1229 104.44V106.17C54.4329 106.22 53.7429 106.25 53.0529 106.27C52.7629 106.27 52.5129 106.54 52.5129 106.84C52.5129 107.18 52.8029 107.43 53.1329 107.42C54.9929 107.36 56.8329 107.24 58.6929 106.93C59.0229 106.88 59.2329 106.65 59.2329 106.35C59.2329 106.01 58.9829 105.72 58.6129 105.78ZM71.101 107.69C71.451 107.69 71.731 107.47 71.731 107.13V103.28H72.841V107.12C72.841 107.46 73.121 107.69 73.471 107.69C73.821 107.69 74.101 107.46 74.101 107.12V98.93C74.101 98.59 73.821 98.36 73.471 98.36C73.121 98.36 72.841 98.59 72.841 98.93V102.11H71.731V98.92C71.731 98.58 71.451 98.36 71.101 98.36C70.761 98.36 70.481 98.58 70.481 98.92V107.13C70.481 107.47 70.761 107.69 71.101 107.69ZM65.841 107.12C65.921 107.12 66.001 107.11 66.061 107.08C68.231 106.21 69.601 104.07 69.601 99.68V99.48C69.601 99.05 69.371 98.81 68.931 98.81H65.881C65.571 98.81 65.301 99.08 65.301 99.39C65.301 99.72 65.571 99.97 65.881 99.97H68.301C68.301 102.79 67.701 105.1 65.611 105.98C65.411 106.07 65.251 106.29 65.251 106.53C65.251 106.86 65.521 107.12 65.841 107.12ZM83.061 103.25C83.451 103.25 83.761 103.03 83.761 102.65V98.96C83.761 98.58 83.451 98.36 83.061 98.36C82.671 98.36 82.361 98.58 82.361 98.96V99.75H80.641C80.341 99.75 80.101 99.99 80.101 100.29C80.101 100.59 80.341 100.83 80.641 100.83H82.361V102.65C82.361 103.03 82.671 103.25 83.061 103.25ZM75.581 102.98C75.651 102.98 75.701 102.97 75.751 102.95C76.781 102.6 77.601 101.97 77.961 101.21C78.321 101.98 79.121 102.6 80.161 102.95C80.211 102.97 80.271 102.98 80.341 102.98C80.651 102.98 80.901 102.72 80.901 102.41C80.901 102.16 80.741 101.96 80.521 101.88C79.391 101.47 78.651 100.7 78.651 99.6V99.05C78.651 98.67 78.341 98.45 77.961 98.45C77.581 98.45 77.271 98.67 77.271 99.05V99.58C77.271 100.68 76.531 101.47 75.381 101.88C75.161 101.96 75.011 102.16 75.011 102.41C75.011 102.72 75.271 102.98 75.581 102.98ZM83.561 107.61C83.821 107.61 84.051 107.4 84.051 107.13C84.051 106.87 83.821 106.65 83.561 106.65H77.121V105.98H83.251C83.601 105.98 83.801 105.78 83.801 105.43V104.09C83.801 103.73 83.601 103.53 83.251 103.53H76.141C75.881 103.53 75.671 103.75 75.671 104C75.671 104.27 75.881 104.48 76.141 104.48H82.401V105.1H76.271C75.921 105.1 75.721 105.3 75.721 105.66V107.06C75.721 107.42 75.921 107.61 76.271 107.61H83.561ZM88.589 103.57C89.539 103.56 90.479 103.46 91.429 103.27C91.759 103.21 91.949 102.99 91.949 102.68C91.949 102.36 91.709 102.09 91.349 102.17C90.669 102.33 89.989 102.43 89.309 102.45V99.86H91.289C91.619 99.86 91.859 99.61 91.859 99.3C91.859 98.99 91.619 98.73 91.289 98.73H88.579C88.179 98.73 87.959 98.96 87.959 99.36V102.97C87.959 103.39 88.189 103.57 88.589 103.57ZM95.799 103.51C96.129 103.51 96.359 103.26 96.359 102.95C96.359 102.64 96.129 102.39 95.799 102.39H93.539V99.86H95.749C96.079 99.86 96.309 99.61 96.309 99.3C96.309 98.99 96.079 98.73 95.749 98.73H92.809C92.409 98.73 92.189 98.96 92.189 99.36V102.89C92.189 103.29 92.409 103.51 92.809 103.51H95.799ZM96.149 107.38C96.469 107.38 96.729 107.13 96.729 106.8C96.729 106.48 96.469 106.22 96.149 106.22H92.809V104.51C92.809 104.12 92.499 103.9 92.099 103.9C91.709 103.9 91.389 104.12 91.389 104.51V106.22H88.049C87.739 106.22 87.469 106.48 87.469 106.8C87.469 107.13 87.739 107.38 88.049 107.38H96.149ZM105.519 101.76C105.809 101.76 106.049 101.52 106.049 101.23C106.049 100.94 105.809 100.7 105.519 100.7H99.259V98.95C99.259 98.58 98.949 98.36 98.559 98.36C98.179 98.36 97.869 98.58 97.869 98.95V101.11C97.869 101.53 98.099 101.76 98.519 101.76H105.519ZM105.979 103.87C106.279 103.87 106.529 103.62 106.529 103.31C106.529 103.01 106.279 102.76 105.979 102.76H97.819C97.519 102.76 97.269 103.01 97.269 103.31C97.269 103.62 97.519 103.87 97.819 103.87H105.979ZM105.609 107.61C105.909 107.61 106.149 107.37 106.149 107.07C106.149 106.77 105.909 106.52 105.609 106.52H99.269V105.07C99.269 104.69 98.959 104.47 98.569 104.47C98.179 104.47 97.869 104.69 97.869 105.07V106.96C97.869 107.38 98.099 107.61 98.519 107.61H105.609ZM25.112 119.88C26.072 119.88 26.922 119.54 27.372 118.87H29.702V120.56C29.702 120.94 30.012 121.16 30.402 121.16C30.792 121.16 31.102 120.94 31.102 120.56V114.96C31.102 114.58 30.792 114.36 30.402 114.36C30.012 114.36 29.702 114.58 29.702 114.96V115.54H27.432C27.002 114.81 26.122 114.43 25.112 114.43C23.692 114.43 22.522 115.18 22.522 116.62V117.7C22.522 119.14 23.692 119.88 25.112 119.88ZM23.862 116.63C23.862 115.9 24.402 115.5 25.122 115.5C25.832 115.5 26.382 115.9 26.382 116.63V117.69C26.382 118.42 25.832 118.8 25.122 118.8C24.402 118.8 23.862 118.42 23.862 117.69V116.63ZM29.702 117.83H27.702V117.7V116.62V116.58H29.702V117.83ZM24.432 122.51V121.02C24.432 120.63 24.122 120.41 23.732 120.41C23.342 120.41 23.022 120.63 23.022 121.02V122.96C23.022 123.38 23.252 123.61 23.672 123.61H30.792C31.092 123.61 31.352 123.36 31.352 123.06C31.352 122.76 31.092 122.51 30.792 122.51H24.432ZM37.282 118.66V117.69H40.242C40.522 117.69 40.752 117.46 40.752 117.18C40.752 116.89 40.522 116.66 40.242 116.66H33.982V115.54H40.192C40.472 115.54 40.702 115.31 40.702 115.03C40.702 114.75 40.472 114.52 40.192 114.52H33.192C32.792 114.52 32.572 114.74 32.572 115.14V117.07C32.572 117.47 32.792 117.69 33.192 117.69H35.912V118.66H32.502C32.212 118.66 31.972 118.9 31.972 119.19C31.972 119.48 32.212 119.72 32.502 119.72H40.702C41.002 119.72 41.232 119.48 41.232 119.19C41.232 118.9 41.002 118.66 40.702 118.66H37.282ZM34.072 120.39C33.082 120.39 32.422 121.15 32.422 122.02C32.422 122.9 33.082 123.65 34.072 123.65H39.132C40.122 123.65 40.782 122.9 40.782 122.02C40.782 121.15 40.122 120.39 39.132 120.39H34.072ZM34.382 122.61C34.022 122.61 33.762 122.34 33.762 122C33.762 121.67 34.022 121.42 34.382 121.42H38.792C39.162 121.42 39.432 121.67 39.432 122C39.432 122.34 39.162 122.61 38.792 122.61H34.382ZM53.05 116.14C53.33 116.14 53.56 115.91 53.56 115.63C53.56 115.35 53.33 115.12 53.05 115.12H49.92V114.65C49.92 114.31 49.6 114.12 49.2 114.12C48.8 114.12 48.48 114.31 48.48 114.65V115.12H45.35C45.07 115.12 44.84 115.35 44.84 115.63C44.84 115.91 45.07 116.14 45.35 116.14H53.05ZM51.63 119.75C52.61 119.75 53.28 119.07 53.28 118.19C53.28 117.31 52.61 116.63 51.63 116.63H46.79C45.81 116.63 45.12 117.31 45.12 118.19C45.12 119.07 45.81 119.75 46.79 119.75H51.63ZM47.1 118.74C46.72 118.74 46.45 118.51 46.45 118.2C46.45 117.88 46.72 117.65 47.1 117.65H51.32C51.7 117.65 51.97 117.88 51.97 118.2C51.97 118.51 51.7 118.74 51.32 118.74H47.1ZM49.2 123.79C49.6 123.79 49.91 123.53 49.91 123.14V121.43H53.29C53.59 121.43 53.83 121.19 53.83 120.89C53.83 120.6 53.59 120.36 53.29 120.36H45.11C44.81 120.36 44.57 120.6 44.57 120.89C44.57 121.19 44.81 121.43 45.11 121.43H48.49V123.14C48.49 123.53 48.81 123.79 49.2 123.79ZM65.378 123.69C65.778 123.69 66.088 123.43 66.088 123.04V115.01C66.088 114.62 65.778 114.36 65.378 114.36C64.988 114.36 64.668 114.62 64.668 115.01V123.04C64.668 123.43 64.988 123.69 65.378 123.69ZM60.228 123.38C61.758 123.38 62.938 122.42 62.938 120.99V116.94C62.938 115.51 61.758 114.55 60.228 114.55C58.698 114.55 57.518 115.51 57.518 116.94V120.99C57.518 122.42 58.698 123.38 60.228 123.38ZM60.238 122.26C59.448 122.26 58.898 121.77 58.898 121.06V116.87C58.898 116.18 59.448 115.67 60.238 115.67C61.028 115.67 61.578 116.18 61.578 116.87V121.06C61.578 121.77 61.028 122.26 60.238 122.26ZM70.858 119.84C71.258 119.84 71.478 119.62 71.478 119.22V117.81H72.718V120.76C72.718 121.11 72.998 121.29 73.338 121.29C73.688 121.29 73.968 121.11 73.968 120.76V114.89C73.968 114.55 73.688 114.36 73.338 114.36C72.998 114.36 72.718 114.55 72.718 114.89V116.69H71.478V115.02C71.478 114.68 71.208 114.5 70.868 114.5C70.528 114.5 70.258 114.68 70.258 115.02V116.04H68.568V115.03C68.568 114.68 68.288 114.5 67.938 114.5C67.598 114.5 67.318 114.68 67.318 115.03V119.22C67.318 119.62 67.538 119.84 67.938 119.84H70.858ZM75.368 121.29C75.718 121.29 75.998 121.1 75.998 120.76V114.9C75.998 114.55 75.718 114.36 75.368 114.36C75.018 114.36 74.738 114.55 74.738 114.9V120.76C74.738 121.1 75.018 121.29 75.368 121.29ZM70.258 117.14V118.73H68.568V117.14H70.258ZM69.188 122.51V121.11C69.188 120.72 68.878 120.5 68.488 120.5C68.088 120.5 67.778 120.72 67.778 121.11V122.96C67.778 123.38 68.008 123.61 68.428 123.61H75.668C75.968 123.61 76.218 123.36 76.218 123.06C76.218 122.76 75.968 122.51 75.668 122.51H69.188ZM84.948 115.75C85.258 115.75 85.498 115.5 85.498 115.2C85.498 114.89 85.258 114.65 84.948 114.65H77.848C77.548 114.65 77.298 114.89 77.298 115.2C77.298 115.5 77.548 115.75 77.848 115.75H84.948ZM85.048 120.22C85.348 120.22 85.598 119.97 85.598 119.66C85.598 119.36 85.348 119.11 85.048 119.11H78.778V117.75H84.918C85.218 117.75 85.458 117.51 85.458 117.21C85.458 116.91 85.218 116.67 84.918 116.67H77.988C77.588 116.67 77.368 116.89 77.368 117.29V119.6C77.368 120 77.588 120.22 77.988 120.22H85.048ZM85.458 123.38C85.768 123.38 86.028 123.13 86.028 122.81C86.028 122.49 85.768 122.24 85.458 122.24H77.348C77.028 122.24 76.768 122.49 76.768 122.81C76.768 123.13 77.028 123.38 77.348 123.38H85.458ZM94.908 117.98C95.148 117.98 95.348 117.78 95.348 117.53C95.348 117.29 95.148 117.09 94.908 117.09H88.558V116.65H94.678C95.028 116.65 95.228 116.45 95.228 116.09V115.08C95.228 114.72 95.028 114.52 94.678 114.52H87.578C87.338 114.52 87.128 114.72 87.128 114.97C87.128 115.21 87.338 115.42 87.578 115.42H93.838V115.82H87.728C87.368 115.82 87.168 116.02 87.168 116.38V117.43C87.168 117.79 87.368 117.98 87.728 117.98H94.908ZM95.328 119.5C95.598 119.5 95.828 119.28 95.828 118.99C95.828 118.72 95.598 118.49 95.328 118.49H87.068C86.798 118.49 86.568 118.72 86.568 118.99C86.568 119.28 86.798 119.5 87.068 119.5H95.328ZM94.998 123.61C95.248 123.61 95.448 123.41 95.448 123.16C95.448 122.91 95.248 122.71 94.998 122.71H88.558V122.22H94.678C95.028 122.22 95.228 122.02 95.228 121.66V120.58C95.228 120.22 95.028 120.02 94.678 120.02H87.578C87.338 120.02 87.128 120.22 87.128 120.47C87.128 120.72 87.338 120.91 87.578 120.91H93.838V121.37H87.728C87.368 121.37 87.168 121.57 87.168 121.92V123.06C87.168 123.42 87.368 123.61 87.728 123.61H94.998ZM38.05 137.23C38.44 137.23 38.76 137.01 38.76 136.62V130.97C38.76 130.59 38.44 130.36 38.05 130.36C37.66 130.36 37.34 130.59 37.34 130.97V136.62C37.34 137.01 37.66 137.23 38.05 137.23ZM30.6 135.8C30.68 135.8 30.76 135.78 30.83 135.75C31.83 135.33 32.7 134.63 33.05 133.79C33.41 134.64 34.27 135.34 35.28 135.76C35.35 135.78 35.43 135.8 35.51 135.8C35.83 135.8 36.1 135.53 36.1 135.21C36.1 134.96 35.96 134.75 35.74 134.66C34.6 134.18 33.76 133.28 33.76 132.11V131.06C33.76 130.67 33.45 130.45 33.06 130.45C32.66 130.45 32.35 130.67 32.35 131.06V132.11C32.35 133.28 31.51 134.18 30.37 134.66C30.15 134.75 30.01 134.96 30.01 135.21C30.01 135.53 30.28 135.8 30.6 135.8ZM38.45 139.61C38.75 139.61 39 139.36 39 139.06C39 138.76 38.75 138.51 38.45 138.51H32.19V137.02C32.19 136.63 31.87 136.41 31.47 136.41C31.08 136.41 30.76 136.63 30.76 137.02V138.96C30.76 139.38 30.99 139.61 31.41 139.61H38.45ZM40.47 135.6C41.56 135.36 42.46 134.84 42.82 133.97C43.18 134.81 44.08 135.31 45.18 135.54C45.51 135.61 45.83 135.34 45.83 134.99C45.83 134.72 45.65 134.5 45.39 134.45C44.34 134.22 43.51 133.57 43.51 132.38V132.1H45.21C45.49 132.1 45.73 131.86 45.73 131.57C45.73 131.28 45.49 131.04 45.21 131.04H43.52V130.66C43.52 130.32 43.21 130.1 42.82 130.1C42.44 130.1 42.13 130.32 42.13 130.66V131.04H40.43C40.15 131.04 39.91 131.28 39.91 131.57C39.91 131.86 40.15 132.1 40.43 132.1H42.14V132.38C42.14 133.61 41.3 134.27 40.25 134.51C40 134.57 39.81 134.79 39.81 135.05C39.81 135.4 40.13 135.67 40.47 135.6ZM47.16 133.73V135.3C47.16 135.68 47.47 135.9 47.86 135.9C48.25 135.9 48.56 135.68 48.56 135.3V130.96C48.56 130.58 48.25 130.36 47.86 130.36C47.47 130.36 47.16 130.58 47.16 130.96V132.65H45.76C45.46 132.65 45.22 132.89 45.22 133.19C45.22 133.49 45.46 133.73 45.76 133.73H47.16ZM40.43 137.89C40.43 138.92 41.29 139.66 42.37 139.66H46.74C47.84 139.66 48.7 138.92 48.7 137.89C48.7 136.86 47.84 136.13 46.74 136.13H42.37C41.29 136.13 40.43 136.86 40.43 137.89ZM42.63 138.6C42.17 138.6 41.83 138.33 41.83 137.89C41.83 137.47 42.17 137.19 42.63 137.19H46.48C46.96 137.19 47.3 137.47 47.3 137.89C47.3 138.33 46.96 138.6 46.48 138.6H42.63ZM53.76 132.78C54.06 132.78 54.31 132.53 54.31 132.23C54.31 131.93 54.06 131.68 53.76 131.68H52.61V130.79C52.61 130.43 52.32 130.24 51.96 130.24C51.6 130.24 51.31 130.43 51.31 130.79V131.68H50.16C49.86 131.68 49.61 131.93 49.61 132.23C49.61 132.53 49.86 132.78 50.16 132.78H53.76ZM55.61 139.69C55.96 139.69 56.23 139.47 56.23 139.13V135.28H57.24V139.12C57.24 139.46 57.52 139.69 57.87 139.69C58.22 139.69 58.5 139.46 58.5 139.12V130.93C58.5 130.59 58.22 130.36 57.87 130.36C57.52 130.36 57.24 130.59 57.24 130.93V134.11H56.23V130.92C56.23 130.58 55.96 130.36 55.61 130.36C55.26 130.36 54.98 130.58 54.98 130.92V139.13C54.98 139.47 55.26 139.69 55.61 139.69ZM49.82 137.43C49.82 138.62 50.78 139.39 51.96 139.39C53.14 139.39 54.1 138.62 54.1 137.43V135.26C54.1 134.08 53.14 133.31 51.96 133.31C50.78 133.31 49.82 134.08 49.82 135.26V137.43ZM51.96 138.3C51.47 138.3 51.05 137.95 51.05 137.36V135.33C51.05 134.74 51.47 134.39 51.96 134.39C52.46 134.39 52.87 134.74 52.87 135.33V137.36C52.87 137.95 52.46 138.3 51.96 138.3ZM60.22 135.04C62.03 134.86 63.4 133.99 63.9 132.93C64.4 133.99 65.77 134.86 67.58 135.04C67.91 135.08 68.19 134.82 68.19 134.49C68.19 134.2 67.97 133.96 67.69 133.94C65.87 133.75 64.74 132.63 64.65 131.81H67.53C67.84 131.81 68.09 131.56 68.09 131.25C68.09 130.94 67.84 130.69 67.53 130.69H60.27C59.96 130.69 59.71 130.94 59.71 131.25C59.71 131.56 59.96 131.81 60.27 131.81H63.14C63.07 132.63 61.93 133.75 60.11 133.94C59.83 133.96 59.61 134.2 59.61 134.49C59.61 134.82 59.9 135.08 60.22 135.04ZM63.9 139.79C64.3 139.79 64.61 139.53 64.61 139.14V136.92H67.97C68.28 136.92 68.53 136.67 68.53 136.36C68.53 136.05 68.28 135.8 67.97 135.8H59.83C59.52 135.8 59.27 136.05 59.27 136.36C59.27 136.67 59.52 136.92 59.83 136.92H63.19V139.14C63.19 139.53 63.51 139.79 63.9 139.79ZM75.4 139.69C75.75 139.69 76.02 139.47 76.02 139.13V130.92C76.02 130.58 75.75 130.36 75.4 130.36C75.05 130.36 74.77 130.58 74.77 130.92V133.77H73.64C73.32 133.77 73.06 134.03 73.06 134.35C73.06 134.66 73.32 134.93 73.64 134.93H74.77V139.13C74.77 139.47 75.05 139.69 75.4 139.69ZM77.47 139.69C77.82 139.69 78.1 139.46 78.1 139.12V130.93C78.1 130.59 77.82 130.36 77.47 130.36C77.12 130.36 76.84 130.59 76.84 130.93V139.12C76.84 139.46 77.12 139.69 77.47 139.69ZM69.65 139.07C69.81 139.07 69.96 139.01 70.07 138.9C70.73 138.29 71.29 137.46 71.54 136.49C71.79 137.47 72.35 138.29 73.01 138.9C73.11 139.01 73.26 139.08 73.43 139.08C73.77 139.08 74.05 138.8 74.05 138.45C74.05 138.27 73.96 138.1 73.83 137.99C72.83 137.12 72.18 135.76 72.18 133.41V131.18C72.18 130.83 71.9 130.6 71.54 130.6C71.18 130.6 70.9 130.83 70.9 131.18V133.41C70.9 135.76 70.24 137.12 69.25 137.99C69.12 138.1 69.03 138.27 69.03 138.45C69.03 138.8 69.31 139.07 69.65 139.07ZM85.18 135.77C86.65 135.77 87.69 134.63 87.69 133.19C87.69 131.73 86.65 130.6 85.18 130.6H81.82C80.35 130.6 79.31 131.73 79.31 133.19C79.31 134.63 80.35 135.77 81.82 135.77H85.18ZM82.11 134.64C81.31 134.64 80.73 134.04 80.73 133.19C80.73 132.33 81.31 131.73 82.11 131.73H84.89C85.7 131.73 86.28 132.33 86.28 133.19C86.28 134.04 85.7 134.64 84.89 134.64H82.11ZM87.55 139.38C87.87 139.38 88.13 139.13 88.13 138.8C88.13 138.48 87.87 138.22 87.55 138.22H86.02V136.71C86.02 136.35 85.72 136.14 85.35 136.14C84.97 136.14 84.68 136.35 84.68 136.71V138.22H82.35V136.71C82.35 136.35 82.06 136.14 81.68 136.14C81.3 136.14 81.01 136.35 81.01 136.71V138.22H79.45C79.14 138.22 78.87 138.48 78.87 138.8C78.87 139.13 79.14 139.38 79.45 139.38H87.55Z" fill="#7C492C"/>
<g clip-path="url(#clip0_693_44708)">
<path d="M75.1953 21.6299H42.6668C41.3836 21.6299 40.3434 22.6316 40.3434 23.8673V28.342C40.3434 29.5777 41.3836 30.5794 42.6668 30.5794H75.1953C76.4785 30.5794 77.5187 29.5777 77.5187 28.342V23.8673C77.5187 22.6316 76.4785 21.6299 75.1953 21.6299Z" stroke="#7C492C" stroke-width="3" stroke-linecap="round" stroke-linejoin="round"/>
<path d="M70.9786 30.5791H46.8835C45.5527 30.5791 44.474 31.6365 44.474 32.9408V47.1108C44.474 48.4151 45.5527 49.4724 46.8835 49.4724H70.9786C72.3094 49.4724 73.3881 48.4151 73.3881 47.1108V32.9408C73.3881 31.6365 72.3094 30.5791 70.9786 30.5791Z" stroke="#7C492C" stroke-width="3" stroke-linecap="round" stroke-linejoin="round"/>
<path d="M58.9311 21.6292H67.5611C68.8316 21.6292 70.0542 21.1593 70.9411 20.3091C71.8521 19.4589 72.3555 18.3402 72.3555 17.1544C72.3555 15.9686 71.8521 14.8276 70.9411 13.9997C70.0302 13.1495 68.8316 12.6797 67.5611 12.6797C60.8488 12.6797 58.9311 21.6292 58.9311 21.6292V21.6292Z" stroke="#7C492C" stroke-width="3" stroke-linecap="round" stroke-linejoin="round"/>
<path d="M50.3011 12.6797C49.0305 12.6797 47.808 13.1495 46.921 13.9997C46.01 14.8499 45.5066 15.9686 45.5066 17.1544C45.5066 18.3402 46.01 19.4813 46.921 20.3091C47.8319 21.1593 49.0305 21.6292 50.3011 21.6292H58.9311C58.9311 21.6292 57.0133 12.6797 50.3011 12.6797Z" stroke="#7C492C" stroke-width="3" stroke-linecap="round" stroke-linejoin="round"/>
<path d="M58.9311 19.6406V47.4835" stroke="#7C492C" stroke-width="3" stroke-linecap="round" stroke-linejoin="round"/>
</g>
<defs>
<clipPath id="clip0_693_44708">
<rect width="62" height="61.999" fill="white" transform="translate(28)"/>
</clipPath>
</defs>
</svg>
