<svg viewBox="0 0 360 470" fill="none" xmlns="http://www.w3.org/2000/svg">
<rect width="360" height="469" fill="#FFF9F0"/>
<path d="M24.7227 132.435C27.0267 131.835 28.9227 130.587 29.9787 128.739C31.0347 130.611 32.9067 131.835 35.2587 132.435C36.2907 132.771 37.5627 131.907 37.5627 130.659C37.5627 129.819 36.9867 129.123 36.2187 128.883C34.1067 128.307 32.2107 126.771 32.2107 124.347V123.867H35.4987C36.4827 123.867 37.2987 123.051 37.2987 122.067C37.2987 121.083 36.4827 120.267 35.4987 120.267H32.3067V119.787C32.3067 118.683 31.2747 118.035 30.0027 118.035C28.6827 118.035 27.6507 118.683 27.6507 119.787V120.267H24.4587C23.4747 120.267 22.6587 121.083 22.6587 122.067C22.6587 123.051 23.4747 123.867 24.4587 123.867H27.7467V124.347C27.7467 126.771 25.8507 128.307 23.7627 128.883C22.9947 129.123 22.4187 129.819 22.4187 130.659C22.4187 131.859 23.5707 132.747 24.7227 132.435ZM41.6427 135.963C42.9147 135.963 43.9467 135.315 43.9467 134.019V120.651C43.9467 119.379 42.9147 118.707 41.6427 118.707C40.3467 118.707 39.3147 119.379 39.3147 120.651V134.019C39.3147 135.315 40.3467 135.963 41.6427 135.963ZM42.8427 141.147C43.8027 141.147 44.5707 140.379 44.5707 139.419C44.5707 138.483 43.8027 137.691 42.8427 137.691H28.7547V135.363C28.7547 134.067 27.6987 133.419 26.4027 133.419C25.1067 133.419 24.0507 134.067 24.0507 135.363V139.227C24.0507 140.475 24.7467 141.147 25.9947 141.147H42.8427ZM64.2507 129.483C65.4027 129.483 66.2427 128.859 66.5067 127.755C66.9867 125.643 67.2507 123.531 67.2987 121.419C67.2987 120.099 66.7467 119.379 65.4747 119.379H48.7947C47.8107 119.379 47.0187 120.171 47.0187 121.155C47.0187 122.139 47.8107 122.931 48.7947 122.931H62.6427C62.5947 124.347 62.3787 125.811 62.0667 127.227C61.8027 128.547 62.9307 129.483 64.2507 129.483ZM57.2907 141.651C58.5627 141.651 59.6187 140.787 59.6187 139.515V134.019H66.7707C67.7787 134.019 68.6427 133.179 68.6427 132.147C68.6427 131.115 67.7787 130.275 66.7707 130.275H48.0267C47.0187 130.275 46.1547 131.115 46.1547 132.147C46.1547 133.179 47.0187 134.019 48.0267 134.019H54.9627V139.515C54.9627 140.787 55.9947 141.651 57.2907 141.651ZM80.062 133.131C84.262 132.675 87.118 130.803 88.582 128.595C90.046 130.779 92.902 132.651 97.102 133.131C98.182 133.275 99.142 132.411 99.142 131.331C99.142 130.371 98.446 129.627 97.558 129.507C93.958 129.003 91.222 126.843 90.934 124.419V124.131H97.126C98.11 124.131 98.902 123.315 98.902 122.331C98.902 121.347 98.11 120.555 97.126 120.555H90.91V119.979C90.91 118.875 89.878 118.395 88.606 118.395C87.31 118.395 86.278 118.875 86.278 119.979V120.555H80.062C79.078 120.555 78.262 121.347 78.262 122.331C78.262 123.315 79.054 124.131 80.038 124.131H86.206V124.419C85.918 126.843 83.206 129.003 79.606 129.507C78.718 129.627 78.022 130.371 78.022 131.331C78.022 132.411 78.982 133.275 80.062 133.131ZM97.966 140.715C98.974 140.715 99.838 139.899 99.838 138.843C99.838 137.811 98.974 136.971 97.966 136.971H90.886V134.379C90.886 133.107 89.854 132.267 88.582 132.267C87.31 132.267 86.278 133.107 86.278 134.379V136.971H79.222C78.214 136.971 77.35 137.811 77.35 138.843C77.35 139.899 78.214 140.715 79.222 140.715H97.966ZM121.462 141.411C122.566 141.411 123.454 140.715 123.454 139.635V120.483C123.454 119.403 122.566 118.707 121.462 118.707C120.382 118.707 119.494 119.403 119.494 120.483V127.371H117.646V120.411C117.646 119.355 116.782 118.707 115.75 118.707C114.694 118.707 113.83 119.355 113.83 120.411V139.707C113.83 140.763 114.694 141.411 115.75 141.411C116.782 141.411 117.646 140.763 117.646 139.707V131.139H119.494V139.635C119.494 140.715 120.382 141.411 121.462 141.411ZM103.942 140.307C106.414 140.211 108.886 139.971 111.478 139.539C112.342 139.419 113.014 138.675 113.014 137.763C113.014 136.683 112.006 135.795 110.926 135.987C109.294 136.323 107.686 136.587 106.198 136.635V123.315H110.71C111.694 123.315 112.486 122.523 112.486 121.539C112.486 120.555 111.694 119.739 110.71 119.739H103.918C102.79 119.739 102.166 120.363 102.166 121.515V138.579C102.166 139.731 102.814 140.355 103.942 140.307ZM137.782 124.971C138.766 124.971 139.558 124.155 139.558 123.171C139.558 122.187 138.766 121.395 137.782 121.395H134.878V120.147C134.878 119.091 133.87 118.443 132.598 118.443C131.326 118.443 130.318 119.091 130.318 120.147V121.395H127.414C126.43 121.395 125.638 122.187 125.638 123.171C125.638 124.155 126.454 124.971 127.438 124.971H137.782ZM144.142 141.411C145.414 141.411 146.422 140.571 146.422 139.323V131.235H147.55C148.63 131.235 149.182 130.347 149.182 129.267C149.182 128.187 148.63 127.299 147.55 127.299H146.422V120.771C146.422 119.547 145.414 118.707 144.142 118.707C142.894 118.707 141.862 119.547 141.862 120.771V139.323C141.862 140.571 142.894 141.411 144.142 141.411ZM132.574 140.715C136.222 140.715 139.03 138.603 139.03 135.099V131.595C139.03 128.139 136.222 126.003 132.574 126.003C128.95 126.003 126.142 128.139 126.142 131.595V135.099C126.142 138.603 128.95 140.715 132.574 140.715ZM132.622 137.403C131.398 137.403 130.366 136.587 130.366 135.291V131.499C130.366 130.203 131.398 129.363 132.622 129.363C133.822 129.363 134.878 130.203 134.878 131.499V135.291C134.878 136.587 133.822 137.403 132.622 137.403ZM167.254 135.627C168.454 135.627 169.342 134.883 169.51 133.731C170.134 129.795 170.446 125.859 170.542 121.947C170.59 120.267 169.774 119.379 168.118 119.379H152.062C151.054 119.379 150.238 120.195 150.238 121.179C150.238 122.211 151.054 123.027 152.062 123.027H165.982C165.91 126.483 165.622 129.987 165.046 133.443C164.83 134.715 165.982 135.627 167.254 135.627ZM169.966 140.715C170.974 140.715 171.838 139.899 171.838 138.843C171.838 137.811 170.974 136.971 169.966 136.971H161.134V129.747C161.134 128.523 160.15 127.683 158.902 127.683C157.654 127.683 156.646 128.523 156.646 129.747V136.971H151.222C150.214 136.971 149.35 137.811 149.35 138.843C149.35 139.899 150.214 140.715 151.222 140.715H169.966ZM183.113 130.371C187.433 129.987 190.385 128.355 191.777 126.195C193.169 128.355 196.121 129.987 200.441 130.371C201.473 130.467 202.337 129.651 202.337 128.643C202.337 127.731 201.617 126.963 200.729 126.915C196.457 126.531 194.441 124.467 194.153 122.979H200.321C201.305 122.979 202.097 122.163 202.097 121.179C202.097 120.195 201.305 119.403 200.321 119.403H183.233C182.249 119.403 181.457 120.195 181.457 121.179C181.457 122.163 182.249 122.979 183.233 122.979H189.377C189.161 124.467 187.073 126.531 182.825 126.915C181.937 126.963 181.217 127.731 181.217 128.643C181.217 129.651 182.105 130.467 183.113 130.371ZM191.777 141.651C193.073 141.651 194.105 140.787 194.105 139.515V135.219H201.257C202.241 135.219 203.033 134.427 203.033 133.443C203.033 132.483 202.241 131.691 201.257 131.691H182.321C181.337 131.691 180.545 132.483 180.545 133.443C180.545 134.427 181.337 135.219 182.321 135.219H189.449V139.515C189.449 140.787 190.505 141.651 191.777 141.651ZM224.033 132.003C225.305 132.003 226.337 131.355 226.337 130.083V120.651C226.337 119.379 225.305 118.707 224.033 118.707C222.737 118.707 221.705 119.379 221.705 120.651V130.083C221.705 131.355 222.737 132.003 224.033 132.003ZM206.705 131.307C206.969 131.307 207.233 131.259 207.449 131.163C209.609 130.275 211.337 128.883 212.345 127.107C213.353 128.883 215.081 130.275 217.265 131.187C217.481 131.259 217.745 131.331 218.009 131.331C219.041 131.331 219.905 130.467 219.905 129.411C219.905 128.643 219.449 127.995 218.777 127.683C216.113 126.507 214.649 124.539 214.649 122.139V120.771C214.649 119.523 213.641 118.875 212.369 118.875C211.073 118.875 210.065 119.523 210.065 120.771V122.139C210.065 124.539 208.601 126.507 205.937 127.683C205.265 127.971 204.809 128.643 204.809 129.411C204.809 130.467 205.673 131.307 206.705 131.307ZM223.937 141.411C225.257 141.411 226.337 140.691 226.337 139.395V134.619C226.337 133.371 225.665 132.699 224.417 132.699H207.665C206.729 132.699 205.937 133.467 205.937 134.427C205.937 135.387 206.729 136.155 207.665 136.155H221.513V139.395C221.513 140.691 222.593 141.411 223.937 141.411ZM255.229 129.555C256.357 129.555 256.981 128.931 256.981 127.803V121.131C256.981 119.979 256.357 119.379 255.229 119.379H238.741C237.589 119.379 236.965 119.979 236.965 121.131V127.803C236.965 128.931 237.589 129.555 238.741 129.555H255.229ZM241.453 122.931H252.517V126.027H241.453V122.931ZM246.973 141.651C248.269 141.651 249.301 140.787 249.301 139.515V135.363H256.357C257.365 135.363 258.229 134.523 258.229 133.491C258.229 132.459 257.365 131.619 256.357 131.619H237.613C236.605 131.619 235.741 132.459 235.741 133.491C235.741 134.523 236.605 135.363 237.613 135.363H244.645V139.515C244.645 140.787 245.701 141.651 246.973 141.651ZM272.941 123.483C273.805 123.483 274.525 122.811 274.525 121.923C274.525 121.059 273.805 120.387 272.941 120.387H269.629V119.475C269.629 118.515 268.573 118.035 267.253 118.035C265.933 118.035 264.877 118.515 264.877 119.475V120.387H261.541C260.701 120.387 260.005 121.059 260.005 121.923C260.005 122.811 260.701 123.483 261.541 123.483H272.941ZM278.581 135.579C279.853 135.579 280.861 134.931 280.861 133.707V128.403H281.845C282.901 128.403 283.573 127.539 283.573 126.507C283.573 125.475 282.901 124.635 281.845 124.635H280.861V120.603C280.861 119.355 279.853 118.707 278.581 118.707C277.309 118.707 276.301 119.355 276.301 120.603V133.707C276.301 134.931 277.309 135.579 278.581 135.579ZM260.533 128.499C260.533 130.875 262.213 132.651 264.133 132.651H270.397C272.317 132.651 273.997 130.875 273.997 128.499C273.997 126.147 272.317 124.347 270.397 124.347H264.133C262.213 124.347 260.533 126.147 260.533 128.499ZM265.501 129.627C264.829 129.627 264.421 129.075 264.421 128.499C264.421 127.875 264.829 127.371 265.501 127.371H269.101C269.773 127.371 270.181 127.875 270.181 128.499C270.181 129.075 269.773 129.627 269.101 129.627H265.501ZM279.853 141.147C280.813 141.147 281.581 140.379 281.581 139.419C281.581 138.483 280.813 137.691 279.853 137.691H266.197V135.723C266.197 134.475 265.165 133.803 263.893 133.803C262.621 133.803 261.589 134.475 261.589 135.723V139.227C261.589 140.475 262.285 141.147 263.533 141.147H279.853ZM300.997 127.203V130.611C300.997 131.835 302.005 132.483 303.277 132.483C304.549 132.483 305.557 131.835 305.557 130.611V120.603C305.557 119.355 304.549 118.707 303.277 118.707C302.005 118.707 300.997 119.355 300.997 120.603V123.987H298.069C297.205 123.987 296.485 124.731 296.485 125.595C296.485 126.483 297.205 127.203 298.069 127.203H300.997ZM286.237 131.907C288.469 131.403 290.269 130.323 291.325 128.619C292.357 130.323 294.157 131.403 296.437 131.907C297.637 132.147 298.645 131.259 298.645 130.107C298.645 129.219 298.021 128.475 297.229 128.283C294.973 127.755 293.413 126.243 293.413 123.531V122.931H296.629C297.589 122.931 298.405 122.139 298.405 121.155C298.405 120.195 297.589 119.379 296.629 119.379H286.021C285.061 119.379 284.269 120.195 284.269 121.155C284.269 122.139 285.061 122.931 286.021 122.931H289.237V123.531C289.237 126.243 287.701 127.755 285.421 128.283C284.605 128.475 284.005 129.219 284.005 130.107C284.005 131.235 285.037 132.171 286.237 131.907ZM300.829 136.563V139.443C300.829 140.739 301.861 141.411 303.181 141.411C304.501 141.411 305.557 140.739 305.557 139.443V135.099C305.557 133.851 304.861 133.179 303.613 133.179H286.837C285.925 133.179 285.157 133.923 285.157 134.859C285.157 135.795 285.925 136.563 286.837 136.563H300.829ZM327.253 118.707C325.957 118.707 324.925 119.379 324.925 120.651V129.795C324.925 131.067 325.957 131.715 327.253 131.715C328.549 131.715 329.581 131.067 329.581 129.795V120.651C329.581 119.379 328.549 118.707 327.253 118.707ZM322.213 130.827C323.173 130.731 323.653 130.131 323.653 129.339C323.653 128.475 323.077 127.731 322.093 127.875C319.045 128.259 315.997 128.499 312.949 128.523V126.699H320.005C321.133 126.699 321.757 126.075 321.757 124.947V121.107C321.757 119.979 321.133 119.355 320.005 119.355H309.805C309.013 119.355 308.341 120.027 308.341 120.819C308.341 121.659 309.013 122.331 309.805 122.331H317.365V123.939H310.309C309.181 123.939 308.557 124.539 308.557 125.691V129.723C308.557 130.875 309.229 131.451 310.357 131.451C314.317 131.499 318.253 131.235 322.213 130.827ZM327.301 132.243C326.005 132.243 324.997 132.891 324.997 134.163V134.235H314.125V134.139C314.125 132.891 313.117 132.243 311.845 132.243C310.573 132.243 309.565 132.891 309.565 134.139V139.347C309.565 140.499 310.237 141.147 311.365 141.099L325.189 140.499C325.525 141.147 326.341 141.411 327.301 141.411C328.573 141.411 329.581 140.931 329.581 139.683V134.163C329.581 132.891 328.573 132.243 327.301 132.243ZM324.997 136.851V137.811L314.125 138.243V136.851H324.997ZM332.773 133.179C332.821 134.451 333.661 135.219 334.813 135.219C335.941 135.219 336.781 134.451 336.829 133.179L336.973 128.259V120.819C336.973 119.547 336.037 118.659 334.789 118.659C333.541 118.659 332.605 119.547 332.605 120.819V128.259L332.773 133.179ZM335.341 141.027C336.181 141.027 336.805 140.403 336.805 139.563V138.483C336.805 137.643 336.181 137.019 335.341 137.019H334.237C333.397 137.019 332.773 137.643 332.773 138.483V139.563C332.773 140.403 333.397 141.027 334.237 141.027H335.341Z" fill="#7C492C"/>
<path d="M163 54.2109C163 49.2404 167.029 45.2109 172 45.2109H188.5C193.471 45.2109 197.5 49.2404 197.5 54.2109V70.7109C197.5 75.6815 193.471 79.7109 188.5 79.7109H172C167.029 79.7109 163 75.6815 163 70.7109L163 54.2109Z" fill="#7C492C"/>
<path d="M180.133 63.2409C181.013 63.2409 181.853 63.8409 181.853 64.7409V67.7009C181.853 68.5409 181.173 69.1809 180.233 69.1809C179.293 69.1809 178.593 68.5409 178.593 67.7009V67.1209C178.593 66.0009 177.913 65.3609 176.793 65.3609C175.673 65.3609 174.993 66.0009 174.993 67.1209V67.7009C174.993 70.5409 177.413 71.9609 180.233 71.9609C183.053 71.9609 185.453 70.4609 185.453 67.7009V64.9209C185.453 63.2009 184.573 62.2609 183.373 61.7609C184.453 61.2609 185.273 60.2809 185.273 58.7009V57.2809C185.273 54.5209 183.033 53.0209 180.233 53.0209C177.433 53.0209 175.213 54.4409 175.213 57.0009V57.3609C175.213 58.1409 175.893 58.7009 176.933 58.7009C177.973 58.7009 178.653 58.1009 178.653 57.3609V57.0609C178.653 56.2209 179.313 55.6609 180.233 55.6609C181.153 55.6609 181.813 56.3009 181.813 57.1409V58.8809C181.813 59.7209 180.933 60.2609 180.213 60.3209H179.993C179.153 60.3609 178.633 60.8609 178.633 61.7809C178.633 62.7009 179.153 63.2409 179.993 63.2409H180.133Z" fill="#FFF9F0"/>
<path d="M138.5 101.787C139.76 101.451 140.84 100.755 141.272 99.6629C141.692 100.767 142.772 101.451 144.044 101.787C144.464 101.907 144.932 101.571 144.932 101.103C144.932 100.779 144.704 100.503 144.404 100.419C143.192 100.095 142.1 99.2069 142.1 97.6949V97.2509H144.128C144.5 97.2509 144.812 96.9389 144.812 96.5669C144.812 96.1949 144.5 95.8829 144.128 95.8829H142.124V95.4269C142.124 94.9949 141.74 94.7309 141.272 94.7309C140.792 94.7309 140.42 94.9949 140.42 95.4269V95.8829H138.404C138.032 95.8829 137.732 96.1949 137.732 96.5669C137.732 96.9389 138.032 97.2509 138.404 97.2509H140.444V97.6949C140.444 99.2069 139.352 100.095 138.14 100.419C137.84 100.503 137.612 100.779 137.612 101.103C137.612 101.559 138.056 101.895 138.5 101.787ZM147.26 103.575C147.728 103.575 148.112 103.311 148.112 102.843V95.7749C148.112 95.3189 147.728 95.0429 147.26 95.0429C146.792 95.0429 146.408 95.3189 146.408 95.7749V102.843C146.408 103.311 146.792 103.575 147.26 103.575ZM147.74 106.143C148.1 106.143 148.4 105.843 148.4 105.483C148.4 105.123 148.1 104.823 147.74 104.823H140.228V103.155C140.228 102.687 139.844 102.423 139.364 102.423C138.896 102.423 138.512 102.687 138.512 103.155V105.363C138.512 105.867 138.788 106.143 139.292 106.143H147.74ZM158.42 100.335C158.852 100.335 159.176 100.107 159.284 99.6989C159.584 98.5469 159.752 97.3589 159.812 96.2189C159.824 95.6789 159.584 95.3909 159.068 95.3909H150.692C150.32 95.3909 150.02 95.6909 150.02 96.0629C150.02 96.4349 150.32 96.7349 150.692 96.7349H158.084C158.036 97.6469 157.88 98.5949 157.64 99.5069C157.532 99.9869 157.928 100.335 158.42 100.335ZM154.964 106.359C155.432 106.359 155.816 106.047 155.816 105.579V102.303H159.86C160.244 102.303 160.556 101.991 160.556 101.607C160.556 101.223 160.244 100.911 159.86 100.911H150.14C149.768 100.911 149.444 101.223 149.444 101.607C149.444 101.991 149.768 102.303 150.14 102.303H154.112V105.579C154.112 106.047 154.496 106.359 154.964 106.359ZM162.62 102.087C164.756 101.847 166.364 100.755 167 99.5189C167.636 100.755 169.244 101.835 171.38 102.087C171.788 102.135 172.148 101.799 172.148 101.403C172.148 101.043 171.884 100.767 171.548 100.719C169.616 100.479 167.924 99.1829 167.852 97.7189V97.3229H171.356C171.728 97.3229 172.028 97.0109 172.028 96.6389C172.028 96.2669 171.728 95.9669 171.356 95.9669H167.852V95.4629C167.852 95.0429 167.48 94.8149 167 94.8149C166.532 94.8149 166.16 95.0429 166.16 95.4629V95.9669H162.656C162.284 95.9669 161.972 96.2669 161.972 96.6389C161.972 97.0109 162.272 97.3229 162.644 97.3229H166.136V97.7189C166.076 99.1829 164.396 100.479 162.452 100.719C162.116 100.767 161.852 101.043 161.852 101.403C161.852 101.811 162.212 102.135 162.62 102.087ZM171.86 105.867C172.244 105.867 172.556 105.567 172.556 105.171C172.556 104.787 172.244 104.475 171.86 104.475H167.84V102.615C167.84 102.147 167.468 101.811 167 101.811C166.532 101.811 166.16 102.147 166.16 102.615V104.475H162.14C161.768 104.475 161.444 104.787 161.444 105.171C161.444 105.567 161.768 105.867 162.14 105.867H171.86ZM183.512 106.239C183.944 106.239 184.28 105.963 184.28 105.543V95.7389C184.28 95.3189 183.944 95.0429 183.512 95.0429C183.08 95.0429 182.732 95.3189 182.732 95.7389V99.5429H181.34V95.7269C181.34 95.3069 181.004 95.0429 180.596 95.0429C180.164 95.0429 179.828 95.3069 179.828 95.7269V105.555C179.828 105.975 180.164 106.239 180.596 106.239C181.004 106.239 181.34 105.975 181.34 105.555V100.947H182.732V105.543C182.732 105.963 183.08 106.239 183.512 106.239ZM174.668 105.663C175.976 105.639 177.284 105.495 178.652 105.207C178.964 105.147 179.204 104.871 179.204 104.535C179.204 104.115 178.808 103.779 178.4 103.863C177.404 104.115 176.36 104.271 175.472 104.283V96.9389H178.208C178.58 96.9389 178.88 96.6389 178.88 96.2669C178.88 95.8949 178.58 95.5829 178.208 95.5829H174.656C174.176 95.5829 173.912 95.8589 173.912 96.3389V104.931C173.912 105.423 174.188 105.675 174.668 105.663ZM194.226 106.023C194.742 106.023 195.054 105.771 195.054 105.327C195.054 104.871 194.742 104.631 194.226 104.631H190.998V101.175H194.022C194.538 101.175 194.814 100.923 194.814 100.503C194.814 100.083 194.538 99.8189 194.022 99.8189H190.998V96.6269H194.106C194.622 96.6269 194.934 96.3869 194.934 95.9309C194.934 95.4749 194.622 95.2349 194.106 95.2349H190.254C189.69 95.2349 189.366 95.5469 189.366 96.1229V105.135C189.366 105.711 189.69 106.023 190.254 106.023H194.226ZM196.19 95.1509C195.662 95.2109 195.41 95.5589 195.53 96.1469L197.402 105.099C197.522 105.735 197.93 106.107 198.566 106.107H199.214C199.85 106.107 200.258 105.747 200.378 105.099L202.214 96.1469C202.322 95.5709 202.082 95.2229 201.554 95.1509C201.05 95.0789 200.702 95.3069 200.594 95.8829L198.878 104.607L197.15 95.8829C197.042 95.3069 196.706 95.0789 196.19 95.1509ZM208.136 106.023C208.652 106.023 208.964 105.771 208.964 105.327C208.964 104.871 208.652 104.631 208.136 104.631H204.908V101.175H207.932C208.448 101.175 208.724 100.923 208.724 100.503C208.724 100.083 208.448 99.8189 207.932 99.8189H204.908V96.6269H208.016C208.532 96.6269 208.844 96.3869 208.844 95.9309C208.844 95.4749 208.532 95.2349 208.016 95.2349H204.164C203.6 95.2349 203.276 95.5469 203.276 96.1229V105.135C203.276 105.711 203.6 106.023 204.164 106.023H208.136ZM215.344 95.1509C214.84 95.1509 214.552 95.4509 214.552 96.0029V102.723L211.888 95.8709C211.684 95.3429 211.396 95.1509 210.928 95.1509H210.688C210.22 95.1509 209.92 95.4509 209.92 95.9789V105.255C209.92 105.807 210.208 106.107 210.7 106.107C211.204 106.107 211.492 105.807 211.492 105.255V98.5349L214.156 105.351C214.36 105.891 214.648 106.107 215.116 106.107H215.356C215.848 106.107 216.136 105.795 216.136 105.279L216.124 96.0029C216.124 95.4509 215.836 95.1509 215.344 95.1509ZM216.995 95.9309C216.995 96.3869 217.295 96.6269 217.859 96.6269H219.419V105.219C219.419 105.795 219.719 106.107 220.247 106.107C220.787 106.107 221.087 105.795 221.087 105.219V96.6269H222.719C223.235 96.6269 223.523 96.3869 223.523 95.9309C223.523 95.4749 223.211 95.2349 222.659 95.2349H217.859C217.295 95.2349 216.995 95.4749 216.995 95.9309Z" fill="#7C492C"/>
<path d="M391.304 275.117H271.969C273.745 259.134 312.812 258.069 312.812 258.069C304.644 257.713 293.988 254.517 296.476 250.61C301.628 242.515 342.29 256.293 342.29 256.293C342.29 256.293 323.467 251.677 327.728 246.705C336.251 237.117 376.386 256.293 376.386 256.293C376.386 256.293 360.402 248.834 366.797 242.798C373.189 236.761 391.304 245.994 391.304 245.994V275.117Z" fill="white" stroke="black" stroke-linecap="round" stroke-linejoin="round"/>
<path d="M184.637 379.096L186.734 383.468C188.204 386.538 190.417 389.06 193.107 390.739L196.941 393.131L193.107 395.523C190.417 397.202 188.207 399.723 186.734 402.794L184.637 407.166L182.54 402.794C181.07 399.723 178.856 397.202 176.166 395.523L172.332 393.131L176.166 390.739C178.856 389.06 181.066 386.538 182.54 383.468L184.637 379.096Z" fill="#4DDB8A" stroke="black" stroke-linecap="round" stroke-linejoin="round"/>
<path d="M184.635 434.533L185.845 437.055C186.695 438.827 187.969 440.279 189.522 441.249L191.732 442.63L189.522 444.011C187.969 444.981 186.695 446.434 185.845 448.205L184.635 450.727L183.426 448.205C182.576 446.434 181.301 444.981 179.749 444.011L177.539 442.63L179.749 441.249C181.301 440.279 182.576 438.827 183.426 437.055L184.635 434.533Z" fill="#4DDB8A" stroke="black" stroke-linecap="round" stroke-linejoin="round"/>
<path d="M184.637 424.936C187.04 424.936 188.989 422.988 188.989 420.584C188.989 418.181 187.04 416.232 184.637 416.232C182.233 416.232 180.285 418.181 180.285 420.584C180.285 422.988 182.233 424.936 184.637 424.936Z" fill="white" stroke="black" stroke-linecap="round" stroke-linejoin="round"/>
<path d="M33.0296 272.012C41.9429 272.012 49.1685 264.787 49.1685 255.873C49.1685 246.96 41.9429 239.734 33.0296 239.734C24.1163 239.734 16.8906 246.96 16.8906 255.873C16.8906 264.787 24.1163 272.012 33.0296 272.012Z" fill="#4DDB8A" stroke="black" stroke-linecap="round" stroke-linejoin="round"/>
<path d="M33.031 316.492C43.4336 316.492 51.8666 308.059 51.8666 297.656C51.8666 287.253 43.4336 278.82 33.031 278.82C22.6283 278.82 14.1953 287.253 14.1953 297.656C14.1953 308.059 22.6283 316.492 33.031 316.492Z" fill="#4DDB8A"/>
<path d="M33.0312 374.922C45.1124 374.922 54.9062 365.128 54.9062 353.047C54.9062 340.966 45.1124 331.172 33.0312 331.172C20.95 331.172 11.1562 340.966 11.1562 353.047C11.1562 365.128 20.95 374.922 33.0312 374.922Z" fill="#4DDB8A"/>
<path d="M33.0312 255.873V469.24" stroke="black" stroke-linecap="round" stroke-linejoin="round"/>
<path d="M338.076 361.965C346.99 361.965 354.215 354.74 354.215 345.826C354.215 336.913 346.99 329.688 338.076 329.688C329.163 329.688 321.938 336.913 321.938 345.826C321.938 354.74 329.163 361.965 338.076 361.965Z" fill="#4DDB8A"/>
<path d="M351.002 274.552C355.351 270.876 358.109 265.386 358.109 259.246C358.109 248.182 349.138 239.211 338.074 239.211C327.01 239.211 318.039 248.182 318.039 259.246C318.039 265.383 320.801 270.876 325.146 274.552C320.797 278.229 318.039 283.718 318.039 289.858C318.039 300.923 327.01 309.893 338.074 309.893C349.138 309.893 358.109 300.923 358.109 289.858C358.109 283.722 355.347 278.229 351.002 274.552Z" fill="#4DDB8A" stroke="black" stroke-linecap="round" stroke-linejoin="round"/>
<path d="M338.074 290.691V469.241" stroke="black" stroke-linecap="round" stroke-linejoin="round"/>
<path d="M83.0498 368.236C103.872 368.236 120.752 351.356 120.752 330.534C120.752 309.712 103.872 292.832 83.0498 292.832C62.2275 292.832 45.3477 309.712 45.3477 330.534C45.3477 351.356 62.2275 368.236 83.0498 368.236Z" fill="#FFA9FF"/>
<path d="M91.9576 338.677C94.1282 338.677 95.8878 336.917 95.8878 334.747C95.8878 332.576 94.1282 330.816 91.9576 330.816C89.787 330.816 88.0273 332.576 88.0273 334.747C88.0273 336.917 89.787 338.677 91.9576 338.677Z" fill="#F380FF"/>
<path d="M122.491 339.104C129.984 339.104 136.057 333.03 136.057 325.538C136.057 318.046 129.984 311.973 122.491 311.973C114.999 311.973 108.926 318.046 108.926 325.538C108.926 333.03 114.999 339.104 122.491 339.104Z" fill="#FFA9FF"/>
<path d="M44.0969 360.108C51.589 360.108 57.6625 354.034 57.6625 346.542C57.6625 339.05 51.589 332.977 44.0969 332.977C36.6048 332.977 30.5312 339.05 30.5312 346.542C30.5312 354.034 36.6048 360.108 44.0969 360.108Z" fill="#FFA9FF"/>
<path d="M100.189 332.449C101.955 332.449 103.386 331.017 103.386 329.252C103.386 327.486 101.955 326.055 100.189 326.055C98.4235 326.055 96.9922 327.486 96.9922 329.252C96.9922 331.017 98.4235 332.449 100.189 332.449Z" fill="black"/>
<path d="M81.7829 337.38C83.5485 337.38 84.9798 335.949 84.9798 334.183C84.9798 332.418 83.5485 330.986 81.7829 330.986C80.0173 330.986 78.5859 332.418 78.5859 334.183C78.5859 335.949 80.0173 337.38 81.7829 337.38Z" fill="black"/>
<path d="M38.0391 345.754C39.2726 345.055 40.7769 344.692 42.377 344.795C44.9264 344.962 47.0748 346.275 48.1884 348.098" stroke="black" stroke-width="1.14446" stroke-linecap="round" stroke-linejoin="round"/>
<path d="M126.516 322.047C125.1 322.061 123.613 322.496 122.28 323.387C120.156 324.805 118.953 327.019 118.898 329.153" stroke="black" stroke-width="1.14446" stroke-linecap="round" stroke-linejoin="round"/>
<path d="M83.7734 342.764C85.7814 345.896 89.948 346.807 93.0799 344.799" stroke="black" stroke-width="1.14446" stroke-linecap="round" stroke-linejoin="round"/>
<path d="M72.8904 287.127C110.644 277.012 118.71 313.158 119.053 314.8C119.073 314.875 119.087 314.916 119.087 314.916C120.464 321.31 120.834 328.924 117.291 334.225L112.385 315.91C105.398 315.886 102.585 311.609 100.964 306.422L100.985 306.497C100.166 303.437 96.9172 301.652 93.7306 302.505C91.2223 303.177 89.4988 305.284 89.2795 307.645C87.9089 305.712 85.363 304.75 82.8547 305.421C80.5864 306.028 78.9725 307.809 78.5202 309.889C78.4585 310.263 78.39 311.041 78.5544 312.336C78.6058 312.627 78.6504 312.915 78.6881 313.199C78.6949 313.244 78.7018 313.285 78.7121 313.33C78.7429 313.494 78.7566 313.641 78.7566 313.772C79.6441 323.153 72.1914 330.637 62.7855 333.293C60.0477 334.067 56.6589 334.413 53.9828 334.231L53.9519 334.314L58.1734 350.072C50.5734 348.205 46.5815 342.356 44.6146 336.815C44.3439 336.054 44.1109 335.297 43.9122 334.56C42.2743 328.447 34.2631 297.482 72.8904 287.134V287.127Z" fill="#1F2020"/>
<path d="M55.3966 379.53C60.5741 376.734 66.502 375.145 72.8 375.145L97.6663 406.398L117.132 469.511H77.7993H53.4503H22.3203C22.3203 438.145 31.2841 391.376 55.3932 379.527L55.3966 379.53Z" fill="#6CDCFF"/>
<path d="M157.985 326.01C158.287 325.407 157.893 322.686 157.656 320.617C156.913 315.813 157.913 313.524 160.552 312.931C163.19 312.338 164.434 313.784 164.434 313.784C163.009 304.779 163.091 299.081 165.623 297.467C165.651 297.45 165.678 297.433 165.705 297.419C165.753 297.388 165.805 297.361 165.856 297.333C165.904 297.309 165.956 297.285 166.007 297.265C166.048 297.248 166.086 297.227 166.13 297.21C166.206 297.183 166.281 297.159 166.36 297.135C166.387 297.128 166.415 297.117 166.442 297.111C166.541 297.083 166.641 297.063 166.744 297.046C170.348 296.446 171.212 299.232 171.212 299.232C172.027 298.886 173.103 298.875 174.159 299.28C175.214 299.684 176.006 300.414 176.379 301.216C177.195 300.87 178.27 300.859 179.326 301.264C180.381 301.668 181.173 302.398 181.546 303.2C185.202 302.295 186.665 304.8 187.21 306.876C187.299 307.215 187.364 307.541 187.409 307.843C189.246 318.126 186.878 346.298 175.79 355.094L155.299 346.665C147.98 340.902 157.571 326.849 157.985 326.02V326.01Z" fill="#FFA9FF"/>
<path d="M181.529 303.141C184.057 306.091 185.654 323.038 180.617 328.387" stroke="black" stroke-width="1.14446" stroke-linecap="round" stroke-linejoin="round"/>
<path d="M176.4 301.24C178.929 304.19 180.525 321.138 175.488 326.487" stroke="black" stroke-width="1.14446" stroke-linecap="round" stroke-linejoin="round"/>
<path d="M171.173 299.148C173.702 302.099 175.299 319.046 170.262 324.395" stroke="black" stroke-width="1.14446" stroke-linecap="round" stroke-linejoin="round"/>
<path d="M164.431 313.789C164.431 313.789 169.945 321.807 163.969 332.039" stroke="black" stroke-width="1.14446" stroke-linecap="round" stroke-linejoin="round"/>
<path d="M185.825 304.184C186.545 304.937 186.966 305.948 187.21 306.873C187.299 307.213 187.364 307.538 187.408 307.84C189.245 318.123 186.877 346.296 175.789 355.092" stroke="black" stroke-width="1.14446" stroke-linecap="round" stroke-linejoin="round"/>
<path d="M98.6716 375.141H99.1924C107.276 375.093 115.767 372.838 123.507 368.37C130.603 364.275 136.411 358.779 140.537 352.317C140.551 352.299 140.561 352.286 140.575 352.265C142.908 349.031 145.721 342.602 146.999 339.539L180.237 354.04C179.089 357.573 177.677 361.054 175.998 364.446C168.648 379.297 156.878 391.705 141.952 400.319C128.647 408.001 113.855 412.031 99.0348 412.031H77.3997L73.3015 375.566L72.8047 375.141C83.4475 375.141 93.3365 375.141 98.6716 375.141Z" fill="#6CDCFF"/>
<path d="M141.986 400.32C128.681 408.003 113.888 412.032 99.0687 412.032H77.4336" stroke="black" stroke-width="1.14446" stroke-linecap="round" stroke-linejoin="round"/>
<path d="M313.876 379.53C308.699 376.734 302.771 375.145 296.473 375.145L271.607 406.398L252.141 469.511H346.953C346.953 438.145 337.989 391.376 313.88 379.527L313.876 379.53Z" fill="#FFDC4A"/>
<path d="M248.077 339.12C255.569 339.12 261.643 333.046 261.643 325.554C261.643 318.062 255.569 311.988 248.077 311.988C240.585 311.988 234.512 318.062 234.512 325.554C234.512 333.046 240.585 339.12 248.077 339.12Z" fill="#FFA9FF"/>
<path d="M326.468 360.127C333.96 360.127 340.034 354.054 340.034 346.562C340.034 339.07 333.96 332.996 326.468 332.996C318.976 332.996 312.902 339.07 312.902 346.562C312.902 354.054 318.976 360.127 326.468 360.127Z" fill="#FFA9FF"/>
<path d="M250.779 325.147L243.445 352.516L309.201 370.135L316.534 342.766L250.779 325.147Z" fill="black"/>
<path d="M287.515 368.256C308.337 368.256 325.217 351.376 325.217 330.554C325.217 309.731 308.337 292.852 287.515 292.852C266.692 292.852 249.812 309.731 249.812 330.554C249.812 351.376 266.692 368.256 287.515 368.256Z" fill="#FFA9FF"/>
<path d="M270.377 332.468C272.142 332.468 273.574 331.037 273.574 329.271C273.574 327.506 272.142 326.074 270.377 326.074C268.611 326.074 267.18 327.506 267.18 329.271C267.18 331.037 268.611 332.468 270.377 332.468Z" fill="black"/>
<path d="M288.783 337.398C290.549 337.398 291.98 335.966 291.98 334.201C291.98 332.435 290.549 331.004 288.783 331.004C287.017 331.004 285.586 332.435 285.586 334.201C285.586 335.966 287.017 337.398 288.783 337.398Z" fill="black"/>
<path d="M280.78 332.807C280.499 330.923 279.707 330.501 279.292 330.392C278.878 330.282 277.98 330.248 276.795 331.742C274.739 334.408 273.042 337.875 277.004 338.938C280.965 340 281.228 336.145 280.783 332.811L280.78 332.807Z" fill="#F380FF"/>
<path d="M286.806 342.785C284.799 345.917 280.632 346.828 277.5 344.82" stroke="black" stroke-width="1.14446" stroke-linecap="round" stroke-linejoin="round"/>
<path d="M332.56 345.781C331.326 345.082 329.822 344.719 328.222 344.822C325.672 344.99 323.524 346.302 322.41 348.125" stroke="black" stroke-width="1.14446" stroke-linecap="round" stroke-linejoin="round"/>
<path d="M244.074 322.07C245.489 322.084 246.977 322.519 248.309 323.41C250.434 324.829 251.637 327.042 251.691 329.177" stroke="black" stroke-width="1.14446" stroke-linecap="round" stroke-linejoin="round"/>
<path d="M332.149 362.207C332.149 362.207 332.8 347.918 327.061 333.088C327.061 333.088 327.516 331.358 327.859 328.545C328.054 326.958 328.212 325.026 328.236 322.863C328.339 313.112 325.663 298.689 310.908 290.178C310.901 290.174 310.898 290.171 310.891 290.167C310.644 290.024 310.391 289.883 310.137 289.746C310.11 289.732 310.082 289.715 310.055 289.701C309.815 289.571 309.575 289.444 309.328 289.318C309.284 289.294 309.239 289.27 309.191 289.249C308.958 289.129 308.722 289.013 308.485 288.896C308.427 288.865 308.365 288.838 308.304 288.807C308.074 288.698 307.845 288.588 307.612 288.478C307.54 288.444 307.464 288.41 307.389 288.375C307.163 288.273 306.937 288.17 306.707 288.07C306.621 288.033 306.532 287.995 306.447 287.957C306.224 287.861 306.001 287.769 305.775 287.676C305.676 287.635 305.576 287.598 305.477 287.556C305.258 287.467 305.035 287.382 304.812 287.293C304.702 287.251 304.589 287.21 304.476 287.166C304.26 287.084 304.041 287.001 303.818 286.923C303.695 286.878 303.565 286.833 303.442 286.789C303.229 286.714 303.017 286.638 302.801 286.566C302.657 286.518 302.513 286.47 302.366 286.426C302.16 286.361 301.958 286.292 301.749 286.227C301.574 286.172 301.396 286.121 301.221 286.066C301.04 286.011 300.858 285.956 300.673 285.901C300.365 285.812 300.053 285.727 299.737 285.641C299.679 285.627 299.628 285.61 299.57 285.593C299.57 285.593 299.57 285.593 299.566 285.593C299.566 285.593 299.566 285.593 299.563 285.593C274.748 278.946 261.922 293.207 256.104 303.534C255.042 305.419 254.213 307.17 253.589 308.643C252.482 311.251 252.009 312.978 252.009 312.978C239.626 322.953 233.043 335.651 233.043 335.651C225.916 354.559 249.268 362.851 248.004 362.008C246.739 361.169 249.196 349.008 250.913 343.244C251.961 339.722 255.97 326.588 258.927 316.915C265.01 318.546 274.679 315.226 278.38 310.343C279.5 308.866 280.367 307.286 281.042 305.741C281.714 307.626 282.564 309.668 283.633 311.751C288.564 321.38 298.161 331.923 316.575 332.273C316.569 332.328 316.565 332.358 316.565 332.358C314.29 342.213 311.196 355.59 310.343 359.168C308.948 365.017 304.994 376.777 303.479 376.872C301.965 376.968 328.873 382.142 332.152 362.207H332.149Z" fill="#1F2020"/>
<path d="M211.29 326.01C210.988 325.407 211.382 322.686 211.619 320.617C212.362 315.813 211.362 313.524 208.723 312.931C206.085 312.338 204.841 313.784 204.841 313.784C206.266 304.779 206.184 299.081 203.652 297.467C203.625 297.45 203.597 297.433 203.57 297.419C203.522 297.388 203.47 297.361 203.419 297.333C203.371 297.309 203.32 297.285 203.268 297.265C203.227 297.248 203.189 297.227 203.145 297.21C203.069 297.183 202.994 297.159 202.915 297.135C202.888 297.128 202.86 297.117 202.833 297.111C202.734 297.083 202.634 297.063 202.532 297.046C198.927 296.446 198.063 299.232 198.063 299.232C197.248 298.886 196.172 298.875 195.117 299.28C194.061 299.684 193.27 300.414 192.896 301.216C192.081 300.87 191.005 300.859 189.949 301.264C188.894 301.668 188.102 302.398 187.729 303.2C184.073 302.295 182.61 304.8 182.065 306.876C181.976 307.215 181.911 307.541 181.866 307.843C180.029 318.126 182.397 346.298 193.485 355.094L213.976 346.665C221.295 340.902 211.704 326.849 211.29 326.02V326.01Z" fill="#FFA9FF"/>
<path d="M198.07 299.238C201.428 301.198 204.334 319.852 201.332 326.555" stroke="black" stroke-width="1.14446" stroke-linecap="round" stroke-linejoin="round"/>
<path d="M192.871 301.203C196.229 303.163 199.135 321.817 196.133 328.519" stroke="black" stroke-width="1.14446" stroke-linecap="round" stroke-linejoin="round"/>
<path d="M187.703 303.164C191.061 305.124 193.967 323.778 190.965 330.48" stroke="black" stroke-width="1.14446" stroke-linecap="round" stroke-linejoin="round"/>
<path d="M205.241 311.035C204.361 316.538 208.654 323.049 212.053 327.277" stroke="black" stroke-width="1.14446" stroke-linecap="round" stroke-linejoin="round"/>
<path d="M183.449 304.184C182.73 304.937 182.308 305.948 182.065 306.873C181.976 307.213 181.911 307.538 181.866 307.84C180.029 318.123 182.397 346.296 193.485 355.092" stroke="black" stroke-width="1.14446" stroke-linecap="round" stroke-linejoin="round"/>
<path d="M270.6 375.141H270.079C261.996 375.093 253.505 372.838 245.765 368.37C238.668 364.275 232.86 358.779 228.735 352.317C228.721 352.299 228.711 352.286 228.697 352.265C226.364 349.031 223.551 342.602 222.273 339.539L189.035 354.04C190.183 357.573 191.595 361.054 193.274 364.446C200.624 379.297 212.394 391.705 227.32 400.319C240.625 408.001 255.417 412.031 270.237 412.031H291.872L296.467 381V375.141C285.824 375.141 275.935 375.141 270.6 375.141Z" fill="#FFDC4A"/>
<path d="M227.355 400.32C240.661 408.003 255.453 412.032 270.273 412.032H291.908" stroke="black" stroke-width="1.14446" stroke-linecap="round" stroke-linejoin="round"/>
<path d="M267.188 463.813C267.188 463.813 307.412 463.799 352.865 469.511" stroke="black" stroke-width="1.14446" stroke-linecap="round" stroke-linejoin="round"/>
<path d="M129.251 469.512C112.41 469.355 94.5436 465.716 77.0923 458.246C39.6266 442.206 13.6466 412.608 6.35156 382.115" stroke="black" stroke-width="1.14446" stroke-linecap="round" stroke-linejoin="round"/>
<path d="M183.797 220.402V232.778" stroke="black" stroke-linecap="round" stroke-linejoin="round"/>
<path d="M163.082 229.082L171.835 237.833" stroke="black" stroke-linecap="round" stroke-linejoin="round"/>
<path d="M154.57 249.867H166.946" stroke="black" stroke-linecap="round" stroke-linejoin="round"/>
<path d="M163.25 270.585L172.003 261.832" stroke="black" stroke-linecap="round" stroke-linejoin="round"/>
<path d="M184.031 279.095V266.719" stroke="black" stroke-linecap="round" stroke-linejoin="round"/>
<path d="M204.753 270.417L196 261.664" stroke="black" stroke-linecap="round" stroke-linejoin="round"/>
<path d="M213.259 249.629H200.883" stroke="black" stroke-linecap="round" stroke-linejoin="round"/>
<path d="M204.589 228.912L195.836 237.666" stroke="black" stroke-linecap="round" stroke-linejoin="round"/>
<path d="M-31.3047 208.539H88.0308C86.2549 192.555 47.1879 191.491 47.1879 191.491C55.3559 191.135 66.0113 187.939 63.5239 184.032C58.3713 175.937 17.7091 189.715 17.7091 189.715C17.7091 189.715 36.5325 185.099 32.272 180.127C23.7483 170.539 -16.386 189.715 -16.386 189.715C-16.386 189.715 -0.402872 182.256 -6.79781 176.219C-13.1899 170.183 -31.3047 179.416 -31.3047 179.416V208.539Z" fill="white" stroke="black" stroke-linecap="round" stroke-linejoin="round"/>
<path d="M-3.42969 469.512H371.268" stroke="black" stroke-width="1.14446" stroke-linecap="round" stroke-linejoin="round"/>
</svg>
