<svg viewBox="0 0 360 91" fill="none" xmlns="http://www.w3.org/2000/svg">
<g clip-path="url(#clip0_760_53858)">
<rect y="-589" width="360" height="680" fill="#FFF9F0"/>
<path d="M9 2H350" stroke="#683E26" stroke-linecap="round" stroke-linejoin="round"/>
<path d="M105.21 30.85C105.21 31.48 105.02 31.94 103.99 32.89C102.23 34.53 102.19 35.09 102.19 35.79V36.3C102.19 37.09 102.61 37.51 103.4 37.51H106.59C107.11 37.51 107.49 37.21 107.49 36.69C107.49 36.16 107.11 35.86 106.59 35.86H104.45V35.71C104.45 35.24 104.75 35.03 105.83 33.87C106.88 32.73 107.37 32.1 107.37 30.85V30.45C107.37 29.03 106.36 28.27 104.79 28.27C103.21 28.27 102.29 29.03 102.29 30.29V30.47C102.29 30.93 102.64 31.32 103.32 31.32C103.99 31.32 104.37 30.93 104.37 30.47V30.28C104.37 30.1 104.45 29.92 104.79 29.92C105.06 29.92 105.21 30.17 105.21 30.45V30.85ZM110.845 30.85C110.845 31.48 110.655 31.94 109.625 32.89C107.865 34.53 107.825 35.09 107.825 35.79V36.3C107.825 37.09 108.245 37.51 109.035 37.51H112.225C112.745 37.51 113.125 37.21 113.125 36.69C113.125 36.16 112.745 35.86 112.225 35.86H110.085V35.71C110.085 35.24 110.385 35.03 111.465 33.87C112.515 32.73 113.005 32.1 113.005 30.85V30.45C113.005 29.03 111.995 28.27 110.425 28.27C108.845 28.27 107.925 29.03 107.925 30.29V30.47C107.925 30.93 108.275 31.32 108.955 31.32C109.625 31.32 110.005 30.93 110.005 30.47V30.28C110.005 30.1 110.085 29.92 110.425 29.92C110.695 29.92 110.845 30.17 110.845 30.45V30.85ZM113.83 36.64C113.69 37.17 113.85 37.62 114.46 37.76C115.13 37.89 115.56 37.59 115.69 37.08L117.68 29.39C117.81 28.86 117.67 28.4 117.05 28.26C116.39 28.13 115.95 28.42 115.82 28.95L113.83 36.64ZM121.541 29.3C121.541 28.74 121.191 28.35 120.561 28.35C120.051 28.35 119.721 28.46 119.481 28.85C119.331 29.07 119.101 29.33 118.811 29.43C118.631 29.49 118.251 29.7 118.251 30.26C118.251 30.72 118.541 31.06 118.971 31.06H119.381V36.58C119.381 37.22 119.841 37.68 120.461 37.68C121.081 37.68 121.541 37.22 121.541 36.58V29.3ZM122.302 35.57C122.302 37 123.472 37.76 124.892 37.76C126.312 37.76 127.482 37 127.482 35.57V30.45C127.482 29.03 126.312 28.27 124.892 28.27C123.472 28.27 122.302 29.03 122.302 30.45V35.57ZM124.362 30.45C124.362 30.17 124.602 29.92 124.892 29.92C125.182 29.92 125.422 30.17 125.422 30.45V35.57C125.422 35.86 125.182 36.11 124.892 36.11C124.602 36.11 124.362 35.86 124.362 35.57V30.45ZM128.429 36.64C128.289 37.17 128.449 37.62 129.059 37.76C129.729 37.89 130.159 37.59 130.289 37.08L132.279 29.39C132.409 28.86 132.269 28.4 131.649 28.26C130.989 28.13 130.549 28.42 130.419 28.95L128.429 36.64ZM136.03 30.85C136.03 31.48 135.84 31.94 134.81 32.89C133.05 34.53 133.01 35.09 133.01 35.79V36.3C133.01 37.09 133.43 37.51 134.22 37.51H137.41C137.93 37.51 138.31 37.21 138.31 36.69C138.31 36.16 137.93 35.86 137.41 35.86H135.27V35.71C135.27 35.24 135.57 35.03 136.65 33.87C137.7 32.73 138.19 32.1 138.19 30.85V30.45C138.19 29.03 137.18 28.27 135.61 28.27C134.03 28.27 133.11 29.03 133.11 30.29V30.47C133.11 30.93 133.46 31.32 134.14 31.32C134.81 31.32 135.19 30.93 135.19 30.47V30.28C135.19 30.1 135.27 29.92 135.61 29.92C135.88 29.92 136.03 30.17 136.03 30.45V30.85ZM138.815 33.85C138.635 34.38 138.545 34.58 138.545 35.05V35.5C138.545 36.02 138.965 36.31 139.755 36.31H141.635V36.7C141.635 37.33 142.005 37.68 142.615 37.68C143.225 37.68 143.595 37.33 143.595 36.7V36.31H143.725C144.095 36.31 144.405 35.96 144.405 35.44C144.405 34.92 144.105 34.57 143.745 34.57H143.595V29.68C143.595 28.89 143.175 28.47 142.385 28.47H141.585C140.905 28.47 140.445 28.78 140.215 29.42L138.815 33.85ZM140.495 34.57L141.625 30.74V34.57H140.495ZM145.524 35.99C145.524 37.57 146.524 38.04 147.704 37.95C148.064 37.93 148.444 37.7 148.444 37.17C148.444 36.7 148.284 36.39 147.854 36.34C147.634 36.3 147.504 36.05 147.504 35.84V30.12C147.504 29.91 147.634 29.66 147.854 29.62C148.284 29.56 148.444 29.26 148.444 28.79C148.444 28.26 148.074 28.03 147.724 28C146.534 27.9 145.524 28.37 145.524 29.97V35.99ZM155.841 30.99V32.62C155.841 33.24 156.351 33.55 156.991 33.55C157.621 33.55 158.141 33.24 158.141 32.62V29.18C158.141 28.55 157.621 28.23 156.991 28.23C156.351 28.23 155.841 28.55 155.841 29.18V29.35H155.811C155.371 29.35 155.101 29.72 155.101 30.17C155.101 30.62 155.371 30.99 155.811 30.99H155.841ZM153.371 31.53C154.311 31.53 154.971 30.84 154.971 30C154.971 29.15 154.311 28.46 153.371 28.46H150.801C149.861 28.46 149.211 29.15 149.211 30C149.211 30.84 149.861 31.53 150.801 31.53H153.371ZM152.841 29.79C152.921 29.79 153.021 29.9 153.021 30.02C153.021 30.14 152.921 30.25 152.841 30.25H151.371C151.271 30.25 151.181 30.14 151.181 30.02C151.181 29.9 151.271 29.79 151.371 29.79H152.841ZM151.811 36.49V36.22H157.481C157.911 36.22 158.141 35.99 158.141 35.56V34.42C158.141 34 157.911 33.78 157.481 33.78H153.001C153.081 33.56 153.131 33.36 153.161 33.13H155.021C155.411 33.13 155.721 32.8 155.721 32.43C155.721 32.05 155.411 31.73 155.021 31.73H149.611C149.231 31.73 148.911 32.05 148.911 32.43C148.911 32.8 149.231 33.13 149.611 33.13H151.041C151.011 33.36 150.961 33.56 150.881 33.78H150.131C149.811 33.78 149.551 34.04 149.551 34.35C149.551 34.67 149.811 34.93 150.131 34.93H155.941V35.18H150.271C149.841 35.18 149.621 35.4 149.621 35.82V37.02C149.621 37.44 149.841 37.66 150.271 37.66H157.771C158.101 37.66 158.361 37.4 158.361 37.08C158.361 36.75 158.101 36.49 157.771 36.49H151.811ZM161.721 29.97C161.721 28.37 160.721 27.91 159.521 28C159.171 28.03 158.801 28.26 158.801 28.79C158.801 29.26 158.971 29.56 159.391 29.62C159.611 29.66 159.751 29.91 159.751 30.12V35.84C159.751 36.05 159.611 36.3 159.401 36.34C158.971 36.39 158.801 36.7 158.801 37.17C158.801 37.7 159.181 37.93 159.541 37.95C160.721 38.04 161.721 37.58 161.721 35.99V29.97ZM166.856 34.19C167.336 34.3 167.626 33.99 167.776 33.58C167.926 33.3 168.086 33.28 168.286 33.28C168.886 33.28 169.646 34.14 170.806 34.14C171.366 34.14 172.226 33.58 172.566 32.47C172.676 32.06 172.566 31.7 172.216 31.59C171.856 31.47 171.446 31.64 171.276 32.02C171.146 32.19 170.996 32.47 170.726 32.47C170.166 32.47 169.496 31.61 168.246 31.61C167.596 31.61 166.886 32.03 166.496 33.15C166.356 33.62 166.406 34.08 166.856 34.19ZM179.302 30.85C179.302 31.48 179.112 31.94 178.082 32.89C176.322 34.53 176.282 35.09 176.282 35.79V36.3C176.282 37.09 176.702 37.51 177.492 37.51H180.682C181.202 37.51 181.582 37.21 181.582 36.69C181.582 36.16 181.202 35.86 180.682 35.86H178.542V35.71C178.542 35.24 178.842 35.03 179.922 33.87C180.972 32.73 181.462 32.1 181.462 30.85V30.45C181.462 29.03 180.452 28.27 178.882 28.27C177.302 28.27 176.382 29.03 176.382 30.29V30.47C176.382 30.93 176.732 31.32 177.412 31.32C178.082 31.32 178.462 30.93 178.462 30.47V30.28C178.462 30.1 178.542 29.92 178.882 29.92C179.152 29.92 179.302 30.17 179.302 30.45V30.85ZM184.937 30.85C184.937 31.48 184.747 31.94 183.717 32.89C181.957 34.53 181.917 35.09 181.917 35.79V36.3C181.917 37.09 182.337 37.51 183.127 37.51H186.317C186.837 37.51 187.217 37.21 187.217 36.69C187.217 36.16 186.837 35.86 186.317 35.86H184.177V35.71C184.177 35.24 184.477 35.03 185.557 33.87C186.607 32.73 187.097 32.1 187.097 30.85V30.45C187.097 29.03 186.087 28.27 184.517 28.27C182.937 28.27 182.017 29.03 182.017 30.29V30.47C182.017 30.93 182.367 31.32 183.047 31.32C183.717 31.32 184.097 30.93 184.097 30.47V30.28C184.097 30.1 184.177 29.92 184.517 29.92C184.787 29.92 184.937 30.17 184.937 30.45V30.85ZM187.921 36.64C187.781 37.17 187.941 37.62 188.551 37.76C189.221 37.89 189.651 37.59 189.781 37.08L191.771 29.39C191.901 28.86 191.761 28.4 191.141 28.26C190.481 28.13 190.041 28.42 189.911 28.95L187.921 36.64ZM195.633 29.3C195.633 28.74 195.283 28.35 194.653 28.35C194.143 28.35 193.813 28.46 193.573 28.85C193.423 29.07 193.193 29.33 192.903 29.43C192.723 29.49 192.343 29.7 192.343 30.26C192.343 30.72 192.633 31.06 193.063 31.06H193.473V36.58C193.473 37.22 193.933 37.68 194.553 37.68C195.173 37.68 195.633 37.22 195.633 36.58V29.3ZM199.214 30.85C199.214 31.48 199.024 31.94 197.994 32.89C196.234 34.53 196.194 35.09 196.194 35.79V36.3C196.194 37.09 196.614 37.51 197.404 37.51H200.594C201.114 37.51 201.494 37.21 201.494 36.69C201.494 36.16 201.114 35.86 200.594 35.86H198.454V35.71C198.454 35.24 198.754 35.03 199.834 33.87C200.884 32.73 201.374 32.1 201.374 30.85V30.45C201.374 29.03 200.364 28.27 198.794 28.27C197.214 28.27 196.294 29.03 196.294 30.29V30.47C196.294 30.93 196.644 31.32 197.324 31.32C197.994 31.32 198.374 30.93 198.374 30.47V30.28C198.374 30.1 198.454 29.92 198.794 29.92C199.064 29.92 199.214 30.17 199.214 30.45V30.85ZM202.199 36.64C202.059 37.17 202.219 37.62 202.829 37.76C203.499 37.89 203.929 37.59 204.059 37.08L206.049 29.39C206.179 28.86 206.039 28.4 205.419 28.26C204.759 28.13 204.319 28.42 204.189 28.95L202.199 36.64ZM209.91 29.3C209.91 28.74 209.56 28.35 208.93 28.35C208.42 28.35 208.09 28.46 207.85 28.85C207.7 29.07 207.47 29.33 207.18 29.43C207 29.49 206.62 29.7 206.62 30.26C206.62 30.72 206.91 31.06 207.34 31.06H207.75V36.58C207.75 37.22 208.21 37.68 208.83 37.68C209.45 37.68 209.91 37.22 209.91 36.58V29.3ZM215.871 30.29C215.871 28.94 214.731 28.27 213.281 28.27C211.861 28.27 210.691 29.03 210.691 30.45V35.57C210.691 37 211.871 37.76 213.281 37.76C214.701 37.76 215.881 37 215.881 35.57V33.88C215.881 32.44 215.241 31.69 213.791 31.69C213.481 31.69 213.131 31.74 212.761 31.88V30.36C212.761 30.06 212.991 29.82 213.281 29.82C213.541 29.82 213.801 30.06 213.801 30.32V30.41C213.801 30.8 214.191 31.17 214.841 31.17C215.491 31.17 215.871 30.79 215.871 30.39V30.29ZM212.761 33.74C212.791 33.45 213.001 33.25 213.281 33.25C213.561 33.25 213.811 33.48 213.811 33.79V35.67C213.811 35.97 213.561 36.2 213.281 36.2C212.991 36.2 212.761 35.97 212.761 35.67V33.74ZM217.418 35.99C217.418 37.57 218.418 38.04 219.598 37.95C219.958 37.93 220.338 37.7 220.338 37.17C220.338 36.7 220.178 36.39 219.748 36.34C219.528 36.3 219.398 36.05 219.398 35.84V30.12C219.398 29.91 219.528 29.66 219.748 29.62C220.178 29.56 220.338 29.26 220.338 28.79C220.338 28.26 219.968 28.03 219.618 28C218.428 27.9 217.418 28.37 217.418 29.97V35.99ZM229.276 31.76C229.566 30.95 229.716 30.16 229.726 29.35C229.736 28.72 229.476 28.35 228.836 28.35H221.886C221.436 28.35 221.066 28.71 221.066 29.16C221.066 29.61 221.436 29.97 221.886 29.97H227.436C227.416 30.55 227.286 31.15 227.046 31.76H221.646C221.186 31.76 220.796 32.14 220.796 32.62C220.796 33.08 221.186 33.46 221.646 33.46H229.406C229.856 33.46 230.246 33.08 230.246 32.62C230.246 32.14 229.856 31.76 229.406 31.76H229.276ZM222.096 33.95C221.536 33.95 221.236 34.25 221.236 34.8V36.79C221.236 37.35 221.566 37.66 222.106 37.64L227.676 37.4C227.856 37.69 228.246 37.8 228.686 37.8C229.306 37.8 229.796 37.6 229.796 36.99V34.8C229.796 34.25 229.496 33.95 228.946 33.95H222.096ZM227.576 35.43V35.91L223.456 36.05V35.43H227.576ZM233.616 29.97C233.616 28.37 232.616 27.91 231.416 28C231.066 28.03 230.696 28.26 230.696 28.79C230.696 29.26 230.866 29.56 231.286 29.62C231.506 29.66 231.646 29.91 231.646 30.12V35.84C231.646 36.05 231.506 36.3 231.296 36.34C230.866 36.39 230.696 36.7 230.696 37.17C230.696 37.7 231.076 37.93 231.436 37.95C232.616 38.04 233.616 37.58 233.616 35.99V29.97Z" fill="#7C492C"/>
<rect x="23" y="22" width="65.75" height="21.2871" rx="10.6436" fill="#7C492C"/>
<path d="M42.639 37.826C43.057 37.826 43.398 37.485 43.398 37.067V34.724C43.398 34.306 43.057 33.965 42.639 33.965H35.379C34.961 33.965 34.62 34.306 34.62 34.724V37.067C34.62 37.485 34.961 37.826 35.379 37.826H42.639ZM34.048 32.59C34.048 33.085 34.411 33.448 34.928 33.448C35.071 33.448 35.225 33.415 35.357 33.36C36.138 33.041 36.919 32.535 37.414 31.677C37.909 32.469 38.679 32.931 39.449 33.25C39.581 33.305 39.735 33.338 39.878 33.338C40.395 33.338 40.758 32.975 40.758 32.48C40.758 32.04 40.527 31.787 40.23 31.666C39.383 31.325 38.657 30.786 38.448 29.917H39.933C40.406 29.917 40.725 29.609 40.725 29.158C40.725 28.685 40.406 28.377 39.933 28.377H38.393V28.157C38.393 27.596 37.953 27.277 37.403 27.277C36.853 27.277 36.413 27.596 36.413 28.157V28.377H34.873C34.444 28.377 34.103 28.685 34.103 29.158C34.103 29.609 34.444 29.917 34.873 29.917H36.358C36.149 30.841 35.423 31.435 34.576 31.776C34.279 31.897 34.048 32.15 34.048 32.59ZM41.418 32.7C41.418 33.272 41.858 33.69 42.408 33.69C42.958 33.69 43.398 33.272 43.398 32.7V31.248H43.992C44.421 31.248 44.762 30.907 44.762 30.478C44.762 30.049 44.421 29.708 43.992 29.708H43.398V28.487C43.398 27.926 42.958 27.497 42.408 27.497C41.858 27.497 41.418 27.926 41.418 28.487V32.7ZM36.578 35.461H41.44V36.33H36.578V35.461ZM44.938 35.054C44.938 36.572 46.247 37.551 47.875 37.551C49.459 37.551 50.757 36.616 50.823 35.164H52.616V36.946C52.616 37.518 53.056 37.936 53.606 37.936C54.156 37.936 54.596 37.518 54.596 36.946V28.487C54.596 27.926 54.156 27.497 53.606 27.497C53.056 27.497 52.616 27.926 52.616 28.487V30.126H50.812C50.735 28.696 49.448 27.772 47.875 27.772C46.247 27.772 44.938 28.762 44.938 30.28V35.054ZM46.896 30.39C46.896 29.785 47.347 29.4 47.886 29.4C48.425 29.4 48.865 29.785 48.865 30.39V34.944C48.865 35.549 48.425 35.923 47.886 35.923C47.347 35.923 46.896 35.549 46.896 34.944V30.39ZM50.823 31.666H52.616V33.624H50.823V31.666ZM63.286 36.946C63.286 37.518 63.726 37.936 64.276 37.936C64.826 37.936 65.266 37.518 65.266 36.946V28.487C65.266 27.926 64.826 27.497 64.276 27.497C63.726 27.497 63.286 27.926 63.286 28.487V36.946ZM55.498 36.473C55.498 36.968 55.883 37.386 56.389 37.386C56.554 37.386 56.73 37.353 56.873 37.287C60.866 35.439 61.933 32.227 61.933 29.312V28.707C61.933 28.278 61.592 27.937 61.163 27.937H56.477C56.026 27.937 55.663 28.3 55.663 28.773C55.663 29.224 56.026 29.587 56.477 29.587H59.953C59.953 32.161 58.754 34.273 56.004 35.637C55.696 35.791 55.498 36.11 55.498 36.473ZM70.535 29.29C70.535 30.566 69.457 31.743 66.982 31.996C66.553 32.04 66.267 32.392 66.267 32.832C66.267 33.316 66.707 33.635 67.18 33.613C71.36 33.415 72.493 30.896 72.493 29.07V28.531C72.493 28.113 72.152 27.772 71.734 27.772H67.202C66.784 27.772 66.443 28.113 66.443 28.531C66.443 28.949 66.784 29.29 67.202 29.29H70.535ZM66.96 36.891C66.96 37.463 67.411 37.826 67.895 37.826H75.298C75.727 37.826 76.068 37.485 76.068 37.056C76.068 36.627 75.727 36.286 75.298 36.286H68.94V34.988C68.94 34.438 68.5 34.108 67.95 34.108C67.4 34.108 66.96 34.438 66.96 34.988V36.891ZM73.758 34.273C73.758 34.845 74.198 35.263 74.748 35.263C75.298 35.263 75.738 34.845 75.738 34.273V31.842H76.332C76.761 31.842 77.102 31.501 77.102 31.072C77.102 30.643 76.761 30.302 76.332 30.302H75.738V28.487C75.738 27.926 75.298 27.497 74.748 27.497C74.198 27.497 73.758 27.926 73.758 28.487V34.273Z" fill="#FFF9F0"/>
<path d="M110.38 56.23C109.74 56.23 109.23 56.66 109.23 57.27V59.9H108.11C108.18 59.38 108.22 58.82 108.22 58.22V57.5C108.22 56.95 107.93 56.64 107.37 56.64H103.36C102.85 56.64 102.42 57.07 102.42 57.58C102.42 58.12 102.85 58.52 103.36 58.52H106.04C106.04 58.94 106.02 59.33 105.97 59.69H103.48C102.99 59.69 102.57 60.1 102.57 60.62C102.57 61.12 102.99 61.53 103.48 61.53H105.38C104.9 62.32 104.15 62.88 103.03 63.28C102.65 63.41 102.36 63.78 102.36 64.22C102.36 64.87 103 65.35 103.64 65.14C105.64 64.5 106.92 63.4 107.6 61.79H109.23V64.74C109.23 65.37 109.74 65.8 110.38 65.8C111.02 65.8 111.53 65.36 111.53 64.74V57.27C111.53 56.66 111.02 56.23 110.38 56.23ZM120.36 65.8C121 65.8 121.52 65.36 121.52 64.72V57.31C121.52 56.66 121 56.23 120.36 56.23C119.69 56.23 119.17 56.66 119.17 57.31V64.72C119.17 65.36 119.69 65.8 120.36 65.8ZM117.92 58.32C118.38 58.32 118.75 57.94 118.75 57.48C118.75 57.03 118.38 56.64 117.92 56.64H113.3C112.85 56.64 112.48 57.03 112.48 57.48C112.48 57.94 112.85 58.32 113.3 58.32H117.92ZM118.02 65.37C118.48 65.37 118.85 65 118.85 64.55C118.85 64.09 118.48 63.71 118.02 63.71H117.88L118.08 59.52C118.1 58.93 117.62 58.54 117.02 58.54C116.48 58.54 116.01 58.86 115.98 59.43L115.84 63.71H115.39L115.26 59.45C115.23 58.87 114.77 58.52 114.2 58.52C113.62 58.52 113.15 58.9 113.16 59.5L113.35 63.71H113.21C112.75 63.71 112.38 64.09 112.38 64.55C112.38 65 112.75 65.37 113.21 65.37H118.02ZM127.42 59.02C127.91 59.02 128.31 58.61 128.31 58.12C128.31 57.63 127.91 57.23 127.42 57.23H126.49V56.98C126.49 56.45 125.98 56.14 125.34 56.14C124.7 56.14 124.19 56.45 124.19 56.98V57.23H123.27C122.78 57.23 122.38 57.63 122.38 58.12C122.38 58.61 122.79 59.02 123.28 59.02H127.42ZM130.09 65.8C130.73 65.8 131.24 65.37 131.24 64.74V61.68H131.49C132.03 61.68 132.29 61.23 132.29 60.69C132.29 60.15 132.03 59.7 131.49 59.7H131.24V57.27C131.24 56.66 130.73 56.23 130.09 56.23C129.46 56.23 128.94 56.66 128.94 57.27V64.74C128.94 65.37 129.46 65.8 130.09 65.8ZM125.33 65.52C126.89 65.52 128.08 64.63 128.08 63.14V61.67C128.08 60.21 126.89 59.3 125.33 59.3C123.79 59.3 122.59 60.21 122.59 61.67V63.14C122.59 64.63 123.79 65.52 125.33 65.52ZM125.36 63.88C125.01 63.88 124.7 63.63 124.7 63.26V61.61C124.7 61.24 125.01 60.97 125.36 60.97C125.69 60.97 126.01 61.24 126.01 61.61V63.26C126.01 63.63 125.69 63.88 125.36 63.88ZM139.22 60.79C140.4 60.79 141.37 59.81 141.37 58.62C141.37 57.42 140.4 56.45 139.22 56.45H134.78C133.6 56.45 132.63 57.42 132.63 58.62C132.63 59.81 133.6 60.79 134.78 60.79H139.22ZM135.26 59.03C135.04 59.03 134.88 58.86 134.88 58.63C134.88 58.43 135.04 58.23 135.26 58.23H138.75C138.96 58.23 139.14 58.4 139.14 58.63C139.14 58.86 138.96 59.03 138.75 59.03H135.26ZM137 65.9C137.65 65.9 138.18 65.46 138.18 64.82V63.32H140.79C141.3 63.32 141.73 62.91 141.73 62.38C141.73 61.86 141.3 61.44 140.79 61.44H133.22C132.71 61.44 132.28 61.86 132.28 62.38C132.28 62.91 132.71 63.32 133.22 63.32H135.82V64.82C135.82 65.46 136.36 65.9 137 65.9ZM143.62 61.98C145.24 61.71 146.29 60.96 147 60.05C147.71 60.96 148.77 61.71 150.39 61.98C150.97 62.07 151.5 61.62 151.5 61.04C151.5 60.57 151.17 60.2 150.75 60.1C149.01 59.69 148.18 58.56 148.18 57.45V57.25C148.18 56.6 147.65 56.27 147.01 56.27C146.36 56.27 145.84 56.6 145.84 57.25V57.45C145.84 58.56 145 59.69 143.26 60.1C142.84 60.2 142.51 60.57 142.51 61.04C142.51 61.62 143.06 62.07 143.62 61.98ZM150.77 65.52C151.3 65.52 151.73 65.1 151.73 64.57C151.73 64.02 151.3 63.59 150.77 63.59H143.25C142.71 63.59 142.28 64.02 142.28 64.57C142.28 65.1 142.71 65.52 143.25 65.52H150.77ZM163.678 56.23C163.158 56.23 162.728 56.45 162.728 56.98V57.99H162.398V56.95C162.398 56.45 161.988 56.23 161.478 56.23C160.958 56.23 160.558 56.45 160.558 56.95V60.79C160.558 61.3 160.958 61.5 161.478 61.5C161.988 61.5 162.398 61.3 162.398 60.79V59.77H162.728V60.76C162.728 61.29 163.158 61.5 163.678 61.5C164.198 61.5 164.628 61.29 164.628 60.76V56.98C164.628 56.45 164.198 56.23 163.678 56.23ZM157.878 61.33C159.048 61.33 160.188 60.66 160.188 59.5V58.2C160.188 57.04 159.048 56.36 157.878 56.36C156.728 56.36 155.588 57.04 155.588 58.2V59.5C155.588 60.66 156.718 61.33 157.878 61.33ZM157.448 58.25C157.448 58.02 157.688 57.84 157.908 57.84C158.128 57.84 158.358 58.02 158.358 58.25V59.45C158.358 59.68 158.128 59.85 157.908 59.85C157.678 59.85 157.448 59.68 157.448 59.45V58.25ZM163.518 61.65C163.048 61.65 162.638 61.82 162.478 62.18H158.158C157.998 61.82 157.598 61.65 157.118 61.65C156.488 61.65 156.008 61.93 156.008 62.55V64.79C156.008 65.35 156.318 65.66 156.878 65.64L162.518 65.41C162.698 65.7 163.078 65.8 163.518 65.8C164.138 65.8 164.628 65.6 164.628 64.99V62.55C164.628 61.93 164.138 61.65 163.518 61.65ZM162.408 63.63V63.91L158.228 64.05V63.63H162.408ZM171.518 56.23C171.018 56.23 170.598 56.55 170.598 57.06V59.81H169.918V58.49C169.918 57.34 168.918 56.52 167.758 56.52C166.588 56.52 165.588 57.34 165.588 58.49V63.55C165.588 64.7 166.588 65.52 167.758 65.52C168.918 65.52 169.918 64.7 169.918 63.55V61.69H170.598V64.97C170.598 65.48 171.018 65.8 171.518 65.8C172.028 65.8 172.448 65.48 172.448 64.97V57.06C172.448 56.55 172.028 56.23 171.518 56.23ZM173.678 56.23C173.158 56.23 172.728 56.56 172.728 57.07V64.95C172.728 65.47 173.158 65.8 173.678 65.8C174.198 65.8 174.628 65.47 174.628 64.95V57.07C174.628 56.56 174.198 56.23 173.678 56.23ZM168.128 63.48C168.128 63.66 167.948 63.78 167.798 63.78C167.648 63.78 167.448 63.66 167.448 63.48V58.56C167.448 58.39 167.648 58.26 167.798 58.26C167.948 58.26 168.128 58.39 168.128 58.56V63.48ZM183.368 65.8C184.008 65.8 184.518 65.36 184.518 64.74V57.27C184.518 56.66 184.008 56.23 183.368 56.23C182.728 56.23 182.218 56.66 182.218 57.27V59.36H181.258C180.728 59.36 180.318 59.8 180.318 60.3C180.318 60.82 180.728 61.25 181.258 61.25H182.218V64.74C182.218 65.37 182.728 65.8 183.368 65.8ZM176.358 65.27C176.618 65.27 176.868 65.19 177.068 65.03C177.628 64.52 178.068 64.02 178.478 63.38C178.888 64.03 179.338 64.53 179.898 65.04C180.078 65.2 180.318 65.3 180.598 65.3C181.198 65.3 181.698 64.8 181.698 64.2C181.698 63.85 181.508 63.54 181.238 63.33C180.188 62.54 179.608 61.59 179.608 58.98V57.46C179.608 56.83 179.098 56.43 178.488 56.43C177.858 56.43 177.338 56.83 177.338 57.46V58.98C177.338 61.59 176.758 62.54 175.708 63.33C175.448 63.54 175.268 63.85 175.268 64.2C175.268 64.8 175.768 65.27 176.358 65.27ZM190.426 58.63C190.426 58.27 190.696 58.13 191.076 58.13C191.436 58.13 191.736 58.32 191.736 58.68V58.74C191.736 59.13 192.146 59.45 192.806 59.45C193.446 59.45 193.876 59.11 193.876 58.54V58.41C193.876 56.86 192.626 56.32 191.076 56.32C189.546 56.32 188.286 56.86 188.286 58.41V59.16C188.286 60.33 188.606 60.93 190.426 61.57C191.636 61.99 191.756 62.14 191.756 63.1V63.34C191.756 63.7 191.426 63.89 191.076 63.89C190.726 63.89 190.406 63.7 190.406 63.34V63.2C190.406 62.68 190.016 62.3 189.336 62.3C188.646 62.3 188.266 62.68 188.266 63.2V63.62C188.266 65.17 189.506 65.71 191.056 65.71C192.596 65.71 193.896 65.17 193.896 63.62V62.68C193.896 61.18 193.786 60.69 191.676 59.88C190.656 59.5 190.426 59.35 190.426 59V58.63ZM194.568 64.49C194.568 65.25 194.948 65.63 195.648 65.63C196.348 65.63 196.728 65.25 196.728 64.49V61.3L197.818 64.87C198.068 65.47 198.468 65.73 199.058 65.63C199.818 65.49 200.118 64.9 199.828 64.24L198.738 60.89L199.758 57.79C200.068 57.1 199.858 56.55 199.108 56.39C198.508 56.28 198.158 56.46 197.868 57.11L196.728 60.52V57.54C196.728 56.78 196.348 56.4 195.648 56.4C194.948 56.4 194.568 56.78 194.568 57.54V64.49ZM201.345 58.56C200.945 58.57 200.615 58.9 200.615 59.32C200.615 59.74 200.965 60.09 201.385 60.07C203.335 59.99 204.445 59.64 205.105 58.98C205.765 59.64 206.875 59.99 208.825 60.07C209.265 60.09 209.605 59.74 209.605 59.32C209.605 58.9 209.265 58.57 208.865 58.56C207.235 58.52 206.535 58.23 206.335 57.87H208.745C209.165 57.87 209.505 57.53 209.505 57.11C209.505 56.68 209.165 56.34 208.745 56.34H201.465C201.055 56.34 200.705 56.68 200.705 57.11C200.705 57.53 201.055 57.87 201.465 57.87H203.865C203.665 58.23 202.985 58.52 201.345 58.56ZM201.235 60.32C200.765 60.32 200.385 60.7 200.385 61.17C200.385 61.62 200.765 62 201.235 62H208.995C209.455 62 209.835 61.62 209.835 61.17C209.835 60.7 209.455 60.32 208.995 60.32H201.235ZM202.365 62.31C201.445 62.31 200.675 63.09 200.675 64.02C200.675 64.97 201.445 65.73 202.365 65.73H207.835C208.755 65.73 209.535 64.97 209.535 64.02C209.535 63.09 208.755 62.31 207.835 62.31H202.365ZM202.955 64.18C202.865 64.18 202.785 64.09 202.785 63.99C202.785 63.9 202.865 63.8 202.955 63.8H207.205C207.295 63.8 207.365 63.9 207.365 63.99C207.365 64.09 207.295 64.18 207.205 64.18H202.955ZM216.185 61.44C215.775 61.44 215.425 61.78 215.425 62.2C215.425 62.63 215.775 62.95 216.185 62.95H217.345C217.455 63.45 217.915 63.77 218.475 63.77C219.105 63.77 219.625 63.36 219.625 62.73V57.27C219.625 56.66 219.105 56.23 218.475 56.23C217.835 56.23 217.325 56.66 217.325 57.27V61.44H216.185ZM212.885 61.15C212.865 61.41 212.825 61.67 212.765 61.93C212.585 62.54 213.185 62.99 213.805 62.99C214.345 62.99 214.715 62.69 214.845 62.16C214.915 61.83 214.975 61.48 215.005 61.15H216.405C216.845 61.15 217.205 60.8 217.205 60.35C217.205 59.9 216.845 59.54 216.405 59.54H216.125C216.355 58.86 216.485 58.19 216.565 57.52C216.645 56.88 216.305 56.5 215.665 56.5H211.465C211.045 56.5 210.685 56.86 210.685 57.28C210.685 57.72 211.045 58.06 211.465 58.06H214.435C214.375 58.56 214.275 59.05 214.085 59.54H211.205C210.765 59.54 210.395 59.9 210.395 60.35C210.395 60.8 210.765 61.15 211.205 61.15H212.885ZM213.265 64.06V63.48C213.265 62.89 212.775 62.6 212.175 62.6C211.575 62.6 211.095 62.89 211.095 63.48V64.72C211.095 65.34 211.435 65.66 212.045 65.66H219.085C219.535 65.66 219.905 65.31 219.905 64.87C219.905 64.42 219.535 64.06 219.085 64.06H213.265ZM229.644 56.23C229.124 56.23 228.704 56.55 228.704 57.06V58.58H227.964C227.974 58.39 227.974 58.2 227.974 58.01V57.5C227.974 56.95 227.674 56.64 227.114 56.64H224.394C223.874 56.64 223.454 57.07 223.454 57.58C223.454 58.12 223.874 58.52 224.394 58.52H225.964C225.964 60.2 225.794 62.42 223.944 63.32C223.624 63.48 223.394 63.8 223.394 64.17C223.394 64.72 223.834 65.14 224.364 65.14C224.494 65.14 224.624 65.11 224.744 65.06C226.284 64.38 227.404 63.01 227.804 60.41H228.704V61.64H228.284C227.804 61.64 227.424 62.04 227.424 62.5C227.424 62.99 227.804 63.38 228.284 63.38H228.704V64.97C228.704 65.48 229.124 65.8 229.644 65.8C230.154 65.8 230.554 65.48 230.554 64.97V57.06C230.554 56.55 230.154 56.23 229.644 56.23ZM231.784 56.23C231.264 56.23 230.834 56.56 230.834 57.07V64.95C230.834 65.47 231.264 65.8 231.784 65.8C232.304 65.8 232.734 65.47 232.734 64.95V57.07C232.734 56.56 232.304 56.23 231.784 56.23ZM242.344 59.71V57.27C242.344 56.66 241.834 56.23 241.194 56.23C240.564 56.23 240.044 56.66 240.044 57.27V64.74C240.044 65.37 240.564 65.8 241.194 65.8C241.834 65.8 242.344 65.37 242.344 64.74V61.7H242.494C243.024 61.7 243.394 61.25 243.394 60.69C243.394 60.16 243.024 59.71 242.494 59.71H242.344ZM234.184 60.27C233.794 60.4 233.484 60.74 233.484 61.18C233.484 61.72 233.974 62.2 234.584 62.07C235.444 61.9 236.074 61.46 236.594 60.81C237.104 61.46 237.724 61.92 238.594 62.07C239.174 62.19 239.694 61.75 239.694 61.18C239.694 60.74 239.384 60.41 239.004 60.27C238.114 59.97 237.674 59.34 237.674 58.34V58.27H238.714C239.184 58.27 239.594 57.87 239.594 57.38C239.594 56.89 239.184 56.5 238.714 56.5H234.484C233.984 56.5 233.594 56.89 233.594 57.38C233.594 57.87 233.984 58.27 234.484 58.27H235.494V58.34C235.494 59.33 235.044 59.96 234.184 60.27ZM238.814 63.46C238.444 63.51 238.084 63.55 237.714 63.58V62.79C237.714 62.17 237.224 61.76 236.594 61.76C235.964 61.76 235.454 62.17 235.454 62.79V63.73C235.054 63.74 234.664 63.75 234.264 63.75C233.784 63.75 233.384 64.2 233.384 64.69C233.384 65.24 233.854 65.63 234.384 65.63C235.904 65.63 237.414 65.53 238.934 65.35C239.524 65.28 239.814 64.9 239.814 64.41C239.814 63.85 239.454 63.38 238.814 63.46ZM252.532 65.8C253.042 65.8 253.452 65.48 253.452 64.97V61.63H253.832V64.95C253.832 65.47 254.262 65.8 254.782 65.8C255.302 65.8 255.732 65.47 255.732 64.95V57.07C255.732 56.56 255.302 56.23 254.782 56.23C254.262 56.23 253.832 56.56 253.832 57.07V59.73H253.452V57.06C253.452 56.55 253.042 56.23 252.532 56.23C252.022 56.23 251.612 56.55 251.612 57.06V64.97C251.612 65.48 252.022 65.8 252.532 65.8ZM247.422 65.15C247.562 65.15 247.692 65.13 247.792 65.08C249.832 64.22 251.182 62.23 251.182 58.01V57.5C251.182 56.95 250.892 56.64 250.332 56.64H247.462C246.952 56.64 246.522 57.07 246.522 57.58C246.522 58.12 246.952 58.52 247.462 58.52H249.172C249.172 60.12 248.962 62.39 247.032 63.31C246.712 63.47 246.462 63.8 246.462 64.19C246.462 64.73 246.912 65.15 247.422 65.15ZM264.482 61.3C265.122 61.3 265.632 60.98 265.632 60.35V57.18C265.632 56.55 265.122 56.23 264.482 56.23C263.842 56.23 263.332 56.55 263.332 57.18V57.42H262.352C261.902 57.42 261.532 57.79 261.532 58.24C261.532 58.7 261.902 59.07 262.352 59.07H263.332V60.35C263.332 60.98 263.842 61.3 264.482 61.3ZM257.342 61.13C257.432 61.13 257.512 61.12 257.582 61.1C258.482 60.82 259.082 60.38 259.592 59.77C260.082 60.39 260.692 60.82 261.602 61.1C261.672 61.12 261.752 61.13 261.842 61.13C262.302 61.13 262.702 60.75 262.702 60.27C262.702 59.89 262.462 59.58 262.132 59.47C261.072 59.08 260.712 58.54 260.712 57.59V57.22C260.712 56.59 260.202 56.28 259.592 56.28C258.972 56.28 258.472 56.59 258.472 57.22V57.51C258.472 58.5 258.122 59.07 257.042 59.47C256.712 59.58 256.482 59.89 256.482 60.28C256.482 60.75 256.862 61.13 257.342 61.13ZM265.262 65.66C265.622 65.66 265.922 65.37 265.922 65.03C265.922 64.67 265.622 64.39 265.262 64.39H259.402V64.09H264.982C265.412 64.09 265.642 63.85 265.642 63.44V62.15C265.642 61.73 265.412 61.49 264.982 61.49H257.652C257.312 61.49 257.032 61.78 257.032 62.11C257.032 62.47 257.312 62.74 257.652 62.74H263.342V62.99H257.752C257.322 62.99 257.102 63.21 257.102 63.64V65.02C257.102 65.44 257.322 65.66 257.752 65.66H265.262ZM270.65 61.69C271.49 61.71 272.31 61.65 273.15 61.51C273.65 61.44 273.98 61.11 273.98 60.63C273.98 60.13 273.58 59.71 273.04 59.82C272.67 59.9 272.3 59.95 271.93 59.95V58.44H273.03C273.58 58.44 273.92 58.05 273.92 57.55C273.92 57.06 273.58 56.65 273.03 56.65H270.63C270.08 56.65 269.78 56.95 269.78 57.52V60.87C269.78 61.44 270.09 61.69 270.65 61.69ZM277.71 61.65C278.25 61.65 278.59 61.26 278.59 60.77C278.59 60.27 278.25 59.88 277.71 59.88H276.29V58.44H277.66C278.2 58.44 278.54 58.05 278.54 57.55C278.54 57.06 278.2 56.65 277.66 56.65H275C274.44 56.65 274.15 56.95 274.15 57.52V60.8C274.15 61.35 274.44 61.65 275 61.65H277.71ZM277.89 65.52C278.4 65.52 278.83 65.11 278.83 64.58C278.83 64.06 278.4 63.64 277.89 63.64H275.28V62.68C275.28 62.02 274.75 61.71 274.1 61.71C273.46 61.71 272.92 62.02 272.92 62.68V63.64H270.32C269.81 63.64 269.38 64.06 269.38 64.58C269.38 65.11 269.81 65.52 270.32 65.52H277.89ZM287.76 59.76C288.2 59.76 288.55 59.39 288.55 58.97C288.55 58.53 288.2 58.18 287.76 58.18H282.08V57.1C282.08 56.48 281.57 56.18 280.96 56.18C280.33 56.18 279.82 56.48 279.82 57.1V58.81C279.82 59.42 280.16 59.76 280.77 59.76H287.76ZM287.96 62.11C288.44 62.11 288.83 61.73 288.83 61.24C288.83 60.77 288.44 60.38 287.96 60.38H280.24C279.77 60.38 279.38 60.77 279.38 61.24C279.38 61.73 279.77 62.11 280.24 62.11H287.96ZM287.82 65.66C288.27 65.66 288.65 65.29 288.65 64.83C288.65 64.37 288.27 63.98 287.82 63.98H282.12V63.34C282.12 62.71 281.61 62.39 280.97 62.39C280.34 62.39 279.82 62.71 279.82 63.34V64.72C279.82 65.34 280.16 65.66 280.77 65.66H287.82ZM295.368 61.97C296.248 61.97 297.028 61.7 297.518 61.17H299.328V62.3C299.328 62.93 299.838 63.25 300.478 63.25C301.108 63.25 301.628 62.93 301.628 62.3V57.18C301.628 56.55 301.108 56.23 300.478 56.23C299.838 56.23 299.328 56.55 299.328 57.18V57.33H297.658C297.178 56.69 296.328 56.36 295.368 56.36C293.888 56.36 292.688 57.13 292.688 58.6V59.74C292.688 61.21 293.888 61.97 295.368 61.97ZM294.788 58.55C294.788 58.2 295.048 57.98 295.378 57.98C295.718 57.98 295.988 58.2 295.988 58.55V59.79C295.988 60.14 295.718 60.34 295.378 60.34C295.048 60.34 294.788 60.14 294.788 59.79V58.55ZM298.048 59.62V58.88H299.328V59.62H298.048ZM295.428 63.94V63.21C295.428 62.57 294.908 62.25 294.268 62.25C293.618 62.25 293.098 62.57 293.098 63.21V64.72C293.098 65.34 293.428 65.66 294.038 65.66H301.038C301.508 65.66 301.898 65.28 301.898 64.8C301.898 64.34 301.508 63.94 301.038 63.94H295.428ZM308.198 60.41V59.78H310.808C311.208 59.78 311.548 59.45 311.548 59.04C311.548 58.63 311.208 58.3 310.808 58.3H305.158V57.79H310.778C311.158 57.79 311.498 57.46 311.498 57.07C311.498 56.68 311.158 56.35 310.778 56.35H303.678C303.118 56.35 302.818 56.64 302.818 57.2V58.92C302.818 59.48 303.118 59.78 303.678 59.78H305.988V60.41H303.168C302.728 60.41 302.378 60.77 302.378 61.2C302.378 61.63 302.728 61.98 303.168 61.98H311.038C311.478 61.98 311.828 61.63 311.828 61.2C311.828 60.77 311.478 60.41 311.038 60.41H308.198ZM304.358 62.35C303.438 62.35 302.668 63.11 302.668 64.05C302.668 64.97 303.438 65.73 304.358 65.73H309.828C310.748 65.73 311.528 64.97 311.528 64.05C311.528 63.11 310.748 62.35 309.828 62.35H304.358ZM304.938 64.21C304.858 64.21 304.778 64.1 304.778 64.01C304.778 63.92 304.858 63.83 304.938 63.83H309.208C309.288 63.83 309.358 63.92 309.358 64.01C309.358 64.1 309.288 64.21 309.208 64.21H304.938ZM317.778 58.38C318.208 58.38 318.558 58.05 318.558 57.61C318.558 57.19 318.208 56.86 317.778 56.86H316.718V56.63C316.718 56.16 316.188 55.94 315.518 55.94C314.848 55.94 314.318 56.16 314.318 56.63V56.86H313.248C312.828 56.86 312.488 57.19 312.488 57.61C312.488 58.05 312.828 58.38 313.248 58.38H317.778ZM320.188 63.34C320.828 63.34 321.338 63.02 321.338 62.4V60.49H321.528C322.058 60.49 322.388 60.06 322.388 59.54C322.388 59.02 322.058 58.6 321.528 58.6H321.338V57.18C321.338 56.55 320.828 56.23 320.188 56.23C319.548 56.23 319.038 56.55 319.038 57.18V62.4C319.038 63.02 319.548 63.34 320.188 63.34ZM312.688 60.37C312.688 61.35 313.388 62.12 314.158 62.12H316.898C317.668 62.12 318.358 61.35 318.358 60.37C318.358 59.4 317.668 58.63 316.898 58.63H314.158C313.388 58.63 312.688 59.4 312.688 60.37ZM314.848 60.64C314.708 60.64 314.618 60.49 314.618 60.37C314.618 60.22 314.708 60.11 314.848 60.11H316.248C316.378 60.11 316.478 60.22 316.478 60.37C316.478 60.49 316.378 60.64 316.248 60.64H314.848ZM320.808 65.66C321.278 65.66 321.668 65.28 321.668 64.8C321.668 64.34 321.278 63.94 320.808 63.94H315.438V63.5C315.438 62.87 314.918 62.54 314.278 62.54C313.638 62.54 313.108 62.87 313.108 63.5V64.72C313.108 65.34 313.448 65.66 314.068 65.66H320.808ZM332.836 63.39C333.446 63.39 333.886 63.02 333.966 62.44C334.206 60.89 334.306 59.34 334.346 57.81C334.366 56.96 333.956 56.51 333.116 56.51H326.566C326.066 56.51 325.656 56.92 325.656 57.41C325.656 57.92 326.066 58.33 326.566 58.33H332.046C332.026 59.65 331.936 60.99 331.716 62.3C331.606 62.94 332.196 63.39 332.836 63.39ZM333.886 65.52C334.396 65.52 334.826 65.11 334.826 64.58C334.826 64.06 334.396 63.64 333.886 63.64H330.466V60.92C330.466 60.3 329.966 59.89 329.336 59.89C328.716 59.89 328.206 60.3 328.206 60.92V63.64H326.316C325.806 63.64 325.376 64.06 325.376 64.58C325.376 65.11 325.806 65.52 326.316 65.52H333.886ZM341.586 61.84C342.096 61.84 342.496 61.54 342.496 61.03V59.87H342.826V61.02C342.826 61.53 343.256 61.84 343.776 61.84C344.296 61.84 344.726 61.53 344.726 61.02V57.07C344.726 56.56 344.296 56.23 343.776 56.23C343.256 56.23 342.826 56.56 342.826 57.07V58.08H342.496V57.06C342.496 56.55 342.096 56.23 341.586 56.23C341.066 56.23 340.646 56.55 340.646 57.06V61.03C340.646 61.54 341.066 61.84 341.586 61.84ZM336.446 61.66C338.356 61.45 340.296 60.47 340.296 57.64V57.34C340.296 56.79 339.996 56.51 339.446 56.51H336.416C335.946 56.51 335.566 56.89 335.566 57.34C335.566 57.8 335.946 58.19 336.416 58.19H338.366C338.366 59.09 337.726 59.83 336.256 60C335.836 60.04 335.506 60.4 335.506 60.84C335.506 61.33 335.946 61.72 336.446 61.66ZM342.386 63.75V64.82C342.386 65.46 342.906 65.78 343.566 65.78C344.206 65.78 344.726 65.46 344.726 64.82V63.01C344.726 62.4 344.386 62.07 343.776 62.07H336.736C336.266 62.07 335.886 62.44 335.886 62.9C335.886 63.37 336.266 63.75 336.736 63.75H342.386Z" fill="#7C492C"/>
<rect x="23" y="50" width="65.75" height="21.2871" rx="10.6436" fill="#7C492C"/>
<path d="M42.639 65.826C43.057 65.826 43.398 65.485 43.398 65.067V62.724C43.398 62.306 43.057 61.965 42.639 61.965H35.379C34.961 61.965 34.62 62.306 34.62 62.724V65.067C34.62 65.485 34.961 65.826 35.379 65.826H42.639ZM34.048 60.59C34.048 61.085 34.411 61.448 34.928 61.448C35.071 61.448 35.225 61.415 35.357 61.36C36.138 61.041 36.919 60.535 37.414 59.677C37.909 60.469 38.679 60.931 39.449 61.25C39.581 61.305 39.735 61.338 39.878 61.338C40.395 61.338 40.758 60.975 40.758 60.48C40.758 60.04 40.527 59.787 40.23 59.666C39.383 59.325 38.657 58.786 38.448 57.917H39.933C40.406 57.917 40.725 57.609 40.725 57.158C40.725 56.685 40.406 56.377 39.933 56.377H38.393V56.157C38.393 55.596 37.953 55.277 37.403 55.277C36.853 55.277 36.413 55.596 36.413 56.157V56.377H34.873C34.444 56.377 34.103 56.685 34.103 57.158C34.103 57.609 34.444 57.917 34.873 57.917H36.358C36.149 58.841 35.423 59.435 34.576 59.776C34.279 59.897 34.048 60.15 34.048 60.59ZM41.418 60.7C41.418 61.272 41.858 61.69 42.408 61.69C42.958 61.69 43.398 61.272 43.398 60.7V59.248H43.992C44.421 59.248 44.762 58.907 44.762 58.478C44.762 58.049 44.421 57.708 43.992 57.708H43.398V56.487C43.398 55.926 42.958 55.497 42.408 55.497C41.858 55.497 41.418 55.926 41.418 56.487V60.7ZM36.578 63.461H41.44V64.33H36.578V63.461ZM44.938 63.054C44.938 64.572 46.247 65.551 47.875 65.551C49.459 65.551 50.757 64.616 50.823 63.164H52.616V64.946C52.616 65.518 53.056 65.936 53.606 65.936C54.156 65.936 54.596 65.518 54.596 64.946V56.487C54.596 55.926 54.156 55.497 53.606 55.497C53.056 55.497 52.616 55.926 52.616 56.487V58.126H50.812C50.735 56.696 49.448 55.772 47.875 55.772C46.247 55.772 44.938 56.762 44.938 58.28V63.054ZM46.896 58.39C46.896 57.785 47.347 57.4 47.886 57.4C48.425 57.4 48.865 57.785 48.865 58.39V62.944C48.865 63.549 48.425 63.923 47.886 63.923C47.347 63.923 46.896 63.549 46.896 62.944V58.39ZM50.823 59.666H52.616V61.624H50.823V59.666ZM63.561 64.979C63.561 65.529 63.99 65.936 64.518 65.936C65.057 65.936 65.486 65.529 65.486 64.979V56.454C65.486 55.915 65.057 55.497 64.518 55.497C63.99 55.497 63.561 55.915 63.561 56.454V59.534H62.945V56.498C62.945 55.97 62.527 55.552 61.988 55.552C61.471 55.552 61.042 55.97 61.042 56.498V64.935C61.042 65.474 61.471 65.881 61.988 65.881C62.527 65.881 62.945 65.474 62.945 64.935V61.162H63.561V64.979ZM57.027 65.386C58.127 65.386 59.249 65.287 60.14 65.034C60.525 64.924 60.767 64.627 60.767 64.242C60.767 63.78 60.404 63.417 59.942 63.417C59.821 63.417 59.744 63.439 59.634 63.472C58.93 63.681 58.281 63.758 57.632 63.758V57.565H59.656C60.107 57.565 60.415 57.202 60.415 56.751C60.415 56.3 60.107 55.937 59.656 55.937H56.477C56.059 55.937 55.718 56.278 55.718 56.696V64.627C55.718 65.045 56.059 65.386 56.477 65.386H57.027ZM68.951 65.826H73.736C74.902 65.826 75.848 64.924 75.848 63.769C75.848 62.603 74.902 61.701 73.736 61.701H68.951C67.796 61.701 66.85 62.603 66.85 63.769C66.85 64.924 67.796 65.826 68.951 65.826ZM66.333 60.172C66.333 60.667 66.718 61.063 67.235 61.063C67.389 61.063 67.565 61.019 67.686 60.964C68.5 60.601 69.259 59.996 69.754 59.094C70.249 59.941 70.997 60.491 71.8 60.854C71.921 60.909 72.097 60.953 72.251 60.953C72.768 60.953 73.153 60.557 73.153 60.062C73.153 59.666 72.966 59.38 72.647 59.226C71.316 58.588 70.733 57.631 70.733 56.685V56.542C70.733 55.992 70.293 55.607 69.743 55.607C69.193 55.607 68.753 55.992 68.753 56.542V56.685C68.753 57.631 68.17 58.698 66.839 59.336C66.52 59.49 66.333 59.776 66.333 60.172ZM73.758 60.546C73.758 61.118 74.198 61.536 74.748 61.536C75.298 61.536 75.738 61.118 75.738 60.546V59.182H76.332C76.761 59.182 77.102 58.841 77.102 58.412C77.102 57.983 76.761 57.642 76.332 57.642H75.738V56.487C75.738 55.926 75.298 55.497 74.748 55.497C74.198 55.497 73.758 55.926 73.758 56.487V60.546ZM68.808 63.769C68.808 63.439 69.061 63.197 69.391 63.197H73.296C73.626 63.197 73.89 63.439 73.89 63.769C73.89 64.099 73.626 64.33 73.296 64.33H69.391C69.061 64.33 68.808 64.099 68.808 63.769Z" fill="#FFF9F0"/>
</g>
<defs>
<clipPath id="clip0_760_53858">
<rect width="360" height="91" fill="white"/>
</clipPath>
</defs>
</svg>
