<svg viewBox="0 0 360 319" fill="none" xmlns="http://www.w3.org/2000/svg">
<rect width="360" height="319" fill="#FFF9F0"/>
<path d="M306.293 309.522L288.4 289.104C286.954 287.451 284.366 289.31 285.465 291.21L299.032 314.717C300.358 317.011 303.372 317.66 305.53 316.117C307.688 314.574 308.038 311.504 306.291 309.511L306.293 309.522Z" fill="#F3DECF"/>
<path d="M316.791 291.468C318.188 289.256 317.311 286.326 314.935 285.24L298.59 277.819C296.626 276.83 294.926 279.528 296.655 280.874L310.37 292.458C312.369 294.145 315.395 293.68 316.791 291.468Z" fill="#F3DECF"/>
<path d="M278.575 318.84C276.03 319.455 273.532 317.677 273.277 315.075L271.506 297.216C271.205 295.04 274.296 294.294 275.021 296.373L281.582 313.077C282.537 315.512 281.126 318.23 278.582 318.844L278.575 318.84Z" fill="#F3DECF"/>
<path d="M253.771 312.347C251.332 311.394 250.293 308.512 251.569 306.235L258.665 295.317C259.661 293.358 262.63 294.513 262.03 296.629L259.524 309.335C258.917 311.88 256.21 313.301 253.767 312.355L253.771 312.347Z" fill="#F3DECF"/>
<path d="M318.608 265.894C318.492 263.279 316.095 261.373 313.529 261.843L300.906 265.049C298.732 265.361 298.871 268.536 301.064 268.659L313.904 270.372C316.504 270.619 318.729 268.502 318.62 265.892L318.608 265.894Z" fill="#F3DECF"/>
<rect x="90" y="54" width="180.3" height="29.0529" rx="14.5264" fill="#7C492C"/>
<g clip-path="url(#clip0_690_45342)">
<path d="M174.812 67.966C174.4 67.7398 173.935 67.6211 173.463 67.6211C172.99 67.6211 172.526 67.7398 172.113 67.966C171.711 68.1906 171.378 68.5178 171.149 68.913C170.912 69.321 170.791 69.7835 170.797 70.2529C170.793 70.7115 170.915 71.1627 171.149 71.5594C171.383 71.9562 171.72 72.2851 172.126 72.5127C172.531 72.7403 172.991 72.8584 173.458 72.8551C173.932 72.8595 174.4 72.7403 174.812 72.5095C175.215 72.2829 175.548 71.9539 175.777 71.5572C176.011 71.1504 176.132 70.6901 176.128 70.2227C176.132 69.7628 176.01 69.3104 175.777 68.9119C175.547 68.5176 175.214 68.1909 174.812 67.966ZM174.741 71.0271C174.618 71.2542 174.437 71.4462 174.216 71.5842C173.992 71.7219 173.732 71.7925 173.468 71.7872C173.198 71.7921 172.933 71.7197 172.705 71.5788C172.479 71.4394 172.297 71.2428 172.176 71.0098C172.051 70.7677 171.986 70.5001 171.986 70.2286C171.986 69.9572 172.051 69.6895 172.176 69.4474C172.297 69.2155 172.481 69.0217 172.709 68.888C172.937 68.7544 173.198 68.6863 173.463 68.6916C173.73 68.6886 173.991 68.7638 174.214 68.9076C174.439 69.0511 174.622 69.2499 174.744 69.4841C174.871 69.7237 174.937 69.9896 174.937 70.2594C174.937 70.5292 174.871 70.7951 174.744 71.0346L174.741 71.0271Z" fill="white"/>
<path d="M143.182 69.6094C143.266 69.8116 143.309 70.028 143.308 70.2464C143.311 70.5162 143.245 70.7823 143.116 71.0206C142.993 71.2479 142.813 71.44 142.591 71.5777C142.367 71.7159 142.107 71.7869 141.843 71.7818C141.573 71.7862 141.309 71.7134 141.081 71.5723C140.855 71.4326 140.673 71.2356 140.552 71.0022C140.426 70.7605 140.36 70.4931 140.359 70.2217C140.358 69.9502 140.422 69.6824 140.546 69.4399C140.667 69.208 140.852 69.0141 141.08 68.8805C141.307 68.7468 141.569 68.6787 141.834 68.684C142.1 68.681 142.362 68.7562 142.585 68.9C142.81 69.0436 142.992 69.2423 143.115 69.4766C143.14 69.5217 143.162 69.5682 143.182 69.6158V69.6094ZM144.195 68.9918L144.153 68.9129C144.054 68.7463 143.938 68.5906 143.805 68.4487C143.626 68.2581 143.418 68.0953 143.188 67.966C142.776 67.7398 142.311 67.6211 141.838 67.6211C141.366 67.6211 140.901 67.7398 140.488 67.966C140.086 68.1912 139.753 68.5182 139.524 68.9129C139.288 69.3211 139.167 69.7835 139.172 70.2529C139.171 70.7091 139.292 71.1577 139.523 71.5532C139.755 71.9487 140.089 72.2771 140.491 72.5052C140.9 72.7386 141.365 72.8598 141.838 72.8561C142.313 72.8605 142.78 72.7413 143.193 72.5106C143.595 72.284 143.928 71.955 144.157 71.5583C144.391 71.1515 144.513 70.6912 144.509 70.2237C144.51 69.7918 144.403 69.3662 144.195 68.9853V68.9918Z" fill="white"/>
<path d="M137.514 71.0234C137.392 71.2507 137.211 71.4428 136.99 71.5805C136.766 71.7184 136.506 71.7889 136.241 71.7835C135.972 71.7883 135.707 71.7159 135.479 71.5751C135.254 71.4357 135.071 71.2391 134.95 71.0061C134.825 70.7644 134.759 70.497 134.758 70.2256C134.757 69.9541 134.821 69.6863 134.945 69.4437C135.066 69.212 135.25 69.0183 135.478 68.8846C135.705 68.751 135.966 68.6828 136.231 68.6879C136.498 68.6847 136.76 68.7599 136.983 68.9039C137.119 68.9903 137.239 69.097 137.341 69.2202C137.406 69.2998 137.479 69.3723 137.561 69.4362C137.61 69.4752 137.664 69.5082 137.722 69.5344H137.728C137.896 69.6152 138.084 69.6487 138.27 69.6314C138.456 69.614 138.634 69.5465 138.784 69.4362C138.736 69.2823 138.672 69.1334 138.595 68.9913C138.582 68.9643 138.568 68.9384 138.553 68.9125C138.455 68.7459 138.338 68.5902 138.206 68.4482C138.026 68.2573 137.818 68.0946 137.588 67.9656L137.478 67.9051C137.075 67.7084 136.629 67.6112 136.178 67.6219C135.728 67.6326 135.287 67.751 134.894 67.9666C134.492 68.1918 134.159 68.5189 133.93 68.9136C133.694 69.3218 133.573 69.7842 133.578 70.2535C133.577 70.7098 133.698 71.1583 133.93 71.5538C134.161 71.9493 134.495 72.2777 134.898 72.5058C135.306 72.739 135.771 72.8602 136.243 72.8568C136.718 72.8614 137.185 72.7421 137.598 72.5113C138.001 72.285 138.335 71.956 138.563 71.5589C138.641 71.4242 138.706 71.2829 138.758 71.1367L137.631 70.7362C137.602 70.8355 137.563 70.9317 137.514 71.0234Z" fill="white"/>
<path d="M156.767 70.7722C156.803 70.5915 156.821 70.4078 156.821 70.2237C156.823 69.7944 156.717 69.3712 156.512 68.9918C156.498 68.9648 156.485 68.9389 156.469 68.9129C156.371 68.7463 156.255 68.5906 156.122 68.4487C155.942 68.2581 155.734 68.0953 155.505 67.966C155.092 67.7398 154.628 67.6211 154.155 67.6211C153.682 67.6211 153.218 67.7398 152.805 67.966C152.403 68.1912 152.07 68.5182 151.841 68.9129C151.603 69.3207 151.48 69.7831 151.484 70.2529C151.483 70.7091 151.604 71.1577 151.836 71.5532C152.068 71.9487 152.401 72.2771 152.804 72.5052C153.213 72.7386 153.678 72.8598 154.151 72.8561C154.625 72.8605 155.093 72.7413 155.505 72.5106C155.853 72.3157 156.149 72.0436 156.37 71.7159C156.206 71.5171 155.969 71.388 155.71 71.355C155.451 71.3221 155.19 71.3879 154.979 71.5389C154.955 71.555 154.932 71.5691 154.908 71.5842C154.685 71.7224 154.425 71.7933 154.161 71.7883C153.891 71.7928 153.626 71.72 153.398 71.5788C153.172 71.4393 152.99 71.2428 152.869 71.0098C152.828 70.9332 152.794 70.8538 152.765 70.7722H156.767ZM152.863 69.4474C152.984 69.2155 153.169 69.0217 153.396 68.888C153.624 68.7544 153.885 68.6863 154.151 68.6916C154.417 68.6886 154.679 68.7637 154.902 68.9075C155.126 69.0511 155.309 69.2499 155.432 69.4841C155.457 69.5293 155.479 69.5758 155.499 69.6234C155.511 69.6526 155.519 69.6817 155.53 69.7109H152.755C152.783 69.62 152.819 69.5318 152.863 69.4474Z" fill="white"/>
<path d="M191.63 70.7723C191.666 70.5915 191.683 70.4078 191.683 70.2238C191.686 69.7943 191.579 69.3709 191.374 68.9918C191.361 68.9648 191.347 68.9389 191.332 68.913C191.234 68.7463 191.117 68.5907 190.985 68.4487C190.805 68.2578 190.597 68.095 190.367 67.966C189.954 67.7398 189.49 67.6211 189.017 67.6211C188.545 67.6211 188.08 67.7398 187.668 67.966C187.266 68.1912 186.933 68.5182 186.704 68.913C186.468 69.3212 186.346 69.7835 186.352 70.2529C186.35 70.7092 186.472 71.1577 186.703 71.5532C186.935 71.9487 187.269 72.2771 187.671 72.5052C188.08 72.7384 188.544 72.8596 189.017 72.8561C189.492 72.8607 189.959 72.7415 190.371 72.5106C190.719 72.3158 191.016 72.0436 191.238 71.7159C191.073 71.5171 190.836 71.3879 190.577 71.3549C190.318 71.322 190.056 71.3878 189.845 71.5389C189.823 71.5551 189.8 71.5691 189.775 71.5842C189.551 71.7224 189.291 71.7933 189.027 71.7883C188.757 71.7927 188.493 71.7199 188.265 71.5788C188.039 71.4397 187.856 71.243 187.736 71.0098C187.695 70.9334 187.661 70.854 187.633 70.7723H191.635H191.63ZM187.726 69.4474C187.847 69.2157 188.031 69.022 188.259 68.8883C188.486 68.7547 188.747 68.6865 189.012 68.6916C189.279 68.6884 189.541 68.7636 189.764 68.9076C189.989 69.0515 190.171 69.2502 190.294 69.4841C190.319 69.5295 190.342 69.5759 190.361 69.6234C190.374 69.6526 190.382 69.6817 190.393 69.7109H187.618C187.646 69.62 187.682 69.5318 187.726 69.4474Z" fill="white"/>
<path d="M162.38 70.7723C162.416 70.5915 162.433 70.4078 162.433 70.2238C162.436 69.7943 162.329 69.3709 162.124 68.9918C162.11 68.9648 162.097 68.9389 162.081 68.913C161.984 68.7461 161.867 68.5904 161.735 68.4487C161.555 68.2578 161.347 68.095 161.117 67.966C160.704 67.7398 160.24 67.6211 159.767 67.6211C159.295 67.6211 158.83 67.7398 158.418 67.966C158.016 68.1912 157.683 68.5182 157.454 68.913C157.218 69.3212 157.096 69.7835 157.102 70.2529C157.1 70.7092 157.222 71.1577 157.453 71.5532C157.685 71.9487 158.019 72.2771 158.421 72.5052C158.83 72.7384 159.294 72.8596 159.767 72.8561C160.242 72.8607 160.709 72.7415 161.121 72.5106C161.469 72.3158 161.766 72.0436 161.988 71.7159C161.823 71.5171 161.586 71.3879 161.327 71.3549C161.068 71.322 160.806 71.3878 160.595 71.5389C160.573 71.5551 160.549 71.5691 160.525 71.5842C160.301 71.7224 160.041 71.7933 159.777 71.7883C159.507 71.7927 159.243 71.7199 159.015 71.5788C158.789 71.4397 158.606 71.243 158.486 71.0098C158.445 70.9334 158.411 70.854 158.383 70.7723H162.385H162.38ZM158.476 69.4474C158.597 69.2157 158.781 69.022 159.009 68.8883C159.236 68.7547 159.497 68.6865 159.762 68.6916C160.029 68.6884 160.291 68.7636 160.513 68.9076C160.739 69.051 160.922 69.2498 161.044 69.4841C161.069 69.5295 161.092 69.5759 161.111 69.6234C161.124 69.6526 161.132 69.6817 161.143 69.7109H158.368C158.396 69.62 158.432 69.5318 158.476 69.4474Z" fill="white"/>
<path d="M169.721 68.201C169.365 67.8112 168.861 67.6147 168.225 67.6147C167.75 67.6013 167.286 67.7544 166.915 68.0466V67.6147V66.2737C166.915 66.1419 166.889 66.0113 166.838 65.8895C166.786 65.7677 166.711 65.657 166.616 65.5637C166.521 65.4704 166.409 65.3965 166.285 65.346C166.161 65.2955 166.028 65.2695 165.894 65.2695H165.719V72.8503H166.915V69.9059C166.908 69.6258 166.996 69.3514 167.165 69.1253C167.288 68.9497 167.466 68.8173 167.671 68.7471C167.877 68.677 168.099 68.6729 168.307 68.7352C168.515 68.7976 168.698 68.9233 168.828 69.0941C168.959 69.2649 169.031 69.4721 169.034 69.6856V72.8503H170.231V69.4384C170.205 68.9818 170.026 68.5466 169.721 68.201Z" fill="white"/>
<path d="M181.03 67.6133C180.896 67.6131 180.763 67.639 180.639 67.6893C180.515 67.7397 180.402 67.8135 180.307 67.9067C180.212 67.9999 180.137 68.1105 180.086 68.2322C180.034 68.354 180.008 68.4845 180.008 68.6164V70.5599C180.015 70.8404 179.927 71.1154 179.758 71.3416C179.634 71.5173 179.457 71.6497 179.251 71.7198C179.046 71.7899 178.823 71.794 178.615 71.7315C178.407 71.669 178.224 71.5431 178.094 71.3721C177.963 71.2011 177.892 70.9938 177.889 70.7801V67.6165H176.688V71.0274C176.715 71.4848 176.896 71.9204 177.202 72.2659C177.559 72.6546 178.062 72.8521 178.698 72.8521C179.173 72.8656 179.637 72.7125 180.008 72.4203V72.8521H181.205V67.6133H181.03Z" fill="white"/>
<path d="M181.766 71.2369L181.778 71.3017C181.863 71.7141 182.085 72.0871 182.41 72.362C182.604 72.5327 182.835 72.6582 183.086 72.7291C183.38 72.8133 183.686 72.8537 183.992 72.8489C184.345 72.8524 184.694 72.7856 185.02 72.6524C185.321 72.534 185.587 72.3409 185.79 72.092C185.983 71.8497 186.086 71.55 186.082 71.2423C186.082 71.1861 186.082 71.1343 186.073 71.0771C185.879 69.9822 184.624 69.8051 183.915 69.7166L183.873 69.7112L183.739 69.6939C183.714 69.6914 183.689 69.6874 183.664 69.6821C183.573 69.664 183.486 69.6323 183.405 69.5881C183.127 69.4337 183.09 69.2448 183.087 69.1778V69.1519V69.1249C183.087 69.0547 183.127 68.8593 183.405 68.6984C183.565 68.6244 183.739 68.5861 183.916 68.5861C184.092 68.5861 184.267 68.6244 184.426 68.6984C184.493 68.7367 184.554 68.784 184.608 68.8388C184.773 69.0103 184.994 69.119 185.233 69.1457C185.472 69.1723 185.713 69.1153 185.913 68.9845C185.88 68.7534 185.784 68.5352 185.636 68.3529C185.438 68.1118 185.182 67.9232 184.89 67.8044C184.591 67.6779 184.269 67.6129 183.944 67.6133H183.886C183.561 67.6129 183.24 67.6779 182.941 67.8044C182.65 67.9229 182.393 68.1115 182.196 68.3529C182.001 68.5934 181.898 68.8925 181.902 69.1994C181.901 69.3126 181.913 69.4255 181.937 69.5363C181.946 69.5687 182.172 70.3731 183.337 70.5426C183.557 70.575 183.749 70.6052 183.915 70.6365C184.629 70.7715 184.867 70.9237 184.867 71.2909C184.87 71.3741 184.849 71.4566 184.808 71.5294C184.767 71.6022 184.706 71.6627 184.633 71.7044C184.44 71.8238 184.215 71.8832 183.987 71.875C183.826 71.8846 183.665 71.8569 183.517 71.7941C183.37 71.7312 183.239 71.635 183.137 71.5133C182.987 71.3059 182.763 71.162 182.509 71.1107C182.256 71.0594 181.992 71.1045 181.771 71.2369" fill="white"/>
<path d="M150.456 67.615H149.942V67.2738L149.956 66.9186C149.96 66.7577 150.028 66.6046 150.145 66.4921C150.262 66.3795 150.419 66.3163 150.583 66.3161C150.795 66.3245 151.003 66.3783 151.191 66.4737L151.205 66.4802V65.4825C150.955 65.342 150.672 65.2686 150.384 65.2695C150.096 65.2705 149.813 65.3459 149.564 65.4881C149.315 65.6303 149.108 65.8343 148.965 66.0797C148.822 66.3251 148.746 66.6033 148.747 66.8862C148.747 66.8765 148.747 67.1291 148.747 67.181V67.6183H146.864V67.2771L146.878 66.9218C146.882 66.761 146.949 66.6079 147.066 66.4953C147.184 66.3827 147.341 66.3196 147.505 66.3193C147.717 66.3277 147.924 66.3815 148.113 66.477L148.127 66.4835V65.4858C147.877 65.3453 147.594 65.2718 147.306 65.2728C147.017 65.2738 146.735 65.3491 146.486 65.4913C146.237 65.6335 146.03 65.8376 145.887 66.083C145.743 66.3284 145.668 66.6065 145.669 66.8894C145.669 66.8797 145.669 67.1324 145.669 67.1842V67.6215H144.789V68.6894H145.669V72.8571H146.864V68.6894H148.742V72.8571H149.942V68.6894H150.187C150.322 68.6894 150.455 68.6634 150.579 68.6129C150.703 68.5625 150.815 68.4885 150.91 68.3952C151.005 68.302 151.081 68.1913 151.132 68.0695C151.183 67.9476 151.21 67.8171 151.21 67.6852V67.6215H150.459L150.456 67.615Z" fill="white"/>
<path d="M126.116 63.1055C125.835 63.1055 125.557 63.1597 125.298 63.2652C125.039 63.3706 124.804 63.5252 124.605 63.72C124.407 63.9148 124.25 64.1461 124.143 64.4006C124.035 64.6552 123.98 64.9279 123.98 65.2034V70.669C123.993 71.217 124.224 71.7384 124.623 72.1216C125.022 72.5048 125.558 72.7193 126.116 72.7193C126.674 72.7193 127.21 72.5048 127.609 72.1216C128.009 71.7384 128.239 71.217 128.252 70.669V65.2034C128.252 64.647 128.027 64.1134 127.626 63.7199C127.226 63.3265 126.682 63.1055 126.116 63.1055Z" fill="white"/>
<path d="M120.909 65.4648C120.342 65.4648 119.799 65.6858 119.399 66.079C118.998 66.4722 118.773 67.0056 118.773 67.5617V73.0273C118.773 73.3027 118.829 73.5753 118.936 73.8297C119.043 74.0841 119.201 74.3153 119.399 74.51C119.597 74.7047 119.832 74.8591 120.091 74.9645C120.351 75.0699 120.628 75.1241 120.909 75.1241C121.189 75.1241 121.467 75.0699 121.726 74.9645C121.985 74.8591 122.22 74.7047 122.418 74.51C122.617 74.3153 122.774 74.0841 122.881 73.8297C122.988 73.5753 123.044 73.3027 123.044 73.0273V67.5617C123.044 67.0056 122.819 66.4722 122.418 66.079C122.018 65.6858 121.475 65.4648 120.909 65.4648Z" fill="white"/>
<path d="M115.842 68.5703C115.562 68.5703 115.284 68.6246 115.025 68.73C114.766 68.8355 114.53 68.99 114.332 69.1848C114.134 69.3797 113.976 69.611 113.869 69.8655C113.762 70.12 113.707 70.3928 113.707 70.6682V72.3818C113.707 72.4834 113.748 72.5809 113.821 72.6528C113.895 72.7247 113.994 72.7651 114.097 72.7651H115.842C116.4 72.7526 116.931 72.5262 117.321 72.1342C117.711 71.7422 117.93 71.2159 117.93 70.6677C117.93 70.1195 117.711 69.5931 117.321 69.2012C116.931 68.8092 116.4 68.5827 115.842 68.5703Z" fill="white"/>
</g>
<path d="M200.929 66.4371H198.955L200.967 69.9328L198.878 73.4414H200.864L202.231 71.0035L203.624 73.4414H205.585L203.483 69.9328L205.534 66.4371H203.56L202.231 68.9009L200.929 66.4371Z" fill="white"/>
<path d="M216.604 71.5591C216.005 71.277 215.507 71.0508 215.507 70.593C215.507 70.2417 215.788 69.987 216.342 69.987C216.524 69.988 216.706 70.0064 216.884 70.0419C216.972 70.0594 217.061 70.0694 217.15 70.0716C217.634 70.0716 217.908 69.7828 218.088 69.235L218.163 69.0155C217.561 68.7679 216.916 68.6393 216.264 68.6367C214.625 68.6367 213.758 69.6895 213.759 70.7808C213.742 71.2417 213.899 71.6922 214.198 72.0433C214.546 72.4484 215.042 72.7129 215.506 72.9391C216.181 73.2684 216.79 73.5154 216.79 74.0073C216.79 74.4464 216.341 74.6912 215.738 74.6912C214.913 74.6912 214.19 74.2191 214.099 74.1621L213.422 75.4333C213.542 75.5014 214.41 76.0547 215.851 76.0547C217.382 76.0547 218.541 75.1765 218.541 73.8261C218.541 72.4758 217.475 71.9807 216.604 71.5591Z" fill="white"/>
<path d="M222.591 72.1867L225.369 68.7834H223.393L221.178 71.7223H221.144V68.7812H219.512V75.9929H219.608C220.313 75.9929 221.153 75.6635 221.153 74.491V72.8344H221.187L223.444 75.9083H225.519L222.591 72.1867Z" fill="white"/>
<path d="M225.463 61.0547C224.889 61.1645 224.036 61.6826 224.036 62.6059C224.036 63.4425 224.723 63.9496 224.725 65.0464C224.729 65.3858 224.644 65.7203 224.479 66.0165C224.313 66.3128 224.072 66.5604 223.781 66.7348C223.98 66.7173 224.197 66.7052 224.44 66.7052C224.715 66.7004 224.991 66.7169 225.263 66.7546L227.839 63.594C227.191 62.6238 226.388 61.766 225.463 61.0547Z" fill="white"/>
<path d="M227.625 69.5929C227.954 69.089 227.99 68.2843 228.018 67.4653C228.048 66.6968 228.208 66.1259 229.225 66.1227C229.453 66.1227 229.664 66.1523 230.059 66.1512C231.556 66.1446 232.534 65.6286 233.142 65.2905C231.554 64.267 229.722 63.6829 227.834 63.5977C227.688 64.0115 226.548 67.1831 226.461 67.44C226.637 67.6493 226.792 67.8755 226.923 68.1152C227.21 68.5807 227.445 69.0762 227.625 69.5929Z" fill="white"/>
<path d="M222.188 67.0021C222.059 67.0021 221.993 66.9154 221.977 66.7661C221.96 66.6168 221.318 60.7281 221.219 59.8322C221.205 59.7016 221.173 59.4634 221.173 59.3777C221.17 59.3508 221.173 59.3236 221.182 59.2979C221.19 59.2722 221.204 59.2487 221.222 59.2288C221.241 59.2089 221.263 59.1932 221.288 59.1828C221.313 59.1723 221.34 59.1673 221.367 59.168C221.672 59.168 223.336 59.5567 225.1 60.7939C224.59 60.9366 223.673 61.4658 223.673 62.5614C223.673 63.5308 224.371 64.0643 224.374 65.037C224.377 66.619 222.561 67.001 222.188 67.0021Z" fill="white"/>
<path d="M227.773 70.0123C227.794 70.0748 227.821 70.135 227.854 70.1924C227.868 70.2224 227.89 70.2477 227.918 70.2654C227.946 70.2831 227.979 70.2924 228.012 70.2923C228.063 70.2894 228.113 70.276 228.159 70.2527C228.295 70.1902 233.673 67.686 234.484 67.3128C234.603 67.2557 234.826 67.1558 234.899 67.113C234.932 67.0974 234.959 67.0733 234.978 67.0433C234.998 67.0133 235.008 66.9785 235.009 66.9428C235.009 66.904 234.999 66.866 234.978 66.833C234.877 66.6694 234.356 66.1183 233.485 65.5156C232.794 65.8955 231.716 66.4839 230.111 66.4905C229.718 66.4905 229.629 66.4641 229.361 66.4652C228.577 66.4652 228.382 66.8034 228.352 67.4906C228.352 67.6202 228.352 67.7947 228.339 67.9857C228.314 68.6016 228.242 69.4469 227.773 70.0123Z" fill="white"/>
<path d="M234.907 70.8163H236.396V70.207H231.557V70.8163H233.056L231.375 72.395H232.516L233.979 71.0326L235.251 72.2182C235.316 72.2805 235.393 72.3288 235.477 72.3604C235.561 72.3919 235.65 72.4059 235.74 72.4016H236.604L234.907 70.8163Z" fill="white"/>
<path d="M233.978 75.4405C233.163 75.4405 232.613 75.0442 232.613 74.5556C232.613 74.0671 233.162 73.6719 233.978 73.6719C234.795 73.6719 235.345 74.0671 235.345 74.5556C235.345 75.0442 234.794 75.4405 233.978 75.4405ZM236.897 72.8672H231.062V73.4776H232.444C231.978 73.7465 231.726 74.1462 231.726 74.5941C231.726 75.4043 232.548 76.0619 233.978 76.0619C235.409 76.0619 236.231 75.4032 236.231 74.5941C236.231 74.1462 235.98 73.7465 235.514 73.4776H236.897V72.8672Z" fill="white"/>
<path d="M241.998 70.2109V73.1992H240.656V73.8096H241.998V74.2992H242.868V70.2109H241.998Z" fill="white"/>
<path d="M241.66 72.2628H241.166V70.2109H238.209V70.8191H240.295V72.2628H237.766V72.8721H239.326V74.0006H240.196V72.8721H241.66V72.2628Z" fill="white"/>
<path d="M239.33 75.2931V74.1953H238.461V75.2613C238.461 75.4309 238.528 75.5935 238.648 75.7135C238.768 75.8335 238.93 75.901 239.1 75.9013H242.968V75.2931H239.33Z" fill="white"/>
<path d="M79.5511 177.722L115.387 160.713L102.017 132.518L66.0898 149.526L80.5516 159.986L79.5511 177.722Z" fill="white"/>
<path d="M279.102 177.72L243.266 160.711L256.636 132.516L292.563 149.524L278.101 159.984L279.102 177.72Z" fill="white"/>
<mask id="mask0_690_45342" style="mask-type:alpha" maskUnits="userSpaceOnUse" x="243" y="132" width="50" height="46">
<path d="M279.012 177.72L243.176 160.711L256.546 132.516L292.473 149.524L278.011 159.984L279.012 177.72Z" fill="#FFF8EF"/>
</mask>
<g mask="url(#mask0_690_45342)">
<path d="M256.644 132.263L256.449 132.674L292.267 149.698L292.462 149.287L256.644 132.263Z" fill="#E3A981"/>
<path d="M255.5 134.847L255.305 135.258L291.118 152.282L291.313 151.871L255.5 134.847Z" fill="#E3A981"/>
<path d="M254.242 137.453L254.047 137.863L289.86 154.888L290.055 154.477L254.242 137.453Z" fill="#E3A981"/>
<path d="M253.023 139.978L252.828 140.389L288.641 157.413L288.837 157.002L253.023 139.978Z" fill="#E3A981"/>
<path d="M251.766 142.581L251.57 142.992L287.384 160.017L287.579 159.606L251.766 142.581Z" fill="#E3A981"/>
<path d="M250.543 145.105L250.348 145.516L286.161 162.54L286.356 162.129L250.543 145.105Z" fill="#E3A981"/>
<path d="M249.363 147.751L249.168 148.162L284.981 165.186L285.177 164.776L249.363 147.751Z" fill="#E3A981"/>
<path d="M248.144 150.275L247.949 150.686L283.763 167.71L283.958 167.299L248.144 150.275Z" fill="#E3A981"/>
<path d="M246.926 152.798L246.73 153.209L282.544 170.233L282.739 169.823L246.926 152.798Z" fill="#E3A981"/>
<path d="M245.668 155.404L245.473 155.814L281.286 172.839L281.481 172.428L245.668 155.404Z" fill="#E3A981"/>
<path d="M244.445 157.927L244.25 158.338L280.063 175.362L280.259 174.952L244.445 157.927Z" fill="#E3A981"/>
<path d="M243.269 160.572L243.074 160.982L278.888 178.007L279.083 177.596L243.269 160.572Z" fill="#E3A981"/>
</g>
<mask id="mask1_690_45342" style="mask-type:alpha" maskUnits="userSpaceOnUse" x="65" y="132" width="51" height="46">
<path d="M79.4573 177.72L115.293 160.711L101.923 132.516L65.9961 149.524L80.4578 159.984L79.4573 177.72Z" fill="#FFF8EF"/>
</mask>
<g mask="url(#mask1_690_45342)">
<path d="M101.727 132.317L65.9219 149.365L66.1174 149.776L101.923 132.728L101.727 132.317Z" fill="#E3A981"/>
<path d="M102.985 134.841L67.1797 151.889L67.3752 152.299L103.181 135.251L102.985 134.841Z" fill="#E3A981"/>
<path d="M104.165 137.405L68.3594 154.453L68.5549 154.864L104.36 137.816L104.165 137.405Z" fill="#E3A981"/>
<path d="M105.462 140.014L69.6562 157.062L69.8518 157.473L105.657 140.425L105.462 140.014Z" fill="#E3A981"/>
<path d="M106.641 142.579L70.8359 159.627L71.0314 160.038L106.837 142.989L106.641 142.579Z" fill="#E3A981"/>
<path d="M107.817 145.143L72.0117 162.191L72.2072 162.602L108.013 145.554L107.817 145.143Z" fill="#E3A981"/>
<path d="M109.079 147.669L73.2734 164.717L73.4689 165.127L109.274 148.079L109.079 147.669Z" fill="#E3A981"/>
<path d="M110.259 150.233L74.4531 167.281L74.6486 167.692L110.454 150.644L110.259 150.233Z" fill="#E3A981"/>
<path d="M111.555 152.843L75.75 169.891L75.9455 170.301L111.751 153.253L111.555 152.843Z" fill="#E3A981"/>
<path d="M112.735 155.407L76.9297 172.455L77.1252 172.866L112.931 155.818L112.735 155.407Z" fill="#E3A981"/>
<path d="M113.915 157.969L78.1094 175.018L78.3049 175.428L114.11 158.38L113.915 157.969Z" fill="#E3A981"/>
<path d="M115.173 160.495L79.3672 177.543L79.5627 177.954L115.368 160.905L115.173 160.495Z" fill="#E3A981"/>
</g>
<path d="M280.105 179.267L242.086 161.167L256.275 131.334L294.385 149.434L279.104 160.439L280.105 179.267ZM244.451 160.257L278.104 176.265L277.103 159.53L290.746 149.707L257.093 133.699L244.451 160.257Z" fill="#B57049"/>
<path d="M263.279 157.166L243.269 160.713L256.64 132.518L263.279 157.166Z" fill="white"/>
<path d="M243.269 161.622C242.996 161.622 242.723 161.531 242.541 161.258C242.36 160.986 242.269 160.622 242.451 160.349L255.821 132.153C256.003 131.789 256.367 131.607 256.73 131.607C257.094 131.607 257.458 131.88 257.549 132.244L264.189 156.893C264.28 157.166 264.189 157.438 264.098 157.62C264.007 157.802 263.734 157.984 263.461 157.984L243.451 161.531C243.36 161.622 243.269 161.622 243.269 161.622ZM256.457 135.155L244.906 159.53L262.188 156.438L256.457 135.155Z" fill="#B57049"/>
<path d="M280.106 179.266L242.906 161.53L243.634 159.893L278.106 176.265L277.105 159.529L290.748 149.706L271.375 140.52L272.193 138.883L294.295 149.343L279.015 160.439L280.106 179.266Z" fill="#7C492C" stroke="#7C492C" stroke-width="0.816998"/>
<path d="M243.269 161.623C242.996 161.623 242.723 161.532 242.541 161.259C242.36 160.986 242.269 160.623 242.451 160.35L247.544 149.617L249.181 150.436L244.815 159.622L263.097 156.348L263.461 158.167L243.451 161.714C243.36 161.623 243.269 161.623 243.269 161.623Z" fill="#7C492C" stroke="#7C492C" stroke-width="0.816998"/>
<path d="M78.5482 179.268L79.6397 160.44L64.3594 149.344L102.378 131.244L116.567 161.077L78.5482 179.268ZM67.9066 149.708L81.5497 159.531L80.5492 176.266L114.202 160.259L101.56 133.7L67.9066 149.708Z" fill="#B57049"/>
<path d="M95.3748 157.166L115.385 160.713L102.014 132.518L95.3748 157.166Z" fill="white"/>
<path d="M115.385 161.623C115.294 161.623 115.294 161.623 115.204 161.623L95.1936 158.076C94.9208 158.076 94.7389 157.894 94.5569 157.712C94.375 157.53 94.375 157.257 94.466 156.984L101.015 132.336C101.106 131.972 101.469 131.699 101.833 131.699C102.197 131.699 102.561 131.881 102.743 132.245L116.113 160.441C116.295 160.714 116.204 161.077 116.022 161.35C115.931 161.532 115.658 161.623 115.385 161.623ZM96.5579 156.439L113.839 159.531L102.197 135.155L96.5579 156.439Z" fill="#B57049"/>
<path d="M78.5521 179.268L79.6436 160.441L64.3633 149.344L86.4651 138.885L87.2837 140.522L67.9105 149.708L81.5536 159.531L80.5531 176.267L115.025 159.895L115.752 161.532L78.5521 179.268Z" fill="#7C492C" stroke="#7C492C" stroke-width="0.816998"/>
<path d="M115.383 161.622C115.292 161.622 115.292 161.622 115.201 161.622L95.1914 158.075L95.5552 156.256L113.837 159.53L109.471 150.344L111.108 149.525L116.202 160.258C116.384 160.531 116.293 160.895 116.111 161.168C115.929 161.531 115.656 161.622 115.383 161.622Z" fill="#7C492C" stroke="#7C492C" stroke-width="0.816998"/>
<path d="M231.262 277.587C228.988 279.497 226.078 280.589 222.985 280.589H187.695C183.966 280.589 180.783 279.406 178.509 277.314C175.871 279.77 172.324 281.316 168.322 281.316C163.683 281.316 159.681 279.315 157.044 276.132C153.405 278.497 148.949 279.861 144.037 279.861C139.126 279.861 134.669 278.497 131.031 276.132C128.757 278.861 125.392 280.589 121.572 280.589H84.8261C77.1859 280.589 71.8196 275.313 71.8196 267.673V260.306C71.8196 259.305 71.9106 258.396 72.0925 257.486C70.5463 255.394 69.6367 252.757 69.6367 250.028C69.6367 247.663 70.2734 245.389 71.4558 243.479C71.001 242.206 70.7282 240.751 70.7282 239.296C70.7282 234.475 73.4568 230.018 77.9135 227.653C78.0955 220.741 83.8256 215.557 91.5567 215.557C95.9225 215.557 99.6516 217.194 102.107 219.831C104.563 217.194 108.292 215.557 112.567 215.557C113.659 215.557 114.659 215.647 115.66 215.829C114.022 213.737 113.022 211.282 112.749 208.553H107.928C100.652 208.553 94.831 202.641 94.831 195.456C94.831 193.091 95.4677 190.817 96.6501 188.907C96.1953 187.634 96.0134 186.269 96.0134 184.905C96.0134 181.903 97.0139 179.175 98.742 176.992C97.3777 174.9 96.5591 172.353 96.5591 169.716C96.5591 162.53 102.471 156.618 109.657 156.618H145.038C150.404 156.618 155.043 159.802 157.044 164.44C158.954 159.074 164.138 155.527 170.778 155.527C175.871 155.527 180.146 157.619 182.693 160.984C185.239 157.437 189.605 155.254 194.79 155.254C199.883 155.254 204.067 157.346 206.705 160.711C210.525 158.164 215.163 156.709 220.439 156.709C225.532 156.709 230.171 158.073 233.9 160.438C236.538 157.255 240.631 156.527 245.269 156.527C253.455 156.527 259.913 162.712 259.913 170.625V206.734C259.913 211.282 257.73 215.284 254.365 217.921H255.638C257.093 217.921 258.458 218.194 259.731 218.558C262.096 216.83 265.097 215.829 268.462 215.829C276.557 215.829 282.924 221.923 282.924 229.745V235.203C286.744 237.476 289.2 241.842 289.2 247.027C289.2 252.393 286.744 256.759 282.924 259.033V267.491C282.924 275.313 276.557 281.498 268.462 281.498C264.279 281.498 260.64 280.589 257.548 278.042C256.457 279.952 255.001 281.043 253.455 281.043H235.992C233.991 280.953 232.445 279.679 231.262 277.587Z" fill="white"/>
<path d="M268.281 282.226C263.915 282.226 260.459 281.226 257.639 279.225C256.366 280.953 254.911 281.863 253.274 281.863H235.81C233.991 281.863 232.354 280.862 230.99 278.952C228.625 280.589 225.805 281.499 222.895 281.499H187.605C184.058 281.499 180.874 280.498 178.418 278.497C175.599 280.862 172.052 282.226 168.141 282.226C163.684 282.226 159.591 280.407 156.68 277.315C152.951 279.589 148.494 280.771 143.856 280.771C139.217 280.771 134.76 279.589 131.031 277.315C128.575 279.953 125.119 281.499 121.39 281.499H84.8266C76.6407 281.499 70.9106 275.86 70.9106 267.674V260.306C70.9106 259.397 71.0015 258.487 71.0925 257.669C69.4553 255.395 68.6367 252.757 68.6367 249.938C68.6367 247.573 69.2734 245.299 70.3648 243.207C70.001 241.934 69.7282 240.569 69.7282 239.114C69.7282 234.112 72.4568 229.473 76.9135 226.926C77.3683 219.741 83.4622 214.466 91.4662 214.466C95.5591 214.466 99.2883 215.83 102.017 218.377C105.018 215.648 109.202 214.193 113.75 214.557C112.84 212.919 112.204 211.191 111.931 209.281H107.929C100.198 209.281 93.922 203.005 93.922 195.274C93.922 192.909 94.5586 190.636 95.6501 188.544C95.2863 187.27 95.1044 185.997 95.1044 184.633C95.1044 181.722 96.0139 178.993 97.6511 176.72C96.3777 174.537 95.6501 171.99 95.6501 169.443C95.6501 161.894 101.926 155.618 109.748 155.618H145.129C150.041 155.618 154.497 158.165 157.044 162.258C159.5 157.437 164.684 154.527 170.869 154.527C175.69 154.527 179.874 156.346 182.693 159.438C185.513 156.164 189.879 154.254 194.79 154.254C199.702 154.254 203.976 156.164 206.887 159.438C210.798 156.983 215.437 155.709 220.439 155.709C225.26 155.709 229.898 156.892 233.718 159.165C236.811 155.982 241.268 155.527 245.27 155.527C254.001 155.527 260.823 162.076 260.823 170.535V206.643C260.823 210.555 259.368 214.193 256.639 216.921C257.548 217.012 258.549 217.194 259.459 217.467C262.005 215.739 265.098 214.829 268.281 214.829C276.922 214.829 283.652 221.287 283.652 229.655V234.566C287.563 237.113 289.928 241.752 289.928 246.936C289.928 252.302 287.563 256.941 283.652 259.488V267.401C283.652 275.678 276.922 282.226 268.281 282.226ZM257.367 276.951C257.548 276.951 257.821 277.042 257.912 277.133C260.641 279.316 263.915 280.407 268.19 280.407C275.739 280.407 281.742 274.677 281.742 267.31V258.851C281.742 258.487 281.924 258.215 282.197 258.033C285.835 255.85 288.018 251.666 288.018 246.754C288.018 242.025 285.835 237.932 282.197 235.658C281.924 235.476 281.742 235.203 281.742 234.839V229.382C281.742 222.106 275.83 216.376 268.19 216.376C265.189 216.376 262.369 217.285 260.004 218.922C259.731 219.104 259.459 219.104 259.186 219.013C258.003 218.649 256.639 218.377 255.366 218.377H254.092C253.728 218.377 253.365 218.104 253.274 217.74C253.183 217.376 253.274 216.921 253.546 216.739C256.912 214.284 258.731 210.464 258.731 206.28V170.535C258.731 163.167 252.728 157.346 244.997 157.346C239.631 157.346 236.356 158.438 234.355 160.894C234.082 161.257 233.537 161.348 233.173 161.075C229.444 158.711 224.987 157.437 220.166 157.437C215.255 157.437 210.707 158.802 206.978 161.257C206.614 161.53 206.068 161.439 205.705 161.075C203.249 157.801 199.156 155.982 194.517 155.982C189.697 155.982 185.604 157.892 183.148 161.348C182.966 161.621 182.693 161.712 182.42 161.712C182.147 161.712 181.875 161.621 181.693 161.348C179.237 158.074 175.144 156.255 170.505 156.255C164.32 156.255 159.409 159.438 157.59 164.532C157.499 164.896 157.135 165.168 156.771 165.168C156.407 165.168 156.044 164.986 155.862 164.623C153.861 160.166 149.495 157.346 144.674 157.346H109.748C103.017 157.346 97.5601 162.804 97.5601 169.534C97.5601 171.99 98.2878 174.355 99.5611 176.356C99.743 176.72 99.743 177.083 99.5611 177.447C97.924 179.539 97.0144 182.086 97.0144 184.814C97.0144 186.088 97.1963 187.361 97.6511 188.544C97.742 188.816 97.742 189.089 97.5601 189.271C96.4687 191.09 95.923 193.273 95.923 195.365C95.923 202.096 101.38 207.553 108.111 207.553H112.84C113.295 207.553 113.659 207.917 113.75 208.372C114.023 210.918 114.932 213.283 116.479 215.193C116.751 215.466 116.751 215.921 116.57 216.194C116.388 216.557 116.024 216.648 115.66 216.648C114.66 216.467 113.659 216.376 112.749 216.376C108.838 216.376 105.382 217.831 102.926 220.378C102.745 220.559 102.472 220.65 102.29 220.65C102.017 220.65 101.835 220.559 101.653 220.378C99.2883 217.831 95.7411 216.376 91.7391 216.376C84.6446 216.376 79.0964 221.196 79.0055 227.563C79.0055 227.927 78.8236 228.2 78.5507 228.382C74.4578 230.564 71.8201 234.748 71.8201 239.296C71.8201 240.66 72.002 241.934 72.4568 243.207C72.5477 243.48 72.5477 243.753 72.3658 243.935C71.2744 245.754 70.6377 247.846 70.6377 250.029C70.6377 252.575 71.4563 254.94 72.9116 256.941C73.0935 257.123 73.0935 257.396 73.0935 257.669C72.9116 258.487 72.8206 259.397 72.8206 260.397V267.765C72.8206 274.859 77.8231 279.771 84.9175 279.771H121.572C124.937 279.771 128.121 278.224 130.304 275.587C130.576 275.223 131.122 275.132 131.486 275.405C135.033 277.77 139.399 279.043 143.947 279.043C148.585 279.043 152.86 277.77 156.407 275.405C156.771 275.132 157.317 275.223 157.59 275.587C160.137 278.679 163.957 280.407 168.231 280.407C171.87 280.407 175.326 279.043 177.782 276.678C178.146 276.314 178.691 276.314 179.055 276.678C181.329 278.679 184.239 279.771 187.696 279.771H222.986C225.715 279.771 228.443 278.861 230.535 277.042C230.626 276.86 230.808 276.769 230.99 276.678C231.354 276.587 231.808 276.769 231.99 277.133C232.718 278.406 233.9 279.953 235.719 279.953H253.183C254.365 279.953 255.547 279.043 256.548 277.406C256.639 277.133 256.912 277.042 257.185 276.951C257.276 277.042 257.367 276.951 257.367 276.951Z" fill="#B57049"/>
<path d="M179.599 100.957C179.508 100.957 179.417 100.957 179.326 100.957C179.235 100.957 179.144 100.957 179.054 100.957C140.944 100.957 107.927 108.961 79.6406 124.878L95.4666 157.167C117.932 144.524 147.765 137.339 179.144 137.339C179.235 137.339 179.326 137.339 179.417 137.339C179.508 137.339 179.599 137.339 179.69 137.339C211.069 137.339 240.811 144.433 263.368 157.167L279.194 124.878C250.725 108.961 217.709 100.957 179.599 100.957Z" fill="white"/>
<path d="M263.277 158.076C263.095 158.076 263.004 158.076 262.822 157.985C240.266 145.251 210.706 138.248 179.599 138.248H179.327H179.054C147.947 138.248 118.387 145.251 95.8306 157.985C95.6487 158.076 95.3759 158.167 95.103 158.076C94.8301 157.985 94.6482 157.803 94.5573 157.621L78.8222 125.241C78.6403 124.786 78.7313 124.241 79.186 124.059C107.473 108.142 141.126 100.047 179.054 100.047H179.327H179.599C217.527 100.047 251.089 108.142 279.467 124.059C279.922 124.332 280.013 124.786 279.831 125.241L264.005 157.53C263.914 157.712 263.732 157.894 263.459 157.985C263.459 158.076 263.368 158.076 263.277 158.076ZM179.599 136.429C210.615 136.429 240.175 143.341 262.822 155.893L277.83 125.241C249.907 109.688 216.891 101.866 179.599 101.866H179.327H179.054C141.762 101.866 108.746 109.779 80.8232 125.241L95.8306 155.893C118.569 143.341 148.038 136.429 179.054 136.429H179.327H179.599Z" fill="#7C492C"/>
<path d="M278.916 125.061C250.72 109.235 217.34 101.14 179.594 101.14H179.321H179.048C141.302 101.14 107.922 109.144 79.726 125.061L79.4531 124.697C107.74 108.78 141.211 100.686 179.048 100.686H179.321H179.594C217.431 100.686 250.902 108.78 279.097 124.606L278.916 125.061Z" fill="#E3A981"/>
<path d="M277.465 127.97C249.724 112.326 216.798 104.413 179.598 104.413H179.325H179.052C141.852 104.413 108.927 112.326 81.1858 127.97L81.0039 127.606C108.745 111.962 141.761 104.049 179.052 104.049H179.325H179.598C216.889 104.049 249.906 111.962 277.738 127.606L277.465 127.97Z" fill="#E3A981"/>
<path d="M276.101 130.971C248.815 115.6 216.344 107.778 179.69 107.778H179.417H179.144C142.399 107.778 110.019 115.6 82.7327 130.971L82.5508 130.607C109.928 115.236 142.399 107.414 179.235 107.414H179.508H179.781C216.526 107.414 249.088 115.236 276.465 130.607L276.101 130.971Z" fill="#E3A981"/>
<path d="M274.642 133.884C247.811 118.785 215.795 111.145 179.595 111.145H179.322H179.049C142.85 111.145 110.925 118.785 84.0022 133.884L83.8203 133.52C110.743 118.331 142.759 110.6 179.049 110.6H179.322H179.595C215.886 110.6 247.902 118.24 274.824 133.429L274.642 133.884Z" fill="#E3A981"/>
<path d="M273.189 136.792C246.812 121.967 215.342 114.418 179.597 114.418H179.324H179.051C143.397 114.418 111.836 121.967 85.4593 136.792L85.2773 136.429C111.745 121.512 143.306 113.963 179.051 113.963H179.324H179.597C215.342 113.963 246.903 121.512 273.371 136.429L273.189 136.792Z" fill="#E3A981"/>
<path d="M271.731 139.704C246.173 125.333 214.248 117.693 179.595 117.693H179.322H179.049C144.395 117.693 112.47 125.333 86.9124 139.704L86.7305 139.34C112.38 124.878 144.304 117.238 179.14 117.238H179.413H179.686C214.43 117.238 246.355 124.878 272.095 139.34L271.731 139.704Z" fill="#E3A981"/>
<path d="M270.274 142.707C245.079 128.518 213.791 121.06 179.592 121.06H179.32H179.047C144.848 121.06 113.469 128.518 88.3655 142.707L88.1836 142.344C113.378 128.155 144.848 120.605 179.138 120.605H179.411H179.683C213.973 120.605 245.352 128.155 270.638 142.344L270.274 142.707Z" fill="#E3A981"/>
<path d="M268.912 145.617C244.173 131.701 213.339 124.334 179.595 124.334H179.323H179.05C145.397 124.334 114.472 131.701 89.7327 145.617L89.5508 145.253C114.381 131.246 145.306 123.879 179.05 123.879H179.323H179.595C213.339 123.879 244.264 131.246 269.094 145.253L268.912 145.617Z" fill="#E3A981"/>
<path d="M267.455 148.525C243.17 134.881 212.792 127.605 179.593 127.605H179.32H179.048C145.849 127.605 115.471 134.791 91.1858 148.525L91.0039 148.161C115.38 134.427 145.849 127.15 179.048 127.15H179.32H179.593C212.882 127.15 243.261 134.427 267.637 148.161L267.455 148.525Z" fill="#E3A981"/>
<path d="M266.003 151.437C242.536 138.158 211.794 130.881 179.596 130.881H179.323H179.05C146.853 130.881 116.11 138.158 92.644 151.437L92.3711 151.073C115.928 137.794 146.671 130.518 178.959 130.518H179.232H179.505C211.794 130.518 242.536 137.794 266.094 151.073L266.003 151.437Z" fill="#E3A981"/>
<path d="M264.544 154.44C241.442 141.433 211.245 134.248 179.593 134.248H179.32H179.047C147.304 134.248 117.198 141.433 94.096 154.44L93.9141 154.076C117.016 140.978 147.213 133.793 179.047 133.793H179.32H179.593C211.427 133.793 241.624 140.978 264.817 153.985L264.544 154.44Z" fill="#E3A981"/>
<path d="M263.18 157.348C240.533 144.614 210.882 137.52 179.684 137.52H179.412H179.139C147.941 137.52 118.29 144.524 95.6428 157.348L95.4609 156.984C118.199 144.16 147.941 137.156 179.23 137.156H179.503H179.775C211.064 137.156 240.806 144.16 263.544 156.984L263.18 157.348Z" fill="#E3A981"/>
<path d="M263.277 158.076C263.095 158.076 263.004 158.076 262.822 157.985C240.266 145.251 210.706 138.248 179.599 138.248H179.327H179.054C147.947 138.248 118.387 145.251 95.8306 157.985C95.6487 158.076 95.3759 158.167 95.103 158.076C94.8301 157.985 94.6482 157.803 94.5573 157.621L78.8222 125.241C78.6403 124.786 78.7313 124.241 79.186 124.059C107.473 108.142 141.126 100.047 179.054 100.047H179.327H179.599C217.527 100.047 251.089 108.142 279.467 124.059C279.922 124.332 280.013 124.786 279.831 125.241L264.005 157.53C263.914 157.712 263.732 157.894 263.459 157.985C263.459 158.076 263.368 158.076 263.277 158.076ZM179.599 136.429C210.615 136.429 240.175 143.341 262.822 155.893L277.83 125.241C249.907 109.688 216.891 101.866 179.599 101.866H179.327H179.054C141.762 101.866 108.746 109.779 80.8232 125.241L95.8306 155.893C118.569 143.341 148.038 136.429 179.054 136.429H179.327H179.599Z" fill="#7C492C" stroke="#7C492C" stroke-width="0.816998"/>
<path d="M98.7388 134.52L97.7383 131.973C97.4654 131.336 97.7383 130.973 98.284 130.7L100.831 129.699L100.558 128.881L97.8292 129.972C97.3745 130.154 96.8287 129.881 96.6468 129.517C96.4649 129.063 96.7378 128.517 97.1925 128.335L101.013 126.88C101.558 126.698 102.013 126.88 102.286 127.425L103.105 129.608C103.377 130.245 103.105 130.609 102.559 130.882L100.103 131.882L100.467 132.883C101.467 132.519 102.377 132.064 103.286 131.427C103.832 131.064 104.378 131.427 104.56 131.973C104.742 132.428 104.56 132.792 104.105 133.155C102.832 133.974 101.467 134.611 100.103 135.156C99.3754 135.247 98.9207 135.066 98.7388 134.52ZM102.377 139.34C101.74 139.613 101.195 139.34 101.013 138.704L100.285 136.794C100.012 136.157 100.467 135.611 101.104 135.338C101.74 135.066 102.468 135.247 102.741 135.884L103.196 136.976L110.654 134.065C111.199 133.883 111.745 134.156 111.927 134.611C112.109 135.066 111.836 135.702 111.381 135.884L102.377 139.34ZM105.651 133.701L102.923 126.698C102.741 126.152 103.105 125.788 103.559 125.515C104.105 125.333 104.651 125.424 104.833 125.879L105.742 128.244L106.561 127.971L105.651 125.697C105.469 125.152 105.833 124.697 106.379 124.515C106.925 124.333 107.47 124.424 107.652 124.97L110.381 131.973C110.563 132.519 110.199 132.974 109.653 133.155C109.108 133.337 108.562 133.337 108.38 132.792L107.288 129.972L106.47 130.063L107.561 132.974C107.743 133.519 107.379 133.883 106.925 134.065C106.47 134.247 105.833 134.247 105.651 133.701Z" fill="#0066C6" stroke="#0066C6" stroke-width="4.34611" stroke-miterlimit="10"/>
<path d="M111.198 129.062L109.833 124.605C109.652 123.968 109.924 123.605 110.47 123.423L115.564 121.876C116.018 121.786 116.473 121.967 116.564 122.422C116.655 122.877 116.473 123.332 116.018 123.423L112.38 124.514L113.29 127.607C114.836 127.061 116.291 126.515 117.746 125.878C118.292 125.606 118.747 125.969 118.838 126.424C118.929 126.879 118.838 127.243 118.292 127.425C116.291 128.334 114.381 129.062 112.289 129.699C111.834 129.88 111.38 129.699 111.198 129.062ZM121.839 127.607C122.476 127.425 122.84 127.698 123.022 128.243L123.84 131.154C124.022 131.79 123.568 132.245 122.931 132.427C122.385 132.609 121.93 132.609 121.658 132.245L114.472 134.701C113.835 134.883 113.381 134.701 113.199 134.064L112.38 131.336C112.198 130.699 112.471 130.335 113.017 130.153L121.839 127.607ZM115.109 131.336L115.473 132.609L121.112 130.699L120.748 129.608L115.109 131.336ZM120.839 121.058L122.294 126.06C122.476 126.697 122.021 127.243 121.385 127.425C120.748 127.607 120.111 127.425 119.838 126.788L119.293 124.787L117.383 125.333C116.928 125.515 116.382 125.242 116.291 124.787C116.109 124.332 116.382 123.787 116.837 123.696L118.838 123.15L118.474 121.786C118.292 121.149 118.747 120.603 119.384 120.421C120.02 120.148 120.657 120.33 120.839 121.058Z" fill="#0066C6" stroke="#0066C6" stroke-width="4.34611" stroke-miterlimit="10"/>
<path d="M123.844 124.88C123.753 124.425 124.026 123.879 124.48 123.788C126.754 123.06 127.573 121.696 127.573 120.878L124.207 121.605C123.662 121.696 123.116 121.423 123.025 120.878C122.934 120.332 123.207 119.786 123.753 119.695L133.03 117.603C133.576 117.512 134.121 117.785 134.212 118.331C134.303 118.877 134.03 119.422 133.485 119.513L130.119 120.241C130.483 120.968 131.757 121.878 134.121 121.605C134.576 121.514 135.122 121.878 135.213 122.333C135.304 122.879 134.94 123.424 134.394 123.515C132.03 123.879 130.21 123.333 129.21 122.333C128.755 123.697 127.3 124.88 125.026 125.607C124.571 125.698 124.026 125.425 123.844 124.88ZM129.665 129.7L129.119 127.426L125.299 128.336C124.753 128.427 124.207 128.154 124.117 127.608C124.026 127.062 124.298 126.608 124.844 126.426L135.122 124.152C135.668 124.061 136.213 124.334 136.304 124.88C136.395 125.425 136.122 125.971 135.577 126.062L131.666 126.971L132.211 129.336C132.393 130.064 131.939 130.61 131.211 130.792C130.483 130.792 129.756 130.428 129.665 129.7Z" fill="#0066C6" stroke="#0066C6" stroke-width="4.34611" stroke-miterlimit="10"/>
<path d="M136.847 122.422C136.756 121.967 136.938 121.603 137.302 121.421C138.666 120.512 139.303 119.329 139.121 118.056L139.03 117.328C138.939 116.6 139.394 116.237 140.122 116.055C140.849 115.964 141.395 116.237 141.577 116.873L141.668 117.601C141.85 118.874 142.85 119.875 144.397 120.239C144.76 120.33 145.124 120.693 145.124 121.057C145.215 121.603 144.851 122.149 144.215 122.24C144.033 122.24 143.942 122.24 143.76 122.24C142.487 121.967 141.395 121.33 140.667 120.421C140.304 121.512 139.485 122.422 138.303 123.058C138.212 123.149 138.03 123.149 137.939 123.24C137.484 123.422 136.938 122.967 136.847 122.422ZM146.852 126.424L146.579 124.604L139.03 125.787C138.485 125.878 138.03 125.514 137.939 124.968C137.848 124.423 138.212 123.968 138.757 123.877L147.944 122.422C148.671 122.331 149.035 122.603 149.126 123.331L149.581 125.969C149.672 126.696 149.126 127.151 148.399 127.242C147.671 127.424 147.034 127.151 146.852 126.424ZM146.216 121.33L145.397 116.146C145.306 115.418 145.761 114.963 146.489 114.872C147.216 114.781 147.853 115.054 147.944 115.782L148.762 120.966C148.853 121.694 148.399 122.149 147.671 122.24C146.943 122.24 146.307 122.058 146.216 121.33Z" fill="#0066C6" stroke="#0066C6" stroke-width="4.34611" stroke-miterlimit="10"/>
<path d="M158.133 124.877C158.224 125.605 157.769 126.151 157.042 126.242C156.314 126.333 155.768 125.878 155.768 125.15L154.95 117.237L154.222 117.328C153.767 117.419 153.404 117.055 153.313 116.509C153.222 115.873 153.676 115.6 153.858 115.509C154.313 115.327 154.586 115.054 154.768 114.69C155.041 114.236 155.314 114.054 155.95 113.963C156.678 113.872 157.133 114.327 157.133 114.963L158.133 124.877Z" fill="#0066C6" stroke="#0066C6" stroke-width="4.34611" stroke-miterlimit="10"/>
<path d="M158.86 116.328C158.769 114.509 160.133 113.417 162.043 113.235C163.862 113.144 165.408 113.963 165.59 115.873L166.045 122.785C166.136 124.605 164.772 125.696 162.862 125.878C160.952 126.06 159.496 125.15 159.315 123.24L158.86 116.328ZM161.679 123.149C161.679 123.695 162.225 124.059 162.771 124.059C163.407 124.059 163.771 123.604 163.771 122.967L163.317 116.055C163.317 115.509 162.771 115.145 162.225 115.145C161.588 115.145 161.225 115.6 161.225 116.237L161.679 123.149Z" fill="#0066C6" stroke="#0066C6" stroke-width="4.34611" stroke-miterlimit="10"/>
<path d="M166.953 115.783C166.862 113.964 168.318 112.872 170.228 112.781C172.138 112.69 173.593 113.691 173.684 115.51L173.957 122.422C174.048 124.241 172.592 125.333 170.682 125.424C168.772 125.515 167.317 124.514 167.226 122.695L166.953 115.783ZM169.5 122.695C169.5 123.241 169.955 123.696 170.591 123.605C171.228 123.514 171.592 123.15 171.592 122.604L171.319 115.692C171.319 115.146 170.864 114.691 170.228 114.782C169.591 114.873 169.227 115.237 169.227 115.783L169.5 122.695Z" fill="#0066C6" stroke="#0066C6" stroke-width="4.34611" stroke-miterlimit="10"/>
<path d="M175.23 114.692C175.23 113.6 176.14 112.963 177.413 113.054C178.687 113.145 179.505 113.691 179.505 114.783V117.966C179.505 119.057 178.596 119.694 177.322 119.694C176.049 119.694 175.23 119.057 175.23 117.966V114.692ZM176.868 117.511C176.868 117.784 177.05 117.966 177.413 117.966C177.686 117.966 177.959 117.784 177.959 117.511V115.055C177.959 114.783 177.777 114.601 177.413 114.601C177.05 114.601 176.868 114.783 176.868 115.055V117.511ZM179.323 124.788C179.141 125.242 178.687 125.515 178.141 125.333C177.686 125.151 177.504 124.788 177.686 124.242L181.779 113.327C181.961 112.873 182.416 112.6 182.962 112.782C183.416 112.963 183.598 113.327 183.416 113.873L179.323 124.788ZM181.688 120.058C181.688 118.966 182.598 118.33 183.871 118.33C185.144 118.33 185.963 118.966 185.963 120.058V123.241C185.963 124.333 185.054 124.969 183.78 124.969C182.507 124.969 181.597 124.333 181.688 123.241V120.058ZM183.325 122.877C183.325 123.15 183.507 123.332 183.871 123.332C184.144 123.332 184.417 123.15 184.417 122.877V120.422C184.417 120.149 184.235 119.967 183.871 119.967C183.507 119.967 183.325 120.149 183.325 120.422V122.877Z" fill="#0066C6" stroke="#0066C6" stroke-width="4.34611" stroke-miterlimit="10"/>
<path d="M192.148 120.422C191.602 120.422 191.238 119.967 191.238 119.421C191.238 118.875 191.693 118.512 192.239 118.512L202.789 119.33C203.335 119.33 203.699 119.785 203.699 120.331C203.699 120.876 203.244 121.24 202.699 121.149L192.148 120.422ZM193.785 121.149L200.788 121.695C202.062 121.786 202.971 122.877 202.88 124.06C202.789 125.242 201.698 126.243 200.516 126.152L193.512 125.606C192.239 125.515 191.329 124.424 191.42 123.241C191.511 122.059 192.603 121.058 193.785 121.149ZM191.784 117.147C191.784 116.693 192.239 116.329 192.694 116.329C194.967 116.42 196.241 115.965 196.423 115.237L192.966 114.964C192.512 114.964 192.148 114.51 192.148 114.055C192.148 113.6 192.603 113.236 193.057 113.236L202.699 113.964C203.153 113.964 203.517 114.419 203.517 114.874C203.517 115.328 203.062 115.692 202.608 115.692L199.151 115.419C199.242 116.147 200.425 116.784 202.699 117.056C203.153 117.147 203.517 117.511 203.426 117.966C203.426 118.421 202.971 118.785 202.517 118.785C199.97 118.512 198.424 117.784 197.696 116.784C196.877 117.693 195.149 118.148 192.603 118.057C192.148 118.057 191.784 117.602 191.784 117.147ZM199.97 124.333C200.243 124.333 200.516 124.151 200.516 123.878C200.516 123.605 200.334 123.332 200.061 123.332L194.331 122.877C194.058 122.877 193.785 123.059 193.785 123.332C193.785 123.605 193.967 123.878 194.24 123.878L199.97 124.333Z" fill="#0066C6" stroke="#0066C6" stroke-width="4.34611" stroke-miterlimit="10"/>
<path d="M204.791 120.15C204.882 119.696 205.246 119.332 205.701 119.332C206.974 119.15 207.975 118.422 208.247 116.785V116.603L206.428 116.33C205.883 116.239 205.519 115.784 205.61 115.239C205.701 114.693 206.156 114.329 206.701 114.42L212.613 115.239C213.159 115.33 213.523 115.784 213.432 116.33C213.341 116.876 212.886 117.24 212.34 117.149L210.521 116.876V117.058C210.339 118.604 211.067 119.696 212.249 120.15C212.613 120.332 212.886 120.787 212.886 121.242C212.795 121.878 212.158 122.242 211.613 122.06C210.339 121.606 209.43 120.878 208.975 119.786C208.247 120.696 207.156 121.151 205.883 121.242C205.246 121.333 204.7 120.787 204.791 120.15ZM207.247 126.881C205.792 126.699 204.791 125.517 204.973 124.152C205.155 122.788 206.428 121.969 207.884 122.151L213.978 122.97C215.433 123.152 216.433 124.243 216.251 125.698C216.07 127.063 214.796 127.881 213.341 127.699L207.247 126.881ZM212.977 125.88C213.432 125.971 213.796 125.698 213.796 125.335C213.887 124.971 213.614 124.698 213.159 124.607L208.338 123.97C207.884 123.879 207.611 124.061 207.52 124.516C207.429 124.88 207.702 125.153 208.157 125.244L212.977 125.88ZM214.159 121.697L214.432 119.877L213.068 119.696C212.613 119.605 212.249 119.15 212.34 118.695C212.431 118.24 212.886 117.876 213.341 117.967L214.705 118.149L214.978 116.421C215.069 115.694 215.706 115.421 216.433 115.512C217.161 115.603 217.616 116.057 217.525 116.694L216.797 121.969C216.706 122.697 216.07 122.879 215.433 122.788C214.523 122.788 213.978 122.333 214.159 121.697Z" fill="#0066C6" stroke="#0066C6" stroke-width="4.34611" stroke-miterlimit="10"/>
<path d="M221.799 125.515L222.981 120.24C223.436 118.33 225.255 117.42 227.256 117.875C229.257 118.33 230.621 119.967 230.167 121.877L228.984 127.153C228.529 129.063 226.619 129.972 224.618 129.517C222.708 129.063 221.344 127.425 221.799 125.515ZM226.71 126.698L227.893 121.241C227.984 120.604 227.62 119.967 226.892 119.785C226.165 119.603 225.528 120.058 225.346 120.695L224.164 126.152C223.982 126.789 224.437 127.425 225.164 127.516C225.892 127.698 226.528 127.334 226.71 126.698ZM230.167 129.881L232.35 119.876C232.531 119.149 233.168 118.876 233.896 118.967C234.623 119.149 235.078 119.694 234.896 120.422L232.713 130.427C232.531 131.155 231.895 131.427 231.167 131.336C230.44 131.155 229.985 130.518 230.167 129.881Z" fill="#0066C6" stroke="#0066C6" stroke-width="4.34611" stroke-miterlimit="10"/>
<path d="M245.081 133.065C245.536 133.247 245.9 133.792 245.718 134.247C245.536 134.793 244.991 135.066 244.536 134.884L235.349 132.155C234.713 131.973 234.44 131.519 234.622 130.791L235.258 128.79C235.44 128.153 236.077 127.971 236.805 128.153C237.441 128.335 237.896 128.881 237.714 129.518L237.35 130.7L245.081 133.065ZM236.077 127.335C235.44 127.153 235.258 126.698 235.44 126.152L236.987 120.786C237.168 120.24 237.623 120.149 238.169 120.331C238.715 120.513 239.078 120.877 238.897 121.423L238.624 122.332L240.17 122.787L240.443 121.786C240.625 121.241 241.079 121.15 241.625 121.332C242.171 121.514 242.535 121.877 242.353 122.332L241.807 124.242L242.99 124.606L243.626 122.514C243.808 121.968 244.263 121.877 244.9 122.059C245.536 122.241 245.809 122.605 245.627 123.151L243.444 130.609C243.262 131.155 242.808 131.246 242.171 131.064C241.534 130.882 241.261 130.518 241.443 129.972L242.444 126.516L241.261 126.152L240.807 127.699C240.625 128.335 240.17 128.517 239.624 128.335L236.077 127.335ZM238.169 124.151L237.714 125.879L239.26 126.334L239.715 124.606L238.169 124.151ZM244.172 130.791L246.355 123.424C246.537 122.878 247.082 122.696 247.628 122.878C248.174 123.06 248.538 123.424 248.447 123.969L246.264 131.337C246.082 131.882 245.536 131.973 244.991 131.882C244.354 131.701 243.99 131.337 244.172 130.791Z" fill="#0066C6" stroke="#0066C6" stroke-width="4.34611" stroke-miterlimit="10"/>
<path d="M246.81 135.429C246.264 135.247 245.991 134.611 246.173 134.156C246.355 133.61 246.992 133.337 247.538 133.519L257.27 137.248C257.815 137.43 258.088 138.067 257.906 138.613C257.724 139.158 257.088 139.431 256.633 139.158L246.81 135.429ZM248.902 131.7C248.265 131.518 248.083 131.064 248.356 130.427L249.448 127.607C249.63 127.062 250.084 126.789 250.721 127.062L259.362 130.336C259.816 130.518 260.089 131.064 259.907 131.518C259.725 131.973 259.18 132.246 258.725 132.064L251.54 129.335L251.176 130.427L258.452 133.246C258.907 133.428 259.18 133.974 258.998 134.52C258.816 135.066 258.27 135.247 257.724 135.066L248.902 131.7ZM250.812 126.334C250.357 126.152 250.084 125.606 250.266 125.152C250.448 124.697 250.994 124.424 251.449 124.606L260.271 127.971C260.726 128.153 260.999 128.699 260.817 129.154C260.635 129.608 260.089 129.881 259.635 129.699L250.812 126.334Z" fill="#0066C6" stroke="#0066C6" stroke-width="4.34611" stroke-miterlimit="10"/>
<path d="M98.7388 134.52L97.7383 131.973C97.4654 131.336 97.7383 130.973 98.284 130.7L100.831 129.699L100.558 128.881L97.8292 129.972C97.3745 130.154 96.8287 129.881 96.6468 129.517C96.4649 129.063 96.7378 128.517 97.1925 128.335L101.013 126.88C101.558 126.698 102.013 126.88 102.286 127.425L103.105 129.608C103.377 130.245 103.105 130.609 102.559 130.882L100.103 131.882L100.467 132.883C101.467 132.519 102.377 132.064 103.286 131.427C103.832 131.064 104.378 131.427 104.56 131.973C104.742 132.428 104.56 132.792 104.105 133.155C102.832 133.974 101.467 134.611 100.103 135.156C99.3754 135.247 98.9207 135.066 98.7388 134.52ZM102.377 139.34C101.74 139.613 101.195 139.34 101.013 138.704L100.285 136.794C100.012 136.157 100.467 135.611 101.104 135.338C101.74 135.066 102.468 135.247 102.741 135.884L103.196 136.976L110.654 134.065C111.199 133.883 111.745 134.156 111.927 134.611C112.109 135.066 111.836 135.702 111.381 135.884L102.377 139.34ZM105.651 133.701L102.923 126.698C102.741 126.152 103.105 125.788 103.559 125.515C104.105 125.333 104.651 125.424 104.833 125.879L105.742 128.244L106.561 127.971L105.651 125.697C105.469 125.152 105.833 124.697 106.379 124.515C106.925 124.333 107.47 124.424 107.652 124.97L110.381 131.973C110.563 132.519 110.199 132.974 109.653 133.155C109.108 133.337 108.562 133.337 108.38 132.792L107.288 129.972L106.47 130.063L107.561 132.974C107.743 133.519 107.379 133.883 106.925 134.065C106.47 134.247 105.833 134.247 105.651 133.701Z" fill="white"/>
<path d="M111.198 129.062L109.833 124.605C109.652 123.968 109.924 123.605 110.47 123.423L115.564 121.876C116.018 121.786 116.473 121.967 116.564 122.422C116.655 122.877 116.473 123.332 116.018 123.423L112.38 124.514L113.29 127.607C114.836 127.061 116.291 126.515 117.746 125.878C118.292 125.606 118.747 125.969 118.838 126.424C118.929 126.879 118.838 127.243 118.292 127.425C116.291 128.334 114.381 129.062 112.289 129.699C111.834 129.88 111.38 129.699 111.198 129.062ZM121.839 127.607C122.476 127.425 122.84 127.698 123.022 128.243L123.84 131.154C124.022 131.79 123.568 132.245 122.931 132.427C122.385 132.609 121.93 132.609 121.658 132.245L114.472 134.701C113.835 134.883 113.381 134.701 113.199 134.064L112.38 131.336C112.198 130.699 112.471 130.335 113.017 130.153L121.839 127.607ZM115.109 131.336L115.473 132.609L121.112 130.699L120.748 129.608L115.109 131.336ZM120.839 121.058L122.294 126.06C122.476 126.697 122.021 127.243 121.385 127.425C120.748 127.607 120.111 127.425 119.838 126.788L119.293 124.787L117.383 125.333C116.928 125.515 116.382 125.242 116.291 124.787C116.109 124.332 116.382 123.787 116.837 123.696L118.838 123.15L118.474 121.786C118.292 121.149 118.747 120.603 119.384 120.421C120.02 120.148 120.657 120.33 120.839 121.058Z" fill="white"/>
<path d="M123.844 124.88C123.753 124.425 124.026 123.879 124.48 123.788C126.754 123.06 127.573 121.696 127.573 120.878L124.207 121.605C123.662 121.696 123.116 121.423 123.025 120.878C122.934 120.332 123.207 119.786 123.753 119.695L133.03 117.603C133.576 117.512 134.121 117.785 134.212 118.331C134.303 118.877 134.03 119.422 133.485 119.513L130.119 120.241C130.483 120.968 131.757 121.878 134.121 121.605C134.576 121.514 135.122 121.878 135.213 122.333C135.304 122.879 134.94 123.424 134.394 123.515C132.03 123.879 130.21 123.333 129.21 122.333C128.755 123.697 127.3 124.88 125.026 125.607C124.571 125.698 124.026 125.425 123.844 124.88ZM129.665 129.7L129.119 127.426L125.299 128.336C124.753 128.427 124.207 128.154 124.117 127.608C124.026 127.062 124.298 126.608 124.844 126.426L135.122 124.152C135.668 124.061 136.213 124.334 136.304 124.88C136.395 125.425 136.122 125.971 135.577 126.062L131.666 126.971L132.211 129.336C132.393 130.064 131.939 130.61 131.211 130.792C130.483 130.792 129.756 130.428 129.665 129.7Z" fill="white"/>
<path d="M136.847 122.422C136.756 121.967 136.938 121.603 137.302 121.421C138.666 120.512 139.303 119.329 139.121 118.056L139.03 117.328C138.939 116.6 139.394 116.237 140.122 116.055C140.849 115.964 141.395 116.237 141.577 116.873L141.668 117.601C141.85 118.874 142.85 119.875 144.397 120.239C144.76 120.33 145.124 120.693 145.124 121.057C145.215 121.603 144.851 122.149 144.215 122.24C144.033 122.24 143.942 122.24 143.76 122.24C142.487 121.967 141.395 121.33 140.667 120.421C140.304 121.512 139.485 122.422 138.303 123.058C138.212 123.149 138.03 123.149 137.939 123.24C137.484 123.422 136.938 122.967 136.847 122.422ZM146.852 126.424L146.579 124.604L139.03 125.787C138.485 125.878 138.03 125.514 137.939 124.968C137.848 124.423 138.212 123.968 138.757 123.877L147.944 122.422C148.671 122.331 149.035 122.603 149.126 123.331L149.581 125.969C149.672 126.696 149.126 127.151 148.399 127.242C147.671 127.424 147.034 127.151 146.852 126.424ZM146.216 121.33L145.397 116.146C145.306 115.418 145.761 114.963 146.489 114.872C147.216 114.781 147.853 115.054 147.944 115.782L148.762 120.966C148.853 121.694 148.399 122.149 147.671 122.24C146.943 122.24 146.307 122.058 146.216 121.33Z" fill="white"/>
<path d="M158.133 124.877C158.224 125.605 157.769 126.151 157.042 126.242C156.314 126.333 155.768 125.878 155.768 125.15L154.95 117.237L154.222 117.328C153.767 117.419 153.404 117.055 153.313 116.509C153.222 115.873 153.676 115.6 153.858 115.509C154.313 115.327 154.586 115.054 154.768 114.69C155.041 114.236 155.314 114.054 155.95 113.963C156.678 113.872 157.133 114.327 157.133 114.963L158.133 124.877Z" fill="white"/>
<path d="M158.86 116.328C158.769 114.509 160.133 113.417 162.043 113.235C163.862 113.144 165.408 113.963 165.59 115.873L166.045 122.785C166.136 124.605 164.772 125.696 162.862 125.878C160.952 126.06 159.496 125.15 159.315 123.24L158.86 116.328ZM161.679 123.149C161.679 123.695 162.225 124.059 162.771 124.059C163.407 124.059 163.771 123.604 163.771 122.967L163.317 116.055C163.317 115.509 162.771 115.145 162.225 115.145C161.588 115.145 161.225 115.6 161.225 116.237L161.679 123.149Z" fill="white"/>
<path d="M166.953 115.783C166.862 113.964 168.318 112.872 170.228 112.781C172.138 112.69 173.593 113.691 173.684 115.51L173.957 122.422C174.048 124.241 172.592 125.333 170.682 125.424C168.772 125.515 167.317 124.514 167.226 122.695L166.953 115.783ZM169.5 122.695C169.5 123.241 169.955 123.696 170.591 123.605C171.228 123.514 171.592 123.15 171.592 122.604L171.319 115.692C171.319 115.146 170.864 114.691 170.228 114.782C169.591 114.873 169.227 115.237 169.227 115.783L169.5 122.695Z" fill="white"/>
<path d="M175.23 114.692C175.23 113.6 176.14 112.963 177.413 113.054C178.687 113.145 179.505 113.691 179.505 114.783V117.966C179.505 119.057 178.596 119.694 177.322 119.694C176.049 119.694 175.23 119.057 175.23 117.966V114.692ZM176.868 117.511C176.868 117.784 177.05 117.966 177.413 117.966C177.686 117.966 177.959 117.784 177.959 117.511V115.055C177.959 114.783 177.777 114.601 177.413 114.601C177.05 114.601 176.868 114.783 176.868 115.055V117.511ZM179.323 124.788C179.141 125.242 178.687 125.515 178.141 125.333C177.686 125.151 177.504 124.788 177.686 124.242L181.779 113.327C181.961 112.873 182.416 112.6 182.962 112.782C183.416 112.963 183.598 113.327 183.416 113.873L179.323 124.788ZM181.688 120.058C181.688 118.966 182.598 118.33 183.871 118.33C185.144 118.33 185.963 118.966 185.963 120.058V123.241C185.963 124.333 185.054 124.969 183.78 124.969C182.507 124.969 181.597 124.333 181.688 123.241V120.058ZM183.325 122.877C183.325 123.15 183.507 123.332 183.871 123.332C184.144 123.332 184.417 123.15 184.417 122.877V120.422C184.417 120.149 184.235 119.967 183.871 119.967C183.507 119.967 183.325 120.149 183.325 120.422V122.877Z" fill="white"/>
<path d="M192.148 120.422C191.602 120.422 191.238 119.967 191.238 119.421C191.238 118.875 191.693 118.512 192.239 118.512L202.789 119.33C203.335 119.33 203.699 119.785 203.699 120.331C203.699 120.876 203.244 121.24 202.699 121.149L192.148 120.422ZM193.785 121.149L200.788 121.695C202.062 121.786 202.971 122.877 202.88 124.06C202.789 125.242 201.698 126.243 200.516 126.152L193.512 125.606C192.239 125.515 191.329 124.424 191.42 123.241C191.511 122.059 192.603 121.058 193.785 121.149ZM191.784 117.147C191.784 116.693 192.239 116.329 192.694 116.329C194.967 116.42 196.241 115.965 196.423 115.237L192.966 114.964C192.512 114.964 192.148 114.51 192.148 114.055C192.148 113.6 192.603 113.236 193.057 113.236L202.699 113.964C203.153 113.964 203.517 114.419 203.517 114.874C203.517 115.328 203.062 115.692 202.608 115.692L199.151 115.419C199.242 116.147 200.425 116.784 202.699 117.056C203.153 117.147 203.517 117.511 203.426 117.966C203.426 118.421 202.971 118.785 202.517 118.785C199.97 118.512 198.424 117.784 197.696 116.784C196.877 117.693 195.149 118.148 192.603 118.057C192.148 118.057 191.784 117.602 191.784 117.147ZM199.97 124.333C200.243 124.333 200.516 124.151 200.516 123.878C200.516 123.605 200.334 123.332 200.061 123.332L194.331 122.877C194.058 122.877 193.785 123.059 193.785 123.332C193.785 123.605 193.967 123.878 194.24 123.878L199.97 124.333Z" fill="white"/>
<path d="M204.791 120.15C204.882 119.696 205.246 119.332 205.701 119.332C206.974 119.15 207.975 118.422 208.247 116.785V116.603L206.428 116.33C205.883 116.239 205.519 115.784 205.61 115.239C205.701 114.693 206.156 114.329 206.701 114.42L212.613 115.239C213.159 115.33 213.523 115.784 213.432 116.33C213.341 116.876 212.886 117.24 212.34 117.149L210.521 116.876V117.058C210.339 118.604 211.067 119.696 212.249 120.15C212.613 120.332 212.886 120.787 212.886 121.242C212.795 121.878 212.158 122.242 211.613 122.06C210.339 121.606 209.43 120.878 208.975 119.786C208.247 120.696 207.156 121.151 205.883 121.242C205.246 121.333 204.7 120.787 204.791 120.15ZM207.247 126.881C205.792 126.699 204.791 125.517 204.973 124.152C205.155 122.788 206.428 121.969 207.884 122.151L213.978 122.97C215.433 123.152 216.433 124.243 216.251 125.698C216.07 127.063 214.796 127.881 213.341 127.699L207.247 126.881ZM212.977 125.88C213.432 125.971 213.796 125.698 213.796 125.335C213.887 124.971 213.614 124.698 213.159 124.607L208.338 123.97C207.884 123.879 207.611 124.061 207.52 124.516C207.429 124.88 207.702 125.153 208.157 125.244L212.977 125.88ZM214.159 121.697L214.432 119.877L213.068 119.696C212.613 119.605 212.249 119.15 212.34 118.695C212.431 118.24 212.886 117.876 213.341 117.967L214.705 118.149L214.978 116.421C215.069 115.694 215.706 115.421 216.433 115.512C217.161 115.603 217.616 116.057 217.525 116.694L216.797 121.969C216.706 122.697 216.07 122.879 215.433 122.788C214.523 122.788 213.978 122.333 214.159 121.697Z" fill="white"/>
<path d="M221.799 125.515L222.981 120.24C223.436 118.33 225.255 117.42 227.256 117.875C229.257 118.33 230.621 119.967 230.167 121.877L228.984 127.153C228.529 129.063 226.619 129.972 224.618 129.517C222.708 129.063 221.344 127.425 221.799 125.515ZM226.71 126.698L227.893 121.241C227.984 120.604 227.62 119.967 226.892 119.785C226.165 119.603 225.528 120.058 225.346 120.695L224.164 126.152C223.982 126.789 224.437 127.425 225.164 127.516C225.892 127.698 226.528 127.334 226.71 126.698ZM230.167 129.881L232.35 119.876C232.531 119.149 233.168 118.876 233.896 118.967C234.623 119.149 235.078 119.694 234.896 120.422L232.713 130.427C232.531 131.155 231.895 131.427 231.167 131.336C230.44 131.155 229.985 130.518 230.167 129.881Z" fill="white"/>
<path d="M245.081 133.065C245.536 133.247 245.9 133.792 245.718 134.247C245.536 134.793 244.991 135.066 244.536 134.884L235.349 132.155C234.713 131.973 234.44 131.519 234.622 130.791L235.258 128.79C235.44 128.153 236.077 127.971 236.805 128.153C237.441 128.335 237.896 128.881 237.714 129.518L237.35 130.7L245.081 133.065ZM236.077 127.335C235.44 127.153 235.258 126.698 235.44 126.152L236.987 120.786C237.168 120.24 237.623 120.149 238.169 120.331C238.715 120.513 239.078 120.877 238.897 121.423L238.624 122.332L240.17 122.787L240.443 121.786C240.625 121.241 241.079 121.15 241.625 121.332C242.171 121.514 242.535 121.877 242.353 122.332L241.807 124.242L242.99 124.606L243.626 122.514C243.808 121.968 244.263 121.877 244.9 122.059C245.536 122.241 245.809 122.605 245.627 123.151L243.444 130.609C243.262 131.155 242.808 131.246 242.171 131.064C241.534 130.882 241.261 130.518 241.443 129.972L242.444 126.516L241.261 126.152L240.807 127.699C240.625 128.335 240.17 128.517 239.624 128.335L236.077 127.335ZM238.169 124.151L237.714 125.879L239.26 126.334L239.715 124.606L238.169 124.151ZM244.172 130.791L246.355 123.424C246.537 122.878 247.082 122.696 247.628 122.878C248.174 123.06 248.538 123.424 248.447 123.969L246.264 131.337C246.082 131.882 245.536 131.973 244.991 131.882C244.354 131.701 243.99 131.337 244.172 130.791Z" fill="white"/>
<path d="M246.81 135.429C246.264 135.247 245.991 134.611 246.173 134.156C246.355 133.61 246.992 133.337 247.538 133.519L257.27 137.248C257.815 137.43 258.088 138.067 257.906 138.613C257.724 139.158 257.088 139.431 256.633 139.158L246.81 135.429ZM248.902 131.7C248.265 131.518 248.083 131.064 248.356 130.427L249.448 127.607C249.63 127.062 250.084 126.789 250.721 127.062L259.362 130.336C259.816 130.518 260.089 131.064 259.907 131.518C259.725 131.973 259.18 132.246 258.725 132.064L251.54 129.335L251.176 130.427L258.452 133.246C258.907 133.428 259.18 133.974 258.998 134.52C258.816 135.066 258.27 135.247 257.724 135.066L248.902 131.7ZM250.812 126.334C250.357 126.152 250.084 125.606 250.266 125.152C250.448 124.697 250.994 124.424 251.449 124.606L260.271 127.971C260.726 128.153 260.999 128.699 260.817 129.154C260.635 129.608 260.089 129.881 259.635 129.699L250.812 126.334Z" fill="white"/>
<path d="M75.0017 210.103C70.454 210.103 65.3606 206.738 62.0862 201.554C57.5385 194.368 57.9933 186.001 62.9957 182.817C64.2691 181.999 65.7244 181.635 67.3615 181.635C71.9093 181.635 77.0027 185 80.277 190.184C82.4599 193.641 83.5514 197.37 83.3695 200.917C83.2785 204.555 81.8233 207.375 79.2765 208.921C78.0941 209.649 76.6389 210.103 75.0017 210.103Z" fill="white"/>
<path d="M67.3609 182.546C71.5448 182.546 76.2744 185.547 79.4578 190.641C83.7326 197.371 83.4598 205.193 78.8211 208.104C77.6387 208.831 76.3654 209.195 74.9101 209.195C70.7262 209.195 65.9966 206.194 62.8132 201.1C58.5384 194.37 58.8112 186.548 63.4499 183.637C64.6323 182.909 65.9966 182.546 67.3609 182.546ZM67.3609 180.727C65.5418 180.727 63.9046 181.181 62.5403 182.091C56.9921 185.547 56.4464 194.37 61.3579 202.101C64.7232 207.558 70.0895 211.014 75.0011 211.014C76.8201 211.014 78.4573 210.56 79.8216 209.65C85.3698 206.194 85.9156 197.371 81.004 189.64C77.6387 184.274 72.2724 180.727 67.3609 180.727Z" fill="#7C492C"/>
<path d="M77.8267 203.645C77.281 203.645 76.6443 203.554 76.0986 203.372C74.9162 202.917 74.0066 202.189 73.279 201.28C71.8237 199.461 70.9142 197.369 70.2775 195.277C70.0956 194.731 70.0046 194.185 69.9137 193.64L69.7318 192.821L69.6408 192.093C69.4589 191.184 69.1861 190.274 68.7313 189.456C68.2765 188.637 67.6398 187.91 66.8213 187.455C65.366 186.545 63.365 187.273 62.9102 188.91C62.0007 191.821 62.7283 195.914 65.0931 199.734C68.5494 205.191 74.0976 207.919 77.5538 205.737C78.4634 205.191 79.1001 204.281 79.5548 203.19C78.9182 203.554 78.3724 203.645 77.8267 203.645Z" fill="#0066C6"/>
<path d="M65.0039 185.908C64.731 186.09 64.5491 186.272 64.3672 186.454C65.2767 186.181 66.2772 186.181 67.2777 186.454C68.4601 186.818 69.4606 187.546 70.1883 188.455C71.0068 189.365 71.4616 190.547 71.8254 191.638C71.9164 191.911 71.9164 192.184 72.0073 192.457L72.1892 193.185C72.2802 193.639 72.4621 194.185 72.5531 194.64C73.0988 196.55 73.8264 198.551 74.736 200.188C75.1907 201.007 75.8274 201.825 76.555 202.371C76.9189 202.644 77.3736 202.917 77.8284 203.008C78.647 203.281 79.5565 202.735 79.7384 201.825C80.1932 199.006 79.4656 195.368 77.2827 192.002C73.9174 186.454 68.3692 183.816 65.0039 185.908Z" fill="#0066C6"/>
<path d="M283.651 210.103C282.013 210.103 280.558 209.74 279.285 208.921C274.282 205.738 273.828 197.37 278.375 190.184C281.65 185 286.652 181.635 291.291 181.635C292.928 181.635 294.383 181.999 295.657 182.817C298.112 184.363 299.568 187.274 299.749 190.821C299.84 194.277 298.749 198.097 296.657 201.554C293.292 206.738 288.289 210.103 283.651 210.103Z" fill="white"/>
<path d="M291.289 182.546C292.653 182.546 294.017 182.909 295.2 183.637C299.838 186.548 300.111 194.37 295.836 201.1C292.653 206.194 287.832 209.195 283.739 209.195C282.375 209.195 281.011 208.831 279.828 208.104C275.19 205.193 274.917 197.371 279.192 190.641C282.284 185.547 287.105 182.546 291.289 182.546ZM291.289 180.727C286.377 180.727 281.011 184.274 277.646 189.64C272.825 197.371 273.28 206.103 278.828 209.65C280.283 210.56 281.92 211.014 283.648 211.014C288.56 211.014 293.926 207.467 297.292 202.101C299.565 198.554 300.657 194.552 300.566 190.913C300.384 187.002 298.838 183.91 296.109 182.182C294.654 181.181 293.017 180.727 291.289 180.727Z" fill="#7C492C"/>
<path d="M280.83 203.645C281.375 203.645 282.012 203.554 282.558 203.372C283.74 202.917 284.65 202.189 285.377 201.28C286.833 199.461 287.742 197.369 288.379 195.277C288.561 194.731 288.652 194.185 288.743 193.64L288.925 192.821L289.016 192.093C289.197 191.184 289.47 190.274 289.925 189.456C290.38 188.637 291.017 187.91 291.835 187.455C293.29 186.545 295.291 187.273 295.746 188.91C296.656 191.821 295.928 195.914 293.563 199.734C290.107 205.191 284.559 207.919 281.103 205.737C280.193 205.191 279.556 204.281 279.102 203.19C279.738 203.554 280.284 203.645 280.83 203.645Z" fill="#0066C6"/>
<path d="M293.653 185.908C293.926 186.09 294.108 186.272 294.29 186.454C293.38 186.181 292.38 186.181 291.379 186.454C290.197 186.818 289.196 187.546 288.469 188.455C287.65 189.365 287.195 190.547 286.831 191.638C286.74 191.911 286.74 192.184 286.649 192.457L286.468 193.185C286.377 193.639 286.195 194.185 286.104 194.64C285.558 196.55 284.83 198.551 283.921 200.188C283.466 201.007 282.829 201.825 282.102 202.371C281.738 202.644 281.283 202.917 280.828 203.008C280.01 203.281 279.1 202.735 278.918 201.825C278.464 199.006 279.191 195.368 281.374 192.002C284.739 186.454 290.288 183.816 293.653 185.908Z" fill="#0066C6"/>
<mask id="mask2_690_45342" style="mask-type:alpha" maskUnits="userSpaceOnUse" x="69" y="155" width="221" height="127">
<path d="M231.352 277.589C229.078 279.499 226.168 280.591 223.075 280.591H187.785C184.056 280.591 180.873 279.408 178.599 277.316C175.961 279.772 172.414 281.318 168.412 281.318C163.773 281.318 159.771 279.317 157.133 276.134C153.495 278.499 149.039 279.863 144.127 279.863C139.216 279.863 134.759 278.499 131.121 276.134C128.847 278.863 125.481 280.591 121.661 280.591H84.9159C77.2758 280.591 71.9095 275.315 71.9095 267.675V260.308C71.9095 259.307 72.0004 258.398 72.1823 257.488C70.6361 255.396 69.7266 252.759 69.7266 250.03C69.7266 247.665 70.3632 245.391 71.5456 243.481C71.0909 242.208 70.818 240.753 70.818 239.297C70.818 234.477 73.5466 230.02 78.0034 227.655C78.1853 220.743 83.9154 215.558 91.6465 215.558C96.0123 215.558 99.7414 217.196 102.197 219.833C104.653 217.196 108.382 215.558 112.657 215.558C113.748 215.558 114.749 215.649 115.749 215.831C114.112 213.739 113.112 211.284 112.839 208.555H108.018C100.742 208.555 94.9209 202.643 94.9209 195.458C94.9209 193.093 95.5575 190.819 96.7399 188.909C96.2852 187.636 96.1033 186.271 96.1033 184.907C96.1033 181.905 97.1038 179.177 98.8319 176.994C97.4676 174.902 96.649 172.355 96.649 169.718C96.649 162.532 102.561 156.62 109.746 156.62H145.128C150.494 156.62 155.133 159.804 157.133 164.442C159.044 159.076 164.228 155.529 170.868 155.529C175.961 155.529 180.236 157.621 182.783 160.986C185.329 157.439 189.695 155.256 194.879 155.256C199.973 155.256 204.157 157.348 206.794 160.713C210.615 158.166 215.253 156.711 220.529 156.711C225.622 156.711 230.261 158.075 233.99 160.44C236.627 157.257 240.72 156.529 245.359 156.529C253.545 156.529 260.003 162.714 260.003 170.627V206.736C260.003 211.284 257.82 215.286 254.454 217.923H255.728C257.183 217.923 258.547 218.196 259.821 218.56C262.186 216.832 265.187 215.831 268.552 215.831C276.647 215.831 283.014 221.925 283.014 229.747V235.205C286.834 237.478 289.29 241.844 289.29 247.029C289.29 252.395 286.834 256.761 283.014 259.035V267.493C283.014 275.315 276.647 281.5 268.552 281.5C264.368 281.5 260.73 280.591 257.638 278.044C256.546 279.954 255.091 281.045 253.545 281.045H236.082C234.081 280.954 232.534 279.681 231.352 277.589Z" fill="#FFF8EF"/>
</mask>
<g mask="url(#mask2_690_45342)">
<path d="M51.5352 156.164H307.298" stroke="#E3A981" stroke-width="0.434611" stroke-miterlimit="10"/>
<path d="M51.5352 159.803H307.298" stroke="#E3A981" stroke-width="0.434611" stroke-miterlimit="10"/>
<path d="M51.5352 163.441H307.298" stroke="#E3A981" stroke-width="0.434611" stroke-miterlimit="10"/>
<path d="M51.5352 167.078H307.298" stroke="#E3A981" stroke-width="0.434611" stroke-miterlimit="10"/>
<path d="M51.5352 170.717H307.298" stroke="#E3A981" stroke-width="0.434611" stroke-miterlimit="10"/>
<path d="M51.5352 174.445H307.298" stroke="#E3A981" stroke-width="0.434611" stroke-miterlimit="10"/>
<path d="M51.5352 178.082H307.298" stroke="#E3A981" stroke-width="0.434611" stroke-miterlimit="10"/>
<path d="M51.5352 181.723H307.298" stroke="#E3A981" stroke-width="0.434611" stroke-miterlimit="10"/>
<path d="M51.5352 185.359H307.298" stroke="#E3A981" stroke-width="0.434611" stroke-miterlimit="10"/>
<path d="M51.5352 188.998H307.298" stroke="#E3A981" stroke-width="0.434611" stroke-miterlimit="10"/>
<path d="M51.5352 192.637H307.298" stroke="#E3A981" stroke-width="0.434611" stroke-miterlimit="10"/>
<path d="M51.5352 196.275H307.298" stroke="#E3A981" stroke-width="0.434611" stroke-miterlimit="10"/>
<path d="M51.5352 200.004H307.298" stroke="#E3A981" stroke-width="0.434611" stroke-miterlimit="10"/>
<path d="M51.5352 203.643H307.298" stroke="#E3A981" stroke-width="0.434611" stroke-miterlimit="10"/>
<path d="M51.5352 207.281H307.298" stroke="#E3A981" stroke-width="0.434611" stroke-miterlimit="10"/>
<path d="M51.5352 210.918H307.298" stroke="#E3A981" stroke-width="0.434611" stroke-miterlimit="10"/>
<path d="M51.5352 214.557H307.298" stroke="#E3A981" stroke-width="0.434611" stroke-miterlimit="10"/>
<path d="M51.5352 218.195H307.298" stroke="#E3A981" stroke-width="0.434611" stroke-miterlimit="10"/>
<path d="M51.5352 221.924H307.298" stroke="#E3A981" stroke-width="0.434611" stroke-miterlimit="10"/>
<path d="M51.5352 225.562H307.298" stroke="#E3A981" stroke-width="0.434611" stroke-miterlimit="10"/>
<path d="M51.5352 229.199H307.298" stroke="#E3A981" stroke-width="0.434611" stroke-miterlimit="10"/>
<path d="M51.5352 232.838H307.298" stroke="#E3A981" stroke-width="0.434611" stroke-miterlimit="10"/>
<path d="M51.5352 236.477H307.298" stroke="#E3A981" stroke-width="0.434611" stroke-miterlimit="10"/>
<path d="M51.5352 240.115H307.298" stroke="#E3A981" stroke-width="0.434611" stroke-miterlimit="10"/>
<path d="M51.5352 243.844H307.298" stroke="#E3A981" stroke-width="0.434611" stroke-miterlimit="10"/>
<path d="M51.5352 247.482H307.298" stroke="#E3A981" stroke-width="0.434611" stroke-miterlimit="10"/>
<path d="M51.5352 251.121H307.298" stroke="#E3A981" stroke-width="0.434611" stroke-miterlimit="10"/>
<path d="M51.5352 254.758H307.298" stroke="#E3A981" stroke-width="0.434611" stroke-miterlimit="10"/>
<path d="M51.5352 258.396H307.298" stroke="#E3A981" stroke-width="0.434611" stroke-miterlimit="10"/>
<path d="M51.5352 262.035H307.298" stroke="#E3A981" stroke-width="0.434611" stroke-miterlimit="10"/>
<path d="M51.5352 265.764H307.298" stroke="#E3A981" stroke-width="0.434611" stroke-miterlimit="10"/>
<path d="M51.5352 269.402H307.298" stroke="#E3A981" stroke-width="0.434611" stroke-miterlimit="10"/>
<path d="M51.5352 273.041H307.298" stroke="#E3A981" stroke-width="0.434611" stroke-miterlimit="10"/>
<path d="M51.5352 276.678H307.298" stroke="#E3A981" stroke-width="0.434611" stroke-miterlimit="10"/>
<path d="M51.5352 280.316H307.298" stroke="#E3A981" stroke-width="0.434611" stroke-miterlimit="10"/>
</g>
<path d="M278.192 237.386V228.927C278.192 223.652 273.826 219.559 268.278 219.559C265.003 219.559 262.184 221.014 260.365 223.197C259 222.196 257.272 221.651 255.453 221.651H252.179C250.996 216.921 247.995 215.193 247.995 215.193C251.36 214.283 253.907 211.919 254.816 208.644C255.089 207.826 255.18 206.916 255.18 206.007V168.624C255.18 163.167 250.814 159.074 245.084 159.074C239.9 159.074 235.898 162.44 235.17 167.169C231.896 163.076 226.53 160.529 220.163 160.529C213.432 160.529 207.793 163.531 204.61 168.17C204.61 162.803 200.517 159.165 194.605 159.165C188.693 159.165 184.6 162.894 184.6 168.17V177.174C181.052 175.173 180.507 172.717 180.507 170.534V168.352C180.507 163.076 176.414 159.438 170.593 159.438C164.772 159.438 160.679 163.076 160.679 168.352V170.534C160.679 172.899 160.042 175.628 155.494 177.72C154.403 178.175 153.402 178.902 152.675 179.721C151.765 178.356 150.583 177.265 149.128 176.537C151.765 175.082 153.493 172.263 153.493 168.988C153.493 164.259 149.673 160.439 144.944 160.439H109.744C105.015 160.439 101.195 164.259 101.195 168.988C101.195 172.263 103.014 175.082 105.561 176.537C102.65 177.902 100.649 180.812 100.649 184.178C100.649 185.815 101.104 187.361 102.013 188.725C100.467 190.271 99.4666 192.363 99.4666 194.728C99.4666 199.458 103.287 203.278 108.016 203.278H117.294V206.552C117.294 206.916 117.294 207.371 117.385 207.735C117.748 214.011 128.481 220.65 128.481 220.65C124.297 220.377 120.113 220.195 116.657 220.195C115.475 219.741 114.019 219.468 112.564 219.468C111.018 219.468 109.653 219.741 108.38 220.286C105.379 221.56 103.469 224.106 103.469 227.29V227.381C103.469 227.745 103.469 228.381 102.104 229.382C100.831 228.472 100.831 227.836 100.831 227.381V227.29C100.831 222.742 96.9199 219.468 91.6446 219.468C86.3692 219.468 82.5492 222.742 82.5492 227.29V227.381C82.5492 228.563 81.7306 230.291 80.5482 230.837L80.4572 230.928C77.3648 232.474 75.4547 235.476 75.4547 238.75C75.4547 240.569 76.0005 242.206 77.0009 243.48C75.3638 244.935 74.3633 247.118 74.3633 249.483C74.3633 252.029 75.5457 254.303 77.4557 255.758C76.91 256.941 76.5462 258.305 76.5462 259.76V267.128C76.5462 272.221 79.8205 275.496 85.0049 275.496H121.659C125.934 275.496 129.3 272.039 129.3 267.855C129.3 267.764 129.3 267.673 129.3 267.583C132.392 272.039 137.758 274.768 144.034 274.768C150.128 274.768 155.403 272.13 158.496 267.946C159.133 272.676 163.225 276.223 168.319 276.223C173.049 276.223 177.505 273.313 178.506 269.129C179.415 273.04 183.235 275.496 187.692 275.496H222.982C226.166 275.496 228.894 273.767 230.35 271.13C231.623 272.312 233.897 273.585 237.444 273.585C237.626 273.585 237.808 273.585 237.99 273.585C243.811 273.495 250.814 273.131 258.091 271.584C258.545 271.494 259 271.312 259.455 271.221C261.092 274.222 264.276 276.132 268.187 276.132C273.826 276.132 278.101 272.039 278.101 266.673V255.213C281.83 254.394 284.376 250.938 284.376 246.208C284.467 241.661 281.921 238.295 278.192 237.386Z" fill="white"/>
<path d="M116.841 205.28C116.841 208.191 116.022 216.377 125.845 221.106C135.668 225.836 141.126 213.557 141.126 213.557L131.03 202.643L116.841 205.28Z" fill="white"/>
<path d="M146.853 190.363C149.309 190.363 151.31 192.364 151.31 194.729C151.31 197.185 149.309 199.186 146.853 199.186H133.392V206.553C133.392 209.828 130.754 212.01 127.389 212.01C124.114 212.01 121.386 209.828 121.386 206.553V199.186H108.015C105.469 199.186 103.559 197.185 103.559 194.729C103.559 192.273 105.56 190.363 108.015 190.363H146.853ZM121.295 173.446H109.743C107.197 173.446 105.287 171.354 105.287 168.898C105.287 166.442 107.288 164.441 109.743 164.441H145.125C147.671 164.441 149.581 166.442 149.581 168.898C149.581 171.354 147.58 173.446 145.125 173.446H133.392C134.21 175.629 137.121 178.994 145.943 179.722C148.217 179.904 150.036 181.814 150.036 184.088C150.036 186.634 147.853 188.726 145.307 188.453C136.211 187.726 130.572 184.997 127.389 181.086C124.114 184.997 118.566 187.726 109.471 188.453C106.924 188.726 104.741 186.634 104.741 184.088C104.741 181.814 106.56 179.904 108.834 179.722C117.566 178.994 120.749 175.629 121.295 173.446Z" fill="#0066C6"/>
<path d="M154.492 185.725C154.492 183.815 155.583 182.086 157.312 181.359C162.86 178.812 164.952 174.901 164.952 170.444V168.261C164.952 165.078 167.498 163.441 170.773 163.441C174.047 163.441 176.594 165.078 176.594 168.261V170.444C176.594 174.992 178.686 178.812 184.234 181.359C185.871 182.086 187.054 183.815 187.054 185.725C187.054 188.362 184.871 190.545 182.233 190.545C181.596 190.545 180.869 190.363 180.323 190.181C176.048 188.271 173.047 185.816 170.682 182.541C168.226 185.906 165.316 188.362 161.041 190.181C160.495 190.363 159.858 190.545 159.131 190.545C156.675 190.454 154.492 188.362 154.492 185.725ZM188.327 206.28V201.369H160.859C158.494 201.369 156.493 199.459 156.493 197.003C156.493 194.547 158.494 192.637 160.859 192.637H195.876C198.969 192.637 200.606 194.274 200.606 197.367V206.28C200.606 209.555 197.786 211.374 194.421 211.374C191.147 211.374 188.327 209.555 188.327 206.28ZM188.873 186.634V168.079C188.873 164.805 191.51 163.168 194.785 163.168C198.059 163.168 200.697 164.805 200.697 168.079V186.634C200.697 189.908 198.059 191.455 194.785 191.455C191.51 191.455 188.873 189.908 188.873 186.634Z" fill="#0066C6"/>
<path d="M206.156 197.549V177.084C206.156 169.626 212.614 164.532 220.436 164.532C228.349 164.532 234.898 169.626 234.898 177.084V197.458C234.898 205.007 228.349 210.009 220.436 210.009C212.523 210.009 206.156 205.007 206.156 197.549ZM223.801 198.094V176.538C223.801 175.083 222.528 173.446 220.527 173.446C218.526 173.446 217.253 175.083 217.253 176.538V198.094C217.253 199.641 218.526 201.096 220.527 201.096C222.528 201.096 223.801 199.641 223.801 198.094ZM239.355 206.007V168.625C239.355 165.351 241.992 163.168 245.267 163.168C248.632 163.168 251.27 165.351 251.27 168.625V206.007C251.27 209.282 248.632 211.465 245.267 211.465C241.992 211.465 239.355 209.282 239.355 206.007Z" fill="#0066C6"/>
<path d="M82.2754 253.305C80.0925 253.305 78.2734 251.486 78.2734 249.394C78.2734 247.211 80.0016 245.392 82.2754 245.392H96.5552V244.755C96.5552 243.3 97.7376 242.117 99.5567 241.572C99.1019 241.39 98.7381 241.299 98.2833 241.026C95.8276 239.844 93.6447 238.115 92.1894 236.205C90.0975 239.389 87.9146 241.754 85.3679 242.481C85.004 242.663 84.3674 242.754 83.9126 242.754C81.4568 242.754 79.4558 241.026 79.4558 238.57C79.4558 236.66 80.7292 235.205 82.2754 234.386C85.095 233.113 86.6412 229.839 86.6412 227.201V227.11C86.6412 224.745 88.9151 223.381 91.6437 223.381C94.4633 223.381 96.7371 224.745 96.7371 227.11V227.201C96.7371 229.748 98.0105 231.931 102.103 233.841C106.196 231.931 107.652 229.748 107.652 227.201V227.11C107.652 224.745 109.835 223.381 112.654 223.381C115.474 223.381 117.657 224.745 117.657 227.11V227.201C117.657 229.839 119.294 233.113 122.022 234.386C123.569 235.114 124.842 236.569 124.842 238.57C124.842 241.026 122.841 242.754 120.385 242.754C119.93 242.754 119.385 242.663 118.93 242.481C116.383 241.663 114.109 239.389 112.108 236.205C110.562 238.115 108.47 239.935 105.924 241.117C105.56 241.299 105.196 241.481 104.741 241.572C106.469 242.117 107.652 243.3 107.652 244.755V245.392H122.022C124.205 245.392 126.024 247.12 126.024 249.394C126.024 251.486 124.296 253.305 122.022 253.305H82.2754ZM121.568 264.128C123.569 264.128 125.115 265.765 125.115 267.766C125.115 269.767 123.478 271.314 121.568 271.314H84.8221C82.0026 271.314 80.4563 269.858 80.4563 267.039V259.672C80.4563 256.852 82.0026 255.397 84.8221 255.397H121.022C123.023 255.397 124.569 257.034 124.569 259.035C124.569 260.945 123.023 262.491 121.022 262.491H92.0075V264.037H121.568V264.128Z" fill="#0066C6"/>
<path d="M130.391 258.124V237.75C130.391 230.292 136.485 225.199 143.943 225.199C151.401 225.199 157.495 230.292 157.495 237.75V258.124C157.495 265.673 151.401 270.676 143.943 270.676C136.485 270.676 130.391 265.673 130.391 258.124ZM147.126 258.761V237.023C147.126 235.567 145.944 234.021 144.034 234.021C142.306 234.021 141.032 235.567 141.032 237.023V258.761C141.032 260.307 142.215 261.671 144.034 261.671C145.853 261.671 147.126 260.307 147.126 258.761ZM162.406 266.674V228.928C162.406 225.835 165.044 223.652 168.228 223.652C171.502 223.652 174.049 225.835 174.049 228.928V241.206H175.322C178.051 241.206 179.324 243.48 179.324 246.118C179.324 248.938 178.051 251.211 175.322 251.211H174.049V266.583C174.049 269.766 171.502 271.949 168.228 271.949C165.044 272.04 162.406 269.857 162.406 266.674Z" fill="#0066C6"/>
<path d="M179.777 247.845C179.777 245.662 181.324 243.934 183.325 243.388C187.963 242.297 190.783 239.022 190.783 234.111V234.02H184.689C182.324 234.02 180.232 232.019 180.232 229.563C180.232 227.107 182.324 225.106 184.689 225.106H207.336C209.792 225.106 211.793 227.198 211.793 229.563C211.793 232.019 209.701 234.02 207.336 234.02H201.333V234.111C201.333 239.022 204.244 242.297 208.792 243.388C210.884 243.934 212.339 245.753 212.339 247.845C212.339 250.847 209.701 253.029 206.7 252.393C201.97 251.392 198.696 249.209 195.967 245.935C193.33 249.209 189.873 251.483 185.235 252.393C182.233 253.029 179.777 250.665 179.777 247.845ZM187.69 271.311C184.598 271.311 182.87 269.674 182.87 266.582V259.123C182.87 255.849 185.598 254.212 188.873 254.212C192.147 254.212 194.876 255.849 194.876 259.123V262.671H222.981C225.436 262.671 227.346 264.672 227.346 267.036C227.346 269.492 225.436 271.402 222.981 271.402H187.69V271.311ZM214.158 255.03V228.654C214.158 225.379 216.796 223.742 220.07 223.742C223.344 223.742 225.982 225.379 225.982 228.654V255.03C225.982 258.305 223.344 259.851 220.07 259.851C216.796 259.851 214.158 258.305 214.158 255.03Z" fill="#0066C6"/>
<path d="M231.352 263.308V232.202C231.352 228.018 233.625 225.744 237.809 225.744H255.545C258.001 225.744 260.002 227.836 260.002 230.292C260.002 232.839 258.001 234.749 255.545 234.749H242.903V259.67C247.359 259.488 251.816 258.943 256.546 257.851C259.729 257.123 261.73 259.579 261.73 262.49C261.73 265.036 260.184 266.947 257.273 267.583C250.725 268.857 244.358 269.311 237.9 269.493C233.716 269.675 231.352 267.583 231.352 263.308ZM262.458 266.674V228.928C262.458 225.835 265.005 223.652 268.279 223.652C271.553 223.652 274.1 225.835 274.1 228.928V241.206H276.283C279.012 241.206 280.285 243.48 280.285 246.118C280.285 248.938 279.012 251.211 276.283 251.211H274.1V266.583C274.1 269.766 271.553 271.949 268.279 271.949C265.005 271.949 262.458 269.857 262.458 266.674Z" fill="#0066C6"/>
<path d="M268.281 282.228C263.915 282.228 260.459 281.228 257.639 279.227C256.366 280.955 254.911 281.865 253.274 281.865H235.81C233.991 281.865 232.354 280.864 230.99 278.954C228.625 280.591 225.805 281.501 222.895 281.501H187.605C184.058 281.501 180.874 280.5 178.418 278.499C175.599 280.864 172.052 282.228 168.141 282.228C163.684 282.228 159.591 280.409 156.68 277.317C152.951 279.591 148.494 280.773 143.856 280.773C139.217 280.773 134.76 279.591 131.031 277.317C128.575 279.954 125.119 281.501 121.39 281.501H84.8266C76.6407 281.501 70.9106 275.862 70.9106 267.676V260.308C70.9106 259.399 71.0015 258.489 71.0925 257.671C69.4553 255.397 68.6367 252.759 68.6367 249.94C68.6367 247.575 69.2734 245.301 70.3648 243.209C70.001 241.936 69.7282 240.571 69.7282 239.116C69.7282 234.114 72.4568 229.475 76.9135 226.928C77.3683 219.743 83.4622 214.467 91.4662 214.467C95.5591 214.467 99.2883 215.832 102.017 218.379C105.018 215.65 109.202 214.195 113.75 214.558C112.84 212.921 112.204 211.193 111.931 209.283H107.929C100.198 209.283 93.922 203.007 93.922 195.276C93.922 192.911 94.5586 190.638 95.6501 188.546C95.2863 187.272 95.1044 185.999 95.1044 184.635C95.1044 181.724 96.0139 178.995 97.6511 176.722C96.3777 174.539 95.6501 171.992 95.6501 169.445C95.6501 161.896 101.926 155.62 109.748 155.62H145.129C150.041 155.62 154.497 158.167 157.044 162.26C159.5 157.439 164.684 154.529 170.869 154.529C175.69 154.529 179.874 156.348 182.693 159.44C185.513 156.166 189.879 154.256 194.79 154.256C199.702 154.256 203.976 156.166 206.887 159.44C210.798 156.984 215.437 155.711 220.439 155.711C225.26 155.711 229.898 156.894 233.718 159.167C236.811 155.984 241.268 155.529 245.27 155.529C254.001 155.529 260.823 162.078 260.823 170.537V206.645C260.823 210.556 259.368 214.195 256.639 216.923C257.548 217.014 258.549 217.196 259.459 217.469C262.005 215.741 265.098 214.831 268.281 214.831C276.922 214.831 283.652 221.289 283.652 229.657V234.568C287.563 237.115 289.928 241.754 289.928 246.938C289.928 252.304 287.563 256.943 283.652 259.49V267.403C283.652 275.68 276.922 282.228 268.281 282.228ZM257.367 276.953C257.548 276.953 257.821 277.044 257.912 277.135C260.641 279.318 263.915 280.409 268.19 280.409C275.739 280.409 281.742 274.679 281.742 267.312V258.853C281.742 258.489 281.924 258.216 282.197 258.035C285.835 255.852 288.018 251.668 288.018 246.756C288.018 242.027 285.835 237.934 282.197 235.66C281.924 235.478 281.742 235.205 281.742 234.841V229.384C281.742 222.108 275.83 216.378 268.19 216.378C265.189 216.378 262.369 217.287 260.004 218.924C259.731 219.106 259.459 219.106 259.186 219.015C258.003 218.651 256.639 218.379 255.366 218.379H254.092C253.728 218.379 253.365 218.106 253.274 217.742C253.183 217.378 253.274 216.923 253.546 216.741C256.912 214.286 258.731 210.466 258.731 206.282V170.537C258.731 163.169 252.728 157.348 244.997 157.348C239.631 157.348 236.356 158.44 234.355 160.896C234.082 161.259 233.537 161.35 233.173 161.077C229.444 158.713 224.987 157.439 220.166 157.439C215.255 157.439 210.707 158.804 206.978 161.259C206.614 161.532 206.068 161.441 205.705 161.077C203.249 157.803 199.156 155.984 194.517 155.984C189.697 155.984 185.604 157.894 183.148 161.35C182.966 161.623 182.693 161.714 182.42 161.714C182.147 161.714 181.875 161.623 181.693 161.35C179.237 158.076 175.144 156.257 170.505 156.257C164.32 156.257 159.409 159.44 157.59 164.534C157.499 164.897 157.135 165.17 156.771 165.17C156.407 165.17 156.044 164.988 155.862 164.625C153.861 160.168 149.495 157.348 144.674 157.348H109.748C103.017 157.348 97.5601 162.806 97.5601 169.536C97.5601 171.992 98.2878 174.357 99.5611 176.358C99.743 176.722 99.743 177.085 99.5611 177.449C97.924 179.541 97.0144 182.088 97.0144 184.816C97.0144 186.09 97.1963 187.363 97.6511 188.546C97.742 188.818 97.742 189.091 97.5601 189.273C96.4687 191.092 95.923 193.275 95.923 195.367C95.923 202.098 101.38 207.555 108.111 207.555H112.84C113.295 207.555 113.659 207.919 113.75 208.374C114.023 210.92 114.932 213.285 116.479 215.195C116.751 215.468 116.751 215.923 116.57 216.196C116.388 216.559 116.024 216.65 115.66 216.65C114.66 216.468 113.659 216.378 112.749 216.378C108.838 216.378 105.382 217.833 102.926 220.38C102.745 220.561 102.472 220.652 102.29 220.652C102.017 220.652 101.835 220.561 101.653 220.38C99.2883 217.833 95.7411 216.378 91.7391 216.378C84.6446 216.378 79.0964 221.198 79.0055 227.565C79.0055 227.929 78.8236 228.202 78.5507 228.383C74.4578 230.566 71.8201 234.75 71.8201 239.298C71.8201 240.662 72.002 241.936 72.4568 243.209C72.5477 243.482 72.5477 243.755 72.3658 243.937C71.2744 245.756 70.6377 247.848 70.6377 250.031C70.6377 252.577 71.4563 254.942 72.9116 256.943C73.0935 257.125 73.0935 257.398 73.0935 257.671C72.9116 258.489 72.8206 259.399 72.8206 260.399V267.767C72.8206 274.861 77.8231 279.773 84.9175 279.773H121.572C124.937 279.773 128.121 278.226 130.304 275.589C130.576 275.225 131.122 275.134 131.486 275.407C135.033 277.772 139.399 279.045 143.947 279.045C148.585 279.045 152.86 277.772 156.407 275.407C156.771 275.134 157.317 275.225 157.59 275.589C160.137 278.681 163.957 280.409 168.231 280.409C171.87 280.409 175.326 279.045 177.782 276.68C178.146 276.316 178.691 276.316 179.055 276.68C181.329 278.681 184.239 279.773 187.696 279.773H222.986C225.715 279.773 228.443 278.863 230.535 277.044C230.626 276.862 230.808 276.771 230.99 276.68C231.354 276.589 231.808 276.771 231.99 277.135C232.718 278.408 233.9 279.954 235.719 279.954H253.183C254.365 279.954 255.547 279.045 256.548 277.408C256.639 277.135 256.912 277.044 257.185 276.953C257.276 277.044 257.367 276.953 257.367 276.953Z" fill="#7C492C" stroke="#7C492C" stroke-width="0.816998"/>
<path d="M230.259 300.785C228.895 300.785 227.622 300.421 226.53 299.784C221.983 297.056 221.437 289.597 225.257 283.049C228.077 278.319 232.624 275.227 236.808 275.227C238.172 275.227 239.446 275.59 240.537 276.227C242.811 277.591 244.175 280.138 244.357 283.321C244.539 286.414 243.63 289.87 241.811 292.963C238.991 297.783 234.443 300.785 230.259 300.785Z" fill="white"/>
<path d="M236.81 276.135C237.992 276.135 239.084 276.408 240.084 277.045C244.177 279.501 244.632 286.413 240.994 292.507C238.265 297.146 233.99 299.875 230.261 299.875C229.079 299.875 227.987 299.602 226.987 298.965C222.894 296.509 222.439 289.597 226.077 283.503C228.806 278.955 233.081 276.135 236.81 276.135ZM236.81 274.316C232.353 274.316 227.532 277.591 224.531 282.593C222.621 285.868 221.62 289.415 221.802 292.689C221.984 296.236 223.53 299.056 226.077 300.511C227.351 301.239 228.715 301.603 230.261 301.603C234.718 301.603 239.538 298.328 242.54 293.326C246.724 286.322 246.087 278.409 240.994 275.317C239.811 274.68 238.356 274.316 236.81 274.316Z" fill="#7C492C"/>
<path d="M229.986 296.418C229.713 295.963 229.622 295.417 229.531 294.963C229.44 293.871 229.622 292.871 230.077 291.87C230.896 289.96 232.169 288.414 233.624 287.05C233.988 286.686 234.352 286.413 234.716 286.049L235.261 285.594L235.807 285.14C236.444 284.594 237.08 284.048 237.444 283.32C237.899 282.593 238.172 281.865 238.263 281.047C238.445 279.5 236.99 278.227 235.534 278.5C232.897 278.955 229.895 281.229 227.894 284.594C224.984 289.505 225.075 294.963 228.167 296.873C228.986 297.327 229.895 297.509 230.987 297.418C230.623 297.236 230.259 296.873 229.986 296.418Z" fill="#0066C6"/>
<path d="M238.901 279.136C238.719 279.045 238.446 278.863 238.264 278.863C238.901 279.5 239.265 280.319 239.447 281.137C239.628 282.138 239.447 283.32 238.992 284.23C238.628 285.23 237.9 286.049 237.082 286.776C236.9 286.958 236.718 287.14 236.536 287.231L235.99 287.686C235.626 287.959 235.354 288.323 234.99 288.595C233.716 289.869 232.443 291.142 231.534 292.597C231.079 293.325 230.715 294.053 230.533 294.962C230.442 295.417 230.442 295.781 230.533 296.236C230.715 297.054 231.534 297.509 232.261 297.236C234.717 296.508 237.264 294.416 239.083 291.324C242.084 286.412 241.902 280.955 238.901 279.136Z" fill="#0066C6"/>
<path d="M49.4498 95.7718L69.55 114.022C71.1745 115.5 73.5341 113.359 72.2257 111.596L56.0735 89.7849C54.4948 87.6562 51.4266 87.355 49.4583 89.1335C47.49 90.9121 47.4912 94.0017 49.4538 95.7832L49.4498 95.7718Z" fill="#F3DECF"/>
<path d="M41.0823 114.902C39.9463 117.259 41.151 120.071 43.6355 120.879L60.7185 126.393C62.7816 127.151 64.1646 124.278 62.2936 123.137L47.3497 113.189C45.1713 111.74 42.2183 112.546 41.0823 114.902Z" fill="#F3DECF"/>
<path d="M75.9351 83.3599C78.3932 82.4598 81.077 83.9417 81.627 86.4978L85.4176 104.039C85.9639 106.167 82.9777 107.26 82.0211 105.277L73.6031 89.4275C72.3767 87.1168 73.4694 84.2563 75.9274 83.3562L75.9351 83.3599Z" fill="#F3DECF"/>
<path d="M101.308 86.9925C103.839 87.6627 105.2 90.4071 104.191 92.8148L98.3825 104.469C97.616 106.529 94.5349 105.719 94.8903 103.549L95.9348 90.6401C96.2482 88.042 98.7759 86.3224 101.311 86.9848L101.308 86.9925Z" fill="#F3DECF"/>
<path d="M42.1736 140.517C42.5865 143.102 45.1849 144.723 47.6798 143.964L59.857 139.343C61.9808 138.786 61.4817 135.647 59.289 135.774L46.3374 135.533C43.7266 135.584 41.757 137.939 42.1622 140.521L42.1736 140.517Z" fill="#F3DECF"/>
<defs>
<clipPath id="clip0_690_45342">
<rect width="77.9807" height="12.0196" fill="white" transform="translate(113.707 63.1055)"/>
</clipPath>
</defs>
</svg>
