<svg viewBox="0 0 343 126" fill="none" xmlns="http://www.w3.org/2000/svg">
<rect width="343" height="59" rx="17" fill="#F7F7F7"/>
<path d="M92.3555 14.7461H91.2891V18.9531H89.9414V14.957H88.8984V24.707H89.9414V19.8672H91.2891V25.2461H92.3555V14.7461ZM83.8594 22.5742H84.5391C85.6699 22.5801 86.8711 22.5039 88.3125 22.2461L88.1953 21.2734C87 21.5078 85.9395 21.584 84.9727 21.5957V15.9883H83.8594V22.5742ZM101.918 14.7461H100.805V25.2344H101.918V19.8555H103.547V18.9297H101.918V14.7461ZM93.75 22.4336L94.3711 23.3008C97.8281 21.5957 99.1641 18.8828 99.1758 15.8477H94.2773V16.7734H98.0391C97.8105 19.2227 96.3809 21.1211 93.75 22.4336ZM116.648 23.043H112.383V20.7578H111.281V23.043H107.039V23.957H116.648V23.043ZM107.508 20.2539L107.93 21.1211C109.688 20.8457 111.146 20.0137 111.826 18.7891C112.512 20.0137 113.977 20.8457 115.734 21.1211L116.156 20.2539C114 19.9375 112.447 18.7188 112.395 17.2422H115.758V16.3398H112.383V14.9336H111.281V16.3398H107.906V17.2422H111.27C111.217 18.7188 109.664 19.9375 107.508 20.2539ZM126.422 14.7461H125.355V18.9062H123.996V14.957H122.977V24.707H123.996V19.8203H125.355V25.2461H126.422V14.7461ZM117.762 22.7266H118.465C119.994 22.7148 121.084 22.6738 122.344 22.4102L122.262 21.4961C121.137 21.7129 120.164 21.7715 118.875 21.7773V16.9141H121.699V16.0117H117.762V22.7266ZM136.031 14.7578H134.918V22.6094H136.031V19.0586H137.555V18.1328H136.031V14.7578ZM127.793 16.8789H134.051V15.9766H131.484V14.7461H130.371V15.9766H127.793V16.8789ZM128.367 19.3633C128.361 20.5527 129.398 21.3262 130.922 21.332C132.428 21.3262 133.465 20.5527 133.465 19.3633C133.465 18.1621 132.428 17.377 130.922 17.3828C129.398 17.377 128.361 18.1621 128.367 19.3633ZM129.375 25.0234H136.477V24.1211H130.488V21.9883H129.375V25.0234ZM129.445 19.3633C129.434 18.6719 130.031 18.2441 130.922 18.2383C131.812 18.2441 132.41 18.6719 132.422 19.3633C132.41 20.0488 131.812 20.4707 130.922 20.4648C130.031 20.4707 129.434 20.0488 129.445 19.3633ZM149.789 14.7578H148.676V22.4922H149.789V14.7578ZM141.258 20.3945L141.809 21.2617C143.062 20.8633 143.982 19.9961 144.451 18.9004C144.926 19.9141 145.846 20.7051 147.082 21.0859L147.621 20.207C145.998 19.7207 144.979 18.5137 144.984 17.1953V16.9844H147.305V16.0938H144.996V14.793H143.871V16.0938H141.539V16.9844H143.871V17.1953C143.877 18.5898 142.881 19.8848 141.258 20.3945ZM142.922 25.0234H150.105V24.1211H144.047V21.7773H142.922V25.0234ZM159.809 15.4023H152.625V16.3164H158.707V16.3281C158.701 17.3066 158.701 18.4023 158.391 19.9023H151.453V20.8164H155.648V25.2578H156.773V20.8164H161.027V19.9023H159.516C159.809 18.4082 159.809 17.3242 159.809 16.3281V15.4023ZM170.004 14.7461H168.891V25.2344H170.004V19.8555H171.633V18.9297H170.004V14.7461ZM161.836 22.4336L162.457 23.3008C165.914 21.5957 167.25 18.8828 167.262 15.8477H162.363V16.7734H166.125C165.896 19.2227 164.467 21.1211 161.836 22.4336ZM180.527 15.6836H175.605V16.8789H179.033C178.992 17.3887 178.916 17.8691 178.793 18.3203L175.031 18.543L175.23 19.8086L178.33 19.5273C177.715 20.7109 176.66 21.7012 174.973 22.5859L175.793 23.7109C179.637 21.7129 180.521 18.9648 180.527 15.6836ZM180.504 19.9844H182.555V25.3281H184.043V14.6641H182.555V18.7656H180.504V19.9844ZM194.391 14.6641H192.879V25.3281H194.391V14.6641ZM185.402 21.6602L185.543 22.8789C187.5 22.8672 189.967 22.8262 192.234 22.457L192.164 21.3438C191.713 21.3965 191.25 21.4434 190.781 21.4785V16.8438H191.73V15.6484H185.695V16.8438H186.633V21.6484C186.199 21.6543 185.789 21.6602 185.402 21.6602ZM188.086 21.6191V16.8438H189.328V21.5723C188.912 21.5957 188.496 21.6074 188.086 21.6191ZM204.211 14.6641H202.734V25.3281H204.211V20.0664H205.781V18.8359H204.211V14.6641ZM195.738 17.4531H202.008V16.2578H199.652V14.8281H198.152V16.2578H195.738V17.4531ZM196.172 20.5938C196.166 22.082 197.326 23.1309 198.902 23.1367C200.455 23.1309 201.621 22.082 201.621 20.5938C201.621 19.1055 200.455 18.0449 198.902 18.0508C197.326 18.0449 196.166 19.1055 196.172 20.5938ZM197.602 20.5938C197.602 19.7734 198.146 19.2695 198.902 19.2578C199.646 19.2695 200.191 19.7734 200.191 20.5938C200.191 21.4199 199.646 21.9121 198.902 21.9062C198.146 21.9121 197.602 21.4199 197.602 20.5938ZM215.918 20.6289H206.156V21.8477H210.27V25.3398H211.746V21.8477H215.918V20.6289ZM207.141 17.4414C207.135 18.8887 208.717 19.8203 211.008 19.8203C213.299 19.8203 214.898 18.8887 214.898 17.4414C214.898 15.959 213.299 15.0215 211.008 15.0156C208.717 15.0215 207.135 15.959 207.141 17.4414ZM208.676 17.4414C208.67 16.6504 209.578 16.2168 211.008 16.2109C212.449 16.2168 213.352 16.6504 213.352 17.4414C213.352 18.2031 212.449 18.6309 211.008 18.6367C209.578 18.6309 208.67 18.2031 208.676 17.4414ZM222.152 16.0703V15.2969H220.559V16.0703C220.547 17.6172 219.158 19.293 216.785 19.7148L217.43 20.957C219.275 20.582 220.658 19.5273 221.361 18.1738C222.053 19.5391 223.43 20.5879 225.293 20.957L225.949 19.7148C223.535 19.3047 222.146 17.6348 222.152 16.0703ZM216.539 24.0156H226.301V22.7852H216.539V24.0156ZM238.09 14.6641H236.59V25.3047H238.09V19.9844H239.602V18.7539H238.09V14.6641ZM229.559 22.3164L230.402 23.4648C233.988 21.7012 235.23 18.9414 235.242 15.7539H230.168V16.9727H233.725C233.443 19.3516 232.084 21.0508 229.559 22.3164ZM248.977 14.6641H247.477V20.3945H248.977V14.6641ZM240.211 17.6406C240.211 19.0938 241.465 20.1367 243.129 20.1367C244.787 20.1367 246.041 19.0938 246.047 17.6406C246.041 16.1406 244.787 15.0977 243.129 15.1094C241.465 15.0977 240.211 16.1406 240.211 17.6406ZM241.676 17.6406C241.664 16.8379 242.273 16.3457 243.129 16.3516C243.961 16.3457 244.564 16.8379 244.57 17.6406C244.564 18.4316 243.961 18.9062 243.129 18.9062C242.273 18.9062 241.664 18.4316 241.676 17.6406ZM241.84 25.2109H248.977V20.8633H247.488V21.8594H243.316V20.8633H241.84V25.2109ZM243.316 24.0039V23.0195H247.488V24.0039H243.316ZM258.938 15.3086H253.723V19.7969H258.938V15.3086ZM254.285 24.1797L254.801 25.3047C256.582 25.1348 257.854 24.5078 258.51 23.6641C259.16 24.4961 260.42 25.1406 262.195 25.3047L262.699 24.1797C260.584 23.9746 259.465 23.1367 259.301 22.4102H262.289V21.2969H259.254V20.418H257.754V21.2969H254.719V22.4102H257.707C257.543 23.1602 256.418 24.0039 254.285 24.1797ZM255.199 18.625V16.4688H257.449V18.625H255.199ZM260.613 20.7109H262.102V14.6641H260.613V20.7109ZM269.039 15.0508H267.562V19.4102H270.422V20.3125H266.32V21.5078H276.047V20.3125H271.922V19.4102H274.805V15.0508H273.316V16.1172H269.039V15.0508ZM267.492 25.1406H274.945V23.9453H268.992V22.1172H267.492V25.1406ZM269.039 18.2148V17.2656H273.316V18.2148H269.039ZM285.621 14.6758H284.121V22.3398H285.621V14.6758ZM276.855 18.0391C276.855 19.627 278.133 20.7461 279.773 20.7461C281.408 20.7461 282.686 19.627 282.691 18.0391C282.686 16.4746 281.408 15.3496 279.773 15.3555C278.133 15.3496 276.855 16.4746 276.855 18.0391ZM278.32 18.0391C278.309 17.1719 278.936 16.6504 279.773 16.6562C280.582 16.6504 281.209 17.1719 281.215 18.0391C281.209 18.9297 280.582 19.4453 279.773 19.4453C278.936 19.4453 278.309 18.9297 278.32 18.0391ZM278.473 25.1406H285.902V23.9453H279.984V21.5664H278.473V25.1406ZM295.992 14.6758H294.492V22.3398H295.992V14.6758ZM287.227 18.0391C287.227 19.627 288.504 20.7461 290.145 20.7461C291.779 20.7461 293.057 19.627 293.062 18.0391C293.057 16.4746 291.779 15.3496 290.145 15.3555C288.504 15.3496 287.227 16.4746 287.227 18.0391ZM288.691 18.0391C288.68 17.1719 289.307 16.6504 290.145 16.6562C290.953 16.6504 291.58 17.1719 291.586 18.0391C291.58 18.9297 290.953 19.4453 290.145 19.4453C289.307 19.4453 288.68 18.9297 288.691 18.0391ZM288.844 25.1406H296.273V23.9453H290.355V21.5664H288.844V25.1406ZM307.16 19.5742H297.434V20.7812H307.16V19.5742ZM297.867 18.0156L298.359 19.1875C300.381 18.9941 301.723 18.2324 302.285 17.2012C302.854 18.2324 304.207 18.9941 306.223 19.1875L306.75 18.0156C304.699 17.834 303.609 17.0957 303.369 16.3516H306.281V15.1562H298.324V16.3516H301.213C300.967 17.1016 299.871 17.834 297.867 18.0156ZM298.547 23.3594C298.547 24.6191 299.953 25.334 302.285 25.3281C304.6 25.334 305.988 24.6191 306 23.3594C305.988 22.1055 304.6 21.3789 302.285 21.3789C299.953 21.3789 298.547 22.1055 298.547 23.3594ZM300.07 23.3594C300.064 22.8027 300.809 22.5391 302.285 22.5391C303.732 22.5391 304.494 22.8027 304.5 23.3594C304.494 23.9102 303.732 24.168 302.285 24.168C300.809 24.168 300.064 23.9102 300.07 23.3594ZM312.668 14.8164C310.207 14.8164 308.777 15.4609 308.777 16.6328C308.777 17.8223 310.207 18.4609 312.668 18.4609C315.123 18.4609 316.541 17.8223 316.547 16.6328C316.541 15.4609 315.123 14.8164 312.668 14.8164ZM307.805 20.1484H317.531V18.9648H307.805V20.1484ZM308.93 21.8594H314.871V22.4453H308.941V25.2578H316.629V24.1328H310.406V23.4883H316.348V20.7695H308.93V21.8594ZM310.348 16.6328C310.342 16.1582 311.104 15.9062 312.668 15.9062C314.244 15.9062 315 16.1582 315 16.6328C315 17.1543 314.244 17.3594 312.668 17.3594C311.104 17.3594 310.342 17.1543 310.348 16.6328ZM86.5078 33.0977C84.9375 33.1035 83.8184 33.9766 83.8242 35.2656C83.8184 36.3262 84.6035 37.1289 85.7812 37.3633V38.2012C84.873 38.2246 84.0117 38.2305 83.2734 38.2305L83.4258 39.4141C85.207 39.4199 87.6504 39.3672 89.8477 38.9805L89.7305 37.8906C88.9512 38.002 88.1191 38.0781 87.2812 38.1309V37.3516C88.4238 37.1055 89.1855 36.3086 89.1914 35.2656C89.1855 33.9766 88.0664 33.1035 86.5078 33.0977ZM84.6797 43.1289H92.1914V41.9336H86.1797V40.0938H84.6797V43.1289ZM85.2188 35.2656C85.207 34.5977 85.752 34.2344 86.5078 34.2227C87.2695 34.2344 87.7852 34.5977 87.7852 35.2656C87.7852 35.916 87.2754 36.291 86.5078 36.2969C85.752 36.291 85.207 35.916 85.2188 35.2656ZM90.3281 40.8086H91.8281V37.2695H93.1875V36.0273H91.8281V32.6758H90.3281V40.8086ZM103.43 40.9141H101.039V39.2852H102.551V38.0781H96.293V36.8945H102.305V33.3555H94.7812V34.5508H100.828V35.6992H94.793V39.2852H96.1641V40.9141H93.668V42.1445H103.43V40.9141ZM97.6172 40.9141V39.2852H99.5742V40.9141H97.6172ZM112.289 32.7461H111.188V43.2461H112.289V37.9258H113.977V37H112.289V32.7461ZM104.051 35.3008H110.273V34.3867H107.754V32.8867H106.641V34.3867H104.051V35.3008ZM104.59 38.5117C104.59 39.9531 105.691 40.9551 107.203 40.9609C108.709 40.9551 109.811 39.9531 109.816 38.5117C109.811 37.082 108.709 36.0742 107.203 36.0742C105.691 36.0742 104.59 37.082 104.59 38.5117ZM105.656 38.5117C105.65 37.6152 106.307 36.9941 107.203 36.9883C108.094 36.9941 108.744 37.6152 108.75 38.5117C108.744 39.4258 108.094 40.0352 107.203 40.0234C106.307 40.0352 105.65 39.4258 105.656 38.5117ZM119.836 33.6367H114.961V38.6055H119.836V37.6914H122.121V40.4102H123.234V32.7578H122.121V34.5273H119.836V33.6367ZM116.062 37.7266V34.5391H118.746V37.7266H116.062ZM116.379 43.0234H123.469V42.1211H117.504V39.707H116.379V43.0234ZM119.836 36.7773V35.4414H122.121V36.7773H119.836ZM137.59 36.8711H135.961V32.7461H134.848V43.2344H135.961V37.7852H137.59V36.8711ZM128.18 40.5977H129.047C130.623 40.6035 132.275 40.498 134.074 40.1406L133.945 39.2031C132.275 39.543 130.746 39.666 129.281 39.6719V33.7656H128.18V40.5977ZM147.188 32.7461H146.121V43.2461H147.188V32.7461ZM138.27 37.2812C138.27 39.5605 139.16 40.9902 140.531 40.9844C141.832 40.9902 142.705 39.7188 142.805 37.668H143.988V42.7305H145.055V32.9453H143.988V36.7656H142.799C142.67 34.7969 141.809 33.584 140.531 33.5898C139.16 33.584 138.27 35.0078 138.27 37.2812ZM139.301 37.2812C139.301 35.6055 139.775 34.627 140.531 34.6328C141.305 34.627 141.785 35.6055 141.785 37.2812C141.785 38.9512 141.305 39.9355 140.531 39.9297C139.775 39.9355 139.301 38.9512 139.301 37.2812ZM157.547 32.7461H156.492V43.2461H157.547V32.7461ZM148.488 40.2109L149.121 41.0078C150.604 40.1406 151.605 39.0742 152.227 37.8555H154.277V42.7305H155.332V33.0156H154.277V36.9648H152.613C152.936 36.0508 153.076 35.0723 153.082 34.0469H148.98V34.9609H151.975C151.781 37.123 150.715 38.8867 148.488 40.2109ZM170.777 32.7578H169.723V35.8398H168.434V32.9453H167.391V40.2812H168.434V36.7539H169.723V40.5625H170.777V32.7578ZM162.27 34.5273H165.188V35.875H162.293V39.0273H162.984C164.52 39.0332 165.609 38.9805 166.934 38.7344L166.816 37.8438C165.662 38.0664 164.672 38.1309 163.371 38.1367V36.7188H166.254V33.6367H162.27V34.5273ZM163.816 43.0234H171.082V42.1211H164.918V39.8359H163.816V43.0234ZM177.574 33.4023H172.77V38.3711H173.566C175.652 38.3652 176.848 38.3008 178.23 38.0312L178.125 37.1289C176.842 37.3867 175.734 37.4395 173.871 37.4453V34.3047H177.574V33.4023ZM174.023 43.1055H180.949V39.3203H174.023V43.1055ZM175.125 42.2031V40.1992H179.859V42.2031H175.125ZM176.988 36.168H179.836V38.8164H180.949V32.7461H179.836V35.2539H176.988V36.168ZM192.141 38.6641H182.566V39.5664H186.785V43.2344H187.875V39.5664H192.141V38.6641ZM183.105 36.9883L183.527 37.8672C185.227 37.5977 186.709 36.748 187.354 35.5527C187.992 36.748 189.48 37.5977 191.203 37.8672L191.613 36.9883C189.627 36.7188 188.01 35.5527 187.992 34.2578H191.238V33.3672H183.457V34.2578H186.727C186.691 35.5527 185.062 36.7188 183.105 36.9883ZM196.758 34.2578V33.25H195.621V34.2578C195.615 35.7578 194.631 37.1816 192.996 37.7617L193.559 38.6289C194.801 38.1836 195.727 37.252 196.195 36.0801C196.67 37.1758 197.578 38.0312 198.797 38.4531L199.359 37.5742C197.736 37.041 196.752 35.7109 196.758 34.2578ZM194.531 40.457H200.531V43.2461H201.645V39.5547H194.531V40.457ZM200.531 39.0508H201.645V32.7461H200.531V39.0508ZM209.824 33.7656H208.559L206.449 35.1484V36.3789L208.477 35.0547H208.523V42.25H209.824V33.7656ZM221.191 38.6641H211.617V39.5664H215.836V43.2344H216.926V39.5664H221.191V38.6641ZM212.156 36.9883L212.578 37.8672C214.277 37.5977 215.76 36.748 216.404 35.5527C217.043 36.748 218.531 37.5977 220.254 37.8672L220.664 36.9883C218.678 36.7188 217.061 35.5527 217.043 34.2578H220.289V33.3672H212.508V34.2578H215.777C215.742 35.5527 214.113 36.7188 212.156 36.9883ZM230.168 32.7461H229.055V43.2344H230.168V37.8555H231.797V36.9297H230.168V32.7461ZM222 40.4336L222.621 41.3008C226.078 39.5957 227.414 36.8828 227.426 33.8477H222.527V34.7734H226.289C226.061 37.2227 224.631 39.1211 222 40.4336ZM244.875 37.0469H235.289V37.9375H244.875V37.0469ZM236.438 39.625H242.555V40.4922H236.449V43.1289H243.949V42.25H237.539V41.3125H243.656V38.7695H236.438V39.625ZM236.543 36.2852H243.738V35.3945H237.656V33.9531H243.633V33.0508H236.543V36.2852ZM248.508 33.5312C246.943 33.5371 245.836 34.9668 245.848 37.2109C245.836 39.4785 246.943 40.9082 248.508 40.9023C249.973 40.9082 251.033 39.6367 251.156 37.5859H253.312V43.2695H254.414V32.7461H253.312V36.6836H251.145C250.975 34.7441 249.938 33.5371 248.508 33.5312ZM246.902 37.2109C246.908 35.5645 247.559 34.5332 248.508 34.5273C249.457 34.5332 250.107 35.5645 250.113 37.2109C250.107 38.8809 249.457 39.9062 248.508 39.9062C247.559 39.9062 246.908 38.8809 246.902 37.2109ZM259.184 33.4141C257.537 33.4141 256.354 34.4336 256.359 35.9102C256.354 37.2168 257.279 38.166 258.633 38.3652V40.0703C257.654 40.0938 256.717 40.0996 255.902 40.1055L256.078 41.0195C257.895 41.0371 260.338 41.0195 262.559 40.6328L262.477 39.8008C261.609 39.9121 260.678 39.9824 259.746 40.0293V38.3652C261.07 38.1543 262.002 37.2109 262.008 35.9102C262.002 34.4336 260.801 33.4141 259.184 33.4141ZM257.438 35.9102C257.432 34.9727 258.176 34.3633 259.184 34.3516C260.18 34.3633 260.912 34.9727 260.918 35.9102C260.912 36.8418 260.18 37.4629 259.184 37.457C258.176 37.4629 257.432 36.8418 257.438 35.9102ZM263.109 43.2461H264.223V37.9492H265.84V37.0117H264.223V32.7461H263.109V43.2461ZM276.012 41.0078H273.715V38.2422C274.559 37.7676 275.062 37.0234 275.062 36.0977C275.062 34.4453 273.439 33.3613 271.184 33.3555C268.934 33.3613 267.311 34.4453 267.316 36.0977C267.311 37.041 267.838 37.791 268.699 38.2656V41.0078H266.402V41.9336H276.012V41.0078ZM268.395 36.0977C268.395 34.9668 269.537 34.2461 271.184 34.2461C272.818 34.2461 273.979 34.9668 273.984 36.0977C273.979 37.2227 272.818 37.9551 271.184 37.9609C269.537 37.9551 268.395 37.2227 268.395 36.0977ZM269.801 41.0078V38.6758C270.223 38.7754 270.691 38.8281 271.184 38.8281C271.688 38.8281 272.162 38.7754 272.59 38.6758V41.0078H269.801ZM277.969 42.332C278.42 42.3262 278.795 41.957 278.801 41.5C278.795 41.043 278.42 40.668 277.969 40.668C277.512 40.668 277.131 41.043 277.137 41.5C277.131 41.957 277.512 42.3262 277.969 42.332Z" fill="black"/>
<path d="M34.1857 35.4486C34.2176 35.5274 34.2176 35.636 34.1708 35.6999L34.109 35.7787L34.0472 35.8405L33.8108 35.9981C33.764 36.03 33.7022 36.045 33.6532 36.045H33.4807L33.4019 36.0918C33.2912 36.1706 33.1974 36.1855 33.1357 36.1387L33.0249 36.0769H32.7119L32.3349 36.1088L32.1006 36.1557L32.0537 36.1706L31.6619 36.1855C31.615 36.1855 31.5362 36.1706 31.4893 36.1387L31.3488 36.045L31.1294 36.1067C31.0975 36.1216 31.0676 36.1216 31.0506 36.1216H30.6907L30.6289 36.1067L30.4244 36.045L30.2839 36.1557C30.2519 36.1876 30.2051 36.2026 30.1582 36.2026L29.8451 36.2345H29.4532L29.2339 36.2196L29.0145 36.1727L28.7312 36.2345C28.6844 36.2494 28.6205 36.2494 28.5736 36.2345L28.3543 36.1557C28.2925 36.1876 28.2286 36.2026 28.1967 36.1706L28.1498 36.1238L27.9453 36.1706C27.9134 36.1855 27.8665 36.2026 27.8367 36.1855L27.6323 36.1387L27.398 36.0769C27.398 36.0769 27.3831 36.0769 27.3831 36.062L27.2574 36.1727C27.2106 36.2196 27.1168 36.2345 27.053 36.2196L26.7228 36.1876L26.5354 36.2345C26.5035 36.2494 26.4566 36.2494 26.4247 36.2345L26.2521 36.2026L25.922 36.0918L25.6239 36.0599C25.6089 36.0599 25.5919 36.0599 25.5621 36.045L25.5152 36.03C25.3747 35.9832 25.2959 35.8724 25.3108 35.7787L25.3427 35.6062L25.3108 35.34V35.2463L25.4045 34.9162L25.3725 34.6499L25.2469 34.3518C25.2149 34.258 25.232 34.1792 25.2788 34.1175L25.4045 33.9301V33.6319L25.2469 33.3976C25.2149 33.3358 25.2149 33.24 25.232 33.1782L25.2937 33.0206V32.6436L25.3725 32.3135L25.3406 32.0622V32.0303L25.3555 31.6852L25.3086 31.6235C25.2298 31.5127 25.2149 31.3892 25.2767 31.3104L25.3874 31.1847L25.2618 30.9973C25.2298 30.9355 25.2149 30.8716 25.2298 30.7928L25.3406 30.4627L25.3257 30.1326L25.2788 30.0708C25.232 29.992 25.2 29.9132 25.232 29.8195L25.3427 29.5363V29.3637L25.2959 28.9399C25.2959 28.8931 25.281 28.8781 25.2959 28.8462L25.3576 28.6886L25.3257 28.2328L25.2788 28.0603V27.9496L25.3576 27.6663L25.4045 27.3064L25.3576 27.2595C25.3108 27.2126 25.2639 27.1658 25.2639 27.087L25.249 26.8037L25.2341 26.4118L25.2021 26.1605V26.1137L25.2171 25.8304C25.2171 25.7984 25.249 25.7516 25.2639 25.7196L25.3747 25.5471L25.2341 25.2809C25.2192 25.249 25.2021 25.234 25.2021 25.1872V24.9678C25.2021 24.9359 25.2021 24.9061 25.2171 24.8571L25.3427 24.6228L25.3278 24.2139L25.281 24.1521C25.249 24.1053 25.249 24.0414 25.266 23.9796L25.3129 23.7602L25.281 23.2576L25.266 23.1788V23.1319L25.281 22.8018C25.281 22.723 25.3278 22.6612 25.3917 22.6144L25.5642 22.4738C25.6111 22.427 25.6579 22.427 25.7048 22.427H25.7836L26.3011 22.395H26.4417C26.4736 22.395 26.4886 22.4099 26.5205 22.427L26.7867 22.5207L27.0998 22.3801C27.1467 22.3482 27.2255 22.3482 27.2723 22.3652L27.3341 22.3801L27.7728 22.427C27.8516 22.3482 27.9773 22.3333 28.0859 22.395L28.3521 22.5207L28.5396 22.6314C28.5864 22.6634 28.6184 22.7251 28.6333 22.772L28.6801 22.8976C28.695 22.9445 28.695 22.9765 28.695 23.0063L28.6801 23.2405L28.6333 23.6644C28.6333 23.6963 28.6184 23.7112 28.6184 23.7261L28.5566 23.8987L28.6035 24.3374L28.6184 24.6973L28.6503 24.8848C28.6503 24.8997 28.6652 24.9167 28.6652 24.9316V25.1829C28.6652 25.2149 28.6503 25.2447 28.6503 25.2617L28.5417 25.6068L28.5268 25.7644L28.5885 26.1563L28.6673 26.4225C28.6823 26.4842 28.6993 26.5481 28.6673 26.6099L28.5736 26.8293L28.5268 27.1125L28.5736 27.3V27.3788L28.5417 27.8175L28.6035 28.0049L28.6652 28.35L28.7121 28.5374V28.6162L28.6972 29.0549L28.7121 29.1167V29.2104L28.6801 29.5703L28.5864 30.0091L28.5246 30.2284L28.5864 30.3072C28.6652 30.418 28.6801 30.5266 28.6333 30.6054L28.5396 30.746L28.6333 31.2316L28.6652 31.419V31.4978L28.6503 31.7172C28.6503 31.764 28.6354 31.7789 28.6184 31.8109L28.5396 31.9685L28.6333 32.2518C28.6482 32.2837 28.6482 32.3455 28.6482 32.3774L28.6013 32.7544L28.5545 32.912H28.6013C28.6162 32.912 28.6333 32.912 28.6631 32.9269L28.8995 32.9887L29.2126 33.0994L29.5896 33.0845L29.8558 33.0526L30.154 33.0377L30.467 32.9908L30.6545 32.929C30.6864 32.9141 30.7162 32.8971 30.7482 32.8971H31.0932C31.1081 32.8971 31.1251 32.912 31.1401 32.912L31.2806 32.944L31.7194 32.8971H32.0324L32.2369 32.944L32.6288 32.912L32.9589 32.9269L33.1314 32.895H33.2102L33.5872 32.9418C33.6021 32.9418 33.6341 32.9418 33.649 32.9567L33.7107 32.9887C33.7427 33.0036 33.7725 33.0206 33.7895 33.0504L33.977 33.2847C34.0089 33.3167 34.0387 33.3635 34.0387 33.4253L34.0707 33.7235L34.0856 34.0216L34.1473 34.1324C34.1622 34.1643 34.1942 34.2112 34.1942 34.258V34.4774C34.1942 34.4923 34.1793 34.5094 34.1793 34.5243L34.0856 34.963L34.0387 35.1206L34.1793 35.4337L34.1857 35.4486ZM40.1598 28.8313L40.081 29.2381L40.0959 29.4255C40.0959 29.4873 40.081 29.5661 40.049 29.6129L39.9873 29.6747L40.049 29.926C40.081 30.0346 40.0341 30.1305 39.9702 30.1922L39.736 30.4436C39.6891 30.5053 39.6103 30.5053 39.5485 30.5053H39.376L39.0459 30.4265L38.7797 30.5053C38.7477 30.5202 38.7179 30.5202 38.6689 30.5053L38.5113 30.4585L38.5582 30.5692C38.605 30.6629 38.6199 30.7566 38.5731 30.8354L38.4474 31.1017L38.5262 31.2891C38.5411 31.321 38.5582 31.3509 38.5582 31.3679L38.6199 31.8066L38.6348 31.8535V32.026C38.6348 32.058 38.6199 32.0878 38.6029 32.1368L38.4304 32.4349L38.4453 32.7012L38.539 33.0462L38.5859 33.3593V33.4381L38.571 33.5786C38.571 33.6106 38.556 33.6106 38.556 33.6255L38.4623 33.8768L38.4304 34.2538L38.4772 34.6137V34.6925L38.4623 34.9268L38.5092 35.2569L38.5241 35.3038V35.587L38.5859 35.7915C38.6178 35.8852 38.6178 35.964 38.6008 35.996L38.5688 36.0428L38.3495 36.341C38.3175 36.3878 38.2557 36.4198 38.2089 36.4347L37.9256 36.5135L37.8937 36.5284L37.6274 36.5604C37.5657 36.5604 37.5167 36.5604 37.4549 36.5135L37.3144 36.4198L36.9374 36.4667L36.6392 36.4816L36.4198 36.4667L36.2324 36.5284C36.1536 36.5604 36.0748 36.5433 36.0131 36.5135L35.9193 36.4517L35.6212 36.4368C35.5104 36.4368 35.4018 36.39 35.3869 36.3261L35.1995 35.7617V35.6211C35.1995 35.5594 35.1995 35.5125 35.2314 35.4635L35.3422 35.3229L35.2953 34.8203L35.2165 34.6627C35.2016 34.6158 35.1846 34.5839 35.2016 34.5221L35.2804 34.2091L35.1696 33.9428C35.1547 33.9279 35.1696 33.8811 35.1696 33.864V33.7235C35.1696 33.6617 35.2016 33.5659 35.2485 33.519L35.3422 33.4253L35.2016 33.142C35.1547 33.0313 35.1696 32.9227 35.2165 32.8758L35.2953 32.7821L35.2016 32.452C35.1867 32.4051 35.1867 32.3732 35.1867 32.3433L35.2655 32.0132L35.1867 31.7619V31.6533L35.2335 31.402L35.2953 31.1038L35.1696 30.8525C35.1377 30.7907 35.1547 30.6949 35.1696 30.6651L35.2016 30.6033L35.2485 30.1795L35.2165 29.7556L35.2016 29.7237C35.1867 29.6768 35.1696 29.598 35.1867 29.5512L35.2655 29.3467L35.2037 29.0634V28.9527L35.2655 28.7184L35.2506 28.2158L35.2357 28.1221V28.0433L35.3464 27.6663L35.2847 27.5406C35.2697 27.4938 35.2378 27.4469 35.2527 27.383L35.3315 27.038L35.3635 26.693L35.2697 26.6142C35.208 26.5524 35.159 26.4416 35.1909 26.3309L35.2527 26.1584V25.7665L35.2996 25.3746L35.2208 25.1233C35.2059 25.0914 35.2059 25.0445 35.2208 25.0125L35.2676 24.872L35.2059 24.6675L35.1909 24.6207L35.176 24.3544V24.2756L35.2697 23.9157L35.3635 23.6026L35.1909 23.2895C35.1909 23.2746 35.176 23.2576 35.176 23.2278L35.1441 23.0403V22.9615L35.176 22.5846L35.1909 22.5058L35.2527 22.3801C35.2527 22.3652 35.2676 22.3482 35.2676 22.3333L35.4082 22.1607C35.47 22.067 35.5807 22.0351 35.6744 22.05L35.9087 22.0819L36.0173 22.0202C36.0493 21.9882 36.0961 21.9733 36.1281 21.9733L36.3325 21.9414C36.4582 21.9265 36.5689 21.9563 36.5838 22.0031L36.6307 22.0819L37.0843 21.9563L37.1461 21.9414H37.4592L37.7105 21.9733H37.8191C37.866 21.9733 37.9299 21.9733 37.9767 22.0053L38.1343 22.099L38.3537 22.2395C38.4645 22.3013 38.5262 22.4121 38.5113 22.5058L38.4794 22.6634L38.4325 23.0553L38.4794 23.1341C38.5113 23.1809 38.5262 23.2597 38.5262 23.3215L38.5113 23.494L38.4964 23.8241L38.5582 24.216C38.5582 24.2629 38.5433 24.3097 38.5262 24.3566L38.4943 24.4503L38.5411 24.7335L38.6348 25.1723C38.6498 25.2191 38.6348 25.283 38.6199 25.3129L38.5411 25.5471L38.5731 25.8773L38.605 26.0178C38.6199 26.0647 38.6199 26.0966 38.6199 26.1286L38.588 26.333C38.588 26.365 38.5731 26.3799 38.5731 26.3948L38.4623 26.6291L38.588 27.0359C38.6029 27.0976 38.6029 27.1147 38.588 27.1764L38.5731 27.2084L38.8713 27.2552L39.1545 27.2403L39.359 27.1935L39.4207 27.1786H39.687C39.7807 27.1786 39.8914 27.2105 39.9383 27.3042L40.049 27.4916C40.081 27.5534 40.081 27.6493 40.0639 27.711L39.9702 27.9943L40.0022 28.1348L40.081 28.5118L40.1427 28.6524C40.1747 28.7142 40.1747 28.778 40.1577 28.8249L40.1598 28.8313Z" fill="#040000"/>
<path d="M70.4329 30.0042C70.8906 29.6056 70.8906 28.8946 70.4329 28.496L63.7696 22.6929C63.1226 22.1293 62.1129 22.5889 62.1129 23.447L62.1129 29.2501L62.1129 35.0532C62.1129 35.9113 63.1226 36.3709 63.7696 35.8073L70.4329 30.0042Z" fill="black"/>
<rect y="67" width="343" height="59" rx="17" fill="#F7F7F7"/>
<path d="M93.1758 85.8711H91.5469V81.7461H90.4336V92.2344H91.5469V86.7852H93.1758V85.8711ZM83.7656 89.5977H84.6328C86.209 89.6035 87.8613 89.498 89.6602 89.1406L89.5312 88.2031C87.8613 88.543 86.332 88.666 84.8672 88.6719V82.7656H83.7656V89.5977ZM102.773 81.7461H101.707V92.2461H102.773V81.7461ZM93.8555 86.2812C93.8555 88.5605 94.7461 89.9902 96.1172 89.9844C97.418 89.9902 98.291 88.7188 98.3906 86.668H99.5742V91.7305H100.641V81.9453H99.5742V85.7656H98.3848C98.2559 83.7969 97.3945 82.584 96.1172 82.5898C94.7461 82.584 93.8555 84.0078 93.8555 86.2812ZM94.8867 86.2812C94.8867 84.6055 95.3613 83.627 96.1172 83.6328C96.8906 83.627 97.3711 84.6055 97.3711 86.2812C97.3711 87.9512 96.8906 88.9355 96.1172 88.9297C95.3613 88.9355 94.8867 87.9512 94.8867 86.2812ZM113.133 81.7461H112.078V92.2461H113.133V81.7461ZM104.074 89.2109L104.707 90.0078C106.189 89.1406 107.191 88.0742 107.812 86.8555H109.863V91.7305H110.918V82.0156H109.863V85.9648H108.199C108.521 85.0508 108.662 84.0723 108.668 83.0469H104.566V83.9609H107.561C107.367 86.123 106.301 87.8867 104.074 89.2109ZM127.02 90.043H122.754V87.7578H121.652V90.043H117.41V90.957H127.02V90.043ZM117.879 87.2539L118.301 88.1211C120.059 87.8457 121.518 87.0137 122.197 85.7891C122.883 87.0137 124.348 87.8457 126.105 88.1211L126.527 87.2539C124.371 86.9375 122.818 85.7188 122.766 84.2422H126.129V83.3398H122.754V81.9336H121.652V83.3398H118.277V84.2422H121.641C121.588 85.7188 120.035 86.9375 117.879 87.2539ZM136.793 81.7461H135.727V85.9062H134.367V81.957H133.348V91.707H134.367V86.8203H135.727V92.2461H136.793V81.7461ZM128.133 89.7266H128.836C130.365 89.7148 131.455 89.6738 132.715 89.4102L132.633 88.4961C131.508 88.7129 130.535 88.7715 129.246 88.7773V83.9141H132.07V83.0117H128.133V89.7266ZM146.859 81.7578H145.746V88.1914H146.859V81.7578ZM138.68 83.3164H142.406V84.5234H138.703V87.6055H139.582C141.568 87.6055 142.998 87.5586 144.715 87.2773L144.574 86.375C142.975 86.6211 141.633 86.6797 139.793 86.6914V85.3789H143.508V82.4023H138.68V83.3164ZM139.781 90.3125C139.781 91.5254 141.129 92.2285 143.355 92.2227C145.576 92.2285 146.93 91.5254 146.93 90.3125C146.93 89.0879 145.576 88.3848 143.355 88.3906C141.129 88.3848 139.781 89.0879 139.781 90.3125ZM140.883 90.3125C140.889 89.6445 141.797 89.2637 143.355 89.2695C144.908 89.2637 145.816 89.6445 145.816 90.3125C145.816 90.9746 144.908 91.3496 143.355 91.3438C141.797 91.3496 140.889 90.9746 140.883 90.3125ZM156.973 82.7656H149.66V83.6797H155.895V84.043C155.889 84.582 155.889 85.1211 155.865 85.6836L149.367 85.9297L149.508 86.8438L155.812 86.5098C155.754 87.2891 155.637 88.127 155.414 89.0938L156.516 89.1992C156.973 87.0195 156.973 85.5781 156.973 84.043V82.7656ZM148.523 90.8398H158.098V89.9258H148.523V90.8398ZM168.492 86.5625H158.883V87.418H168.492V86.5625ZM160.02 88.9531H166.207V89.7266H160.031V92.1172H167.637V91.332H161.145V90.4648H167.309V88.1562H160.02V88.9531ZM160.09 82.8008H166.172V83.5508H160.113V85.8711H167.461V85.0859H161.215V84.2891H167.285V82.0156H160.09V82.8008ZM180.445 81.7461H179.332V87.875H180.445V85.1562H181.969V84.2305H180.445V81.7461ZM172.605 87.2656H177.551V82.3438H176.449V83.8672H173.695V82.3438H172.605V87.2656ZM173.695 86.3867V84.7461H176.449V86.3867H173.695ZM173.754 92.0938H180.715V91.2148H174.867V89.3164H180.527V88.4258H173.754V92.0938ZM191.062 82.7539H183.574V83.6562H189.949V83.7852C189.943 85.0449 189.943 86.5332 189.539 88.5664L190.664 88.6836C191.057 86.5332 191.057 85.0801 191.062 83.7852V82.7539ZM182.566 90.8281H192.141V89.9023H187.312V86.1992H186.211V89.9023H182.566V90.8281ZM201.27 82.6836H196.348V83.8789H199.775C199.734 84.3887 199.658 84.8691 199.535 85.3203L195.773 85.543L195.973 86.8086L199.072 86.5273C198.457 87.7109 197.402 88.7012 195.715 89.5859L196.535 90.7109C200.379 88.7129 201.264 85.9648 201.27 82.6836ZM201.246 86.9844H203.297V92.3281H204.785V81.6641H203.297V85.7656H201.246V86.9844ZM215.133 81.6641H213.621V92.3281H215.133V81.6641ZM206.145 88.6602L206.285 89.8789C208.242 89.8672 210.709 89.8262 212.977 89.457L212.906 88.3438C212.455 88.3965 211.992 88.4434 211.523 88.4785V83.8438H212.473V82.6484H206.438V83.8438H207.375V88.6484C206.941 88.6543 206.531 88.6602 206.145 88.6602ZM208.828 88.6191V83.8438H210.07V88.5723C209.654 88.5957 209.238 88.6074 208.828 88.6191ZM224.953 81.6641H223.477V92.3281H224.953V87.0664H226.523V85.8359H224.953V81.6641ZM216.48 84.4531H222.75V83.2578H220.395V81.8281H218.895V83.2578H216.48V84.4531ZM216.914 87.5938C216.908 89.082 218.068 90.1309 219.645 90.1367C221.197 90.1309 222.363 89.082 222.363 87.5938C222.363 86.1055 221.197 85.0449 219.645 85.0508C218.068 85.0449 216.908 86.1055 216.914 87.5938ZM218.344 87.5938C218.344 86.7734 218.889 86.2695 219.645 86.2578C220.389 86.2695 220.934 86.7734 220.934 87.5938C220.934 88.4199 220.389 88.9121 219.645 88.9062C218.889 88.9121 218.344 88.4199 218.344 87.5938ZM236.66 87.6289H226.898V88.8477H231.012V92.3398H232.488V88.8477H236.66V87.6289ZM227.883 84.4414C227.877 85.8887 229.459 86.8203 231.75 86.8203C234.041 86.8203 235.641 85.8887 235.641 84.4414C235.641 82.959 234.041 82.0215 231.75 82.0156C229.459 82.0215 227.877 82.959 227.883 84.4414ZM229.418 84.4414C229.412 83.6504 230.32 83.2168 231.75 83.2109C233.191 83.2168 234.094 83.6504 234.094 84.4414C234.094 85.2031 233.191 85.6309 231.75 85.6367C230.32 85.6309 229.412 85.2031 229.418 84.4414ZM242.895 83.0703V82.2969H241.301V83.0703C241.289 84.6172 239.9 86.293 237.527 86.7148L238.172 87.957C240.018 87.582 241.4 86.5273 242.104 85.1738C242.795 86.5391 244.172 87.5879 246.035 87.957L246.691 86.7148C244.277 86.3047 242.889 84.6348 242.895 83.0703ZM237.281 91.0156H247.043V89.7852H237.281V91.0156ZM256.898 81.6641H255.469V92.3281H256.898V81.6641ZM247.746 86.2812C247.746 88.6777 248.654 90.1602 250.066 90.1602C251.379 90.1602 252.275 88.8887 252.404 86.7969H253.266V91.8359H254.672V81.8164H253.266V85.6133H252.393C252.229 83.6211 251.35 82.4199 250.066 82.4258C248.654 82.4199 247.746 83.8965 247.746 86.2812ZM249.129 86.2812C249.117 84.6465 249.469 83.832 250.066 83.832C250.682 83.832 251.045 84.6465 251.039 86.2812C251.045 87.9219 250.682 88.7305 250.066 88.7188C249.469 88.7305 249.117 87.9219 249.129 86.2812ZM269.203 81.6641H267.703V92.3047H269.203V86.9844H270.715V85.7539H269.203V81.6641ZM260.672 89.3164L261.516 90.4648C265.102 88.7012 266.344 85.9414 266.355 82.7539H261.281V83.9727H264.838C264.557 86.3516 263.197 88.0508 260.672 89.3164ZM280.09 81.6641H278.59V87.3945H280.09V81.6641ZM271.324 84.6406C271.324 86.0938 272.578 87.1367 274.242 87.1367C275.9 87.1367 277.154 86.0938 277.16 84.6406C277.154 83.1406 275.9 82.0977 274.242 82.1094C272.578 82.0977 271.324 83.1406 271.324 84.6406ZM272.789 84.6406C272.777 83.8379 273.387 83.3457 274.242 83.3516C275.074 83.3457 275.678 83.8379 275.684 84.6406C275.678 85.4316 275.074 85.9062 274.242 85.9062C273.387 85.9062 272.777 85.4316 272.789 84.6406ZM272.953 92.2109H280.09V87.8633H278.602V88.8594H274.43V87.8633H272.953V92.2109ZM274.43 91.0039V90.0195H278.602V91.0039H274.43ZM289.992 81.6758H288.492V89.6328H289.992V86.1641H291.434V84.9453H289.992V81.6758ZM281.531 83.9727H287.859V82.7891H285.445V81.6523H283.957V82.7891H281.531V83.9727ZM282.047 86.4102C282.047 87.6406 283.143 88.4492 284.695 88.4492C286.242 88.4492 287.32 87.6406 287.32 86.4102C287.32 85.1738 286.242 84.3477 284.695 84.3477C283.143 84.3477 282.047 85.1738 282.047 86.4102ZM283.078 92.1406H290.379V90.9453H284.566V89.0234H283.078V92.1406ZM283.512 86.4102C283.506 85.8184 283.98 85.4902 284.695 85.4844C285.416 85.4902 285.902 85.8184 285.902 86.4102C285.902 86.9961 285.416 87.3125 284.695 87.3125C283.98 87.3125 283.506 86.9961 283.512 86.4102ZM303.598 81.6758H302.098V89.4688H303.598V81.6758ZM294.762 87.1836L295.477 88.3438C296.742 87.9863 297.609 87.2012 298.09 86.2109C298.576 87.1191 299.426 87.8281 300.656 88.168L301.371 86.9961C299.613 86.5215 298.805 85.3379 298.816 84.1484V84.0664H300.996V82.9062H298.828V81.7227H297.305V82.9062H295.125V84.0664H297.305V84.1484C297.311 85.4141 296.525 86.668 294.762 87.1836ZM296.449 92.1406H303.879V90.9453H297.961V88.7773H296.449V92.1406ZM313.629 82.2852H306.152V83.4805H312.141C312.135 84.4004 312.111 85.4492 311.836 86.8203H305.039V88.0273H309.105V92.3398H310.605V88.0273H314.766V86.8203H313.354C313.623 85.3262 313.623 84.2422 313.629 83.2461V82.2852ZM324.07 84.5703H318.105V82.0391H316.617V85.7422H324.07V84.5703ZM315.398 88.0625H325.16V86.8906H315.398V88.0625ZM316.523 92.0938H324.141V90.8984H318.023V88.9297H316.523V92.0938ZM92.543 99.6641H91.1367V110.328H92.543V99.6641ZM83.1328 107.059L84.0117 108.113C86.0039 106.93 87.0938 105.447 87.5918 103.684H88.8984V105.137H87.3867V106.344H88.8984V109.859H90.3164V99.8984H88.8984V102.477H87.8379C87.9023 101.979 87.9375 101.463 87.9375 100.93H83.7539V102.137H86.4492C86.2441 104.229 85.2949 105.781 83.1328 107.059ZM99.8086 100.52H93.9844V101.738H96.1289C96.0352 102.916 95.2383 104.035 93.5977 104.516L94.3477 105.676C95.5898 105.307 96.4453 104.539 96.9141 103.549C97.3828 104.445 98.2148 105.148 99.4102 105.488L100.113 104.316C98.5195 103.865 97.7461 102.822 97.6699 101.738H99.8086V100.52ZM93.5391 107.082L93.7383 108.301C95.5371 108.289 97.9336 108.301 100.184 107.879L100.078 106.801C99.3047 106.906 98.4785 106.977 97.6523 107.018V105.23H96.1523V107.07C95.2148 107.088 94.3184 107.082 93.5391 107.082ZM100.641 110.328H102.141V105.125H103.594V103.871H102.141V99.6641H100.641V110.328ZM113.789 104.445H104.027V105.559H113.789V104.445ZM105.141 107.117H111.141V107.656H105.152V110.234H112.934V109.215H106.641V108.605H112.617V106.086H105.141V107.117ZM105.223 100.871H111.105V101.41H105.246V103.941H112.793V102.934H106.734V102.359H112.605V99.8516H105.223V100.871ZM126.375 99.6641H124.934V103.707H123.961V99.9453H122.566V109.859H123.961V104.902H124.934V110.328H126.375V99.6641ZM117.047 107.105L117.914 108.137C120.92 106.391 121.811 103.953 121.816 100.977H117.586V102.172H120.357C120.158 104.264 119.221 105.828 117.047 107.105ZM136.535 99.6641H135.047V101.258H133.043V102.441H135.047V105.09H136.535V99.6641ZM127.465 103.988L128.238 105.172C129.486 104.779 130.324 103.982 130.793 102.957C131.256 103.871 132.053 104.586 133.195 104.949L133.98 103.801C132.281 103.297 131.537 102.061 131.543 100.789V100.016H130.031V100.789C130.025 102.166 129.234 103.467 127.465 103.988ZM129.445 106.684H135.059V107.293H129.457V110.211H136.84V109.039H130.934V108.383H136.535V105.535H129.445V106.684ZM146.168 99.7461H145.066V110.246H146.168V104.926H147.855V104H146.168V99.7461ZM137.93 102.301H144.152V101.387H141.633V99.8867H140.52V101.387H137.93V102.301ZM138.469 105.512C138.469 106.953 139.57 107.955 141.082 107.961C142.588 107.955 143.689 106.953 143.695 105.512C143.689 104.082 142.588 103.074 141.082 103.074C139.57 103.074 138.469 104.082 138.469 105.512ZM139.535 105.512C139.529 104.615 140.186 103.994 141.082 103.988C141.973 103.994 142.623 104.615 142.629 105.512C142.623 106.426 141.973 107.035 141.082 107.023C140.186 107.035 139.529 106.426 139.535 105.512ZM153.715 100.637H148.84V105.605H153.715V104.691H156V107.41H157.113V99.7578H156V101.527H153.715V100.637ZM149.941 104.727V101.539H152.625V104.727H149.941ZM150.258 110.023H157.348V109.121H151.383V106.707H150.258V110.023ZM153.715 103.777V102.441H156V103.777H153.715ZM171.234 105.664H161.66V106.566H165.879V110.234H166.969V106.566H171.234V105.664ZM162.199 103.988L162.621 104.867C164.32 104.598 165.803 103.748 166.447 102.553C167.086 103.748 168.574 104.598 170.297 104.867L170.707 103.988C168.721 103.719 167.104 102.553 167.086 101.258H170.332V100.367H162.551V101.258H165.82C165.785 102.553 164.156 103.719 162.199 103.988ZM175.852 101.258V100.25H174.715V101.258C174.709 102.758 173.725 104.182 172.09 104.762L172.652 105.629C173.895 105.184 174.82 104.252 175.289 103.08C175.764 104.176 176.672 105.031 177.891 105.453L178.453 104.574C176.83 104.041 175.846 102.711 175.852 101.258ZM173.625 107.457H179.625V110.246H180.738V106.555H173.625V107.457ZM179.625 106.051H180.738V99.7461H179.625V106.051ZM187.184 99.9219C184.816 99.916 183.428 100.555 183.434 101.727C183.428 102.904 184.816 103.543 187.184 103.543C189.551 103.543 190.928 102.904 190.934 101.727C190.928 100.555 189.551 99.916 187.184 99.9219ZM182.402 105.078H191.977V104.188H182.402V105.078ZM183.551 106.719H189.668V107.539H183.562V110.141H191.062V109.285H184.652V108.348H190.77V105.887H183.551V106.719ZM184.594 101.727C184.588 101.105 185.514 100.742 187.184 100.742C188.865 100.742 189.791 101.105 189.785 101.727C189.791 102.377 188.865 102.711 187.184 102.711C185.514 102.711 184.588 102.377 184.594 101.727ZM203.953 99.7461H202.84V105.875H203.953V103.156H205.477V102.23H203.953V99.7461ZM196.113 105.266H201.059V100.344H199.957V101.867H197.203V100.344H196.113V105.266ZM197.203 104.387V102.746H199.957V104.387H197.203ZM197.262 110.094H204.223V109.215H198.375V107.316H204.035V106.426H197.262V110.094ZM210.855 99.9219C208.488 99.916 207.1 100.555 207.105 101.727C207.1 102.904 208.488 103.543 210.855 103.543C213.223 103.543 214.6 102.904 214.605 101.727C214.6 100.555 213.223 99.916 210.855 99.9219ZM206.074 105.078H215.648V104.188H206.074V105.078ZM207.223 106.719H213.34V107.539H207.234V110.141H214.734V109.285H208.324V108.348H214.441V105.887H207.223V106.719ZM208.266 101.727C208.26 101.105 209.186 100.742 210.855 100.742C212.537 100.742 213.463 101.105 213.457 101.727C213.463 102.377 212.537 102.711 210.855 102.711C209.186 102.711 208.26 102.377 208.266 101.727ZM224.754 100.672V100.098H223.594V100.672C223.588 102.084 221.889 103.373 219.832 103.648L220.277 104.562C221.982 104.287 223.488 103.396 224.174 102.16C224.859 103.396 226.365 104.287 228.082 104.562L228.516 103.648C226.453 103.373 224.748 102.066 224.754 100.672ZM219.375 106.508H223.594V110.246H224.684V106.508H228.949V105.594H219.375V106.508ZM236.32 106.684V106.18H235.242V106.684C235.236 107.697 234.504 108.793 233.156 109.273L233.719 110.094C234.709 109.73 235.4 109.033 235.781 108.207C236.104 109.062 236.742 109.807 237.75 110.188C238.711 109.789 239.338 109.021 239.672 108.178C240.035 109.033 240.744 109.736 241.781 110.094L242.332 109.273C240.961 108.828 240.24 107.773 240.246 106.684V106.18H239.156V106.684C239.156 107.492 238.682 108.494 237.721 109.109C236.766 108.541 236.32 107.586 236.32 106.684ZM232.887 102.816C232.893 104.27 234.076 105.277 235.688 105.277C237.293 105.277 238.477 104.27 238.477 102.816C238.477 101.346 237.293 100.338 235.688 100.332C234.076 100.338 232.893 101.346 232.887 102.816ZM233.977 102.816C233.971 101.896 234.691 101.275 235.688 101.281C236.672 101.275 237.387 101.896 237.387 102.816C237.387 103.73 236.672 104.352 235.688 104.352C234.691 104.352 233.971 103.73 233.977 102.816ZM240.27 105.734H241.383V99.7578H240.27V105.734ZM245.895 100.531C244.33 100.537 243.223 101.967 243.234 104.211C243.223 106.479 244.33 107.908 245.895 107.902C247.359 107.908 248.42 106.637 248.543 104.586H250.699V110.27H251.801V99.7461H250.699V103.684H248.531C248.361 101.744 247.324 100.537 245.895 100.531ZM244.289 104.211C244.295 102.564 244.945 101.533 245.895 101.527C246.844 101.533 247.494 102.564 247.5 104.211C247.494 105.881 246.844 106.906 245.895 106.906C244.945 106.906 244.295 105.881 244.289 104.211ZM263.027 108.008H260.73V105.242C261.574 104.768 262.078 104.023 262.078 103.098C262.078 101.445 260.455 100.361 258.199 100.355C255.949 100.361 254.326 101.445 254.332 103.098C254.326 104.041 254.854 104.791 255.715 105.266V108.008H253.418V108.934H263.027V108.008ZM255.41 103.098C255.41 101.967 256.553 101.246 258.199 101.246C259.834 101.246 260.994 101.967 261 103.098C260.994 104.223 259.834 104.955 258.199 104.961C256.553 104.955 255.41 104.223 255.41 103.098ZM256.816 108.008V105.676C257.238 105.775 257.707 105.828 258.199 105.828C258.703 105.828 259.178 105.775 259.605 105.676V108.008H256.816Z" fill="black"/>
<path d="M70.4329 97.0042C70.8906 96.6056 70.8906 95.8946 70.4329 95.496L63.7696 89.6929C63.1226 89.1293 62.1129 89.5889 62.1129 90.447L62.1129 96.2501L62.1129 102.053C62.1129 102.911 63.1226 103.371 63.7696 102.807L70.4329 97.0042Z" fill="black"/>
<path d="M18.2837 97.4433L18.0793 97.2559C18.0324 97.209 18.0175 97.1622 18.0005 97.1153L17.9685 96.9279L17.796 96.6446C17.7811 96.6127 17.7641 96.5978 17.7641 96.5509L17.7492 96.3784L17.5767 96.2059C17.5617 96.191 17.5447 96.1739 17.5298 96.1271L17.468 95.9695C17.4531 95.9546 17.4531 95.8907 17.4531 95.8758V95.8289C17.4531 95.7182 17.4851 95.6244 17.5937 95.5627L17.8919 95.4051C17.9068 95.4051 17.9238 95.3902 17.9387 95.3902L18.0005 95.3753L18.5031 95.1559L18.6607 94.9983L18.8183 94.8726C18.8503 94.8407 18.912 94.8258 18.944 94.8258L19.2102 94.7789L19.4147 94.6383L19.7448 94.4339L19.9642 94.1826L20.2155 93.8844L20.3092 93.4925L20.3411 93.2731C20.3411 93.2263 20.3731 93.1624 20.4029 93.1326L20.4498 93.0857L20.6691 92.7726V92.7258C20.6542 92.7109 20.6223 92.6938 20.6074 92.664L20.5456 92.6022L20.3113 92.696C20.2325 92.7279 20.1239 92.7279 20.06 92.681L19.9024 92.5554L19.6362 92.696C19.5893 92.7279 19.5254 92.7428 19.4786 92.7279L19.2741 92.681L18.7715 92.5405L18.3945 92.6512C18.3008 92.6832 18.2071 92.6512 18.1432 92.5895L17.9089 92.3701C17.8471 92.3083 17.8152 92.2764 17.8152 92.2125L17.8301 92.1337L17.8919 91.8355L17.9387 91.3968L17.9707 91.1774L17.862 90.9729C17.8471 90.941 17.8301 90.8941 17.8301 90.8324L17.845 90.6279C17.845 90.596 17.877 90.5491 17.8919 90.5172L18.0026 90.3446L18.0644 90.2829L18.2837 90.1104C18.2987 90.1104 18.3157 90.1104 18.3306 90.0955L18.5351 90.0017C18.567 89.9868 18.6288 89.9868 18.6607 89.9868H18.9269L19.2549 89.9251H19.4594L19.7256 89.94L20.1026 89.9868L20.322 89.9251C20.3688 89.9102 20.4327 89.9102 20.4796 89.9251L20.7458 90.0188H20.7607L20.7139 89.6418L20.6819 89.4075C20.6819 89.3607 20.6819 89.3458 20.6968 89.2968L20.7437 89.1243C20.7586 89.0774 20.7905 89.0625 20.8054 89.0455L20.9162 88.9198C20.9481 88.873 21.0099 88.841 21.0568 88.8261L21.323 88.7792L21.5573 88.7004L21.5892 88.6855L21.8235 88.6387C21.8703 88.6387 21.9342 88.6387 21.9641 88.6536L22.2473 88.7643L22.4049 88.7175L22.735 88.6855C22.8138 88.6706 22.8926 88.6855 22.9395 88.7324L23.0652 88.8431L23.4571 88.8112H23.6615C23.7084 88.8112 23.7701 88.8261 23.8021 88.8431L23.8809 88.89C23.9895 88.9518 24.0534 89.0945 24.0215 89.2201L23.9597 89.4246L23.9448 89.5971L24.0385 89.7547C24.0704 89.8015 24.0704 89.8484 24.0704 89.9123V90.038L24.3047 90.0848L24.5411 89.9911C24.6029 89.9592 24.6987 89.9592 24.7605 89.9911L24.933 90.0699L25.0267 90.023C25.0587 90.0081 25.1204 89.9911 25.1524 89.9911H25.5762L25.8595 89.9762L26.2194 90.0081C26.2343 90.0081 26.2514 90.0081 26.2812 90.023L26.4068 90.0699C26.4537 90.0848 26.5005 90.1168 26.5325 90.1636L26.6432 90.3212C26.6582 90.3361 26.6752 90.3681 26.6752 90.4L26.7071 90.4788L26.8328 90.7621C26.8477 90.794 26.8477 90.8558 26.8477 90.9027L26.8158 91.2328L26.8008 91.2647L26.722 91.5948L26.737 91.6098C26.7987 91.6566 26.8477 91.7674 26.8477 91.844V92.2508C26.8477 92.3445 26.7689 92.4553 26.6901 92.5021L26.4068 92.6597C26.3919 92.6747 26.36 92.6747 26.3451 92.6747L26.2364 92.7066C26.1747 92.7215 26.0788 92.7066 26.032 92.6747L25.9063 92.5959L25.6082 92.6896C25.5762 92.7045 25.5144 92.7215 25.4825 92.7045L25.1545 92.6108L24.8244 92.549L24.7136 92.6427C24.6519 92.7045 24.588 92.7215 24.5092 92.7045L24.3516 92.6725L23.9277 92.6257V92.6725L23.8958 93.0325L23.8638 93.2987C23.8638 93.3455 23.8319 93.4243 23.8021 93.4563L23.7233 93.55L23.6764 93.9419C23.6764 93.9738 23.6764 94.0207 23.6615 94.0356L23.5039 94.3189C23.5359 94.4594 23.5039 94.5702 23.3932 94.6319L23.2057 94.7406V95.0537C23.2057 95.1154 23.1908 95.1793 23.1269 95.2411L23.0481 95.3199L22.9864 95.3518L22.7521 95.4775L22.5647 95.7118L22.471 96.0099L22.4241 96.1036L22.2665 96.2613C22.2665 96.2613 22.2516 96.2932 22.2345 96.2932L21.9832 96.4657L21.6851 96.6382L21.5125 96.8427C21.4976 96.8746 21.4657 96.8746 21.4508 96.8895L21.1377 97.0621C21.1228 97.077 21.1057 97.077 21.1057 97.077L20.8395 97.1558L20.5882 97.3751L20.2283 97.5796L19.7427 97.8309L19.5552 97.9246C19.5403 97.9395 19.5084 97.9395 19.4935 97.9395L19.1953 97.9864L19.0377 98.1121C18.944 98.1909 18.8183 98.2058 18.7246 98.1589L18.6309 98.0971C18.599 98.0822 18.5521 98.0354 18.5372 97.9864L18.3966 97.6733L18.2859 97.4539L18.2837 97.4433ZM32.0189 101.63V102.289C32.0189 102.304 32.004 102.335 32.004 102.367L31.9252 102.619L31.8464 102.949C31.955 103.075 31.9252 103.262 31.7846 103.373C31.7527 103.405 31.7058 103.42 31.6589 103.42L31.4076 103.434H31.3757L30.9838 103.42L30.6856 103.545C30.6388 103.577 30.6068 103.592 30.5451 103.577L30.3406 103.545C30.3257 103.545 30.2937 103.53 30.2788 103.513L29.9657 103.373L29.7464 103.53C29.6995 103.562 29.6356 103.592 29.5888 103.592H29.4631C29.4482 103.592 29.4312 103.577 29.4162 103.577L29.133 103.515L28.756 103.437L28.5984 103.483L28.5366 103.498H28.1448C28.1298 103.498 28.1128 103.498 28.083 103.483L27.8466 103.422L27.5953 103.469H27.5165L27.312 103.454L26.935 103.5C26.9031 103.5 26.8733 103.515 26.8413 103.5L26.6219 103.454L26.2769 103.515L26.0426 103.53H25.54L25.4143 103.545C25.3824 103.545 25.3526 103.56 25.3057 103.545L24.9288 103.451C24.8968 103.437 24.867 103.437 24.8499 103.42L24.7882 103.388L24.3814 103.498L24.194 103.53C24.162 103.53 24.1003 103.53 24.0683 103.515L23.6615 103.39L23.5209 103.483C23.4421 103.545 23.3804 103.562 23.3016 103.545L23.161 103.513L22.8011 103.388L22.3943 103.402L22.3006 103.464C22.2388 103.511 22.16 103.511 22.0812 103.479L21.8767 103.432L21.3123 103.511H21.2186L20.8736 103.432C20.8587 103.432 20.8267 103.417 20.7948 103.4H20.6074L20.4349 103.385L20.1835 103.496C20.1047 103.543 20.0259 103.528 19.9493 103.481L19.7299 103.373L19.5105 103.405L19.2911 103.451L18.8993 103.545C18.8524 103.56 18.8056 103.56 18.7587 103.545L18.5713 103.498C18.5244 103.483 18.4776 103.451 18.4456 103.42L18.2262 103.136C18.1943 103.089 18.1794 103.026 18.1794 102.979V102.917C18.1794 102.87 18.1645 102.855 18.1794 102.823L18.2901 102.54V102.195L18.1964 102.007C18.1815 101.976 18.1645 101.961 18.1645 101.914V101.554L18.1964 101.303V100.957L18.2433 100.723L18.2582 100.691L18.3519 100.472L18.2262 100.238C18.2113 100.191 18.2113 100.144 18.2113 100.112V99.8926C18.2113 99.8606 18.2262 99.8457 18.2262 99.8308L18.32 99.5646L18.2582 99.3772C18.2113 99.2366 18.2582 99.1109 18.3988 99.0321L18.633 98.9065C18.6479 98.9065 18.665 98.8916 18.6799 98.8916L19.0888 98.7808C19.1208 98.7659 19.1506 98.7808 19.1676 98.7808L19.4509 98.7957C19.4608 98.7957 19.4764 98.8007 19.4977 98.8106L19.7959 98.9043L20.0792 98.9193H20.535L20.6138 98.8575C20.6926 98.7957 20.8012 98.7787 20.897 98.8255L21.0695 98.8873L21.2101 98.8404C21.2719 98.8085 21.3507 98.8255 21.4146 98.8554L21.5871 98.9342C21.6978 98.981 21.7745 99.1067 21.7596 99.2472L21.7276 99.4666L21.7745 99.6242C21.7894 99.6711 21.7745 99.7499 21.7596 99.7967L21.6339 100.11L21.5871 100.408L21.619 100.738L21.6659 100.832L21.7745 100.817L22.1344 100.785L22.4944 100.676C22.5263 100.661 22.5561 100.644 22.6051 100.661L22.7926 100.708L23.0588 100.676H23.1056L23.4336 100.708L23.6998 100.629C23.7318 100.615 23.7616 100.629 23.7936 100.629L23.998 100.676L24.3111 100.738L24.6881 100.691C24.7349 100.691 24.7669 100.691 24.8137 100.723L24.9075 100.77L25.3142 100.723C25.376 100.723 25.4548 100.738 25.5017 100.785L25.5805 100.847L25.9724 100.8L26.3323 100.721H26.3941L26.9116 100.768L27.2566 100.689C27.3035 100.674 27.3354 100.674 27.3674 100.689L27.493 100.736L27.9169 100.642L27.9488 100.627H28.247L28.4195 100.674L28.8114 100.721H29.1884L29.3289 100.768L29.5483 100.689C29.5952 100.674 29.6569 100.674 29.7208 100.704L30.0339 100.83L30.1745 100.736C30.2213 100.704 30.3001 100.689 30.3619 100.704L30.7857 100.798L31.0051 100.704C31.037 100.689 31.0669 100.704 31.0988 100.704L31.4119 100.719V100.704C31.4736 100.689 31.5695 100.689 31.6313 100.736L31.8187 100.847C31.9592 100.94 32.0231 101.066 31.9763 101.177L31.8975 101.334L31.9912 101.507C32.0061 101.539 32.0231 101.601 32.0231 101.633L32.0189 101.63ZM26.7668 95.2176L26.9244 95.2794L27.1118 95.3114C27.1736 95.3263 27.2524 95.3731 27.2843 95.4221L27.4249 95.6095C27.4568 95.6564 27.4717 95.7352 27.4717 95.782L27.4568 95.9077C27.4568 95.9546 27.4419 96.0014 27.41 96.0483L27.1118 96.3933L27.001 96.5978L26.9691 96.7554C26.9542 96.8491 26.8903 96.913 26.8285 96.9428L26.688 97.0216L26.5304 97.3815L26.4984 97.586C26.4835 97.6648 26.4367 97.7117 26.3728 97.7436L26.279 97.8054L26.1214 97.9779C26.0277 98.0716 25.8701 98.1035 25.7615 98.0396L25.5741 97.9289L25.4016 97.882L24.9309 97.6946L24.6476 97.569L24.522 97.5221C24.49 97.5072 24.4432 97.4902 24.4282 97.4603L24.2877 97.2878L24.0215 97.0046L23.7701 96.864L23.4869 96.7383L23.2824 96.6446C23.2036 96.5978 23.1717 96.5339 23.1567 96.4721L23.0779 96.1739C23.063 96.0802 23.0929 95.9695 23.1717 95.8907L23.2973 95.782L23.5167 95.5627L23.6743 95.3114L23.7361 95.2326L23.9235 95.1069L23.9384 94.7938C23.9384 94.7789 23.9384 94.7321 23.9533 94.715L24.0321 94.5276L24.079 94.4488L24.3622 94.1655L24.3942 93.9781C24.4091 93.8993 24.4879 93.8205 24.5667 93.7907C24.6284 93.7587 24.7072 93.8226 24.7243 93.9163L24.7562 94.0888L25.1013 94.3231L25.3526 94.4637L25.6657 94.6043L25.7274 94.6362L25.8062 94.715L26.0725 94.8875L26.3536 94.9663L26.4154 94.9983L26.7604 95.2176H26.7668ZM28.3343 92.1592C28.3343 92.1124 28.3194 92.0975 28.3343 92.0655L28.428 91.8142L28.3961 91.6886V91.6268L28.428 91.1881L28.3961 91.1092C28.3812 91.0475 28.3812 90.9687 28.3961 90.9218L28.5217 90.6237L28.4429 90.2637V90.1849L28.4749 89.9975L28.3812 89.825C28.3492 89.7462 28.3343 89.6376 28.3812 89.5587L28.4919 89.3713L28.6495 89.1669C28.7113 89.0881 28.8071 89.0263 28.9008 89.0412L29.0734 89.0561L29.2778 89.103L29.5611 89.0561H29.6399L29.953 89.0881L30.1404 89.0412C30.1723 89.0263 30.2021 89.0412 30.2341 89.0412L30.5323 89.0881L30.7516 89.0263C30.8134 89.0114 30.8922 89.0114 30.9391 89.0412L31.0179 89.0881L31.299 89.0732C31.3927 89.0732 31.4864 89.0881 31.5354 89.1669L31.5823 89.2286C31.5972 89.2606 31.6142 89.2904 31.6142 89.3394L31.6462 89.6056L31.725 89.8889C31.7399 89.9357 31.7399 89.9506 31.7399 89.9996L31.693 90.3915L31.6781 90.6748L31.7101 90.8324L31.742 91.2243V91.318L31.6951 91.4905L31.7101 91.9761C31.7889 92.0549 31.8038 92.1635 31.7718 92.2593L31.725 92.417L31.7569 92.7002C31.7569 92.7322 31.7569 92.779 31.742 92.8259L31.6313 93.1709L31.6462 93.3903L31.7079 93.7971L31.7548 93.9227L31.7697 94.0164V94.4083L31.8016 94.6596V94.9727C31.8016 95.0047 31.7867 95.0345 31.7697 95.0664L31.676 95.3177L31.7377 95.4583C31.7527 95.5052 31.7697 95.5371 31.7697 95.5989L31.7377 96.0057L31.6909 96.225L31.7526 96.585L31.7846 96.8044C31.7995 96.8981 31.7846 97.0088 31.7377 97.0557L31.644 97.1345V97.5732L31.7058 97.7138C31.7377 97.7606 31.7377 97.8394 31.7207 97.9012L31.6738 98.0588L31.7526 98.4976V98.5913C31.7676 98.6701 31.7377 98.7638 31.6738 98.8255L31.4694 99.013C31.4374 99.0449 31.3757 99.0598 31.3437 99.0598L31.1563 99.1067C31.1094 99.1216 31.0626 99.1067 31.0157 99.0918L30.7176 98.9661L30.5451 99.0598C30.4982 99.0747 30.4343 99.0918 30.3874 99.0747L30.2 99.0279L30.0126 99.013L29.6058 99.1386C29.544 99.1535 29.4652 99.1386 29.4184 99.1067L29.2139 98.9981L29.1351 98.9831L28.9157 99.0619C28.822 99.0939 28.6964 99.0769 28.6176 99.0002L28.5068 98.8894C28.46 98.8426 28.46 98.8106 28.4451 98.7489L28.3833 98.3719L28.3684 98.1674L28.3364 97.9161V97.8693L28.3513 97.4923L28.3663 97.209V96.9258L28.46 96.4551C28.3812 96.3933 28.3194 96.2975 28.3343 96.1888L28.3663 96.0163L28.46 95.5456V95.2624L28.5068 94.9323L28.3982 94.7129C28.3663 94.6511 28.3833 94.5723 28.4131 94.4935L28.46 94.3998L28.5217 94.0867L28.4131 93.9142C28.3663 93.8524 28.3663 93.7566 28.3982 93.6799L28.5068 93.3967L28.3982 93.2241C28.3513 93.1304 28.3513 93.0197 28.4131 92.926L28.5217 92.7684L28.3641 92.4084C28.3641 92.3935 28.3492 92.3765 28.3492 92.3467L28.3343 92.1592V92.1592Z" fill="#040000"/>
<path d="M47.9177 98.572V98.7296C47.9177 98.7616 47.9028 98.8084 47.8858 98.8404L47.7601 99.0448L47.8858 99.3281C47.9177 99.4069 47.9177 99.5006 47.8858 99.5624L47.824 99.6731L47.6983 99.9244C47.6366 100.035 47.5258 100.097 47.4002 100.082L47.1957 100.035L46.8826 100.003L46.5994 99.9564L46.3949 100.035C46.3331 100.067 46.2543 100.05 46.1904 100.02L45.986 99.9095L45.6729 99.9415L45.3598 100.003L44.9828 100.05H44.936L44.3716 100.035C44.3247 100.035 44.2779 100.02 44.2459 99.9883L44.1352 99.8946L43.9627 100.005C43.9158 100.037 43.854 100.052 43.8051 100.052L43.3812 100.02L43.1619 100.035L42.9105 100.02L42.5655 99.9585L42.2524 100.052V100.067L42.3142 100.178C42.3461 100.24 42.361 100.304 42.361 100.35L42.3291 100.649C42.3291 100.681 42.3142 100.695 42.3142 100.71L42.2354 100.898L42.2673 101.228V101.307L42.1885 101.667L42.2503 101.792L42.344 102.122C42.344 102.137 42.3589 102.137 42.3589 102.169L42.3738 102.467C42.3738 102.514 42.3738 102.561 42.3419 102.608L42.1843 102.859L42.3099 103.143C42.3099 103.157 42.3248 103.175 42.3248 103.204L42.3398 103.315C42.3547 103.426 42.3078 103.503 42.246 103.566L41.9798 103.801C41.933 103.848 41.8691 103.862 41.8222 103.862H41.7285C41.6816 103.862 41.6199 103.848 41.5709 103.816L41.3984 103.705L41.0534 103.816C40.9916 103.848 40.9426 103.848 40.8808 103.816L40.7232 103.769L40.5507 103.816C40.5358 103.831 40.5039 103.848 40.4719 103.848H40.1737C40.1418 103.848 40.112 103.833 40.0949 103.816L39.8756 103.737L39.5625 103.831C39.4837 103.862 39.358 103.862 39.2963 103.799L39.1855 103.705L39.0449 103.752C38.9661 103.784 38.8575 103.767 38.7787 103.72L38.5913 103.579C38.5295 103.532 38.4827 103.454 38.4827 103.375V103.234L38.5615 102.921L38.4678 102.45V102.357L38.4997 102.263L38.5317 101.777L38.4848 101.684C38.4699 101.637 38.4699 101.622 38.4699 101.573V101.243C38.4699 101.228 38.4848 101.211 38.4848 101.196L38.5785 100.819L38.5466 100.787C38.4848 100.693 38.4848 100.6 38.5146 100.504L38.6403 100.206V100.08H38.5146C38.4827 100.08 38.4358 100.065 38.4039 100.048L38.2164 99.9223L37.9502 100.033C37.8885 100.065 37.8097 100.065 37.7458 100.033L37.6201 99.9713L37.2751 99.9862L36.8044 100.018L36.4594 100.05H36.2719L35.9588 99.9713L35.5989 99.9564L35.4264 99.9883L35.0814 100.099C35.0494 100.114 35.0196 100.099 35.0026 100.099L34.7044 100.084L34.3274 100.022L34.0442 100.084C33.9824 100.099 33.9185 100.099 33.8716 100.069L33.7311 99.9756L33.4968 99.9138C33.4819 99.9138 33.4648 99.8989 33.4499 99.8989L33.1986 99.7583C33.1049 99.6966 33.0581 99.6178 33.073 99.524V99.4623C33.073 99.4005 33.0879 99.3686 33.1198 99.3366L33.2135 99.211L33.1028 98.8191L33.041 98.474V98.3952L33.073 98.2547V98.0822C33.073 98.0673 33.0581 98.0204 33.073 98.0034L33.1837 97.7371L33.1986 97.3921C33.1986 97.2984 33.2455 97.2515 33.3094 97.2047L33.435 97.111L33.4819 97.079L33.6395 97.0173C33.7013 96.9853 33.7651 96.9853 33.812 97.0024L34.157 97.0812L34.2188 97.0194C34.2657 96.9725 34.3295 96.9406 34.3913 96.9406H34.6746C34.7065 96.9406 34.7534 96.9555 34.8002 96.9874L35.0366 97.1131L35.2709 97.0662H35.7246L35.961 97.0194C35.9929 97.0045 36.0078 97.0194 36.0398 97.0194L36.2123 97.0343L36.6361 97.0024L36.6681 96.9874C36.7469 96.9555 36.8257 96.9725 36.9024 97.0024L37.1856 97.128L37.3581 97.0343C37.4369 96.9874 37.5157 97.0024 37.5775 97.0194L37.75 97.0662L38.0482 96.9725C38.095 96.9576 38.1419 96.9576 38.1888 96.9725L38.5487 97.0662L38.8149 97.0343H38.9555C38.9704 97.0343 39.0023 97.0343 39.0343 97.0492L39.3474 97.1429L39.5817 96.9853C39.6285 96.9534 39.6924 96.9534 39.7393 96.9534L40.3676 96.9683L40.5869 96.9534H40.6338L40.9639 96.9853C40.9958 96.9853 41.0257 97.0002 41.0576 97.0173L41.1662 97.0641L41.4793 97.0961L41.7455 96.9853C41.8073 96.9534 41.8861 96.9534 41.9649 97.0002L42.2311 97.1259L42.4654 97.0641C42.4974 97.0492 42.5272 97.0641 42.5442 97.0641H42.951L43.0916 96.9853C43.1704 96.9385 43.2492 96.9534 43.3109 96.9704L43.5623 97.0492L43.8455 97.0961L44.0329 97.0173C44.0947 96.9853 44.1735 96.9704 44.2374 97.0024L44.3631 97.0492L44.6144 97.0343H44.6932L45.0233 97.0961L45.2427 97.0492C45.2576 97.0492 45.2746 97.0343 45.2895 97.0343L45.5877 97.0194H45.8859L45.9477 97.0343L46.2778 97.1131L46.7016 97.0343L46.7335 97.0194C46.7953 96.9725 46.9061 96.9725 46.9849 97.0045L47.2362 97.0982L47.3299 97.0833C47.4236 97.0513 47.5344 97.0982 47.5961 97.1621L47.8006 97.3665C47.8474 97.4134 47.8794 97.4752 47.8794 97.5391V97.6647L47.8645 98.0247V98.2589L47.9113 98.5891L47.9177 98.572ZM33.9164 91.5777C33.9015 91.5628 33.9164 91.4989 33.9164 91.484V90.9984C33.9164 90.9835 33.9313 90.9665 33.9313 90.9516L34.025 90.5916L33.993 90.3872C33.9781 90.3254 34.0079 90.2296 34.0399 90.1827L34.1017 90.1039L34.0399 89.7738C34.0399 89.7269 34.0548 89.6801 34.0718 89.6332L34.1656 89.4458C34.2124 89.335 34.3232 89.2584 34.4318 89.2733L34.5574 89.2882C34.5894 89.2882 34.6362 89.3031 34.6682 89.335L34.8727 89.4607L35.2645 89.3521C35.2965 89.3372 35.3263 89.3372 35.3433 89.3372H35.5776L35.9226 89.3691L36.142 89.3223C36.174 89.3074 36.2208 89.3074 36.2528 89.3223L36.4572 89.3691L36.8491 89.3074H36.9279L37.0685 89.3223L37.4455 89.384L37.8693 89.4628L38.0418 89.4479L38.3549 89.4628H38.7319L38.9044 89.3223C38.9512 89.2754 39.0449 89.2435 39.1088 89.2605L39.2345 89.2754L39.5007 89.2605C39.5476 89.2605 39.5944 89.2605 39.6264 89.2754L39.9714 89.433L40.2547 89.3074C40.3164 89.2754 40.3952 89.2754 40.4591 89.3074L40.6636 89.3862L40.8212 89.3074C40.8531 89.2924 40.9 89.2754 40.9319 89.2754H41.245L41.4325 89.3074L41.8712 89.3542L42.1843 89.3074C42.2162 89.3074 42.2631 89.3074 42.295 89.3223L42.5144 89.3691L42.6081 89.3223C42.6699 89.2754 42.7487 89.2605 42.8275 89.2903L43.1874 89.4011L43.2982 89.3862H43.6901L44.067 89.3542H44.4589L44.5207 89.3223C44.5675 89.2903 44.6463 89.2754 44.7081 89.2903L44.8806 89.3052L45.2086 89.3201C45.2555 89.3201 45.3023 89.335 45.3492 89.367L45.4429 89.3052C45.4897 89.2733 45.5515 89.2584 45.6005 89.2584L45.8816 89.2733C45.9136 89.2733 45.9434 89.2882 45.9753 89.3052L46.2586 89.4458L46.4631 89.335C46.495 89.3201 46.5419 89.2882 46.5887 89.2882H46.6675C46.7612 89.2882 46.872 89.35 46.9188 89.4458L47.0764 89.7589L47.1702 90.072L47.217 90.1657C47.249 90.2274 47.2788 90.2913 47.2639 90.3382L47.2319 90.5576L47.1531 90.8877L47.0594 91.2476L47.2 91.5777C47.2149 91.6246 47.2319 91.6885 47.2149 91.7353L47.1212 92.1741L47.0892 92.5191L47.151 92.7704C47.151 92.8024 47.1659 92.8322 47.1659 92.8641L47.119 93.2092C47.119 93.256 47.1041 93.2709 47.0871 93.3029L47.0402 93.3966L47.0253 93.8822L47.0402 93.9141C47.0871 93.9929 47.0871 94.1016 47.0402 94.1974L46.9316 94.3848L46.9934 94.7298C46.9934 94.7767 46.9785 94.8406 46.9614 94.8875L46.8507 95.1068L46.8656 95.4369L46.8805 95.5626C46.8805 95.6095 46.8656 95.6734 46.8336 95.7202L46.6931 95.9396V96.1589C46.6931 96.2697 46.6462 96.3932 46.5355 96.4422L46.3012 96.553C46.2394 96.5849 46.1904 96.5849 46.1436 96.5679L45.986 96.5359C45.9711 96.5359 45.9391 96.521 45.9242 96.504L45.658 96.3634L45.5472 96.3954C45.4684 96.4273 45.3598 96.4103 45.2959 96.3485L45.1383 96.2378L44.7145 96.1589C44.6825 96.1589 44.6527 96.144 44.6357 96.127L44.5249 96.0652L44.1969 96.0972H44.1352L43.7284 96.0184L43.6964 96.0035C43.6496 96.0035 43.6027 96.0035 43.5708 95.9715L43.4771 95.8927C43.3514 95.799 43.3046 95.6584 43.3514 95.5626L43.4622 95.3901L43.5239 95.1388L43.6027 94.6361L43.5559 94.5254C43.541 94.4934 43.5239 94.4317 43.5239 94.3848L43.5559 94.0398L43.5878 93.7416C43.5878 93.7097 43.5878 93.6628 43.6027 93.6479L43.6964 93.4605L43.6645 93.0537V92.8663L43.6794 92.7875L43.837 92.3168L43.8221 92.3317C43.7752 92.3636 43.6964 92.3785 43.6347 92.3636L43.4473 92.3168L43.0554 92.3487C43.0085 92.3487 42.9617 92.3487 42.9297 92.3338L42.7721 92.2401L42.5208 92.3338C42.4739 92.3487 42.3951 92.3487 42.3483 92.3338L42.1438 92.2401L41.8456 92.255L41.688 92.3487C41.6561 92.3636 41.5943 92.3807 41.5475 92.3807L40.8425 92.3487C40.8276 92.3487 40.8106 92.3338 40.7956 92.3338L40.6551 92.287L40.3569 92.3658C40.325 92.3807 40.2781 92.3807 40.2462 92.3658L39.8394 92.255L39.7776 92.287C39.6988 92.3189 39.6051 92.3189 39.5412 92.287L39.3687 92.1762L39.243 92.2699C39.1493 92.3317 39.0386 92.3487 38.9448 92.2848L38.7723 92.1741L38.521 92.2997C38.4103 92.3615 38.2867 92.3615 38.2377 92.2997L38.144 92.189L37.7521 92.2997C37.7053 92.3146 37.6584 92.3146 37.6116 92.2997L37.3454 92.206L37.094 92.2997C37.0621 92.3146 37.0323 92.3146 37.0152 92.3146H36.7959C36.7341 92.3146 36.6872 92.2997 36.6553 92.2827L36.6084 92.2358L36.3571 92.3466C36.3103 92.3615 36.2634 92.3615 36.2166 92.3466L35.8396 92.2529L35.5265 92.3466H35.4179L35.2603 92.3146L34.8514 92.2529L34.6469 92.2848L34.5383 92.3168C34.4275 92.3317 34.3338 92.2848 34.272 92.2082L34.0527 91.8951C34.0378 91.8802 34.0207 91.8631 34.0207 91.8482L33.91 91.582L33.9164 91.5777Z" fill="#040000"/>
</svg>
