<svg  viewBox="0 0 43 43" fill="none" xmlns="http://www.w3.org/2000/svg">
<path d="M21.5 43C33.3741 43 43 33.3741 43 21.5C43 9.62588 33.3741 0 21.5 0C9.62588 0 0 9.62588 0 21.5C0 33.3741 9.62588 43 21.5 43Z" fill="#EC1C24"/>
<path fill-rule="evenodd" clip-rule="evenodd" d="M35.8827 17.1672C36.0015 16.7533 35.9568 16.4718 35.7648 16.3384C35.6168 16.2205 35.35 16.2205 34.9808 16.3384C34.1675 16.6827 33.3396 17.4185 32.4961 18.5425C31.3429 20.1691 30.4851 21.7662 29.9228 23.3337L29.8634 23.4198C29.703 23.4968 29.5227 23.5226 29.347 23.4938C29.3285 23.4838 29.3131 23.4689 29.3026 23.4506C29.2921 23.4324 29.2869 23.4116 29.2877 23.3905L29.5097 22.5299C29.5682 22.1744 29.5243 21.8792 29.3617 21.6572C29.3053 21.5735 29.2279 21.5062 29.1373 21.462C29.0466 21.4177 28.9459 21.3981 28.8453 21.405C28.1938 21.4498 27.5285 21.9085 26.8486 22.8251C26.1687 23.801 25.7986 24.7323 25.7246 25.5791C25.7246 26.111 25.8873 26.4656 26.2281 26.6119C26.6119 26.7152 27.0414 26.5818 27.5139 26.1816C28.0165 25.7082 28.5053 24.9836 28.9933 24.0369L29.0794 23.9336H29.6113C29.6211 23.9329 29.6311 23.9344 29.6403 23.9379C29.6496 23.9414 29.658 23.9469 29.665 23.9539C29.672 23.9609 29.6774 23.9693 29.6809 23.9785C29.6844 23.9878 29.6859 23.9977 29.6853 24.0076C29.5372 24.6582 29.4632 25.0131 29.4632 25.0722C29.3943 25.4357 29.4096 25.8102 29.508 26.1669C29.6113 26.4621 29.7894 26.6102 30.0399 26.6248C30.4702 26.6696 30.9573 26.3442 31.5193 25.6781L31.5632 25.648L31.5933 25.7074C31.6226 26.1807 31.756 26.4759 31.9927 26.5792C32.2293 26.6541 32.466 26.6093 32.7173 26.4931C32.9411 26.3532 33.1494 26.1899 33.3387 26.006C33.368 25.9914 33.3972 25.9914 33.4118 26.0206L33.4979 26.3012C33.5213 26.4058 33.5788 26.4997 33.6614 26.568C33.8534 26.6713 34.0918 26.6412 34.4154 26.4931C35.14 26.1093 35.7924 25.3252 36.3527 24.1573L36.3965 23.9646L36.0721 23.9792L35.5832 24.7486C35.3621 25.0584 35.1529 25.2805 34.9481 25.3838C34.862 25.4139 34.8147 25.3838 34.8001 25.3399C34.7846 25.2659 34.8293 25.1178 34.9326 24.9095L36.622 21.5298C36.6367 21.4704 36.6367 21.4437 36.622 21.4265L35.6022 21.411C35.5574 21.411 35.5282 21.4265 35.498 21.4851L35.412 21.5711C35.3942 21.5843 35.372 21.5901 35.3501 21.5874C35.3281 21.5847 35.3081 21.5736 35.2941 21.5565L35.1753 21.4825C34.7613 21.2906 34.3026 21.4085 33.7854 21.8078C33.355 22.1779 32.898 22.7399 32.454 23.4645C31.892 24.3665 31.4935 24.9577 31.2714 25.2245C31.0787 25.4165 30.9272 25.4905 30.8127 25.4311C30.7777 25.4138 30.7489 25.3861 30.7304 25.3517C30.7118 25.3173 30.7045 25.2779 30.7094 25.2392C30.7465 24.7704 30.8407 24.308 30.99 23.8621L31.0761 23.5962C31.1096 23.5085 31.1599 23.4281 31.2241 23.3595L31.9049 22.7975C32.8304 21.9355 33.6629 20.9787 34.3887 19.9428L34.5513 19.6175H34.5221C34.3713 19.6185 34.2217 19.6435 34.0788 19.6915C33.2948 20.7716 32.5848 21.6142 31.9341 22.1873C31.7422 22.35 31.6234 22.424 31.5899 22.424C31.5807 22.417 31.5732 22.4081 31.568 22.3978C31.5628 22.3875 31.56 22.3762 31.5597 22.3646C31.6338 22.1581 31.8412 21.7295 32.1519 21.0633C32.9351 19.54 33.701 18.342 34.4291 17.4994C34.7734 17.1001 35.0651 16.8634 35.2898 16.7601C35.3244 16.7508 35.3605 16.7486 35.396 16.7536C35.4315 16.7586 35.4657 16.7708 35.4963 16.7894C35.5118 16.804 35.5118 16.8755 35.5118 17.0115L35.3913 17.4624C35.3913 17.4779 35.3913 17.4779 35.406 17.4779C35.702 17.3919 35.8647 17.2851 35.8793 17.1672H35.8827ZM33.1029 24.635C33.5461 23.5411 34.0195 22.7717 34.4928 22.2992L34.7295 22.0918C34.772 22.062 34.8215 22.0436 34.8733 22.0384C34.925 22.0333 34.9771 22.0416 35.0247 22.0626C35.0694 22.0918 35.0841 22.1658 35.0548 22.2992C34.7103 23.1819 34.2896 24.0328 33.7974 24.8424C33.5461 25.1827 33.3539 25.3898 33.2208 25.4638C33.1347 25.4931 33.0728 25.4931 33.0289 25.4337C32.9695 25.3752 32.9548 25.2564 32.9695 25.0498L33.1029 24.635V24.635ZM28.8857 22.0178C28.9321 22.034 28.9738 22.0613 29.0073 22.0973C29.0407 22.1333 29.0649 22.1769 29.0777 22.2244C29.1362 22.5204 29.063 22.8896 28.8703 23.3191C28.8264 23.3785 28.7842 23.3785 28.693 23.3337C28.3969 23.2304 28.2489 23.0377 28.2196 22.7571C28.2489 22.4318 28.3676 22.2106 28.6043 22.0471C28.6911 22.0021 28.7916 21.9916 28.8857 22.0178V22.0178ZM27.7316 23.2597C27.7471 23.2451 27.791 23.2597 27.8349 23.2597C28.0199 23.5082 28.264 23.7067 28.5449 23.8372C28.6043 23.8665 28.6043 23.9233 28.5596 24.0145C28.1895 24.7245 27.8349 25.2116 27.5096 25.4638C27.4135 25.5116 27.3045 25.527 27.1989 25.5077C27.1291 25.4843 27.0692 25.438 27.029 25.3763C26.9889 25.3145 26.9708 25.2411 26.9777 25.1677C26.9777 24.9015 27.081 24.532 27.2875 24.0592C27.4657 23.6892 27.5991 23.4224 27.7316 23.2597V23.2597Z" fill="white"/>
<path fill-rule="evenodd" clip-rule="evenodd" d="M37.6984 16.6054C37.7557 16.4937 37.7955 16.3738 37.8163 16.25C36.663 17.3903 35.5536 17.9807 34.5037 17.9928L34.4296 18.0375L33.6163 19.1977C33.5862 19.2717 33.5862 19.301 33.6163 19.3156L33.9864 19.3311C34.8023 19.3108 35.5882 19.0192 36.2198 18.5023C36.8643 18.0058 37.3729 17.3545 37.6984 16.6089V16.6054Z" fill="white"/>
<path fill-rule="evenodd" clip-rule="evenodd" d="M28.2938 17.2718C28.2928 17.1845 28.3132 17.0982 28.3532 17.0205C29.0478 16.9026 29.7724 17.1066 30.5418 17.6273L31.887 18.5439C31.9318 18.5731 31.9731 18.5731 31.9911 18.5439L32.7898 17.5533C32.8638 17.4939 32.8638 17.4491 32.7898 17.4199C31.9911 16.9173 31.473 16.6066 31.2519 16.4878C30.7653 16.2709 30.235 16.1698 29.7027 16.1926C29.1696 16.2223 28.645 16.3386 28.1492 16.5369C28.1148 16.5436 28.0793 16.5417 28.0458 16.5314C28.0123 16.521 27.9819 16.5025 27.9573 16.4775C27.7206 16.2701 27.3953 16.1969 26.9512 16.2554C25.872 16.4482 24.7626 17.1161 23.6386 18.2521C22.7659 19.1248 21.9974 20.2634 21.3149 21.6835L20.9896 22.4374C20.487 23.9005 20.4276 25.0254 20.7977 25.7939C21.049 26.3413 21.4629 26.6218 22.0551 26.6812C23.2083 26.7673 24.2437 26.1046 25.1749 24.6398C25.7369 23.6492 25.9735 22.8213 25.8849 22.1259C25.8255 21.7566 25.6482 21.5234 25.3522 21.446C24.7902 21.3126 24.229 21.5785 23.667 22.2291C23.0456 23.0726 22.7642 23.9453 22.7943 24.8472L22.8236 24.8911C23.0853 24.5948 23.3778 24.3274 23.6963 24.0933L24.1989 23.768C24.2729 23.1466 24.4651 22.6589 24.7755 22.3049C24.9976 22.0828 25.1749 21.9942 25.3229 22.0682C25.3817 22.1103 25.4298 22.1657 25.4633 22.2298C25.4968 22.2939 25.5148 22.3651 25.5157 22.4374L25.4709 22.8953C25.2787 23.7835 24.8352 24.5821 24.1404 25.2913C23.4889 25.8387 22.9415 26.0022 22.5129 25.7801C22.0551 25.454 21.9509 24.7302 22.2169 23.6062C22.7203 21.9047 23.6076 20.2927 24.8788 18.7401C25.8109 17.6901 26.5794 17.0687 27.2025 16.8467L27.4246 16.8613C27.4547 16.8906 27.4392 16.9061 27.41 16.9207C26.8338 17.3455 26.3507 17.8838 25.9908 18.5026C25.5467 19.346 25.458 19.982 25.7386 20.4106C25.8021 20.5072 25.8948 20.5808 26.0033 20.6208C26.1117 20.6607 26.2301 20.6649 26.341 20.6326C26.7559 20.5139 27.1698 20.1447 27.5993 19.5087C28.0864 18.7246 28.3085 17.9853 28.2938 17.2753V17.2718ZM27.6725 17.4345C27.6905 17.4134 27.7134 17.397 27.7392 17.3866C27.765 17.3763 27.7928 17.3723 27.8205 17.3751C27.8486 17.5112 27.8587 17.6504 27.8506 17.7891C27.7442 18.6519 27.36 19.4567 26.7559 20.0818C26.5046 20.2738 26.2971 20.3478 26.1646 20.3185C26.1074 20.2972 26.0581 20.2587 26.0236 20.2084C25.9891 20.158 25.971 20.0982 25.9718 20.0371C25.9873 19.6068 26.1939 19.1059 26.5639 18.5292C26.8517 18.0899 27.2296 17.7168 27.6725 17.4345V17.4345Z" fill="white"/>
<path fill-rule="evenodd" clip-rule="evenodd" d="M15.9323 19.1798C15.8881 19.0937 15.8229 19.02 15.7428 18.9657C15.6626 18.9114 15.57 18.8782 15.4736 18.8691C15.0295 18.8244 14.6009 18.9724 14.1723 19.3124C14.0389 19.4311 13.6989 19.7711 13.1662 20.3632C12.8409 20.6584 12.5156 20.8211 12.1463 20.8211C12.1308 20.8211 12.1162 20.8064 12.087 20.7617C12.3529 19.9338 12.309 19.3425 11.9837 19.0172C11.7616 18.8399 11.4957 18.7951 11.185 18.8691C10.3562 19.1205 9.58766 19.9019 8.87763 21.2058C8.63313 21.6927 8.45428 22.2098 8.34575 22.7438C8.28637 23.3462 8.41891 23.7765 8.75972 24.0158C9.1143 24.2378 9.5429 24.1784 10.0163 23.8385C10.5783 23.3944 11.185 22.5957 11.8064 21.4287L11.8795 21.3426L12.4863 21.2832C12.5156 21.2832 12.5302 21.3125 12.5302 21.3573C12.2944 21.9038 12.1463 22.304 12.0999 22.5845C12.0138 23.0871 12.0852 23.4865 12.3365 23.8118C12.4479 23.9327 12.5865 24.0253 12.7408 24.0819C12.8951 24.1385 13.0607 24.1574 13.2239 24.1371C13.8306 24.0192 14.4813 23.6053 15.1904 22.9245C15.2205 22.8944 15.2498 22.8944 15.2644 22.9245L15.2498 23.3832C15.241 23.5361 15.2706 23.6888 15.3359 23.8273C15.3713 23.9054 15.4245 23.9742 15.4914 24.028C15.5582 24.0818 15.6367 24.1192 15.7206 24.1371C16.0907 24.1819 16.5193 23.9745 17.0219 23.5347C17.0365 23.52 17.0666 23.5347 17.0959 23.5493C17.1699 23.8454 17.2439 24.0227 17.3179 24.0812C17.3919 24.1406 17.54 24.1673 17.7482 24.1561C18.3989 23.9925 19.0645 23.3861 19.7449 22.3367C20.041 21.7893 20.1882 21.4932 20.2037 21.476L19.9076 21.4321C19.8657 21.4386 19.8257 21.4538 19.7899 21.4766C19.7542 21.4994 19.7237 21.5294 19.7002 21.5647C19.583 21.8004 19.4498 22.0278 19.3017 22.2454C19.0056 22.6 18.7982 22.8221 18.6502 22.8952C18.5762 22.9253 18.5323 22.9107 18.5177 22.8668L18.5323 22.7334L20.4154 18.913L20.3861 18.8838L19.3929 18.8545C19.3482 18.8545 19.2595 18.913 19.1261 19.0464C19.1079 19.0521 19.0885 19.0524 19.0701 19.0472C19.0518 19.042 19.0354 19.0316 19.0229 19.0172L18.9196 18.9578C18.5495 18.765 18.1209 18.8399 17.6329 19.1652C17.112 19.5785 16.6665 20.0787 16.3161 20.6438C15.6956 21.575 15.3255 22.1224 15.1921 22.2704C14.7197 22.7868 14.2756 23.113 13.9055 23.261C13.8275 23.2876 13.7429 23.2875 13.665 23.2607C13.587 23.2339 13.5203 23.1819 13.4752 23.113C13.3891 22.9804 13.3891 22.7291 13.4605 22.3737C13.6564 21.7405 13.9406 21.1381 14.3048 20.5844C14.7351 19.963 15.088 19.5792 15.4133 19.4604C15.4894 19.4576 15.5636 19.4841 15.6207 19.5344C15.6354 19.6205 15.6207 19.6678 15.5467 19.6825L15.3539 19.7418C14.9994 19.9931 14.8513 20.2883 14.9236 20.6292C14.9364 20.671 14.9592 20.709 14.9901 20.7399C15.0211 20.7708 15.0591 20.7937 15.1009 20.8064C15.2489 20.8503 15.4116 20.7918 15.5889 20.6438C16.0476 20.1111 16.1655 19.6377 15.9332 19.1807L15.9323 19.1798ZM18.7122 19.6377C18.75 19.6637 18.7798 19.6998 18.7982 19.7418C18.7581 19.9346 18.6987 20.1229 18.6209 20.3038C18.2331 21.1718 17.7679 22.0031 17.231 22.7876C17.0382 22.9951 16.891 23.0983 16.7869 23.0983L16.6544 22.9951C16.6242 22.8771 16.6544 22.6551 16.7576 22.3005L16.9057 21.9304C17.4221 20.8357 17.9557 20.0964 18.4729 19.6971C18.5475 19.6631 18.6277 19.643 18.7096 19.6377H18.7122ZM10.1918 21.161L10.4276 20.7772L10.5318 20.6911L10.561 20.7058C10.7775 20.9487 11.0453 21.1404 11.3451 21.2669C11.3534 21.2946 11.355 21.3239 11.3497 21.3523C11.3445 21.3807 11.3326 21.4075 11.315 21.4304C10.9707 22.0957 10.6204 22.5837 10.2357 22.909C10.1023 22.983 9.98441 23.0269 9.89576 22.9951C9.83931 22.9753 9.78974 22.9397 9.75296 22.8926C9.71618 22.8454 9.69375 22.7887 9.68835 22.7291C9.68835 22.3444 9.86564 21.8272 10.1918 21.161V21.161ZM11.3786 19.4905C11.4223 19.4684 11.4705 19.4569 11.5194 19.4569C11.5683 19.4569 11.6165 19.4684 11.6601 19.4905C11.8227 19.6231 11.8813 19.8597 11.8081 20.2152C11.7575 20.3921 11.6931 20.5648 11.6153 20.7316C11.6007 20.7608 11.5413 20.7608 11.4234 20.7462C11.1273 20.6283 10.9647 20.4355 10.9354 20.1842C10.9312 20.0374 10.9712 19.8926 11.0503 19.7688C11.1293 19.645 11.2437 19.5477 11.3786 19.4897V19.4905Z" fill="white"/>
<path fill-rule="evenodd" clip-rule="evenodd" d="M20.4259 20.1101H21.4759C21.5272 20.103 21.5759 20.083 21.6174 20.052C21.659 20.021 21.692 19.98 21.7134 19.9328L22.1859 18.9276L22.1566 18.8974L21.3132 18.8828C21.1213 18.8974 21.018 18.9276 20.9733 18.9861L20.4405 19.9775C20.4299 20.0209 20.4249 20.0655 20.4259 20.1101V20.1101Z" fill="white"/>
<path fill-rule="evenodd" clip-rule="evenodd" d="M8.00493 18.0564C7.26368 18.8037 6.63592 19.6556 6.14164 20.5849C5.91225 20.9982 5.7146 21.4283 5.55038 21.8716C5.27349 22.5519 5.15205 23.2856 5.19494 24.0189C5.23969 24.8614 5.491 25.5276 5.97898 25.9984C6.4816 26.575 7.36892 26.7962 8.59705 26.6783C8.95163 26.6335 9.85359 26.4115 11.2883 26.0276C12.383 25.7316 13.3148 25.628 14.0836 25.7169C14.7937 25.8503 15.3109 26.1903 15.6509 26.7221L15.7102 26.7368C16.5829 26.3237 17.8842 26.3383 19.5995 26.8108C19.6296 26.8108 19.6296 26.8108 19.6296 26.7815C19.1993 26.1309 18.4462 25.5689 17.4109 25.1248C16.0949 24.6084 14.5708 24.5783 12.8409 25.0809L10.5636 25.7617C10.1122 25.8926 9.65202 25.9913 9.18659 26.0569C8.62459 26.1016 8.16587 26.0276 7.78202 25.8348C7.0565 25.4355 6.73118 24.7263 6.8052 23.691C6.92397 22.715 7.30867 21.6203 7.97395 20.393C8.83459 18.9729 9.70699 17.908 10.5912 17.1983C11.0215 16.9031 11.3459 16.768 11.5525 16.799C11.5931 16.8089 11.6313 16.8272 11.6645 16.8527C11.6977 16.8782 11.7252 16.9103 11.7453 16.947C11.7745 17.0331 11.7599 17.0804 11.7306 17.1097C11.5413 17.1376 11.3681 17.2318 11.2418 17.3756C11.1115 17.498 11.0235 17.6586 10.9905 17.8343C10.9466 18.0564 10.9759 18.2044 11.0645 18.293C11.1253 18.3507 11.2033 18.387 11.2866 18.3963C11.7453 18.3223 12.0112 17.997 12.1472 17.3756C12.2333 16.9324 12.1472 16.607 11.8804 16.4143C11.6291 16.2223 11.2005 16.1931 10.6092 16.3557C9.70642 16.6363 8.84922 17.2164 8.00579 18.0564H8.00493Z" fill="white"/>
</svg>
