<svg width="20" height="20" viewBox="0 0 20 20" fill="none" xmlns="http://www.w3.org/2000/svg">
<rect width="20" height="20" rx="10" fill="#5FCCF1"/>
<path d="M16.0009 10.0004C16.0009 13.3136 13.3135 16.0009 10.0004 16.0009C6.68731 16.0009 4 13.3136 4 10.0004C4 6.68731 6.68731 4 10.0004 4C13.3135 4 16.0009 6.68731 16.0009 10.0004Z" fill="white"/>
<path d="M12.3771 6.68726C14.052 7.20264 15.2852 8.76717 15.2852 10.6078C15.2852 10.8839 15.2668 11.1416 15.2116 11.3993V11.4361C15.0828 12.1539 14.7883 12.8349 14.3649 13.4055C15.1012 12.4668 15.5429 11.2888 15.5429 10.0004C15.5429 6.96336 13.0765 4.47852 10.0211 4.47852C8.6406 4.47852 7.37056 4.99389 6.39503 5.84058L6.37662 5.85898C5.62197 6.55842 5.125 7.57076 5.125 8.67513C5.125 9.13529 5.19862 9.57704 5.36428 10.0004V10.0188C5.75081 10.8655 6.5975 11.4361 7.57303 11.4361C8.91668 11.4361 10.0027 10.3501 10.0027 9.00644V7.95729C10.0027 7.47873 10.2788 7.05539 10.6653 6.85292C10.9782 6.68726 11.3279 6.57683 11.7144 6.57683C11.9353 6.57683 12.1562 6.61364 12.3771 6.68726Z" fill="#EC1A2D"/>
<path d="M7.5749 13.389C5.88153 12.8737 4.64832 11.3091 4.64832 9.45009C4.64832 9.174 4.66672 8.91631 4.72193 8.65862V8.62181C4.85078 7.90397 5.14529 7.22294 5.56863 6.65234C4.83238 7.59106 4.39062 8.76906 4.39062 10.0575C4.39062 13.1129 6.87547 15.5794 9.94931 15.5794C11.3482 15.5794 12.6366 15.064 13.6122 14.2173L13.6306 14.1989C14.4036 13.4995 14.8822 12.4871 14.8822 11.3643C14.8822 10.9042 14.7901 10.4624 14.6429 10.0391V10.0207C14.2564 9.174 13.4097 8.585 12.4157 8.585C11.0721 8.585 9.96771 9.67097 9.96771 11.0146V12.0638C9.96771 12.5423 9.69162 12.9657 9.30509 13.1866C8.99219 13.3522 8.64246 13.4442 8.25593 13.4442C8.01665 13.4995 7.79578 13.4627 7.5749 13.389Z" fill="#00529A"/>
</svg>
