<svg viewBox="0 0 21 21" fill="none" xmlns="http://www.w3.org/2000/svg">
<rect x="0.650391" y="0.376953" width="20" height="20" rx="10" fill="#F8931D"/>
<path d="M4.85156 9.72461V12.1692H5.48928C5.48928 12.1692 5.68395 12.2475 5.68395 11.9611V9.9976L5.9961 9.72461H4.85156Z" fill="white"/>
<path d="M6.72266 9.72489V12.1796H8.75105C8.75105 12.1796 8.92447 12.1516 8.93342 11.8573H7.51141V9.99229L7.82804 9.72266L6.72266 9.72489Z" fill="white"/>
<path d="M9.77994 9.72461V11.8403C9.75739 12.0266 9.67514 12.2007 9.54547 12.3364C9.4158 12.4721 9.24568 12.5622 9.06055 12.5932V12.8282C9.06055 12.8282 10.4646 12.7666 10.5866 11.8313V10.0021L10.8629 9.72461H9.77994Z" fill="white"/>
<path d="M11.6328 9.72461V12.1793H12.3041C12.3041 12.1793 12.416 12.1692 12.4518 11.9868C12.4876 11.8045 12.4518 9.99424 12.4518 9.99424L12.755 9.72461H11.6328Z" fill="white"/>
<path d="M13.5059 9.72461V12.1793H14.1469C14.1469 12.1793 14.3293 12.2128 14.3293 11.979V10.5402L15.6294 12.1804H16.1753C16.1753 12.1804 16.3308 12.1804 16.3308 11.9566V9.98529L16.6519 9.72461H15.5085V11.3458L14.1906 9.72461H13.5059Z" fill="white"/>
<path d="M11.2159 8.27304C11.1365 8.09404 10.887 8.08061 10.5726 8.11641C10.6912 8.13543 10.7785 8.1276 10.8154 8.21263C10.8971 8.39723 10.6957 8.66015 10.3679 8.81119C10.0826 8.9365 9.79506 8.92978 9.66975 8.81119C9.66416 8.80112 9.4583 8.45877 10.1475 8.122C10.3219 8.03658 10.5127 7.99002 10.7069 7.98551C10.7069 7.98551 9.75143 7.84902 9.3453 8.64225C9.3453 8.64225 9.24125 8.91076 9.31621 9.09984C9.31621 9.09984 9.31621 9.10879 9.31621 9.11326C9.31621 9.11774 9.32292 9.12222 9.32516 9.12781C9.32971 9.13821 9.33494 9.14831 9.34082 9.15802C9.49522 9.38178 9.9819 9.40639 10.4753 9.18823C11.0078 8.94992 11.3357 8.54379 11.2159 8.27304Z" fill="white"/>
</svg>
