<svg viewBox="0 0 43 43" fill="none" xmlns="http://www.w3.org/2000/svg">
<path d="M21.5 43C33.3741 43 43 33.3741 43 21.5C43 9.62588 33.3741 0 21.5 0C9.62588 0 0 9.62588 0 21.5C0 33.3741 9.62588 43 21.5 43Z" fill="#920E14"/>
<path d="M30.5303 13.8025V13.8025C31.3195 14.4211 33.051 13.9935 32.6188 13.0887C32.1519 12.1115 31.4858 11.2573 30.6163 10.5775C26.4023 7.26651 19.0923 9.20151 14.2333 14.9205C13.5166 15.7703 12.8925 16.6543 12.3634 17.555C11.6132 18.8319 13.1898 19.2754 14.1473 18.1455V18.1455C18.9633 12.4265 26.3163 10.4485 30.5303 13.8025Z" fill="white"/>
<path d="M25.2412 30.2289C21.4142 34.7439 15.9532 36.0339 12.9862 33.1099C10.0192 30.1859 10.7072 24.1229 14.4912 19.6079C18.3182 15.0929 23.7792 13.8029 26.7462 16.7269C29.7132 19.6509 29.0252 25.6709 25.2412 30.2289Z" fill="white"/>
<path d="M30.8729 15.8238C30.1853 15.0277 29.2237 14.3686 28.1129 13.9715C26.9973 13.5726 26.9206 15.1768 27.7769 15.9958V15.9958C29.8409 17.8878 30.3569 21.2418 29.3679 24.6388C28.8089 26.7028 27.7769 28.8098 26.2719 30.6158V30.6158C25.5943 31.4416 26.1522 32.5067 26.9694 31.8188C27.6401 31.2542 28.288 30.5942 28.8949 29.8418C32.7219 25.2838 33.5819 18.9628 30.8729 15.8238Z" fill="white"/>
</svg>
