<svg  viewBox="0 0 43 43" fill="none" xmlns="http://www.w3.org/2000/svg">
<rect width="43" height="43" rx="21.5" fill="#024F8C"/>
<g clip-path="url(#clip0_356_17812)">
<path d="M21.6143 9.45703C21.7911 9.47887 21.969 9.49036 22.1471 9.49145C23.4669 9.58226 24.6186 9.86932 25.6028 10.3607C26.0414 10.5708 26.4442 10.8496 26.7959 11.1868C27.0689 11.4577 27.2523 11.7441 27.2327 12.059C27.1965 12.5551 27.0516 13.037 26.8083 13.4701C26.4625 14.097 25.9617 14.6858 25.3851 15.2577C24.992 15.6466 24.5421 16.0171 24.1243 16.3979C23.6111 16.8644 23.2507 17.3653 23.0913 17.9036C22.913 18.4975 23.0098 19.0753 23.5354 19.6135C23.8404 19.9262 24.2633 20.1869 24.7729 20.4037C25.0959 20.5371 25.41 20.6912 25.7134 20.865C25.8532 20.9429 25.9819 21.0392 26.0963 21.1514C26.3875 21.456 26.413 21.7665 26.1538 22.0814C25.9471 22.3326 25.7629 22.5875 25.696 22.8628C25.6247 23.1138 25.618 23.3789 25.6763 23.6332C25.7542 23.9261 25.9915 24.181 26.362 24.397C26.5353 24.4981 26.7202 24.5933 26.9131 24.6848C27.0907 24.769 27.256 24.8613 27.419 24.9543C27.743 25.1396 27.8354 25.3563 27.7 25.6024C27.6061 25.773 27.446 25.9268 27.2909 26.0806C26.9029 26.468 26.7122 26.8803 26.7617 27.3255C26.8061 27.7305 27.0376 28.1025 27.4467 28.4408C27.6513 28.6107 27.8616 28.7792 28.0553 28.9535C28.3108 29.1819 28.4637 29.4302 28.5081 29.6997C28.5932 30.2123 28.4353 30.7 28.123 31.1775C27.8027 31.6674 27.2975 32.0951 26.6227 32.4613C25.9253 32.8399 25.1078 33.1152 24.1833 33.2961C23.5739 33.4136 22.9574 33.4897 22.3379 33.5239C22.2956 33.5251 22.2536 33.531 22.2127 33.5414H20.4656C20.2472 33.5099 20.0288 33.507 19.806 33.4865C18.5466 33.3686 17.4037 33.1064 16.4195 32.6561C15.546 32.2547 14.9192 31.7568 14.5268 31.1724C14.2131 30.7074 14.0901 30.227 14.141 29.7334C14.1752 29.4178 14.3776 29.1322 14.6906 28.8692C14.8632 28.7228 15.043 28.5815 15.2148 28.4365C15.5787 28.1267 15.819 27.7906 15.8779 27.4215C15.9413 27.0268 15.8488 26.643 15.5387 26.2798C15.4368 26.1604 15.3203 26.044 15.2068 25.9275C15.1194 25.8399 15.0415 25.7432 14.9745 25.639C14.8093 25.3768 14.9061 25.1462 15.2526 24.9448C15.495 24.8034 15.7622 24.6789 16.0272 24.5493C16.6467 24.2447 17.0085 23.8756 17.0106 23.4098C17.0106 23.1096 16.9801 22.813 16.8177 22.5245C16.735 22.3823 16.6374 22.2495 16.5266 22.1283C16.2805 21.8507 16.2601 21.5666 16.4472 21.2788C16.5571 21.1096 16.7624 20.9727 16.9815 20.8394C17.2938 20.6534 17.6651 20.5055 18.0152 20.3436C18.9412 19.9152 19.4908 19.377 19.6117 18.7106C19.7201 18.1101 19.4894 17.5447 19.0737 16.9948C18.8065 16.6425 18.4396 16.3203 18.0669 15.9995C17.339 15.3741 16.6954 14.726 16.1975 14.0355C15.8671 13.5967 15.6259 13.0968 15.4878 12.5643C15.4336 12.3279 15.4176 12.0844 15.4404 11.8429C15.4543 11.6818 15.5562 11.5309 15.6748 11.3852C16.0388 10.9392 16.5841 10.5716 17.2603 10.2582C18.0152 9.92052 18.8145 9.69387 19.6335 9.58519C20.0465 9.52498 20.4626 9.48855 20.8798 9.47607C20.9407 9.4781 21.0016 9.47219 21.061 9.4585L21.6143 9.45703Z" fill="white"/>
<path d="M14.2561 13.9652C14.2693 14.2735 14.2031 14.58 14.0639 14.855C14.002 14.9846 13.9816 14.9927 13.7625 14.9407C12.9901 14.7583 12.525 14.4427 12.4711 13.9792C12.4231 13.5508 12.7783 13.2212 13.4378 12.9898C13.5519 12.9504 13.6684 12.9183 13.7865 12.8939C13.9569 12.8587 13.9765 12.8616 14.0253 12.9532C14.1077 13.1072 14.1703 13.2711 14.2117 13.4409C14.2499 13.6129 14.2649 13.7893 14.2561 13.9652V13.9652Z" fill="white"/>
<path d="M28.1957 13.8627C28.1865 13.6525 28.2498 13.4455 28.3748 13.2768C28.4536 13.1594 28.5557 13.0597 28.6747 12.9839C28.8759 12.8504 29.1116 12.779 29.3526 12.7783C29.5937 12.7777 29.8297 12.8479 30.0316 12.9803C30.1209 13.0355 30.2001 13.1056 30.266 13.1875C30.614 13.6379 30.6118 14.0897 30.2835 14.5423C30.2031 14.6473 30.1023 14.7348 29.9872 14.7993C29.7948 14.9143 29.5749 14.9746 29.3511 14.9738C29.1273 14.973 28.9079 14.9112 28.7162 14.7949C28.4918 14.664 28.322 14.456 28.2379 14.2091C28.2016 14.0975 28.1873 13.9798 28.1957 13.8627V13.8627Z" fill="white"/>
</g>
<defs>
<clipPath id="clip0_356_17812">
<rect x="12.4668" y="9.46094" width="18.06" height="24.08" rx="9.03" fill="white"/>
</clipPath>
</defs>
</svg>
