<svg  viewBox="0 0 43 43" fill="none" xmlns="http://www.w3.org/2000/svg">
<path d="M21.5 43C33.3741 43 43 33.3741 43 21.5C43 9.62588 33.3741 0 21.5 0C9.62588 0 0 9.62588 0 21.5C0 33.3741 9.62588 43 21.5 43Z" fill="#073981"/>
<path d="M32.5533 19.0129C32.2813 19.6571 31.79 19.6585 31.268 19.6115C31.0501 19.5918 30.8289 19.608 30.5782 19.608C30.5782 21.398 30.5782 23.1494 30.5782 24.9332C30.0549 24.9332 29.5622 24.9332 29.0262 24.9332C29.0262 23.1712 29.0262 21.4107 29.0262 19.6297C28.3638 19.6297 27.7449 19.6297 27.0805 19.6297C27.6473 20.687 27.7616 21.7788 27.3124 22.8951C27.0203 23.6201 26.5183 24.1646 25.8707 24.5496C25.0993 25.0077 24.2705 25.0983 23.4116 24.903C22.7212 24.7463 22.5093 24.5925 21.3282 23.4508C21.252 23.6075 21.1878 23.7656 21.1023 23.911C20.7681 24.4786 20.2935 24.91 19.6592 24.9304C18.1593 24.9789 16.6574 24.9458 15.1128 24.9458C15.1128 24.3993 15.1128 23.8576 15.1128 23.3152C14.1255 24.6501 12.8736 25.2521 11.3196 24.8707C9.7602 24.4878 8.91535 23.3637 8.69878 21.627C8.19949 22.142 7.61798 22.3457 6.92017 22.3696C7.67479 23.2092 8.42942 24.0487 9.25289 24.9655C8.49425 24.9655 7.83254 24.9718 7.17216 24.9571C7.09329 24.9557 7.00573 24.8517 6.93955 24.7779C6.25779 24.0213 5.58337 23.2583 4.89826 22.5045C4.76458 22.3577 4.72447 22.2354 4.81604 22.0422C4.98983 21.6762 5.12418 21.2884 5.30598 20.9273C5.35879 20.8219 5.51319 20.7166 5.62548 20.7109C6.11475 20.6871 6.60535 20.706 7.09529 20.6976C7.47561 20.6913 7.70554 20.4784 7.70487 20.1545C7.70354 19.8285 7.47026 19.6143 7.09529 19.6122C6.26046 19.608 5.42563 19.6108 4.54668 19.6108C4.54668 21.3889 4.54668 23.1487 4.54668 24.9402C4.00995 24.9402 3.51667 24.9402 3 24.9402C3 22.6471 3 20.3583 3 18.0322C3.12299 18.0251 3.24129 18.0132 3.3596 18.0125C4.50724 18.0111 5.65556 18.0399 6.80186 18.0034C7.95485 17.9668 8.78902 18.4087 9.22348 19.6311C9.97142 18.5675 10.9306 17.9907 12.1718 18.0139C13.4123 18.0371 14.3441 18.6581 15.1021 19.6859C15.1021 19.1429 15.1021 18.5991 15.1021 18.0111C15.2605 18.0111 15.3801 18.0111 15.4991 18.0111C16.624 18.0111 17.7503 18.042 18.8745 18.0027C20.0322 17.9626 20.8958 18.3701 21.3409 19.6129C22.0334 18.6658 22.8863 18.0975 24.0072 18.042C25.1107 17.9872 26.0311 18.3968 26.8017 19.2735C26.9829 18.9033 27.1313 18.5633 27.3144 18.245C27.3759 18.1382 27.5243 18.0209 27.6332 18.0202C29.7273 18.0076 31.8221 18.0111 33.9162 18.0125C33.959 18.0125 34.0024 18.0258 34.0833 18.0392C34.094 18.278 34.1054 18.5169 34.1174 18.7832C34.1689 18.7607 34.2163 18.7558 34.2404 18.7284C34.7116 18.1916 35.3031 17.9984 35.9849 18.0069C37.0985 18.0216 38.2127 18.0111 39.3269 18.0111C39.4459 18.0111 39.5642 18.0111 39.7587 18.0111C39.4913 18.5598 39.2641 19.048 39.0114 19.5215C38.976 19.5883 38.8169 19.6058 38.7147 19.6065C37.7675 19.6129 36.8211 19.6072 35.8739 19.6122C35.4595 19.6143 35.2062 19.9023 35.2891 20.2676C35.3599 20.5803 35.5752 20.6906 35.8633 20.6899C36.5317 20.6885 37.2001 20.6807 37.8685 20.6927C39.3042 20.7187 40.2687 21.9776 39.9332 23.3764C39.7233 24.2517 38.9493 24.9388 38.0596 24.9557C36.6232 24.9831 35.1855 24.9662 33.7484 24.9669C33.4477 24.9669 33.1455 24.9465 32.8468 24.969C32.566 24.9908 32.5487 24.8376 32.5493 24.6072C32.5553 22.8628 32.5527 21.1177 32.5527 19.3733C32.5533 19.2546 32.5533 19.1337 32.5533 19.0129ZM12.1217 19.6129C11.105 19.6065 10.2675 20.4601 10.2695 21.4992C10.2715 22.5249 11.095 23.3743 12.0943 23.382C13.1035 23.3897 13.923 22.5642 13.9344 21.528C13.9457 20.4643 13.1463 19.6192 12.1217 19.6129ZM26.0277 21.5315C26.0331 20.4749 25.2196 19.6283 24.1997 19.629C23.2004 19.6297 22.3769 20.4714 22.3676 21.502C22.3582 22.5333 23.171 23.3883 24.1716 23.3995C25.2056 23.4108 26.0224 22.5888 26.0277 21.5315ZM16.8419 22.2945C17.0464 21.8118 17.2356 21.3924 17.4007 20.9631C17.4809 20.7538 17.6019 20.692 17.8064 20.6976C18.2736 20.7109 18.7422 20.7067 19.2101 20.6997C19.6031 20.6941 19.8203 20.4988 19.825 20.1658C19.8297 19.8215 19.5997 19.615 19.1947 19.6136C18.4374 19.6101 17.6801 19.6115 16.9221 19.6136C16.8386 19.6136 16.7543 19.6318 16.6782 19.6403C16.6782 20.8964 16.6782 22.1209 16.6782 23.3834C16.9849 23.3834 17.2717 23.3834 17.5591 23.3834C18.1386 23.3827 18.7181 23.3925 19.2969 23.3778C19.6291 23.3693 19.8317 23.1382 19.825 22.8256C19.819 22.5298 19.6211 22.3254 19.3043 22.2994C19.1713 22.2881 19.0369 22.2952 18.9033 22.2945C18.2382 22.2938 17.5731 22.2945 16.8419 22.2945ZM34.1194 23.9581C34.1388 23.9637 34.1575 23.97 34.1769 23.9756C34.2123 23.9187 34.2631 23.866 34.2798 23.8035C34.3787 23.4305 34.6194 23.3637 34.9602 23.3722C35.9174 23.396 36.8752 23.3848 37.833 23.3778C38.2147 23.375 38.444 23.16 38.4446 22.8347C38.4453 22.5108 38.2134 22.298 37.8337 22.2938C37.2883 22.2874 36.7415 22.2685 36.1975 22.2973C35.4234 22.3387 34.741 22.1554 34.1943 21.5463C34.1856 21.5371 34.1548 21.5498 34.1194 21.554C34.1194 22.3556 34.1194 23.1572 34.1194 23.9581Z" fill="white"/>
</svg>
