<svg width="21" height="20" viewBox="0 0 21 20" fill="none" xmlns="http://www.w3.org/2000/svg">
<rect x="0.0703125" width="20" height="20" rx="10" fill="#595758"/>
<g clip-path="url(#clip0_1141_49648)">
<path d="M9.75 9.4108H10.3198V9.65605H10.3263C10.4338 9.47311 10.6754 9.35938 10.8895 9.35938C11.4863 9.35938 11.535 9.79407 11.535 10.0529V11.2023H10.948V10.3358C10.948 10.0906 10.9757 9.84224 10.6547 9.84224C10.4338 9.84224 10.3369 10.0284 10.3369 10.2255V11.2021H9.75V9.4108Z" fill="white"/>
<path d="M12.3068 10.62C12.3055 10.6586 12.3136 10.697 12.3302 10.7318C12.3468 10.7667 12.3716 10.797 12.4023 10.8204C12.4574 10.8617 12.5371 10.8825 12.6195 10.8825C12.7342 10.8825 12.8961 10.8341 12.8961 10.6925C12.8961 10.5545 12.7132 10.5269 12.6094 10.5027C12.2402 10.4094 11.7773 10.3994 11.7773 9.916C11.7773 9.48456 12.2433 9.36719 12.5954 9.36719C12.9888 9.36719 13.3998 9.48074 13.4204 9.94697H12.8797C12.8797 9.87051 12.8521 9.82272 12.8032 9.79156C12.7464 9.7596 12.6819 9.74411 12.6168 9.74683C12.5201 9.74683 12.3647 9.75696 12.3647 9.88064C12.3647 10.0496 12.7583 10.081 13.0274 10.1395C13.3906 10.2121 13.4833 10.4744 13.4833 10.6227C13.4833 11.1025 13.0274 11.2614 12.6231 11.2614C12.1984 11.2614 11.7629 11.1199 11.7461 10.6193L12.3068 10.62Z" fill="white"/>
<path d="M14.5555 10.8014C14.8283 10.8014 14.9145 10.5324 14.9145 10.3044C14.9145 10.0763 14.8283 9.80412 14.5555 9.80412C14.2827 9.80412 14.1999 10.0767 14.1999 10.3044C14.1999 10.532 14.2825 10.8014 14.5555 10.8014ZM14.5555 9.35547C15.1112 9.35547 15.5012 9.76627 15.5012 10.3046C15.5012 10.8429 15.1112 11.2504 14.5555 11.2504C13.9998 11.2504 13.6133 10.8431 13.6133 10.3046C13.6133 9.76607 13.9998 9.35547 14.5555 9.35547Z" fill="white"/>
<path d="M16.2706 8.73828H15.6836V11.2027H16.2706V8.73828Z" fill="white"/>
<path d="M5.31641 8.73828H5.98699V9.6501H6.76289V8.73828H7.4287V11.2027H6.76289V10.2306H5.98699V11.2027H5.31641V8.73828Z" fill="white"/>
<path d="M4.63725 8.73828H3.87109V9.6134H4.63725V8.73828Z" fill="#106FB5"/>
<path d="M4.63725 10.2969H3.87109V11.2032H4.63725V10.2969Z" fill="#139244"/>
<path d="M8.48483 10.8913C8.7645 10.8913 8.85759 10.7327 8.84383 10.3633C8.76087 10.4151 8.60928 10.4257 8.48063 10.4603C8.34949 10.4912 8.2392 10.5463 8.2392 10.6877C8.2392 10.8328 8.35389 10.8913 8.48407 10.8913H8.48483ZM7.72479 9.96324C7.73531 9.72812 7.84579 9.57672 8.00446 9.48325C8.16312 9.39359 8.37033 9.35938 8.57372 9.35938C8.99828 9.35938 9.40908 9.45228 9.40908 9.95942V10.7432C9.40908 10.8949 9.40908 11.0607 9.47828 11.2019H8.88894C8.87038 11.1473 8.85864 11.0905 8.85396 11.033C8.70237 11.1918 8.47814 11.2537 8.26405 11.2537C7.92245 11.2537 7.65234 11.0817 7.65234 10.712C7.65234 10.1288 8.28756 10.1737 8.69453 10.0907C8.79489 10.0701 8.84994 10.0355 8.84994 9.9252C8.84994 9.79139 8.68765 9.73882 8.56703 9.73882C8.40493 9.73882 8.30113 9.81108 8.27361 9.96324H7.72479Z" fill="white"/>
</g>
<defs>
<clipPath id="clip0_1141_49648">
<rect width="12.4" height="2.5229" fill="white" transform="translate(3.87109 8.73828)"/>
</clipPath>
</defs>
</svg>
