<svg width="20" height="20" viewBox="0 0 20 20" fill="none" xmlns="http://www.w3.org/2000/svg">
<rect width="20" height="20" rx="10" fill="#003BAB"/>
<g clip-path="url(#clip0_1141_49530)">
<path d="M13.3269 4.40039C13.1578 5.00039 12.5248 6.03239 11.7058 6.70639C12.3319 7.59539 12.9006 8.89039 13.2122 10.2164C13.1334 10.6123 13.011 10.9981 12.8472 11.3664C13.0925 12.4534 13.1281 13.4394 12.9352 14.1284C12.6034 14.3941 12.2497 14.6307 11.8779 14.8354C11.4828 15.0483 11.0726 15.2312 10.6505 15.3824L10.6347 15.1434C10.611 14.7934 10.4517 14.2594 10.247 13.7124C9.7786 13.737 9.31097 13.6511 8.8811 13.4614C8.57109 13.6648 8.28009 13.8965 8.01172 14.1534C8.43825 14.6544 8.9439 15.0805 9.50816 15.4144C9.67384 15.5156 9.85894 15.5801 10.0512 15.6034C10.7881 15.611 11.5172 15.4497 12.1836 15.1314C14.9549 13.7244 15.5909 9.40739 13.3269 4.40039Z" fill="white"/>
<path d="M9.9889 12.6009C10.3638 13.4289 10.7802 14.5219 10.8187 15.1279C11.5163 14.8531 12.1722 14.4804 12.7672 14.0209C13.1628 12.3459 12.4447 9.16391 9.87714 5.75391C8.92446 6.13492 8.00224 6.5896 7.11866 7.1139C7.48758 7.9349 8.22047 9.41391 8.75456 10.3589C7.79122 10.9009 6.87041 11.6829 6.48764 12.2089C5.78245 10.8189 5.49859 9.32491 5.50848 8.27291C5.43189 8.5455 5.37829 8.82416 5.34825 9.10591C5.05846 11.5479 6.11774 14.2599 7.9198 15.1499C8.07211 15.2229 8.23333 15.2879 8.39652 15.3499C8.73115 15.4619 9.0772 15.5354 9.42811 15.5689C9.05128 15.3979 8.34015 14.9009 7.75166 14.1499C8.22146 13.6229 9.13139 13.0209 9.9889 12.6009Z" fill="white"/>
</g>
<defs>
<clipPath id="clip0_1141_49530">
<rect width="9.4" height="11.2" fill="white" transform="translate(5.30078 4.40039)"/>
</clipPath>
</defs>
</svg>
