<svg  viewBox="0 0 43 43" fill="none" xmlns="http://www.w3.org/2000/svg">
<path d="M21.5 43C33.3741 43 43 33.3741 43 21.5C43 9.62588 33.3741 0 21.5 0C9.62588 0 0 9.62588 0 21.5C0 33.3741 9.62588 43 21.5 43Z" fill="#2D4C9C"/>
<path d="M29.2377 27.6482C26.4427 27.6052 24.2497 27.1322 22.8737 24.9392C22.3147 24.0792 22.1427 23.3052 23.6477 23.3912C24.8947 23.4342 26.2277 23.1332 27.1737 24.3372C27.2597 24.4232 27.4317 24.5092 27.5607 24.5092C28.5927 24.6812 30.0977 25.2402 30.4417 24.1222C30.8287 22.8752 29.1517 22.8752 28.3347 22.7032C26.8297 22.4022 25.3677 22.1442 24.1207 21.1982C22.4437 19.9512 22.3147 18.1452 23.7337 16.8122C25.8837 14.7482 31.8177 14.8342 33.9677 16.9412C34.4407 17.4142 34.9997 17.9732 34.8277 18.5752C34.5697 19.3922 33.7527 18.9622 33.1507 18.9622C32.1617 19.0052 31.1297 19.2202 30.4417 18.1882C30.2697 17.9302 29.7967 17.8442 29.4527 17.8012C28.5497 17.7582 27.2597 17.4142 27.0877 18.5322C26.9157 19.6072 28.2487 19.5642 29.0227 19.7792C30.0547 20.0372 31.1727 20.0372 32.1617 20.3812C33.7957 20.8972 35.1717 21.8002 35.1287 23.8212C35.0857 25.7992 33.6667 26.6592 32.0327 27.1752C31.0007 27.5192 29.9687 27.7772 29.2377 27.6482Z" fill="#FAFAFA"/>
<path d="M17.0712 19.1363C17.0712 22.0173 17.0712 24.5973 17.0712 27.3063C15.4802 27.3063 14.0612 27.3063 12.3412 27.3063C12.3412 24.6403 12.3412 22.0603 12.3412 19.3513C10.6642 19.2653 9.33114 19.2223 7.86914 19.1363C7.86914 18.0183 7.86914 16.9863 7.86914 15.7393C12.4271 15.7393 17.0281 15.7393 21.7151 15.7393C21.7151 16.8573 21.7151 17.8893 21.7151 19.1363C20.2531 19.1363 18.8342 19.1363 17.0712 19.1363Z" fill="white"/>
</svg>
