<svg width="20" height="21" viewBox="0 0 20 21" fill="none" xmlns="http://www.w3.org/2000/svg">
<rect y="0.0078125" width="20" height="20" rx="10" fill="#013469"/>
<path fill-rule="evenodd" clip-rule="evenodd" d="M11.3471 10.7667C11.4471 11.2667 11.1871 11.7067 10.9471 12.1067C10.7071 12.4867 10.2871 12.8267 9.80709 12.7667C8.70709 12.7467 7.62709 12.5867 6.64709 12.2867C6.60709 12.2667 6.54709 12.2467 6.52709 12.2067C6.50709 12.1467 6.52708 12.0867 6.56708 12.0667C7.46708 11.3267 8.54709 10.9867 9.62709 10.6267C10.0271 10.5067 10.4471 10.3867 10.9071 10.4467C11.1071 10.4667 11.2871 10.5867 11.3471 10.7667ZM15.0871 8.58672C15.5871 9.00672 16.0471 9.58673 15.9071 10.2667C15.6471 11.2867 14.5471 11.8267 13.6671 12.1667C13.1871 12.3267 12.7071 12.4867 12.1671 12.5467C12.1271 12.5467 12.0871 12.5467 12.0671 12.5067L12.0871 12.4467C12.8271 11.6067 13.4071 10.6667 13.9071 9.70673C14.1471 9.26673 14.3471 8.82672 14.5471 8.38672C14.5671 8.34672 14.6071 8.34673 14.6471 8.32673C14.8271 8.34673 14.9471 8.48672 15.0871 8.58672ZM7.92709 7.50672L7.90709 7.56673C6.82709 8.78673 6.10709 10.2267 5.44709 11.6467C5.30709 11.7667 5.18708 11.6067 5.06708 11.5467C4.46708 11.1467 3.92709 10.5067 4.08709 9.76673C4.34709 8.78673 5.34709 8.24673 6.20709 7.90673C6.70709 7.72673 7.22708 7.56672 7.78708 7.48672C7.82708 7.44672 7.88709 7.44672 7.92709 7.50672ZM13.2871 7.68672C13.3471 7.72672 13.4271 7.72672 13.4671 7.78672C13.5071 7.84672 13.4271 7.90672 13.4071 7.94672C12.5471 8.60672 11.5871 8.98673 10.5871 9.30673C10.0871 9.42673 9.56709 9.64673 9.00709 9.52673C8.86709 9.48673 8.74708 9.40672 8.68708 9.28672C8.54708 8.90672 8.72709 8.50673 8.90709 8.16673C9.12709 7.74673 9.50709 7.24673 10.0471 7.24673C11.1671 7.22673 12.2471 7.40672 13.2871 7.68672ZM14.7071 7.72673C15.5871 8.20673 16.5671 9.04673 16.4671 10.1667C16.3471 11.2067 15.3871 11.9267 14.5271 12.3667C12.0071 13.5667 8.46708 13.6067 5.86708 12.5467C4.98708 12.1867 4.00709 11.5467 3.62709 10.6067C3.34709 9.82673 3.68708 9.02672 4.26708 8.48672C5.48708 7.38672 7.02709 7.00672 8.60709 6.78672C10.3271 6.58672 12.1471 6.76672 13.6871 7.28672C14.0471 7.40672 14.3871 7.54673 14.7071 7.72673Z" fill="white"/>
</svg>
