<svg width="20" height="20" viewBox="0 0 20 20" fill="none" xmlns="http://www.w3.org/2000/svg">
<rect width="20" height="20" rx="10" fill="#DD052B"/>
<g clip-path="url(#clip0_1141_49512)">
<path d="M5.85039 12.1931C5.46828 12.0141 5.14562 11.8692 5.14562 11.5709C5.14562 11.3492 5.32393 11.1788 5.68056 11.1788C5.80793 11.1788 5.91832 11.1958 6.0287 11.2129C6.08814 11.2214 6.14758 11.2299 6.19853 11.2299C6.5127 11.2299 6.68253 11.0424 6.8014 10.6929L6.85235 10.548C6.8014 10.5309 6.29193 10.3008 5.63811 10.3008C4.5852 10.3008 4.03327 10.9742 4.03327 11.6817C4.03327 12.0397 4.14366 12.2954 4.31348 12.4915C4.53425 12.7557 4.85692 12.9177 5.15411 13.0711C5.58716 13.2842 5.97776 13.4461 5.97776 13.7615C5.97776 14.0428 5.68906 14.2048 5.30695 14.2048C4.7805 14.2048 4.31348 13.8979 4.25404 13.8638L3.8125 14.6907C3.88892 14.7333 4.44934 15.0913 5.36639 15.0913C6.35137 15.0913 7.0901 14.5287 7.0901 13.6592C7.0901 12.7898 6.40232 12.4659 5.85039 12.1931Z" fill="white"/>
<path d="M9.68939 12.6008L11.4725 10.4102H10.1989L8.78083 12.3025H8.75536V10.4102H7.71094V15.0472H7.77038C8.22041 15.0472 8.76385 14.8341 8.76385 14.0755V13.01H8.78083L10.2243 14.9876H11.5575L9.68939 12.6008Z" fill="white"/>
<path d="M11.523 5.44141C11.1579 5.5096 10.6145 5.84204 10.6145 6.43872C10.6145 6.97573 11.056 7.29964 11.056 8.00714C11.056 8.53563 10.7673 8.89364 10.4531 9.08969C10.5805 9.08116 10.7164 9.07264 10.8777 9.07264C11.2004 9.07264 11.3956 9.10674 11.4041 9.10674L13.0514 7.0695C12.5929 6.37905 12.058 5.85056 11.523 5.44141Z" fill="white"/>
<path d="M12.9184 10.9317C13.1307 10.6078 13.1562 10.0878 13.1732 9.55933C13.1901 9.06493 13.292 8.6984 13.9543 8.6984C14.0987 8.6984 14.2346 8.71545 14.4893 8.71545C15.4488 8.71545 16.0771 8.38301 16.4677 8.16139C15.6696 7.64995 14.5063 7.12998 13.0628 7.07031C12.9694 7.33456 12.2391 9.38032 12.1797 9.54228C12.1882 9.5508 12.3155 9.69571 12.4769 9.977C12.7061 10.3691 12.8335 10.693 12.9184 10.9317Z" fill="white"/>
<path d="M9.31788 9.26035C9.23297 9.26035 9.19052 9.20921 9.18203 9.10692C9.17353 9.01316 8.75747 5.21997 8.69803 4.64886C8.68954 4.56362 8.67255 4.41018 8.66406 4.35904C8.66406 4.2738 8.7235 4.22266 8.79143 4.22266C8.98673 4.22266 10.0566 4.46985 11.1859 5.27111C10.8633 5.36488 10.2689 5.70584 10.2689 6.40481C10.2689 7.02706 10.7189 7.36802 10.7189 7.9988C10.7274 9.01316 9.55564 9.26035 9.31788 9.26035Z" fill="white"/>
<path d="M13.2266 11.2029C13.2435 11.254 13.2605 11.2881 13.2775 11.3137C13.303 11.3563 13.3369 11.3819 13.3794 11.3819C13.4049 11.3819 13.4388 11.3733 13.4728 11.3563C13.5577 11.3137 17.0051 9.70263 17.5231 9.46395C17.5995 9.42986 17.7439 9.36167 17.7863 9.33609C17.8373 9.31052 17.8543 9.2679 17.8543 9.22528C17.8543 9.19971 17.8458 9.18266 17.8373 9.15709C17.7694 9.0548 17.4382 8.69679 16.8778 8.30469C16.4362 8.55188 15.74 8.92694 14.7125 8.93547C14.4578 8.93547 14.4068 8.91842 14.2285 8.91842C13.7275 8.91842 13.6002 9.13152 13.5832 9.57477C13.5832 9.66001 13.5747 9.77082 13.5747 9.89016C13.5747 10.2908 13.5238 10.8363 13.2266 11.2029Z" fill="white"/>
</g>
<defs>
<clipPath id="clip0_1141_49512">
<rect width="13.8322" height="10.8681" fill="white" transform="translate(3.8125 4.22266)"/>
</clipPath>
</defs>
</svg>
