<svg  viewBox="0 0 43 43" fill="none" xmlns="http://www.w3.org/2000/svg">
<circle cx="21.5" cy="21.5" r="21.5" fill="#DD052B"/>
<g clip-path="url(#clip0_356_17925)">
<path d="M12.8551 25.1945C12.0336 24.8096 11.3398 24.4981 11.3398 23.8566C11.3398 23.3802 11.7232 23.0136 12.49 23.0136C12.7638 23.0136 13.0011 23.0503 13.2385 23.0869C13.3663 23.1053 13.4941 23.1236 13.6036 23.1236C14.2791 23.1236 14.6442 22.7204 14.8998 21.969L15.0093 21.6574C14.8998 21.6208 13.8044 21.126 12.3987 21.126C10.1349 21.126 8.94829 22.5738 8.94829 24.0949C8.94829 24.8646 9.18562 25.4144 9.55074 25.8359C10.0254 26.4041 10.7191 26.7523 11.3581 27.0821C12.2892 27.5403 13.1289 27.8885 13.1289 28.5666C13.1289 29.1714 12.5082 29.5196 11.6867 29.5196C10.5548 29.5196 9.55074 28.8598 9.42295 28.7865L8.47363 30.5642C8.63794 30.6558 9.84284 31.4256 11.8145 31.4256C13.9322 31.4256 15.5205 30.216 15.5205 28.3467C15.5205 26.4774 14.0417 25.7809 12.8551 25.1945Z" fill="white"/>
<path d="M21.1052 26.0732L24.939 21.3633H22.2006L19.1518 25.4318H19.0971V21.3633H16.8516V31.333H16.9794C17.9469 31.333 19.1153 30.8748 19.1153 29.2437V26.9529H19.1518L22.2554 31.2047H25.1216L21.1052 26.0732Z" fill="white"/>
<path d="M25.0512 10.6807C24.2662 10.8273 23.0978 11.542 23.0978 12.8249C23.0978 13.9795 24.0472 14.6759 24.0472 16.197C24.0472 17.3332 23.4265 18.103 22.751 18.5245C23.0248 18.5061 23.3169 18.4878 23.6638 18.4878C24.3575 18.4878 24.7774 18.5611 24.7957 18.5611L28.3373 14.1811C27.3515 12.6966 26.2014 11.5603 25.0512 10.6807Z" fill="white"/>
<path d="M28.0473 22.4846C28.5037 21.7882 28.5584 20.6703 28.5949 19.534C28.6315 18.4711 28.8505 17.683 30.2745 17.683C30.5849 17.683 30.877 17.7197 31.4246 17.7197C33.4876 17.7197 34.8385 17.0049 35.6783 16.5284C33.9622 15.4288 31.4612 14.3109 28.3576 14.1826C28.1568 14.7507 26.5868 19.1491 26.459 19.4973C26.4772 19.5157 26.7511 19.8272 27.0979 20.432C27.5909 21.275 27.8647 21.9714 28.0473 22.4846Z" fill="white"/>
<path d="M20.3139 18.8916C20.1314 18.8916 20.0401 18.7816 20.0218 18.5617C20.0036 18.3601 19.109 10.2048 18.9812 8.97688C18.963 8.79361 18.9265 8.46373 18.9082 8.35377C18.9082 8.17051 19.036 8.06055 19.182 8.06055C19.6019 8.06055 21.9022 8.59202 24.3303 10.3147C23.6365 10.5163 22.3586 11.2494 22.3586 12.7522C22.3586 14.09 23.3262 14.8231 23.3262 16.1793C23.3444 18.3601 20.8251 18.8916 20.3139 18.8916Z" fill="white"/>
<path d="M28.7129 23.0699C28.7494 23.1799 28.7859 23.2532 28.8224 23.3082C28.8772 23.3998 28.9502 23.4548 29.0415 23.4548C29.0963 23.4548 29.1693 23.4365 29.2423 23.3998C29.4249 23.3082 36.8368 19.8444 37.9505 19.3313C38.1148 19.258 38.4251 19.1114 38.5164 19.0564C38.6259 19.0014 38.6625 18.9098 38.6625 18.8181C38.6625 18.7632 38.6442 18.7265 38.6259 18.6715C38.4799 18.4516 37.7679 17.6819 36.563 16.8389C35.6137 17.3703 34.1167 18.1767 31.9077 18.195C31.36 18.195 31.2505 18.1584 30.8671 18.1584C29.79 18.1584 29.5162 18.6166 29.4796 19.5695C29.4796 19.7528 29.4614 19.9911 29.4614 20.2476C29.4614 21.109 29.3519 22.2819 28.7129 23.0699Z" fill="white"/>
</g>
<defs>
<clipPath id="clip0_356_17925">
<rect width="29.7392" height="23.3665" fill="white" transform="translate(8.47363 8.06055)"/>
</clipPath>
</defs>
</svg>
