<svg  viewBox="0 0 43 43" fill="none" xmlns="http://www.w3.org/2000/svg">
<rect width="43" height="43" rx="21.5" fill="#C00F70"/>
<g clip-path="url(#clip0_356_17822)">
<path d="M22.181 22.7459C21.6309 22.5353 21.0344 22.4762 20.4537 22.5747C18.4452 22.919 16.672 23.8018 15.0193 24.9524C14.1958 25.5262 13.447 26.1823 12.9209 27.0565C12.2457 28.1813 12.4236 29.2563 13.4144 30.1104C15.1943 31.6406 20.2251 32.7989 21.5641 30.1104C22.3666 28.4969 23.0877 26.8394 23.3708 25.0413C23.5411 23.9596 23.0743 23.0787 22.181 22.7459ZM22.3723 24.85C22.2384 26.1278 21.6865 27.2707 21.2332 28.4462C21.1997 28.5351 21.1567 28.6203 21.1213 28.7073C20.5178 30.2031 19.9076 30.6115 17.8953 30.6115C16.9484 30.5656 15.6955 30.2356 14.5029 29.6455C14.3635 29.5711 14.2321 29.4826 14.1107 29.3816C13.4307 28.8469 13.3312 28.3582 13.7655 27.6112C14.2437 26.7839 14.9744 26.1909 15.7472 25.6649C17.1407 24.7161 18.6365 23.9826 20.2988 23.622C20.672 23.5473 21.055 23.5353 21.4321 23.5866C22.1485 23.665 22.4507 24.1107 22.3742 24.8453L22.3723 24.85Z" fill="#9DA4AC"/>
<path d="M29.8806 23.5004C28.7683 22.8988 27.5632 22.5899 26.316 22.4244C24.517 22.1853 23.793 23.3713 23.8743 24.7571C23.9938 26.8134 24.781 28.6144 26.0741 30.202C26.5724 30.8122 27.2218 31.0695 28.0089 30.9892C29.192 30.8696 30.2938 30.0423 30.948 29.0763C32.22 27.2037 31.9752 24.6337 29.8806 23.5004ZM30.7309 26.9435C30.4717 28.3724 29.4005 29.6406 28.0663 29.9811C27.6445 30.0892 27.283 30.0022 26.9855 29.6865C25.8072 28.4346 25.1999 26.9129 24.9177 25.2459C24.8458 24.9064 24.8413 24.5561 24.9044 24.2148C25.0306 23.641 25.3271 23.3713 26.0463 23.3808C27.2897 23.5673 28.6363 23.8418 29.8003 24.6433C30.6046 25.198 30.9126 25.9479 30.7309 26.9445V26.9435Z" fill="#9DA4AC"/>
<path d="M25.1906 21.4743C25.4746 21.501 25.7609 21.492 26.0427 21.4476C27.752 21.0774 29.3426 20.2886 30.6718 19.1522C31.678 18.3038 31.8243 17.1542 31.1089 16.0486C30.5446 15.1763 29.7537 14.5489 28.8412 14.0745C28.5875 13.943 28.3081 13.8682 28.0225 13.8555C27.0288 13.8067 26.3842 14.37 25.8754 15.1141C24.9276 16.5 24.5565 18.0695 24.502 19.5682C24.5211 20.142 24.5086 20.5466 24.6062 20.955C24.6856 21.2907 24.8702 21.46 25.1906 21.4743Z" fill="white"/>
<path d="M20.7703 12.8694C19.8139 11.672 18.562 10.9814 16.9906 11.2301C14.3939 11.6404 12.5489 13.1018 11.5562 15.5245C10.8178 17.3264 11.1095 19.0116 12.8789 20.0579C14.9484 21.2981 17.3002 21.9894 19.7116 22.0664C20.4104 22.108 21.1103 22.0027 21.766 21.7575C22.9883 21.2927 23.5717 20.3276 23.4235 19.2268C23.1059 16.8807 22.2499 14.7287 20.7703 12.8694ZM21.1682 20.8977C20.657 21.0321 20.1302 21.0987 19.6016 21.0956C17.4908 20.9531 15.3933 20.3869 13.4671 19.2392C12.1166 18.4358 11.9072 17.4383 12.415 16.083C13.2758 13.8058 14.9696 12.463 17.4028 12.1923C18.4768 12.0727 19.3156 12.682 19.9727 13.4806C21.2878 15.0826 21.9649 16.9868 22.4106 18.9743C22.6277 19.9364 22.1371 20.6346 21.1682 20.8977Z" fill="#9DA4AC"/>
</g>
<defs>
<clipPath id="clip0_356_17822">
<rect width="20.5459" height="20.5411" fill="white" transform="translate(11.1777 11.1797)"/>
</clipPath>
</defs>
</svg>
