<svg  viewBox="0 0 43 43" fill="none" xmlns="http://www.w3.org/2000/svg">
<path d="M21.5 43C33.3741 43 43 33.3741 43 21.5C43 9.62588 33.3741 0 21.5 0C9.62588 0 0 9.62588 0 21.5C0 33.3741 9.62588 43 21.5 43Z" fill="#E83426"/>
<path d="M30.779 34.018C29.9566 34.166 29.0354 34.1167 28.1635 34.1167C25.1367 34.1167 22.0935 34.1167 19.0667 34.1167C17.5204 34.1167 15.9742 34.1167 14.4279 34.1167C13.3093 34.1167 8.802 34.7747 9.80544 32.3237C9.92059 32.0276 10.118 31.7479 10.3154 31.4847C12.24 28.9185 14.1647 26.3688 16.0729 23.8026C16.2538 23.5559 16.4347 23.3091 16.5828 23.0624C17.1092 22.1741 17.1421 21.2529 16.6486 20.3317C16.5005 20.0685 16.336 19.8217 16.1551 19.575C14.9214 17.93 13.6876 16.2686 12.4539 14.6236C11.8123 13.7682 11.1872 12.9292 10.5457 12.0739C10.1838 11.5968 9.70675 11.1691 9.4929 10.5934C8.802 8.68517 12.092 8.76742 13.1612 8.80032C16.0071 8.89902 18.8364 8.93192 21.6823 8.93192C23.5247 8.93192 25.3835 8.93192 27.2259 8.93192C28.6735 8.93192 30.2033 8.88257 31.5851 9.35962C33.5097 10.0341 33.6084 11.3994 33.6084 13.2089C33.6084 16.4331 33.6084 19.6572 33.6084 22.8814C33.6084 24.4935 33.6084 26.1056 33.6084 27.7177C33.6084 29.2311 33.7236 30.9254 33.0491 32.3401C32.5227 33.4093 31.7167 33.837 30.779 34.018ZM25.4493 20.2659C24.6268 20.2659 23.8043 20.2659 22.9818 20.2659C22.3732 20.2659 21.781 20.2494 21.1723 20.2659C20.3334 20.2988 19.7412 20.891 19.7576 21.6641C19.7741 22.4044 20.3334 22.9472 21.1394 22.9966C21.3039 23.013 21.4684 23.013 21.6329 23.013C24.1333 23.013 26.6172 23.013 29.1176 23.013C29.3644 23.013 29.6111 23.013 29.8579 22.9801C30.5323 22.8814 30.9764 22.3715 30.9929 21.697C31.0093 20.8416 30.4665 20.2823 29.5453 20.2823C28.1964 20.2494 26.8311 20.2659 25.4493 20.2659Z" fill="white"/>
<path d="M10.5626 8.94824C10.1843 9.22789 9.78948 9.49109 9.41113 9.77074Z" fill="white"/>
</svg>
