<svg  viewBox="0 0 43 43" fill="none" xmlns="http://www.w3.org/2000/svg">
<path d="M21.5 43C33.3741 43 43 33.3741 43 21.5C43 9.62588 33.3741 0 21.5 0C9.62588 0 0 9.62588 0 21.5C0 33.3741 9.62588 43 21.5 43Z" fill="#0C9694"/>
<path d="M23.7652 11.4958C23.7538 10.1779 24.6248 9.28396 25.8625 9.31834C26.6418 9.3298 27.4441 9.90283 27.6618 10.6019C27.9369 11.4615 27.6045 12.4815 26.9054 12.9399C26.2292 13.3868 25.5187 13.4212 24.8081 13.0201C24.6706 12.9513 24.5445 12.8711 24.3956 12.8138C23.6392 12.5158 23.0891 12.8138 22.8713 13.5931C22.7796 13.914 22.6879 14.2578 22.4931 14.5329C22.1722 15.0028 21.6909 15.1518 21.1408 15.0142C20.5333 14.8652 20.2124 14.4527 20.0978 13.8682C20.0635 13.7192 20.052 13.5702 20.0176 13.4212C19.8572 12.894 19.4102 12.619 18.8716 12.745C18.5736 12.8138 18.2985 12.9513 18.0235 13.0659C17.2671 13.3983 16.3732 13.192 15.8689 12.5388C15.3646 11.9084 15.3646 10.877 15.8574 10.2352C16.3961 9.54755 17.29 9.31834 18.0579 9.67362C18.7913 10.006 19.1581 10.5675 19.1466 11.3812C19.1466 11.5188 19.1352 11.6448 19.1466 11.7824C19.2268 12.6877 19.7884 13.0086 20.6136 12.619C21.1178 12.3783 21.6106 12.2981 22.1493 12.5388C23.2953 13.0774 23.7652 12.7565 23.7652 11.4958Z" fill="white"/>
<path d="M23.7623 31.4924C23.7623 31.3778 23.7623 31.2632 23.7623 31.1486C23.7279 30.4151 23.1778 30.0025 22.5131 30.312C21.7682 30.6558 21.1035 30.6558 20.3814 30.3005C19.8428 30.0484 19.35 30.3349 19.201 30.9194C19.1437 31.16 19.1208 31.4122 19.1322 31.6528C19.1666 32.5009 18.6051 33.1427 17.8487 33.4292C17.2069 33.6699 16.3703 33.4292 15.8775 32.8677C15.419 32.3519 15.3388 31.3549 15.6941 30.7016C16.1181 29.9452 17.1037 29.5899 17.906 29.9108C18.1352 30.0025 18.3644 30.1057 18.5936 30.1973C19.3615 30.4839 19.9001 30.1859 20.072 29.3836C20.1408 29.0971 20.221 28.7992 20.37 28.547C20.6794 28.0198 21.2066 27.9167 21.7682 28.0084C22.3183 28.1001 22.6048 28.5012 22.7652 29.0054C22.8225 29.1888 22.8455 29.3836 22.9028 29.5556C23.1091 30.1973 23.7279 30.4724 24.3583 30.2088C24.5531 30.1286 24.7479 30.0484 24.9313 29.9338C25.7106 29.4639 26.5472 29.7733 27.1088 30.2203C27.6818 30.6787 27.911 31.6987 27.6474 32.4322C27.3838 33.1771 26.7077 33.6584 25.894 33.6699C24.5646 33.7043 23.7509 32.8677 23.7623 31.4924Z" fill="white"/>
<path d="M12.4996 24.0091C12.6256 24.3185 12.7861 24.6623 12.9121 25.0176C13.4164 26.347 12.4881 27.6421 11.0785 27.5848C10.1845 27.5504 9.33645 26.645 9.32499 25.7167C9.31353 24.8457 10.1043 23.9518 10.9753 23.883C11.2618 23.8601 11.5483 23.883 11.8349 23.8372C12.5569 23.7111 12.809 23.2298 12.5454 22.5421C12.4537 22.3129 12.2933 22.0722 12.3047 21.8545C12.3162 21.4648 12.385 21.0637 12.5225 20.697C12.8548 19.7801 12.511 19.2415 11.5369 19.2186C11.1472 19.2071 10.7117 19.2186 10.3679 19.0581C9.70319 18.7487 9.23331 18.2444 9.18746 17.4307C9.14162 16.5712 9.41668 15.8835 10.196 15.471C11.4108 14.8292 13.0153 15.5856 13.084 17.0067C13.107 17.5797 12.958 18.0954 12.6944 18.5882C12.362 19.23 12.6142 19.8374 13.3018 20.0781C13.531 20.1583 13.7831 20.2156 14.0124 20.2959C14.6771 20.5365 14.975 21.0293 14.8834 21.7743C14.8261 22.29 14.3103 22.8172 13.7373 22.8745C13.0382 22.9432 12.6371 23.2756 12.4996 24.0091Z" fill="white"/>
<path d="M30.4699 19.576C30.573 19.1061 30.5043 18.6935 30.2292 18.2809C29.7822 17.5933 29.8625 16.6077 30.3438 16.0347C30.9283 15.3356 31.7878 15.072 32.5901 15.3241C33.2662 15.5304 33.9883 16.4587 33.9653 17.2037C33.9424 18.2122 33.1173 19.2322 32.0285 19.2207C31.4669 19.2093 30.9283 19.2093 30.4584 19.576H30.4699Z" fill="white"/>
<path d="M30.4464 23.54C30.9277 23.7922 31.432 23.8724 31.9821 23.8839C32.9677 23.8953 33.6897 24.7434 33.6668 25.8092C33.6439 26.8063 32.8646 27.5742 31.879 27.5856C30.8819 27.5971 30.0682 26.8521 30.0223 25.8895C29.9994 25.4425 30.0796 25.0414 30.2859 24.6288C30.4464 24.2964 30.412 23.8953 30.4464 23.54Z" fill="white"/>
<path d="M17.4817 15.9984C17.4817 16.7319 16.7253 17.4883 16.0147 17.4883C15.2583 17.4768 14.5707 16.7663 14.5822 15.987C14.5822 15.1503 15.201 14.5659 16.0606 14.5773C16.8628 14.5888 17.4817 15.2076 17.4817 15.9984Z" fill="white"/>
<path d="M28.4033 16.0206C28.4033 16.8343 27.8073 17.4761 27.0509 17.4876C26.3175 17.499 25.584 16.777 25.584 16.0321C25.584 15.2069 26.1799 14.5881 27.0166 14.5881C27.8876 14.5766 28.4147 15.1153 28.4033 16.0206Z" fill="white"/>
<path d="M27.0876 25.6719C27.9243 25.6719 28.589 26.2793 28.589 27.0701C28.589 27.8035 27.8326 28.5141 27.0762 28.4912C26.2625 28.4682 25.6895 27.8723 25.6895 27.0471C25.6895 26.1876 26.2166 25.6719 27.0876 25.6719Z" fill="white"/>
<path d="M15.937 25.671C16.934 25.6251 17.3466 26.3701 17.381 27.0348C17.4268 27.8141 16.7278 28.4903 15.937 28.4903C15.1577 28.4903 14.5617 27.8714 14.5617 27.0577C14.5503 26.1752 15.0545 25.671 15.937 25.671Z" fill="white"/>
<path d="M30.4582 19.5635C30.378 20.0448 30.4696 20.4689 30.6645 20.9273C30.8135 21.294 30.8249 21.8212 30.6759 22.1765C30.4696 22.6349 30.3894 23.0589 30.4582 23.5403L30.4696 23.5288C30.229 23.1163 29.8393 22.9558 29.3809 22.887C28.6589 22.7839 28.2463 22.3369 28.2005 21.6493C28.1546 20.9387 28.487 20.4803 29.209 20.2626C29.6789 20.1136 30.1717 20.0104 30.4811 19.5749L30.4582 19.5635Z" fill="white"/>
<path d="M22.7099 33.5222C22.4005 34.4505 21.9535 34.8058 21.2544 34.6798C20.7502 34.5881 20.3261 34.0724 20.3147 33.5337C20.3032 32.9836 20.7616 32.422 21.2773 32.3533C22.0223 32.2616 22.4119 32.571 22.7099 33.5222Z" fill="white"/>
<path d="M22.6639 9.50016C22.6524 10.1305 22.045 10.7264 21.4605 10.715C20.876 10.7035 20.3145 10.1076 20.3145 9.51162C20.3145 8.88129 20.9104 8.28534 21.5178 8.30826C22.1138 8.33118 22.6868 8.91567 22.6639 9.50016Z" fill="white"/>
<path d="M10.5154 21.4998C10.5154 22.1646 9.98824 22.6917 9.31207 22.6803C8.68174 22.6688 8.16602 22.1302 8.16602 21.4998C8.16602 20.8122 8.59006 20.3996 9.33499 20.3996C10.0341 20.3882 10.5154 20.8351 10.5154 21.4998Z" fill="white"/>
<path d="M33.6875 20.3994C34.4439 20.3994 34.8336 20.7662 34.8336 21.4996C34.8336 22.1987 34.3866 22.6686 33.7219 22.6801C33.0686 22.6915 32.5873 22.2102 32.5644 21.534C32.5415 20.812 32.954 20.3994 33.6875 20.3994Z" fill="white"/>
<path d="M12.5121 13.0654C12.5235 12.6872 12.7871 12.4236 13.1653 12.4121C13.555 12.4121 13.8415 12.7101 13.83 13.0997C13.8186 13.4665 13.4747 13.8218 13.1424 13.8103C12.7871 13.7988 12.5006 13.4665 12.5121 13.0654Z" fill="white"/>
<path d="M29.1621 13.1343C29.3913 12.5727 29.6549 12.3435 30.0102 12.4238C30.3196 12.4925 30.5259 12.6988 30.5603 13.0082C30.5947 13.375 30.3884 13.6386 30.0675 13.7761C29.7581 13.9251 29.4945 13.7303 29.1621 13.1343Z" fill="white"/>
<path d="M13.7805 29.6023C13.8607 30.0034 13.8493 30.3243 13.4825 30.4962C13.1387 30.6681 12.8178 30.5994 12.5542 30.2899C12.4625 29.9232 12.4282 29.5679 12.8293 29.3502C13.2304 29.121 13.5169 29.3043 13.7805 29.6023Z" fill="white"/>
<path d="M29.1621 29.9229C29.4257 29.3613 29.6893 29.1665 30.0446 29.2696C30.3769 29.3613 30.5718 29.602 30.5488 29.9458C30.5374 30.2552 30.3655 30.4844 30.0446 30.5646C29.6664 30.6563 29.4142 30.4844 29.1621 29.9229Z" fill="white"/>
<path d="M16.8631 19.1159C16.9547 19.54 16.8516 19.7233 16.4276 19.6202C16.2671 19.1045 16.29 19.0815 16.8631 19.1159Z" fill="white"/>
<path d="M16.8741 23.343C16.8741 23.5493 16.8741 23.6868 16.8741 23.8588C16.6907 23.8588 16.5417 23.8588 16.3813 23.8588C16.2323 23.4118 16.4042 23.2857 16.8741 23.343Z" fill="white"/>
<path d="M19.0166 16.3303C19.1083 16.1813 19.2 16.0209 19.3719 15.7344C19.5209 16.0323 19.6125 16.1928 19.7501 16.4793C19.4406 16.4793 19.2802 16.4793 19.1083 16.4793C19.0739 16.422 19.051 16.3762 19.0166 16.3303Z" fill="white"/>
<path d="M23.8435 26.5761C23.8665 26.725 23.8894 26.8855 23.9238 27.1262C23.6831 27.1032 23.5226 27.0918 23.3507 27.0803C23.3278 27.0345 23.2934 26.9772 23.2705 26.9313C23.3966 26.7823 23.5226 26.6334 23.6602 26.4844C23.7175 26.5073 23.7862 26.5417 23.8435 26.5761Z" fill="white"/>
<path d="M23.1699 16.3763C23.3877 16.1242 23.5137 15.9981 23.6284 15.8721C23.6742 15.8835 23.7315 15.8835 23.7773 15.895C23.8232 16.0898 23.8576 16.2847 23.9034 16.4795C23.8576 16.5139 23.8232 16.5482 23.7773 16.5712C23.6169 16.5253 23.4679 16.4795 23.1699 16.3763Z" fill="white"/>
<path d="M19.5235 26.5302C19.5693 26.6907 19.6152 26.8397 19.6839 27.0689C19.4318 27.0689 19.2713 27.0689 18.9619 27.0689C19.1224 26.8053 19.2255 26.6448 19.3287 26.4844C19.3974 26.4958 19.4662 26.5188 19.5235 26.5302Z" fill="white"/>
<path d="M26.1387 23.7338C26.2304 23.5848 26.3335 23.4244 26.4252 23.2754C26.7461 23.4129 26.8492 23.5963 26.6773 23.7911C26.5971 23.8828 26.3793 23.8599 26.2304 23.8828C26.196 23.8255 26.1616 23.7797 26.1387 23.7338Z" fill="white"/>
<path d="M26.5684 19.6651C26.2246 19.6308 26.0985 19.4589 26.2131 19.2067C26.2475 19.1265 26.4996 19.0577 26.5799 19.1036C26.8434 19.2755 26.7632 19.4703 26.5684 19.6651Z" fill="white"/>
</svg>
