<svg viewBox="0 0 43 43" fill="none" xmlns="http://www.w3.org/2000/svg">
<path d="M21.5 43C33.3741 43 43 33.3741 43 21.5C43 9.62588 33.3741 0 21.5 0C9.62588 0 0 9.62588 0 21.5C0 33.3741 9.62588 43 21.5 43Z" fill="#292F84"/>
<path d="M17.977 31.6474C19.267 30.4864 20.643 29.6694 21.675 28.3794C22.836 26.9174 23.6959 25.3264 24.0829 23.5204C24.8999 19.9084 23.395 17.2854 20.514 15.3074C19.654 14.7054 18.665 14.1894 17.719 13.6734C17.117 13.3294 16.902 12.9424 17.547 12.4694C20.213 10.6204 23.094 9.41642 26.362 10.1474C29.673 10.8784 31.006 13.0714 31.35 16.0814C31.823 20.1234 30.0169 23.4344 27.5659 26.4874C25.3299 29.2394 22.492 31.0454 19.009 31.8194C18.751 31.8194 18.493 31.8194 17.977 31.6474Z" fill="#D82129"/>
<path d="M15.6546 14.2324C15.6546 17.5434 15.6546 20.6394 15.6546 23.7354C15.6546 25.9714 15.6116 28.2504 15.6976 30.4864C15.7406 31.7334 15.2676 31.5614 14.4936 31.2174C11.7846 29.8844 10.6666 27.3044 10.6666 24.4664C10.6236 21.0264 12.9026 16.5544 15.6546 14.2324Z" fill="white"/>
</svg>
