<svg width="21" height="20" viewBox="0 0 21 20" fill="none" xmlns="http://www.w3.org/2000/svg">
<rect x="0.0898438" width="20" height="20" rx="10" fill="#FE5703"/>
<path d="M9.09494 16.2869C9.07556 15.951 9.06264 15.6538 9.04972 15.376C9.489 15.292 9.90889 15.2404 10.303 15.1241C11.8275 14.6913 12.7319 13.6835 13.113 12.146C13.4231 10.8993 13.2616 9.63959 13.3391 8.36698C12.4024 8.36698 11.4916 8.36698 10.5613 8.36698C10.5613 8.63184 10.5613 8.8967 10.5613 9.20677C10.9489 9.20677 11.3301 9.20677 11.75 9.20677C11.7241 10.4665 11.8921 11.7068 11.343 12.8631C10.865 13.8579 10.0123 14.3554 8.9399 14.4781C6.74998 14.7236 4.77324 12.7468 4.40502 11.0479C3.91406 8.77396 4.41794 6.77783 6.14274 5.19515C7.39597 4.05174 8.92698 3.56724 10.6389 3.74166C12.7061 3.94838 14.2758 4.96259 15.2513 6.79075C16.821 9.71065 15.6776 13.4768 12.7448 15.1951C11.6854 15.8153 10.5613 16.261 9.31458 16.2933C9.25644 16.2869 9.19184 16.2869 9.09494 16.2869ZM11.7564 7.62409C12.2732 7.62409 12.79 7.62409 13.281 7.62409C13.281 7.08145 13.281 6.5905 13.281 6.06078C12.7513 6.08662 12.2539 6.11246 11.7564 6.1383C11.7564 6.62925 11.7564 7.12667 11.7564 7.62409ZM8.79778 8.26362C8.79778 7.72745 8.79132 7.19127 8.79132 6.64863C8.27453 6.62279 7.75773 6.59696 7.2151 6.57112C7.2151 7.19773 7.2151 7.75329 7.2151 8.32822C6.91148 8.32822 6.64016 8.32822 6.36238 8.32822C6.36238 8.63184 6.36238 8.91608 6.36238 9.22615C6.65308 9.22615 6.91794 9.22615 7.16988 9.22615C7.18926 9.27137 7.20864 9.29075 7.20864 9.31013C7.2151 10.0724 7.22156 10.8411 7.22802 11.6034C7.23448 12.4109 7.68021 13.0698 8.38435 13.283C9.1337 13.5091 9.82491 13.2442 10.3159 12.5336C10.135 12.3398 9.95411 12.146 9.7797 11.9523C9.04326 12.2752 8.78486 12.0944 8.78486 11.2933C8.78486 10.8411 8.78486 10.3889 8.78486 9.93675C8.78486 9.70419 8.78486 9.47163 8.78486 9.20677C9.17892 9.20677 9.5213 9.20677 9.84429 9.20677C9.84429 8.89024 9.84429 8.606 9.84429 8.34114C9.46316 8.32176 9.12724 8.29592 8.79778 8.26362Z" fill="white"/>
<path d="M8.79552 8.26342C8.79552 7.72725 8.78906 7.19107 8.78906 6.64844C8.78906 7.19107 8.78906 7.72725 8.79552 8.26342Z" fill="white"/>
</svg>
