<svg width="20" height="20" viewBox="0 0 20 20" fill="none" xmlns="http://www.w3.org/2000/svg">
<rect width="20" height="20" rx="10" fill="black"/>
<path d="M7.98759 8.82391L9.2377 7.74503V7.27057C9.22273 6.85136 9.04568 6.45431 8.74382 6.16304C8.44196 5.87176 8.03884 5.70898 7.61937 5.70898C7.19989 5.70898 6.79678 5.87176 6.49492 6.16304C6.19306 6.45431 6.016 6.85136 6.00103 7.27057V12.6155C5.99327 12.8329 6.02938 13.0496 6.10722 13.2527C6.18505 13.4558 6.30301 13.6412 6.45405 13.7977C6.60509 13.9543 6.78612 14.0788 6.98634 14.1638C7.18655 14.2488 7.40184 14.2927 7.61937 14.2927C7.83689 14.2927 8.05218 14.2488 8.2524 14.1638C8.45261 14.0788 8.63365 13.9543 8.78469 13.7977C8.93573 13.6412 9.05368 13.4558 9.13152 13.2527C9.20935 13.0496 9.24546 12.8329 9.2377 12.6155V11.9038L7.99997 10.8724C7.84992 10.7476 7.72896 10.5915 7.64556 10.4151C7.56216 10.2387 7.51833 10.0462 7.51715 9.85101C7.51598 9.65587 7.55747 9.46284 7.63873 9.28542C7.71999 9.108 7.83906 8.95048 7.98759 8.82391Z" fill="white"/>
<path d="M13.455 11.4818L11.4932 9.83145L13.1724 8.41219C13.4672 8.14723 13.6472 7.77788 13.6743 7.38244C13.7013 6.98701 13.5733 6.59657 13.3173 6.29394C13.0614 5.9913 12.6976 5.80025 12.3032 5.76129C11.9088 5.72233 11.5146 5.83853 11.2044 6.08524L9.23438 7.75412V11.9129L11.4871 13.817C11.7613 14.0498 12.1092 14.1778 12.469 14.178C12.5123 14.178 12.5556 14.178 12.5969 14.178C12.7956 14.1614 12.989 14.1057 13.166 14.014C13.3431 13.9223 13.5002 13.7964 13.6283 13.6437C13.7598 13.4907 13.8596 13.3133 13.9221 13.1216C13.9846 12.9298 14.0085 12.7276 13.9924 12.5266C13.9763 12.3256 13.9205 12.1297 13.8283 11.9504C13.736 11.7711 13.6092 11.6118 13.455 11.4818Z" fill="white"/>
</svg>
