<svg  viewBox="0 0 43 43" fill="none" xmlns="http://www.w3.org/2000/svg">
<rect width="43" height="43" rx="21.5" fill="#008EC5"/>
<path d="M25.292 21.0684C24.782 23.5162 23.6471 27.4042 23.6504 29.213C23.6587 31.0941 24.0221 32.0243 24.552 32.4223C24.795 32.6 25.088 32.6896 25.3854 32.6772C26.332 32.6772 27.0987 31.9537 27.0903 29.2009C27.0903 27.3904 25.8337 23.5162 25.302 21.0684" fill="#A7A9AC"/>
<path d="M25.3604 21.0696C25.8764 18.7063 27.0987 14.968 27.0903 13.2282C27.0803 10.5746 26.3089 9.88634 25.3587 9.88966C24.4086 9.89298 23.6405 10.5896 23.6505 13.2415C23.6588 14.9813 24.8194 18.7146 25.3571 21.068L25.3604 21.0696Z" fill="#A7A9AC"/>
<path d="M26.2285 23.6589C27.2183 25.905 28.5184 29.6701 29.5585 31.101C30.6388 32.5894 31.4692 33.1104 32.1301 33.1104C32.4278 33.1049 32.7156 33.0022 32.9504 32.8178C33.7204 32.2495 33.9335 31.2194 32.3465 29.0392C31.3065 27.6032 28.0671 25.2741 26.2336 23.6504" fill="#F15A21"/>
<path d="M26.2319 23.6478C25.2358 21.4061 23.9925 17.6157 22.9388 16.1913C21.3414 14.0237 20.2912 13.9144 19.5136 14.4794C18.7361 15.0445 18.5261 16.0703 20.1269 18.2413C21.1771 19.6639 24.377 22.03 26.2251 23.6495L26.2319 23.6478Z" fill="#F7941C"/>
<g style="mix-blend-mode:multiply">
<path d="M16.3398 19.3557C17.9966 21.118 20.4539 24.1872 21.884 25.1657C23.3727 26.1814 24.3038 26.3744 24.9055 26.1425C25.1762 26.0333 25.4052 25.8354 25.5577 25.5788C26.0665 24.7746 25.9116 23.7352 23.7347 22.2488C22.3014 21.2703 18.5673 20.2275 16.3496 19.3506" fill="#8DC63F"/>
</g>
<path d="M16.3402 19.3464C14.5955 17.5957 12.0659 14.4881 10.5629 13.5265C8.27146 12.0556 7.24145 12.3186 6.70501 13.116C6.16858 13.9135 6.33482 14.9421 8.62451 16.413C10.1293 17.3763 14.0025 18.4803 16.3368 19.3497L16.3402 19.3464Z" fill="white"/>
</svg>
