<svg width="21" height="20" viewBox="0 0 21 20" fill="none" xmlns="http://www.w3.org/2000/svg">
<rect x="0.015625" width="20" height="20" rx="10" fill="#0072BC"/>
<path d="M6.75938 7.9714L6.44826 7.62695C6.07049 8.2714 5.85938 9.02695 5.85938 9.79362H6.07049C6.07049 9.08251 6.31493 8.42695 6.75938 7.9714Z" fill="url(#paint0_linear_1141_49547)"/>
<path d="M6.70382 11.3171C6.31493 10.9505 6.07049 10.4505 6.07049 9.79492H5.85938C5.85938 10.5727 5.99271 11.2949 6.27049 11.9171L6.70382 11.3171Z" fill="url(#paint1_linear_1141_49547)"/>
<path d="M13.482 9.23828L13.082 9.64939C13.6265 9.6605 13.9709 10.0827 13.9598 10.6161H14.1709C14.1709 10.0938 13.9265 9.60495 13.482 9.23828Z" fill="url(#paint2_linear_1141_49547)"/>
<path d="M14.1686 10.627H13.9575C13.9464 11.0714 13.713 11.4381 13.1797 11.7158L13.7352 12.4825C14.013 11.9825 14.1686 11.3714 14.1686 10.627Z" fill="url(#paint3_linear_1141_49547)"/>
<path d="M6.98316 9.17153C6.97205 9.24931 6.96094 9.33819 6.96094 9.42708C6.96094 10.7049 7.90538 11.516 9.10538 11.516C11.3832 11.516 12.0609 9.66042 13.072 9.66042H13.0832L13.4832 9.24931C12.9943 8.84931 12.2609 8.59375 11.372 8.59375C9.57205 8.59375 8.60538 10.0938 7.79427 10.0938C7.43872 10.0938 7.16094 9.70486 7.16094 9.32708C7.16094 9.28264 7.16094 9.24931 7.17205 9.21597L6.98316 9.17153Z" fill="url(#paint4_linear_1141_49547)"/>
<path d="M8.39366 7.30521C9.70477 7.30521 10.627 8.30521 11.7937 8.30521C13.2048 8.30521 13.9826 7.61632 14.1714 6.28299L13.9603 6.24965C13.9048 6.60521 13.6714 7.02743 13.2603 7.02743C12.8714 7.02743 12.4492 6.68299 11.8492 6.34965C11.2492 6.00521 10.5492 5.67188 9.68255 5.67188C8.29366 5.67188 7.11589 6.4941 6.44922 7.63854L6.76033 7.98299C7.16033 7.56076 7.71589 7.30521 8.39366 7.30521Z" fill="url(#paint5_linear_1141_49547)"/>
<path d="M9.76953 12.2595C8.74731 12.2595 7.45842 12.0373 6.70286 11.3262L6.26953 11.9262C6.89175 13.3706 8.2362 14.3262 10.2473 14.3262C11.5695 14.3262 13.0362 13.8039 13.7473 12.4928L13.1918 11.7262C12.5362 12.0595 11.4362 12.2595 9.76953 12.2595Z" fill="url(#paint6_linear_1141_49547)"/>
<defs>
<linearGradient id="paint0_linear_1141_49547" x1="6.88352" y1="8.08552" x2="5.62012" y2="9.34894" gradientUnits="userSpaceOnUse">
<stop stop-color="#FDB913"/>
<stop offset="1" stop-color="#C4BF30"/>
</linearGradient>
<linearGradient id="paint1_linear_1141_49547" x1="5.63674" y1="10.3273" x2="6.71983" y2="11.4105" gradientUnits="userSpaceOnUse">
<stop stop-color="#C4BF30"/>
<stop offset="1" stop-color="#80C342"/>
</linearGradient>
<linearGradient id="paint2_linear_1141_49547" x1="13.3192" y1="9.52067" x2="14.2405" y2="10.442" gradientUnits="userSpaceOnUse">
<stop stop-color="#6DCFF6"/>
<stop offset="1" stop-color="#00BAC6"/>
</linearGradient>
<linearGradient id="paint3_linear_1141_49547" x1="14.3708" y1="11.0325" x2="13.4407" y2="11.9627" gradientUnits="userSpaceOnUse">
<stop stop-color="#00BAC6"/>
<stop offset="1" stop-color="#00A99D"/>
</linearGradient>
<linearGradient id="paint4_linear_1141_49547" x1="7.47127" y1="10.047" x2="13.1299" y2="10.047" gradientUnits="userSpaceOnUse">
<stop stop-color="#0072BC"/>
<stop offset="1" stop-color="#6DCFF6"/>
</linearGradient>
<linearGradient id="paint5_linear_1141_49547" x1="6.50382" y1="6.98434" x2="14.2312" y2="6.98434" gradientUnits="userSpaceOnUse">
<stop stop-color="#FDB913"/>
<stop offset="0.0391659" stop-color="#FDB515"/>
<stop offset="0.6977" stop-color="#F47D20"/>
<stop offset="1" stop-color="#F26522"/>
</linearGradient>
<linearGradient id="paint6_linear_1141_49547" x1="6.75671" y1="12.8191" x2="13.2426" y2="12.8191" gradientUnits="userSpaceOnUse">
<stop stop-color="#80C342"/>
<stop offset="1" stop-color="#00A99D"/>
</linearGradient>
</defs>
</svg>
