<svg  viewBox="0 0 43 43" fill="none" xmlns="http://www.w3.org/2000/svg">
<rect width="43" height="43" rx="21.5" fill="#014E9E"/>
<g clip-path="url(#clip0_356_17803)">
<path d="M30.3006 21.1193C29.9657 22.1077 29.6784 22.9575 29.391 23.8082C29.1784 24.4386 28.9697 25.0709 28.7532 25.7004C28.5775 26.2131 28.2153 26.5635 27.6649 26.5844C26.3727 26.6337 25.0728 26.723 23.7894 26.5445C22.2109 26.3242 21.3711 25.4896 21.1547 23.9487C21.0052 22.8881 21.0459 21.8276 21.5993 20.8535C22.1099 19.9553 22.9342 19.5242 23.9486 19.4872C24.9631 19.4502 25.9873 19.4796 27.0067 19.4682C27.4057 19.4682 27.4766 19.6287 27.3591 19.9714C27.2431 20.3205 27.0201 20.6262 26.7203 20.847C26.4206 21.0678 26.0585 21.1931 25.6835 21.2057C25.2952 21.2256 24.9068 21.1962 24.5185 21.2257C23.6991 21.2883 23.2866 21.708 23.2565 22.5074C23.2358 22.9505 23.243 23.3944 23.2778 23.8367C23.3419 24.5544 23.7069 24.881 24.4428 24.8991C24.9758 24.9152 25.5107 24.8791 26.0436 24.919C26.5456 24.957 26.7951 24.7776 26.9659 24.3057C27.4416 22.9945 27.9697 21.7013 28.4823 20.4025C28.7687 19.6761 29.0648 19.4844 29.8754 19.4768C31.6326 19.4597 31.6345 19.4587 32.2704 21.0529C32.7461 22.246 33.2189 23.4407 33.6888 24.637C33.7412 24.77 33.7917 24.9038 33.8305 25.0405C34.1072 26.0147 33.6858 26.5815 32.6471 26.6128C32.1461 26.628 31.6433 26.6309 31.1433 26.6128C30.2822 26.5749 29.6871 26.1324 29.4473 25.4194C29.3502 25.1108 29.4221 24.9731 29.7667 24.9798C30.2841 24.9883 30.8016 24.9798 31.32 24.9798C31.5142 24.9798 31.6481 24.9285 31.5685 24.7035C31.1647 23.5509 30.7569 22.4039 30.3006 21.1193Z" fill="white"/>
<path d="M12.7157 21.9446C13.1816 21.4034 13.702 20.9002 14.1029 20.3115C14.7563 19.3621 15.699 19.4153 16.6591 19.5017C17.0222 19.5339 17.0979 19.815 16.8299 20.1302C16.2416 20.8233 15.6291 21.4965 15.0272 22.1801C14.2321 23.082 14.3554 22.8058 15.0184 23.6099C15.6271 24.3477 16.2805 25.0502 16.9057 25.7766C17.0542 25.9494 17.3008 26.1193 17.1746 26.388C17.0416 26.6729 16.7377 26.5865 16.4882 26.6235C15.3233 26.7934 14.4592 26.3928 13.8437 25.3892C13.5273 24.8727 13.0846 24.4303 12.6992 23.9546L12.57 23.9935C12.57 24.586 12.57 25.1784 12.57 25.7709C12.5652 26.5115 12.4545 26.6178 11.6963 26.6254C10.2052 26.6358 10.3187 26.6843 10.3197 25.2962C10.3197 23.5872 10.3197 21.8781 10.3197 20.1691C10.3197 19.5681 10.409 19.4836 11.0197 19.476C11.3109 19.476 11.6021 19.4703 11.8934 19.476C12.4166 19.4855 12.5477 19.6051 12.5642 20.1254C12.5788 20.5679 12.5642 21.0113 12.571 21.4547C12.571 21.6075 12.5865 21.7604 12.5943 21.9123L12.7157 21.9446Z" fill="white"/>
<path d="M17.8897 21.3854C17.8897 20.4217 17.8839 19.458 17.8897 18.4943C17.8897 17.9578 17.9994 17.861 18.546 17.8525C18.8527 17.8487 19.1595 17.8487 19.4663 17.8525C20.0371 17.861 20.1527 17.9664 20.1565 18.5171C20.1633 19.6384 20.1565 20.7597 20.1565 21.8819C20.1565 22.7032 20.1624 23.5245 20.1565 24.3505C20.1565 24.868 20.0197 24.9923 19.4945 25.0056C19.1712 25.0132 18.8479 25.0056 18.5236 25.0056C18.0771 25.0151 17.88 24.81 17.8849 24.3704C17.8994 23.3754 17.8897 22.3804 17.8897 21.3854Z" fill="#F18D03"/>
<path d="M19.0544 14.6243C21.23 14.6243 23.1561 15.9858 23.7823 17.9683C23.9473 18.4895 23.9065 18.5095 23.359 18.557C22.793 18.6054 22.4775 18.4421 22.2134 17.8999C21.595 16.6343 20.4883 15.9934 19.0573 16.001C17.6264 16.0086 16.5633 16.6656 15.8983 17.917C15.5799 18.5133 15.1217 18.7136 14.4654 18.5399C14.1586 18.4582 14.2635 18.255 14.3188 18.0889C14.6916 16.9495 15.3615 16.0286 16.3983 15.3791C17.2099 14.8712 18.0894 14.5939 19.0544 14.6243Z" fill="#F18D03"/>
</g>
<defs>
<clipPath id="clip0_356_17803">
<rect width="23.5984" height="12.04" fill="white" transform="translate(10.3174 14.6201)"/>
</clipPath>
</defs>
</svg>
