<svg width="21" height="20" viewBox="0 0 21 20" fill="none" xmlns="http://www.w3.org/2000/svg">
<rect x="0.0703125" width="20" height="20" rx="10" fill="#E70012"/>
<path d="M10.0663 16.0807C9.17202 16.0772 8.29605 15.9562 7.44292 15.6821C6.81364 15.4799 6.2209 15.2036 5.6807 14.821C5.30039 14.5514 4.96234 14.2397 4.68481 13.8628C4.43927 13.5293 4.25768 13.1661 4.16403 12.7618C4.02698 12.1656 4.09207 11.59 4.34447 11.035C4.53748 10.6113 4.81729 10.2515 5.15306 9.93289C5.52309 9.58227 5.94338 9.30246 6.39678 9.06948C6.67773 8.92558 6.96896 8.80338 7.26818 8.69945C7.29445 8.69031 7.323 8.68232 7.35041 8.68003C7.41665 8.67661 7.47604 8.71886 7.49432 8.77939C7.51373 8.84335 7.48975 8.91302 7.43264 8.94956C7.41323 8.96098 7.39153 8.96898 7.37097 8.97811C6.85932 9.1894 6.38308 9.46121 5.96051 9.82097C5.6156 10.1145 5.32323 10.4537 5.10852 10.8545C4.94863 11.1526 4.84356 11.469 4.80359 11.8047C4.74306 12.3255 4.83557 12.8201 5.06855 13.2894C5.27184 13.6995 5.55736 14.0455 5.89884 14.347C6.3294 14.7285 6.81935 15.014 7.34813 15.2333C7.84607 15.44 8.36229 15.5793 8.8945 15.6627C9.36047 15.7358 9.82872 15.7655 10.2993 15.7506C11.2632 15.7198 12.1894 15.5256 13.0642 15.1111C13.5576 14.8781 14.0099 14.5811 14.4004 14.1963C14.7636 13.8388 15.0469 13.4288 15.2136 12.9434C15.3324 12.5962 15.3769 12.2399 15.3427 11.8744C15.2993 11.4119 15.1371 10.9916 14.8824 10.6056C14.606 10.1864 14.2497 9.84723 13.842 9.55943C13.5073 9.32416 13.1487 9.13344 12.7707 8.97811C12.7513 8.97012 12.7319 8.96327 12.7136 8.95299C12.6519 8.91873 12.6245 8.84906 12.6439 8.78168C12.6633 8.71658 12.7205 8.67546 12.7913 8.68003C12.8118 8.68117 12.8324 8.68574 12.8529 8.6926C13.4993 8.91644 14.1035 9.21909 14.646 9.64052C15.0092 9.92261 15.3267 10.2481 15.5768 10.6364C15.7903 10.9676 15.9411 11.3251 16.0073 11.7157C16.0919 12.2102 16.0382 12.6899 15.852 13.1547C15.6876 13.5693 15.4374 13.9279 15.1291 14.2476C14.7305 14.6622 14.2634 14.9843 13.754 15.247C13.175 15.545 12.564 15.7495 11.929 15.8877C11.5864 15.9619 11.2403 16.0133 10.892 16.0453C10.6179 16.0681 10.3427 16.0818 10.0663 16.0807Z" fill="white"/>
<path d="M11.873 4.80892C11.8685 5.08873 11.8159 5.36055 11.7405 5.62893C11.6971 5.78083 11.6458 5.93044 11.5715 6.06977C11.5338 6.14172 11.4893 6.21139 11.4425 6.27763C11.3431 6.41696 11.2049 6.48663 11.0325 6.48549C10.9582 6.48549 10.884 6.48663 10.8098 6.49234C10.6099 6.50833 10.4237 6.57457 10.2467 6.66594C10.0377 6.77329 9.84128 6.9012 9.66197 7.05196C9.34219 7.3192 8.88079 7.15018 8.72776 6.84182C8.65124 6.68764 8.60327 6.52318 8.56901 6.35529C8.53018 6.16457 8.50505 5.97156 8.52904 5.7774C8.54046 5.68604 8.5633 5.59467 8.58614 5.50445C8.59756 5.46333 8.6204 5.42336 8.64324 5.38681C8.69921 5.30002 8.78143 5.26575 8.88308 5.27261C8.9082 5.27375 8.93219 5.27717 8.95617 5.28288C9.06353 5.30573 9.15032 5.27032 9.22227 5.19038C9.26453 5.14355 9.29308 5.08759 9.31592 5.0282C9.34448 4.95397 9.37074 4.87745 9.40843 4.80778C9.44498 4.73926 9.49295 4.67758 9.53863 4.61477C9.57518 4.56566 9.62771 4.53825 9.68596 4.52455C9.831 4.48914 9.96919 4.50399 10.1005 4.57366C10.1679 4.60906 10.2364 4.63076 10.3141 4.61934C10.3746 4.6102 10.4283 4.58508 10.4717 4.5451C10.5322 4.49028 10.5893 4.43204 10.6442 4.37151C10.7184 4.29042 10.7846 4.20134 10.8611 4.12254C10.9091 4.07229 10.9662 4.02889 11.0267 3.99234C11.2175 3.87585 11.447 3.90212 11.6115 4.05515C11.6812 4.11911 11.7326 4.19677 11.7714 4.28243C11.8456 4.44917 11.8742 4.62619 11.873 4.80892Z" fill="white"/>
<path d="M11.5546 13.6132C11.5386 13.4888 11.5238 13.37 11.5078 13.2478C11.5672 13.2375 11.6232 13.2284 11.678 13.2169C11.9098 13.1678 12.1188 13.0753 12.2913 12.9086C12.3792 12.8229 12.45 12.7247 12.5048 12.6139C12.5094 12.6036 12.514 12.5934 12.5185 12.5819C12.5197 12.5785 12.5185 12.5751 12.5174 12.5648C12.2513 12.5648 11.9841 12.5648 11.71 12.5648C11.7374 12.4209 11.7636 12.2861 11.791 12.1457C12.0788 12.1457 12.3632 12.1457 12.6545 12.1457C12.6841 11.9778 12.7138 11.8145 12.7447 11.6432C12.4283 11.6432 12.1188 11.6432 11.8002 11.6432C11.8276 11.5015 11.8527 11.3691 11.8778 11.2343C11.8973 11.2331 11.9121 11.2309 11.927 11.2309C12.3689 11.2309 12.8098 11.2309 13.2518 11.2309C13.27 11.2309 13.2906 11.232 13.3077 11.2377C13.4002 11.2651 13.4482 11.3371 13.4345 11.433C13.4208 11.5324 13.4014 11.6317 13.3831 11.7311C13.3625 11.8476 13.3408 11.9629 13.3203 12.0794C13.3169 12.0977 13.3157 12.1171 13.3134 12.14C13.4071 12.14 13.4973 12.14 13.5944 12.14C13.6549 11.8282 13.7154 11.5152 13.7771 11.2012C13.9804 11.2012 14.1768 11.2012 14.3813 11.2012C14.3801 11.2194 14.3813 11.2354 14.3778 11.2514C14.3013 11.6374 14.2237 12.0235 14.146 12.4095C14.0569 12.8549 13.9678 13.3003 13.8788 13.7469C13.8765 13.756 13.8753 13.7651 13.873 13.7754C13.8582 13.8394 13.8365 13.8576 13.7703 13.8588C13.6846 13.8599 13.599 13.8588 13.5133 13.8588C13.4619 13.8588 13.4105 13.8588 13.3591 13.8588C13.294 13.8576 13.278 13.8382 13.2894 13.7743C13.3054 13.6886 13.3214 13.6018 13.3374 13.5162C13.3922 13.2204 13.4471 12.9257 13.5019 12.6299C13.5053 12.6116 13.5064 12.5922 13.5099 12.5705C13.4128 12.5705 13.318 12.5705 13.2198 12.5705C13.2152 12.5797 13.2072 12.5911 13.2027 12.6025C13.0176 13.0593 12.683 13.3528 12.2205 13.5059C12.0206 13.5721 11.8139 13.603 11.6049 13.6155C11.5912 13.6144 11.5752 13.6132 11.5546 13.6132Z" fill="white"/>
<path d="M10.5471 9.36926C10.5459 9.62623 10.4729 9.84322 10.3221 10.0305C10.1474 10.2487 9.92465 10.3937 9.65056 10.4554C9.5432 10.4794 9.43585 10.4816 9.32735 10.4588C9.1115 10.412 8.96873 10.2487 8.9379 10.0202C8.9162 9.85122 8.93676 9.68562 8.96759 9.52116C9.02698 9.20366 9.14918 8.91015 9.29423 8.62349C9.31707 8.57895 9.34105 8.53669 9.36047 8.49101C9.37531 8.45674 9.38788 8.41905 9.3913 8.38251C9.40044 8.29228 9.33077 8.24318 9.2474 8.27858C9.18573 8.30485 9.13776 8.34825 9.10464 8.40535C9.07495 8.45789 9.05096 8.51385 9.02584 8.56981C9.00186 8.62349 8.98244 8.67945 8.95731 8.73198C8.9379 8.77424 8.90706 8.8085 8.86252 8.82678C8.8077 8.84962 8.76088 8.84162 8.72433 8.7948C8.6992 8.76054 8.67865 8.72056 8.66266 8.67945C8.62383 8.5778 8.61012 8.46931 8.59756 8.36195C8.56558 8.10613 8.60099 7.85715 8.68664 7.61503C8.70377 7.56478 8.7289 7.51682 8.75288 7.46999C8.76545 7.44487 8.78258 7.42088 8.80199 7.40032C8.88879 7.30211 9.02356 7.3181 9.08409 7.43573C9.12748 7.52024 9.12977 7.61161 9.11264 7.70297C9.10464 7.74409 9.09208 7.78406 9.08523 7.82518C9.07381 7.90512 9.13205 7.9508 9.20857 7.92225C9.2337 7.91312 9.2554 7.89713 9.27824 7.88342C9.3125 7.86286 9.34448 7.83888 9.37988 7.82061C9.47924 7.76693 9.57975 7.76579 9.68139 7.81376C9.76134 7.85144 9.82986 7.90626 9.89153 7.96908C10.1131 8.19292 10.2753 8.45446 10.3963 8.7434C10.4683 8.91472 10.5197 9.0906 10.538 9.27561C10.5448 9.3133 10.5459 9.34985 10.5471 9.36926Z" fill="white"/>
<path d="M11.0478 11.2012C11.2499 11.2012 11.4487 11.2012 11.6531 11.2012C11.6417 11.2628 11.6314 11.3199 11.62 11.3771C11.4601 12.1742 11.3002 12.9725 11.1403 13.7697C11.1266 13.8382 11.1049 13.8554 11.0352 13.8554C10.9005 13.8554 10.7645 13.8554 10.6298 13.8554C10.5613 13.8554 10.5464 13.8371 10.559 13.7686C10.5761 13.6749 10.5944 13.5824 10.6127 13.4888C10.6161 13.4728 10.6172 13.4556 10.6195 13.4339C10.6058 13.4374 10.5967 13.4385 10.5898 13.4408C10.3865 13.5219 10.1741 13.5618 9.95938 13.5904C9.81548 13.6098 9.67158 13.6212 9.52654 13.6132C9.43403 13.6075 9.34038 13.5984 9.25015 13.5778C8.93837 13.5059 8.86299 13.2318 8.89268 13.0399C8.92238 12.8526 8.96349 12.6665 9.00004 12.4803C9.07884 12.0817 9.15765 11.682 9.23645 11.2834C9.23988 11.2651 9.24444 11.2469 9.25015 11.224C9.46258 11.224 9.67501 11.224 9.89314 11.224C9.88058 11.2857 9.8703 11.3451 9.85774 11.4033C9.75495 11.9047 9.65217 12.4049 9.55052 12.9063C9.52083 13.0513 9.5608 13.1187 9.70699 13.1496C9.79378 13.1678 9.88401 13.177 9.97309 13.1758C10.2095 13.1758 10.4368 13.121 10.6561 13.0354C10.6915 13.0216 10.7052 13.0011 10.7109 12.9657C10.8171 12.3981 10.9244 11.8293 11.0318 11.2617C11.0364 11.2423 11.0421 11.2229 11.0478 11.2012Z" fill="white"/>
<path d="M6.95601 11.2193C7.16501 11.2193 7.37401 11.2193 7.58416 11.2193C7.599 11.2193 7.61499 11.2193 7.62984 11.2193C7.7075 11.2238 7.74862 11.2695 7.73834 11.3472C7.7292 11.4134 7.71435 11.4785 7.70065 11.5436C7.57959 12.1478 7.45853 12.7508 7.33747 13.3549C7.3112 13.4851 7.23468 13.5685 7.10791 13.6051C7.08621 13.6119 7.06337 13.6131 7.04053 13.6131C6.70704 13.6131 6.3747 13.6142 6.04121 13.6131C5.89845 13.6131 5.78767 13.532 5.75912 13.4018C5.7477 13.3515 5.7477 13.2944 5.75684 13.2442C5.87218 12.6217 5.98982 12.0004 6.10745 11.378C6.12687 11.2741 6.19197 11.2193 6.29818 11.2193C6.5186 11.2181 6.73674 11.2193 6.95601 11.2193ZM6.86922 11.6441C6.84066 11.6441 6.81211 11.6441 6.78356 11.6441C6.71504 11.6441 6.71161 11.6475 6.69791 11.7149C6.61568 12.1089 6.5323 12.5041 6.45007 12.8981C6.43294 12.9781 6.41581 13.058 6.40097 13.138C6.39297 13.1779 6.40211 13.1893 6.43865 13.1905C6.51289 13.1916 6.58712 13.1916 6.66136 13.1905C6.68991 13.1905 6.70818 13.1768 6.71504 13.1482C6.71846 13.1357 6.72075 13.122 6.72417 13.1094C6.79955 12.7519 6.87379 12.3956 6.94802 12.0381C6.97086 11.9285 6.9937 11.8188 7.01654 11.7092C7.02797 11.6532 7.02225 11.6453 6.96629 11.6441C6.93432 11.6441 6.90119 11.6441 6.86922 11.6441Z" fill="white"/>
<path d="M8.02728 11.2031C8.23057 11.2031 8.42815 11.2031 8.63372 11.2031C8.58119 11.4806 8.52865 11.7547 8.47497 12.0368C8.60517 12.0368 8.72737 12.0368 8.85871 12.0368C8.83016 12.2093 8.7959 12.3715 8.76278 12.5416C8.63144 12.5416 8.5001 12.5416 8.36762 12.5416C8.34592 12.6467 8.3265 12.7449 8.30709 12.8431C8.24542 13.1526 8.18374 13.4621 8.12207 13.7717C8.10951 13.8356 8.08553 13.8562 8.02157 13.8562C7.88224 13.8562 7.74405 13.8573 7.60471 13.8562C7.54418 13.8562 7.52705 13.8356 7.53847 13.7739C7.63783 13.2509 7.73719 12.7278 7.83541 12.2047C7.89366 11.8941 7.95305 11.5846 8.01129 11.2739C8.01586 11.2511 8.02157 11.2294 8.02728 11.2031Z" fill="white"/>
<path d="M10.1367 7.5243C10.1367 7.29474 10.3172 7.10973 10.5467 7.10744C10.7774 7.10516 10.9636 7.29132 10.9636 7.52316C10.9636 7.75272 10.7797 7.93545 10.5501 7.93545C10.3206 7.93659 10.1379 7.755 10.1367 7.5243Z" fill="white"/>
</svg>
