<svg width="21" height="20" viewBox="0 0 21 20" fill="none" xmlns="http://www.w3.org/2000/svg">
<rect x="0.0703125" width="20" height="20" rx="10" fill="#CF3232"/>
<path d="M5.41487 9.47322C5.54472 9.47322 5.65121 9.36674 5.65121 9.23689V8.62138C5.65121 8.49152 5.54472 8.38504 5.41487 8.38504H5.28242V7.5254C5.28242 7.39554 5.17594 7.28906 5.04608 7.28906H4.35006C4.2202 7.28906 4.11372 7.39554 4.11372 7.5254V8.38504H4.03321C3.90336 8.38504 3.79688 8.49152 3.79688 8.62138V9.23689C3.79688 9.36674 3.90336 9.47322 4.03321 9.47322H4.11372V10.6653C4.11372 11.7015 4.97336 11.7457 4.97336 11.7457C4.97336 11.7457 5.25385 11.7846 5.40188 11.7743C5.57589 11.7639 5.63822 11.6678 5.63822 11.5379V10.9016C5.63822 10.7718 5.53174 10.6653 5.40188 10.6653C5.40188 10.6653 5.28242 10.6653 5.28242 10.5406V9.47322H5.41487Z" fill="white"/>
<path d="M8.46582 8.70282C8.51257 8.895 8.50738 9.01187 8.51517 9.1625C8.52036 9.27158 8.53854 9.40144 8.53854 9.40144C8.53854 9.40144 8.54893 9.31054 8.55672 9.20146C8.56451 9.06901 8.56971 8.90799 8.58529 8.81968C8.60607 8.69502 8.64243 8.57556 8.68138 8.50544C8.73073 8.41973 8.79566 8.36779 8.87876 8.36779H9.44753C9.5618 8.36779 9.6527 8.44311 9.70984 8.58335C9.75658 8.69502 9.77996 8.88721 9.78775 9.06641C9.79035 9.1625 9.81891 9.39624 9.81891 9.39624C9.81891 9.39624 9.83709 9.24821 9.83969 9.12874C9.85008 8.84046 9.87865 8.36519 10.1358 8.36519H10.676C10.8837 8.36519 10.9798 8.42493 11.0006 8.74177C11.0136 8.93915 10.972 9.40663 10.8811 9.89229C10.8266 10.191 10.7461 10.5026 10.6734 10.7727C10.4812 11.4843 10.4292 11.6064 10.3539 11.6713C10.2786 11.7388 10.25 11.7388 10.1306 11.7388H9.58258C9.43454 11.7388 9.36442 11.6272 9.32287 11.5233C9.21639 11.2454 9.15146 10.513 9.15146 10.513C9.15146 10.513 9.07095 11.2999 9.0242 11.4713C8.98005 11.6427 8.89954 11.7388 8.78007 11.7388H8.15937C8.01912 11.7388 7.93082 11.6453 7.89187 11.5285C7.85551 11.409 7.57242 10.5961 7.45555 9.95202C7.33609 9.30794 7.29973 9.00148 7.3231 8.72619C7.34647 8.45349 7.45296 8.34961 7.61657 8.34961H8.18014C8.31519 8.34961 8.40869 8.49764 8.45803 8.69762L8.46582 8.70282Z" fill="white"/>
<path d="M13.6827 10.9688C13.6827 10.8 13.6904 10.0573 13.6904 9.76119C13.6904 9.42097 13.6567 8.42888 12.6568 8.30162C12.1867 8.24189 11.8231 8.35096 11.5894 8.52757C11.3271 8.72754 11.2102 9.02881 11.1868 9.16905C11.1375 9.43136 11.2466 9.51966 11.4206 9.51966H11.9764C12.1296 9.51966 12.1478 9.47291 12.2179 9.37422C12.2984 9.25995 12.4205 9.25216 12.4906 9.29891C12.5218 9.31968 12.5347 9.36124 12.5347 9.41318C12.5347 9.45733 12.5295 9.52485 12.5295 9.52485C12.5295 9.52485 12.1815 9.56381 11.8413 9.70665C11.5972 9.81054 11.3816 9.97935 11.2414 10.2053C11.0492 10.5169 11.0206 10.8935 11.1297 11.226C11.2154 11.4857 11.3946 11.6753 11.592 11.748C11.9296 11.8726 12.2672 11.7921 12.436 11.6986C12.5373 11.6415 12.5867 11.5921 12.6256 11.5428C12.636 11.5298 12.6464 11.5194 12.6646 11.5194C12.701 11.5194 12.6932 11.5558 12.7347 11.6259C12.7763 11.696 12.8438 11.7454 12.9373 11.7454H13.4126C13.5814 11.7454 13.6749 11.6649 13.6853 11.4909C13.7008 11.2493 13.6853 11.1351 13.6853 10.9636L13.6827 10.9688ZM12.5581 10.6442C12.5581 10.6442 12.4854 10.7065 12.4101 10.7455C12.3685 10.7689 12.2049 10.8104 12.2127 10.6364C12.2205 10.4806 12.3503 10.3663 12.5581 10.3196V10.6442Z" fill="white"/>
<path d="M16.0446 10.1368C16.0031 10.303 15.8836 10.8406 15.7096 11.3211C15.494 11.9184 15.3148 12.3573 15.1746 12.5236C14.9798 12.7547 14.8292 12.83 14.6448 12.8612C14.4604 12.8923 14.2968 12.8794 14.1669 12.8794C13.9929 12.8794 13.8994 12.7677 13.8994 12.617V12.0145C13.8994 11.8379 13.9981 11.76 14.1332 11.76C14.2371 11.76 14.4111 11.7704 14.463 11.6795C14.5149 11.586 14.4786 11.3497 14.4214 11.0536C14.3669 10.7575 14.0501 9.72388 13.954 9.35769C13.8579 8.9915 13.7852 8.78113 13.7852 8.63829C13.7852 8.49545 13.8812 8.36559 14.0423 8.36559H14.5721C14.6578 8.36559 14.7175 8.35521 14.8058 8.4461C14.8941 8.5396 14.9305 8.78113 14.9824 9.03824C15.0188 9.21744 15.159 9.98619 15.159 9.98619C15.159 9.98619 15.224 8.82009 15.2395 8.69283C15.2733 8.44091 15.346 8.37339 15.5044 8.37339H16.1251C16.2472 8.37339 16.3615 8.43312 16.3433 8.6253C16.3173 8.86683 16.2134 9.46417 16.042 10.142L16.0446 10.1368Z" fill="white"/>
<path d="M6.25932 8.56827C6.29308 8.65657 6.34762 8.80461 6.13206 9.06951C5.98922 9.24352 5.86456 9.30325 5.86975 9.39155C5.87495 9.47985 6.11648 9.54998 6.21777 9.51621C6.48267 9.43311 6.86964 9.03315 7.04884 8.68514C7.1683 8.4566 7.20986 8.1813 7.19687 7.95795C7.18129 7.70344 7.10597 7.42814 6.88782 7.25674C6.59694 7.03079 6.28789 7.13727 6.19699 7.17882C6.00221 7.26712 5.88014 7.46191 5.84119 7.57358C5.78665 7.7372 5.79184 7.92159 5.8308 8.02548C5.97623 8.41245 6.21517 8.45919 6.25672 8.56567L6.25932 8.56827Z" fill="#86A642"/>
</svg>
