<svg width="20" height="20" viewBox="0 0 20 20" fill="none" xmlns="http://www.w3.org/2000/svg">
<rect width="20" height="20" rx="10" fill="#00A4E4"/>
<path d="M7.16397 4.50586H5.94085V5.24948H7.16397V14.3102C7.16397 14.6335 6.82648 14.8955 6.40935 14.8955C5.99221 14.8955 5.65472 14.6335 5.65472 14.3102V11.0412H4.92578V14.3102C4.92578 14.9458 5.58974 15.4631 6.40935 15.4631C7.22109 15.4631 7.87981 14.9574 7.89186 14.3301V4.50586H7.16397Z" fill="white"/>
<path d="M11.5796 9.94156L11.5765 9.94732V4.51562H10.8481V9.94732V9.94156C10.8481 10.3162 10.5106 10.6197 10.0935 10.6197C9.67633 10.6197 9.33832 10.3162 9.33832 9.94156L9.3357 9.94732V4.51562H8.60938V9.94732L8.61252 9.94156C8.61252 10.5652 9.08887 11.0866 9.73135 11.2328V15.5001H10.4603V11.2328C11.1038 11.0866 11.5796 10.5652 11.5796 9.94156Z" fill="white"/>
<path d="M15.074 5.51297C15.0609 5.31593 14.9561 4.5 14.1376 4.5C13.6659 4.5 13.2588 4.76202 12.958 5.045V4.5H12.2306V15.4991H12.9595V11.1779C13.1948 11.1726 14.0317 11.1375 14.4688 10.8745C14.9404 10.5925 15.0573 10.2225 15.074 9.73833V5.51245V5.51297ZM14.3404 9.65291C14.3404 9.65291 14.4059 10.2608 13.8504 10.3687C13.5564 10.4269 13.2587 10.4653 12.9595 10.4835V6.36454C12.9877 6.02369 13.1387 5.70467 13.3845 5.46686C13.8352 5.01566 14.3477 4.93338 14.3477 5.63141V9.65291H14.3404Z" fill="white"/>
</svg>
