<svg width="21" height="20" viewBox="0 0 21 20" fill="none" xmlns="http://www.w3.org/2000/svg">
<rect x="0.015625" width="20" height="20" rx="10" fill="#40BBCC"/>
<path d="M8.62571 17.3362C6.50944 16.7889 4.89912 14.8623 4.52452 13.0477C4.52209 13.0404 4.52452 13.0307 4.52452 13.0064C4.56587 13.0064 4.60966 13.0064 4.65101 13.0064C5.05237 13.0064 5.45373 13.0015 5.85509 13.0064C6.39268 13.0136 6.89864 12.8969 7.36811 12.6342C7.38514 12.6244 7.4046 12.6172 7.42892 12.6074C7.95191 12.948 8.48949 12.9869 9.04167 12.6707C9.04896 12.6658 9.05869 12.6585 9.06599 12.6536C9.07815 12.6439 9.09032 12.6342 9.10248 12.6244C9.12924 12.6244 9.15843 12.6244 9.18518 12.6244C9.27519 12.6707 9.36032 12.7266 9.45276 12.7655C9.9198 12.965 10.3649 12.9163 10.7931 12.6512L10.7906 12.6536C10.8028 12.6439 10.8174 12.6366 10.8296 12.6269C10.8563 12.6269 10.8855 12.6269 10.9123 12.6244C11.2333 12.8215 11.5739 12.9358 11.9582 12.8701C12.1674 12.8336 12.3596 12.7558 12.5396 12.6463C12.5566 12.6342 12.5737 12.622 12.5907 12.6099C12.6418 12.6317 12.6953 12.6536 12.7439 12.6804C13.1648 12.9018 13.6123 13.0064 14.0867 13.0088C14.5124 13.0088 14.938 13.0088 15.3637 13.0088C15.4075 13.0088 15.4513 13.0088 15.5072 13.0088C15.5024 13.0501 15.4975 13.0793 15.4927 13.1109C15.1497 14.6532 14.1937 15.9448 12.8899 16.7256C12.5226 16.9446 11.9534 17.2267 11.2163 17.3897C10.8417 17.4651 9.82493 17.6451 8.62571 17.3362Z" fill="white"/>
<path d="M15.6571 10.7727C15.212 10.7727 14.7668 10.7727 14.3266 10.7727C14.2803 10.6924 14.2901 10.6146 14.3071 10.5392C14.3144 10.5075 14.3533 10.4759 14.3849 10.4565C14.5893 10.3324 14.7936 10.2108 14.9979 10.0721C14.7717 10.0721 14.5479 10.0721 14.3241 10.0721C14.2852 9.96509 14.2901 9.87022 14.3168 9.77292C14.3533 9.77049 14.3801 9.76562 14.4093 9.76562C14.7887 9.76562 15.1706 9.76562 15.5501 9.76562C15.5866 9.76562 15.6231 9.77049 15.6596 9.77535C15.6596 9.86536 15.6596 9.95293 15.6596 10.0429C15.6279 10.0575 15.5939 10.0697 15.5623 10.0891C15.3798 10.1962 15.1998 10.3032 15.0198 10.4102C14.9979 10.4224 14.9785 10.4394 14.9347 10.471C15.0296 10.471 15.0977 10.471 15.1658 10.471C15.3312 10.4735 15.4966 10.4783 15.662 10.4808C15.6571 10.5781 15.6571 10.6754 15.6571 10.7727Z" fill="white"/>
<path d="M9.25997 2.52635C9.36213 2.57986 9.41078 2.6796 9.43024 2.72338C9.48619 2.84014 9.48376 2.94474 9.47889 2.99339C9.46916 3.07853 9.42781 3.1588 9.39132 3.2634C9.50079 3.40935 9.62728 3.57476 9.76836 3.76206C9.63457 3.78638 9.52268 3.80828 9.40592 3.83017C9.277 3.64043 9.15537 3.46043 9.04834 3.30232C9.08483 3.20015 9.13105 3.11988 9.14078 3.03717C9.16267 2.87176 9.07753 2.80365 8.89023 2.83771C8.92185 3.01042 8.95591 3.18312 8.98753 3.35583C9.01915 3.52611 9.05077 3.69638 9.07996 3.86666C8.9778 3.9299 8.90726 3.9445 8.75887 3.93233C8.6786 3.50421 8.59833 3.07366 8.51562 2.63581C8.56427 2.61878 8.63482 2.59689 8.72239 2.57257C8.99969 2.49716 9.13834 2.46067 9.25997 2.52635Z" fill="white"/>
<path d="M4.37109 7.48828C4.68975 7.49558 5.00841 7.49315 5.32463 7.51261C5.59707 7.52963 5.72356 7.67072 5.74302 7.94073C5.74789 8.021 5.74302 8.1037 5.72843 8.18154C5.69437 8.36398 5.56302 8.47831 5.36599 8.50507C5.28328 8.51723 5.19571 8.51966 5.11057 8.51966C4.86489 8.51723 4.61678 8.51236 4.37109 8.5075C4.37109 8.39317 4.37109 8.28128 4.37109 8.16695C4.6557 8.17425 4.94273 8.18154 5.22733 8.18641C5.25896 8.18641 5.29058 8.17911 5.3222 8.17181C5.41707 8.14749 5.44869 8.10857 5.44869 8.00884C5.44869 7.9091 5.42193 7.86532 5.32463 7.84586C5.24923 7.83126 5.17382 7.82883 5.09598 7.82397C4.85516 7.81424 4.61191 7.80937 4.37109 7.79964C4.37109 7.69748 4.37109 7.59288 4.37109 7.48828Z" fill="white"/>
<path d="M15.6597 8.82682C15.2705 8.94601 14.8789 9.0652 14.4897 9.1844C14.4362 9.20142 14.3827 9.21359 14.3243 9.23061C14.2878 9.11629 14.2902 9.00926 14.317 8.89736C14.3997 8.87304 14.48 8.84871 14.5529 8.82682C14.5529 8.70033 14.5529 8.58114 14.5529 8.45221C14.48 8.43032 14.3997 8.406 14.3097 8.37924C14.3097 8.27951 14.3097 8.18221 14.3097 8.07031C14.3535 8.07761 14.3827 8.08247 14.4118 8.08977C14.7937 8.20896 15.1756 8.32816 15.5575 8.44735C15.5916 8.45708 15.6257 8.45951 15.6597 8.46438C15.6597 8.58357 15.6597 8.70519 15.6597 8.82682ZM14.8132 8.51789C14.8132 8.60546 14.8132 8.67844 14.8132 8.76114C14.9689 8.72222 15.11 8.68573 15.2511 8.65168C15.2511 8.64438 15.2511 8.63952 15.2511 8.63222C15.1124 8.5933 14.9737 8.55924 14.8132 8.51789Z" fill="white"/>
<path d="M4.37109 10.2852C4.46596 10.2852 4.56083 10.2852 4.67516 10.2852C4.67516 10.4433 4.67516 10.5916 4.67516 10.7449C4.75056 10.7449 4.80894 10.7449 4.87948 10.7449C4.87948 10.6306 4.87948 10.5187 4.87948 10.3946C4.97922 10.3946 5.06922 10.3946 5.17382 10.3946C5.17382 10.5114 5.17382 10.6281 5.17382 10.7473C5.26625 10.7473 5.34652 10.7473 5.43653 10.7473C5.43653 10.5941 5.43653 10.4457 5.43653 10.2852C5.53869 10.2852 5.62626 10.2852 5.72356 10.2852C5.72356 10.5552 5.72356 10.8154 5.72356 11.0903C5.26868 11.0903 4.8211 11.0903 4.37353 11.0903C4.37109 10.8203 4.37109 10.5527 4.37109 10.2852Z" fill="white"/>
<path d="M15.6586 12.4499C15.6221 12.4353 15.5832 12.4256 15.5467 12.4086C15.3278 12.304 15.1089 12.1994 14.8924 12.0899C14.817 12.0534 14.744 12.034 14.6589 12.0388C14.547 12.0437 14.4327 12.0388 14.3086 12.0388C14.3086 11.9294 14.3086 11.8296 14.3086 11.7153C14.4205 11.7129 14.5227 11.708 14.6273 11.7129C14.7367 11.7202 14.834 11.691 14.9289 11.6423C15.1308 11.5402 15.3351 11.4429 15.5394 11.3456C15.5759 11.3285 15.6197 11.3188 15.6586 11.3066C15.6586 11.4283 15.6586 11.5499 15.6586 11.6715C15.4738 11.7031 15.3229 11.8102 15.1259 11.8831C15.3181 11.9634 15.4811 12.0315 15.644 12.0996C15.6465 12.0996 15.6538 12.0899 15.6586 12.0826C15.6586 12.2067 15.6586 12.3283 15.6586 12.4499Z" fill="white"/>
<path d="M4.37109 9.11846C4.41001 9.1136 4.45137 9.10387 4.49029 9.10143C4.76516 9.099 5.04003 9.099 5.31734 9.10143C5.36112 9.10143 5.40734 9.1063 5.45112 9.1136C5.59951 9.13549 5.69194 9.22549 5.72843 9.36658C5.76005 9.48577 5.75762 9.60496 5.72113 9.72172C5.6141 9.74605 5.55086 9.73875 5.44869 9.6901C5.45112 9.64631 5.45842 9.60253 5.45599 9.55874C5.45112 9.47847 5.41464 9.43712 5.3368 9.43469C5.12274 9.42982 4.90868 9.43225 4.68732 9.43225C4.68245 9.50036 4.68002 9.55874 4.67516 9.61956C4.60461 9.66577 4.52677 9.64631 4.45137 9.64631C4.42461 9.64631 4.40028 9.64875 4.37353 9.65118C4.37109 9.47361 4.37109 9.29603 4.37109 9.11846Z" fill="white"/>
<path d="M4.37109 11.7223C4.68975 11.7199 5.01084 11.7199 5.3295 11.715C5.65302 11.7077 5.75032 11.9096 5.75032 12.1553C5.75032 12.2137 5.73573 12.2745 5.726 12.3353C5.62383 12.367 5.53869 12.3402 5.44869 12.3086C5.45112 12.2648 5.45842 12.2234 5.45842 12.1845C5.45599 12.0921 5.4195 12.0483 5.32707 12.0459C5.11787 12.041 4.90868 12.0434 4.68975 12.0434C4.68489 12.1164 4.68002 12.1796 4.67516 12.2575C4.57056 12.2575 4.47083 12.2575 4.37109 12.2575C4.37109 12.0775 4.37109 11.8999 4.37109 11.7223Z" fill="white"/>
<path d="M9.06582 12.648C9.05853 12.6529 9.0488 12.6602 9.0415 12.6651C8.98555 12.6189 8.92717 12.6505 8.86879 12.6578C8.48202 12.7016 8.14147 12.5994 7.83984 12.3172C8.31418 11.9061 8.64743 11.4075 8.82257 10.8066C9.62286 10.8066 10.4134 10.8066 11.2113 10.8066C11.2502 10.9137 11.2818 11.0158 11.3232 11.118C11.5713 11.7213 11.9702 12.198 12.52 12.5459C12.5467 12.5629 12.5711 12.5848 12.5954 12.6043C12.5784 12.6164 12.5613 12.6286 12.5443 12.6407C12.5175 12.6383 12.4908 12.631 12.4665 12.6359C12.087 12.7113 11.7367 12.6553 11.4205 12.4218C11.3791 12.3902 11.3378 12.3586 11.2964 12.3245C11.1748 12.4072 11.058 12.4851 10.9413 12.5653C10.9267 12.5751 10.9243 12.5994 10.9145 12.6164C10.8878 12.6164 10.8586 12.6164 10.8318 12.6189C10.8197 12.6286 10.8051 12.6359 10.7929 12.6456L10.7953 12.6432C10.7442 12.6456 10.6907 12.6407 10.6396 12.648C10.2675 12.7089 9.93666 12.6189 9.64476 12.3853C9.618 12.3634 9.58638 12.3464 9.55962 12.3294C9.44772 12.4048 9.34313 12.4729 9.24339 12.5459C9.21907 12.5629 9.20691 12.5945 9.18988 12.6189C9.16312 12.6189 9.13393 12.6189 9.10717 12.6189C9.09015 12.6286 9.07799 12.6383 9.06582 12.648Z" fill="#263958"/>
<path d="M11.3899 8.50136C11.4434 8.44784 11.4969 8.39433 11.5504 8.34081C11.5553 8.34324 11.5602 8.34568 11.565 8.34811C11.5577 8.37243 11.5529 8.39676 11.5407 8.41622C11.3388 8.74947 11.2075 9.10705 11.1393 9.49138C11.1296 9.54003 11.1126 9.58868 11.0931 9.63733C11.0615 9.3357 11.008 9.03894 10.9083 8.74947C10.8377 8.54514 10.755 8.34811 10.6212 8.1754C10.5507 8.08297 10.4704 7.99296 10.378 7.92242C10.1518 7.74728 9.87688 7.75215 9.6458 7.91999C9.51201 8.01729 9.41471 8.14621 9.32957 8.28486C9.17146 8.54757 9.07416 8.83461 9.01335 9.13381C8.97443 9.32841 8.95254 9.52544 8.92335 9.72004C8.89659 9.57166 8.8747 9.41598 8.83578 9.26273C8.79442 9.10705 8.74334 8.95137 8.68253 8.80299C8.62172 8.6546 8.53901 8.51352 8.4709 8.37243C8.52198 8.37243 8.52198 8.37243 8.65334 8.49163C8.64118 8.45027 8.63145 8.40406 8.61442 8.36514C8.49279 8.09999 8.37117 7.83485 8.24954 7.57214C8.23495 7.54052 8.22279 7.50646 8.22765 7.46511C8.41009 7.69863 8.59009 7.93215 8.77253 8.1681C8.78226 8.16324 8.78956 8.16081 8.79929 8.15594C8.7555 7.97107 8.67523 7.79836 8.61685 7.62079C8.55604 7.44322 8.49036 7.26565 8.42712 7.08807C8.43685 7.08321 8.44414 7.07835 8.45387 7.07348C8.62901 7.34592 8.80172 7.62079 8.97686 7.89323C8.98416 7.8908 8.99389 7.88837 9.00119 7.8835C8.90875 7.48944 8.81388 7.09537 8.72145 6.69887C8.72875 6.69401 8.73604 6.68915 8.74577 6.68428C8.77983 6.7378 8.81388 6.79131 8.84551 6.84726C8.88199 6.9105 8.91848 6.97375 8.95497 7.03699C8.98902 7.09537 9.02551 7.15618 9.05957 7.21456C9.09605 7.27781 9.13254 7.34105 9.16903 7.4043C9.20308 7.46268 9.23714 7.52106 9.27119 7.57701C9.27849 7.57457 9.28579 7.57214 9.29552 7.56728C9.23227 7.18537 9.16903 6.80104 9.10822 6.41914C9.11551 6.41671 9.12281 6.41184 9.13254 6.40941C9.28092 6.74023 9.4293 7.07348 9.58012 7.4043C9.58498 7.40187 9.59228 7.39943 9.59715 7.39943C9.58012 7.01024 9.56066 6.6186 9.54363 6.2294C9.5485 6.2294 9.55336 6.22697 9.55823 6.22697C9.64823 6.58698 9.74066 6.94699 9.83067 7.307C9.91337 6.95185 9.94743 6.58698 10.0058 6.20508C10.0253 6.23913 10.0399 6.25616 10.0423 6.27562C10.0836 6.57239 10.1226 6.86915 10.1639 7.16591C10.1712 7.217 10.1809 7.27051 10.2053 7.32403C10.2904 6.98834 10.3755 6.65266 10.4607 6.31697C10.502 6.67212 10.4437 7.0224 10.4728 7.38241C10.6237 7.04672 10.772 6.71347 10.9229 6.37779C10.9277 6.38022 10.9326 6.38022 10.9375 6.38265C10.8718 6.78158 10.8085 7.17808 10.7429 7.57701C10.7502 7.57944 10.7574 7.58187 10.7647 7.5843C10.9399 7.28754 11.1126 6.98834 11.2877 6.69158C11.2975 6.69401 11.3072 6.69888 11.3145 6.70131C11.2196 7.10024 11.1272 7.49673 11.0323 7.89566C11.0396 7.8981 11.0469 7.90053 11.0542 7.90539C11.2294 7.63052 11.4045 7.35565 11.5796 7.08078C11.5894 7.08564 11.5991 7.09051 11.6088 7.09294C11.4823 7.44808 11.3558 7.80323 11.2294 8.15594C11.2366 8.16081 11.2464 8.16567 11.2537 8.17054C11.441 7.96134 11.5942 7.72539 11.7767 7.51376C11.784 7.51863 11.7913 7.52106 11.801 7.52592C11.7864 7.56241 11.7767 7.5989 11.7596 7.63295C11.6477 7.87864 11.5334 8.12432 11.4191 8.37243C11.4021 8.40892 11.3899 8.44784 11.3753 8.48433C11.368 8.49892 11.3607 8.51109 11.3558 8.52568C11.3607 8.52811 11.3631 8.53055 11.368 8.53298C11.3704 8.52082 11.3802 8.51109 11.3899 8.50136Z" fill="#E8816C"/>
<path d="M14.3475 5.56341C14.1943 5.5926 14.0386 5.62179 13.8756 5.65341C13.8318 5.59017 13.788 5.52935 13.7394 5.45881C13.8294 5.33476 13.9169 5.21556 14.0045 5.09394C13.9972 5.08907 13.9924 5.08664 13.9899 5.08421C13.9875 5.08178 13.9802 5.08178 13.9778 5.08178C13.7905 5.19367 13.6032 5.30556 13.4037 5.42476C13.3502 5.34448 13.2967 5.26421 13.2383 5.17664C13.6299 4.94069 14.0045 4.71447 14.3937 4.47852C14.457 4.57095 14.5153 4.65852 14.5762 4.75096C14.4351 4.94799 14.3013 5.13772 14.1505 5.34935C14.4083 5.32016 14.6321 5.24718 14.8778 5.21313C14.9313 5.2934 14.9848 5.37611 15.0432 5.46611C14.6783 5.73368 14.3256 5.99153 13.9753 6.24694C13.8829 6.1837 13.8464 6.13261 13.7905 5.98666C13.9778 5.85288 14.1675 5.71666 14.3597 5.58287C14.3548 5.578 14.3499 5.57071 14.3475 5.56341Z" fill="white"/>
<path d="M5.61744 5.64741C5.7342 5.55984 5.85096 5.54038 5.97989 5.59146C6.18178 5.67173 6.26449 5.82011 6.22557 6.03417C6.18665 6.24823 6.07475 6.43067 5.9507 6.62284C5.55177 6.43067 5.1577 6.24337 4.75391 6.04877C4.81715 5.83471 4.89013 5.62795 5.05067 5.47227C5.21122 5.31659 5.46663 5.3628 5.57852 5.5574C5.58825 5.58173 5.59798 5.60849 5.61744 5.64741ZM5.86313 6.22148C5.92151 6.13877 5.96286 6.05363 5.91421 5.95877C5.88502 5.90282 5.82421 5.86876 5.75853 5.88579C5.65636 5.91012 5.62231 6.00012 5.59069 6.09255C5.68555 6.13634 5.77312 6.17769 5.86313 6.22148ZM5.33284 5.97093C5.41311 5.84444 5.40825 5.77146 5.32554 5.72281C5.23554 5.67173 5.16257 5.71065 5.10419 5.8566C5.17716 5.89309 5.25257 5.92958 5.33284 5.97093Z" fill="white"/>
<path d="M12.7275 4.64709C12.3237 4.64466 12.0488 4.26033 12.1826 3.88086C12.2483 3.69355 12.3578 3.53544 12.5134 3.41138C12.7202 3.24597 12.9513 3.23868 13.1751 3.38706C13.4013 3.53544 13.4889 3.7495 13.4159 4.00491C13.3527 4.22384 13.2286 4.40628 13.0437 4.54493C12.9416 4.62034 12.8491 4.64709 12.7275 4.64709ZM13.1045 3.83707C13.1118 3.72518 13.0729 3.66436 12.9999 3.62301C12.9099 3.57193 12.8272 3.59382 12.7543 3.65463C12.6278 3.75923 12.5378 3.89302 12.4867 4.05113C12.4526 4.15573 12.4818 4.24087 12.5621 4.29681C12.6448 4.35519 12.7324 4.35519 12.8199 4.28465C12.9537 4.18005 13.0413 4.0414 13.0972 3.88086C13.1045 3.8614 13.1045 3.83464 13.1045 3.83707Z" fill="white"/>
<path d="M14.0131 7.1543C14.0204 7.19322 14.0253 7.21511 14.0326 7.24916C13.0255 7.32214 12.2374 7.76729 11.7411 8.65028C11.2498 9.52841 11.2473 10.4382 11.7363 11.3163C12.2276 12.2017 13.0158 12.6493 14.0277 12.7271C14.0253 12.7539 14.0204 12.7807 14.0155 12.822C13.0401 12.7539 12.2617 12.3428 11.7436 11.5206C11.1282 10.5452 11.1111 9.52598 11.6974 8.53109C12.2106 7.66512 13.0036 7.22727 14.0131 7.1543Z" fill="white"/>
<path d="M6.01946 12.8094C6.01216 12.7802 6.0073 12.7583 6 12.7243C6.91948 12.6635 7.66383 12.2791 8.17709 11.5129C8.69278 10.7466 8.80467 9.90501 8.47385 9.0439C8.04573 7.92739 7.19436 7.35332 6.00486 7.24386C6.00973 7.21953 6.01703 7.19034 6.02189 7.16602C7.39869 7.18791 8.76818 8.34578 8.74386 10.0315C8.71953 11.671 7.37436 12.7826 6.01946 12.8094Z" fill="white"/>
<path d="M8.30899 4.11439C8.06087 4.25304 7.83465 4.3771 7.60113 4.50845C7.3822 4.11439 7.16814 3.73248 6.94922 3.33599C7.17787 3.20706 7.40166 3.08301 7.64248 2.94922C7.69113 3.03436 7.73492 3.1122 7.786 3.19977C7.64735 3.28004 7.51842 3.35301 7.3822 3.43085C7.41383 3.48923 7.44545 3.54275 7.4795 3.60356C7.58653 3.54518 7.68627 3.49167 7.80059 3.42842C7.84681 3.51113 7.89303 3.58897 7.94411 3.67654C7.83222 3.74221 7.73248 3.80059 7.62545 3.86384C7.66681 3.93681 7.70573 4.00736 7.74951 4.08763C7.88816 4.01222 8.01952 3.94168 8.1679 3.86141C8.21412 3.94654 8.2579 4.02438 8.30899 4.11439Z" fill="white"/>
<path d="M6.73296 4.50019C6.64052 4.59749 6.56512 4.67776 6.49944 4.74587C6.55539 4.81641 6.60647 4.87966 6.65755 4.94534C6.77918 4.82858 6.88621 4.72641 7.0054 4.60965C7.06864 4.66803 7.13432 4.72884 7.20973 4.79939C7.01999 4.99885 6.83756 5.18858 6.65025 5.38805C6.3243 5.07669 6.00564 4.77263 5.67969 4.46127C5.86212 4.27153 6.0397 4.08423 6.22943 3.88477C6.30241 3.95288 6.36808 4.01369 6.44106 4.08423C6.3316 4.20099 6.22943 4.31045 6.1297 4.41505C6.18078 4.46127 6.22213 4.50262 6.27808 4.5537C6.35349 4.471 6.43376 4.38586 6.52133 4.29099C6.59674 4.3664 6.66242 4.43208 6.73296 4.50019Z" fill="white"/>
<path d="M14.179 7.05738C14.1546 6.94548 14.1352 6.84818 14.1133 6.74115C14.5584 6.64385 14.9865 6.55142 15.4195 6.45898C15.4925 6.64385 15.5412 6.82143 15.546 7.00873C15.5509 7.24225 15.4293 7.38577 15.1909 7.44658C14.9111 7.51469 14.7092 7.3955 14.6387 7.11819C14.6265 7.07197 14.6192 7.02576 14.6071 6.96981C14.466 6.999 14.3346 7.02576 14.179 7.05738ZM15.2347 6.82872C15.1106 6.85791 14.9938 6.88467 14.8771 6.909C14.8795 7.0063 14.9038 7.08657 14.9914 7.11576C15.0717 7.14252 15.1544 7.12549 15.2152 7.06468C15.2833 6.999 15.276 6.92116 15.2347 6.82872Z" fill="white"/>
<path d="M5.95312 7.53112C5.95556 7.50193 5.95799 7.4776 5.96042 7.45571C6.56611 7.40706 7.44668 7.75004 7.95264 8.46033C8.57293 9.33117 8.65077 10.2628 8.14481 11.2042C7.6875 12.0556 6.93829 12.4788 5.96772 12.5372C5.96285 12.4983 5.96042 12.4715 5.95556 12.4399C6.74369 12.4034 7.38587 12.0896 7.86264 11.4693C8.24211 10.978 8.40265 10.4136 8.35644 9.79577C8.26887 8.62574 7.32992 7.58707 5.95312 7.53112Z" fill="white"/>
<path d="M14.0701 7.44744C14.0726 7.47906 14.075 7.50096 14.075 7.52771C12.9974 7.61042 12.2263 8.12854 11.8201 9.14046C11.6328 9.6075 11.6206 10.094 11.7398 10.5854C11.9611 11.5 12.8125 12.4049 14.0677 12.4462C14.0677 12.4705 14.0677 12.4973 14.0677 12.5387C13.1798 12.4973 12.472 12.13 11.9928 11.3881C11.4333 10.5197 11.4114 9.60993 11.9174 8.70747C12.4112 7.82934 13.3306 7.43771 14.0701 7.44744Z" fill="white"/>
<path d="M11.8192 2.76928C11.773 2.84955 11.7292 2.92496 11.6878 2.99793C11.5978 2.96388 11.5224 2.92739 11.4422 2.9055C11.3108 2.86901 11.2013 2.91036 11.1284 3.02712C11.0481 3.15361 11.0165 3.2947 11.0335 3.44308C11.0457 3.55497 11.1162 3.63038 11.2184 3.662C11.3108 3.68876 11.4081 3.69363 11.52 3.71065C11.5492 3.78363 11.5443 3.87363 11.537 3.96363C11.2622 4.0512 10.8876 3.90769 10.7538 3.66687C10.6054 3.40173 10.6881 2.95658 10.9289 2.74009C11.1503 2.54062 11.5054 2.54549 11.8192 2.76928Z" fill="white"/>
<path d="M5.93065 7.80779C5.93065 7.78347 5.93065 7.76158 5.93065 7.72266C6.70905 7.74698 7.3342 8.05834 7.76961 8.69566C8.2926 9.46189 8.32666 10.2792 7.88637 11.0965C7.47042 11.8676 6.65553 12.2593 5.93551 12.2471C5.93308 12.2228 5.93065 12.196 5.92578 12.162C6.6385 12.1303 7.22717 11.853 7.65042 11.2814C8.07611 10.7073 8.20017 10.0603 7.98854 9.38162C7.67718 8.39159 6.96446 7.89293 5.93065 7.80779Z" fill="white"/>
<path d="M14.1034 7.7168C14.1034 7.76058 14.1034 7.78491 14.1034 7.81653C13.4004 7.84329 12.8239 8.12059 12.3958 8.67763C12.0576 9.11548 11.9214 9.61901 11.9628 10.1712C12.0285 11.0809 12.7606 12.0977 14.101 12.1634C14.101 12.1877 14.101 12.2145 14.101 12.2558C13.3371 12.2242 12.7144 11.925 12.2814 11.2999C11.7487 10.5336 11.7001 9.70901 12.1477 8.89169C12.5563 8.13275 13.2277 7.76058 14.1034 7.7168Z" fill="white"/>
<path d="M14.1186 8.0099C14.1211 8.03909 14.1211 8.06098 14.1235 8.09747C13.4789 8.12422 12.951 8.37964 12.5813 8.90992C12.2116 9.44021 12.1264 10.0289 12.3575 10.6321C12.6591 11.4251 13.2673 11.8216 14.1138 11.88C14.1162 11.8995 14.1211 11.9262 14.1259 11.9651C13.7027 11.97 13.3281 11.8484 12.9924 11.6149C12.2626 11.1065 11.961 10.1846 12.248 9.34534C12.5229 8.53045 13.3013 8.00017 14.1186 8.0099Z" fill="white"/>
<path d="M5.91649 8.09196C5.91649 8.06277 5.91649 8.03844 5.91649 8.00195C6.58786 8.02385 7.13274 8.28412 7.51708 8.829C7.98898 9.49794 8.03034 10.2155 7.64843 10.938C7.23491 11.7164 6.44191 11.9864 5.92379 11.9596C5.92136 11.9353 5.91893 11.911 5.91406 11.8745C6.54408 11.8526 7.0549 11.6045 7.42951 11.1034C7.70195 10.7385 7.82114 10.325 7.79438 9.87255C7.7433 9.02604 7.09139 8.15034 5.91649 8.09196Z" fill="white"/>
<path d="M14.1151 8.29223C14.1151 8.32142 14.1151 8.34575 14.1151 8.37737C13.5921 8.39683 13.1591 8.60116 12.8404 9.02198C12.5996 9.33821 12.4975 9.69822 12.5218 10.0923C12.5631 10.805 13.1396 11.5542 14.1126 11.5931C14.1151 11.6175 14.1175 11.6418 14.1224 11.6807C13.7064 11.6807 13.3464 11.5494 13.0326 11.2891C12.4683 10.8196 12.2737 10.0436 12.5388 9.36253C12.8331 8.60846 13.5678 8.26791 14.1151 8.29223Z" fill="white"/>
<path d="M5.91821 11.6775C5.91821 11.6483 5.91821 11.624 5.91821 11.5924C6.43634 11.5729 6.86202 11.3735 7.18068 10.9648C7.42393 10.6535 7.5261 10.2959 7.5115 9.89938C7.48961 9.24503 6.95932 8.42771 5.91821 8.37906C5.91821 8.35474 5.91821 8.32798 5.91821 8.28906C6.51904 8.30852 6.99824 8.55177 7.3242 9.048C7.70124 9.62694 7.71826 10.2375 7.38015 10.8408C7.03473 11.4562 6.38525 11.7019 5.91821 11.6775Z" fill="white"/>
<path d="M5.91989 11.4071C5.91502 11.3779 5.91016 11.3657 5.91016 11.3536C5.91016 11.3414 5.91502 11.3317 5.91745 11.3098C6.32368 11.2903 6.6691 11.1371 6.93181 10.8184C7.1337 10.5752 7.22857 10.2906 7.231 9.97678C7.23344 9.43433 6.84424 8.71917 5.91745 8.65593C5.91502 8.6316 5.91502 8.60728 5.91259 8.56836C6.42341 8.58295 6.82234 8.78972 7.09235 9.21054C7.40371 9.69461 7.41587 10.2054 7.12641 10.7041C6.86613 11.159 6.45017 11.3803 5.91989 11.4071Z" fill="white"/>
<path d="M14.1159 8.57227C14.1183 8.60632 14.1208 8.62821 14.1232 8.6647C13.6489 8.68659 13.2694 8.88119 13.0091 9.27769C12.8315 9.55013 12.7732 9.85176 12.8145 10.1728C12.8826 10.6958 13.3107 11.2699 14.111 11.3137C14.1135 11.338 14.1183 11.3623 14.1256 11.4061C13.6416 11.394 13.2524 11.2091 12.9775 10.8223C12.6321 10.3358 12.6029 9.81041 12.8948 9.28985C13.1551 8.82038 13.5735 8.58929 14.1159 8.57227Z" fill="white"/>
<path d="M14.116 8.86202C14.116 8.89121 14.116 8.91554 14.116 8.94716C13.7633 8.96905 13.4714 9.10527 13.2695 9.3996C13.07 9.68907 13.0214 10.0077 13.1454 10.3361C13.3084 10.7715 13.6392 10.9929 14.1063 11.0294C14.1111 11.0513 14.116 11.0756 14.1233 11.1145C13.8776 11.1267 13.6708 11.0537 13.4787 10.9248C13.0579 10.6402 12.8827 10.1075 13.0433 9.62826C13.2062 9.14176 13.6781 8.845 14.116 8.86202Z" fill="white"/>
<path d="M5.91406 8.94568C5.91649 8.91162 5.91893 8.88487 5.91893 8.86054C6.42975 8.83378 7.03544 9.2692 7.04517 9.9649C7.0549 10.7336 6.38353 11.1471 5.92136 11.1082C5.91893 11.0838 5.91649 11.0595 5.91406 11.023C6.24731 11.006 6.52462 10.882 6.72895 10.6192C6.8822 10.4246 6.95517 10.2009 6.94787 9.95274C6.93814 9.673 6.83355 9.43461 6.63165 9.23758C6.43705 9.05028 6.1938 8.96027 5.91406 8.94568Z" fill="white"/>
<path d="M10.0239 4.00781C10.0798 4.28512 10.1358 4.5381 10.1795 4.79351C10.1917 4.86162 10.1674 4.93703 10.1528 5.00757C10.1139 5.20947 10.0701 5.41136 10.0239 5.62786C10.0093 5.59867 9.99466 5.58164 9.9898 5.56461C9.94358 5.33839 9.89736 5.1146 9.85115 4.88838C9.84385 4.85432 9.84142 4.8154 9.84628 4.78135C9.8925 4.54296 9.94115 4.30701 9.9898 4.06862C9.9971 4.05403 10.0068 4.04187 10.0239 4.00781Z" fill="#E6806B"/>
<path d="M9.45818 5.67155C9.36331 5.4356 9.26601 5.20208 9.17114 4.96613C9.16628 4.95397 9.16141 4.9418 9.16141 4.93207C9.15168 4.66207 9.14195 4.39206 9.15411 4.11719C9.16384 4.13665 9.17601 4.15611 9.18574 4.17557C9.2806 4.38233 9.37547 4.58666 9.4679 4.79342C9.4825 4.82504 9.49953 4.86153 9.49953 4.89559C9.49709 5.15343 9.4898 5.41371 9.4825 5.67155C9.4752 5.67399 9.46547 5.67399 9.45818 5.67155Z" fill="#E57F6A"/>
<path d="M10.8986 4.12743C10.8889 4.39257 10.8816 4.66015 10.8719 4.92529C10.8719 4.93745 10.8694 4.94962 10.8646 4.96178C10.7673 5.20503 10.6675 5.44585 10.5508 5.68666C10.5484 5.53098 10.5557 5.3753 10.5386 5.22206C10.5119 4.97881 10.5581 4.75988 10.6748 4.54825C10.7381 4.43636 10.7843 4.31473 10.8378 4.19554C10.85 4.17122 10.8621 4.14932 10.8743 4.125C10.884 4.125 10.8913 4.12743 10.8986 4.12743Z" fill="#E6806B"/>
<path d="M8.96057 5.88326C8.85354 5.71785 8.76111 5.56217 8.65894 5.41378C8.55678 5.26783 8.4911 5.11215 8.45218 4.93945C8.41326 4.76187 8.35975 4.58917 8.32812 4.4043C8.34515 4.42132 8.36704 4.43592 8.38164 4.45538C8.51786 4.63052 8.65651 4.80566 8.7903 4.98566C8.81706 5.01972 8.83895 5.06107 8.84625 5.10242C8.89003 5.34567 8.92895 5.58892 8.96787 5.83217C8.96787 5.8419 8.96301 5.85407 8.96057 5.88326Z" fill="#E6806B"/>
<path d="M12.2229 6.97769C12.4005 6.77336 12.5659 6.58119 12.7362 6.39146C12.7556 6.36957 12.7848 6.34768 12.814 6.34038C13.0573 6.282 13.3005 6.22848 13.5438 6.17254C13.5511 6.17011 13.5583 6.17497 13.5681 6.1774C13.4294 6.36714 12.4832 6.93634 12.2229 6.97769Z" fill="#E6806B"/>
<path d="M11.7217 4.40982C11.6949 4.51199 11.6658 4.61172 11.6439 4.71389C11.5806 5.03741 11.4614 5.33174 11.262 5.59445C11.2157 5.65526 11.1793 5.72337 11.1355 5.78905C11.1209 5.80851 11.099 5.82554 11.0625 5.85959C11.1014 5.63094 11.1428 5.43147 11.1671 5.22958C11.1817 5.09336 11.2401 4.98633 11.3252 4.88416C11.4347 4.75281 11.5344 4.61659 11.639 4.4828C11.6609 4.45604 11.6828 4.42928 11.7071 4.40496C11.712 4.40253 11.7168 4.40739 11.7217 4.40982Z" fill="#E7816B"/>
<path d="M6.94531 5.45117C7.00369 5.4755 7.03775 5.48523 7.06937 5.50225C7.25181 5.58982 7.43424 5.67739 7.61425 5.76983C7.65074 5.78929 7.69209 5.81848 7.71398 5.85253C7.84047 6.0593 7.9621 6.26849 8.08615 6.48012C8.09345 6.49228 8.09345 6.50931 8.10075 6.52877C7.75047 6.34876 7.14964 5.79172 6.94531 5.45117Z" fill="#E7806B"/>
<path d="M11.543 6.1106C11.6111 5.92087 11.6865 5.73356 11.7449 5.54383C11.7838 5.41248 11.8568 5.31761 11.9662 5.23734C12.0951 5.14004 12.2168 5.03301 12.3433 4.93327C12.3725 4.90895 12.4041 4.88706 12.46 4.8457C12.2557 5.36383 11.9614 5.78221 11.543 6.1106Z" fill="#E7806B"/>
<path d="M13.0822 5.47063C12.8487 5.74794 12.6371 6.0447 12.3282 6.25146C12.2017 6.3366 12.0825 6.43147 11.9609 6.5239C11.9536 6.51904 11.9487 6.51417 11.9414 6.50688C11.9511 6.48498 11.9584 6.46066 11.9706 6.43877C12.0801 6.25146 12.1895 6.06173 12.3038 5.87443C12.3282 5.83551 12.3622 5.79659 12.4036 5.77469C12.6225 5.6628 12.8463 5.5582 13.0677 5.45117C13.0725 5.45847 13.0774 5.46577 13.0822 5.47063Z" fill="#E7806B"/>
<path d="M7.58299 4.85938C7.69975 4.95181 7.81408 5.04911 7.93814 5.13181C8.14976 5.2729 8.28841 5.45777 8.34679 5.70588C8.37355 5.82264 8.42707 5.93454 8.46842 6.04887C8.47572 6.07076 8.47815 6.09265 8.48545 6.13157C8.06219 5.78372 7.78489 5.35074 7.57812 4.86667L7.58299 4.85938Z" fill="#E7816B"/>
<path d="M6.4375 6.17383C6.48615 6.17869 6.5202 6.17869 6.55426 6.18599C6.76345 6.23221 6.97265 6.27843 7.17941 6.33194C7.2232 6.3441 7.27185 6.36599 7.30104 6.40005C7.45185 6.56546 7.59537 6.7333 7.74132 6.90357C7.75835 6.92303 7.76564 6.94736 7.78997 6.98871C7.28401 6.78925 6.85346 6.50951 6.4375 6.17383Z" fill="#E8816C"/>
<path d="M5.91989 10.8285C5.91989 10.8042 5.91745 10.7775 5.91502 10.7458C6.1607 10.7264 6.36747 10.6364 6.51342 10.4393C6.62531 10.291 6.67153 10.1231 6.65937 9.93825C6.63747 9.55391 6.3626 9.28877 5.91989 9.23039C5.91745 9.20607 5.91502 9.18174 5.91016 9.14769C6.08286 9.13066 6.22881 9.18417 6.3626 9.26931C6.68856 9.47121 6.83694 9.875 6.72261 10.2423C6.62045 10.5926 6.2799 10.8431 5.91989 10.8285Z" fill="white"/>
<path d="M8.50279 7.63656C8.36171 7.46385 8.22062 7.29358 8.08197 7.11844C7.86061 6.84113 7.63925 6.5614 7.39844 6.25977C7.44465 6.27679 7.47141 6.28166 7.49087 6.29382C7.66358 6.40815 7.83385 6.52248 8.00413 6.64167C8.03575 6.66356 8.06737 6.69518 8.0844 6.72924C8.23278 7.026 8.37873 7.32277 8.52468 7.62196C8.51739 7.62683 8.51009 7.63169 8.50279 7.63656Z" fill="#E6806B"/>
<path d="M12.6058 6.29677C12.2628 6.73462 11.915 7.1676 11.5696 7.60059C11.5574 7.61761 11.5331 7.62491 11.5039 7.62491C11.6547 7.32328 11.8031 7.02165 11.9539 6.72002C11.9661 6.6957 11.9855 6.67137 12.0074 6.65678C12.1972 6.52542 12.3869 6.39893 12.5791 6.26758C12.5864 6.27974 12.5961 6.28704 12.6058 6.29677Z" fill="#E57F6A"/>
<path d="M14.1194 10.752C14.117 10.7788 14.117 10.8031 14.1146 10.8323C13.92 10.8372 13.7545 10.7764 13.6037 10.6645C13.2997 10.4382 13.1853 10.0271 13.324 9.67444C13.4529 9.34605 13.791 9.11983 14.1121 9.14902C14.1121 9.17334 14.1121 9.2001 14.1121 9.22442C13.6183 9.31929 13.3653 9.57957 13.3678 9.99066C13.3702 10.3945 13.6232 10.6547 14.1194 10.752Z" fill="white"/>
<path d="M7.8764 5.75977C8.04911 5.92518 8.22182 6.09059 8.39209 6.256C8.41155 6.27546 8.42371 6.30222 8.43344 6.32897C8.53074 6.62087 8.62561 6.91277 8.72048 7.20468C8.72534 7.2217 8.72291 7.2436 8.72534 7.28495C8.40425 6.78385 8.10992 6.29248 7.85938 5.77679C7.86424 5.7695 7.86911 5.76463 7.8764 5.75977Z" fill="#E6806B"/>
<path d="M12.16 5.79142C12.0383 6.02494 11.924 6.2609 11.7951 6.48712C11.6662 6.71577 11.5227 6.9347 11.384 7.15849C11.3694 7.18281 11.3475 7.20227 11.3086 7.212C11.3816 6.98821 11.4594 6.76685 11.5251 6.54063C11.5762 6.36063 11.6589 6.20981 11.8048 6.08819C11.9216 5.99089 12.0262 5.87656 12.1381 5.76953C12.1454 5.77683 12.1527 5.78413 12.16 5.79142Z" fill="#E6806B"/>
<path d="M11.6204 5.38764C11.4963 5.91306 11.292 6.40686 11.0414 6.88363C11.0341 6.8812 11.0268 6.87877 11.0195 6.87633C11.0512 6.68417 11.0974 6.492 11.1144 6.29983C11.1363 6.05658 11.2336 5.85225 11.3844 5.66738C11.4598 5.57494 11.5231 5.47278 11.5936 5.37305C11.6033 5.37791 11.6131 5.38278 11.6204 5.38764Z" fill="#E57F6A"/>
<path d="M8.98953 6.8875C8.72682 6.3937 8.53466 5.89747 8.39844 5.36719C8.42033 5.37935 8.44709 5.38908 8.45925 5.40611C8.58574 5.58368 8.71223 5.76125 8.83629 5.94126C8.85088 5.96072 8.86061 5.98504 8.86548 6.00693C8.90926 6.26964 8.95305 6.53235 8.99683 6.79506C8.99683 6.81696 8.99197 6.83885 8.98953 6.8875Z" fill="#E57F6A"/>
<path d="M9.35628 6.62074C9.15682 6.1464 9.03276 5.62585 9.03519 5.05664C9.04249 5.07853 9.04979 5.10043 9.05952 5.12232C9.15195 5.32422 9.24439 5.52611 9.33439 5.72801C9.34899 5.75963 9.35385 5.79855 9.35628 5.83261C9.35628 6.10261 9.35628 6.37262 9.35628 6.62074Z" fill="#E47F6A"/>
<path d="M11.6875 8.02886C11.7994 7.84885 11.9113 7.66641 12.0232 7.48641C12.0937 7.37451 12.1472 7.24073 12.2421 7.15559C12.3345 7.07532 12.4732 7.04369 12.59 6.99261C12.6994 6.94396 12.8089 6.89774 12.9354 6.8418C12.9208 6.87342 12.9183 6.88801 12.911 6.89531C12.4805 7.25046 12.0816 7.63722 11.7118 8.05561C11.7045 8.04588 11.6972 8.03859 11.6875 8.02886Z" fill="#E57F6A"/>
<path d="M10.368 4.90574C10.385 5.15628 10.4044 5.40683 10.4166 5.65738C10.419 5.72792 10.3971 5.8009 10.385 5.87144C10.3436 6.0782 10.2998 6.28253 10.239 6.48929C10.222 6.33848 10.2147 6.18523 10.1855 6.03442C10.1369 5.77171 10.1758 5.52116 10.2536 5.27061C10.2925 5.14899 10.3169 5.0225 10.3485 4.89844C10.3534 4.90087 10.3607 4.9033 10.368 4.90574Z" fill="#E47F6A"/>
<path d="M8.30565 8.02694C8.20105 7.91991 8.09159 7.81774 7.99186 7.70585C7.76077 7.44557 7.4932 7.21935 7.23049 6.99313C7.18184 6.95177 7.13562 6.91042 7.10156 6.84961C7.11859 6.85447 7.13805 6.85691 7.15508 6.8642C7.34725 6.94934 7.53941 7.03205 7.73158 7.11962C7.76807 7.13664 7.80699 7.16827 7.82888 7.20232C7.99672 7.4699 8.16213 7.73747 8.32754 8.00748C8.32024 8.01721 8.31295 8.02207 8.30565 8.02694Z" fill="#E57F6A"/>
<path d="M10.6725 6.62133C10.6725 6.38537 10.6701 6.12753 10.6749 5.86968C10.6749 5.80644 10.6919 5.74076 10.7163 5.68481C10.7917 5.50967 10.8744 5.3394 10.9522 5.16669C10.9644 5.14236 10.9765 5.11804 10.9936 5.08398C11.052 5.35886 10.8257 6.38781 10.6725 6.62133Z" fill="#E6806B"/>
<path d="M9.68915 4.91016C9.74753 5.13638 9.80591 5.3626 9.86186 5.58882C9.87402 5.64234 9.87646 5.70072 9.87159 5.75667C9.85456 5.9537 9.8351 6.15073 9.81564 6.34777C9.81078 6.38669 9.80105 6.42317 9.77429 6.46209C9.72321 6.21884 9.67212 5.97316 9.62104 5.72991C9.61374 5.69829 9.61861 5.66666 9.62104 5.63261C9.63077 5.43801 9.64293 5.24584 9.6551 5.05124C9.65753 5.00502 9.66483 4.95637 9.66969 4.91016C9.67456 4.91016 9.68185 4.91016 9.68915 4.91016Z" fill="#E47F6A"/>
<path d="M14.1166 9.42383C14.1166 9.45545 14.1166 9.47734 14.1166 9.49924C13.7712 9.61356 13.6399 9.75708 13.6496 10.0003C13.6593 10.2436 13.8126 10.3968 14.1142 10.4649C14.1142 10.4868 14.1142 10.5087 14.1142 10.5403C14.0072 10.5622 13.9123 10.5184 13.8223 10.4674C13.6082 10.3384 13.5061 10.083 13.5693 9.83735C13.6326 9.59897 13.8418 9.43356 14.1166 9.42383Z" fill="white"/>
<path d="M5.92136 9.50632C5.91893 9.4893 5.91406 9.47713 5.91406 9.4674C5.91406 9.45524 5.91893 9.44551 5.92379 9.42605C6.03812 9.41389 6.13785 9.45281 6.22786 9.51362C6.43948 9.65227 6.53192 9.91985 6.45408 10.1631C6.39327 10.3553 6.17677 10.5669 5.91893 10.5426C5.91893 10.5182 5.91893 10.4915 5.91893 10.4672C6.22299 10.3991 6.3811 10.2361 6.38597 9.99039C6.3884 9.74714 6.23272 9.58416 5.92136 9.50632Z" fill="white"/>
<path d="M6.26172 6.97127C6.4174 6.97127 6.57308 6.981 6.72876 6.96884C6.89417 6.95668 7.02796 6.99803 7.14472 7.11479C7.19823 7.1683 7.26634 7.20966 7.32472 7.26074C7.34418 7.27777 7.35391 7.30209 7.36364 7.33128C7.01093 7.15371 6.64605 7.03452 6.26172 6.97127Z" fill="#E47F6A"/>
<path d="M12.6486 7.3038C12.7726 7.2065 12.8942 7.1092 13.0207 7.01433C13.0475 6.99487 13.084 6.97298 13.118 6.97298C13.3126 6.96812 13.5048 6.97055 13.6994 6.98514C13.5243 7.03136 13.3467 7.06785 13.174 7.12623C12.9988 7.18461 12.831 7.26001 12.6607 7.32812C12.6559 7.31839 12.651 7.3111 12.6486 7.3038Z" fill="#E47F6A"/>
<path d="M5.91406 10.2596C5.91406 10.2328 5.91406 10.2134 5.91406 10.1866C6.01136 10.1501 6.10623 10.1015 6.09406 9.97011C6.08433 9.86551 6.01136 9.8193 5.91406 9.79254C5.91406 9.76578 5.91406 9.74146 5.91406 9.70983C5.98217 9.69767 6.03569 9.72686 6.08433 9.76335C6.17677 9.83146 6.21569 9.95795 6.18407 10.0674C6.15244 10.1842 6.05758 10.2547 5.91406 10.2596Z" fill="white"/>
<path d="M14.12 10.2597C13.9546 10.2572 13.8452 10.1575 13.833 10.0091C13.8208 9.85346 13.923 9.7367 14.1054 9.70508C14.1103 9.7294 14.1152 9.75373 14.1225 9.78778C14.0154 9.8194 13.9303 9.87049 13.9303 9.99211C13.9303 10.0797 13.9814 10.1332 14.1127 10.1843C14.1152 10.2037 14.1176 10.2281 14.12 10.2597Z" fill="white"/>
<path d="M8.52189 7.62305C8.52433 7.64007 8.52676 7.65953 8.52676 7.67656C8.52189 7.67656 8.51703 7.67899 8.51216 7.67899C8.5073 7.6644 8.50486 7.65224 8.5 7.63764C8.50973 7.63278 8.51703 7.62791 8.52189 7.62305Z" fill="#E6806B"/>
<path d="M12.1406 5.76942C12.1479 5.75969 12.1552 5.74996 12.1601 5.74023C12.165 5.74267 12.1698 5.7451 12.1747 5.74753C12.1698 5.76213 12.165 5.77672 12.1601 5.78888C12.1552 5.78402 12.1479 5.77672 12.1406 5.76942Z" fill="#E6806B"/>
<path d="M8.32658 8.00977C8.32658 8.02193 8.32658 8.03409 8.32658 8.04382C8.31928 8.03652 8.31199 8.03166 8.30469 8.02436C8.31199 8.02193 8.31928 8.01706 8.32658 8.00977Z" fill="#E57F6A"/>
<path d="M6.93699 5.46186C6.93455 5.45943 6.93212 5.45943 6.92969 5.457C6.93212 5.45456 6.93455 5.4497 6.93699 5.44727C6.93942 5.4497 6.94428 5.45213 6.94428 5.45456C6.94428 5.457 6.93942 5.45943 6.93699 5.46186Z" fill="#E7806B"/>
<path d="M13.0625 5.45604C13.0722 5.4536 13.082 5.4536 13.0917 5.45117C13.0868 5.45847 13.082 5.46576 13.0795 5.47306C13.0747 5.4682 13.0698 5.4609 13.0625 5.45604Z" fill="#E7806B"/>
<path d="M7.86033 5.77333C7.8579 5.7636 7.8579 5.75387 7.85547 5.74414C7.86277 5.74901 7.87006 5.75387 7.87736 5.75873C7.87006 5.7636 7.8652 5.76846 7.86033 5.77333Z" fill="#E6806B"/>
<path d="M7.57223 4.8676C7.5698 4.8603 7.56493 4.853 7.5625 4.8457C7.5698 4.85057 7.57466 4.85543 7.58196 4.8603C7.57953 4.8603 7.57223 4.8676 7.57223 4.8676Z" fill="#E7816B"/>
<path d="M9.06641 12.6483C9.07857 12.6386 9.09073 12.6289 9.10289 12.6191C9.09073 12.6289 9.07857 12.6386 9.06641 12.6483Z" fill="#020202"/>
<path d="M10.7891 12.6459C10.8012 12.6362 10.8158 12.6289 10.828 12.6191C10.8158 12.6289 10.8037 12.6386 10.7891 12.6459Z" fill="#010304"/>
<path d="M11.3905 8.49993C11.3808 8.50966 11.371 8.51939 11.3637 8.52912C11.3589 8.52669 11.3564 8.52425 11.3516 8.52182C11.3589 8.50723 11.3662 8.49506 11.371 8.48047C11.3759 8.48777 11.3832 8.49263 11.3905 8.49993Z" fill="#020202"/>
</svg>
