<svg viewBox="0 0 21 21" fill="none" xmlns="http://www.w3.org/2000/svg">
<rect x="0.650391" y="0.376953" width="20" height="20" rx="10" fill="black"/>
<path d="M13.0948 5.62439L12.5811 7.51713L11.6851 7.3972L11.7943 5.36017L12.7922 5.47973L10.4817 4.37598L5.82422 6.94403L7.34498 8.08469C7.26195 7.93487 7.18297 7.74334 7.16489 7.53447C7.0885 6.75989 7.99852 6.00966 9.03696 5.73178C10.0754 5.4539 10.4957 6.09306 10.6658 6.55508C10.836 7.0171 10.6382 7.38871 10.468 7.6319C10.2979 7.87508 10.468 8.15997 10.468 8.15997L9.27314 8.8685C8.88751 8.29208 9.05431 7.9655 9.19675 7.65625C9.33919 7.34701 9.29749 6.79827 8.91998 6.85583C8.37677 6.98241 8.86315 7.66658 8.86315 7.66658L7.68227 8.33784L9.94034 10.0313L9.49529 9.24011L10.6692 8.53158L11.3393 9.72649L10.3647 10.3501L10.9504 10.7893L15.6392 6.84033L13.0948 5.62476V5.62439ZM12.4143 8.90799L11.4349 8.80392L11.5652 7.75146L12.5914 7.87139L12.4143 8.90799ZM13.3155 8.42346L13.452 7.82859C13.238 7.77176 13.08 7.57691 13.08 7.34516C13.08 7.06839 13.3044 6.84402 13.5812 6.84402C13.8579 6.84402 14.0823 7.06839 14.0823 7.34516C14.0823 7.48834 14.0221 7.61714 13.9258 7.70828H13.9266L13.3158 8.42346H13.3155Z" fill="url(#paint0_linear_914_39860)"/>
<path d="M10.8097 11.1326L10.7211 13.2582C10.7211 13.2582 11.7736 12.2685 11.888 12.164C12.0027 12.06 12.2684 11.9452 12.2684 12.3567C12.2684 12.7681 12.1227 13.1589 11.8987 13.4767C11.8987 13.4767 12.2426 13.3202 12.2112 13.763C12.1799 14.2059 12.1123 14.6694 11.2164 15.4927L10.5547 16.1075V16.3783L15.6395 12.9242L15.7591 11.6478L15.2277 12.1585L15.0088 11.5385L14.6546 12.6899L14.0553 13.242L14.7014 11.4238L14.3158 10.5798L15.0088 9.92331L15.1705 10.4599L15.5299 9.41258L16.0351 8.93838L16.155 7.49512L10.8097 11.1315V11.1326ZM14.3317 10.0853C14.29 10.851 14.0649 12.1164 13.1179 12.8205C12.3415 13.3848 12.4138 12.4246 12.4301 12.1537C12.4781 11.3655 12.753 10.4503 13.3888 9.80928C14.0243 9.16865 14.3734 9.31958 14.3317 10.0853Z" fill="url(#paint1_linear_914_39860)"/>
<path d="M15.7947 11.2735L15.9826 9.29883L15.498 10.6535L15.7947 11.2735Z" fill="url(#paint2_linear_914_39860)"/>
<path d="M11.6343 13.22C11.6671 12.9861 11.5103 12.9772 11.4656 13.0226C11.3737 13.1167 11.252 13.2422 11.252 13.2422V13.7684L11.4863 13.5444C11.4863 13.5444 11.6022 13.4463 11.6339 13.2197L11.6343 13.22Z" fill="url(#paint3_linear_914_39860)"/>
<path d="M11.1879 14.9436L11.4222 14.7196C11.4222 14.7196 11.5381 14.6214 11.5698 14.3948C11.6027 14.1609 11.4458 14.152 11.4012 14.1974C11.3093 14.2915 11.1875 14.417 11.1875 14.417V14.9432L11.1879 14.9436Z" fill="url(#paint4_linear_914_39860)"/>
<path d="M13.5226 10.411C13.4056 10.3907 13.2458 10.7464 13.1658 11.2055C13.0857 11.6646 13.1163 12.0535 13.2333 12.0738C13.3506 12.0941 13.5101 11.7384 13.5901 11.2793C13.6699 10.8202 13.6396 10.4313 13.5226 10.411Z" fill="url(#paint5_linear_914_39860)"/>
<path d="M6.58467 12.0496C6.70977 11.8204 5.96323 11.327 5.82227 10.834L5.93371 11.4857C6.12191 11.7458 6.49242 12.2186 6.58467 12.0496Z" fill="url(#paint6_linear_914_39860)"/>
<path d="M5.59902 9.61092C5.59902 9.61092 5.77947 9.29835 6.43265 9.90282L6.58543 10.639C6.58543 10.639 6.18245 10.1737 6.02967 10.3471C5.8769 10.5209 7.0301 11.4723 7.0301 12.1948C7.0301 12.9174 6.54373 12.6602 6.21751 12.3199L5.97137 11.6992L6.18282 12.9381L10.3366 15.932V11.2726L5.14844 6.88086L5.59902 9.61092ZM8.54422 10.7084L8.89147 12.0978L8.84977 10.8405L9.32914 11.0143L9.74577 12.5354L9.6834 11.1601L10.1834 11.3476V13.6399L9.6 13.3134L9.20404 11.8199L9.23873 13.0982L8.80807 12.8691C8.80807 12.8691 9.43652 14.4677 8.84977 14.4529C8.26302 14.4381 7.81465 13.1886 7.96079 12.5842C8.10655 11.9797 8.66932 12.6048 8.67633 12.6259L8.12759 10.5626L8.54422 10.7084ZM6.6965 9.07583L6.99505 10.0622L7.27993 10.1526L7.05077 9.21495L7.60652 9.40721L8.26634 11.9863L7.74232 11.6944L7.49545 10.8748L7.21056 10.7361L7.43972 11.5697L6.93969 11.3059L6.23116 8.90755L6.6965 9.07583Z" fill="url(#paint7_linear_914_39860)"/>
<path d="M8.3527 12.8142C8.2896 12.8301 8.30215 13.098 8.38075 13.4128C8.45935 13.7276 8.57486 13.97 8.63796 13.9541C8.70106 13.9383 8.68852 13.6704 8.60991 13.3556C8.53131 13.0408 8.41581 12.7983 8.3527 12.8142Z" fill="url(#paint8_linear_914_39860)"/>
<defs>
<linearGradient id="paint0_linear_914_39860" x1="8.39375" y1="8.86149" x2="12.9158" y2="5.52734" gradientUnits="userSpaceOnUse">
<stop stop-color="#F85600"/>
<stop offset="1" stop-color="#FDBC00"/>
</linearGradient>
<linearGradient id="paint1_linear_914_39860" x1="10.7573" y1="13.6693" x2="15.9462" y2="10.21" gradientUnits="userSpaceOnUse">
<stop stop-color="#F85600"/>
<stop offset="1" stop-color="#FDBC00"/>
</linearGradient>
<linearGradient id="paint2_linear_914_39860" x1="10.4697" y1="14.094" x2="15.8671" y2="10.3011" gradientUnits="userSpaceOnUse">
<stop stop-color="#F85600"/>
<stop offset="1" stop-color="#FDBC00"/>
</linearGradient>
<linearGradient id="paint3_linear_914_39860" x1="10.4353" y1="14.0444" x2="15.8327" y2="10.2516" gradientUnits="userSpaceOnUse">
<stop stop-color="#F85600"/>
<stop offset="1" stop-color="#FDBC00"/>
</linearGradient>
<linearGradient id="paint4_linear_914_39860" x1="10.9668" y1="14.8004" x2="16.3642" y2="11.0076" gradientUnits="userSpaceOnUse">
<stop stop-color="#F85600"/>
<stop offset="1" stop-color="#FDBC00"/>
</linearGradient>
<linearGradient id="paint5_linear_914_39860" x1="10.0899" y1="13.5529" x2="15.4873" y2="9.76002" gradientUnits="userSpaceOnUse">
<stop stop-color="#F85600"/>
<stop offset="1" stop-color="#FDBC00"/>
</linearGradient>
<linearGradient id="paint6_linear_914_39860" x1="9.72804" y1="14.2696" x2="4.58086" y2="10.2269" gradientUnits="userSpaceOnUse">
<stop stop-color="#F85600"/>
<stop offset="1" stop-color="#FDBC00"/>
</linearGradient>
<linearGradient id="paint7_linear_914_39860" x1="10.296" y1="13.5466" x2="5.14881" y2="9.5039" gradientUnits="userSpaceOnUse">
<stop stop-color="#F85600"/>
<stop offset="1" stop-color="#FDBC00"/>
</linearGradient>
<linearGradient id="paint8_linear_914_39860" x1="9.68821" y1="14.3209" x2="4.54066" y2="10.2783" gradientUnits="userSpaceOnUse">
<stop stop-color="#F85600"/>
<stop offset="1" stop-color="#FDBC00"/>
</linearGradient>
</defs>
</svg>
