<svg viewBox="0 0 43 43" fill="none" xmlns="http://www.w3.org/2000/svg">
<rect width="43" height="43" rx="21.5" fill="#ED1B23"/>
<path d="M31.9198 17.6091C31.7473 17.5218 31.5592 17.4693 31.3664 17.4547C31.1736 17.4401 30.9797 17.4637 30.796 17.524C30.6123 17.5843 30.4422 17.6802 30.2956 17.8063C30.1489 17.9324 30.0286 18.0861 29.9414 18.2587L26.8795 24.3203L23.7047 18.2004C23.5249 17.8537 23.2146 17.5927 22.8423 17.4747C22.47 17.3568 22.066 17.3916 21.7194 17.5715C21.3727 17.7513 21.1117 18.0616 20.9937 18.4339C20.8758 18.8062 20.9106 19.2101 21.0905 19.5568L22.1219 21.5443H19.3676C18.9769 21.5443 18.6022 21.6995 18.3259 21.9758C18.0497 22.252 17.8945 22.6267 17.8945 23.0174C17.8945 23.4081 18.0497 23.7828 18.3259 24.0591C18.6022 24.3353 18.9769 24.4905 19.3676 24.4905H20.8099C20.5508 24.9494 20.1752 25.3318 19.7211 25.5991C19.2669 25.8664 18.7503 26.0091 18.2233 26.0129C17.6964 26.0167 17.1777 25.8813 16.7198 25.6205C16.2619 25.3597 15.8809 24.9827 15.6152 24.5276C15.3496 24.0725 15.2088 23.5553 15.2069 23.0283C15.2051 22.5014 15.3424 21.9832 15.6048 21.5263C15.8673 21.0693 16.2457 20.6897 16.7018 20.4257C17.1579 20.1618 17.6756 20.0228 18.2026 20.0229C18.5931 20.0229 18.9677 19.8678 19.2438 19.5916C19.52 19.3155 19.6751 18.9409 19.6751 18.5503C19.6751 18.1598 19.52 17.7852 19.2438 17.5091C18.9677 17.2329 18.5931 17.0778 18.2026 17.0778C16.6274 17.0778 15.1168 17.7035 14.003 18.8173C12.8891 19.9311 12.2634 21.4417 12.2634 23.0169C12.2637 23.2373 12.2761 23.4575 12.3005 23.6766C12.2921 23.7036 12.2825 23.7296 12.2756 23.7582C12.1369 24.3014 11.8486 24.7947 11.4434 25.182C11.0382 25.5694 10.5325 25.8354 9.98368 25.9496C9.43488 26.0638 8.86504 26.0218 8.33896 25.8282C7.81287 25.6347 7.35164 25.2974 7.00773 24.8547C6.66381 24.4121 6.451 23.8818 6.3935 23.3242C6.336 22.7666 6.43611 22.204 6.68245 21.7005C6.92879 21.197 7.31147 20.7726 7.78699 20.4758C8.26251 20.179 8.81177 20.0215 9.37233 20.0213C9.76289 20.0213 10.1374 19.8662 10.4136 19.59C10.6898 19.3139 10.8449 18.9393 10.8449 18.5488C10.8449 18.1582 10.6898 17.7836 10.4136 17.5075C10.1374 17.2313 9.76289 17.0762 9.37233 17.0762C8.38288 17.0771 7.40932 17.3251 6.54009 17.7979C5.67087 18.2706 4.93352 18.953 4.39504 19.7831C3.85655 20.6132 3.53399 21.5647 3.45665 22.5511C3.37931 23.5375 3.54964 24.5276 3.95218 25.4315C4.35472 26.3354 4.9767 27.1244 5.76163 27.7268C6.54656 28.3292 7.46956 28.726 8.44679 28.881C9.42402 29.0361 10.4245 28.9446 11.3574 28.6148C12.2902 28.2849 13.1259 27.7273 13.7885 26.9924C14.4849 27.7668 15.3728 28.3444 16.3629 28.6673C17.3531 28.9902 18.4107 29.0471 19.4298 28.8322C20.4488 28.6173 21.3935 28.1383 22.1689 27.443C22.9444 26.7478 23.5234 25.8609 23.8479 24.8713L25.5904 28.2327C25.7143 28.4727 25.9019 28.674 26.1327 28.8143C26.3635 28.9546 26.6285 29.0286 26.8986 29.0281H26.9055C27.1771 29.0267 27.443 28.95 27.6736 28.8066C27.9043 28.6632 28.0907 28.4587 28.2121 28.2158L32.57 19.5892C32.6575 19.4165 32.7101 19.2283 32.7248 19.0353C32.7395 18.8422 32.716 18.6482 32.6556 18.4643C32.5952 18.2804 32.4991 18.1102 32.3729 17.9634C32.2466 17.8167 32.0927 17.6963 31.9198 17.6091Z" fill="white"/>
<path d="M35.7902 18.4C35.7901 18.522 35.7415 18.6389 35.6552 18.7251C35.5689 18.8113 35.4519 18.8597 35.33 18.8597V18.8597C35.2695 18.8599 35.2096 18.8481 35.1537 18.825C35.0978 18.802 35.047 18.7682 35.0042 18.7254C34.9614 18.6827 34.9274 18.632 34.9042 18.5762C34.8811 18.5203 34.8691 18.4604 34.8691 18.4V17.8236C34.8691 17.7631 34.8809 17.7031 34.9041 17.6472C34.9272 17.5913 34.9612 17.5405 35.004 17.4978C35.0468 17.455 35.0976 17.4211 35.1536 17.398C35.2095 17.3749 35.2694 17.3631 35.33 17.3633C35.3904 17.3633 35.4503 17.3752 35.5061 17.3983C35.5619 17.4215 35.6127 17.4554 35.6554 17.4981C35.6982 17.5408 35.7321 17.5916 35.7552 17.6474C35.7783 17.7033 35.7902 17.7631 35.7902 17.8236V18.4Z" fill="white"/>
<path d="M33.5524 17.4201C33.506 17.4589 33.4677 17.5065 33.4398 17.5601C33.4118 17.6137 33.3947 17.6723 33.3894 17.7326C33.3842 17.7928 33.3908 17.8535 33.4091 17.9112C33.4273 17.9688 33.4567 18.0223 33.4956 18.0686C33.5344 18.115 33.5819 18.1533 33.6354 18.1813C33.6889 18.2093 33.7475 18.2265 33.8077 18.2318C33.8678 18.2372 33.9285 18.2307 33.9861 18.2126C34.0438 18.1945 34.0973 18.1652 34.1436 18.1264L34.6856 17.6836C34.7792 17.6052 34.8379 17.4927 34.8486 17.371C34.8593 17.2492 34.8213 17.1282 34.7428 17.0346V17.0346C34.704 16.9883 34.6564 16.9501 34.6028 16.9221C34.5492 16.8942 34.4906 16.8771 34.4303 16.8719C34.3701 16.8666 34.3094 16.8732 34.2518 16.8914C34.1941 16.9096 34.1406 16.939 34.0943 16.9778L33.5524 17.4201Z" fill="white"/>
<path d="M33.495 15.5285C33.4392 15.5053 33.3794 15.4933 33.319 15.4932C33.2586 15.4931 33.1988 15.5049 33.1429 15.5279C33.0871 15.551 33.0363 15.5848 32.9935 15.6275C32.9508 15.6702 32.9168 15.7209 32.8937 15.7767V15.7767C32.8704 15.8326 32.8584 15.8925 32.8584 15.953C32.8584 16.0136 32.8703 16.0736 32.8935 16.1295C32.9167 16.1854 32.9507 16.2362 32.9936 16.2789C33.0365 16.3217 33.0874 16.3555 33.1434 16.3785L33.976 16.7253C34.0318 16.7485 34.0917 16.7605 34.1522 16.7606C34.2127 16.7607 34.2726 16.7488 34.3284 16.7257C34.3843 16.7026 34.4351 16.6687 34.4779 16.626C34.5207 16.5832 34.5547 16.5325 34.5778 16.4766V16.4766C34.6011 16.4209 34.6131 16.3611 34.6132 16.3007C34.6134 16.2403 34.6016 16.1805 34.5786 16.1246C34.5556 16.0688 34.5218 16.018 34.4792 15.9753C34.4366 15.9325 34.386 15.8985 34.3302 15.8753L33.495 15.5285Z" fill="#F7941C"/>
<path d="M34.7696 14.2397C34.7442 14.1848 34.7083 14.1354 34.6639 14.0945C34.6195 14.0535 34.5674 14.0217 34.5106 14.0008C34.4539 13.98 34.3936 13.9706 34.3332 13.973C34.2728 13.9755 34.2135 13.9899 34.1587 14.0154V14.0154C34.048 14.0667 33.9621 14.1598 33.92 14.2743C33.8778 14.3888 33.8828 14.5154 33.9339 14.6262L34.3968 15.6868C34.4484 15.7975 34.5418 15.8832 34.6565 15.9252C34.7712 15.9671 34.8979 15.9619 35.0087 15.9106V15.9106C35.0636 15.8852 35.1128 15.8492 35.1538 15.8048C35.1947 15.7603 35.2265 15.7083 35.2472 15.6515C35.268 15.5948 35.2774 15.5345 35.2749 15.4741C35.2724 15.4138 35.258 15.3545 35.2325 15.2997L34.7696 14.2397Z" fill="white"/>
<path d="M37.1458 17.4201C37.1922 17.4589 37.2305 17.5064 37.2585 17.56C37.2865 17.6136 37.3037 17.6722 37.309 17.7324C37.3144 17.7926 37.3079 17.8533 37.2898 17.911C37.2717 17.9687 37.2424 18.0222 37.2036 18.0686V18.0686C37.1253 18.1622 37.013 18.2208 36.8915 18.2316C36.77 18.2425 36.6492 18.2046 36.5556 18.1264L36.0131 17.6836C35.9193 17.6053 35.8604 17.4929 35.8495 17.3712C35.8386 17.2495 35.8764 17.1284 35.9548 17.0346V17.0346C35.9936 16.9883 36.0412 16.9501 36.0948 16.9221C36.1485 16.8942 36.2071 16.8771 36.2673 16.8719C36.3275 16.8666 36.3882 16.8732 36.4458 16.8914C36.5035 16.9096 36.557 16.939 36.6033 16.9778L37.1458 17.4201Z" fill="#F7941C"/>
<path d="M37.2007 15.5285C37.2565 15.5053 37.3164 15.4933 37.3768 15.4932C37.4373 15.4931 37.4972 15.5049 37.553 15.5279C37.6089 15.551 37.6597 15.5848 37.7026 15.6275C37.7454 15.6702 37.7794 15.7209 37.8026 15.7767V15.7767C37.8258 15.8325 37.8378 15.8923 37.8379 15.9528C37.838 16.0132 37.8262 16.0731 37.8032 16.129C37.7801 16.1849 37.7463 16.2357 37.7036 16.2785C37.6609 16.3213 37.6102 16.3553 37.5544 16.3785L36.7197 16.7253C36.6639 16.7486 36.6041 16.7605 36.5437 16.7606C36.4832 16.7606 36.4234 16.7488 36.3675 16.7257C36.3117 16.7026 36.2609 16.6687 36.2182 16.626C36.1754 16.5832 36.1415 16.5325 36.1184 16.4766V16.4766C36.0952 16.4209 36.0831 16.3611 36.083 16.3007C36.0829 16.2403 36.0946 16.1805 36.1176 16.1247C36.1406 16.0688 36.1744 16.0181 36.217 15.9753C36.2597 15.9325 36.3103 15.8985 36.366 15.8753L37.2007 15.5285Z" fill="white"/>
<path d="M35.9272 14.2401C35.9525 14.1851 35.9885 14.1356 36.033 14.0945C36.0775 14.0535 36.1297 14.0216 36.1865 14.0007C36.2434 13.9799 36.3038 13.9705 36.3643 13.9731C36.4248 13.9756 36.4842 13.9902 36.5391 14.0158C36.594 14.0411 36.6433 14.077 36.6843 14.1214C36.7253 14.1659 36.7572 14.2179 36.778 14.2746C36.7989 14.3314 36.8084 14.3916 36.806 14.452C36.8036 14.5124 36.7893 14.5718 36.7639 14.6266L36.3005 15.6872C36.2495 15.7979 36.1566 15.8839 36.0423 15.9264C35.928 15.9688 35.8016 15.9642 35.6907 15.9136C35.5799 15.8623 35.4941 15.7692 35.452 15.6546C35.41 15.5401 35.4151 15.4135 35.4664 15.3027L35.9272 14.2401Z" fill="#F7941C"/>
</svg>
