<svg  viewBox="0 0 43 43" fill="none" xmlns="http://www.w3.org/2000/svg">
<path d="M21.5 43C33.3741 43 43 33.3741 43 21.5C43 9.62588 33.3741 0 21.5 0C9.62588 0 0 9.62588 0 21.5C0 33.3741 9.62588 43 21.5 43Z" fill="#202124"/>
<path d="M21.5042 27.3556C23.0998 27.3556 24.3933 24.734 24.3933 21.5001C24.3933 18.2661 23.0998 15.6445 21.5042 15.6445C19.9087 15.6445 18.6152 18.2661 18.6152 21.5001C18.6152 24.734 19.9087 27.3556 21.5042 27.3556Z" fill="#EB6008"/>
<path d="M18.6131 21.5C18.6122 20.3732 18.8718 19.2608 19.3722 18.2467C19.8726 17.2325 20.6008 16.343 21.5021 15.645C20.381 14.7738 19.0325 14.2304 17.6112 14.077C16.1898 13.9236 14.7532 14.1664 13.466 14.7776C12.1788 15.3888 11.0932 16.3436 10.3335 17.5327C9.57383 18.7217 9.1709 20.0968 9.1709 21.5003C9.1709 22.9037 9.57383 24.2788 10.3335 25.4679C11.0932 26.6569 12.1788 27.6117 13.466 28.2229C14.7532 28.8341 16.1898 29.077 17.6112 28.9235C19.0325 28.7701 20.381 28.2267 21.5021 27.3556C20.6008 26.6575 19.8726 25.7678 19.3722 24.7536C18.8718 23.7394 18.6122 22.6269 18.6131 21.5V21.5Z" fill="#E30C16"/>
<path d="M26.2235 14.0322C24.5094 14.0305 22.8455 14.5996 21.5039 15.6466C22.4045 16.3453 23.1322 17.235 23.6326 18.2491C24.1329 19.2631 24.3928 20.3752 24.3928 21.5019C24.3928 22.6286 24.1329 23.7407 23.6326 24.7548C23.1322 25.7689 22.4045 26.6586 21.5039 27.3572C22.4559 28.0959 23.5741 28.6003 24.7652 28.8283C25.9563 29.0563 27.1857 29.0014 28.3507 28.668C29.5158 28.3347 30.5827 27.7326 31.4623 26.912C32.342 26.0915 33.0089 25.0763 33.4074 23.9513C33.8059 22.8262 33.9244 21.6239 33.753 20.4447C33.5816 19.2655 33.1253 18.1437 32.4222 17.1729C31.7191 16.2021 30.7895 15.4105 29.7112 14.8641C28.6329 14.3177 27.437 14.0325 26.2235 14.0322V14.0322Z" fill="#F69F00"/>
</svg>
