<svg viewBox="0 0 43 43" fill="none" xmlns="http://www.w3.org/2000/svg">
<path d="M21.5 43C33.3741 43 43 33.3741 43 21.5C43 9.62588 33.3741 0 21.5 0C9.62588 0 0 9.62588 0 21.5C0 33.3741 9.62588 43 21.5 43Z" fill="#221F20"/>
<path fill-rule="evenodd" clip-rule="evenodd" d="M11.5194 17.4714C9.6548 19.6612 7.86694 22.377 7.84876 24.4067C7.8422 25.1707 8.08556 25.8371 8.67074 26.3425C9.51242 27.0696 10.4379 27.3261 11.3624 27.3276C12.711 27.3276 14.05 26.7853 15.0987 26.3683C16.8658 25.6614 36.3839 17.1856 36.3839 17.1856C36.5722 17.0917 36.5353 16.9736 36.3011 17.0341C36.2061 17.0579 15.0512 22.79 15.0512 22.79C14.6506 22.9033 14.2366 22.9626 13.8202 22.9663C12.1945 22.9758 10.7474 22.0731 10.759 20.1716C10.7641 19.4274 10.9918 18.5302 11.5194 17.4744V17.4714Z" fill="white"/>
</svg>
