<svg  viewBox="0 0 43 43" fill="none" xmlns="http://www.w3.org/2000/svg">
<rect width="43" height="43" rx="21.5" fill="#193989"/>
<path d="M27.542 29.0687L26.3771 30.2432L25.2446 29.0767L24.634 27.2618L22.8988 26.6624L22.8955 25.5322L21.767 25.5356L21.1718 28.4034L21.7824 30.2587L19.1263 31.4373L18.3162 30.2702L18.8764 29.0969L18.8724 27.8457L17.1393 27.8517L14.85 30.2809L13.1155 29.7219L13.1068 27.3001L10.0826 26.8252L7.91018 28.0031L6.61841 27.442L6.61035 24.9806L7.77717 24.4108L12.4048 22.0953L13.0914 22.6583L14.8198 20.9173L14.8157 19.7865L17.105 17.4784L18.2665 15.0122L19.9895 12.141L22.8498 11.5665L24.0186 11.5625L24.022 12.6927L26.3274 14.986L26.3348 17.4481L29.934 20.8676L33.4076 23.1965L35.1421 23.7562L35.7527 25.4898L38.0541 26.6133L36.8886 27.7865L35.7608 27.7905L35.7567 26.6207L34.0216 26.0603L31.1103 23.2046L28.8089 22.0415L26.3389 18.579L25.207 17.4515L25.7652 15.5934L24.026 13.8632L22.8606 14.9967L22.8686 17.4596L21.7441 18.5938L24.0489 20.8864L22.8841 22.0603L25.2291 24.3536L25.2332 25.5241L26.3691 27.8208L27.5379 27.8174L28.8236 26.6429L28.2177 26.0798L27.5265 24.3462L28.8163 24.3422L29.9522 26.6395L31.125 27.806L27.542 29.0687Z" fill="white"/>
</svg>
