<svg  viewBox="0 0 43 43" fill="none" xmlns="http://www.w3.org/2000/svg">
<rect width="43" height="43" rx="21.5" fill="#007042"/>
<rect x="4" y="4" width="34" height="34" rx="17" fill="white"/>
<path d="M22.7195 11.2983C22.1531 11.201 21.5797 11.151 21.005 11.1486C20.4332 11.1502 19.8626 11.2003 19.2992 11.2983C19.2836 11.3024 19.2671 11.301 19.2524 11.2943C19.2377 11.2876 19.2258 11.2761 19.2186 11.2617C19.2114 11.2472 19.2093 11.2307 19.2128 11.215C19.2163 11.1992 19.225 11.1851 19.2377 11.175C19.2992 11.175 20.9962 9.83657 20.9962 9.83657C20.9962 9.83657 22.702 11.1398 22.7547 11.175C22.8075 11.2103 22.7987 11.3159 22.7195 11.2983ZM19.774 19.7342C19.7484 19.7424 19.7249 19.7562 19.7052 19.7744C19.6855 19.7927 19.6699 19.815 19.6597 19.8399C20.0114 20.1129 20.2576 20.7205 21.005 20.7205C21.7524 20.7205 21.9986 20.0953 22.359 19.8399C22.3474 19.8144 22.3303 19.7918 22.3091 19.7735C22.2878 19.7553 22.2629 19.7419 22.236 19.7342C21.8303 19.8115 21.4178 19.847 21.005 19.8399C20.5922 19.8461 20.1798 19.8107 19.774 19.7342V19.7342ZM21.005 18.6775C20.8027 18.6775 20.75 18.5983 20.6093 18.5983C20.4381 18.6077 20.2772 18.6835 20.1609 18.8096C20.1605 18.8349 20.1659 18.8598 20.1765 18.8827C20.1872 18.9056 20.2029 18.9258 20.2224 18.9417C20.5214 18.9417 20.6533 19.153 21.005 19.153C21.3567 19.153 21.4886 18.9857 21.7875 18.9417C21.8071 18.9258 21.8228 18.9056 21.8334 18.8827C21.8441 18.8598 21.8494 18.8349 21.8491 18.8096C21.7327 18.6835 21.5719 18.6077 21.4007 18.5983C21.26 18.6071 21.2072 18.6775 21.005 18.6775V18.6775ZM37.9924 21.9004C37.9924 22.3055 37.9308 22.7106 37.8781 23.1068C35.9525 23.4238 35.2403 21.7067 33.2883 21.7948C33.4119 22.2168 33.5088 22.6462 33.5785 23.0804C35.2051 23.0804 35.8646 24.595 37.6671 24.3748C37.5703 24.8415 37.4648 25.2994 37.3329 25.7485C35.8997 25.8982 35.3898 24.4717 33.7367 24.5069C33.7367 24.7447 33.7367 24.9824 33.7367 25.229C33.7367 25.4756 33.7367 25.4932 33.7367 25.6164C35.1436 25.6164 35.6008 26.9109 36.946 26.8492C36.7849 27.3048 36.6001 27.7516 36.3921 28.1877C35.4249 28.1437 35.0908 26.9021 33.6224 26.9989C33.5697 27.3159 33.5257 27.633 33.4466 27.9412C34.7303 27.8531 35.0029 29.0243 35.9173 29.1211C35.6887 29.5438 35.4337 30.0017 35.1699 30.3627C34.6424 30.0545 34.1764 29.174 33.13 29.174C33.2356 28.8481 33.3235 28.5135 33.4026 28.1789C32.351 28.1608 31.3442 27.7493 30.5802 27.0254C30.8615 25.4139 28.3556 23.7672 28.3556 22.6225C28.3556 21.4777 29.0063 20.6236 29.0063 18.8889C28.9592 17.5228 28.4004 16.2245 27.4412 15.2521C27.2652 15.0723 27.0673 14.9155 26.8521 14.7854C27.79 15.839 28.3311 17.1876 28.382 18.5983C28.382 20.2273 27.6258 21.0903 27.6258 22.5961C27.6258 24.1019 29.824 25.4051 29.824 26.9549C29.7579 27.8069 29.4699 28.6267 28.9887 29.3325C29.8089 30.196 30.9091 30.7392 32.0925 30.8647C32.1986 30.8783 32.3062 30.8563 32.3985 30.8021C32.4908 30.7479 32.5625 30.6646 32.6025 30.5653L32.8399 30.0105C33.7191 30.0105 34.1412 30.8911 34.5984 31.1817C34.3258 31.5515 34.0445 31.9037 33.7191 32.2472C33.3655 31.7295 32.8669 31.3281 32.2859 31.0936C32.1716 31.3138 32.0485 31.5427 31.9167 31.7628C32.4347 31.9901 32.8705 32.3713 33.1652 32.8548C32.837 33.1894 32.5028 33.5064 32.1629 33.8058C31.9239 33.4134 31.6066 33.0746 31.2308 32.8107C31.0901 33.0045 30.9407 33.1894 30.7912 33.3655C31.1145 33.6207 31.3836 33.938 31.5825 34.2989C31.1869 34.6247 30.7648 34.9241 30.334 35.1795C30.123 33.4183 27.7665 32.2648 28.3996 30.2571C28.132 30.6517 27.9742 31.1107 27.9424 31.5867C27.9424 33.0397 29.4899 34.2285 29.613 35.6286C29.2964 35.8223 28.9711 36.0072 28.637 36.1745C28.5755 34.5895 26.94 32.8548 26.94 31.5515C26.94 30.0986 28.8392 28.6368 28.8392 26.9197C28.8392 25.2026 26.6499 24.0138 26.6499 22.5168C26.6499 21.0198 27.5819 20.1393 27.5819 18.2108C27.5725 17.5 27.416 16.7989 27.1224 16.1518C26.8289 15.5046 26.4045 14.9254 25.8761 14.4508C25.7017 14.2903 25.5065 14.154 25.2958 14.0457C26.2897 15.0829 26.8442 16.4651 26.8433 17.9026C26.8433 19.7166 25.7706 20.7205 25.7706 22.508C25.7706 24.2956 27.9248 25.273 27.9248 26.9109C27.9248 28.5488 25.9201 29.9665 25.9201 31.666C25.9201 33.2158 27.6786 34.7656 27.6786 36.606C27.3005 36.7733 26.9048 36.923 26.5004 37.0727C26.729 35.2059 24.7419 33.295 24.7419 31.7893C24.7419 30.125 26.8169 28.7073 26.8169 26.9197C26.8169 25.1321 24.7067 24.278 24.7067 22.5168C24.7067 20.7557 26.0959 19.5933 26.0959 17.568C26.0933 16.8184 25.9191 16.0794 25.5869 15.4078C25.2546 14.7361 24.773 14.1497 24.1791 13.6935C24.1791 13.6935 24.1791 13.6935 24.1088 13.6318C24.0384 13.5702 23.9153 13.6318 23.9945 13.7463C24.8265 14.7276 25.2679 15.9817 25.2342 17.2686C25.2342 19.1178 23.7395 20.6324 23.7395 22.42C23.7395 24.5421 25.7354 25.1497 25.7354 26.8845C25.7354 28.6192 23.5988 30.0545 23.5988 31.8685C23.5988 33.5768 25.6299 35.4789 25.2782 37.4514C24.8737 37.557 24.4605 37.6451 24.0472 37.7243C24.4253 35.2675 22.4382 33.5064 22.4382 31.8949C22.4382 30.1338 24.6539 28.5928 24.6539 26.8933C24.6539 25.1938 23.0625 24.7623 22.8954 23.1244C22.8914 23.07 22.876 23.0171 22.8501 22.9691C22.8243 22.9211 22.7886 22.8791 22.7455 22.8459C22.7023 22.8126 22.6526 22.7889 22.5997 22.7762C22.5467 22.7635 22.4917 22.7621 22.4382 22.7722C21.9895 22.9253 21.5222 23.0171 21.0489 23.0452C20.5757 23.0171 20.1084 22.9253 19.6597 22.7722C19.6062 22.7621 19.5512 22.7635 19.4982 22.7762C19.4453 22.7889 19.3956 22.8126 19.3524 22.8459C19.3093 22.8791 19.2736 22.9211 19.2478 22.9691C19.2219 23.0171 19.2065 23.07 19.2025 23.1244C18.9915 24.7623 17.444 25.2906 17.444 26.8933C17.444 28.4959 19.6597 30.1514 19.6597 31.8949C19.6597 33.5064 17.6726 35.2675 18.0594 37.7243C17.6374 37.6451 17.2241 37.557 16.8197 37.4514C16.468 35.4789 18.4991 33.5768 18.4991 31.8685C18.4991 30.0193 16.3537 28.628 16.3537 26.8933C16.3537 25.1585 18.3496 24.5509 18.3496 22.4288C18.3496 20.6676 16.8636 19.1266 16.8636 17.2774C16.8267 15.9915 17.2651 14.7373 18.0946 13.7551C18.1737 13.6671 18.0946 13.5702 17.9803 13.6406C17.866 13.7111 17.9276 13.6406 17.91 13.7023C17.3161 14.1585 16.8345 14.7449 16.5022 15.4166C16.17 16.0882 15.9958 16.8272 15.9932 17.5768C15.9932 19.6021 17.2857 20.6148 17.2857 22.4552C17.2857 24.2956 15.1755 25.0969 15.1755 26.8581C15.1755 28.6192 17.2593 30.0633 17.2593 31.7276C17.2593 33.2422 15.2634 35.1531 15.5008 37.0111C15.0963 36.8614 14.7094 36.7117 14.3226 36.5444C14.3226 34.704 16.0811 33.1541 16.0811 31.6043C16.0811 29.9048 14.0764 28.5047 14.0764 26.8492C14.0764 25.1938 16.2218 24.2075 16.2218 22.4464C16.2218 20.6852 15.1579 19.655 15.1579 17.841C15.1523 16.4025 15.7076 15.0187 16.7054 13.9841C16.492 14.0923 16.2938 14.2286 16.1163 14.3891C15.5896 14.8651 15.1663 15.4446 14.8728 16.0915C14.5794 16.7383 14.422 17.4388 14.4105 18.1492C14.4105 20.0776 15.3425 20.9494 15.3425 22.4552C15.3425 23.961 13.1531 25.1497 13.1531 26.8581C13.1531 28.5664 15.0524 30.0369 15.0524 31.4899C15.0524 32.7931 13.4169 34.5278 13.3642 36.1129C13.03 35.9456 12.6959 35.7606 12.3794 35.5669C12.5025 34.1316 14.05 32.978 14.05 31.5251C14.0204 31.0486 13.8623 30.5891 13.5928 30.1954C14.2258 32.2031 11.8343 33.3831 11.6584 35.1178C11.2276 34.8272 10.7791 34.5278 10.4098 34.2373C10.6088 33.8764 10.8779 33.559 11.2012 33.3038C11.0479 33.1266 10.9041 32.9415 10.7703 32.7491C10.3898 33.0102 10.0691 33.3494 9.82953 33.7441C9.48368 33.4447 9.14956 33.1277 8.82716 32.7931C9.12185 32.3097 9.55768 31.9285 10.0757 31.7012C9.94383 31.4811 9.82073 31.2521 9.70643 31.032C9.12552 31.2665 8.62686 31.6678 8.27323 32.1855C7.97428 31.8421 7.69291 31.4899 7.39396 31.12C7.88635 30.803 8.27323 29.9841 9.15249 29.9489C9.23162 30.1338 9.31076 30.3275 9.38989 30.5036C9.42987 30.603 9.50161 30.6863 9.59388 30.7404C9.68616 30.7946 9.79377 30.8166 9.89987 30.803C11.0839 30.6798 12.1849 30.1363 13.0037 29.2708C12.5068 28.5696 12.2036 27.7495 12.1244 26.8933C12.1244 25.3435 14.3226 24.0402 14.3226 22.5344C14.3226 21.0287 13.5664 20.1657 13.5664 18.5366C13.6173 17.126 14.1584 15.7774 15.0963 14.7238C14.8811 14.8539 14.6832 15.0107 14.5072 15.1905C13.5516 16.1653 12.9935 17.4621 12.9421 18.8272C12.9421 20.5884 13.5928 21.2752 13.5928 22.5609C13.5928 23.8465 11.0869 25.3875 11.377 26.9637C10.6085 27.6861 9.59962 28.0972 8.5458 28.1173C8.63435 28.4753 8.74297 28.8281 8.87113 29.174C7.83359 29.174 7.36758 30.0545 6.83123 30.3627C6.55746 29.9625 6.30505 29.5481 6.07506 29.1211C6.95433 29.0243 7.26207 27.8531 8.5458 27.9412C8.47546 27.633 8.4227 27.3159 8.37874 26.9989C6.91036 26.9021 6.56745 28.1437 5.60026 28.1877C5.39803 27.7562 5.21338 27.3071 5.04632 26.8492C6.3916 26.9109 6.84882 25.6076 8.26443 25.6164C8.26443 25.4932 8.26443 25.3523 8.26443 25.229C8.26443 25.1057 8.26443 24.7447 8.26443 24.5069C6.60262 24.5069 6.11023 25.8982 4.67703 25.7485C4.54807 25.2965 4.43377 24.8386 4.33412 24.3748C6.13661 24.595 6.79606 23.0716 8.4227 23.0804C8.49234 22.6462 8.58925 22.2168 8.71286 21.7948C6.73451 21.7067 6.07506 23.4238 4.1231 23.1068C4.07034 22.7106 4.03517 22.3055 4.01758 21.9004C6.25092 22.147 7.09501 20.3066 9.12611 20.5267C9.32032 20.044 9.54347 19.5735 9.79435 19.1178C7.24449 18.6687 6.37402 20.8085 4 20.4827C4.14197 16.0631 5.99484 11.8721 9.16674 8.79599C12.3386 5.71991 16.5809 4 20.9962 4C25.4115 4 29.6537 5.71991 32.8256 8.79599C35.9975 11.8721 37.8504 16.0631 37.9924 20.4827C35.6184 20.8085 34.7567 18.6687 32.198 19.1178C32.4525 19.5717 32.6758 20.0424 32.8663 20.5267C34.8886 20.3066 35.7678 22.1294 37.9924 21.9004V21.9004ZM13.6983 14.7502C13.0349 14.4954 12.3205 14.4024 11.6141 14.479C10.9077 14.5555 10.2297 14.7994 9.63609 15.1905C9.5509 14.612 9.35152 14.0564 9.04959 13.5559C8.74767 13.0555 8.34924 12.6203 7.87756 12.2758C7.75446 12.1789 7.62257 12.2758 7.63136 12.4167C7.83359 14.9615 6.33884 17.1806 4.50997 19.1178C6.40039 19.6902 8.02703 17.251 10.445 18.1052C11.315 16.7967 12.4178 15.6594 13.6983 14.7502ZM21.005 13.218C20.3186 13.1748 19.636 13.3488 19.0538 13.7154C18.4715 14.082 18.0191 14.6227 17.7605 15.2609C17.7605 15.349 17.7605 15.4106 17.866 15.3666C18.168 15.2341 18.4948 15.168 18.8244 15.1728C19.1157 15.1605 19.4061 15.2125 19.675 15.3251C19.944 15.4377 20.1849 15.6082 20.3807 15.8245C20.5351 16.3475 20.5351 16.9041 20.3807 17.4271C20.1169 17.3655 20.0202 17.1629 19.7564 17.1629C19.4926 17.1629 19.2992 17.3479 18.8772 17.3479C18.4551 17.3479 18.3848 17.1365 18.0946 17.1365C17.8045 17.1365 17.6989 17.4888 17.6989 17.885C17.6989 19.6462 19.3168 22.0677 21.0314 22.0677C22.7459 22.0677 24.3374 19.6462 24.3374 17.885C24.3374 17.4888 24.2583 17.1541 23.9066 17.1101C23.6951 17.2787 23.429 17.3633 23.1592 17.3479C22.7195 17.3479 22.6052 17.1629 22.3415 17.1629C22.0777 17.1629 22.0601 17.8234 21.6908 17.8586C21.4438 17.2061 21.4252 16.4889 21.6381 15.8245C21.8313 15.6074 22.0706 15.4363 22.3383 15.3235C22.606 15.2108 22.8955 15.1593 23.1856 15.1728C23.5153 15.1663 23.8425 15.2324 24.144 15.3666C24.2407 15.3666 24.2758 15.3666 24.2583 15.2609C23.9959 14.6236 23.5413 14.0842 22.9581 13.7179C22.3749 13.3517 21.6921 13.1769 21.005 13.218V13.218ZM23.5197 15.7452C23.3174 15.7375 23.1158 15.771 22.9268 15.8436C22.7379 15.9163 22.5657 16.0266 22.4206 16.1679C22.3815 16.2638 22.3815 16.3713 22.4206 16.4673C23.1064 16.2295 23.7131 16.2207 24.0033 16.5465C24.0665 16.4978 24.1176 16.4351 24.1527 16.3633C24.1878 16.2915 24.2058 16.2126 24.2055 16.1327C24.2143 15.8949 23.9857 15.7452 23.5197 15.7452V15.7452ZM17.9979 16.5465C18.2606 16.3839 18.5614 16.2933 18.8701 16.284C19.1788 16.2748 19.4845 16.3471 19.7564 16.4937C19.7564 16.1415 19.1497 15.7452 18.4991 15.7452C18.0331 15.7452 17.8045 15.8949 17.8045 16.1327C17.8031 16.2119 17.8198 16.2903 17.8533 16.362C17.8868 16.4338 17.9363 16.4969 17.9979 16.5465V16.5465ZM28.8832 10.5851C27.7102 10.646 26.5867 11.0776 25.6739 11.8179C26.0281 10.7941 26.5128 9.82032 27.1159 8.92077C25.6553 9.02715 24.2805 9.65159 23.2383 10.6819L22.4734 8.69182L24.1528 7.20366L21.9018 7.04515L21.0226 4.94939L20.1433 7.04515L17.8924 7.20366L19.5718 8.69182L18.7804 10.6819C17.736 9.64968 16.3577 9.0251 14.8941 8.92077C15.4959 9.81481 15.9805 10.7826 16.3361 11.8002C15.4266 11.0601 14.3059 10.6284 13.1356 10.5674C13.8902 11.5177 14.5278 12.5554 15.0348 13.6583C15.0456 13.6864 15.0626 13.7117 15.0845 13.7325C15.1063 13.7532 15.1325 13.7688 15.1612 13.778C15.1898 13.7873 15.2202 13.7901 15.25 13.7861C15.2799 13.7822 15.3085 13.7716 15.3337 13.7551C17.0984 12.8863 19.0386 12.4345 21.005 12.4345C22.9714 12.4345 24.9116 12.8863 26.6762 13.7551C26.7004 13.7721 26.7279 13.7835 26.7569 13.7887C26.7859 13.7939 26.8156 13.7926 26.8441 13.7851C26.8726 13.7775 26.8991 13.7639 26.9217 13.745C26.9443 13.7261 26.9626 13.7025 26.9752 13.6759C27.4819 12.5709 28.1227 11.5328 28.8832 10.5851V10.5851ZM31.6001 18.1052C34.0445 17.2246 35.6535 19.6902 37.5352 19.1178C35.7063 17.1806 34.2115 14.9615 34.4138 12.4167C34.423 12.3841 34.4209 12.3494 34.4079 12.3182C34.3949 12.287 34.3717 12.2611 34.3422 12.2447C34.3126 12.2284 34.2784 12.2226 34.2451 12.2282C34.2118 12.2338 34.1814 12.2506 34.1588 12.2758C33.2125 12.9778 32.5807 14.025 32.4003 15.1905C31.8069 14.7987 31.1289 14.5544 30.4224 14.4779C29.7159 14.4013 29.0013 14.4946 28.338 14.7502C29.6217 15.6586 30.7275 16.7959 31.6001 18.1052V18.1052Z" fill="#007042"/>
</svg>
