<svg viewBox="0 0 289 82" fill="none" xmlns="http://www.w3.org/2000/svg">
<path d="M19.201 7.699C19.685 7.699 19.96 7.468 20.125 7.138C20.521 6.324 20.763 5.499 20.851 4.674C20.917 4.047 20.752 3.673 20.114 3.673H17.419C17.023 3.673 16.693 3.992 16.693 4.399C16.693 4.795 17.023 5.125 17.419 5.125H18.838C18.772 5.609 18.563 6.082 18.332 6.478C17.947 7.05 18.409 7.699 19.201 7.699ZM24.789 7.71C25.273 7.71 25.647 7.413 25.746 6.951C25.922 6.17 26.021 5.389 26.065 4.608C26.098 4.014 25.845 3.673 25.24 3.673H22.017C21.621 3.673 21.291 3.992 21.291 4.399C21.291 4.795 21.621 5.125 22.017 5.125H24.096C24.085 5.653 23.997 6.181 23.854 6.72C23.7 7.292 24.217 7.71 24.789 7.71ZM25.878 9.591C26.307 9.591 26.659 9.25 26.659 8.821C26.659 8.403 26.307 8.051 25.878 8.051H22.578V6.841C22.578 6.335 22.16 6.005 21.654 6.005C21.137 6.005 20.73 6.335 20.73 6.841V8.051H17.122C16.693 8.051 16.352 8.403 16.352 8.821C16.352 9.25 16.693 9.591 17.122 9.591H25.878ZM25.053 14.013C25.625 14.013 26.087 13.727 26.087 13.166V11.23C26.087 10.658 25.768 10.339 25.196 10.339H17.485C17.089 10.339 16.759 10.669 16.759 11.065C16.759 11.472 17.089 11.791 17.485 11.791H24.03V13.166C24.03 13.727 24.481 14.013 25.053 14.013ZM39.5929 9.096C40.1869 9.096 40.6599 8.799 40.6599 8.205V4.41C40.6599 3.827 40.1869 3.519 39.5929 3.519C38.9989 3.519 38.5259 3.827 38.5259 4.41V8.205C38.5259 8.799 38.9989 9.096 39.5929 9.096ZM34.0819 8.953C35.7649 8.953 37.1399 8.183 37.1399 6.61V5.994C37.1399 4.41 35.7649 3.629 34.0819 3.629C32.3879 3.629 31.0129 4.41 31.0129 5.994V6.61C31.0129 8.183 32.3879 8.953 34.0819 8.953ZM34.0819 7.589C33.4989 7.589 33.0699 7.259 33.0699 6.742V5.873C33.0699 5.345 33.4989 5.004 34.0819 5.004C34.6429 5.004 35.0939 5.345 35.0939 5.873V6.742C35.0939 7.259 34.6429 7.589 34.0819 7.589ZM35.6439 13.496C35.9409 13.474 36.1829 13.221 36.1829 12.913C36.1829 12.583 35.8969 12.319 35.5669 12.341L33.0589 12.495V11.956H35.1819C35.5889 11.956 35.8199 11.725 35.8199 11.307V10.042C35.8199 9.624 35.5889 9.404 35.1819 9.404H31.7609C31.4529 9.404 31.1999 9.657 31.1999 9.965C31.1999 10.284 31.4529 10.537 31.7609 10.537H34.0379V10.966H31.9039C31.4969 10.966 31.2659 11.186 31.2659 11.604V13.144C31.2659 13.573 31.4969 13.782 31.9259 13.76L35.6439 13.496ZM39.6919 13.925C40.2309 13.925 40.6599 13.672 40.6599 13.144V10.207C40.6599 9.69 40.3739 9.404 39.8569 9.404H36.9199C36.5019 9.404 36.1609 9.745 36.1609 10.163C36.1609 10.592 36.5019 10.933 36.9199 10.933H38.7349V13.144C38.7349 13.672 39.1639 13.925 39.6919 13.925ZM50.6149 3.519C50.0319 3.519 49.5699 3.904 49.5699 4.465V7.556H47.8099V6.467C47.8099 4.872 46.5229 3.783 44.9059 3.783C43.2999 3.783 42.0129 4.872 42.0129 6.467V10.922C42.0129 12.528 43.2999 13.606 44.9059 13.606C46.5229 13.606 47.8099 12.528 47.8099 10.922V9.283H49.5699V12.968C49.5699 13.54 50.0319 13.925 50.6149 13.925C51.1869 13.925 51.6599 13.529 51.6599 12.968V4.465C51.6599 3.904 51.1869 3.519 50.6149 3.519ZM45.9179 11.032C45.9179 11.571 45.4999 11.978 44.9279 11.978C44.3449 11.978 43.9379 11.571 43.9379 11.032V6.357C43.9379 5.84 44.3449 5.4 44.9279 5.4C45.4999 5.4 45.9179 5.84 45.9179 6.357V11.032ZM53.8269 8.865C55.8069 8.689 57.1599 7.941 57.7979 6.951C58.4359 7.941 59.7889 8.689 61.7689 8.865C62.2419 8.909 62.6379 8.535 62.6379 8.073C62.6379 7.655 62.3079 7.303 61.9009 7.281C59.9429 7.105 59.0189 6.159 58.8869 5.477H61.7139C62.1649 5.477 62.5279 5.103 62.5279 4.652C62.5279 4.201 62.1649 3.838 61.7139 3.838H53.8819C53.4309 3.838 53.0679 4.201 53.0679 4.652C53.0679 5.103 53.4309 5.477 53.8819 5.477H56.6979C56.5989 6.159 55.6419 7.105 53.6949 7.281C53.2879 7.303 52.9579 7.655 52.9579 8.073C52.9579 8.535 53.3649 8.909 53.8269 8.865ZM57.7979 14.035C58.3919 14.035 58.8649 13.639 58.8649 13.056V11.087H62.1429C62.5939 11.087 62.9569 10.724 62.9569 10.273C62.9569 9.833 62.5939 9.47 62.1429 9.47H53.4639C53.0129 9.47 52.6499 9.833 52.6499 10.273C52.6499 10.724 53.0129 11.087 53.4639 11.087H56.7309V13.056C56.7309 13.639 57.2149 14.035 57.7979 14.035ZM70.5689 13.925C71.0419 13.925 71.4159 13.628 71.4159 13.155V4.289C71.4159 3.816 71.0419 3.519 70.5689 3.519C70.0849 3.519 69.6999 3.816 69.6999 4.289V7.171H68.8309C68.3689 7.171 67.9729 7.556 67.9729 8.029C67.9729 8.502 68.3689 8.887 68.8309 8.887H69.6999V13.155C69.6999 13.628 70.0849 13.925 70.5689 13.925ZM72.9009 13.925C73.3849 13.925 73.7809 13.617 73.7809 13.133V4.3C73.7809 3.827 73.3849 3.519 72.9009 3.519C72.4169 3.519 72.0209 3.827 72.0209 4.3V13.133C72.0209 13.617 72.4169 13.925 72.9009 13.925ZM64.5739 13.298C64.8159 13.298 65.0359 13.221 65.1899 13.067C65.7179 12.572 66.1469 11.945 66.4109 11.153C66.6859 11.956 67.1259 12.572 67.6429 13.067C67.7969 13.21 68.0169 13.32 68.2589 13.32C68.7429 13.32 69.1499 12.913 69.1499 12.418C69.1499 12.154 69.0179 11.912 68.8309 11.758C67.6979 10.779 67.3239 9.415 67.3239 6.621V4.564C67.3239 4.069 66.9169 3.761 66.4219 3.761C65.9159 3.761 65.5199 4.069 65.5199 4.564V6.621C65.5199 9.415 65.1349 10.779 64.0019 11.758C63.8259 11.912 63.6939 12.165 63.6939 12.418C63.6939 12.913 64.0899 13.298 64.5739 13.298ZM81.7449 9.569C83.3729 9.569 84.5169 8.282 84.5169 6.676C84.5169 5.059 83.3729 3.772 81.7449 3.772H77.8399C76.2229 3.772 75.0789 5.059 75.0789 6.676C75.0789 8.282 76.2229 9.569 77.8399 9.569H81.7449ZM78.4119 7.941C77.7079 7.941 77.2129 7.413 77.2129 6.676C77.2129 5.939 77.7079 5.411 78.4119 5.411H81.1949C81.8989 5.411 82.3939 5.939 82.3939 6.676C82.3939 7.413 81.8989 7.941 81.1949 7.941H78.4119ZM84.0989 13.606C84.5609 13.606 84.9569 13.232 84.9569 12.748C84.9569 12.275 84.5609 11.89 84.0989 11.89H82.8999V10.735C82.8999 10.207 82.4709 9.943 81.9319 9.943C81.3819 9.943 80.9529 10.207 80.9529 10.735V11.89H78.6869V10.735C78.6869 10.207 78.2579 9.943 77.7189 9.943C77.1689 9.943 76.7399 10.207 76.7399 10.735V11.89H75.5079C75.0459 11.89 74.6499 12.275 74.6499 12.748C74.6499 13.232 75.0459 13.606 75.5079 13.606H84.0989ZM86.1229 10.152C86.1449 10.735 86.5299 11.087 87.0579 11.087C87.5749 11.087 87.9599 10.735 87.9819 10.152L88.0479 7.897V4.487C88.0479 3.904 87.6189 3.497 87.0469 3.497C86.4749 3.497 86.0459 3.904 86.0459 4.487V7.897L86.1229 10.152ZM87.2999 13.749C87.6849 13.749 87.9709 13.463 87.9709 13.078V12.583C87.9709 12.198 87.6849 11.912 87.2999 11.912H86.7939C86.4089 11.912 86.1229 12.198 86.1229 12.583V13.078C86.1229 13.463 86.4089 13.749 86.7939 13.749H87.2999Z" fill="#242424"/>
<path d="M8.36 39.9707C8.36 39.5207 7.96 39.1107 7.5 39.1107C7.04 39.1107 6.64 39.5207 6.64 39.9707C6.64 40.4507 7.04 40.8207 7.5 40.8207C7.96 40.8207 8.36 40.4507 8.36 39.9707ZM23.22 40.8007C23.5 40.8007 23.72 40.6207 23.72 40.3507V38.2507H24.75C24.98 38.2507 25.17 38.0607 25.17 37.8307C25.17 37.6007 24.98 37.4107 24.75 37.4107H23.72V35.8407C23.72 35.5707 23.5 35.3907 23.22 35.3907C22.94 35.3907 22.72 35.5707 22.72 35.8407V40.3507C22.72 40.6207 22.94 40.8007 23.22 40.8007ZM16.45 40.1607C17.96 40.1007 19.48 39.9807 20.99 39.7307C21.2 39.7007 21.38 39.5307 21.38 39.3107C21.38 39.0707 21.17 38.8607 20.93 38.9007C19.59 39.1407 18.24 39.2707 16.9 39.3207V36.4907H20.25C20.48 36.4907 20.67 36.3007 20.67 36.0707C20.67 35.8407 20.48 35.6507 20.25 35.6507H16.43C16.09 35.6507 15.9 35.8407 15.9 36.1807V39.6507C15.9 40.0007 16.1 40.1707 16.45 40.1607ZM22.03 44.6107C23.13 44.6107 23.99 43.8707 23.99 42.7907C23.99 41.7107 23.13 40.9807 22.03 40.9807H18.12C17.03 40.9807 16.17 41.7107 16.17 42.7907C16.17 43.8707 17.03 44.6107 18.12 44.6107H22.03ZM18.18 43.7707C17.61 43.7707 17.17 43.3907 17.17 42.7907C17.17 42.2007 17.61 41.8207 18.18 41.8207H21.97C22.55 41.8207 22.99 42.2007 22.99 42.7907C22.99 43.3907 22.55 43.7707 21.97 43.7707H18.18ZM27.79 38.5007C28.08 39.4407 29.07 40.0107 30.21 40.2807C30.49 40.3507 30.76 40.1307 30.76 39.8407C30.76 39.6207 30.62 39.4507 30.41 39.4007C29.28 39.1507 28.29 38.4207 28.29 37.1507V36.9707H30.24C30.47 36.9707 30.66 36.7807 30.66 36.5507C30.66 36.3207 30.47 36.1307 30.24 36.1307H28.29V35.6007C28.29 35.3307 28.07 35.1507 27.79 35.1507C27.51 35.1507 27.29 35.3307 27.29 35.6007V36.1307H25.34C25.11 36.1307 24.92 36.3207 24.92 36.5507C24.92 36.7807 25.11 36.9707 25.34 36.9707H27.29V37.1507C27.29 38.4207 26.3 39.1507 25.17 39.4007C24.96 39.4507 24.82 39.6207 24.82 39.8407C24.82 40.1307 25.09 40.3407 25.37 40.2707C26.5 40.0107 27.49 39.4407 27.79 38.5007ZM32.89 35.3907C32.61 35.3907 32.39 35.5707 32.39 35.8407V37.6807H30.67C30.44 37.6807 30.25 37.8707 30.25 38.1007C30.25 38.3307 30.44 38.5207 30.67 38.5207H32.39V40.3007C32.39 40.5707 32.61 40.7507 32.89 40.7507C33.17 40.7507 33.39 40.5707 33.39 40.3007V35.8407C33.39 35.5707 33.17 35.3907 32.89 35.3907ZM26.1 41.1607C25.76 41.1607 25.57 41.3507 25.57 41.6907V44.0207C25.57 44.3607 25.77 44.5607 26.11 44.5407L32.4 44.2607C32.45 44.4707 32.64 44.6107 32.89 44.6107C33.17 44.6107 33.39 44.4307 33.39 44.1607V41.6907C33.39 41.3507 33.2 41.1607 32.86 41.1607H26.1ZM32.39 42.0007V43.4207L26.57 43.6807V42.0007H32.39ZM34.76 39.9307C36.59 39.7307 38.06 38.7107 38.5 37.5207C38.94 38.7107 40.41 39.7307 42.24 39.9307C42.49 39.9607 42.7 39.7607 42.7 39.5107C42.7 39.2907 42.54 39.1107 42.33 39.0907C40.48 38.8807 39.13 37.5507 39.06 36.5807H42.18C42.41 36.5807 42.6 36.3907 42.6 36.1607C42.6 35.9307 42.41 35.7407 42.18 35.7407H34.82C34.59 35.7407 34.4 35.9307 34.4 36.1607C34.4 36.3907 34.59 36.5807 34.82 36.5807H37.93C37.88 37.5507 36.52 38.8807 34.67 39.0907C34.46 39.1107 34.3 39.2907 34.3 39.5107C34.3 39.7607 34.52 39.9607 34.76 39.9307ZM38.5 44.7107C38.78 44.7107 39 44.5307 39 44.2607V41.6907H42.67C42.9 41.6907 43.09 41.5007 43.09 41.2707C43.09 41.0407 42.9 40.8507 42.67 40.8507H34.33C34.1 40.8507 33.91 41.0407 33.91 41.2707C33.91 41.5007 34.1 41.6907 34.33 41.6907H38V44.2607C38 44.5307 38.22 44.7107 38.5 44.7107ZM51.39 40.7907C51.67 40.7907 51.89 40.6107 51.89 40.3407V35.8407C51.89 35.5707 51.67 35.3907 51.39 35.3907C51.11 35.3907 50.89 35.5707 50.89 35.8407V40.3407C50.89 40.6107 51.11 40.7907 51.39 40.7907ZM43.76 40.3207C43.82 40.3207 43.87 40.3107 43.92 40.2907C45 39.8807 45.99 39.1207 46.29 38.2407C46.59 39.1207 47.57 39.8807 48.66 40.3007C48.71 40.3207 48.76 40.3307 48.82 40.3307C49.06 40.3307 49.26 40.1307 49.26 39.8807C49.26 39.7007 49.15 39.5407 48.98 39.4707C47.82 39.0307 46.79 38.0707 46.79 36.8207V35.9507C46.79 35.6807 46.57 35.5007 46.29 35.5007C46.01 35.5007 45.79 35.6807 45.79 35.9507V36.8207C45.79 38.0707 44.76 39.0307 43.6 39.4707C43.44 39.5307 43.32 39.7007 43.32 39.8807C43.32 40.1307 43.52 40.3207 43.76 40.3207ZM51.39 44.6407C51.67 44.6407 51.89 44.4607 51.89 44.1907V41.7307C51.89 41.3907 51.7 41.2007 51.36 41.2007H44.34C44.11 41.2007 43.92 41.3907 43.92 41.6207C43.92 41.8507 44.11 42.0407 44.34 42.0407H50.89V44.1907C50.89 44.4607 51.11 44.6407 51.39 44.6407ZM59.34 39.0607C60.27 39.0607 61.02 38.3307 61.02 37.2907C61.02 36.2507 60.27 35.5207 59.34 35.5207H54.66C53.72 35.5207 52.98 36.2507 52.98 37.2907C52.98 38.3307 53.72 39.0607 54.66 39.0607H59.34ZM54.8 38.2207C54.33 38.2207 53.98 37.8707 53.98 37.2807C53.98 36.7007 54.33 36.3607 54.8 36.3607H59.2C59.66 36.3607 60.02 36.7007 60.02 37.2807C60.02 37.8707 59.66 38.2207 59.2 38.2207H54.8ZM61.17 40.9507C61.4 40.9507 61.59 40.7607 61.59 40.5307C61.59 40.3007 61.4 40.1107 61.17 40.1107H52.83C52.6 40.1107 52.41 40.3007 52.41 40.5307C52.41 40.7607 52.6 40.9507 52.83 40.9507H61.17ZM60.7 44.5607C60.93 44.5607 61.12 44.3707 61.12 44.1407C61.12 43.9107 60.93 43.7207 60.7 43.7207H54.08V42.0407C54.08 41.7707 53.86 41.5907 53.58 41.5907C53.3 41.5907 53.08 41.7707 53.08 42.0407V44.0307C53.08 44.3707 53.27 44.5607 53.61 44.5607H60.7ZM72.188 44.6107C72.468 44.6107 72.688 44.4307 72.688 44.1607V35.8407C72.688 35.5707 72.468 35.3907 72.188 35.3907C71.908 35.3907 71.688 35.5707 71.688 35.8407V44.1607C71.688 44.4307 71.908 44.6107 72.188 44.6107ZM66.928 44.2907C68.448 44.2907 69.578 43.3407 69.578 41.9407V37.8807C69.578 36.4807 68.448 35.5307 66.928 35.5307C65.408 35.5307 64.278 36.4807 64.278 37.8807V41.9407C64.278 43.3407 65.408 44.2907 66.928 44.2907ZM66.928 43.4507C65.958 43.4507 65.278 42.8807 65.278 41.9907V37.8307C65.278 36.9607 65.958 36.3707 66.928 36.3707C67.898 36.3707 68.578 36.9607 68.578 37.8307V41.9907C68.578 42.8807 67.898 43.4507 66.928 43.4507ZM77.078 40.7107C77.418 40.7107 77.608 40.5207 77.608 40.1807V38.6307H79.088V41.7707C79.088 42.0407 79.308 42.2207 79.588 42.2207C79.868 42.2207 80.088 42.0407 80.088 41.7707V35.8407C80.088 35.5707 79.868 35.3907 79.588 35.3907C79.308 35.3907 79.088 35.5707 79.088 35.8407V37.7907H77.608V36.0007C77.608 35.7307 77.388 35.5507 77.108 35.5507C76.828 35.5507 76.608 35.7307 76.608 36.0007V37.2307H74.528V36.0007C74.528 35.7307 74.308 35.5507 74.028 35.5507C73.748 35.5507 73.528 35.7307 73.528 36.0007V40.1807C73.528 40.5207 73.718 40.7107 74.058 40.7107H77.078ZM81.548 42.2207C81.828 42.2207 82.048 42.0407 82.048 41.7707V35.8407C82.048 35.5707 81.828 35.3907 81.548 35.3907C81.268 35.3907 81.048 35.5707 81.048 35.8407V41.7707C81.048 42.0407 81.268 42.2207 81.548 42.2207ZM76.608 38.0707V39.8707H74.528V38.0707H76.608ZM75.008 43.7207V41.9607C75.008 41.6907 74.788 41.5107 74.508 41.5107C74.228 41.5107 74.008 41.6907 74.008 41.9607V44.0307C74.008 44.3707 74.198 44.5607 74.538 44.5607H81.828C82.058 44.5607 82.248 44.3707 82.248 44.1407C82.248 43.9107 82.058 43.7207 81.828 43.7207H75.008ZM90.548 36.5207C90.778 36.5207 90.968 36.3307 90.968 36.1007C90.968 35.8707 90.778 35.6807 90.548 35.6807H83.448C83.218 35.6807 83.028 35.8707 83.028 36.1007C83.028 36.3307 83.218 36.5207 83.448 36.5207H90.548ZM90.648 41.1307C90.878 41.1307 91.068 40.9407 91.068 40.7107C91.068 40.4807 90.878 40.2907 90.648 40.2907H84.078V38.5307H90.508C90.738 38.5307 90.928 38.3407 90.928 38.1107C90.928 37.8807 90.738 37.6907 90.508 37.6907H83.608C83.268 37.6907 83.078 37.8807 83.078 38.2207V40.6007C83.078 40.9407 83.268 41.1307 83.608 41.1307H90.648ZM91.168 44.2907C91.398 44.2907 91.588 44.1007 91.588 43.8707C91.588 43.6407 91.398 43.4507 91.168 43.4507H82.828C82.598 43.4507 82.408 43.6407 82.408 43.8707C82.408 44.1007 82.598 44.2907 82.828 44.2907H91.168ZM102.136 42.1407C102.416 42.1407 102.636 41.9607 102.636 41.6907V35.8407C102.636 35.5707 102.416 35.3907 102.136 35.3907C101.856 35.3907 101.636 35.5707 101.636 35.8407V41.6907C101.636 41.9607 101.856 42.1407 102.136 42.1407ZM94.5061 40.7207C94.5561 40.7207 94.6161 40.7007 94.6661 40.6807C95.7461 40.2407 96.7361 39.4607 97.0361 38.5407C97.3361 39.4607 98.3161 40.2507 99.4061 40.6907C99.4561 40.7107 99.5061 40.7207 99.5661 40.7207C99.8061 40.7207 100.006 40.5207 100.006 40.2807C100.006 40.0907 99.8961 39.9407 99.7261 39.8707C98.5661 39.4107 97.5361 38.4207 97.5361 37.1207V35.9507C97.5361 35.6807 97.3161 35.5007 97.0361 35.5007C96.7561 35.5007 96.5361 35.6807 96.5361 35.9507V37.1207C96.5361 38.4207 95.5061 39.4107 94.3461 39.8707C94.1761 39.9407 94.0661 40.0907 94.0661 40.2807C94.0661 40.5207 94.2661 40.7207 94.5061 40.7207ZM102.446 44.5607C102.676 44.5607 102.866 44.3707 102.866 44.1407C102.866 43.9107 102.676 43.7207 102.446 43.7207H95.8761V41.9107C95.8761 41.6407 95.6561 41.4607 95.3761 41.4607C95.0961 41.4607 94.8761 41.6407 94.8761 41.9107V44.0307C94.8761 44.3707 95.0661 44.5607 95.4061 44.5607H102.446ZM103.876 40.5507C105.006 40.2707 105.986 39.6707 106.286 38.6807C106.576 39.6207 107.566 40.1907 108.706 40.4607C108.986 40.5307 109.256 40.3107 109.256 40.0207C109.256 39.8007 109.116 39.6307 108.906 39.5807C107.776 39.3307 106.786 38.6007 106.786 37.3307V36.9707H108.736C108.966 36.9707 109.156 36.7807 109.156 36.5507C109.156 36.3207 108.966 36.1307 108.736 36.1307H106.786V35.6007C106.786 35.3307 106.566 35.1507 106.286 35.1507C106.006 35.1507 105.786 35.3307 105.786 35.6007V36.1307H103.836C103.606 36.1307 103.416 36.3207 103.416 36.5507C103.416 36.7807 103.606 36.9707 103.836 36.9707H105.786V37.3307C105.786 38.6607 104.786 39.4107 103.666 39.6807C103.476 39.7307 103.316 39.9007 103.316 40.1107C103.316 40.4007 103.596 40.6207 103.876 40.5507ZM110.886 38.5507V40.4207C110.886 40.6907 111.106 40.8707 111.386 40.8707C111.666 40.8707 111.886 40.6907 111.886 40.4207V35.8407C111.886 35.5707 111.666 35.3907 111.386 35.3907C111.106 35.3907 110.886 35.5707 110.886 35.8407V37.7107H109.166C108.936 37.7107 108.746 37.9007 108.746 38.1307C108.746 38.3607 108.936 38.5507 109.166 38.5507H110.886ZM103.976 42.8707C103.976 43.8907 104.836 44.6107 105.926 44.6107H110.086C111.186 44.6107 112.046 43.8907 112.046 42.8707C112.046 41.8507 111.186 41.1407 110.086 41.1407H105.926C104.836 41.1407 103.976 41.8507 103.976 42.8707ZM105.986 43.7707C105.416 43.7707 104.976 43.4107 104.976 42.8707C104.976 42.3407 105.416 41.9807 105.986 41.9807H110.026C110.606 41.9807 111.046 42.3407 111.046 42.8707C111.046 43.4107 110.606 43.7707 110.026 43.7707H105.986ZM123.074 37.0507C123.304 37.0507 123.494 36.8607 123.494 36.6307C123.494 36.4007 123.304 36.2107 123.074 36.2107H119.744V35.6007C119.744 35.3307 119.524 35.1507 119.244 35.1507C118.964 35.1507 118.744 35.3307 118.744 35.6007V36.2107H115.404C115.174 36.2107 114.984 36.4007 114.984 36.6307C114.984 36.8607 115.174 37.0507 115.404 37.0507H123.074ZM121.454 40.7207C122.544 40.7207 123.214 40.0507 123.214 39.1707C123.214 38.2907 122.544 37.6207 121.454 37.6207H117.034C115.944 37.6207 115.274 38.2907 115.274 39.1707C115.274 40.0507 115.944 40.7207 117.034 40.7207H121.454ZM117.154 39.8807C116.644 39.8807 116.274 39.5807 116.274 39.1707C116.274 38.7607 116.644 38.4607 117.154 38.4607H121.324C121.844 38.4607 122.214 38.7607 122.214 39.1707C122.214 39.5807 121.844 39.8807 121.324 39.8807H117.154ZM119.244 44.7107C119.524 44.7107 119.744 44.5307 119.744 44.2607V42.2107H123.414C123.644 42.2107 123.834 42.0207 123.834 41.7907C123.834 41.5607 123.644 41.3707 123.414 41.3707H115.074C114.844 41.3707 114.654 41.5607 114.654 41.7907C114.654 42.0207 114.844 42.2107 115.074 42.2107H118.744V44.2607C118.744 44.5307 118.964 44.7107 119.244 44.7107ZM129.852 37.7807C129.852 38.5407 129.452 38.9607 128.162 40.1107C126.602 41.5107 126.202 42.1007 126.202 42.9607V43.9507C126.202 44.2907 126.392 44.4807 126.732 44.4807H130.442C130.782 44.4807 130.972 44.3307 130.972 44.0607C130.972 43.7907 130.782 43.6407 130.442 43.6407H127.202V42.9607C127.202 42.2707 127.722 41.8407 128.972 40.6607C130.272 39.4307 130.852 38.8907 130.852 37.7807V37.2907C130.852 36.0107 129.902 35.2807 128.542 35.2807C127.162 35.2807 126.252 36.0107 126.252 37.2907V37.4507C126.252 37.7607 126.442 37.9807 126.752 37.9807C127.062 37.9807 127.252 37.7607 127.252 37.4507V37.2907C127.252 36.5907 127.692 36.1207 128.542 36.1207C129.372 36.1207 129.852 36.5907 129.852 37.2907V37.7807ZM131.189 42.6907C131.189 43.9707 132.209 44.7007 133.529 44.7007C134.849 44.7007 135.869 43.9707 135.869 42.6907V37.2907C135.869 36.0107 134.849 35.2807 133.529 35.2807C132.209 35.2807 131.189 36.0107 131.189 37.2907V42.6907ZM132.189 37.2907C132.189 36.5907 132.739 36.1207 133.529 36.1207C134.319 36.1207 134.869 36.5907 134.869 37.2907V42.6907C134.869 43.3907 134.319 43.8607 133.529 43.8607C132.739 43.8607 132.189 43.3907 132.189 42.6907V37.2907ZM139.086 40.4607C140.086 40.4607 140.946 40.1007 141.366 39.3907H143.956V40.4007C143.956 40.6707 144.176 40.8507 144.456 40.8507C144.736 40.8507 144.956 40.6707 144.956 40.4007V35.8407C144.956 35.5707 144.736 35.3907 144.456 35.3907C144.176 35.3907 143.956 35.5707 143.956 35.8407V36.4607H141.346C140.916 35.7807 140.056 35.4307 139.086 35.4307C137.686 35.4307 136.536 36.1507 136.536 37.5407V38.3507C136.536 39.7507 137.686 40.4607 139.086 40.4607ZM137.536 37.5907C137.536 36.7207 138.206 36.2707 139.096 36.2707C139.966 36.2707 140.636 36.7207 140.636 37.5907V38.3107C140.636 39.1807 139.966 39.6207 139.096 39.6207C138.206 39.6207 137.536 39.1807 137.536 38.3107V37.5907ZM143.956 38.5507H141.626C141.636 38.4807 141.636 38.4207 141.636 38.3507V37.5407C141.636 37.4607 141.636 37.3807 141.626 37.3007H143.956V38.5507ZM138.806 41.1407C137.716 41.1407 136.856 41.8407 136.856 42.8707C136.856 43.9007 137.716 44.6107 138.806 44.6107H143.166C144.266 44.6107 145.126 43.9007 145.126 42.8707C145.126 41.8407 144.266 41.1407 143.166 41.1407H138.806ZM138.866 43.7707C138.296 43.7707 137.856 43.4207 137.856 42.8707C137.856 42.3307 138.296 41.9807 138.866 41.9807H143.106C143.686 41.9807 144.126 42.3307 144.126 42.8707C144.126 43.4207 143.686 43.7707 143.106 43.7707H138.866ZM153.706 35.3907C153.426 35.3907 153.206 35.5707 153.206 35.8407V37.3307H150.876C150.796 36.0807 149.676 35.4307 148.336 35.4307C146.936 35.4307 145.786 36.1307 145.786 37.4907V38.0507C145.786 39.4207 146.936 40.1107 148.336 40.1107C149.696 40.1107 150.816 39.4607 150.886 38.1707H153.206V39.8207C153.206 40.0907 153.426 40.2707 153.706 40.2707C153.986 40.2707 154.206 40.0907 154.206 39.8207V35.8407C154.206 35.5707 153.986 35.3907 153.706 35.3907ZM149.886 38.0107C149.886 38.8507 149.216 39.2707 148.346 39.2707C147.456 39.2707 146.786 38.8507 146.786 38.0107V37.5407C146.786 36.7007 147.456 36.2707 148.346 36.2707C149.216 36.2707 149.886 36.7007 149.886 37.5407V38.0107ZM153.706 40.5807C153.426 40.5807 153.206 40.7607 153.206 41.0307V41.6607H147.266V41.0307C147.266 40.7607 147.046 40.5807 146.766 40.5807C146.486 40.5807 146.266 40.7607 146.266 41.0307V44.0207C146.266 44.3607 146.466 44.5507 146.806 44.5407L153.216 44.2707C153.266 44.4807 153.466 44.6107 153.706 44.6107C153.986 44.6107 154.206 44.4307 154.206 44.1607V41.0307C154.206 40.7607 153.986 40.5807 153.706 40.5807ZM153.206 42.5007V43.4307L147.266 43.6807V42.5007H153.206ZM162.956 40.2707C163.236 40.2707 163.456 40.0907 163.456 39.8207V35.8407C163.456 35.5707 163.236 35.3907 162.956 35.3907C162.676 35.3907 162.456 35.5707 162.456 35.8407V39.8207C162.456 40.0907 162.676 40.2707 162.956 40.2707ZM157.706 40.0707C159.176 40.0707 160.376 39.3807 160.376 38.0107V37.4907C160.376 36.1307 159.176 35.4307 157.706 35.4307C156.236 35.4307 155.036 36.1307 155.036 37.4907V38.0107C155.036 39.3807 156.236 40.0707 157.706 40.0707ZM157.716 39.2307C156.756 39.2307 156.036 38.8107 156.036 37.9707V37.5407C156.036 36.7007 156.756 36.2707 157.716 36.2707C158.656 36.2707 159.376 36.7007 159.376 37.5407V37.9707C159.376 38.8107 158.656 39.2307 157.716 39.2307ZM163.266 44.5607C163.496 44.5607 163.686 44.3707 163.686 44.1407C163.686 43.9107 163.496 43.7207 163.266 43.7207H156.516V43.0007H162.926C163.266 43.0007 163.456 42.8107 163.456 42.4707V41.2107C163.456 40.8707 163.266 40.6807 162.926 40.6807H155.886C155.656 40.6807 155.466 40.8707 155.466 41.1007C155.466 41.3307 155.656 41.5207 155.886 41.5207H162.456V42.2007H156.046C155.706 42.2007 155.516 42.3907 155.516 42.7307V44.0307C155.516 44.3707 155.706 44.5607 156.046 44.5607H163.266ZM174.444 44.6107C174.724 44.6107 174.944 44.4307 174.944 44.1607V35.8407C174.944 35.5707 174.724 35.3907 174.444 35.3907C174.164 35.3907 173.944 35.5707 173.944 35.8407V44.1607C173.944 44.4307 174.164 44.6107 174.444 44.6107ZM169.184 44.2907C170.704 44.2907 171.834 43.3407 171.834 41.9407V37.8807C171.834 36.4807 170.704 35.5307 169.184 35.5307C167.664 35.5307 166.534 36.4807 166.534 37.8807V41.9407C166.534 43.3407 167.664 44.2907 169.184 44.2907ZM169.184 43.4507C168.214 43.4507 167.534 42.8807 167.534 41.9907V37.8307C167.534 36.9607 168.214 36.3707 169.184 36.3707C170.154 36.3707 170.834 36.9607 170.834 37.8307V41.9907C170.834 42.8807 170.154 43.4507 169.184 43.4507ZM181.234 44.6107C181.514 44.6107 181.734 44.4307 181.734 44.1607V40.0907H183.304V44.1607C183.304 44.4307 183.524 44.6107 183.804 44.6107C184.084 44.6107 184.304 44.4307 184.304 44.1607V35.8407C184.304 35.5707 184.084 35.3907 183.804 35.3907C183.524 35.3907 183.304 35.5707 183.304 35.8407V39.2507H181.734V35.8407C181.734 35.5707 181.514 35.3907 181.234 35.3907C180.954 35.3907 180.734 35.5707 180.734 35.8407V44.1607C180.734 44.4307 180.954 44.6107 181.234 44.6107ZM176.404 44.0707C177.524 43.9607 178.654 43.8307 179.774 43.5107C180.044 43.4307 180.164 43.2707 180.164 43.0407C180.164 42.7707 179.974 42.5407 179.674 42.6307C178.724 42.9207 177.784 43.0607 176.844 43.1307V36.2107C176.844 35.9407 176.624 35.7607 176.344 35.7607C176.064 35.7607 175.844 35.9407 175.844 36.2107V43.5807C175.844 43.9307 176.054 44.1007 176.404 44.0707ZM191.094 35.3907C190.814 35.3907 190.594 35.5707 190.594 35.8407V39.2807H189.134V37.5307C189.134 36.3407 188.254 35.5307 187.084 35.5307C185.914 35.5307 185.034 36.3407 185.034 37.5307V42.2907C185.034 43.4807 185.914 44.2907 187.084 44.2907C188.254 44.2907 189.134 43.4807 189.134 42.2907V40.1207H190.594V44.1607C190.594 44.4307 190.814 44.6107 191.094 44.6107C191.374 44.6107 191.594 44.4307 191.594 44.1607V35.8407C191.594 35.5707 191.374 35.3907 191.094 35.3907ZM193.054 35.3907C192.774 35.3907 192.554 35.5707 192.554 35.8407V44.1607C192.554 44.4307 192.774 44.6107 193.054 44.6107C193.334 44.6107 193.554 44.4307 193.554 44.1607V35.8407C193.554 35.5707 193.334 35.3907 193.054 35.3907ZM188.134 42.2907C188.134 43.0007 187.694 43.4507 187.084 43.4507C186.474 43.4507 186.034 43.0007 186.034 42.2907V37.5307C186.034 36.8407 186.474 36.3707 187.084 36.3707C187.694 36.3707 188.134 36.8407 188.134 37.5307V42.2907ZM204.552 35.3907C204.272 35.3907 204.052 35.5707 204.052 35.8407V37.4407H202.712V35.8407C202.712 35.5707 202.492 35.3907 202.212 35.3907C201.932 35.3907 201.712 35.5707 201.712 35.8407V39.9107C201.712 40.1807 201.932 40.3607 202.212 40.3607C202.492 40.3607 202.712 40.1807 202.712 39.9107V38.2807H204.052V39.9107C204.052 40.1807 204.272 40.3607 204.552 40.3607C204.832 40.3607 205.052 40.1807 205.052 39.9107V35.8407C205.052 35.5707 204.832 35.3907 204.552 35.3907ZM198.692 40.1107C199.872 40.1107 200.852 39.4807 200.852 38.2507V37.2907C200.852 36.0707 199.882 35.4307 198.692 35.4307C197.502 35.4307 196.532 36.0707 196.532 37.2907V38.2507C196.532 39.4807 197.512 40.1107 198.692 40.1107ZM197.532 37.3407C197.532 36.6407 198.032 36.2707 198.702 36.2707C199.352 36.2707 199.852 36.6407 199.852 37.3407V38.2107C199.852 38.9107 199.352 39.2707 198.702 39.2707C198.042 39.2707 197.532 38.9107 197.532 38.2107V37.3407ZM204.552 40.6707C204.272 40.6707 204.052 40.8507 204.052 41.1207V41.6907H197.952V41.1207C197.952 40.8507 197.732 40.6707 197.452 40.6707C197.172 40.6707 196.952 40.8507 196.952 41.1207V44.0207C196.952 44.3607 197.152 44.5607 197.492 44.5407L204.062 44.2507C204.102 44.4707 204.302 44.6107 204.552 44.6107C204.832 44.6107 205.052 44.4307 205.052 44.1607V41.1207C205.052 40.8507 204.832 40.6707 204.552 40.6707ZM204.052 42.5307V43.4107L197.952 43.6807V42.5307H204.052ZM213.48 44.6107C213.76 44.6107 213.98 44.4307 213.98 44.1607V40.0907H215.55V44.1607C215.55 44.4307 215.77 44.6107 216.05 44.6107C216.33 44.6107 216.55 44.4307 216.55 44.1607V35.8407C216.55 35.5707 216.33 35.3907 216.05 35.3907C215.77 35.3907 215.55 35.5707 215.55 35.8407V39.2507H213.98V35.8407C213.98 35.5707 213.76 35.3907 213.48 35.3907C213.2 35.3907 212.98 35.5707 212.98 35.8407V44.1607C212.98 44.4307 213.2 44.6107 213.48 44.6107ZM208.65 44.0707C209.77 43.9607 210.9 43.8307 212.02 43.5107C212.29 43.4307 212.41 43.2707 212.41 43.0407C212.41 42.7707 212.22 42.5407 211.92 42.6307C210.97 42.9207 210.03 43.0607 209.09 43.1307V36.2107C209.09 35.9407 208.87 35.7607 208.59 35.7607C208.31 35.7607 208.09 35.9407 208.09 36.2107V43.5807C208.09 43.9307 208.3 44.1007 208.65 44.0707ZM225.508 35.3907C225.228 35.3907 225.008 35.5707 225.008 35.8407V37.8307H223.328C223.358 37.4107 223.368 36.9707 223.368 36.5007V36.4607C223.368 36.0707 223.158 35.8607 222.768 35.8607H219.848C219.618 35.8607 219.428 36.0507 219.428 36.2807C219.428 36.5107 219.618 36.7007 219.848 36.7007H222.368C222.378 40.0407 221.668 42.3807 219.638 43.2507C219.488 43.3207 219.378 43.4707 219.378 43.6407C219.378 43.8807 219.568 44.0707 219.808 44.0707C219.858 44.0707 219.918 44.0507 219.968 44.0307C221.698 43.3107 222.878 41.6907 223.248 38.6707H225.008V41.0807H223.398C223.168 41.0807 222.978 41.2707 222.978 41.5007C222.978 41.7307 223.168 41.9207 223.398 41.9207H225.008V44.1607C225.008 44.4307 225.228 44.6107 225.508 44.6107C225.788 44.6107 226.008 44.4307 226.008 44.1607V35.8407C226.008 35.5707 225.788 35.3907 225.508 35.3907ZM227.548 35.3907C227.268 35.3907 227.048 35.5707 227.048 35.8407V44.1607C227.048 44.4307 227.268 44.6107 227.548 44.6107C227.828 44.6107 228.048 44.4307 228.048 44.1607V35.8407C228.048 35.5707 227.828 35.3907 227.548 35.3907ZM236.778 39.1807V35.8407C236.778 35.5707 236.558 35.3907 236.278 35.3907C235.998 35.3907 235.778 35.5707 235.778 35.8407V44.1607C235.778 44.4307 235.998 44.6107 236.278 44.6107C236.558 44.6107 236.778 44.4307 236.778 44.1607V40.0207H237.748C237.978 40.0207 238.168 39.8307 238.168 39.6007C238.168 39.3707 237.978 39.1807 237.748 39.1807H236.778ZM229.198 39.7407C229.008 39.7907 228.858 39.9607 228.858 40.1707C228.858 40.4707 229.148 40.6907 229.428 40.6107C230.558 40.3107 231.498 39.6307 231.828 38.6407C232.158 39.6307 233.098 40.3107 234.228 40.6107C234.508 40.6907 234.798 40.4707 234.798 40.1707C234.798 39.9607 234.658 39.7807 234.468 39.7307C233.298 39.4207 232.328 38.5807 232.328 37.1407V36.5807H234.338C234.568 36.5807 234.758 36.3907 234.758 36.1607C234.758 35.9307 234.568 35.7407 234.338 35.7407H229.318C229.088 35.7407 228.898 35.9307 228.898 36.1607C228.898 36.3907 229.088 36.5807 229.318 36.5807H231.338V37.1407C231.338 38.5807 230.358 39.4307 229.198 39.7407ZM234.878 42.8807C234.028 43.0407 233.178 43.1507 232.328 43.2407V41.2507C232.328 40.9807 232.108 40.8007 231.828 40.8007C231.548 40.8007 231.328 40.9807 231.328 41.2507V43.3307C230.508 43.3907 229.678 43.4307 228.858 43.4707C228.648 43.4807 228.468 43.6607 228.468 43.8807C228.468 44.1207 228.678 44.3107 228.918 44.3007C230.928 44.2107 232.928 44.0807 234.938 43.7107C235.148 43.6707 235.328 43.5007 235.328 43.2807C235.328 43.0407 235.118 42.8407 234.878 42.8807ZM245.898 40.8907C246.128 40.8907 246.318 40.7007 246.318 40.4707C246.318 40.2407 246.128 40.0507 245.898 40.0507H239.328V38.6807H245.638C245.978 38.6807 246.168 38.4907 246.168 38.1507V36.2107C246.168 35.8707 245.978 35.6807 245.638 35.6807H238.698C238.468 35.6807 238.278 35.8707 238.278 36.1007C238.278 36.3307 238.468 36.5207 238.698 36.5207H245.168V37.8407H238.858C238.518 37.8407 238.328 38.0307 238.328 38.3707V40.3607C238.328 40.7007 238.518 40.8907 238.858 40.8907H245.898ZM246.418 44.2907C246.648 44.2907 246.838 44.1007 246.838 43.8707C246.838 43.6407 246.648 43.4507 246.418 43.4507H242.748V41.8307C242.748 41.5607 242.528 41.3807 242.248 41.3807C241.968 41.3807 241.748 41.5607 241.748 41.8307V43.4507H238.078C237.848 43.4507 237.658 43.6407 237.658 43.8707C237.658 44.1007 237.848 44.2907 238.078 44.2907H246.418ZM257.346 38.3207C257.576 38.3207 257.766 38.1307 257.766 37.9007C257.766 37.6707 257.576 37.4807 257.346 37.4807H250.826V36.4107H257.296C257.526 36.4107 257.716 36.2207 257.716 35.9907C257.716 35.7607 257.526 35.5707 257.296 35.5707H250.356C250.016 35.5707 249.826 35.7607 249.826 36.1007V37.7907C249.826 38.1307 250.016 38.3207 250.356 38.3207H257.346ZM257.916 40.0107C258.146 40.0107 258.336 39.8207 258.336 39.5907C258.336 39.3607 258.146 39.1707 257.916 39.1707H249.576C249.346 39.1707 249.156 39.3607 249.156 39.5907C249.156 39.8207 249.346 40.0107 249.576 40.0107H257.916ZM257.446 44.5607C257.676 44.5607 257.866 44.3707 257.866 44.1407C257.866 43.9107 257.676 43.7207 257.446 43.7207H250.826V43.0607H257.136C257.476 43.0607 257.666 42.8707 257.666 42.5307V41.3407C257.666 41.0007 257.476 40.8107 257.136 40.8107H250.196C249.966 40.8107 249.776 41.0007 249.776 41.2307C249.776 41.4607 249.966 41.6507 250.196 41.6507H256.666V42.2607H250.356C250.016 42.2607 249.826 42.4507 249.826 42.7907V44.0307C249.826 44.3707 250.016 44.5607 250.356 44.5607H257.446ZM266.686 35.3907C266.406 35.3907 266.186 35.5707 266.186 35.8407V39.2907H263.836V37.8807C263.836 36.4807 262.756 35.5307 261.306 35.5307C259.856 35.5307 258.776 36.4807 258.776 37.8807V41.9407C258.776 43.3407 259.856 44.2907 261.306 44.2907C262.756 44.2907 263.836 43.3407 263.836 41.9407V40.1307H266.186V44.1607C266.186 44.4307 266.406 44.6107 266.686 44.6107C266.966 44.6107 267.186 44.4307 267.186 44.1607V35.8407C267.186 35.5707 266.966 35.3907 266.686 35.3907ZM262.836 41.9907C262.836 42.8807 262.206 43.4507 261.306 43.4507C260.406 43.4507 259.776 42.8807 259.776 41.9907V37.8307C259.776 36.9607 260.406 36.3707 261.306 36.3707C262.206 36.3707 262.836 36.9607 262.836 37.8307V41.9907ZM276.026 39.1807V35.8407C276.026 35.5707 275.806 35.3907 275.526 35.3907C275.246 35.3907 275.026 35.5707 275.026 35.8407V44.1607C275.026 44.4307 275.246 44.6107 275.526 44.6107C275.806 44.6107 276.026 44.4307 276.026 44.1607V40.0207H276.996C277.226 40.0207 277.416 39.8307 277.416 39.6007C277.416 39.3707 277.226 39.1807 276.996 39.1807H276.026ZM271.036 40.9207C272.536 40.9207 273.796 40.1807 273.796 38.6807V37.7807C273.796 36.2807 272.536 35.5207 271.036 35.5207C269.526 35.5207 268.276 36.2807 268.276 37.7807V38.6807C268.276 40.1807 269.526 40.9207 271.036 40.9207ZM269.276 37.7707C269.276 36.8807 270.056 36.3607 271.036 36.3607C272.026 36.3607 272.796 36.8807 272.796 37.7707V38.6907C272.796 39.5607 272.026 40.0807 271.036 40.0807C270.056 40.0807 269.276 39.5607 269.276 38.6907V37.7707ZM274.126 42.8807C273.276 43.0407 272.426 43.1507 271.576 43.2407V41.7607C271.576 41.4907 271.356 41.3107 271.076 41.3107C270.796 41.3107 270.576 41.4907 270.576 41.7607V43.3307C269.756 43.3907 268.926 43.4307 268.106 43.4707C267.896 43.4807 267.716 43.6607 267.716 43.8807C267.716 44.1207 267.926 44.3107 268.166 44.3007C270.176 44.2107 272.176 44.0807 274.186 43.7107C274.396 43.6707 274.576 43.5007 274.576 43.2807C274.576 43.0407 274.366 42.8407 274.126 42.8807ZM283.096 40.7207C284.566 40.7207 285.606 39.6107 285.606 38.1807C285.606 36.7407 284.566 35.6307 283.096 35.6307H279.896C278.426 35.6307 277.386 36.7407 277.386 38.1807C277.386 39.6107 278.426 40.7207 279.896 40.7207H283.096ZM280.006 39.8807C279.076 39.8807 278.386 39.1807 278.386 38.1807C278.386 37.1807 279.076 36.4707 280.006 36.4707H282.986C283.926 36.4707 284.606 37.1807 284.606 38.1807C284.606 39.1807 283.926 39.8807 282.986 39.8807H280.006ZM285.666 44.2907C285.896 44.2907 286.086 44.1007 286.086 43.8707C286.086 43.6407 285.896 43.4507 285.666 43.4507H283.776V41.5707C283.776 41.3007 283.556 41.1207 283.276 41.1207C282.996 41.1207 282.776 41.3007 282.776 41.5707V43.4507H280.236V41.5707C280.236 41.3007 280.016 41.1207 279.736 41.1207C279.456 41.1207 279.236 41.3007 279.236 41.5707V43.4507H277.326C277.096 43.4507 276.906 43.6407 276.906 43.8707C276.906 44.1007 277.096 44.2907 277.326 44.2907H285.666ZM286.966 44.2407C287.226 44.2407 287.406 44.0607 287.406 43.8007V43.5707C287.406 43.3107 287.226 43.1307 286.966 43.1307H286.746C286.486 43.1307 286.306 43.3107 286.306 43.5707V43.8007C286.306 44.0607 286.486 44.2407 286.746 44.2407H286.966ZM8.36 56.9707C8.36 56.5207 7.96 56.1107 7.5 56.1107C7.04 56.1107 6.64 56.5207 6.64 56.9707C6.64 57.4507 7.04 57.8207 7.5 57.8207C7.96 57.8207 8.36 57.4507 8.36 56.9707ZM23.7 52.3907C23.42 52.3907 23.2 52.5707 23.2 52.8407V56.8207C23.2 57.0907 23.42 57.2707 23.7 57.2707C23.98 57.2707 24.2 57.0907 24.2 56.8207V52.8407C24.2 52.5707 23.98 52.3907 23.7 52.3907ZM18.45 57.1107C19.92 57.1107 21.12 56.4207 21.12 55.0507V54.4907C21.12 53.1307 19.92 52.4307 18.45 52.4307C16.98 52.4307 15.78 53.1307 15.78 54.4907V55.0507C15.78 56.4207 16.98 57.1107 18.45 57.1107ZM16.78 54.5407C16.78 53.7007 17.5 53.2707 18.46 53.2707C19.4 53.2707 20.12 53.7007 20.12 54.5407V55.0107C20.12 55.8507 19.4 56.2707 18.46 56.2707C17.5 56.2707 16.78 55.8507 16.78 55.0107V54.5407ZM23.7 57.5807C23.42 57.5807 23.2 57.7607 23.2 58.0307V58.6607H17.26V58.0307C17.26 57.7607 17.04 57.5807 16.76 57.5807C16.48 57.5807 16.26 57.7607 16.26 58.0307V61.0207C16.26 61.3607 16.46 61.5507 16.8 61.5407L23.21 61.2707C23.26 61.4807 23.46 61.6107 23.7 61.6107C23.98 61.6107 24.2 61.4307 24.2 61.1607V58.0307C24.2 57.7607 23.98 57.5807 23.7 57.5807ZM23.2 59.5007V60.4307L17.26 60.6807V59.5007H23.2ZM32.1 59.2407C32.36 59.2407 32.58 59.0407 32.62 58.7807C32.93 56.9307 33.15 55.0707 33.18 53.2207C33.19 52.8707 33.02 52.6807 32.67 52.6807H25.65C25.42 52.6807 25.23 52.8707 25.23 53.1007C25.23 53.3307 25.42 53.5207 25.65 53.5207H32.16C32.14 55.2507 31.92 56.9807 31.63 58.7107C31.58 58.9907 31.82 59.2407 32.1 59.2407ZM33.42 61.2907C33.65 61.2907 33.84 61.1007 33.84 60.8707C33.84 60.6407 33.65 60.4507 33.42 60.4507H29.18V56.8207C29.18 56.5507 28.96 56.3207 28.68 56.3207C28.4 56.3207 28.18 56.5507 28.18 56.8207V60.4507H25.08C24.85 60.4507 24.66 60.6407 24.66 60.8707C24.66 61.1007 24.85 61.2907 25.08 61.2907H33.42ZM42.14 59.5507C42.42 59.5507 42.64 59.3707 42.64 59.1007V52.8407C42.64 52.5707 42.42 52.3907 42.14 52.3907C41.86 52.3907 41.64 52.5707 41.64 52.8407V59.1007C41.64 59.3707 41.86 59.5507 42.14 59.5507ZM41.19 57.3807C41.19 57.1407 40.98 56.9407 40.75 56.9707C39.84 57.0707 38.93 57.1607 38.02 57.2207V56.0307H39.93C40.16 56.0307 40.35 55.8407 40.35 55.6107C40.35 55.3807 40.16 55.1907 39.93 55.1907H35.66V53.4707H39.83C40.06 53.4707 40.25 53.2807 40.25 53.0507C40.25 52.8207 40.06 52.6307 39.83 52.6307H35.19C34.85 52.6307 34.66 52.8207 34.66 53.1607V55.5007C34.66 55.8407 34.85 56.0307 35.19 56.0307H37.02V57.2807C36.1 57.3307 35.17 57.3607 34.25 57.3907C34.03 57.4007 33.85 57.5907 33.85 57.8107C33.85 58.0507 34.06 58.2407 34.29 58.2307C36.46 58.1707 38.62 58.0607 40.79 57.8107C41.01 57.7807 41.19 57.6007 41.19 57.3807ZM35.88 60.7207V59.1707C35.88 58.9007 35.66 58.7207 35.38 58.7207C35.1 58.7207 34.88 58.9007 34.88 59.1707V61.0307C34.88 61.3707 35.07 61.5607 35.41 61.5607H42.45C42.68 61.5607 42.87 61.3707 42.87 61.1407C42.87 60.9107 42.68 60.7207 42.45 60.7207H35.88ZM46.258 56.9307C48.088 56.7307 49.558 55.7107 49.998 54.5207C50.438 55.7107 51.908 56.7307 53.738 56.9307C53.988 56.9607 54.198 56.7607 54.198 56.5107C54.198 56.2907 54.038 56.1107 53.828 56.0907C51.978 55.8807 50.628 54.5507 50.558 53.5807H53.678C53.908 53.5807 54.098 53.3907 54.098 53.1607C54.098 52.9307 53.908 52.7407 53.678 52.7407H46.318C46.088 52.7407 45.898 52.9307 45.898 53.1607C45.898 53.3907 46.088 53.5807 46.318 53.5807H49.428C49.378 54.5507 48.018 55.8807 46.168 56.0907C45.958 56.1107 45.798 56.2907 45.798 56.5107C45.798 56.7607 46.018 56.9607 46.258 56.9307ZM49.998 61.7107C50.278 61.7107 50.498 61.5307 50.498 61.2607V58.6907H54.168C54.398 58.6907 54.588 58.5007 54.588 58.2707C54.588 58.0407 54.398 57.8507 54.168 57.8507H45.828C45.598 57.8507 45.408 58.0407 45.408 58.2707C45.408 58.5007 45.598 58.6907 45.828 58.6907H49.498V61.2607C49.498 61.5307 49.718 61.7107 49.998 61.7107ZM62.888 57.7907C63.168 57.7907 63.388 57.6107 63.388 57.3407V52.8407C63.388 52.5707 63.168 52.3907 62.888 52.3907C62.608 52.3907 62.388 52.5707 62.388 52.8407V57.3407C62.388 57.6107 62.608 57.7907 62.888 57.7907ZM55.258 57.3207C55.318 57.3207 55.368 57.3107 55.418 57.2907C56.498 56.8807 57.488 56.1207 57.788 55.2407C58.088 56.1207 59.068 56.8807 60.158 57.3007C60.208 57.3207 60.258 57.3307 60.318 57.3307C60.558 57.3307 60.758 57.1307 60.758 56.8807C60.758 56.7007 60.648 56.5407 60.478 56.4707C59.318 56.0307 58.288 55.0707 58.288 53.8207V52.9507C58.288 52.6807 58.068 52.5007 57.788 52.5007C57.508 52.5007 57.288 52.6807 57.288 52.9507V53.8207C57.288 55.0707 56.258 56.0307 55.098 56.4707C54.938 56.5307 54.818 56.7007 54.818 56.8807C54.818 57.1307 55.018 57.3207 55.258 57.3207ZM62.888 61.6407C63.168 61.6407 63.388 61.4607 63.388 61.1907V58.7307C63.388 58.3907 63.198 58.2007 62.858 58.2007H55.838C55.608 58.2007 55.418 58.3907 55.418 58.6207C55.418 58.8507 55.608 59.0407 55.838 59.0407H62.388V61.1907C62.388 61.4607 62.608 61.6407 62.888 61.6407ZM70.838 56.0607C71.768 56.0607 72.518 55.3307 72.518 54.2907C72.518 53.2507 71.768 52.5207 70.838 52.5207H66.158C65.218 52.5207 64.478 53.2507 64.478 54.2907C64.478 55.3307 65.218 56.0607 66.158 56.0607H70.838ZM66.298 55.2207C65.828 55.2207 65.478 54.8707 65.478 54.2807C65.478 53.7007 65.828 53.3607 66.298 53.3607H70.698C71.158 53.3607 71.518 53.7007 71.518 54.2807C71.518 54.8707 71.158 55.2207 70.698 55.2207H66.298ZM72.668 57.9507C72.898 57.9507 73.088 57.7607 73.088 57.5307C73.088 57.3007 72.898 57.1107 72.668 57.1107H64.328C64.098 57.1107 63.908 57.3007 63.908 57.5307C63.908 57.7607 64.098 57.9507 64.328 57.9507H72.668ZM72.198 61.5607C72.428 61.5607 72.618 61.3707 72.618 61.1407C72.618 60.9107 72.428 60.7207 72.198 60.7207H65.578V59.0407C65.578 58.7707 65.358 58.5907 65.078 58.5907C64.798 58.5907 64.578 58.7707 64.578 59.0407V61.0307C64.578 61.3707 64.768 61.5607 65.108 61.5607H72.198ZM76.9061 51.9407C76.6761 51.9107 76.5261 52.0507 76.4661 52.2607L75.9361 54.0807C75.8361 54.4107 76.0161 54.6007 76.2661 54.6507C76.5561 54.7107 76.8461 54.6107 76.8961 54.2707L77.1961 52.4007C77.2461 52.1107 77.0961 51.9607 76.9061 51.9407ZM83.6402 61.6107C83.9202 61.6107 84.1402 61.4307 84.1402 61.1607V57.0907H85.7102V61.1607C85.7102 61.4307 85.9302 61.6107 86.2102 61.6107C86.4902 61.6107 86.7102 61.4307 86.7102 61.1607V52.8407C86.7102 52.5707 86.4902 52.3907 86.2102 52.3907C85.9302 52.3907 85.7102 52.5707 85.7102 52.8407V56.2507H84.1402V52.8407C84.1402 52.5707 83.9202 52.3907 83.6402 52.3907C83.3602 52.3907 83.1402 52.5707 83.1402 52.8407V61.1607C83.1402 61.4307 83.3602 61.6107 83.6402 61.6107ZM78.8102 61.0707C79.9302 60.9607 81.0602 60.8307 82.1802 60.5107C82.4502 60.4307 82.5702 60.2707 82.5702 60.0407C82.5702 59.7707 82.3802 59.5407 82.0802 59.6307C81.1302 59.9207 80.1902 60.0607 79.2502 60.1307V53.2107C79.2502 52.9407 79.0302 52.7607 78.7502 52.7607C78.4702 52.7607 78.2502 52.9407 78.2502 53.2107V60.5807C78.2502 60.9307 78.4602 61.1007 78.8102 61.0707ZM97.1882 61.6107C97.4682 61.6107 97.6882 61.4307 97.6882 61.1607V57.0207H98.6582C98.8882 57.0207 99.0782 56.8307 99.0782 56.6007C99.0782 56.3707 98.8882 56.1807 98.6582 56.1807H97.6882V52.8407C97.6882 52.5707 97.4682 52.3907 97.1882 52.3907C96.9082 52.3907 96.6882 52.5707 96.6882 52.8407V61.1607C96.6882 61.4307 96.9082 61.6107 97.1882 61.6107ZM89.8582 60.9107C89.9782 60.9107 90.0682 60.8907 90.1682 60.8307C91.1782 60.2007 92.1682 59.1107 92.5182 57.8707C92.8682 59.1107 93.8582 60.2007 94.8582 60.8207C94.9682 60.8907 95.0582 60.9107 95.1482 60.9107C95.4182 60.9107 95.6382 60.6907 95.6382 60.4207C95.6382 60.2407 95.5482 60.0907 95.3982 60.0007C94.3482 59.4007 93.0182 57.9807 93.0182 55.7807V53.7607H94.9582C95.1882 53.7607 95.3782 53.5707 95.3782 53.3407C95.3782 53.1107 95.1882 52.9207 94.9582 52.9207H90.0782C89.8482 52.9207 89.6582 53.1107 89.6582 53.3407C89.6582 53.5707 89.8482 53.7607 90.0782 53.7607H92.0182V55.7807C92.0182 57.9807 90.6882 59.4007 89.6382 60.0007C89.4882 60.0907 89.3982 60.2407 89.3982 60.4207C89.3982 60.6907 89.6182 60.9107 89.8582 60.9107ZM106.498 59.1407C106.778 59.1407 106.998 58.9607 106.998 58.6907V55.8707H107.908C108.138 55.8707 108.328 55.6807 108.328 55.4507C108.328 55.2207 108.138 55.0307 107.908 55.0307H106.998V52.8407C106.998 52.5707 106.778 52.3907 106.498 52.3907C106.218 52.3907 105.998 52.5707 105.998 52.8407V58.6907C105.998 58.9607 106.218 59.1407 106.498 59.1407ZM99.1682 57.7207C99.2182 57.7207 99.2782 57.7007 99.3282 57.6807C100.408 57.2407 101.398 56.4607 101.698 55.5407C101.998 56.4607 102.978 57.2507 104.068 57.6907C104.118 57.7107 104.168 57.7207 104.228 57.7207C104.468 57.7207 104.668 57.5207 104.668 57.2807C104.668 57.0907 104.558 56.9407 104.388 56.8707C103.228 56.4107 102.198 55.4207 102.198 54.1207V52.9507C102.198 52.6807 101.978 52.5007 101.698 52.5007C101.418 52.5007 101.198 52.6807 101.198 52.9507V54.1207C101.198 55.4207 100.168 56.4107 99.0082 56.8707C98.8382 56.9407 98.7282 57.0907 98.7282 57.2807C98.7282 57.5207 98.9282 57.7207 99.1682 57.7207ZM106.828 61.5607C107.058 61.5607 107.248 61.3707 107.248 61.1407C107.248 60.9107 107.058 60.7207 106.828 60.7207H100.478V58.9107C100.478 58.6407 100.258 58.4607 99.9782 58.4607C99.6982 58.4607 99.4782 58.6407 99.4782 58.9107V61.0307C99.4782 61.3707 99.6682 61.5607 100.008 61.5607H106.828ZM108.528 54.3307C108.718 54.3507 108.918 54.2107 108.968 54.0107L109.368 52.4507C109.468 52.0807 109.268 51.9307 108.978 51.9107C108.658 51.8907 108.468 52.0407 108.428 52.3707L108.248 53.9107C108.208 54.2207 108.348 54.3107 108.528 54.3307ZM116.115 52.3907C115.835 52.3907 115.615 52.5707 115.615 52.8407V56.2807H114.155V54.5307C114.155 53.3407 113.275 52.5307 112.105 52.5307C110.935 52.5307 110.055 53.3407 110.055 54.5307V59.2907C110.055 60.4807 110.935 61.2907 112.105 61.2907C113.275 61.2907 114.155 60.4807 114.155 59.2907V57.1207H115.615V61.1607C115.615 61.4307 115.835 61.6107 116.115 61.6107C116.395 61.6107 116.615 61.4307 116.615 61.1607V52.8407C116.615 52.5707 116.395 52.3907 116.115 52.3907ZM118.075 52.3907C117.795 52.3907 117.575 52.5707 117.575 52.8407V61.1607C117.575 61.4307 117.795 61.6107 118.075 61.6107C118.355 61.6107 118.575 61.4307 118.575 61.1607V52.8407C118.575 52.5707 118.355 52.3907 118.075 52.3907ZM113.155 59.2907C113.155 60.0007 112.715 60.4507 112.105 60.4507C111.495 60.4507 111.055 60.0007 111.055 59.2907V54.5307C111.055 53.8407 111.495 53.3707 112.105 53.3707C112.715 53.3707 113.155 53.8407 113.155 54.5307V59.2907ZM127.155 61.6107C127.435 61.6107 127.655 61.4307 127.655 61.1607V52.8407C127.655 52.5707 127.435 52.3907 127.155 52.3907C126.875 52.3907 126.655 52.5707 126.655 52.8407V55.8207H124.675C124.445 55.8207 124.255 56.0107 124.255 56.2407C124.255 56.4707 124.445 56.6607 124.675 56.6607H126.655V61.1607C126.655 61.4307 126.875 61.6107 127.155 61.6107ZM119.485 60.8607C119.585 60.8607 119.675 60.8307 119.745 60.7807C120.805 60.0407 121.815 58.8707 122.155 57.6007C122.485 58.8707 123.495 60.0407 124.555 60.7807C124.625 60.8307 124.715 60.8607 124.815 60.8607C125.075 60.8607 125.285 60.6507 125.285 60.3907C125.285 60.2307 125.205 60.0907 125.075 60.0007C123.995 59.2907 122.655 57.8007 122.655 55.5807V53.1007C122.655 52.8307 122.435 52.6507 122.155 52.6507C121.875 52.6507 121.655 52.8307 121.655 53.1007V55.5807C121.655 57.8007 120.305 59.2907 119.225 60.0007C119.095 60.0907 119.015 60.2307 119.015 60.3907C119.015 60.6507 119.225 60.8607 119.485 60.8607ZM137.413 57.2607C137.413 57.0207 137.213 56.8207 136.973 56.8507C136.113 56.9607 135.253 57.0407 134.393 57.1107V56.1707H134.933C135.843 56.1707 136.503 55.5907 136.503 54.7507C136.503 54.3107 136.343 53.9507 136.223 53.8107H136.563C136.793 53.8107 136.983 53.6207 136.983 53.3907C136.983 53.1607 136.793 52.9707 136.563 52.9707H134.393V52.6007C134.393 52.3307 134.173 52.1507 133.893 52.1507C133.613 52.1507 133.393 52.3307 133.393 52.6007V52.9707H131.223C130.993 52.9707 130.803 53.1607 130.803 53.3907C130.803 53.6207 130.993 53.8107 131.223 53.8107H131.563C131.433 53.9507 131.293 54.3107 131.293 54.7507C131.293 55.5907 131.913 56.1707 132.823 56.1707H133.393V57.1807C132.533 57.2307 131.683 57.2707 130.823 57.3007C130.603 57.3107 130.433 57.5007 130.433 57.7207C130.433 57.9607 130.633 58.1507 130.873 58.1407C132.923 58.0707 134.963 57.9507 137.013 57.6907C137.233 57.6607 137.413 57.4807 137.413 57.2607ZM138.863 54.9207V52.8407C138.863 52.5707 138.643 52.3907 138.363 52.3907C138.083 52.3907 137.863 52.5707 137.863 52.8407V58.1207C137.863 58.3907 138.083 58.5707 138.363 58.5707C138.643 58.5707 138.863 58.3907 138.863 58.1207V55.7607H139.773C140.003 55.7607 140.193 55.5707 140.193 55.3407C140.193 55.1107 140.003 54.9207 139.773 54.9207H138.863ZM132.303 54.5607C132.303 54.1707 132.593 53.8107 133.063 53.8107H134.733C135.203 53.8107 135.503 54.1707 135.503 54.5607C135.503 55.0407 135.213 55.3307 134.743 55.3307H133.053C132.593 55.3307 132.303 55.0407 132.303 54.5607ZM131.553 58.9207C131.323 58.9207 131.133 59.1107 131.133 59.3407C131.133 59.5707 131.323 59.7607 131.553 59.7607H137.863V61.1907C137.863 61.4607 138.083 61.6407 138.363 61.6407C138.643 61.6407 138.863 61.4607 138.863 61.1907V59.4507C138.863 59.1107 138.673 58.9207 138.333 58.9207H131.553ZM147.973 59.0807C148.253 59.0807 148.473 58.9007 148.473 58.6307V52.8407C148.473 52.5707 148.253 52.3907 147.973 52.3907C147.693 52.3907 147.473 52.5707 147.473 52.8407V58.6307C147.473 58.9007 147.693 59.0807 147.973 59.0807ZM142.723 57.8107C144.193 57.8107 145.393 57.0807 145.393 55.6507V54.5907C145.393 53.1707 144.193 52.4307 142.723 52.4307C141.253 52.4307 140.053 53.1707 140.053 54.5907V55.6507C140.053 57.0807 141.253 57.8107 142.723 57.8107ZM142.733 56.9707C141.773 56.9707 141.053 56.5107 141.053 55.6107V54.6407C141.053 53.7407 141.773 53.2707 142.733 53.2707C143.673 53.2707 144.393 53.7407 144.393 54.6407V55.6107C144.393 56.5107 143.673 56.9707 142.733 56.9707ZM148.283 61.5607C148.513 61.5607 148.703 61.3707 148.703 61.1407C148.703 60.9107 148.513 60.7207 148.283 60.7207H141.593V58.9107C141.593 58.6407 141.373 58.4607 141.093 58.4607C140.813 58.4607 140.593 58.6407 140.593 58.9107V61.0307C140.593 61.3707 140.783 61.5607 141.123 61.5607H148.283ZM154.713 54.0907C154.943 54.0907 155.133 53.9007 155.133 53.6707C155.133 53.4407 154.943 53.2507 154.713 53.2507H152.583V52.6007C152.583 52.3307 152.363 52.1507 152.083 52.1507C151.803 52.1507 151.583 52.3307 151.583 52.6007V53.2507H149.453C149.223 53.2507 149.033 53.4407 149.033 53.6707C149.033 53.9007 149.223 54.0907 149.453 54.0907H154.713ZM156.863 57.4307C157.143 57.4307 157.363 57.2507 157.363 56.9807V55.2707H158.273C158.503 55.2707 158.693 55.0807 158.693 54.8507C158.693 54.6207 158.503 54.4307 158.273 54.4307H157.363V52.8407C157.363 52.5707 157.143 52.3907 156.863 52.3907C156.583 52.3907 156.363 52.5707 156.363 52.8407V56.9807C156.363 57.2507 156.583 57.4307 156.863 57.4307ZM153.443 57.2107C154.233 57.2107 154.863 56.7007 154.863 55.8707C154.863 55.0407 154.233 54.5207 153.443 54.5207H150.723C149.933 54.5207 149.303 55.0407 149.303 55.8707C149.303 56.7007 149.933 57.2107 150.723 57.2107H153.443ZM150.903 56.3707C150.513 56.3707 150.303 56.1607 150.303 55.8707C150.303 55.5807 150.513 55.3607 150.903 55.3607H153.263C153.653 55.3607 153.863 55.5807 153.863 55.8707C153.863 56.1607 153.653 56.3707 153.263 56.3707H150.903ZM157.193 61.5607C157.423 61.5607 157.613 61.3707 157.613 61.1407C157.613 60.9107 157.423 60.7207 157.193 60.7207H150.723V60.0907H156.833C157.173 60.0907 157.363 59.9007 157.363 59.5607V58.3707C157.363 58.0307 157.173 57.8407 156.833 57.8407H150.093C149.863 57.8407 149.673 58.0307 149.673 58.2607C149.673 58.4907 149.863 58.6807 150.093 58.6807H156.363V59.2907H150.253C149.913 59.2907 149.723 59.4807 149.723 59.8207V61.0307C149.723 61.3707 149.913 61.5607 150.253 61.5607H157.193ZM161.261 56.6307C163.111 56.4507 164.551 55.4707 165.021 54.3907C165.481 55.4707 166.931 56.4507 168.781 56.6307C169.021 56.6507 169.241 56.4607 169.241 56.2107C169.241 56.0007 169.071 55.8107 168.861 55.7907C167.021 55.6007 165.521 54.3707 165.521 53.1507V53.0307C165.521 52.7607 165.301 52.5807 165.021 52.5807C164.741 52.5807 164.521 52.7607 164.521 53.0307V53.1507C164.521 54.3707 163.031 55.6007 161.181 55.7907C160.971 55.8107 160.801 56.0007 160.801 56.2107C160.801 56.4607 161.021 56.6507 161.261 56.6307ZM165.021 61.7107C165.301 61.7107 165.521 61.5307 165.521 61.2607V58.6107H169.191C169.421 58.6107 169.611 58.4207 169.611 58.1907C169.611 57.9607 169.421 57.7707 169.191 57.7707H160.851C160.621 57.7707 160.431 57.9607 160.431 58.1907C160.431 58.4207 160.621 58.6107 160.851 58.6107H164.521V61.2607C164.521 61.5307 164.741 61.7107 165.021 61.7107ZM180.22 57.4407C180.5 57.4407 180.72 57.2607 180.72 56.9907V52.8407C180.72 52.5707 180.5 52.3907 180.22 52.3907C179.94 52.3907 179.72 52.5707 179.72 52.8407V56.9907C179.72 57.2607 179.94 57.4407 180.22 57.4407ZM174.97 57.1307C176.44 57.1307 177.64 56.4407 177.64 55.0707V54.4907C177.64 53.1307 176.44 52.4307 174.97 52.4307C173.5 52.4307 172.3 53.1307 172.3 54.4907V55.0707C172.3 56.4407 173.5 57.1307 174.97 57.1307ZM174.98 56.2907C174.02 56.2907 173.3 55.8707 173.3 55.0307V54.5407C173.3 53.7007 174.02 53.2707 174.98 53.2707C175.92 53.2707 176.64 53.7007 176.64 54.5407V55.0307C176.64 55.8707 175.92 56.2907 174.98 56.2907ZM176.49 61.6007C176.73 61.6907 176.93 61.6907 177.17 61.6007C178.03 61.3007 178.71 60.7307 178.93 60.0807C179.17 60.7707 179.86 61.3307 180.79 61.5607C181.05 61.6307 181.31 61.4307 181.31 61.1507C181.31 60.9607 181.17 60.8007 181 60.7507C179.98 60.4707 179.42 59.7207 179.42 58.7907V58.2807C179.42 58.0107 179.2 57.8307 178.92 57.8307C178.64 57.8307 178.42 58.0107 178.42 58.2807V58.7907C178.42 59.7507 177.66 60.5607 176.83 60.8707C176 60.5607 175.24 59.7507 175.24 58.8307V58.3807C175.24 58.1107 175.02 57.9307 174.74 57.9307C174.46 57.9307 174.24 58.1107 174.24 58.3807V58.8307C174.24 59.7207 173.66 60.4707 172.62 60.7507C172.44 60.8007 172.31 60.9607 172.31 61.1607C172.31 61.4307 172.57 61.6307 172.83 61.5707C173.79 61.3407 174.51 60.7807 174.74 60.0807C174.96 60.7107 175.63 61.2807 176.49 61.6007ZM189.46 52.3907C189.18 52.3907 188.96 52.5707 188.96 52.8407V56.2907H186.61V54.8807C186.61 53.4807 185.53 52.5307 184.08 52.5307C182.63 52.5307 181.55 53.4807 181.55 54.8807V58.9407C181.55 60.3407 182.63 61.2907 184.08 61.2907C185.53 61.2907 186.61 60.3407 186.61 58.9407V57.1307H188.96V61.1607C188.96 61.4307 189.18 61.6107 189.46 61.6107C189.74 61.6107 189.96 61.4307 189.96 61.1607V52.8407C189.96 52.5707 189.74 52.3907 189.46 52.3907ZM185.61 58.9907C185.61 59.8807 184.98 60.4507 184.08 60.4507C183.18 60.4507 182.55 59.8807 182.55 58.9907V54.8307C182.55 53.9607 183.18 53.3707 184.08 53.3707C184.98 53.3707 185.61 53.9607 185.61 54.8307V58.9907ZM196.62 57.7207C198.09 57.7207 199.13 56.6107 199.13 55.1807C199.13 53.7407 198.09 52.6307 196.62 52.6307H193.42C191.95 52.6307 190.91 53.7407 190.91 55.1807C190.91 56.6107 191.95 57.7207 193.42 57.7207H196.62ZM193.53 56.8807C192.6 56.8807 191.91 56.1807 191.91 55.1807C191.91 54.1807 192.6 53.4707 193.53 53.4707H196.51C197.45 53.4707 198.13 54.1807 198.13 55.1807C198.13 56.1807 197.45 56.8807 196.51 56.8807H193.53ZM199.19 61.2907C199.42 61.2907 199.61 61.1007 199.61 60.8707C199.61 60.6407 199.42 60.4507 199.19 60.4507H197.3V58.5707C197.3 58.3007 197.08 58.1207 196.8 58.1207C196.52 58.1207 196.3 58.3007 196.3 58.5707V60.4507H193.76V58.5707C193.76 58.3007 193.54 58.1207 193.26 58.1207C192.98 58.1207 192.76 58.3007 192.76 58.5707V60.4507H190.85C190.62 60.4507 190.43 60.6407 190.43 60.8707C190.43 61.1007 190.62 61.2907 190.85 61.2907H199.19ZM200.49 61.2407C200.75 61.2407 200.93 61.0607 200.93 60.8007V60.5707C200.93 60.3107 200.75 60.1307 200.49 60.1307H200.27C200.01 60.1307 199.83 60.3107 199.83 60.5707V60.8007C199.83 61.0607 200.01 61.2407 200.27 61.2407H200.49ZM8.36 73.9707C8.36 73.5207 7.96 73.1107 7.5 73.1107C7.04 73.1107 6.64 73.5207 6.64 73.9707C6.64 74.4507 7.04 74.8207 7.5 74.8207C7.96 74.8207 8.36 74.4507 8.36 73.9707ZM20.5 74.4807V73.2707H23.39C23.73 73.2707 23.92 73.0807 23.92 72.7407V69.8507C23.92 69.5807 23.7 69.4007 23.42 69.4007C23.14 69.4007 22.92 69.5807 22.92 69.8507V70.5007H17.08V69.8507C17.08 69.5807 16.86 69.4007 16.58 69.4007C16.3 69.4007 16.08 69.5807 16.08 69.8507V72.7407C16.08 73.0807 16.27 73.2707 16.61 73.2707H19.5V74.4807H15.83C15.6 74.4807 15.41 74.6707 15.41 74.9007C15.41 75.1307 15.6 75.3207 15.83 75.3207H24.17C24.4 75.3207 24.59 75.1307 24.59 74.9007C24.59 74.6707 24.4 74.4807 24.17 74.4807H20.5ZM22.92 71.3407V72.4307H17.08V71.3407H22.92ZM17.08 77.7207V76.3307C17.08 76.0607 16.86 75.8807 16.58 75.8807C16.3 75.8807 16.08 76.0607 16.08 76.3307V78.0307C16.08 78.3707 16.27 78.5607 16.61 78.5607H23.7C23.93 78.5607 24.12 78.3707 24.12 78.1407C24.12 77.9107 23.93 77.7207 23.7 77.7207H17.08ZM35.188 78.6107C35.468 78.6107 35.688 78.4307 35.688 78.1607V69.8407C35.688 69.5707 35.468 69.3907 35.188 69.3907C34.908 69.3907 34.688 69.5707 34.688 69.8407V78.1607C34.688 78.4307 34.908 78.6107 35.188 78.6107ZM29.928 78.2907C31.448 78.2907 32.578 77.3407 32.578 75.9407V71.8807C32.578 70.4807 31.448 69.5307 29.928 69.5307C28.408 69.5307 27.278 70.4807 27.278 71.8807V75.9407C27.278 77.3407 28.408 78.2907 29.928 78.2907ZM29.928 77.4507C28.958 77.4507 28.278 76.8807 28.278 75.9907V71.8307C28.278 70.9607 28.958 70.3707 29.928 70.3707C30.898 70.3707 31.578 70.9607 31.578 71.8307V75.9907C31.578 76.8807 30.898 77.4507 29.928 77.4507ZM40.078 74.7107C40.418 74.7107 40.608 74.5207 40.608 74.1807V72.6307H42.088V75.7707C42.088 76.0407 42.308 76.2207 42.588 76.2207C42.868 76.2207 43.088 76.0407 43.088 75.7707V69.8407C43.088 69.5707 42.868 69.3907 42.588 69.3907C42.308 69.3907 42.088 69.5707 42.088 69.8407V71.7907H40.608V70.0007C40.608 69.7307 40.388 69.5507 40.108 69.5507C39.828 69.5507 39.608 69.7307 39.608 70.0007V71.2307H37.528V70.0007C37.528 69.7307 37.308 69.5507 37.028 69.5507C36.748 69.5507 36.528 69.7307 36.528 70.0007V74.1807C36.528 74.5207 36.718 74.7107 37.058 74.7107H40.078ZM44.548 76.2207C44.828 76.2207 45.048 76.0407 45.048 75.7707V69.8407C45.048 69.5707 44.828 69.3907 44.548 69.3907C44.268 69.3907 44.048 69.5707 44.048 69.8407V75.7707C44.048 76.0407 44.268 76.2207 44.548 76.2207ZM39.608 72.0707V73.8707H37.528V72.0707H39.608ZM38.008 77.7207V75.9607C38.008 75.6907 37.788 75.5107 37.508 75.5107C37.228 75.5107 37.008 75.6907 37.008 75.9607V78.0307C37.008 78.3707 37.198 78.5607 37.538 78.5607H44.828C45.058 78.5607 45.248 78.3707 45.248 78.1407C45.248 77.9107 45.058 77.7207 44.828 77.7207H38.008ZM53.548 70.5207C53.778 70.5207 53.968 70.3307 53.968 70.1007C53.968 69.8707 53.778 69.6807 53.548 69.6807H46.448C46.218 69.6807 46.028 69.8707 46.028 70.1007C46.028 70.3307 46.218 70.5207 46.448 70.5207H53.548ZM53.648 75.1307C53.878 75.1307 54.068 74.9407 54.068 74.7107C54.068 74.4807 53.878 74.2907 53.648 74.2907H47.078V72.5307H53.508C53.738 72.5307 53.928 72.3407 53.928 72.1107C53.928 71.8807 53.738 71.6907 53.508 71.6907H46.608C46.268 71.6907 46.078 71.8807 46.078 72.2207V74.6007C46.078 74.9407 46.268 75.1307 46.608 75.1307H53.648ZM54.168 78.2907C54.398 78.2907 54.588 78.1007 54.588 77.8707C54.588 77.6407 54.398 77.4507 54.168 77.4507H45.828C45.598 77.4507 45.408 77.6407 45.408 77.8707C45.408 78.1007 45.598 78.2907 45.828 78.2907H54.168ZM62.848 72.7407C63.078 72.7407 63.268 72.5507 63.268 72.3207C63.268 72.0907 63.078 71.9007 62.848 71.9007H56.328V69.8607C56.328 69.5907 56.108 69.4107 55.828 69.4107C55.548 69.4107 55.328 69.5907 55.328 69.8607V72.2107C55.328 72.5507 55.518 72.7407 55.858 72.7407H62.848ZM63.418 74.7407C63.648 74.7407 63.838 74.5507 63.838 74.3207C63.838 74.0907 63.648 73.9007 63.418 73.9007H55.078C54.848 73.9007 54.658 74.0907 54.658 74.3207C54.658 74.5507 54.848 74.7407 55.078 74.7407H63.418ZM62.948 78.5607C63.178 78.5607 63.368 78.3707 63.368 78.1407C63.368 77.9107 63.178 77.7207 62.948 77.7207H56.328V75.9207C56.328 75.6507 56.108 75.4707 55.828 75.4707C55.548 75.4707 55.328 75.6507 55.328 75.9207V78.0307C55.328 78.3707 55.518 78.5607 55.858 78.5607H62.948ZM67.0661 73.1107C68.8861 72.9807 70.3061 72.3807 70.7461 71.5507C71.1861 72.3807 72.6061 72.9807 74.4261 73.1107C74.6661 73.1307 74.8761 72.9307 74.8761 72.6907C74.8761 72.4707 74.6961 72.2807 74.4861 72.2707C72.6961 72.1507 71.2661 71.4207 71.2661 70.5807V70.4707H74.2961C74.5261 70.4707 74.7161 70.2807 74.7161 70.0507C74.7161 69.8207 74.5261 69.6307 74.2961 69.6307H67.1961C66.9661 69.6307 66.7761 69.8207 66.7761 70.0507C66.7761 70.2807 66.9661 70.4707 67.1961 70.4707H70.2261V70.5807C70.2261 71.4207 68.7961 72.1507 67.0061 72.2707C66.7961 72.2807 66.6161 72.4707 66.6161 72.6907C66.6161 72.9307 66.8261 73.1307 67.0661 73.1107ZM70.2661 74.7807V76.2507C70.2661 76.5207 70.4861 76.7007 70.7661 76.7007C71.0461 76.7007 71.2661 76.5207 71.2661 76.2507V74.7807H74.9161C75.1461 74.7807 75.3361 74.5907 75.3361 74.3607C75.3361 74.1307 75.1461 73.9407 74.9161 73.9407H66.5761C66.3461 73.9407 66.1561 74.1307 66.1561 74.3607C66.1561 74.5907 66.3461 74.7807 66.5761 74.7807H70.2661ZM74.4461 78.5607C74.6761 78.5607 74.8661 78.3707 74.8661 78.1407C74.8661 77.9107 74.6761 77.7207 74.4461 77.7207H67.8261V75.9507C67.8261 75.6807 67.6061 75.5007 67.3261 75.5007C67.0461 75.5007 66.8261 75.6807 66.8261 75.9507V78.0307C66.8261 78.3707 67.0161 78.5607 67.3561 78.5607H74.4461ZM83.6261 69.3907C83.3461 69.3907 83.1261 69.5707 83.1261 69.8407V78.1607C83.1261 78.4307 83.3461 78.6107 83.6261 78.6107C83.9061 78.6107 84.1261 78.4307 84.1261 78.1607V69.8407C84.1261 69.5707 83.9061 69.3907 83.6261 69.3907ZM80.5061 69.7807C80.2261 69.7807 80.0061 69.9607 80.0061 70.2307V72.4807H76.8361V70.2307C76.8361 69.9607 76.6161 69.7807 76.3361 69.7807C76.0561 69.7807 75.8361 69.9607 75.8361 70.2307V77.5807C75.8361 77.9307 76.0461 78.1207 76.3961 78.0807L80.0061 77.6607V77.7407C80.0061 78.0107 80.2261 78.1907 80.5061 78.1907C80.7861 78.1907 81.0061 78.0107 81.0061 77.7407V70.2307C81.0061 69.9607 80.7861 69.7807 80.5061 69.7807ZM76.8361 73.3207H80.0061V76.8107L76.8361 77.1807V73.3207ZM90.4361 71.0907C90.6661 71.0907 90.8561 70.9007 90.8561 70.6707C90.8561 70.4407 90.6661 70.2507 90.4361 70.2507H88.3061V69.6007C88.3061 69.3307 88.0861 69.1507 87.8061 69.1507C87.5261 69.1507 87.3061 69.3307 87.3061 69.6007V70.2507H85.1761C84.9461 70.2507 84.7561 70.4407 84.7561 70.6707C84.7561 70.9007 84.9461 71.0907 85.1761 71.0907H90.4361ZM92.5861 76.2507C92.8661 76.2507 93.0861 76.0707 93.0861 75.8007V72.9307H93.9961C94.2261 72.9307 94.4161 72.7407 94.4161 72.5107C94.4161 72.2807 94.2261 72.0907 93.9961 72.0907H93.0861V69.8407C93.0861 69.5707 92.8661 69.3907 92.5861 69.3907C92.3061 69.3907 92.0861 69.5707 92.0861 69.8407V75.8007C92.0861 76.0707 92.3061 76.2507 92.5861 76.2507ZM85.0261 73.3607C85.0261 74.4107 85.7961 75.0807 86.6961 75.0807H88.9161C89.8161 75.0807 90.5861 74.4107 90.5861 73.3607C90.5861 72.3107 89.8161 71.6407 88.9161 71.6407H86.6961C85.7961 71.6407 85.0261 72.3107 85.0261 73.3607ZM87.0261 74.2407C86.3761 74.2407 86.0261 73.8507 86.0261 73.3607C86.0261 72.8707 86.3761 72.4807 87.0261 72.4807H88.5861C89.2361 72.4807 89.5861 72.8707 89.5861 73.3607C89.5861 73.8507 89.2361 74.2407 88.5861 74.2407H87.0261ZM92.9161 78.5607C93.1461 78.5607 93.3361 78.3707 93.3361 78.1407C93.3361 77.9107 93.1461 77.7207 92.9161 77.7207H86.5061V76.0707C86.5061 75.8007 86.2861 75.6207 86.0061 75.6207C85.7261 75.6207 85.5061 75.8007 85.5061 76.0707V78.0307C85.5061 78.3707 85.6961 78.5607 86.0361 78.5607H92.9161ZM96.9841 73.6307C98.8341 73.4507 100.274 72.4707 100.744 71.3907C101.204 72.4707 102.654 73.4507 104.504 73.6307C104.744 73.6507 104.964 73.4607 104.964 73.2107C104.964 73.0007 104.794 72.8107 104.584 72.7907C102.744 72.6007 101.244 71.3707 101.244 70.1507V70.0307C101.244 69.7607 101.024 69.5807 100.744 69.5807C100.464 69.5807 100.244 69.7607 100.244 70.0307V70.1507C100.244 71.3707 98.7541 72.6007 96.9041 72.7907C96.6941 72.8107 96.5241 73.0007 96.5241 73.2107C96.5241 73.4607 96.7441 73.6507 96.9841 73.6307ZM100.744 78.7107C101.024 78.7107 101.244 78.5307 101.244 78.2607V75.6107H104.914C105.144 75.6107 105.334 75.4207 105.334 75.1907C105.334 74.9607 105.144 74.7707 104.914 74.7707H96.5741C96.3441 74.7707 96.1541 74.9607 96.1541 75.1907C96.1541 75.4207 96.3441 75.6107 96.5741 75.6107H100.244V78.2607C100.244 78.5307 100.464 78.7107 100.744 78.7107ZM113.834 72.4507V71.4307H114.704C114.934 71.4307 115.124 71.2407 115.124 71.0107C115.124 70.7807 114.934 70.5907 114.704 70.5907H113.834V69.8407C113.834 69.5707 113.614 69.3907 113.334 69.3907C113.054 69.3907 112.834 69.5707 112.834 69.8407V74.5007C112.834 74.7707 113.054 74.9507 113.334 74.9507C113.614 74.9507 113.834 74.7707 113.834 74.5007V73.2907H114.704C114.934 73.2907 115.124 73.1007 115.124 72.8707C115.124 72.6407 114.934 72.4507 114.704 72.4507H113.834ZM106.324 74.5607C107.934 74.4907 109.554 74.3807 111.164 74.1207C111.374 74.0907 111.554 73.9207 111.554 73.7007C111.554 73.4507 111.344 73.2407 111.104 73.2807C109.664 73.5207 108.214 73.6507 106.774 73.7007V72.4107H110.174C110.514 72.4107 110.704 72.2207 110.704 71.8807V70.1807C110.704 69.8407 110.514 69.6507 110.174 69.6507H106.144C105.914 69.6507 105.724 69.8407 105.724 70.0707C105.724 70.3007 105.914 70.4907 106.144 70.4907H109.704V71.5707H106.304C105.964 71.5707 105.774 71.7607 105.774 72.1007V74.0507C105.774 74.4007 105.974 74.5807 106.324 74.5607ZM107.934 75.2207C106.874 75.2207 106.034 75.9007 106.034 76.9107C106.034 77.9207 106.874 78.6107 107.934 78.6107H112.194C113.264 78.6107 114.104 77.9207 114.104 76.9107C114.104 75.9007 113.264 75.2207 112.194 75.2207H107.934ZM107.994 77.7707C107.454 77.7707 107.034 77.4407 107.034 76.9107C107.034 76.3907 107.454 76.0607 107.994 76.0607H112.134C112.684 76.0607 113.104 76.3907 113.104 76.9107C113.104 77.4407 112.684 77.7707 112.134 77.7707H107.994ZM122.934 78.6107C123.214 78.6107 123.434 78.4307 123.434 78.1607V69.8407C123.434 69.5707 123.214 69.3907 122.934 69.3907C122.654 69.3907 122.434 69.5707 122.434 69.8407V78.1607C122.434 78.4307 122.654 78.6107 122.934 78.6107ZM117.674 78.2907C119.194 78.2907 120.324 77.3407 120.324 75.9407V71.8807C120.324 70.4807 119.194 69.5307 117.674 69.5307C116.154 69.5307 115.024 70.4807 115.024 71.8807V75.9407C115.024 77.3407 116.154 78.2907 117.674 78.2907ZM117.674 77.4507C116.704 77.4507 116.024 76.8807 116.024 75.9907V71.8307C116.024 70.9607 116.704 70.3707 117.674 70.3707C118.644 70.3707 119.324 70.9607 119.324 71.8307V75.9907C119.324 76.8807 118.644 77.4507 117.674 77.4507ZM126.952 74.5507C128.752 74.3307 130.282 73.2907 130.742 72.1107C131.202 73.2907 132.732 74.3307 134.532 74.5507C134.782 74.5807 135.002 74.3807 135.002 74.1307C135.002 73.9207 134.842 73.7407 134.642 73.7107C132.802 73.4507 131.242 72.1007 131.242 70.7807V69.9807C131.242 69.7107 131.022 69.5307 130.742 69.5307C130.462 69.5307 130.242 69.7107 130.242 69.9807V70.7807C130.242 72.1007 128.702 73.4507 126.842 73.7107C126.642 73.7407 126.482 73.9207 126.482 74.1307C126.482 74.3907 126.702 74.5807 126.952 74.5507ZM134.912 78.2907C135.142 78.2907 135.332 78.1007 135.332 77.8707C135.332 77.6407 135.142 77.4507 134.912 77.4507H131.242V75.2307C131.242 74.9607 131.022 74.7807 130.742 74.7807C130.462 74.7807 130.242 74.9607 130.242 75.2307V77.4507H126.572C126.342 77.4507 126.152 77.6407 126.152 77.8707C126.152 78.1007 126.342 78.2907 126.572 78.2907H134.912ZM143.632 76.2607C143.912 76.2607 144.132 76.0807 144.132 75.8107V69.8407C144.132 69.5707 143.912 69.3907 143.632 69.3907C143.352 69.3907 143.132 69.5707 143.132 69.8407V75.8107C143.132 76.0807 143.352 76.2607 143.632 76.2607ZM136.122 74.6807C137.252 74.3907 138.232 73.7607 138.532 72.7407C138.822 73.7607 139.802 74.3907 140.942 74.6807C141.222 74.7507 141.502 74.5407 141.502 74.2507C141.502 74.0407 141.352 73.8607 141.162 73.8107C140.032 73.5307 139.032 72.7007 139.032 71.2407V70.5507H140.982C141.212 70.5507 141.402 70.3607 141.402 70.1307C141.402 69.9007 141.212 69.7107 140.982 69.7107H136.082C135.852 69.7107 135.662 69.9007 135.662 70.1307C135.662 70.3607 135.852 70.5507 136.082 70.5507H138.032V71.2407C138.032 72.7007 137.032 73.5307 135.902 73.8107C135.712 73.8607 135.562 74.0407 135.562 74.2507C135.562 74.5407 135.842 74.7507 136.122 74.6807ZM143.942 78.5607C144.172 78.5607 144.362 78.3707 144.362 78.1407C144.362 77.9107 144.172 77.7207 143.942 77.7207H137.372V75.9007C137.372 75.6307 137.152 75.4507 136.872 75.4507C136.592 75.4507 136.372 75.6307 136.372 75.9007V78.0307C136.372 78.3707 136.562 78.5607 136.902 78.5607H143.942ZM152.882 69.3907C152.602 69.3907 152.382 69.5707 152.382 69.8407V78.1607C152.382 78.4307 152.602 78.6107 152.882 78.6107C153.162 78.6107 153.382 78.4307 153.382 78.1607V69.8407C153.382 69.5707 153.162 69.3907 152.882 69.3907ZM150.652 74.3307C150.882 74.3307 151.072 74.1407 151.072 73.9107C151.072 73.6807 150.882 73.4907 150.652 73.4907H146.402V70.5207H150.552C150.782 70.5207 150.972 70.3307 150.972 70.1007C150.972 69.8707 150.782 69.6807 150.552 69.6807H145.932C145.592 69.6807 145.402 69.8707 145.402 70.2107V73.8007C145.402 74.1407 145.592 74.3307 145.932 74.3307H150.652ZM151.482 76.8707C150.602 77.0207 149.732 77.1407 148.852 77.2307V75.2507C148.852 74.9807 148.632 74.8007 148.352 74.8007C148.072 74.8007 147.852 74.9807 147.852 75.2507V77.3107C146.952 77.3807 146.062 77.4307 145.162 77.4707C144.952 77.4807 144.772 77.6607 144.772 77.8907C144.772 78.1207 144.982 78.3107 145.222 78.3007C147.332 78.2107 149.432 78.0707 151.542 77.7007C151.752 77.6607 151.932 77.4907 151.932 77.2607C151.932 77.0307 151.722 76.8307 151.482 76.8707ZM158.792 74.5707C159.132 74.5707 159.322 74.3807 159.322 74.0407V73.5607H161.692V75.7307C161.692 76.0007 161.912 76.1807 162.192 76.1807C162.472 76.1807 162.692 76.0007 162.692 75.7307V69.8407C162.692 69.5707 162.472 69.3907 162.192 69.3907C161.912 69.3907 161.692 69.5707 161.692 69.8407V70.6307H159.322V70.1807C159.322 69.8407 159.132 69.6507 158.792 69.6507H154.862C154.522 69.6507 154.332 69.8407 154.332 70.1807V74.0407C154.332 74.3807 154.522 74.5707 154.862 74.5707H158.792ZM158.322 70.4907V73.7307H155.332V70.4907H158.322ZM161.692 72.7207H159.322V71.4707H161.692V72.7207ZM155.812 77.7107V75.9107C155.812 75.6407 155.592 75.4607 155.312 75.4607C155.032 75.4607 154.812 75.6407 154.812 75.9107V78.0307C154.812 78.3707 155.002 78.5607 155.342 78.5607H162.502C162.732 78.5607 162.922 78.3707 162.922 78.1407C162.922 77.9007 162.732 77.7107 162.502 77.7107H155.812ZM166.26 74.8007C168.07 74.5907 169.53 73.5907 169.99 72.4607C170.45 73.5907 171.91 74.5907 173.72 74.8007C173.97 74.8307 174.19 74.6207 174.19 74.3807C174.19 74.1607 174.03 73.9907 173.82 73.9607C172.12 73.7607 170.51 72.5407 170.51 71.1607V70.5807H173.67C173.9 70.5807 174.09 70.3907 174.09 70.1607C174.09 69.9307 173.9 69.7407 173.67 69.7407H166.31C166.08 69.7407 165.89 69.9307 165.89 70.1607C165.89 70.3907 166.08 70.5807 166.31 70.5807H169.47V71.1607C169.47 72.5407 167.87 73.7607 166.16 73.9607C165.95 73.9907 165.79 74.1607 165.79 74.3807C165.79 74.6307 166.01 74.8307 166.26 74.8007ZM174.16 78.2907C174.39 78.2907 174.58 78.1007 174.58 77.8707C174.58 77.6407 174.39 77.4507 174.16 77.4507H170.49V75.2807C170.49 75.0107 170.27 74.7807 169.99 74.7807C169.71 74.7807 169.49 75.0107 169.49 75.2807V77.4507H165.82C165.59 77.4507 165.4 77.6407 165.4 77.8707C165.4 78.1007 165.59 78.2907 165.82 78.2907H174.16ZM182.87 78.6107C183.15 78.6107 183.37 78.4307 183.37 78.1607V69.8407C183.37 69.5707 183.15 69.3907 182.87 69.3907C182.59 69.3907 182.37 69.5707 182.37 69.8407V78.1607C182.37 78.4307 182.59 78.6107 182.87 78.6107ZM175.42 78.1207C178.48 77.3107 180.36 74.9007 180.36 70.5807V70.4607C180.36 70.0707 180.15 69.8607 179.76 69.8607H175.34C175.11 69.8607 174.92 70.0507 174.92 70.2807C174.92 70.5107 175.11 70.7007 175.34 70.7007H179.36C179.37 74.4307 177.85 76.5307 175.19 77.2707C175.01 77.3207 174.87 77.4907 174.87 77.6907C174.87 77.9807 175.15 78.1907 175.42 78.1207ZM190.33 69.3907C190.05 69.3907 189.83 69.5707 189.83 69.8407V73.2807H188.37V71.5307C188.37 70.3407 187.49 69.5307 186.32 69.5307C185.15 69.5307 184.27 70.3407 184.27 71.5307V76.2907C184.27 77.4807 185.15 78.2907 186.32 78.2907C187.49 78.2907 188.37 77.4807 188.37 76.2907V74.1207H189.83V78.1607C189.83 78.4307 190.05 78.6107 190.33 78.6107C190.61 78.6107 190.83 78.4307 190.83 78.1607V69.8407C190.83 69.5707 190.61 69.3907 190.33 69.3907ZM192.29 69.3907C192.01 69.3907 191.79 69.5707 191.79 69.8407V78.1607C191.79 78.4307 192.01 78.6107 192.29 78.6107C192.57 78.6107 192.79 78.4307 192.79 78.1607V69.8407C192.79 69.5707 192.57 69.3907 192.29 69.3907ZM187.37 76.2907C187.37 77.0007 186.93 77.4507 186.32 77.4507C185.71 77.4507 185.27 77.0007 185.27 76.2907V71.5307C185.27 70.8407 185.71 70.3707 186.32 70.3707C186.93 70.3707 187.37 70.8407 187.37 71.5307V76.2907ZM196.308 72.9807C198.128 72.8507 199.548 72.2507 199.988 71.4207C200.428 72.2507 201.848 72.8507 203.668 72.9807C203.908 73.0007 204.118 72.8007 204.118 72.5607C204.118 72.3407 203.948 72.1607 203.728 72.1407C201.938 72.0207 200.508 71.3007 200.508 70.4807V70.4707H203.538C203.768 70.4707 203.958 70.2807 203.958 70.0507C203.958 69.8207 203.768 69.6307 203.538 69.6307H196.438C196.208 69.6307 196.018 69.8207 196.018 70.0507C196.018 70.2807 196.208 70.4707 196.438 70.4707H199.468V70.4807C199.468 71.3007 198.038 72.0207 196.248 72.1407C196.028 72.1607 195.858 72.3407 195.858 72.5607C195.858 72.8007 196.068 73.0007 196.308 72.9807ZM204.158 74.6407C204.388 74.6407 204.578 74.4507 204.578 74.2207C204.578 73.9907 204.388 73.8007 204.158 73.8007H200.488V73.0407C200.488 72.7707 200.268 72.5907 199.988 72.5907C199.708 72.5907 199.488 72.7707 199.488 73.0407V73.8007H195.818C195.588 73.8007 195.398 73.9907 195.398 74.2207C195.398 74.4507 195.588 74.6407 195.818 74.6407H204.158ZM202.428 78.5807C203.448 78.5807 204.058 77.8307 204.058 76.9707C204.058 76.1307 203.448 75.3707 202.428 75.3707H197.548C196.528 75.3707 195.918 76.1307 195.918 76.9707C195.918 77.8307 196.528 78.5807 197.548 78.5807H202.428ZM197.738 77.7407C197.258 77.7407 196.918 77.4107 196.918 76.9607C196.918 76.5307 197.258 76.2107 197.738 76.2107H202.218C202.708 76.2107 203.058 76.5307 203.058 76.9607C203.058 77.4107 202.708 77.7407 202.218 77.7407H197.738ZM212.888 74.7907C213.118 74.7907 213.308 74.6007 213.308 74.3707C213.308 74.1407 213.118 73.9507 212.888 73.9507H206.318V72.6307H212.628C212.968 72.6307 213.158 72.4407 213.158 72.1007V70.2107C213.158 69.8707 212.968 69.6807 212.628 69.6807H205.688C205.458 69.6807 205.268 69.8707 205.268 70.1007C205.268 70.3307 205.458 70.5207 205.688 70.5207H212.158V71.7907H205.848C205.508 71.7907 205.318 71.9807 205.318 72.3207V74.2607C205.318 74.6007 205.508 74.7907 205.848 74.7907H212.888ZM213.408 78.2907C213.638 78.2907 213.828 78.1007 213.828 77.8707C213.828 77.6407 213.638 77.4507 213.408 77.4507H211.518V75.7307C211.518 75.4607 211.298 75.2807 211.018 75.2807C210.738 75.2807 210.518 75.4607 210.518 75.7307V77.4507H207.978V75.7307C207.978 75.4607 207.758 75.2807 207.478 75.2807C207.198 75.2807 206.978 75.4607 206.978 75.7307V77.4507H205.068C204.838 77.4507 204.648 77.6407 204.648 77.8707C204.648 78.1007 204.838 78.2907 205.068 78.2907H213.408ZM222.128 74.5207C222.408 74.5207 222.628 74.3407 222.628 74.0707V69.8407C222.628 69.5707 222.408 69.3907 222.128 69.3907C221.848 69.3907 221.628 69.5707 221.628 69.8407V74.0707C221.628 74.3407 221.848 74.5207 222.128 74.5207ZM221.178 73.5107C221.178 73.2707 220.968 73.0707 220.738 73.1007C219.828 73.2007 218.918 73.2807 218.008 73.3307V72.4407H219.918C220.148 72.4407 220.338 72.2507 220.338 72.0207C220.338 71.7907 220.148 71.6007 219.918 71.6007H215.648V70.4707H219.818C220.048 70.4707 220.238 70.2807 220.238 70.0507C220.238 69.8207 220.048 69.6307 219.818 69.6307H215.178C214.838 69.6307 214.648 69.8207 214.648 70.1607V71.9107C214.648 72.2507 214.838 72.4407 215.178 72.4407H217.008V73.3907C216.088 73.4307 215.158 73.4607 214.238 73.4807C214.018 73.4907 213.838 73.6807 213.838 73.9007C213.838 74.1407 214.048 74.3307 214.278 74.3207C216.448 74.2707 218.608 74.1807 220.778 73.9407C220.998 73.9207 221.178 73.7307 221.178 73.5107ZM215.808 77.7207V77.1007H222.098C222.438 77.1007 222.628 76.9107 222.628 76.5707V75.4007C222.628 75.0607 222.438 74.8707 222.098 74.8707H215.178C214.948 74.8707 214.758 75.0607 214.758 75.2907C214.758 75.5207 214.948 75.7107 215.178 75.7107H221.628V76.2607H215.338C214.998 76.2607 214.808 76.4507 214.808 76.7907V78.0307C214.808 78.3707 214.998 78.5607 215.338 78.5607H222.438C222.668 78.5607 222.858 78.3707 222.858 78.1407C222.858 77.9107 222.668 77.7207 222.438 77.7207H215.808ZM226.226 73.6307C228.076 73.4507 229.516 72.4707 229.986 71.3907C230.446 72.4707 231.896 73.4507 233.746 73.6307C233.986 73.6507 234.206 73.4607 234.206 73.2107C234.206 73.0007 234.036 72.8107 233.826 72.7907C231.986 72.6007 230.486 71.3707 230.486 70.1507V70.0307C230.486 69.7607 230.266 69.5807 229.986 69.5807C229.706 69.5807 229.486 69.7607 229.486 70.0307V70.1507C229.486 71.3707 227.996 72.6007 226.146 72.7907C225.936 72.8107 225.766 73.0007 225.766 73.2107C225.766 73.4607 225.986 73.6507 226.226 73.6307ZM229.986 78.7107C230.266 78.7107 230.486 78.5307 230.486 78.2607V75.6107H234.156C234.386 75.6107 234.576 75.4207 234.576 75.1907C234.576 74.9607 234.386 74.7707 234.156 74.7707H225.816C225.586 74.7707 225.396 74.9607 225.396 75.1907C225.396 75.4207 225.586 75.6107 225.816 75.6107H229.486V78.2607C229.486 78.5307 229.706 78.7107 229.986 78.7107ZM245.184 74.4407C245.464 74.4407 245.684 74.2607 245.684 73.9907V69.8407C245.684 69.5707 245.464 69.3907 245.184 69.3907C244.904 69.3907 244.684 69.5707 244.684 69.8407V73.9907C244.684 74.2607 244.904 74.4407 245.184 74.4407ZM239.934 74.1307C241.404 74.1307 242.604 73.4407 242.604 72.0707V71.4907C242.604 70.1307 241.404 69.4307 239.934 69.4307C238.464 69.4307 237.264 70.1307 237.264 71.4907V72.0707C237.264 73.4407 238.464 74.1307 239.934 74.1307ZM239.944 73.2907C238.984 73.2907 238.264 72.8707 238.264 72.0307V71.5407C238.264 70.7007 238.984 70.2707 239.944 70.2707C240.884 70.2707 241.604 70.7007 241.604 71.5407V72.0307C241.604 72.8707 240.884 73.2907 239.944 73.2907ZM241.454 78.6007C241.694 78.6907 241.894 78.6907 242.134 78.6007C242.994 78.3007 243.674 77.7307 243.894 77.0807C244.134 77.7707 244.824 78.3307 245.754 78.5607C246.014 78.6307 246.274 78.4307 246.274 78.1507C246.274 77.9607 246.134 77.8007 245.964 77.7507C244.944 77.4707 244.384 76.7207 244.384 75.7907V75.2807C244.384 75.0107 244.164 74.8307 243.884 74.8307C243.604 74.8307 243.384 75.0107 243.384 75.2807V75.7907C243.384 76.7507 242.624 77.5607 241.794 77.8707C240.964 77.5607 240.204 76.7507 240.204 75.8307V75.3807C240.204 75.1107 239.984 74.9307 239.704 74.9307C239.424 74.9307 239.204 75.1107 239.204 75.3807V75.8307C239.204 76.7207 238.624 77.4707 237.584 77.7507C237.404 77.8007 237.274 77.9607 237.274 78.1607C237.274 78.4307 237.534 78.6307 237.794 78.5707C238.754 78.3407 239.474 77.7807 239.704 77.0807C239.924 77.7107 240.594 78.2807 241.454 78.6007ZM254.424 69.3907C254.144 69.3907 253.924 69.5707 253.924 69.8407V73.2907H251.574V71.8807C251.574 70.4807 250.494 69.5307 249.044 69.5307C247.594 69.5307 246.514 70.4807 246.514 71.8807V75.9407C246.514 77.3407 247.594 78.2907 249.044 78.2907C250.494 78.2907 251.574 77.3407 251.574 75.9407V74.1307H253.924V78.1607C253.924 78.4307 254.144 78.6107 254.424 78.6107C254.704 78.6107 254.924 78.4307 254.924 78.1607V69.8407C254.924 69.5707 254.704 69.3907 254.424 69.3907ZM250.574 75.9907C250.574 76.8807 249.944 77.4507 249.044 77.4507C248.144 77.4507 247.514 76.8807 247.514 75.9907V71.8307C247.514 70.9607 248.144 70.3707 249.044 70.3707C249.944 70.3707 250.574 70.9607 250.574 71.8307V75.9907ZM261.584 74.7207C263.054 74.7207 264.094 73.6107 264.094 72.1807C264.094 70.7407 263.054 69.6307 261.584 69.6307H258.384C256.914 69.6307 255.874 70.7407 255.874 72.1807C255.874 73.6107 256.914 74.7207 258.384 74.7207H261.584ZM258.494 73.8807C257.564 73.8807 256.874 73.1807 256.874 72.1807C256.874 71.1807 257.564 70.4707 258.494 70.4707H261.474C262.414 70.4707 263.094 71.1807 263.094 72.1807C263.094 73.1807 262.414 73.8807 261.474 73.8807H258.494ZM264.154 78.2907C264.384 78.2907 264.574 78.1007 264.574 77.8707C264.574 77.6407 264.384 77.4507 264.154 77.4507H262.264V75.5707C262.264 75.3007 262.044 75.1207 261.764 75.1207C261.484 75.1207 261.264 75.3007 261.264 75.5707V77.4507H258.724V75.5707C258.724 75.3007 258.504 75.1207 258.224 75.1207C257.944 75.1207 257.724 75.3007 257.724 75.5707V77.4507H255.814C255.584 77.4507 255.394 77.6407 255.394 77.8707C255.394 78.1007 255.584 78.2907 255.814 78.2907H264.154ZM265.454 78.2407C265.714 78.2407 265.894 78.0607 265.894 77.8007V77.5707C265.894 77.3107 265.714 77.1307 265.454 77.1307H265.234C264.974 77.1307 264.794 77.3107 264.794 77.5707V77.8007C264.794 78.0607 264.974 78.2407 265.234 78.2407H265.454Z" fill="#A1A1A1"/>
</svg>
