<svg viewBox="0 0 94 29" fill="none" xmlns="http://www.w3.org/2000/svg">
<rect width="94" height="29" rx="14.5" fill="#7C492C"/>
<path d="M30.2767 21.324C30.8087 21.324 31.2427 20.89 31.2427 20.358V17.376C31.2427 16.844 30.8087 16.41 30.2767 16.41H21.0367C20.5047 16.41 20.0707 16.844 20.0707 17.376V20.358C20.0707 20.89 20.5047 21.324 21.0367 21.324H30.2767ZM19.3427 14.66C19.3427 15.29 19.8047 15.752 20.4627 15.752C20.6447 15.752 20.8407 15.71 21.0087 15.64C22.0027 15.234 22.9967 14.59 23.6267 13.498C24.2567 14.506 25.2367 15.094 26.2167 15.5C26.3847 15.57 26.5807 15.612 26.7627 15.612C27.4207 15.612 27.8827 15.15 27.8827 14.52C27.8827 13.96 27.5887 13.638 27.2107 13.484C26.1327 13.05 25.2087 12.364 24.9427 11.258H26.8327C27.4347 11.258 27.8407 10.866 27.8407 10.292C27.8407 9.69 27.4347 9.298 26.8327 9.298H24.8727V9.018C24.8727 8.304 24.3127 7.898 23.6127 7.898C22.9127 7.898 22.3527 8.304 22.3527 9.018V9.298H20.3927C19.8467 9.298 19.4127 9.69 19.4127 10.292C19.4127 10.866 19.8467 11.258 20.3927 11.258H22.2827C22.0167 12.434 21.0927 13.19 20.0147 13.624C19.6367 13.778 19.3427 14.1 19.3427 14.66ZM28.7227 14.8C28.7227 15.528 29.2827 16.06 29.9827 16.06C30.6827 16.06 31.2427 15.528 31.2427 14.8V12.952H31.9987C32.5447 12.952 32.9787 12.518 32.9787 11.972C32.9787 11.426 32.5447 10.992 31.9987 10.992H31.2427V9.438C31.2427 8.724 30.6827 8.178 29.9827 8.178C29.2827 8.178 28.7227 8.724 28.7227 9.438V14.8ZM22.5627 18.314H28.7507V19.42H22.5627V18.314ZM33.2027 17.796C33.2027 19.728 34.8687 20.974 36.9407 20.974C38.9567 20.974 40.6087 19.784 40.6927 17.936H42.9747V20.204C42.9747 20.932 43.5347 21.464 44.2347 21.464C44.9347 21.464 45.4947 20.932 45.4947 20.204V9.438C45.4947 8.724 44.9347 8.178 44.2347 8.178C43.5347 8.178 42.9747 8.724 42.9747 9.438V11.524H40.6787C40.5807 9.704 38.9427 8.528 36.9407 8.528C34.8687 8.528 33.2027 9.788 33.2027 11.72V17.796ZM35.6947 11.86C35.6947 11.09 36.2687 10.6 36.9547 10.6C37.6407 10.6 38.2007 11.09 38.2007 11.86V17.656C38.2007 18.426 37.6407 18.902 36.9547 18.902C36.2687 18.902 35.6947 18.426 35.6947 17.656V11.86ZM40.6927 13.484H42.9747V15.976H40.6927V13.484ZM50.0447 21.324H56.1347C57.6187 21.324 58.8227 20.26 58.8227 18.79C58.8227 17.306 57.6187 16.242 56.1347 16.242H50.0447C48.5747 16.242 47.3707 17.306 47.3707 18.79C47.3707 20.26 48.5747 21.324 50.0447 21.324ZM53.4467 15.276C53.9787 15.276 54.4127 14.842 54.4127 14.31V9.69C54.4127 8.99 53.8667 8.458 53.1807 8.458C52.4947 8.458 51.9487 8.99 51.9487 9.69V10.236H49.3867V9.69C49.3867 8.99 48.8407 8.458 48.1547 8.458C47.4687 8.458 46.9227 8.99 46.9227 9.69V14.31C46.9227 14.842 47.3567 15.276 47.8887 15.276H53.4467ZM56.1627 14.758C56.1627 15.486 56.7227 16.018 57.4227 16.018C58.1227 16.018 58.6827 15.486 58.6827 14.758V12.882H59.4387C59.9847 12.882 60.4187 12.448 60.4187 11.902C60.4187 11.356 59.9847 10.922 59.4387 10.922H58.6827V9.438C58.6827 8.724 58.1227 8.178 57.4227 8.178C56.7227 8.178 56.1627 8.724 56.1627 9.438V14.758ZM49.8627 18.79C49.8627 18.37 50.1847 18.146 50.6047 18.146H55.5747C55.9947 18.146 56.3307 18.37 56.3307 18.79C56.3307 19.21 55.9947 19.42 55.5747 19.42H50.6047C50.1847 19.42 49.8627 19.21 49.8627 18.79ZM49.3867 13.372V12.112H51.9487V13.372H49.3867ZM67.1667 15.164C67.6987 15.164 68.1327 14.73 68.1327 14.198V12.728H70.4147V14.338C70.4147 15.066 70.9747 15.598 71.6747 15.598C72.3747 15.598 72.9347 15.066 72.9347 14.338V9.438C72.9347 8.724 72.3747 8.178 71.6747 8.178C70.9747 8.178 70.4147 8.724 70.4147 9.438V10.796H68.1327V9.69C68.1327 8.99 67.5867 8.458 66.9007 8.458C66.2147 8.458 65.6687 8.99 65.6687 9.69V10.18H63.1067V9.69C63.1067 8.99 62.5607 8.458 61.8747 8.458C61.1887 8.458 60.6427 8.99 60.6427 9.69V14.198C60.6427 14.73 61.0767 15.164 61.6087 15.164H67.1667ZM72.9347 16.914C72.9347 16.214 72.3747 15.878 71.6887 15.878C71.0027 15.878 70.4427 16.214 70.4427 16.9H63.7227C63.7087 16.214 63.1487 15.878 62.4767 15.878C61.7907 15.878 61.2307 16.214 61.2307 16.914V20.358C61.2307 20.89 61.6647 21.324 62.1967 21.324H71.9687C72.5007 21.324 72.9347 20.89 72.9347 20.358V16.914ZM63.7227 19.42V18.762H70.4427V19.42H63.7227ZM63.1067 13.26V12.056H65.6687V13.26H63.1067Z" fill="white"/>
</svg>
