<svg viewBox="0 0 87 12" fill="none" xmlns="http://www.w3.org/2000/svg">
<path d="M7.96936 8.25734C8.38936 8.25734 8.71336 8.02934 8.71336 7.62134V4.56134H9.96136V7.62134C9.96136 8.02934 10.2974 8.25734 10.7174 8.25734C11.1374 8.25734 11.4734 8.02934 11.4734 7.62134V0.757343C11.4734 0.337343 11.1374 0.109343 10.7174 0.109343C10.2974 0.109343 9.96136 0.337343 9.96136 0.757343V3.20534H8.71336V0.745343C8.71336 0.337343 8.38936 0.109343 7.96936 0.109343C7.54936 0.109343 7.21336 0.337343 7.21336 0.745343V7.62134C7.21336 8.02934 7.54936 8.25734 7.96936 8.25734ZM1.82536 6.72134C3.24136 6.69734 4.65736 6.61334 6.08536 6.32534C6.45736 6.25334 6.68536 6.02534 6.68536 5.67734C6.68536 5.30534 6.39736 4.94534 5.98936 5.02934C4.86136 5.28134 3.72136 5.37734 2.59336 5.40134V4.04534H5.47336C5.95336 4.04534 6.21736 3.78134 6.21736 3.28934V1.17734C6.21736 0.697343 5.95336 0.433343 5.47336 0.433343H1.60936C1.26136 0.433343 0.973359 0.721343 0.973359 1.06934C0.973359 1.41734 1.26136 1.69334 1.60936 1.69334H4.69336V2.82134H1.80136C1.32136 2.82134 1.05736 3.09734 1.05736 3.57734V6.00134C1.05736 6.49334 1.32136 6.73334 1.82536 6.72134ZM11.0654 11.2093C11.4374 11.2093 11.7374 10.9093 11.7374 10.5493C11.7374 10.1773 11.4374 9.87734 11.0654 9.87734H3.31336V8.18534C3.31336 7.71734 2.92936 7.45334 2.46136 7.45334C1.99336 7.45334 1.60936 7.71734 1.60936 8.18534V10.4293C1.60936 10.9333 1.88536 11.2093 2.38936 11.2093H11.0654ZM22.4174 0.109343C21.9494 0.109343 21.5774 0.373343 21.5774 0.829343V2.37734H19.2734C18.9254 2.37734 18.6374 2.66534 18.6374 3.00134C18.6374 3.34934 18.9254 3.63734 19.2734 3.63734H21.5774V5.79734C21.5774 6.25334 21.9494 6.51734 22.4174 6.51734C22.8854 6.51734 23.2574 6.25334 23.2574 5.79734V0.829343C23.2574 0.373343 22.8854 0.109343 22.4174 0.109343ZM13.9694 6.09734C15.8414 6.06134 17.7134 5.91734 19.5854 5.62934C19.9454 5.59334 20.1614 5.34134 20.1614 5.01734C20.1614 4.65734 19.8854 4.33334 19.5014 4.39334C17.9534 4.65734 16.4174 4.78934 14.8814 4.84934V1.65734H18.5774C18.9134 1.65734 19.1894 1.38134 19.1894 1.04534C19.1894 0.709343 18.9134 0.433343 18.5774 0.433343H13.9454C13.4654 0.433343 13.2014 0.697343 13.2014 1.17734V5.38934C13.2014 5.88134 13.4894 6.10934 13.9694 6.09734ZM14.4494 6.94934C13.9694 6.94934 13.7054 7.21334 13.7054 7.69334V10.4533C13.7054 10.9333 13.9934 11.2093 14.4614 11.1853L21.6254 10.8733C21.7334 11.1613 22.0454 11.3053 22.4174 11.3053C22.8854 11.3053 23.2574 11.0773 23.2574 10.6213V7.69334C23.2574 7.21334 22.9934 6.94934 22.5134 6.94934H14.4494ZM21.5774 8.16134V9.64934L15.3974 9.90134V8.16134H21.5774ZM25.7774 5.72534C27.9494 5.50934 29.5934 4.46534 30.1934 3.19334C30.7934 4.46534 32.4374 5.50934 34.6094 5.72534C35.0054 5.77334 35.3414 5.46134 35.3414 5.06534C35.3414 4.71734 35.0774 4.42934 34.7414 4.40534C32.5574 4.17734 31.2014 2.83334 31.0934 1.84934H34.5494C34.9214 1.84934 35.2214 1.54934 35.2214 1.17734C35.2214 0.805343 34.9214 0.505344 34.5494 0.505344H25.8374C25.4654 0.505344 25.1654 0.805343 25.1654 1.17734C25.1654 1.54934 25.4654 1.84934 25.8374 1.84934H29.2814C29.1974 2.83334 27.8294 4.17734 25.6454 4.40534C25.3094 4.42934 25.0454 4.71734 25.0454 5.06534C25.0454 5.46134 25.3934 5.77334 25.7774 5.72534ZM30.1934 11.4253C30.6734 11.4253 31.0454 11.1133 31.0454 10.6453V7.98134H35.0774C35.4494 7.98134 35.7494 7.68134 35.7494 7.30934C35.7494 6.93734 35.4494 6.63734 35.0774 6.63734H25.3094C24.9374 6.63734 24.6374 6.93734 24.6374 7.30934C24.6374 7.68134 24.9374 7.98134 25.3094 7.98134H29.3414V10.6453C29.3414 11.1133 29.7254 11.4253 30.1934 11.4253ZM46.4534 6.66134C46.9214 6.66134 47.3054 6.39734 47.3054 5.94134V0.841344C47.3054 0.385343 46.9214 0.109343 46.4534 0.109343C45.9854 0.109343 45.6014 0.385343 45.6014 0.841344V5.94134C45.6014 6.39734 45.9854 6.66134 46.4534 6.66134ZM37.5134 6.19334C37.6214 6.19334 37.7054 6.18134 37.7894 6.14534C38.9894 5.67734 40.0334 4.86134 40.4534 3.87734C40.8854 4.86134 41.9174 5.67734 43.1294 6.15734C43.2134 6.19334 43.3094 6.20534 43.4054 6.20534C43.7894 6.20534 44.1134 5.88134 44.1134 5.48534C44.1134 5.19734 43.9454 4.94534 43.6814 4.82534C42.3134 4.27334 41.3054 3.19334 41.3054 1.82534V0.949344C41.3054 0.481343 40.9334 0.217343 40.4654 0.217343C39.9854 0.217343 39.6134 0.481343 39.6134 0.949344V1.82534C39.6134 3.19334 38.6054 4.27334 37.2374 4.82534C36.9854 4.93334 36.8054 5.19734 36.8054 5.48534C36.8054 5.88134 37.1294 6.19334 37.5134 6.19334ZM46.4294 11.3293C46.9094 11.3293 47.3054 11.0413 47.3054 10.5733V7.87334C47.3054 7.36934 47.0294 7.09334 46.5254 7.09334H38.1134C37.7534 7.09334 37.4534 7.39334 37.4534 7.75334C37.4534 8.12534 37.7534 8.42534 38.1134 8.42534H45.5654V10.5733C45.5654 11.0413 45.9494 11.3293 46.4294 11.3293ZM57.419 11.0893C57.935 11.0893 58.247 10.8373 58.247 10.3933C58.247 9.93734 57.935 9.69734 57.419 9.69734H54.191V6.24134H57.215C57.731 6.24134 58.007 5.98934 58.007 5.56934C58.007 5.14934 57.731 4.88534 57.215 4.88534H54.191V1.69334H57.299C57.815 1.69334 58.127 1.45334 58.127 0.997343C58.127 0.541343 57.815 0.301343 57.299 0.301343H53.447C52.883 0.301343 52.559 0.613343 52.559 1.18934V10.2013C52.559 10.7773 52.883 11.0893 53.447 11.0893H57.419ZM59.3835 0.217343C58.8555 0.277343 58.6035 0.625344 58.7235 1.21334L60.5955 10.1653C60.7155 10.8013 61.1235 11.1733 61.7595 11.1733H62.4075C63.0435 11.1733 63.4515 10.8133 63.5715 10.1653L65.4075 1.21334C65.5155 0.637343 65.2755 0.289344 64.7475 0.217343C64.2435 0.145343 63.8955 0.373343 63.7875 0.949344L62.0715 9.67334L60.3435 0.949344C60.2355 0.373343 59.8995 0.145343 59.3835 0.217343ZM71.3292 11.0893C71.8452 11.0893 72.1572 10.8373 72.1572 10.3933C72.1572 9.93734 71.8452 9.69734 71.3292 9.69734H68.1012V6.24134H71.1252C71.6412 6.24134 71.9172 5.98934 71.9172 5.56934C71.9172 5.14934 71.6412 4.88534 71.1252 4.88534H68.1012V1.69334H71.2092C71.7252 1.69334 72.0372 1.45334 72.0372 0.997343C72.0372 0.541343 71.7252 0.301343 71.2092 0.301343H67.3572C66.7932 0.301343 66.4692 0.613343 66.4692 1.18934V10.2013C66.4692 10.7773 66.7932 11.0893 67.3572 11.0893H71.3292ZM78.5377 0.217343C78.0337 0.217343 77.7457 0.517344 77.7457 1.06934V7.78934L75.0817 0.937343C74.8777 0.409343 74.5897 0.217343 74.1217 0.217343H73.8817C73.4137 0.217343 73.1137 0.517344 73.1137 1.04534V10.3213C73.1137 10.8733 73.4017 11.1733 73.8937 11.1733C74.3977 11.1733 74.6857 10.8733 74.6857 10.3213V3.60134L77.3497 10.4173C77.5537 10.9573 77.8417 11.1733 78.3097 11.1733H78.5497C79.0417 11.1733 79.3297 10.8613 79.3297 10.3453L79.3177 1.06934C79.3177 0.517344 79.0297 0.217343 78.5377 0.217343ZM80.1881 0.997343C80.1881 1.45334 80.4881 1.69334 81.0521 1.69334H82.6121V10.2853C82.6121 10.8613 82.9121 11.1733 83.4401 11.1733C83.9801 11.1733 84.2801 10.8613 84.2801 10.2853V1.69334H85.9121C86.4281 1.69334 86.7161 1.45334 86.7161 0.997343C86.7161 0.541343 86.4041 0.301343 85.8521 0.301343H81.0521C80.4881 0.301343 80.1881 0.541343 80.1881 0.997343Z" fill="#7C492C"/>
</svg>
