<svg  viewBox="0 0 217 24" fill="none" xmlns="http://www.w3.org/2000/svg">
<path d="M20.3654 11.344C21.4934 11.344 22.1174 10.72 22.1174 9.592V2.92C22.1174 1.768 21.4934 1.168 20.3654 1.168H3.87738C2.72538 1.168 2.10138 1.768 2.10138 2.92V9.592C2.10138 10.72 2.72538 11.344 3.87738 11.344H20.3654ZM6.58938 4.72H17.6534V7.816H6.58938V4.72ZM12.1094 23.44C13.4054 23.44 14.4374 22.576 14.4374 21.304V17.152H21.4934C22.5014 17.152 23.3654 16.312 23.3654 15.28C23.3654 14.248 22.5014 13.408 21.4934 13.408H2.74938C1.74138 13.408 0.877375 14.248 0.877375 15.28C0.877375 16.312 1.74138 17.152 2.74938 17.152H9.78138V21.304C9.78138 22.576 10.8374 23.44 12.1094 23.44ZM44.9414 14.152C45.8534 14.152 46.5974 13.408 46.5974 12.496C46.5974 11.584 45.8534 10.84 44.9414 10.84H30.6614V9.112H44.3654C45.4934 9.112 46.1174 8.488 46.1174 7.336V2.92C46.1174 1.768 45.4934 1.168 44.3654 1.168H27.4934C26.6054 1.168 25.8854 1.888 25.8854 2.752C25.8854 3.64 26.6054 4.36 27.4934 4.36H41.5814V6.016H27.8774C26.7254 6.016 26.1014 6.616 26.1014 7.768V12.4C26.1014 13.552 26.7254 14.152 27.8774 14.152H44.9414ZM45.4934 22.504C46.5014 22.504 47.3654 21.688 47.3654 20.632C47.3654 19.6 46.5014 18.76 45.4934 18.76H42.9494V16.696C42.9494 15.544 42.0134 14.968 40.8374 14.968C39.6614 14.968 38.7254 15.544 38.7254 16.696V18.76H33.6374V16.696C33.6374 15.544 32.6774 14.968 31.5014 14.968C30.3254 14.968 29.3894 15.544 29.3894 16.696V18.76H26.7494C25.7414 18.76 24.8774 19.6 24.8774 20.632C24.8774 21.688 25.7414 22.504 26.7494 22.504H45.4934ZM51.4454 12.16C55.7654 11.776 58.7174 10.144 60.1094 7.984C61.5014 10.144 64.4534 11.776 68.7734 12.16C69.8054 12.256 70.6694 11.44 70.6694 10.432C70.6694 9.52 69.9494 8.752 69.0614 8.704C64.7894 8.32 62.7734 6.256 62.4854 4.768H68.6534C69.6374 4.768 70.4294 3.952 70.4294 2.968C70.4294 1.984 69.6374 1.192 68.6534 1.192H51.5654C50.5814 1.192 49.7894 1.984 49.7894 2.968C49.7894 3.952 50.5814 4.768 51.5654 4.768H57.7094C57.4934 6.256 55.4054 8.32 51.1574 8.704C50.2694 8.752 49.5494 9.52 49.5494 10.432C49.5494 11.44 50.4374 12.256 51.4454 12.16ZM60.1094 23.44C61.4054 23.44 62.4374 22.576 62.4374 21.304V17.008H69.5894C70.5734 17.008 71.3654 16.216 71.3654 15.232C71.3654 14.272 70.5734 13.48 69.5894 13.48H50.6534C49.6694 13.48 48.8774 14.272 48.8774 15.232C48.8774 16.216 49.6694 17.008 50.6534 17.008H57.7814V21.304C57.7814 22.576 58.8374 23.44 60.1094 23.44ZM92.3654 13.792C93.6374 13.792 94.6694 13.144 94.6694 11.872V2.44C94.6694 1.168 93.6374 0.495999 92.3654 0.495999C91.0694 0.495999 90.0374 1.168 90.0374 2.44V11.872C90.0374 13.144 91.0694 13.792 92.3654 13.792ZM75.0374 13.096C75.3014 13.096 75.5654 13.048 75.7814 12.952C77.9414 12.064 79.6694 10.672 80.6774 8.896C81.6854 10.672 83.4134 12.064 85.5974 12.976C85.8134 13.048 86.0774 13.12 86.3414 13.12C87.3734 13.12 88.2374 12.256 88.2374 11.2C88.2374 10.432 87.7814 9.784 87.1094 9.472C84.4454 8.296 82.9814 6.328 82.9814 3.928V2.56C82.9814 1.312 81.9734 0.663999 80.7014 0.663999C79.4054 0.663999 78.3974 1.312 78.3974 2.56V3.928C78.3974 6.328 76.9334 8.296 74.2694 9.472C73.5974 9.76 73.1414 10.432 73.1414 11.2C73.1414 12.256 74.0054 13.096 75.0374 13.096ZM92.2694 23.2C93.5894 23.2 94.6694 22.48 94.6694 21.184V16.408C94.6694 15.16 93.9974 14.488 92.7494 14.488H75.9974C75.0614 14.488 74.2694 15.256 74.2694 16.216C74.2694 17.176 75.0614 17.944 75.9974 17.944H89.8454V21.184C89.8454 22.48 90.9254 23.2 92.2694 23.2ZM110.697 2.656C110.697 1.504 109.977 0.711999 108.705 0.711999C107.673 0.711999 107.025 0.975999 106.521 1.792C106.185 2.32 105.609 2.872 104.793 3.088C104.361 3.208 103.617 3.64 103.617 4.744C103.617 5.68 104.217 6.352 105.081 6.352H106.377V20.752C106.377 22.024 107.289 22.96 108.537 22.96C109.785 22.96 110.697 22.024 110.697 20.752V2.656ZM113.245 18.088C113.245 21.4 115.933 23.2 119.269 23.2C122.605 23.2 125.293 21.4 125.293 18.088V5.584C125.293 2.272 122.605 0.472 119.269 0.472C115.933 0.472 113.245 2.272 113.245 5.584V18.088ZM117.373 5.584C117.373 4.576 118.189 3.808 119.269 3.808C120.349 3.808 121.165 4.576 121.165 5.584V18.088C121.165 19.096 120.349 19.864 119.269 19.864C118.189 19.864 117.373 19.096 117.373 18.088V5.584ZM127.542 18.088C127.542 21.4 130.23 23.2 133.566 23.2C136.902 23.2 139.59 21.4 139.59 18.088V5.584C139.59 2.272 136.902 0.472 133.566 0.472C130.23 0.472 127.542 2.272 127.542 5.584V18.088ZM131.67 5.584C131.67 4.576 132.486 3.808 133.566 3.808C134.646 3.808 135.462 4.576 135.462 5.584V18.088C135.462 19.096 134.646 19.864 133.566 19.864C132.486 19.864 131.67 19.096 131.67 18.088V5.584ZM156.791 2.536C157.127 1.648 156.911 0.879999 156.023 0.592C155.039 0.279999 154.247 0.688 153.935 1.528L146.615 21.232C146.279 22.144 146.495 22.888 147.383 23.176C148.367 23.488 149.183 23.056 149.495 22.216L156.791 2.536ZM142.031 9.904C142.031 11.92 143.711 12.976 145.871 12.976C148.031 12.976 149.711 11.92 149.711 9.904V4.096C149.711 2.128 148.031 1.048 145.871 1.048C143.711 1.048 142.031 2.128 142.031 4.096V9.904ZM144.935 4.84C144.935 4.36 145.295 4.024 145.871 4.024C146.423 4.024 146.807 4.36 146.807 4.84V9.184C146.807 9.664 146.423 10 145.871 10C145.295 10 144.935 9.664 144.935 9.184V4.84ZM153.695 19.552C153.695 21.568 155.399 22.624 157.559 22.624C159.719 22.624 161.399 21.568 161.399 19.552V13.768C161.399 11.8 159.719 10.696 157.559 10.696C155.399 10.696 153.695 11.8 153.695 13.768V19.552ZM156.623 14.488C156.623 14.008 156.983 13.672 157.559 13.672C158.111 13.672 158.471 14.008 158.471 14.488V18.832C158.471 19.312 158.111 19.648 157.559 19.648C156.983 19.648 156.623 19.312 156.623 18.832V14.488ZM172.963 9.52C177.547 9.304 180.475 8.272 181.891 6.544C183.307 8.272 186.235 9.304 190.819 9.52C191.707 9.568 192.427 8.848 192.427 7.984C192.427 7.144 191.731 6.472 190.915 6.448C186.763 6.304 184.555 5.248 184.267 3.976H190.579C191.443 3.976 192.139 3.28 192.139 2.416C192.139 1.552 191.443 0.855999 190.579 0.855999H173.203C172.363 0.855999 171.643 1.552 171.643 2.416C171.643 3.28 172.363 3.976 173.203 3.976H179.491C179.203 5.248 177.043 6.304 172.867 6.448C172.051 6.472 171.379 7.144 171.379 7.984C171.379 8.848 172.099 9.568 172.963 9.52ZM191.443 13.936C192.379 13.936 193.147 13.168 193.147 12.256C193.147 11.32 192.379 10.552 191.443 10.552H172.363C171.427 10.552 170.659 11.32 170.659 12.256C170.659 13.168 171.427 13.936 172.363 13.936H191.443ZM171.523 19.048C171.523 21.256 173.251 23.056 175.531 23.056H188.227C190.507 23.056 192.259 21.256 192.259 19.048C192.259 16.888 190.507 15.04 188.227 15.04H175.531C173.251 15.04 171.523 16.888 171.523 19.048ZM176.659 19.912C176.131 19.912 175.747 19.504 175.747 19C175.747 18.496 176.131 18.088 176.659 18.088H187.027C187.555 18.088 187.939 18.496 187.939 19C187.939 19.504 187.555 19.912 187.027 19.912H176.659ZM214.195 13.96C215.467 13.96 216.475 13.336 216.475 12.088V2.416C216.475 1.144 215.467 0.495999 214.195 0.495999C212.923 0.495999 211.891 1.144 211.891 2.416V5.632H209.419C208.555 5.632 207.811 6.352 207.811 7.216C207.811 8.128 208.555 8.848 209.419 8.848H211.891V12.088C211.891 13.336 212.923 13.96 214.195 13.96ZM197.035 13.384C199.339 12.904 201.163 11.8 202.243 10C203.299 11.824 205.123 12.904 207.451 13.384C208.459 13.6 209.563 12.808 209.563 11.656C209.563 10.816 208.987 10.096 208.243 9.904C205.939 9.328 204.355 7.672 204.331 4.816V4.552H207.643C208.579 4.552 209.323 3.784 209.323 2.848C209.323 1.936 208.579 1.168 207.643 1.168H196.843C195.931 1.168 195.163 1.936 195.163 2.848C195.163 3.784 195.931 4.552 196.843 4.552H200.155V4.816C200.155 7.696 198.547 9.328 196.267 9.928C195.499 10.12 194.923 10.816 194.923 11.656C194.923 12.784 196.003 13.624 197.035 13.384ZM212.083 23.056C214.723 23.056 216.787 21.256 216.787 18.76C216.787 16.216 214.723 14.464 212.083 14.464H200.947C198.355 14.464 196.291 16.216 196.291 18.76C196.291 21.256 198.355 23.056 200.947 23.056H212.083ZM202.147 19.888C201.379 19.888 200.851 19.432 200.851 18.76C200.851 18.04 201.379 17.632 202.147 17.632H210.859C211.723 17.632 212.227 18.04 212.227 18.76C212.227 19.432 211.723 19.888 210.859 19.888H202.147Z" fill="#7C492C"/>
</svg>
