<svg viewBox="0 0 191 13" fill="none" xmlns="http://www.w3.org/2000/svg">
<path d="M3.16983 7.312C3.54183 7.312 3.81783 7.012 3.80583 6.592L3.75783 5.008L5.02983 5.86C5.40183 6.1 5.82183 6.004 6.01383 5.668C6.19383 5.332 6.02583 4.936 5.65383 4.756L4.23783 4.072L5.65383 3.4C6.04983 3.232 6.19383 2.824 6.01383 2.476C5.82183 2.128 5.41383 2.056 5.02983 2.308L3.75783 3.148L3.80583 1.552C3.81783 1.132 3.54183 0.831999 3.16983 0.831999C2.79783 0.831999 2.53383 1.144 2.54583 1.564L2.60583 3.148L1.32183 2.296C0.937828 2.044 0.529828 2.128 0.337828 2.476C0.157828 2.824 0.301828 3.232 0.697828 3.4L2.10183 4.072L0.709828 4.768C0.325828 4.948 0.157828 5.344 0.337828 5.68C0.529828 6.016 0.949828 6.1 1.30983 5.86L2.60583 5.008L2.54583 6.58C2.53383 7 2.79783 7.312 3.16983 7.312ZM16.9937 9.1C17.4737 9.1 17.8337 8.836 17.8337 8.38V5.44H18.7577C19.1537 5.44 19.4297 5.128 19.4297 4.744C19.4297 4.36 19.1537 4.048 18.7577 4.048H17.8337V1.552C17.8337 1.096 17.4737 0.831999 16.9937 0.831999C16.5257 0.831999 16.1537 1.096 16.1537 1.552V8.38C16.1537 8.836 16.5257 9.1 16.9937 9.1ZM8.90573 7.252C10.7177 7.228 12.5297 7.12 14.3417 6.88C14.7017 6.832 14.9897 6.544 14.9897 6.172C14.9897 5.788 14.6537 5.44 14.2697 5.5C12.7817 5.74 11.3057 5.848 9.81773 5.872V2.488H13.5137C13.8737 2.488 14.1857 2.188 14.1857 1.816C14.1857 1.444 13.8737 1.156 13.5137 1.156H8.89373C8.40173 1.156 8.13773 1.42 8.13773 1.9V6.532C8.13773 7.024 8.42573 7.264 8.90573 7.252ZM17.4977 11.932C17.8697 11.932 18.1697 11.632 18.1697 11.272C18.1697 10.912 17.8697 10.612 17.4977 10.612H10.3817V8.74C10.3817 8.284 10.0097 8.02 9.54173 8.02C9.07373 8.02 8.68973 8.284 8.68973 8.74V11.152C8.68973 11.656 8.97773 11.932 9.48173 11.932H17.4977ZM20.1137 12.484C20.4617 12.508 20.7497 12.376 20.8457 12.052L21.3377 10.528C21.4937 10.084 21.2297 9.736 20.7857 9.736H20.4977C20.0897 9.736 19.8257 9.952 19.7777 10.324L19.6097 11.872C19.5737 12.22 19.7777 12.448 20.1137 12.484ZM34.9949 6.1C36.5069 6.1 37.6589 4.996 37.6589 3.604C37.6589 2.2 36.5069 1.108 34.9949 1.108H30.2669C28.7549 1.108 27.6029 2.2 27.6029 3.604C27.6029 4.996 28.7549 6.1 30.2669 6.1H34.9949ZM30.5909 4.756C29.8229 4.756 29.2589 4.288 29.2589 3.604C29.2589 2.944 29.8229 2.464 30.5909 2.464H34.6709C35.4389 2.464 36.0029 2.932 36.0029 3.604C36.0029 4.288 35.4389 4.756 34.6709 4.756H30.5909ZM29.8349 12.076C30.2429 12.076 30.4829 11.884 30.6749 11.512C31.0709 10.696 31.3229 9.724 31.4669 8.668H34.1189V11.332C34.1189 11.788 34.4909 12.088 34.9589 12.088C35.4149 12.088 35.7869 11.788 35.7869 11.332V8.668H37.4909C37.8749 8.668 38.1869 8.356 38.1869 7.972C38.1869 7.588 37.8749 7.276 37.4909 7.276H27.7709C27.3989 7.276 27.0749 7.588 27.0749 7.972C27.0749 8.356 27.3989 8.668 27.7709 8.668H29.7869C29.6549 9.58 29.3909 10.396 29.0669 11.092C28.8029 11.62 29.2349 12.076 29.8349 12.076ZM49.3829 4.228V1.588C49.3829 1.144 49.0229 0.831999 48.5429 0.831999C48.0749 0.831999 47.7029 1.144 47.7029 1.588V8.8C47.7029 9.256 48.0749 9.556 48.5429 9.556C49.0229 9.556 49.3829 9.256 49.3829 8.8V5.62H50.2109C50.6069 5.62 50.8829 5.308 50.8829 4.924C50.8829 4.54 50.6069 4.228 50.2109 4.228H49.3829ZM44.6789 2.416C44.6429 3.22 44.5469 4.012 44.3669 4.816C44.2829 5.284 44.6789 5.608 45.1469 5.608C45.5669 5.608 45.8789 5.308 45.9629 4.912C46.1669 3.928 46.2629 2.932 46.3109 1.948C46.3109 1.42 46.0829 1.132 45.5669 1.132H40.1789C39.8309 1.132 39.5429 1.42 39.5429 1.78C39.5429 2.128 39.8309 2.416 40.1789 2.416H44.6789ZM47.2589 6.628C47.2589 6.256 46.9349 5.932 46.5629 5.98C45.3629 6.16 44.1629 6.28 42.9629 6.364V4.348C42.9629 3.928 42.6269 3.664 42.2069 3.664C41.7749 3.664 41.4389 3.928 41.4389 4.348V6.448C40.8629 6.472 40.2749 6.484 39.6989 6.496C39.3629 6.496 39.0749 6.796 39.0749 7.144C39.0749 7.516 39.3989 7.804 39.7589 7.804C42.0629 7.768 44.3309 7.636 46.6349 7.3C46.9709 7.252 47.2589 6.976 47.2589 6.628ZM41.8349 10.624V9.124C41.8349 8.656 41.4629 8.392 40.9949 8.392C40.5269 8.392 40.1429 8.656 40.1429 9.124V11.152C40.1429 11.656 40.4309 11.932 40.9349 11.932H49.0589C49.4189 11.932 49.7189 11.644 49.7189 11.284C49.7189 10.924 49.4189 10.624 49.0589 10.624H41.8349ZM60.8909 12.028C61.3589 12.028 61.7309 11.716 61.7309 11.248V1.612C61.7309 1.144 61.3589 0.831999 60.8909 0.831999C60.4109 0.831999 60.0269 1.144 60.0269 1.612V11.248C60.0269 11.716 60.4109 12.028 60.8909 12.028ZM52.2149 11.392C55.8269 10.396 58.1069 7.552 58.1069 2.56V2.176C58.1069 1.66 57.8309 1.372 57.3029 1.372H52.0469C51.6749 1.372 51.3509 1.696 51.3509 2.068C51.3509 2.464 51.6749 2.764 52.0469 2.764H56.4749C56.4869 6.808 54.7709 9.112 51.8069 9.976C51.5069 10.072 51.2909 10.36 51.2909 10.684C51.2909 11.164 51.7349 11.512 52.2149 11.392ZM73.3829 4.228V1.588C73.3829 1.144 73.0229 0.831999 72.5429 0.831999C72.0749 0.831999 71.7029 1.144 71.7029 1.588V8.8C71.7029 9.256 72.0749 9.556 72.5429 9.556C73.0229 9.556 73.3829 9.256 73.3829 8.8V5.62H74.2109C74.6069 5.62 74.8829 5.308 74.8829 4.924C74.8829 4.54 74.6069 4.228 74.2109 4.228H73.3829ZM68.6789 2.416C68.6429 3.22 68.5469 4.012 68.3669 4.816C68.2829 5.284 68.6789 5.608 69.1469 5.608C69.5669 5.608 69.8789 5.308 69.9629 4.912C70.1669 3.928 70.2629 2.932 70.3109 1.948C70.3109 1.42 70.0829 1.132 69.5669 1.132H64.1789C63.8309 1.132 63.5429 1.42 63.5429 1.78C63.5429 2.128 63.8309 2.416 64.1789 2.416H68.6789ZM71.2589 6.628C71.2589 6.256 70.9349 5.932 70.5629 5.98C69.3629 6.16 68.1629 6.28 66.9629 6.364V4.348C66.9629 3.928 66.6269 3.664 66.2069 3.664C65.7749 3.664 65.4389 3.928 65.4389 4.348V6.448C64.8629 6.472 64.2749 6.484 63.6989 6.496C63.3629 6.496 63.0749 6.796 63.0749 7.144C63.0749 7.516 63.3989 7.804 63.7589 7.804C66.0629 7.768 68.3309 7.636 70.6349 7.3C70.9709 7.252 71.2589 6.976 71.2589 6.628ZM65.8349 10.624V9.124C65.8349 8.656 65.4629 8.392 64.9949 8.392C64.5269 8.392 64.1429 8.656 64.1429 9.124V11.152C64.1429 11.656 64.4309 11.932 64.9349 11.932H73.0589C73.4189 11.932 73.7189 11.644 73.7189 11.284C73.7189 10.924 73.4189 10.624 73.0589 10.624H65.8349ZM79.8725 6.088C82.0325 5.86 83.5925 4.804 84.2285 3.628C84.8525 4.804 86.4365 5.86 88.5965 6.088C88.9925 6.124 89.3525 5.812 89.3525 5.392C89.3525 5.044 89.0885 4.756 88.7525 4.708C86.6045 4.456 85.0805 3.124 85.0805 1.816V1.696C85.0805 1.24 84.7085 0.964 84.2285 0.964C83.7605 0.964 83.3885 1.24 83.3885 1.696V1.816C83.3885 3.124 81.8645 4.456 79.7165 4.708C79.3805 4.756 79.1045 5.044 79.1045 5.392C79.1045 5.812 79.4765 6.124 79.8725 6.088ZM84.2285 12.148C84.7085 12.148 85.0805 11.836 85.0805 11.368V8.584H89.1005C89.4725 8.584 89.7845 8.272 89.7845 7.888C89.7845 7.516 89.4725 7.204 89.1005 7.204H79.3685C78.9845 7.204 78.6725 7.516 78.6725 7.888C78.6725 8.272 78.9845 8.584 79.3685 8.584H83.3765V11.368C83.3765 11.836 83.7605 12.148 84.2285 12.148ZM91.8725 6.088C94.0325 5.86 95.5925 4.804 96.2285 3.628C96.8525 4.804 98.4365 5.86 100.597 6.088C100.993 6.124 101.353 5.812 101.353 5.392C101.353 5.044 101.089 4.756 100.753 4.708C98.6045 4.456 97.0805 3.124 97.0805 1.816V1.696C97.0805 1.24 96.7085 0.964 96.2285 0.964C95.7605 0.964 95.3885 1.24 95.3885 1.696V1.816C95.3885 3.124 93.8645 4.456 91.7165 4.708C91.3805 4.756 91.1045 5.044 91.1045 5.392C91.1045 5.812 91.4765 6.124 91.8725 6.088ZM96.2285 12.148C96.7085 12.148 97.0805 11.836 97.0805 11.368V8.584H101.101C101.473 8.584 101.785 8.272 101.785 7.888C101.785 7.516 101.473 7.204 101.101 7.204H91.3685C90.9845 7.204 90.6725 7.516 90.6725 7.888C90.6725 8.272 90.9845 8.584 91.3685 8.584H95.3765V11.368C95.3765 11.836 95.7605 12.148 96.2285 12.148ZM112.621 7.468C112.981 7.468 113.269 7.18 113.269 6.82C113.269 6.46 112.981 6.172 112.621 6.172H105.073V4.912H112.321C112.801 4.912 113.065 4.648 113.065 4.156V1.924C113.065 1.432 112.801 1.18 112.321 1.18H103.945C103.597 1.18 103.309 1.468 103.309 1.804C103.309 2.164 103.597 2.452 103.945 2.452H111.397V3.664H104.137C103.657 3.664 103.393 3.916 103.393 4.408V6.724C103.393 7.204 103.657 7.468 104.137 7.468H112.621ZM113.089 11.656C113.473 11.656 113.785 11.356 113.785 10.96C113.785 10.576 113.473 10.264 113.089 10.264H111.265V8.656C111.265 8.224 110.917 7.972 110.461 7.972C110.017 7.972 109.669 8.224 109.669 8.656V10.264H106.837V8.656C106.837 8.224 106.477 7.972 106.033 7.972C105.589 7.972 105.229 8.224 105.229 8.656V10.264H103.369C102.997 10.264 102.673 10.576 102.673 10.96C102.673 11.356 102.997 11.656 103.369 11.656H113.089ZM124.573 4.912C124.921 4.912 125.209 4.624 125.209 4.276C125.209 3.928 124.921 3.64 124.573 3.64H117.061V1.54C117.061 1.096 116.689 0.831999 116.221 0.831999C115.765 0.831999 115.393 1.096 115.393 1.54V4.132C115.393 4.636 115.669 4.912 116.173 4.912H124.573ZM125.125 7.444C125.485 7.444 125.785 7.144 125.785 6.772C125.785 6.412 125.485 6.112 125.125 6.112H115.333C114.973 6.112 114.673 6.412 114.673 6.772C114.673 7.144 114.973 7.444 115.333 7.444H125.125ZM124.681 11.932C125.041 11.932 125.329 11.644 125.329 11.284C125.329 10.924 125.041 10.624 124.681 10.624H117.073V8.884C117.073 8.428 116.701 8.164 116.233 8.164C115.765 8.164 115.393 8.428 115.393 8.884V11.152C115.393 11.656 115.669 11.932 116.173 11.932H124.681ZM140.578 2.968V1.552C140.578 1.096 140.218 0.831999 139.738 0.831999C139.27 0.831999 138.898 1.096 138.898 1.552V6.076C138.898 6.544 139.27 6.808 139.738 6.808C140.218 6.808 140.578 6.544 140.578 6.076V4.324H141.43C141.802 4.324 142.078 4.024 142.078 3.64C142.078 3.268 141.802 2.968 141.43 2.968H140.578ZM136.078 6.388C136.57 6.388 136.822 6.124 136.822 5.644V1.696C136.822 1.252 136.462 0.999999 136.018 0.999999C135.574 0.999999 135.214 1.252 135.214 1.696V2.392H132.322V1.696C132.322 1.252 131.962 0.999999 131.506 0.999999C131.05 0.999999 130.69 1.252 130.69 1.696V5.644C130.69 6.124 130.954 6.388 131.446 6.388H136.078ZM135.214 5.14H132.322V3.64H135.214V5.14ZM132.874 10.804V10.084H139.918C140.35 10.084 140.578 9.844 140.578 9.412V7.888C140.578 7.468 140.35 7.228 139.918 7.228H131.686C131.386 7.228 131.134 7.48 131.134 7.78C131.134 8.092 131.386 8.344 131.686 8.344H138.898V9.028H131.866C131.434 9.028 131.194 9.256 131.194 9.688V11.272C131.194 11.704 131.434 11.932 131.866 11.932H140.338C140.65 11.932 140.914 11.68 140.914 11.368C140.914 11.056 140.65 10.804 140.338 10.804H132.874ZM152.35 7.444C152.77 7.444 153.106 7.216 153.106 6.808V1.48C153.106 1.06 152.77 0.831999 152.35 0.831999C151.93 0.831999 151.594 1.06 151.594 1.48V3.328H150.31V1.468C150.31 1.06 149.974 0.831999 149.554 0.831999C149.134 0.831999 148.798 1.06 148.798 1.468V6.688C148.798 7.096 149.134 7.324 149.554 7.324C149.974 7.324 150.31 7.096 150.31 6.688V4.672H151.594V6.808C151.594 7.216 151.93 7.444 152.35 7.444ZM143.098 7.012C143.23 7.012 143.362 6.988 143.458 6.928C144.274 6.46 144.982 5.716 145.294 4.792C145.618 5.656 146.326 6.34 147.142 6.784C147.25 6.844 147.358 6.868 147.49 6.868C147.874 6.868 148.198 6.556 148.198 6.16C148.198 5.884 148.042 5.668 147.826 5.548C146.902 5.056 146.062 4.072 146.062 2.548V1.636C146.062 1.216 145.726 0.987999 145.294 0.987999C144.862 0.987999 144.526 1.216 144.526 1.636V2.548C144.526 4.156 143.698 5.188 142.762 5.704C142.546 5.824 142.402 6.052 142.402 6.316C142.402 6.7 142.714 7.012 143.098 7.012ZM150.886 11.992C152.206 11.992 153.238 11.116 153.238 9.868C153.238 8.62 152.206 7.756 150.886 7.756H145.39C144.094 7.756 143.062 8.62 143.062 9.868C143.062 11.116 144.094 11.992 145.39 11.992H150.886ZM145.726 10.72C145.174 10.72 144.742 10.408 144.742 9.868C144.742 9.328 145.174 9.028 145.726 9.028H150.55C151.126 9.028 151.558 9.328 151.558 9.868C151.558 10.408 151.126 10.72 150.55 10.72H145.726ZM161.074 2.992C161.41 2.992 161.686 2.716 161.686 2.38C161.686 2.056 161.41 1.78 161.074 1.78H158.902V1.144C158.902 0.76 158.518 0.52 158.038 0.52C157.558 0.52 157.174 0.76 157.174 1.144V1.78H155.002C154.666 1.78 154.39 2.056 154.39 2.38C154.39 2.716 154.666 2.992 155.002 2.992H161.074ZM164.578 3.184V1.552C164.578 1.096 164.218 0.831999 163.738 0.831999C163.27 0.831999 162.898 1.096 162.898 1.552V6.508C162.898 6.964 163.27 7.228 163.738 7.228C164.218 7.228 164.578 6.964 164.578 6.508V4.552H165.43C165.802 4.552 166.078 4.252 166.078 3.868C166.078 3.484 165.802 3.184 165.43 3.184H164.578ZM159.658 7.06C160.594 7.06 161.386 6.34 161.386 5.272C161.386 4.216 160.594 3.484 159.658 3.484H156.43C155.482 3.484 154.69 4.216 154.69 5.272C154.69 6.34 155.482 7.06 156.43 7.06H159.658ZM159.13 4.672C159.61 4.672 159.862 4.948 159.862 5.272C159.862 5.596 159.61 5.872 159.13 5.872H156.958C156.49 5.872 156.226 5.596 156.226 5.272C156.226 4.948 156.49 4.672 156.958 4.672H159.13ZM163.738 7.564C163.27 7.564 162.898 7.828 162.898 8.284V8.536H156.874V8.284C156.874 7.828 156.502 7.564 156.034 7.564C155.578 7.564 155.194 7.828 155.194 8.284V11.176C155.194 11.656 155.482 11.932 155.962 11.908L162.946 11.596C163.054 11.884 163.366 12.028 163.738 12.028C164.218 12.028 164.578 11.8 164.578 11.344V8.284C164.578 7.828 164.218 7.564 163.738 7.564ZM162.898 9.724V10.396L156.874 10.648V9.724H162.898ZM176.026 12.028C176.506 12.028 176.878 11.716 176.878 11.248V1.612C176.878 1.144 176.506 0.831999 176.026 0.831999C175.558 0.831999 175.174 1.144 175.174 1.612V11.248C175.174 11.716 175.558 12.028 176.026 12.028ZM167.878 11.404C169.69 11.356 171.526 11.164 173.338 10.828C173.71 10.768 173.998 10.468 173.998 10.096C173.998 9.676 173.65 9.316 173.218 9.388C171.706 9.7 170.014 9.904 168.658 9.94V2.008C168.658 1.54 168.274 1.228 167.794 1.228C167.314 1.228 166.93 1.54 166.93 2.008V10.54C166.93 11.14 167.266 11.428 167.878 11.404ZM187.402 12.028C187.882 12.028 188.242 11.716 188.242 11.26V6.7H189.43C189.826 6.7 190.078 6.376 190.078 5.98C190.078 5.584 189.826 5.26 189.43 5.26H188.242V1.588C188.242 1.144 187.882 0.831999 187.402 0.831999C186.934 0.831999 186.562 1.144 186.562 1.588V11.26C186.562 11.716 186.934 12.028 187.402 12.028ZM179.782 11.404C181.498 11.356 183.202 11.212 184.93 10.804C185.314 10.708 185.566 10.42 185.566 10.048C185.566 9.628 185.242 9.268 184.81 9.376C183.214 9.748 181.786 9.916 180.514 9.964V2.728H184.402C184.774 2.728 185.074 2.428 185.074 2.056C185.074 1.684 184.774 1.372 184.402 1.372H179.746C179.158 1.372 178.834 1.696 178.834 2.284V10.54C178.834 11.14 179.182 11.428 179.782 11.404Z" fill="#8C8C8C"/>
</svg>
