<svg viewBox="0 0 253 14" fill="none" xmlns="http://www.w3.org/2000/svg">
<path d="M11.261 13.366C11.807 13.366 12.241 13.002 12.241 12.456V1.214C12.241 0.668 11.807 0.303999 11.261 0.303999C10.701 0.303999 10.253 0.668 10.253 1.214V12.456C10.253 13.002 10.701 13.366 11.261 13.366ZM1.13902 12.624C5.35302 11.462 8.01302 8.144 8.01302 2.32V1.872C8.01302 1.27 7.69102 0.933999 7.07502 0.933999H0.943016C0.509016 0.933999 0.131016 1.312 0.131016 1.746C0.131016 2.208 0.509016 2.558 0.943016 2.558H6.10902C6.12302 7.276 4.12102 9.964 0.663016 10.972C0.313016 11.084 0.0610157 11.42 0.0610157 11.798C0.0610157 12.358 0.579016 12.764 1.13902 12.624ZM25.065 6.968C25.625 6.968 25.933 6.646 25.933 6.1V1.368C25.933 0.836 25.499 0.528 24.953 0.528C24.407 0.528 23.973 0.836 23.973 1.368V2.166H16.609V1.382C16.609 0.836 16.175 0.528 15.629 0.528C15.083 0.528 14.649 0.836 14.649 1.382V6.1C14.649 6.646 14.957 6.968 15.517 6.968H25.065ZM23.973 5.442H16.609V3.65H23.973V5.442ZM14.593 8.228C14.159 8.228 13.809 8.592 13.809 9.026C13.809 9.46 14.159 9.81 14.593 9.81H19.297V12.596C19.297 13.142 19.745 13.506 20.291 13.506C20.851 13.506 21.285 13.142 21.285 12.596V9.81H25.989C26.423 9.81 26.773 9.46 26.773 9.026C26.773 8.592 26.423 8.228 25.989 8.228H14.593ZM39.023 5.218C39.471 3.986 39.751 2.74 39.863 1.508C39.919 0.891999 39.639 0.528 39.023 0.528H29.293C28.873 0.528 28.537 0.863999 28.537 1.284C28.537 1.704 28.873 2.04 29.293 2.04H37.875C37.777 3.02 37.525 4.098 37.077 5.218H28.579C28.159 5.218 27.809 5.568 27.809 6.002C27.809 6.422 28.159 6.772 28.579 6.772H40.017C40.423 6.772 40.773 6.422 40.773 6.002C40.773 5.568 40.423 5.218 40.017 5.218H39.023ZM29.517 8.284C28.957 8.284 28.649 8.592 28.649 9.152V12.372C28.649 12.932 28.971 13.254 29.531 13.226L38.057 12.848C38.183 13.198 38.533 13.366 38.967 13.366C39.513 13.366 39.933 13.114 39.933 12.582V9.152C39.933 8.592 39.625 8.284 39.065 8.284H29.517ZM38.015 9.726V11.406L30.567 11.714V9.726H38.015ZM56.4923 5.022V9.208C56.4923 9.74 56.9263 10.048 57.4723 10.048C58.0183 10.048 58.4523 9.74 58.4523 9.208V1.158C58.4523 0.611999 58.0183 0.303999 57.4723 0.303999C56.9263 0.303999 56.4923 0.611999 56.4923 1.158V3.538H54.1123C53.7063 3.538 53.3843 3.874 53.3843 4.28C53.3843 4.686 53.7063 5.022 54.1123 5.022H56.4923ZM47.2243 8.158C48.6663 7.766 49.8703 6.996 50.3603 5.736C50.8363 6.996 52.0543 7.766 53.4963 8.158C54.0143 8.298 54.5183 7.906 54.5183 7.374C54.5183 6.996 54.2663 6.688 53.9163 6.59C52.4743 6.198 51.2843 5.134 51.2843 3.314V2.306H53.5943C54.0283 2.306 54.3783 1.956 54.3783 1.522C54.3783 1.088 54.0283 0.724 53.5943 0.724H47.1263C46.6923 0.724 46.3423 1.088 46.3423 1.522C46.3423 1.956 46.6923 2.306 47.1263 2.306H49.4363V3.272C49.4363 5.12 48.2603 6.198 46.8043 6.59C46.4543 6.688 46.2023 6.996 46.2023 7.374C46.2023 7.906 46.7203 8.298 47.2243 8.158ZM58.0183 13.254C58.4523 13.254 58.7883 12.904 58.7883 12.484C58.7883 12.064 58.4523 11.714 58.0183 11.714H49.2263V9.768C49.2263 9.236 48.7923 8.928 48.2463 8.928C47.6863 8.928 47.2523 9.236 47.2523 9.768V12.344C47.2523 12.932 47.5743 13.254 48.1623 13.254H58.0183ZM68.5463 8.116C69.0363 8.116 69.4283 7.85 69.4283 7.388V4.826H70.8843V7.374C70.8843 7.85 71.2763 8.116 71.7663 8.116C72.2563 8.116 72.6483 7.85 72.6483 7.374V1.06C72.6483 0.569999 72.2563 0.303999 71.7663 0.303999C71.2763 0.303999 70.8843 0.569999 70.8843 1.06V3.258H69.4283V1.046C69.4283 0.569999 69.0363 0.303999 68.5463 0.303999C68.0563 0.303999 67.6783 0.569999 67.6783 1.046V7.388C67.6783 7.85 68.0563 8.116 68.5463 8.116ZM63.5763 7.598C65.2283 7.598 66.6703 6.646 66.6703 4.896V3.104C66.6703 1.368 65.2283 0.402 63.5763 0.402C61.9383 0.402 60.4963 1.368 60.4963 3.104V4.896C60.4963 6.646 61.9383 7.598 63.5763 7.598ZM63.6043 6.156C62.8623 6.156 62.2603 5.694 62.2603 4.854V3.146C62.2603 2.306 62.8483 1.844 63.6043 1.844C64.3323 1.844 64.9203 2.306 64.9203 3.146V4.854C64.9203 5.694 64.3323 6.156 63.6043 6.156ZM71.6683 13.394C72.2143 13.394 72.6483 13.086 72.6483 12.54V9.53C72.6483 8.942 72.3263 8.606 71.7383 8.606H61.6163C61.1963 8.606 60.8463 8.956 60.8463 9.376C60.8463 9.796 61.1963 10.132 61.6163 10.132H70.6743V12.54C70.6743 13.086 71.1083 13.394 71.6683 13.394ZM83.9323 5.512C85.2203 5.512 86.2843 4.448 86.2843 2.992C86.2843 1.536 85.2203 0.458 83.9323 0.458H77.0583C75.7423 0.458 74.7063 1.536 74.7063 2.992C74.7063 4.448 75.7423 5.512 77.0583 5.512H83.9323ZM77.4783 4C76.9743 4 76.5963 3.608 76.5963 2.978C76.5963 2.362 76.9743 1.97 77.4783 1.97H83.4983C84.0023 1.97 84.3803 2.362 84.3803 2.978C84.3803 3.608 84.0023 4 83.4983 4H77.4783ZM86.2143 8.284C86.6203 8.284 86.9703 7.948 86.9703 7.528C86.9703 7.094 86.6203 6.758 86.2143 6.758H74.7763C74.3563 6.758 74.0063 7.094 74.0063 7.528C74.0063 7.948 74.3563 8.284 74.7763 8.284H86.2143ZM85.6963 13.254C86.1023 13.254 86.4383 12.932 86.4383 12.526C86.4383 12.106 86.1023 11.784 85.6963 11.784H76.7923V9.908C76.7923 9.376 76.3583 9.068 75.8263 9.068C75.2803 9.068 74.8463 9.376 74.8463 9.908V12.344C74.8463 12.932 75.1683 13.254 75.7563 13.254H85.6963ZM103.656 0.303999C103.11 0.303999 102.676 0.668 102.676 1.186V5.708H99.8195C100.03 4.686 100.142 3.566 100.142 2.32V1.872C100.142 1.27 99.8195 0.933999 99.2035 0.933999H93.3375C92.9035 0.933999 92.5255 1.312 92.5255 1.746C92.5255 2.208 92.9035 2.558 93.3375 2.558H98.2375C98.2375 3.622 98.1535 4.574 97.9855 5.442H93.4915C93.0575 5.442 92.6935 5.806 92.6935 6.254C92.6935 6.688 93.0575 7.052 93.4915 7.052H97.4955C96.6975 9.012 95.2135 10.3 93.0295 10.972C92.6935 11.084 92.4275 11.406 92.4275 11.784C92.4275 12.358 92.9875 12.75 93.5195 12.596C96.3755 11.784 98.3495 10.062 99.3575 7.332H102.676V12.47C102.676 13.002 103.11 13.366 103.656 13.366C104.216 13.366 104.636 13.002 104.636 12.47V1.186C104.636 0.668 104.216 0.303999 103.656 0.303999ZM117.656 13.366C118.202 13.366 118.636 13.002 118.636 12.456V1.214C118.636 0.668 118.202 0.303999 117.656 0.303999C117.096 0.303999 116.648 0.668 116.648 1.214V12.456C116.648 13.002 117.096 13.366 117.656 13.366ZM114.436 2.474C114.856 2.474 115.192 2.124 115.192 1.704C115.192 1.284 114.856 0.933999 114.436 0.933999H107.296C106.89 0.933999 106.54 1.284 106.54 1.704C106.54 2.124 106.89 2.474 107.296 2.474H114.436ZM114.576 12.722C114.996 12.722 115.332 12.386 115.332 11.966C115.332 11.546 114.996 11.196 114.576 11.196H113.498L113.806 3.776C113.834 3.244 113.4 2.936 112.882 2.936C112.378 2.936 111.958 3.23 111.944 3.734L111.664 11.196H110.082L109.816 3.748C109.802 3.244 109.382 2.922 108.878 2.922C108.36 2.922 107.94 3.216 107.954 3.762L108.248 11.196H107.17C106.75 11.196 106.4 11.546 106.4 11.966C106.4 12.386 106.75 12.722 107.17 12.722H114.576ZM127.512 3.692C127.946 3.692 128.31 3.328 128.31 2.894C128.31 2.46 127.946 2.11 127.512 2.11H125.328V0.92C125.328 0.444 124.908 0.136 124.348 0.136C123.802 0.136 123.368 0.444 123.368 0.92V2.11H121.184C120.75 2.11 120.4 2.46 120.4 2.894C120.4 3.328 120.764 3.692 121.198 3.692H127.512ZM131.194 13.366C131.74 13.366 132.174 13.002 132.174 12.47V7.206H133.224C133.686 7.206 133.98 6.828 133.98 6.366C133.98 5.904 133.686 5.526 133.224 5.526H132.174V1.186C132.174 0.668 131.74 0.303999 131.194 0.303999C130.662 0.303999 130.214 0.668 130.214 1.186V12.47C130.214 13.002 130.662 13.366 131.194 13.366ZM124.348 12.932C126.42 12.932 128.002 11.728 128.002 9.74V7.668C128.002 5.694 126.42 4.476 124.348 4.476C122.29 4.476 120.694 5.694 120.694 7.668V9.74C120.694 11.728 122.29 12.932 124.348 12.932ZM124.362 11.42C123.382 11.42 122.57 10.804 122.57 9.74V7.696C122.57 6.618 123.382 6.002 124.362 6.002C125.328 6.002 126.154 6.618 126.154 7.696V9.74C126.154 10.804 125.328 11.42 124.362 11.42ZM143.444 6.45C145.208 6.45 146.552 5.162 146.552 3.538C146.552 1.9 145.208 0.625999 143.444 0.625999H137.928C136.164 0.625999 134.82 1.9 134.82 3.538C134.82 5.162 136.164 6.45 137.928 6.45H143.444ZM138.306 4.882C137.41 4.882 136.752 4.336 136.752 3.538C136.752 2.768 137.41 2.208 138.306 2.208H143.066C143.962 2.208 144.62 2.754 144.62 3.538C144.62 4.336 143.962 4.882 143.066 4.882H138.306ZM140.686 13.506C141.246 13.506 141.68 13.142 141.68 12.596V9.488H146.356C146.804 9.488 147.168 9.124 147.168 8.676C147.168 8.228 146.804 7.864 146.356 7.864H135.016C134.582 7.864 134.204 8.228 134.204 8.676C134.204 9.124 134.582 9.488 135.016 9.488H139.692V12.596C139.692 13.142 140.14 13.506 140.686 13.506ZM149.562 7.892C152.012 7.57 153.902 6.226 154.686 4.672C155.47 6.226 157.36 7.57 159.824 7.892C160.314 7.962 160.762 7.584 160.762 7.08C160.762 6.674 160.454 6.352 160.09 6.268C157.542 5.834 155.68 4.014 155.68 2.25V1.312C155.68 0.78 155.246 0.458 154.686 0.458C154.14 0.458 153.706 0.78 153.706 1.312V2.25C153.706 4.014 151.844 5.834 149.296 6.268C148.918 6.352 148.624 6.674 148.624 7.08C148.624 7.584 149.072 7.962 149.562 7.892ZM160.356 12.932C160.804 12.932 161.168 12.568 161.168 12.12C161.168 11.658 160.804 11.28 160.356 11.28H149.03C148.582 11.28 148.204 11.658 148.204 12.12C148.204 12.568 148.582 12.932 149.03 12.932H160.356ZM171.122 0.303999C170.646 0.303999 170.254 0.611999 170.254 1.088V5.61H168.532V3.356C168.532 1.704 167.244 0.569999 165.62 0.569999C163.982 0.569999 162.694 1.704 162.694 3.356V10.146C162.694 11.798 163.982 12.932 165.62 12.932C167.244 12.932 168.532 11.798 168.532 10.146V7.234H170.254V12.582C170.254 13.058 170.646 13.366 171.122 13.366C171.612 13.366 172.004 13.058 172.004 12.582V1.088C172.004 0.611999 171.612 0.303999 171.122 0.303999ZM173.964 0.303999C173.474 0.303999 173.082 0.625999 173.082 1.102V12.568C173.082 13.044 173.474 13.366 173.964 13.366C174.454 13.366 174.846 13.044 174.846 12.568V1.102C174.846 0.625999 174.454 0.303999 173.964 0.303999ZM166.81 10.118C166.81 10.874 166.292 11.378 165.634 11.378C164.976 11.378 164.458 10.874 164.458 10.118V3.384C164.458 2.642 164.976 2.124 165.634 2.124C166.292 2.124 166.81 2.642 166.81 3.384V10.118ZM187.656 13.366C188.202 13.366 188.636 13.002 188.636 12.47V1.186C188.636 0.668 188.202 0.303999 187.656 0.303999C187.11 0.303999 186.676 0.668 186.676 1.186V4.98H184.352C183.89 4.98 183.54 5.344 183.54 5.792C183.54 6.24 183.89 6.604 184.352 6.604H186.676V12.47C186.676 13.002 187.11 13.366 187.656 13.366ZM177.198 12.428C177.408 12.428 177.604 12.358 177.758 12.246C179.018 11.322 180.194 9.964 180.698 8.452C181.188 9.964 182.378 11.322 183.638 12.246C183.778 12.372 183.974 12.442 184.198 12.442C184.702 12.442 185.122 12.022 185.122 11.504C185.122 11.196 184.968 10.93 184.73 10.762C183.232 9.726 181.678 7.878 181.678 4.602V1.522C181.678 0.99 181.244 0.64 180.712 0.64C180.166 0.64 179.732 0.99 179.732 1.522V4.602C179.732 7.878 178.164 9.726 176.666 10.762C176.428 10.93 176.274 11.196 176.274 11.504C176.274 12.022 176.694 12.428 177.198 12.428ZM205.657 6.968C206.217 6.968 206.525 6.646 206.525 6.1V1.368C206.525 0.836 206.091 0.528 205.545 0.528C204.999 0.528 204.565 0.836 204.565 1.368V2.166H197.201V1.382C197.201 0.836 196.767 0.528 196.221 0.528C195.675 0.528 195.241 0.836 195.241 1.382V6.1C195.241 6.646 195.549 6.968 196.109 6.968H205.657ZM204.565 5.442H197.201V3.65H204.565V5.442ZM195.185 8.228C194.751 8.228 194.401 8.592 194.401 9.026C194.401 9.46 194.751 9.81 195.185 9.81H199.889V12.596C199.889 13.142 200.337 13.506 200.883 13.506C201.443 13.506 201.877 13.142 201.877 12.596V9.81H206.581C207.015 9.81 207.365 9.46 207.365 9.026C207.365 8.592 207.015 8.228 206.581 8.228H195.185ZM220.315 2.936V1.144C220.315 0.611999 219.895 0.303999 219.335 0.303999C218.789 0.303999 218.355 0.611999 218.355 1.144V6.646C218.355 7.192 218.789 7.5 219.335 7.5C219.895 7.5 220.315 7.192 220.315 6.646V4.532H221.421C221.855 4.532 222.177 4.168 222.177 3.734C222.177 3.3 221.855 2.936 221.421 2.936H220.315ZM216.297 6.254C216.731 6.184 216.997 5.89 216.997 5.498C216.997 5.05 216.661 4.672 216.185 4.756C214.449 5.064 212.699 5.218 210.963 5.26V2.18H215.303C215.709 2.18 216.059 1.844 216.059 1.424C216.059 1.018 215.709 0.681999 215.303 0.681999H209.885C209.311 0.681999 209.003 0.99 209.003 1.55V5.946C209.003 6.534 209.339 6.8 209.913 6.8C212.041 6.744 214.169 6.576 216.297 6.254ZM210.473 7.99C209.899 7.99 209.591 8.298 209.591 8.858V12.372C209.591 12.932 209.927 13.254 210.487 13.226L218.411 12.862C218.537 13.198 218.901 13.366 219.335 13.366C219.895 13.366 220.315 13.1 220.315 12.568V8.858C220.315 8.298 220.007 7.99 219.461 7.99H210.473ZM218.355 9.474V11.392L211.565 11.686V9.474H218.355ZM228.407 3.692C228.827 3.692 229.177 3.342 229.177 2.922C229.177 2.502 228.827 2.152 228.407 2.152H226.797V0.906C226.797 0.402 226.391 0.136 225.887 0.136C225.383 0.136 224.977 0.402 224.977 0.906V2.152H223.367C222.947 2.152 222.597 2.502 222.597 2.922C222.597 3.342 222.947 3.692 223.367 3.692H228.407ZM230.997 13.366C231.487 13.366 231.865 13.058 231.865 12.582V7.192H233.279V12.568C233.279 13.044 233.671 13.366 234.161 13.366C234.651 13.366 235.043 13.044 235.043 12.568V1.102C235.043 0.625999 234.651 0.303999 234.161 0.303999C233.671 0.303999 233.279 0.625999 233.279 1.102V5.554H231.865V1.088C231.865 0.611999 231.487 0.303999 230.997 0.303999C230.507 0.303999 230.115 0.611999 230.115 1.088V12.582C230.115 13.058 230.507 13.366 230.997 13.366ZM222.891 10.202C222.891 11.868 224.235 12.946 225.887 12.946C227.539 12.946 228.883 11.868 228.883 10.202V7.164C228.883 5.512 227.539 4.434 225.887 4.434C224.235 4.434 222.891 5.512 222.891 7.164V10.202ZM225.887 11.42C225.201 11.42 224.613 10.93 224.613 10.104V7.262C224.613 6.436 225.201 5.946 225.887 5.946C226.587 5.946 227.161 6.436 227.161 7.262V10.104C227.161 10.93 226.587 11.42 225.887 11.42ZM245.235 7.878C247.293 7.878 248.749 6.282 248.749 4.266C248.749 2.222 247.293 0.64 245.235 0.64H240.531C238.473 0.64 237.017 2.222 237.017 4.266C237.017 6.282 238.473 7.878 240.531 7.878H245.235ZM240.937 6.296C239.817 6.296 239.005 5.456 239.005 4.266C239.005 3.062 239.817 2.222 240.937 2.222H244.829C245.963 2.222 246.775 3.062 246.775 4.266C246.775 5.456 245.963 6.296 244.829 6.296H240.937ZM248.553 12.932C249.001 12.932 249.365 12.582 249.365 12.12C249.365 11.672 249.001 11.308 248.553 11.308H246.411V9.194C246.411 8.69 245.991 8.396 245.473 8.396C244.941 8.396 244.535 8.69 244.535 9.194V11.308H241.273V9.194C241.273 8.69 240.867 8.396 240.335 8.396C239.803 8.396 239.397 8.69 239.397 9.194V11.308H237.213C236.779 11.308 236.401 11.672 236.401 12.12C236.401 12.582 236.779 12.932 237.213 12.932H248.553ZM251.815 12.82C252.235 12.82 252.543 12.526 252.543 12.106V11.63C252.543 11.21 252.235 10.902 251.815 10.902H251.367C250.947 10.902 250.639 11.21 250.639 11.63V12.106C250.639 12.526 250.947 12.82 251.367 12.82H251.815Z" fill="#FF7A2F"/>
</svg>
