<svg viewBox="0 0 252 21" fill="none" xmlns="http://www.w3.org/2000/svg">
<path d="M16.9039 1.08781C15.8439 1.08781 15.0039 1.78781 15.0039 2.80781V8.42781H11.7039C11.9039 7.24781 12.0039 5.94781 12.0039 4.56781V3.44781C12.0039 2.48781 11.4839 1.94781 10.5039 1.94781H2.58391C1.72391 1.94781 1.02391 2.64781 1.02391 3.50781C1.02391 4.38781 1.72391 5.06781 2.58391 5.06781H8.38391C8.40391 10.8678 6.24391 14.2478 2.02391 15.6878C1.38391 15.9078 0.903906 16.5478 0.903906 17.2678C0.903906 18.3878 2.00391 19.1678 3.04391 18.8478C6.80391 17.7278 9.48391 15.3278 10.8839 11.5678H15.0039V18.2678C15.0039 19.3078 15.8439 20.0078 16.9039 20.0078C17.9639 20.0078 18.8039 19.2878 18.8039 18.2678V2.80781C18.8039 1.78781 17.9639 1.08781 16.9039 1.08781ZM33.0239 20.0078C33.8839 20.0078 34.5839 19.4678 34.5839 18.6078V11.4478H35.8639V18.5678C35.8639 19.4478 36.5839 20.0078 37.4639 20.0078C38.3439 20.0078 39.0639 19.4478 39.0639 18.5678V2.50781C39.0639 1.64781 38.3439 1.08781 37.4639 1.08781C36.5839 1.08781 35.8639 1.64781 35.8639 2.50781V8.30781H34.5839V2.48781C34.5839 1.62781 33.8839 1.08781 33.0239 1.08781C32.1439 1.08781 31.4439 1.62781 31.4439 2.48781V18.6078C31.4439 19.4678 32.1439 20.0078 33.0239 20.0078ZM22.8439 18.9478C25.1039 18.8878 27.3239 18.6878 29.5639 18.1478C30.4039 17.9278 30.7639 17.4078 30.7639 16.6078C30.7639 15.7078 30.1239 14.8478 29.2239 15.1078C27.7239 15.5078 26.2239 15.6878 24.7239 15.7278V11.5878H28.5439C29.5039 11.5878 30.0239 11.0678 30.0239 10.1278V3.42781C30.0239 2.46781 29.5039 1.94781 28.5439 1.94781H22.6239C21.7839 1.94781 21.1039 2.62781 21.1039 3.46781C21.1039 4.32781 21.7839 5.00781 22.6239 5.00781H26.6439V8.68781H22.7639C21.8039 8.68781 21.3039 9.20781 21.3039 10.1678V17.5878C21.3039 18.5678 21.8839 18.9678 22.8439 18.9478ZM49.06 10.1878C52.54 9.78781 54.8 8.26781 56 6.54781C57.2 8.26781 59.5 9.78781 62.96 10.1878C63.86 10.2878 64.68 9.56781 64.68 8.64781C64.68 7.86781 64.08 7.22781 63.36 7.12781C59.9 6.64781 57.94 4.72781 57.94 2.84781V2.72781C57.94 1.66781 57.08 1.10781 56.02 1.10781C54.94 1.10781 54.08 1.66781 54.08 2.72781V2.84781C54.08 4.72781 52.12 6.64781 48.66 7.12781C47.94 7.22781 47.34 7.86781 47.34 8.64781C47.34 9.56781 48.16 10.2878 49.06 10.1878ZM56 20.2078C57.08 20.2078 57.94 19.4878 57.94 18.4278V14.5878H63.84C64.66 14.5878 65.38 13.9078 65.38 13.0478C65.38 12.2078 64.66 11.5278 63.84 11.5278H48.18C47.34 11.5278 46.64 12.2078 46.64 13.0478C46.64 13.9078 47.34 14.5878 48.18 14.5878H54.06V18.4278C54.06 19.4878 54.94 20.2078 56 20.2078ZM69.06 10.1878C72.54 9.78781 74.8 8.26781 76 6.54781C77.2 8.26781 79.5 9.78781 82.96 10.1878C83.86 10.2878 84.68 9.56781 84.68 8.64781C84.68 7.86781 84.08 7.22781 83.36 7.12781C79.9 6.64781 77.94 4.72781 77.94 2.84781V2.72781C77.94 1.66781 77.08 1.10781 76.02 1.10781C74.94 1.10781 74.08 1.66781 74.08 2.72781V2.84781C74.08 4.72781 72.12 6.64781 68.66 7.12781C67.94 7.22781 67.34 7.86781 67.34 8.64781C67.34 9.56781 68.16 10.2878 69.06 10.1878ZM76 20.2078C77.08 20.2078 77.94 19.4878 77.94 18.4278V14.5878H83.84C84.66 14.5878 85.38 13.9078 85.38 13.0478C85.38 12.2078 84.66 11.5278 83.84 11.5278H68.18C67.34 11.5278 66.64 12.2078 66.64 13.0478C66.64 13.9078 67.34 14.5878 68.18 14.5878H74.06V18.4278C74.06 19.4878 74.94 20.2078 76 20.2078ZM103.36 12.4678C104.12 12.4678 104.74 11.8478 104.74 11.0878C104.74 10.3278 104.12 9.70781 103.36 9.70781H91.46V8.26781H102.88C103.82 8.26781 104.34 7.74781 104.34 6.78781V3.10781C104.34 2.14781 103.82 1.64781 102.88 1.64781H88.82C88.08 1.64781 87.48 2.24781 87.48 2.96781C87.48 3.70781 88.08 4.30781 88.82 4.30781H100.56V5.68781H89.14C88.18 5.68781 87.66 6.18781 87.66 7.14781V11.0078C87.66 11.9678 88.18 12.4678 89.14 12.4678H103.36ZM103.82 19.4278C104.66 19.4278 105.38 18.7478 105.38 17.8678C105.38 17.0078 104.66 16.3078 103.82 16.3078H101.7V14.5878C101.7 13.6278 100.92 13.1478 99.94 13.1478C98.96 13.1478 98.18 13.6278 98.18 14.5878V16.3078H93.94V14.5878C93.94 13.6278 93.14 13.1478 92.16 13.1478C91.18 13.1478 90.4 13.6278 90.4 14.5878V16.3078H88.2C87.36 16.3078 86.64 17.0078 86.64 17.8678C86.64 18.7478 87.36 19.4278 88.2 19.4278H103.82ZM123.68 8.34781C124.2 8.34781 124.64 7.92781 124.64 7.38781C124.64 6.86781 124.2 6.42781 123.68 6.42781H111.4V5.68781H123.18C123.92 5.68781 124.34 5.28781 124.34 4.52781V2.52781C124.34 1.76781 123.92 1.36781 123.18 1.36781H108.58C108.06 1.36781 107.62 1.78781 107.62 2.32781C107.62 2.84781 108.06 3.28781 108.58 3.28781H120.58V3.98781H108.84C108.08 3.98781 107.66 4.38781 107.66 5.14781V7.18781C107.66 7.94781 108.08 8.34781 108.84 8.34781H123.68ZM124.14 11.6478C124.82 11.6478 125.38 11.1078 125.38 10.4078C125.38 9.74781 124.82 9.20781 124.14 9.20781H107.86C107.18 9.20781 106.64 9.74781 106.64 10.4078C106.64 11.1078 107.18 11.6478 107.86 11.6478H124.14ZM123.84 19.7878C124.38 19.7878 124.84 19.3478 124.84 18.8078C124.84 18.2478 124.38 17.8078 123.84 17.8078H111.4V17.0278H123.18C123.92 17.0278 124.34 16.6078 124.34 15.8478V13.7078C124.34 12.9478 123.92 12.5278 123.18 12.5278H108.58C108.06 12.5278 107.62 12.9678 107.62 13.4878C107.62 14.0278 108.06 14.4478 108.58 14.4478H120.58V15.1878H108.84C108.08 15.1878 107.66 15.6078 107.66 16.3678V18.6278C107.66 19.3878 108.08 19.7878 108.84 19.7878H123.84ZM142.376 12.0678C143.316 12.0678 143.836 11.5478 143.836 10.6078V10.3278H147.036V13.5278C147.036 14.5878 147.876 15.1078 148.956 15.1078C149.996 15.1078 150.856 14.5878 150.856 13.5278V2.68781C150.856 1.62781 149.996 1.08781 148.956 1.08781C147.876 1.08781 147.036 1.62781 147.036 2.68781V3.30781H143.836V3.08781C143.836 2.14781 143.316 1.62781 142.376 1.62781H134.776C133.836 1.62781 133.316 2.14781 133.316 3.08781V10.6078C133.316 11.5478 133.836 12.0678 134.776 12.0678H142.376ZM140.236 4.44781V9.24781H136.976V4.44781H140.236ZM147.036 7.72781H143.836V5.92781H147.036V7.72781ZM138.036 16.9078V14.7478C138.036 13.6878 137.176 13.1478 136.116 13.1478C135.056 13.1478 134.196 13.6878 134.196 14.7478V18.1878C134.196 19.2278 134.756 19.7878 135.796 19.7878H149.936C150.716 19.7878 151.376 19.1478 151.376 18.3478C151.376 17.5678 150.716 16.9078 149.936 16.9078H138.036ZM165.216 20.0078C166.076 20.0078 166.756 19.4678 166.756 18.6078V2.48781C166.756 1.62781 166.076 1.08781 165.216 1.08781C164.336 1.08781 163.636 1.62781 163.636 2.48781V8.26781H162.096C161.276 8.26781 160.596 8.94781 160.596 9.76781C160.596 10.5878 161.276 11.2678 162.096 11.2678H163.636V18.6078C163.636 19.4678 164.336 20.0078 165.216 20.0078ZM169.456 20.0078C170.336 20.0078 171.056 19.4478 171.056 18.5678V2.50781C171.056 1.64781 170.336 1.08781 169.456 1.08781C168.576 1.08781 167.856 1.64781 167.856 2.50781V18.5678C167.856 19.4478 168.576 20.0078 169.456 20.0078ZM154.316 19.0078C154.736 19.0078 155.136 18.8678 155.476 18.4878C156.296 17.5678 157.216 16.0078 157.656 14.1478C158.116 16.0078 159.036 17.5878 159.876 18.4878C160.196 18.8478 160.596 19.0078 161.036 19.0078C161.936 19.0078 162.636 18.3678 162.636 17.4878C162.636 16.9878 162.396 16.6078 162.116 16.2678C160.716 14.6278 159.276 11.7678 159.276 6.70781V4.94781H160.956C161.756 4.94781 162.296 4.26781 162.296 3.44781C162.296 2.64781 161.756 1.98781 160.956 1.98781H154.356C153.556 1.98781 153.036 2.64781 153.036 3.44781C153.036 4.26781 153.556 4.94781 154.356 4.94781H156.056V6.70781C156.056 11.7678 154.636 14.6278 153.236 16.2678C152.976 16.6078 152.716 16.9878 152.716 17.4878C152.716 18.3678 153.436 19.0078 154.316 19.0078ZM181.036 6.30781C181.816 6.30781 182.456 5.66781 182.456 4.88781C182.456 4.10781 181.816 3.48781 181.036 3.48781H179.336V2.22781C179.336 1.30781 178.576 0.867811 177.656 0.867811C176.736 0.867811 175.976 1.30781 175.976 2.22781V3.48781H174.276C173.496 3.48781 172.876 4.10781 172.876 4.88781C172.876 5.66781 173.496 6.30781 174.276 6.30781H181.036ZM184.936 20.0078C185.796 20.0078 186.496 19.4678 186.496 18.6078V11.4478H187.856V18.5678C187.856 19.4478 188.576 20.0078 189.456 20.0078C190.336 20.0078 191.056 19.4478 191.056 18.5678V2.50781C191.056 1.64781 190.336 1.08781 189.456 1.08781C188.576 1.08781 187.856 1.64781 187.856 2.50781V8.30781H186.496V2.48781C186.496 1.62781 185.796 1.08781 184.936 1.08781C184.076 1.08781 183.376 1.62781 183.376 2.48781V18.6078C183.376 19.4678 184.076 20.0078 184.936 20.0078ZM173.296 15.5078C173.296 17.8278 175.316 19.4478 177.656 19.4478C179.996 19.4478 182.036 17.8278 182.036 15.5078V10.9478C182.036 8.62781 179.996 7.00781 177.656 7.00781C175.316 7.00781 173.296 8.62781 173.296 10.9478V15.5078ZM177.676 16.6678C176.956 16.6678 176.336 16.1078 176.336 15.3278V11.1078C176.336 10.3278 176.956 9.78781 177.676 9.78781C178.416 9.78781 179.016 10.3278 179.016 11.1078V15.3278C179.016 16.1078 178.416 16.6678 177.676 16.6678ZM209.136 12.4278C210.016 12.4278 210.736 11.7078 210.736 10.8078C210.736 9.92781 210.016 9.22781 209.136 9.22781H197.516V4.78781H208.956C209.836 4.78781 210.536 4.08781 210.536 3.20781C210.536 2.34781 209.836 1.64781 208.956 1.64781H195.136C194.176 1.64781 193.656 2.14781 193.656 3.10781V10.9478C193.656 11.9078 194.176 12.4278 195.136 12.4278H209.136ZM209.736 19.4278C210.636 19.4278 211.376 18.6878 211.376 17.8078C211.376 16.9078 210.636 16.1678 209.736 16.1678H194.276C193.376 16.1678 192.636 16.9078 192.636 17.8078C192.636 18.6878 193.376 19.4278 194.276 19.4278H209.736ZM228.936 20.0078C229.976 20.0078 230.836 19.2878 230.836 18.2678V2.80781C230.836 1.78781 229.976 1.08781 228.936 1.08781C227.876 1.08781 227.036 1.78781 227.036 2.80781V4.90781H225.036C224.216 4.90781 223.556 5.56781 223.556 6.38781C223.556 7.20781 224.216 7.88781 225.036 7.88781H227.036V10.3278H225.036C224.216 10.3278 223.556 10.9878 223.556 11.8078C223.556 12.6278 224.216 13.3078 225.036 13.3078H227.036V18.2678C227.036 19.3078 227.876 20.0078 228.936 20.0078ZM214.836 19.0078C218.016 18.9278 221.176 18.6878 224.356 18.0878C225.316 17.9078 225.776 17.3278 225.776 16.5078C225.776 15.5878 225.176 14.7078 224.116 14.9678C221.736 15.5078 219.416 15.7678 217.036 15.8478V11.5878H221.036C221.956 11.5878 222.476 11.1078 222.576 10.2078L223.276 3.48781C223.376 2.50781 222.876 1.94781 221.876 1.94781H214.636C213.816 1.94781 213.136 2.62781 213.136 3.46781C213.136 4.32781 213.816 5.00781 214.636 5.00781H219.396L218.996 8.68781H214.776C213.836 8.68781 213.316 9.20781 213.316 10.1678V17.6078C213.316 18.5878 213.876 19.0278 214.836 19.0078ZM245.536 12.0878C248.496 12.0878 250.576 9.74781 250.576 6.82781C250.576 3.88781 248.496 1.54781 245.536 1.54781H238.436C235.496 1.54781 233.416 3.88781 233.416 6.82781C233.416 9.74781 235.496 12.0878 238.436 12.0878H245.536ZM239.476 9.12781C238.196 9.12781 237.296 8.16781 237.296 6.82781C237.296 5.48781 238.196 4.52781 239.476 4.52781H244.536C245.816 4.52781 246.716 5.48781 246.716 6.82781C246.716 8.16781 245.816 9.12781 244.536 9.12781H239.476ZM249.816 19.4278C250.656 19.4278 251.376 18.7478 251.376 17.8678C251.376 17.0078 250.656 16.3078 249.816 16.3078H247.636V14.2078C247.636 13.2478 246.856 12.7678 245.876 12.7678C244.876 12.7678 244.096 13.2478 244.096 14.2078V16.3078H239.976V14.2078C239.976 13.2478 239.196 12.7678 238.216 12.7678C237.216 12.7678 236.436 13.2478 236.436 14.2078V16.3078H234.196C233.356 16.3078 232.636 17.0078 232.636 17.8678C232.636 18.7478 233.356 19.4278 234.196 19.4278H249.816Z" fill="#424242"/>
</svg>
