<svg viewBox="0 0 278 21" fill="none" xmlns="http://www.w3.org/2000/svg">
<path d="M3.28031 12.1478C6.60031 11.6478 9.16031 9.92781 10.3203 7.94781C11.4803 9.92781 14.0403 11.6478 17.3803 12.1478C18.3203 12.2878 19.1803 11.5678 19.1803 10.6278C19.1803 9.88781 18.6203 9.26781 17.9403 9.10781C14.4403 8.40781 12.2603 6.00781 12.2603 3.84781V2.84781C12.2603 1.78781 11.4003 1.22781 10.3403 1.22781C9.26031 1.22781 8.40031 1.78781 8.40031 2.84781V3.84781C8.40031 6.00781 6.28031 8.40781 2.72031 9.10781C2.02031 9.26781 1.48031 9.88781 1.48031 10.6278C1.48031 11.5878 2.34031 12.2878 3.28031 12.1478ZM18.1403 19.4278C18.9803 19.4278 19.7003 18.7478 19.7003 17.8678C19.7003 17.0078 18.9803 16.3078 18.1403 16.3078H12.2203V13.3878C12.2203 12.3478 11.3803 11.6678 10.3203 11.6678C9.26031 11.6678 8.42031 12.3478 8.42031 13.3878V16.3078H2.52031C1.68031 16.3078 0.960313 17.0078 0.960313 17.8678C0.960313 18.7478 1.68031 19.4278 2.52031 19.4278H18.1403ZM32.6803 5.70781C32.0603 5.70781 31.5203 6.22781 31.5203 6.86781C31.5203 7.50781 32.0603 8.00781 32.6803 8.00781H35.3203V10.0478C35.3203 11.1078 36.1803 11.6278 37.2403 11.6278C38.3003 11.6278 39.1403 11.1078 39.1403 10.0478V2.68781C39.1403 1.62781 38.3003 1.08781 37.2403 1.08781C36.2403 1.08781 35.4403 1.56781 35.3403 2.48781H32.6803C32.0603 2.48781 31.5203 3.00781 31.5203 3.64781C31.5203 4.28781 32.0603 4.78781 32.6803 4.78781H35.3203V5.70781H32.6803ZM22.8603 11.0278C24.7803 10.4678 26.2203 9.50781 27.1203 8.10781C28.0203 9.50781 29.4803 10.4678 31.4203 11.0278C31.5203 11.0478 31.6403 11.0678 31.7803 11.0678C32.5003 11.0678 33.1003 10.4878 33.1003 9.76781C33.1003 9.18781 32.7203 8.68781 32.2003 8.50781C30.2003 7.82781 28.9203 6.54781 28.9203 4.34781V2.84781C28.9203 1.86781 28.1203 1.22781 27.1403 1.22781C26.1403 1.22781 25.3403 1.86781 25.3403 2.84781V4.34781C25.3403 6.54781 24.0603 7.82781 22.0603 8.50781C21.5603 8.68781 21.1803 9.18781 21.1803 9.74781C21.1803 10.4878 21.7803 11.0678 22.5003 11.0678C22.6203 11.0678 22.7403 11.0678 22.8603 11.0278ZM26.3203 17.6278V16.8278H38.0003C38.7603 16.8278 39.1803 16.4078 39.1803 15.6478V13.3078C39.1803 12.5478 38.7603 12.1478 38.0003 12.1478H23.4403C22.8603 12.1478 22.4003 12.6078 22.4003 13.1878C22.4003 13.7678 22.8603 14.2478 23.4403 14.2478H35.3803V14.9478H23.6803C22.9203 14.9478 22.5203 15.3678 22.5203 16.1078V18.6278C22.5203 19.3878 22.9203 19.7878 23.6803 19.7878H38.5403C39.1403 19.7878 39.6203 19.3078 39.6203 18.7078C39.6203 18.1278 39.1403 17.6278 38.5403 17.6278H26.3203ZM63.5164 4.46781C64.2764 4.46781 64.9364 3.84781 64.9364 3.04781C64.9364 2.26781 64.2764 1.64781 63.5164 1.64781H49.1364C48.3564 1.64781 47.7164 2.26781 47.7164 3.04781C47.7164 3.84781 48.3564 4.46781 49.1364 4.46781H63.5164ZM63.7164 12.8478C64.4764 12.8478 65.1364 12.2078 65.1364 11.4078C65.1364 10.6478 64.4764 10.0078 63.7164 10.0078H61.9564L62.2364 6.52781C62.3164 5.52781 61.5164 4.96781 60.4964 4.96781C59.5764 4.96781 58.8164 5.50781 58.7764 6.40781L58.4964 10.0078H54.0764L53.8164 6.42781C53.7764 5.50781 53.0164 4.96781 52.0964 4.96781C51.0764 4.96781 50.2764 5.50781 50.3564 6.52781L50.6164 10.0078H48.9364C48.1564 10.0078 47.5164 10.6478 47.5164 11.4078C47.5164 12.2078 48.1564 12.8478 48.9364 12.8478H63.7164ZM64.1164 19.4278C64.9764 19.4278 65.6964 18.7278 65.6964 17.8678C65.6964 16.9878 64.9764 16.2878 64.1164 16.2878H48.5364C47.6764 16.2878 46.9564 16.9878 46.9564 17.8678C46.9564 18.7278 47.6764 19.4278 48.5364 19.4278H64.1164ZM83.6564 12.5278C84.4164 12.5278 85.0564 11.9078 85.0564 11.1278C85.0564 10.3478 84.4164 9.72781 83.6564 9.72781H71.7764V8.30781H83.1964C84.1364 8.30781 84.6564 7.78781 84.6564 6.82781V3.10781C84.6564 2.14781 84.1364 1.64781 83.1964 1.64781H69.1364C68.3964 1.64781 67.7964 2.24781 67.7964 2.98781C67.7964 3.72781 68.3964 4.34781 69.1364 4.34781H80.8764V5.68781H69.4564C68.4964 5.68781 67.9764 6.20781 67.9764 7.14781V11.0678C67.9764 12.0078 68.4964 12.5278 69.4564 12.5278H83.6564ZM84.1564 19.4278C84.9964 19.4278 85.6964 18.7478 85.6964 17.8878C85.6964 17.0478 84.9964 16.3478 84.1564 16.3478H78.2564V14.8078C78.2564 13.7478 77.3964 13.1878 76.3164 13.1878C75.2564 13.1878 74.3764 13.7478 74.3764 14.8078V16.3478H68.4964C67.6564 16.3478 66.9564 17.0478 66.9564 17.8878C66.9564 18.7478 67.6564 19.4278 68.4964 19.4278H84.1564ZM99.5364 13.0278C100.396 13.0278 101.076 12.6478 101.076 11.8078V2.32781C101.076 1.48781 100.396 1.08781 99.5364 1.08781C98.6564 1.08781 97.9564 1.48781 97.9564 2.32781V5.48781H96.5364C95.8164 5.48781 95.2164 6.08781 95.2164 6.80781C95.2164 7.56781 95.8164 8.16781 96.5364 8.16781H97.9564V11.8078C97.9564 12.6478 98.6564 13.0278 99.5364 13.0278ZM103.776 13.0278C104.656 13.0278 105.376 12.6478 105.376 11.7678V2.36781C105.376 1.48781 104.656 1.08781 103.776 1.08781C102.896 1.08781 102.176 1.48781 102.176 2.36781V11.7678C102.176 12.6478 102.896 13.0278 103.776 13.0278ZM88.6364 12.4478C88.8564 12.4478 89.0764 12.3878 89.2564 12.3078C90.4564 11.7478 91.4164 10.5078 92.0564 9.04781C92.6964 10.5278 93.6164 11.7478 94.7964 12.3278C94.9764 12.4078 95.1964 12.4678 95.4364 12.4678C96.2564 12.4678 96.9164 11.7878 96.9164 10.9678C96.9164 10.3478 96.5164 9.88781 96.0164 9.58781C94.7764 8.88781 93.6764 7.56781 93.6164 4.76781V4.46781H95.4564C96.2364 4.46781 96.7164 3.82781 96.7164 3.04781C96.7164 2.28781 96.2364 1.64781 95.4564 1.64781H88.6164C87.8364 1.64781 87.3564 2.28781 87.3564 3.04781C87.3564 3.82781 87.8364 4.46781 88.6164 4.46781H90.4964V4.76781C90.4364 7.56781 89.2964 8.88781 88.0564 9.58781C87.5564 9.88781 87.1564 10.3478 87.1564 10.9678C87.1564 11.7878 87.7964 12.4478 88.6364 12.4478ZM103.396 20.0078C104.496 20.0078 105.376 19.4478 105.376 18.3678V15.2078C105.376 14.1678 104.796 13.5878 103.756 13.5878H89.5164C88.7364 13.5878 88.0964 14.2278 88.0964 15.0078C88.0964 15.7878 88.7364 16.4078 89.5164 16.4078H101.416V18.3678C101.416 19.4478 102.296 20.0078 103.396 20.0078ZM123.436 4.48781C124.216 4.48781 124.856 3.84781 124.856 3.06781C124.856 2.26781 124.216 1.64781 123.436 1.64781H109.216C108.436 1.64781 107.796 2.26781 107.796 3.06781C107.796 3.84781 108.436 4.48781 109.216 4.48781H123.436ZM123.596 13.1078C124.396 13.1078 125.056 12.4678 125.056 11.6478C125.056 10.8678 124.396 10.2078 123.596 10.2078H111.836V8.48781H123.376C124.136 8.48781 124.776 7.86781 124.776 7.08781C124.776 6.32781 124.136 5.70781 123.376 5.70781H109.456C108.496 5.70781 107.976 6.22781 107.976 7.16781V11.6478C107.976 12.5878 108.496 13.1078 109.456 13.1078H123.596ZM124.156 19.4278C124.996 19.4278 125.696 18.7478 125.696 17.9078C125.696 17.0478 124.996 16.3678 124.156 16.3678H108.496C107.656 16.3678 106.956 17.0478 106.956 17.9078C106.956 18.7478 107.656 19.4278 108.496 19.4278H124.156ZM139.556 1.08781C138.696 1.08781 137.996 1.62781 137.996 2.48781V8.42781H136.136V5.52781C136.136 3.20781 134.196 1.56781 131.876 1.56781C129.556 1.56781 127.616 3.20781 127.616 5.52781V15.4678C127.616 17.7878 129.556 19.4278 131.876 19.4278C134.196 19.4278 136.136 17.7878 136.136 15.4678V11.5478H137.996V18.6078C137.996 19.4678 138.696 20.0078 139.556 20.0078C140.416 20.0078 141.116 19.4678 141.116 18.6078V2.48781C141.116 1.62781 140.416 1.08781 139.556 1.08781ZM143.776 1.08781C142.896 1.08781 142.176 1.64781 142.176 2.50781V18.5678C142.176 19.4478 142.896 20.0078 143.776 20.0078C144.656 20.0078 145.376 19.4478 145.376 18.5678V2.50781C145.376 1.64781 144.656 1.08781 143.776 1.08781ZM133.096 15.3678C133.096 16.0478 132.536 16.5078 131.936 16.5078C131.336 16.5078 130.756 16.0478 130.756 15.3678V5.62781C130.756 4.96781 131.336 4.48781 131.936 4.48781C132.536 4.48781 133.096 4.96781 133.096 5.62781V15.3678ZM164.033 4.92781C164.713 4.92781 165.273 4.38781 165.273 3.68781C165.273 3.02781 164.713 2.48781 164.033 2.48781H161.193V1.72781C161.193 0.947811 160.313 0.527812 159.213 0.527812C158.113 0.527812 157.233 0.947811 157.233 1.72781V2.48781H154.393C153.713 2.48781 153.173 3.02781 153.173 3.68781C153.173 4.38781 153.713 4.92781 154.393 4.92781H164.033ZM170.553 4.88781V2.66781C170.553 1.62781 169.713 1.08781 168.653 1.08781C167.593 1.08781 166.753 1.62781 166.753 2.66781V10.7078C166.753 11.7478 167.593 12.2878 168.653 12.2878C169.713 12.2878 170.553 11.7478 170.553 10.7078V7.94781H171.433C172.253 7.94781 172.813 7.26781 172.813 6.40781C172.813 5.56781 172.253 4.88781 171.433 4.88781H170.553ZM162.013 11.8478C163.553 11.8478 164.833 10.4478 164.833 8.70781C164.833 6.92781 163.553 5.54781 162.013 5.54781H156.433C154.893 5.54781 153.613 6.92781 153.613 8.70781C153.613 10.4478 154.893 11.8478 156.433 11.8478H162.013ZM160.953 7.94781C161.453 7.94781 161.713 8.28781 161.713 8.70781C161.713 9.08781 161.453 9.44781 160.953 9.44781H157.573C157.073 9.44781 156.813 9.08781 156.813 8.70781C156.813 8.28781 157.073 7.94781 157.573 7.94781H160.953ZM155.933 12.8478C154.973 12.8478 154.453 13.3678 154.453 14.3278V18.2878C154.453 19.2478 155.013 19.7678 155.953 19.7278L166.893 19.2478C167.193 19.7878 167.853 20.0078 168.653 20.0078C169.713 20.0078 170.553 19.6078 170.553 18.5678V14.3278C170.553 13.3678 170.033 12.8478 169.093 12.8478H155.933ZM166.733 15.4278V16.7078L158.293 17.0478V15.4278H166.733ZM186.053 1.08781C185.213 1.08781 184.573 1.58781 184.573 2.38781V8.54781H182.893C182.933 7.30781 182.953 6.00781 182.953 4.62781V3.44781C182.953 2.48781 182.412 1.94781 181.453 1.94781H179.553C178.773 1.94781 178.273 2.60781 178.273 3.38781C178.273 4.18781 178.773 4.82781 179.553 4.82781H180.073C180.073 10.0278 179.833 14.7878 178.273 16.5678C178.013 16.8678 177.833 17.2078 177.833 17.6278C177.833 18.4478 178.493 19.0678 179.293 19.0678C179.693 19.0678 180.053 18.9678 180.293 18.6878C181.713 17.0878 182.393 14.7078 182.693 11.6678H184.573V18.6878C184.573 19.5078 185.213 20.0078 186.053 20.0078C186.853 20.0078 187.513 19.5078 187.513 18.6878V2.38781C187.513 1.58781 186.853 1.08781 186.053 1.08781ZM190.013 1.08781C189.173 1.08781 188.513 1.60781 188.513 2.42781V18.6678C188.513 19.4878 189.173 20.0078 190.013 20.0078C190.853 20.0078 191.513 19.4878 191.513 18.6678V2.42781C191.513 1.60781 190.853 1.08781 190.013 1.08781ZM177.993 3.44781C177.993 2.48781 177.473 1.94781 176.493 1.94781H174.433C173.632 1.94781 173.113 2.60781 173.113 3.38781C173.113 4.18781 173.632 4.82781 174.433 4.82781H175.233C175.233 10.5878 174.913 14.1078 173.473 15.7278C173.233 16.0078 173.073 16.3478 173.073 16.7678C173.073 17.5478 173.713 18.1678 174.493 18.1678C174.913 18.1678 175.353 18.0078 175.573 17.7078C177.653 15.0278 177.993 10.3678 177.993 4.62781V3.44781ZM201.353 6.30781C202.133 6.30781 202.773 5.66781 202.773 4.88781C202.773 4.10781 202.133 3.48781 201.353 3.48781H199.653V2.22781C199.653 1.30781 198.893 0.867811 197.973 0.867811C197.053 0.867811 196.293 1.30781 196.293 2.22781V3.48781H194.593C193.813 3.48781 193.193 4.10781 193.193 4.88781C193.193 5.66781 193.813 6.30781 194.593 6.30781H201.353ZM205.253 20.0078C206.113 20.0078 206.813 19.4678 206.813 18.6078V11.4478H208.173V18.5678C208.173 19.4478 208.893 20.0078 209.773 20.0078C210.653 20.0078 211.373 19.4478 211.373 18.5678V2.50781C211.373 1.64781 210.653 1.08781 209.773 1.08781C208.893 1.08781 208.173 1.64781 208.173 2.50781V8.30781H206.813V2.48781C206.813 1.62781 206.113 1.08781 205.253 1.08781C204.393 1.08781 203.693 1.62781 203.693 2.48781V18.6078C203.693 19.4678 204.393 20.0078 205.253 20.0078ZM193.613 15.5078C193.613 17.8278 195.633 19.4478 197.973 19.4478C200.313 19.4478 202.353 17.8278 202.353 15.5078V10.9478C202.353 8.62781 200.313 7.00781 197.973 7.00781C195.633 7.00781 193.613 8.62781 193.613 10.9478V15.5078ZM197.993 16.6678C197.273 16.6678 196.653 16.1078 196.653 15.3278V11.1078C196.653 10.3278 197.273 9.78781 197.993 9.78781C198.733 9.78781 199.333 10.3278 199.333 11.1078V15.3278C199.333 16.1078 198.733 16.6678 197.993 16.6678ZM215.093 10.8078C218.693 10.4878 221.153 9.12781 222.312 7.32781C223.473 9.12781 225.933 10.4878 229.533 10.8078C230.393 10.8878 231.113 10.2078 231.113 9.36781C231.113 8.60781 230.513 7.96781 229.773 7.92781C226.213 7.60781 224.533 5.88781 224.293 4.64781H229.433C230.253 4.64781 230.913 3.96781 230.913 3.14781C230.913 2.32781 230.253 1.66781 229.433 1.66781H215.193C214.373 1.66781 213.713 2.32781 213.713 3.14781C213.713 3.96781 214.373 4.64781 215.193 4.64781H220.313C220.133 5.88781 218.393 7.60781 214.853 7.92781C214.113 7.96781 213.513 8.60781 213.513 9.36781C213.513 10.2078 214.253 10.8878 215.093 10.8078ZM222.312 20.2078C223.393 20.2078 224.253 19.4878 224.253 18.4278V14.8478H230.213C231.033 14.8478 231.693 14.1878 231.693 13.3678C231.693 12.5678 231.033 11.9078 230.213 11.9078H214.433C213.613 11.9078 212.953 12.5678 212.953 13.3678C212.953 14.1878 213.613 14.8478 214.433 14.8478H220.373V18.4278C220.373 19.4878 221.253 20.2078 222.312 20.2078ZM245.533 20.0078C246.393 20.0078 247.073 19.4678 247.073 18.6078V2.48781C247.073 1.62781 246.393 1.08781 245.533 1.08781C244.653 1.08781 243.953 1.62781 243.953 2.48781V7.72781H242.373C241.533 7.72781 240.813 8.42781 240.813 9.28781C240.813 10.1478 241.533 10.8478 242.373 10.8478H243.953V18.6078C243.953 19.4678 244.653 20.0078 245.533 20.0078ZM249.773 20.0078C250.653 20.0078 251.373 19.4478 251.373 18.5678V2.50781C251.373 1.64781 250.653 1.08781 249.773 1.08781C248.893 1.08781 248.173 1.64781 248.173 2.50781V18.5678C248.173 19.4478 248.893 20.0078 249.773 20.0078ZM234.633 18.8678C235.073 18.8678 235.473 18.7278 235.753 18.4478C236.713 17.5478 237.493 16.4078 237.973 14.9678C238.473 16.4278 239.273 17.5478 240.213 18.4478C240.493 18.7078 240.893 18.9078 241.333 18.9078C242.213 18.9078 242.953 18.1678 242.953 17.2678C242.953 16.7878 242.713 16.3478 242.373 16.0678C240.313 14.2878 239.633 11.8078 239.633 6.72781V2.98781C239.633 2.08781 238.893 1.52781 237.993 1.52781C237.073 1.52781 236.353 2.08781 236.353 2.98781V6.72781C236.353 11.8078 235.653 14.2878 233.593 16.0678C233.273 16.3478 233.033 16.8078 233.033 17.2678C233.033 18.1678 233.753 18.8678 234.633 18.8678ZM265.853 12.0878C268.813 12.0878 270.893 9.74781 270.893 6.82781C270.893 3.88781 268.813 1.54781 265.853 1.54781H258.753C255.813 1.54781 253.733 3.88781 253.733 6.82781C253.733 9.74781 255.813 12.0878 258.753 12.0878H265.853ZM259.793 9.12781C258.513 9.12781 257.613 8.16781 257.613 6.82781C257.613 5.48781 258.513 4.52781 259.793 4.52781H264.853C266.133 4.52781 267.033 5.48781 267.033 6.82781C267.033 8.16781 266.133 9.12781 264.853 9.12781H259.793ZM270.133 19.4278C270.973 19.4278 271.693 18.7478 271.693 17.8678C271.693 17.0078 270.973 16.3078 270.133 16.3078H267.953V14.2078C267.953 13.2478 267.173 12.7678 266.193 12.7678C265.193 12.7678 264.413 13.2478 264.413 14.2078V16.3078H260.293V14.2078C260.293 13.2478 259.513 12.7678 258.533 12.7678C257.533 12.7678 256.753 13.2478 256.753 14.2078V16.3078H254.513C253.673 16.3078 252.953 17.0078 252.953 17.8678C252.953 18.7478 253.673 19.4278 254.513 19.4278H270.133ZM273.813 13.1478C273.853 14.2078 274.553 14.8478 275.513 14.8478C276.453 14.8478 277.153 14.2078 277.193 13.1478L277.312 9.04781V2.84781C277.312 1.78781 276.533 1.04781 275.493 1.04781C274.453 1.04781 273.673 1.78781 273.673 2.84781V9.04781L273.813 13.1478ZM275.953 19.6878C276.653 19.6878 277.173 19.1678 277.173 18.4678V17.5678C277.173 16.8678 276.653 16.3478 275.953 16.3478H275.033C274.333 16.3478 273.813 16.8678 273.813 17.5678V18.4678C273.813 19.1678 274.333 19.6878 275.033 19.6878H275.953Z" fill="#424242"/>
</svg>
