<svg viewBox="0 0 80 28" fill="none" xmlns="http://www.w3.org/2000/svg">
<rect width="80" height="28" rx="14" fill="#FFEBE0"/>
<path d="M22.5555 10.9911L22.1897 11.181L22.0393 11.2949L21.7999 11.4606L21.9008 12.0458C21.9504 12.0717 21.9897 12.1476 21.9897 12.2115V12.3392L22.2034 12.479L22.5435 12.6447L22.7076 12.7086C22.7196 12.7207 22.7452 12.7207 22.7709 12.7466L22.8974 12.8743L23.111 12.9382C23.1486 12.9503 23.1743 12.9641 23.1982 13.002L23.3623 13.1798L23.8273 13.4336L24.1914 13.5354L24.3931 13.5734C24.405 13.5734 24.4307 13.5734 24.4426 13.5855L24.6307 13.6873L24.6802 13.7132L24.8563 13.891L25.0956 13.929C25.1076 13.929 25.1213 13.929 25.1332 13.9411L25.3093 14.0049C25.3213 14.017 25.3469 14.017 25.3725 14.0429L25.5366 14.1948L25.7759 14.4623L25.9144 14.5642C25.9264 14.5642 25.94 14.5901 25.94 14.5901L26.0529 14.6919L26.2289 14.8818L26.2665 14.9577L26.3298 15.1355L26.4426 15.4152L26.5058 15.5929L26.6187 15.7069C26.6682 15.7569 26.6939 15.8467 26.6682 15.9364L26.5811 16.242L26.6939 16.3818C26.7315 16.4318 26.7434 16.4957 26.7315 16.5475L26.7058 16.6493L26.6802 17.2345L26.6546 17.4382C26.6546 17.4641 26.6426 17.4761 26.6426 17.4882L26.5674 17.6539V17.8317C26.5674 17.8438 26.5674 17.8818 26.5554 17.8956L26.4922 18.0855L26.3417 18.429C26.3417 18.4411 26.3298 18.4549 26.3161 18.4669L26.2409 18.5809L26.1776 18.7587C26.152 18.8087 26.1024 18.8605 26.0512 18.8864L25.8871 18.9623L25.7982 19.1919C25.7862 19.242 25.7486 19.2679 25.723 19.2938L25.6101 19.3576L25.4341 19.4474L25.1828 19.5872L24.9554 19.7529L24.9059 19.8289C24.8683 19.8789 24.7794 19.9048 24.7178 19.9048L24.5161 19.8927L24.4033 20.0066C24.3657 20.0446 24.3025 20.0567 24.2529 20.0567H24.1025L23.9008 20.1447C23.8888 20.1568 23.8512 20.1568 23.8375 20.1568L23.2837 20.1948L22.6427 20.2707L22.5794 20.2587L22.3025 20.2086L22.0136 20.1326L21.8495 20.1068C21.8375 20.1068 21.7999 20.0947 21.7863 20.0809L21.6734 20.017L21.5093 20.0671C21.4598 20.0791 21.4085 20.0791 21.3589 20.055L21.0564 19.9031L20.9555 19.8271L20.6906 19.7253L20.2632 19.5354C20.2376 19.5233 20.2256 19.5233 20.2 19.4974L20.0871 19.3956L19.8991 19.2437C19.8872 19.2316 19.8735 19.2316 19.8735 19.2316L19.6718 19.0158C19.6718 19.0158 19.6461 19.0158 19.6461 19.0038L19.5333 18.826L19.3692 18.5584L19.1419 18.4445L19.0923 18.4065L19.0427 18.3565C18.9932 18.3064 18.9675 18.2425 18.9795 18.1787L19.0051 17.9629C19.0171 17.8611 19.0684 17.773 19.1316 17.7592L19.2325 17.7471L19.4085 17.5435C19.4342 17.5055 19.4718 17.4934 19.4974 17.4796L19.7111 17.4157L19.7863 17.288C19.8119 17.2379 19.8735 17.2 19.9248 17.1862L20.1265 17.1482L20.2393 17.0084C20.2649 16.9825 20.3025 16.9583 20.3401 16.9445L20.5162 16.8944L20.6171 16.7926C20.6803 16.7167 20.7555 16.6787 20.8051 16.7028L20.8427 16.7149C20.8683 16.727 20.9059 16.7529 20.9179 16.7788L21.0683 16.9687L21.2444 17.1724L21.4581 17.2103C21.4957 17.2224 21.5589 17.2362 21.5846 17.2742L21.6734 17.3881L21.8495 17.4761L22.1264 17.5901L22.4034 17.6401C22.4153 17.6401 22.429 17.666 22.441 17.666L22.5794 17.7299L23.1965 17.8697L23.4991 17.7679L23.5743 17.6798C23.5862 17.6539 23.6238 17.6298 23.6495 17.616L23.976 17.4641L24.2153 17.1965L24.1896 16.6752L24.0888 16.5233L23.8375 16.3455L23.6614 16.1936L23.6238 16.1436L23.535 15.9917L23.2956 15.9416C23.2461 15.9295 23.1948 15.9037 23.1691 15.8657L23.1059 15.7759L22.8666 15.7L22.4769 15.5981L22.0734 15.4462C22.0478 15.4341 22.0239 15.4203 21.9982 15.3962L21.8102 15.1804L21.5709 15.0906H21.5452C21.47 15.0906 21.3948 15.0648 21.3572 15.0009L21.2307 14.8352L20.9794 14.8231C20.9418 14.8231 20.8906 14.8231 20.8529 14.7851L20.7521 14.7092L20.7145 14.6591L20.6017 14.4692L20.4 14.2397L20.2359 14.1637C20.2239 14.1516 20.1983 14.1516 20.1863 14.1257L19.9726 13.8962L19.8222 13.7063L19.6461 13.4646L19.6085 13.4388C19.559 13.4008 19.5196 13.349 19.5196 13.273L19.5077 13.0193L19.4581 12.7656L19.3709 12.7155C19.3214 12.6775 19.282 12.6257 19.2701 12.5498L19.2444 12.3202C19.2444 12.2702 19.2564 12.2443 19.2701 12.2063L19.3333 12.0786L19.2444 11.7109C19.2325 11.6729 19.2325 11.6211 19.2444 11.5832L19.3453 11.3536L19.3333 11.0481V10.9842L19.359 10.9203L19.3966 10.8444L19.5983 10.6027L19.6854 10.4249L19.7607 10.1332C19.7607 10.1073 19.7726 10.0694 19.7863 10.0573L19.8359 9.98133L20.0119 9.68962C20.0239 9.66372 20.0376 9.65164 20.0752 9.62575L20.1624 9.57569C20.1743 9.57569 20.1743 9.56361 20.188 9.5498L20.3641 9.48593L20.6034 9.30814L20.641 9.2063C20.6666 9.13035 20.7299 9.09238 20.7914 9.07857L20.9299 9.05268L21.1948 8.81102C21.2068 8.79894 21.2205 8.78512 21.2324 8.78512L21.2957 8.74715C21.3452 8.70918 21.3965 8.70918 21.4461 8.72126L21.6102 8.75923L21.7982 8.6315C21.8478 8.59353 21.9247 8.58145 21.9743 8.59353L22.1384 8.64359L22.3521 8.56764L22.641 8.51758C22.6666 8.51758 22.6786 8.52966 22.7042 8.52966L23.1828 8.61942H23.4854L23.976 8.65739H24.152C24.2409 8.65739 24.3161 8.70745 24.3537 8.77132L24.4033 8.87316H24.6546C24.6666 8.87316 24.6802 8.87316 24.7042 8.88524L24.9811 8.96119L25.0067 8.97328L25.1452 9.03714L25.1828 9.07512L25.4597 9.30469L25.6358 9.48248L25.7486 9.61021L25.9879 9.788C26.0135 9.81389 26.0375 9.83806 26.0512 9.87776L26.0768 9.94163L26.2785 10.0297C26.3281 10.0556 26.3913 10.0935 26.405 10.1574L26.4546 10.3231L26.5554 10.5009C26.5811 10.5389 26.605 10.6027 26.593 10.6528L26.5435 10.8944C26.5315 10.9842 26.4802 11.0463 26.405 11.0722L26.1776 11.1482L25.8375 11.4157L25.6734 11.5935C25.6614 11.6194 25.6358 11.6315 25.6101 11.6436L25.3076 11.7575L25.2443 11.8852L25.2067 11.9353L25.1315 11.9992C25.0819 12.0492 24.9931 12.0751 24.9178 12.0492L24.7161 11.9854C24.6905 11.9733 24.6529 11.9595 24.6272 11.9353L24.5144 11.8214C24.4768 11.7834 24.4649 11.7575 24.4512 11.7075L24.4136 11.4537L24.0734 11.2759L23.923 11.2121L23.7589 11.1223C23.7469 11.1223 23.7332 11.1102 23.7213 11.0964L23.5452 10.9307L23.1555 10.8806L22.6392 11.0084L22.5521 10.9963L22.5555 10.9911Z" fill="#FE5000"/>
<path d="M34.6489 10.8258L34.5737 10.9276L34.5241 11.0674C34.4985 11.1572 34.3976 11.1951 34.3104 11.1951H34.16C34.1344 11.1951 34.0968 11.1951 34.0728 11.1831L33.8455 11.0812L33.7822 11.1192C33.7446 11.1313 33.6934 11.1451 33.6557 11.1451L33.3156 11.1071C33.3036 11.1071 33.2899 11.095 33.278 11.095L33.2284 11.0691L32.9771 11.133C32.9515 11.1451 32.8882 11.1451 32.8643 11.133L32.637 11.0571L32.2968 11.209L32.2848 11.221C32.2729 11.221 32.2592 11.221 32.2472 11.2331L32.3224 11.4489C32.3481 11.5128 32.3481 11.5628 32.3224 11.6146L32.2848 11.6785L32.2472 12.0979L32.2729 12.1618C32.2848 12.1739 32.2985 12.2118 32.2985 12.2377L32.3241 12.4535V12.8212L32.2865 13.0749L32.2985 13.1888V13.2648L32.2353 13.5945L32.2848 13.6445C32.3224 13.6825 32.3481 13.7325 32.3481 13.8102L32.3361 14.0519L32.3241 14.2676L32.3618 14.4075C32.3618 14.4195 32.3737 14.4333 32.3737 14.4575L32.3994 14.8649V14.9926C32.3994 15.0047 32.3874 15.0185 32.3874 15.0306L32.3378 15.3361L32.3122 15.5778L32.3618 15.8695L32.3874 16.0473V16.213C32.3874 16.251 32.3754 16.263 32.3618 16.2889L32.2353 16.5565L32.2609 16.6842C32.2609 16.7101 32.2729 16.7222 32.2729 16.7343V16.9759L32.2848 17.3056V17.3557L32.2729 17.4955L32.2985 17.7371L32.3361 18.0168C32.3481 18.0668 32.3361 18.1186 32.3105 18.1687L32.2472 18.2826L32.2592 18.4863L32.3224 18.778V18.866L32.2729 19.0818L32.3105 19.2475V19.3373L32.2609 19.6048L32.2353 19.7446C32.2353 19.7567 32.2233 19.7705 32.2233 19.7826L32.1737 19.9103C32.1361 20.0381 32.0353 20.114 31.9344 20.0881L31.784 20.0501C31.772 20.0501 31.7583 20.0501 31.7464 20.0381L31.6336 19.988L31.331 20.0381L31.1806 20.1019C31.143 20.1278 31.1173 20.1278 31.0797 20.1278L30.8524 20.1157H30.6643C30.6011 20.1157 30.5379 20.1037 30.5002 20.0519L30.425 19.9759L30.1361 20.0519L30.049 20.064C29.9994 20.076 29.9481 20.064 29.8985 20.026L29.8233 19.9621C29.6849 19.8603 29.6216 19.7722 29.6592 19.7205L29.7344 19.6324L29.7601 19.263L29.7225 19.0473L29.6968 18.8177C29.6968 18.7797 29.7088 18.7538 29.7225 18.7159L29.7721 18.614L29.7464 18.3085L29.6968 18.1808C29.6849 18.1307 29.6849 18.091 29.6968 18.0409L29.7721 17.8511L29.7225 17.4834L29.6592 17.3816C29.6216 17.3177 29.6216 17.2538 29.6473 17.2038L29.6849 17.114L29.6968 16.8465L29.7225 16.465L29.6729 16.3632C29.6473 16.3252 29.6609 16.2613 29.6729 16.2113L29.7225 16.0594V15.6917L29.6849 15.526C29.6729 15.4621 29.6849 15.4362 29.7105 15.3862L29.7481 15.3223L29.6473 15.0306C29.6353 15.0047 29.6353 14.9926 29.6353 14.9546L29.6473 14.8269L29.6729 14.4454L29.6473 14.3954C29.6353 14.3574 29.6097 14.3194 29.6216 14.2676L29.6849 13.9759L29.6473 13.824C29.6353 13.7861 29.6353 13.7481 29.6473 13.7101L29.6968 13.5824L29.6849 13.2527C29.6849 13.2026 29.6968 13.1629 29.7225 13.1249L29.7721 13.0611L29.6216 12.7935C29.596 12.7435 29.584 12.7038 29.596 12.6658L29.6456 12.4241L29.608 12.2343C29.608 12.1963 29.608 12.1583 29.6199 12.1324L29.6951 11.9426L29.6062 11.8027C29.5943 11.7648 29.5943 11.7389 29.5943 11.713V11.5611C29.5943 11.4972 29.6199 11.4213 29.6695 11.3833L29.7584 11.3194L29.7088 11.1296H29.596L29.4575 11.2055C29.4319 11.2176 29.3943 11.2314 29.3703 11.2314H29.0815C29.0439 11.2314 29.0182 11.2314 28.9806 11.2055L28.8541 11.1296L28.5652 11.0536L28.5276 11.0916C28.4781 11.1296 28.4148 11.1416 28.3516 11.1296L28.1003 11.0657H27.8114C27.7105 11.1554 27.5721 11.1416 27.5225 11.0398L27.4217 10.8879C27.4217 10.8758 27.4097 10.8499 27.4097 10.8499L27.3721 10.7602C27.3465 10.6963 27.3465 10.6583 27.3721 10.5945L27.4353 10.4667L27.3977 10.175L27.3601 9.93335V9.89538L27.3721 9.64164C27.3721 9.62956 27.3841 9.60366 27.3841 9.60366L27.4217 9.46385L27.2952 9.17213C27.2832 9.14624 27.2832 9.12208 27.2832 9.09618V9.05821C27.2832 8.98226 27.3088 8.90631 27.3704 8.86833L27.5584 8.72852C27.5704 8.72852 27.5841 8.72852 27.596 8.71643L27.7225 8.66638C27.7482 8.65429 27.7858 8.6543 27.8114 8.6543H28.0764C28.102 8.6543 28.1396 8.6543 28.1772 8.68019L28.4046 8.80792L28.4934 8.73197C28.543 8.68191 28.6439 8.6681 28.7071 8.69399L28.8199 8.73197L29.1857 8.80792L29.2233 8.76994C29.2609 8.73197 29.3362 8.71989 29.3874 8.71989L29.6387 8.73197L29.7139 8.70608C29.7635 8.68019 29.8148 8.68019 29.8524 8.69399L30.1293 8.75787L30.2678 8.71989C30.2797 8.71989 30.2934 8.70781 30.3054 8.70781L30.5943 8.68192L30.9088 8.69399C30.9344 8.69399 30.9584 8.70608 30.972 8.71989L31.2113 8.80965L31.3994 8.79756L31.7019 8.7337L31.7771 8.69572C31.8148 8.66983 31.866 8.65775 31.9036 8.65775L32.1925 8.68364L32.4199 8.69572H32.5464C32.572 8.69572 32.6096 8.69572 32.6353 8.70781L32.9122 8.79756L33.0763 8.75959L33.2643 8.69572C33.2899 8.68364 33.3275 8.68364 33.3532 8.68364L33.6934 8.69572C33.7053 8.69572 33.719 8.70781 33.731 8.70781L33.8814 8.74578L34.2215 8.68192H34.2592C34.348 8.66983 34.4352 8.694 34.4865 8.78376L34.5874 8.96155C34.613 8.99952 34.625 9.06339 34.613 9.11345L34.5874 9.27915L34.6369 9.36891C34.6865 9.44486 34.7121 9.52081 34.6745 9.58467L34.625 9.68651L34.613 10.0162L34.601 10.2699L34.6506 10.4098C34.6506 10.4218 34.6626 10.4218 34.6626 10.4477L34.7002 10.6773C34.7121 10.7412 34.6882 10.7912 34.6626 10.8292L34.6489 10.8258Z" fill="#FE5000"/>
<path d="M41.9869 18.6935L41.8604 18.8971L41.9475 18.9869C41.9971 19.037 42.0228 19.0887 42.0228 19.1388V19.5082C42.0228 19.5721 41.9971 19.6601 41.9475 19.686L41.8723 19.736L41.6843 20.0036C41.6587 20.0416 41.6211 20.0675 41.5834 20.0795C41.5339 20.1054 41.4706 20.0916 41.4193 20.0675L41.2553 19.9915L41.004 20.0554C40.9664 20.0675 40.9031 20.0554 40.8655 20.0433L40.739 19.9932L40.4365 19.9673L40.3236 20.0174C40.3117 20.0295 40.2741 20.0295 40.2604 20.0295L40.0091 20.0554L39.4433 20.0174L39.3168 19.9915L38.9527 20.0295L38.7767 20.0933C38.7647 20.1054 38.751 20.1054 38.7391 20.1054L38.6006 20.1313C38.563 20.1313 38.4997 20.1313 38.4621 20.1054L38.2109 19.9656H38.0468L37.9083 20.0416C37.8827 20.0536 37.8331 20.0675 37.7955 20.0675H37.481C37.4553 20.0675 37.4314 20.0554 37.4177 20.0554L37.3169 20.0433L37.1664 20.0933C37.1408 20.1054 37.1032 20.1054 37.0775 20.1054L36.8502 20.0933H36.6228L36.4348 20.1192C36.3972 20.1313 36.3476 20.1313 36.3083 20.1072L36.0314 19.9932L35.8673 19.9673C35.8177 19.9673 35.7665 19.9553 35.7288 19.9035L35.6024 19.7516C35.5767 19.7136 35.5647 19.7015 35.5647 19.6497L35.5528 19.484L35.5152 19.4202C35.4895 19.3701 35.4656 19.2924 35.4895 19.2424L35.5784 19.0007L35.4895 18.7711C35.4776 18.7452 35.4895 18.7332 35.4895 18.6952L35.5015 18.5813L35.5135 18.3137L35.5015 18.1238L35.4519 17.8701C35.44 17.8321 35.4519 17.7821 35.4776 17.7303L35.5904 17.5646L35.5015 17.2729V17.0312L35.5391 16.8534L35.5887 16.5237L35.5135 16.434C35.4759 16.396 35.4639 16.3321 35.4639 16.2821L35.5015 15.9765L35.4759 15.8108V15.747L35.5391 15.4294L35.5015 15.2516V15.1756L35.5271 15.1118L35.6024 14.6802L35.5528 14.5283C35.5408 14.4783 35.5408 14.4386 35.5528 14.3885L35.616 14.2608L35.5408 14.121C35.5408 14.1089 35.5288 14.0951 35.5288 14.0951L35.4656 13.8655C35.4536 13.8016 35.4656 13.7516 35.4912 13.6998L35.6041 13.5099L35.5784 13.2044L35.5904 12.9627L35.616 12.747L35.5665 12.5813L35.4793 12.4035C35.4536 12.3534 35.4536 12.2637 35.4793 12.2136L35.6177 11.934L35.5545 11.7683L35.5049 11.5905L35.493 11.5646L35.4673 11.2849C35.4673 11.209 35.493 11.1451 35.5425 11.1072L35.6177 11.0433L35.6058 10.6739L35.6177 10.484V10.2424L35.5169 10.1405C35.4793 10.0905 35.4536 10.0387 35.4536 9.97482L35.4793 9.75906C35.4793 9.69519 35.5049 9.65722 35.5425 9.61924L35.6177 9.56918L35.5288 9.3655C35.5169 9.32753 35.5032 9.25158 35.5169 9.2136L35.5921 9.02373L35.6297 8.9098C35.6673 8.83386 35.7425 8.76999 35.8314 8.76999H35.9955L36.2468 8.79588L36.5237 8.75791C36.5493 8.75791 36.5613 8.74583 36.587 8.75791L36.7887 8.79588H36.9528L37.016 8.7838C37.016 8.77172 37.028 8.77172 37.028 8.77172L37.1545 8.70785C37.1921 8.68196 37.2177 8.66988 37.2416 8.66988H37.469C37.4946 8.66988 37.5186 8.68196 37.5442 8.69577L37.657 8.74583H37.7322C37.7698 8.74583 37.8194 8.77171 37.8587 8.79588L37.8844 8.80796H37.9476L38.351 8.78207L38.4143 8.75618C38.4519 8.7441 38.4895 8.73029 38.5271 8.73029L38.8416 8.76827L38.9801 8.69232C39.0433 8.65434 39.0809 8.65434 39.1442 8.68023L39.3083 8.71821H39.4348C39.4467 8.71821 39.4604 8.73029 39.4724 8.73029L39.7237 8.76827L39.8997 8.7044C39.9254 8.69231 39.963 8.67851 40.0006 8.69232L40.2655 8.73029H40.6929C40.7185 8.73029 40.7424 8.71821 40.7681 8.73029L41.033 8.81832L41.1835 8.74237C41.1954 8.73029 41.233 8.71648 41.2467 8.71648L41.3971 8.69059C41.486 8.67851 41.5732 8.70267 41.6245 8.79243L41.6997 8.92016C41.7253 8.97022 41.7493 9.00992 41.7373 9.05998L41.7117 9.22569L41.7749 9.33961C41.8125 9.41556 41.8125 9.47943 41.7749 9.55538L41.7253 9.65722L41.7629 9.87298L41.7749 10.1526L41.8125 10.2545C41.8381 10.3045 41.8381 10.3943 41.8125 10.4443L41.7493 10.5841V10.7878C41.7493 10.8379 41.7373 10.8897 41.7117 10.9276L41.6228 11.0416C41.5356 11.1555 41.4211 11.2073 41.3578 11.1555L41.245 11.0657L41.057 11.0778L40.9065 11.1676C40.8689 11.1935 40.8313 11.1935 40.8057 11.1935H40.2895L40.0245 11.2194H39.9869L39.8741 11.2073C39.8484 11.2073 39.7989 11.1952 39.7732 11.1693L39.6228 11.0554L39.2587 11.1572L39.1322 11.1952C39.069 11.2073 38.9818 11.1952 38.9305 11.1451L38.8296 11.0554L38.616 11.1952C38.5784 11.2211 38.5271 11.2211 38.4895 11.2211L38.3254 11.209C38.3134 11.209 38.2878 11.209 38.2758 11.1969L38.0741 11.1089L38.0997 11.2107C38.1117 11.2746 38.0997 11.3505 38.0621 11.4006L37.9869 11.5024L38.0621 11.6423C38.0878 11.6802 38.0997 11.732 38.0878 11.7942L38.0382 12.0738L38.0758 12.1877C38.1015 12.2516 38.1015 12.2896 38.0758 12.3534L37.963 12.5951L37.975 12.7729L38.0006 12.9006C38.0006 12.9265 38.0126 12.9386 38.0126 12.9507V13.1802L38.1254 13.1681H38.1886L38.2895 13.1802L38.5032 13.1043C38.5151 13.0922 38.5527 13.0784 38.5784 13.0784H38.8296L39.0433 13.0663C39.0809 13.0663 39.1322 13.0663 39.1561 13.0784L39.4211 13.2061L39.5339 13.1681C39.5459 13.1561 39.5596 13.1561 39.5715 13.1561L39.7476 13.1302H39.8108L40.1373 13.1802H40.339L40.6279 13.1543C40.6655 13.1543 40.7031 13.1664 40.7407 13.1802L40.8535 13.2303L41.2313 13.2182L41.3202 13.1923C41.3954 13.1664 41.4706 13.1802 41.5339 13.2303L41.5715 13.2683C41.6347 13.3183 41.6723 13.4081 41.6467 13.5099L41.5971 13.7257L41.6604 13.8016C41.7099 13.8655 41.7236 13.9294 41.698 14.0174L41.6347 14.2073L41.6843 14.335C41.6963 14.373 41.7099 14.3989 41.7099 14.4489L41.6843 14.7406L41.6467 15.0583L41.6587 15.1083C41.6963 15.2222 41.6587 15.3241 41.5698 15.3879L41.457 15.4777C41.4313 15.5036 41.3937 15.5157 41.3561 15.5157L40.8912 15.5657C40.8279 15.5778 40.7647 15.5536 40.7271 15.5157L40.6518 15.4397L40.3869 15.4518L39.9219 15.5536L39.6331 15.5916H39.2809L38.7647 15.4777L38.6758 15.5036H38.6006L38.3237 15.4535L38.1852 15.5036C38.1476 15.5157 38.11 15.5295 38.0724 15.5157C38.0724 15.5416 38.0844 15.5657 38.0724 15.6054L38.0228 15.7832L38.0861 15.873C38.1117 15.911 38.1237 15.9748 38.1237 16.0128V16.2424C38.1237 16.2803 38.1117 16.3062 38.098 16.3321L37.9715 16.6118L38.0604 16.7775C38.0724 16.8034 38.0861 16.8275 38.0861 16.8672V17.0709C38.0861 17.1089 38.0861 17.121 38.0741 17.1469L38.0365 17.2608L38.0485 17.4645V17.5024L38.0365 17.6802H38.0741C38.1374 17.6302 38.2382 17.6043 38.3015 17.6423L38.4143 17.6923L38.8177 17.7182L38.8929 17.6923C38.9185 17.6802 38.9425 17.6923 38.9681 17.6923L39.2074 17.7044L39.2826 17.6405C39.3578 17.5767 39.4587 17.5646 39.5339 17.6146L39.6604 17.6906L39.9749 17.6146C40.0125 17.6026 40.0501 17.6026 40.0877 17.6146L40.2006 17.6405L40.5271 17.5646C40.539 17.5646 40.5527 17.5525 40.5647 17.5525H40.6655L40.8929 17.5905L41.2963 17.6405L41.4228 17.6026C41.4484 17.5905 41.486 17.5905 41.5117 17.5905L41.6381 17.6026C41.7014 17.6026 41.7646 17.6405 41.8022 17.6923L41.8775 17.7942C41.9031 17.82 41.9151 17.8701 41.9151 17.9081V18.098L42.004 18.2499C42.0159 18.2878 42.0296 18.3137 42.0296 18.3396V18.5692C42.0296 18.6072 42.0176 18.6589 41.992 18.6969L41.9869 18.6935Z" fill="#FE5000"/>
<path d="M45.1443 20.0141L44.9306 19.964C44.8554 20.0538 44.7546 20.0918 44.6794 20.0538L44.5529 19.9899L44.2007 20.0279L43.6725 20.0538H43.4213L43.3085 20.0417C43.2196 20.0417 43.1204 19.9778 43.0948 19.8898L43.0452 19.7241L42.97 19.6222C42.9204 19.5463 42.9067 19.4565 42.9444 19.3806L43.0196 19.2408L42.97 19.1269C42.97 19.1148 42.958 19.101 42.958 19.0768L42.9461 18.7713V18.5175C42.9461 18.4916 42.958 18.4796 42.958 18.4675L42.9956 18.3656L42.958 18.0601V17.9962L42.9956 17.8685L42.9461 17.4611L42.9204 17.2834C42.9085 17.2333 42.9204 17.1556 42.958 17.1177L43.0213 17.0417L42.9324 16.7741C42.9204 16.7241 42.9204 16.6602 42.9444 16.6084L43.0196 16.4807L42.9067 16.2511C42.8948 16.2252 42.8948 16.1752 42.8948 16.1372L42.9067 16.0492C42.9067 16.0233 42.9187 15.9853 42.9324 15.9732L43.0332 15.8213L42.9956 15.4278L42.97 15.4019C42.9324 15.338 42.9324 15.288 42.9444 15.2241L42.9939 15.0463L42.982 14.7926L42.8931 14.487C42.8811 14.4491 42.8811 14.4111 42.8931 14.3731L42.9426 14.2333L42.9683 13.9916L42.9939 13.8018L42.8931 13.5342V13.4583L42.905 13.1907L42.8931 13.1148V13.0509L42.982 12.6832V12.5434L42.9067 12.162L42.8691 12.0722V11.9962L42.9067 11.7166L42.8811 11.5509V11.5009L42.9067 11.1953L42.9187 11.1315L43.0076 10.9416L42.958 10.674L42.9085 10.5463C42.8965 10.5083 42.8828 10.4704 42.8965 10.4324L42.9597 10.2028L42.8965 10.025C42.8845 9.98704 42.8965 9.97496 42.8965 9.93698L42.9341 9.75919L42.9973 9.46748L42.8965 9.23791C42.8845 9.19993 42.8709 9.12398 42.8845 9.08601L42.8965 9.06012C42.9085 9.01006 42.9341 8.98416 42.9717 8.95827L43.1854 8.81846C43.211 8.79256 43.2606 8.78048 43.2862 8.78048L43.4503 8.7684L43.8537 8.70453C43.8794 8.70453 43.917 8.69245 43.9426 8.70453L44.2452 8.78048L44.5221 8.75459H44.6725L45.0247 8.76667H45.0879C45.1768 8.76667 45.252 8.80465 45.2896 8.8806L45.3768 9.0325C45.3888 9.04458 45.4024 9.07047 45.4024 9.09636L45.4281 9.21029L45.517 9.52789V9.60384L45.505 9.83342V9.92145L45.5306 10.1251C45.5306 10.151 45.5306 10.189 45.5187 10.227L45.4435 10.4807L45.4178 10.8242L45.4554 10.8501C45.5187 10.9002 45.5563 11.002 45.5306 11.0918L45.493 11.2316C45.493 11.2575 45.4811 11.2575 45.4674 11.2816L45.3922 11.4335L45.4794 11.7132C45.4913 11.7511 45.4794 11.8029 45.4674 11.853L45.4178 12.0187L45.4554 12.2603L45.5187 12.4381C45.5187 12.4502 45.5306 12.464 45.5306 12.4882L45.5563 12.6781V12.9577L45.5443 13.0216L45.4811 13.1994L45.5306 13.4151C45.5426 13.479 45.5426 13.529 45.505 13.5929L45.3922 13.7828V14.0883L45.4417 14.1522C45.517 14.2419 45.5306 14.342 45.4913 14.3938L45.4161 14.4957L45.4281 14.7252L45.4657 14.979L45.5033 15.2966L45.5153 15.3225V15.5383C45.5153 15.5762 45.5033 15.5883 45.4896 15.6142L45.4007 15.8179L45.4264 16.0216L45.452 16.2753L45.464 16.529C45.464 16.5549 45.464 16.5791 45.452 16.6188L45.4024 16.7465L45.44 16.8984C45.452 16.9364 45.44 16.9623 45.44 16.9865L45.3905 17.2402L45.44 17.456L45.5033 17.7097C45.5033 17.7356 45.5153 17.7477 45.5153 17.7598V18.0895C45.5153 18.1153 45.5033 18.1274 45.5033 18.1395L45.4537 18.3294L45.4417 18.5331L45.4794 18.8006L45.4913 18.9145C45.4913 18.9404 45.4913 18.9905 45.4794 19.0164L45.3922 19.2839L45.4674 19.4496C45.4794 19.4755 45.493 19.4876 45.493 19.5256L45.505 19.7293C45.505 19.819 45.4794 19.8812 45.4161 19.9191L45.3289 19.983C45.2794 20.021 45.2161 20.0331 45.1529 20.0089L45.1443 20.0141ZM46.2263 14.0158L46.3392 13.9899C46.3511 13.9899 46.3648 13.9778 46.3768 13.9778H46.7169L47.1067 14.0676L47.3956 13.9278L47.5973 13.8639L47.7853 13.6481L47.8349 13.4704L47.8092 13.3185V13.2425L47.9357 12.6712L47.8981 12.6073C47.8862 12.5693 47.8725 12.5055 47.8862 12.4675L47.9357 12.2897L47.8725 11.6545L47.8092 11.6044C47.7836 11.5785 47.7597 11.5285 47.746 11.4905L47.7203 11.3006L47.5067 11.1487C47.481 11.1228 47.4571 11.0987 47.4434 11.059L47.3802 10.8933L47.1152 10.8553L46.5734 10.8052L46.4981 10.8812C46.4725 10.8933 46.4349 10.9191 46.411 10.9191L46.3101 10.945C46.2093 10.9709 46.1221 10.933 46.0708 10.8432L46.0332 10.7793C46.0076 10.7293 45.9836 10.6913 45.9956 10.6395L46.0452 10.3858L45.9699 10.1959C45.9699 10.1838 45.958 10.1838 45.958 10.1579L45.946 10.0561C45.946 10.0302 45.946 9.98014 45.958 9.95425L46.0588 9.72467L45.9836 9.40706L45.934 9.21719C45.9221 9.1913 45.9221 9.12916 45.934 9.10327L45.9717 8.97553C45.9836 8.92548 46.0093 8.88578 46.0469 8.86161L46.1597 8.77358C46.2486 8.69763 46.3477 8.67174 46.399 8.72352L46.4742 8.78739L46.7511 8.69763L46.8144 8.68555H47.1033L47.6195 8.73561C47.6451 8.73561 47.6827 8.7356 47.6947 8.74768L47.8964 8.84953C47.9597 8.75977 48.0844 8.74768 48.1853 8.78566L48.3494 8.86161L48.5631 8.89958L49.1169 9.08946L49.1545 9.11535L49.293 9.20511C49.3306 9.231 49.3682 9.28106 49.3819 9.31904L49.4314 9.48474L49.8212 9.82824L49.8468 9.85413L49.8844 9.90419L49.922 9.96805L50.0229 10.2995L50.0605 10.4652L50.187 10.6947C50.1989 10.7206 50.2126 10.7327 50.2126 10.7707L50.2502 11.0003L50.3135 11.2298L50.3391 11.4594V11.5354L50.2895 11.7391L50.428 12.1067C50.44 12.1447 50.44 12.1965 50.428 12.2345L50.3408 12.502L50.3152 12.6677L50.416 13.1372C50.428 13.1873 50.416 13.2511 50.3784 13.3029L50.3032 13.4048L50.3921 13.7224C50.4041 13.7862 50.4041 13.8363 50.3801 13.8881L50.2793 14.0659C50.2793 14.078 50.2673 14.078 50.2673 14.0918L50.1545 14.2316L50.1801 14.3714C50.1801 14.3973 50.1801 14.4594 50.1682 14.4853L50.093 14.6631L50.0041 14.9427C49.9921 14.9928 49.9665 15.0187 49.9408 15.0446L49.8776 15.0946L49.575 15.3104L49.563 15.3743C49.563 15.4381 49.5135 15.502 49.4622 15.54L49.2348 15.6919L49.0212 15.8817C49.0092 15.8938 48.9955 15.9076 48.9836 15.9076L48.8827 15.9715C48.8195 16.0095 48.7699 16.0095 48.7323 15.9974L48.669 15.9715L48.3921 16.0354L48.2161 16.1752C48.1904 16.1873 48.1528 16.2132 48.1272 16.2132L47.9391 16.2391C47.9135 16.2391 47.8639 16.2391 47.8383 16.227L47.587 16.1251L47.1836 16.277H46.8178C46.7682 16.277 46.7169 16.2649 46.6793 16.2391L46.5785 16.1372L46.4657 16.1873C46.3392 16.2373 46.2144 16.2132 46.1631 16.0992L46.0879 15.9214L46.0127 15.6539L45.9494 15.54L45.9375 15.4899L45.9118 15.2362V15.1464C45.9118 15.1205 45.9118 15.0964 45.9238 15.0584L46.0503 14.8167L46.0383 14.4611C45.9751 14.4111 45.9887 14.2834 46.0879 14.1556L46.1255 14.1056C46.1511 14.0797 46.1887 14.0417 46.2263 14.0296V14.0158Z" fill="#FE5000"/>
<path d="M61.9951 18.4377L61.8823 18.6414L61.9079 18.7553L61.9575 18.9072C61.9695 18.9573 61.9695 19.0091 61.9456 19.0729L61.8703 19.2628L61.9079 19.5424V19.6322C61.9079 19.6961 61.896 19.734 61.8584 19.7841L61.6823 19.9999C61.6447 20.0499 61.5815 20.0896 61.5182 20.0896H61.4174L61.2789 20.1017C61.2533 20.1017 61.2037 20.1017 61.178 20.0896L61.0139 20.0258L60.749 20.1155L60.6857 20.1276H60.5353C60.5234 20.1276 60.5097 20.1155 60.4977 20.1155L60.2088 20.0517L60.0208 20.0637H59.7934L59.7439 20.0517L59.4789 19.9619L59.3285 20.0517C59.2789 20.0775 59.2157 20.1017 59.1644 20.0896L59.0379 20.0637L58.6482 20.0258H58.4601C58.4345 20.0258 58.4106 20.0137 58.3849 19.9999L58.296 19.974L57.9183 20.024C57.8926 20.024 57.855 20.024 57.8294 20.012L57.7422 19.9861L57.5405 20.024L57.1764 20.1138C57.1508 20.1259 57.1268 20.1138 57.1012 20.1138L56.9251 20.0879L56.6482 20.024L56.573 20.0741C56.5354 20.1121 56.4858 20.1242 56.4345 20.1242H56.2585C56.2328 20.1242 56.2089 20.1121 56.1833 20.0983L55.9439 19.9843L55.7935 20.0603C55.7559 20.0862 55.7303 20.0983 55.7046 20.0983L55.4157 20.1103H55.2516C55.214 20.1103 55.1645 20.0845 55.1252 20.0603L54.9867 19.9584C54.9115 19.8946 54.8858 19.8065 54.9115 19.7168L54.9747 19.4872L54.9371 19.3595V19.0798L54.9491 19.016L55.0499 18.7864L55.0619 18.7605L54.9747 18.6708C54.9371 18.6328 54.9252 18.5568 54.9252 18.505L54.9628 18.2634L55.038 17.9078L54.9884 17.5522L54.9628 17.4625C54.9508 17.3986 54.9508 17.3486 54.9884 17.2847L55.1012 17.119L55.038 16.8773C55.026 16.8014 55.026 16.7496 55.0636 16.6995L55.1132 16.6236L55.2516 16.4337L55.4157 16.0902C55.3901 16.0004 55.4157 15.9003 55.479 15.8486L55.5798 15.7726L55.6174 15.6207C55.6431 15.5309 55.7183 15.4688 55.7935 15.455L55.92 15.4429L56.0465 15.2133C56.0721 15.1633 56.1217 15.1236 56.1593 15.1115L56.2482 15.0856L56.614 14.6662L56.6636 14.6282L56.7901 14.5643C56.802 14.5522 56.8277 14.5384 56.8397 14.5384L57.0157 14.5125L57.1798 14.3606L57.2294 14.3227L57.5319 14.1949L57.5696 14.1052C57.5952 14.0292 57.6584 13.9774 57.7337 13.9654L57.9473 13.9274L58.0106 13.7116C58.0225 13.6736 58.0482 13.6477 58.0738 13.6219L58.2003 13.5079C58.2123 13.4958 58.2499 13.482 58.2636 13.482L58.4909 13.3923L58.6926 13.2404L58.9319 13.0505L59.0328 12.8848C59.0447 12.8589 59.0704 12.8589 59.0823 12.8468L59.296 12.6811L59.3217 12.5413C59.3217 12.5154 59.3336 12.5154 59.3473 12.4912L59.4858 12.2876L59.4482 11.7801L59.2721 11.4107L59.1456 11.207L59.096 11.1949L58.8687 10.9912H58.655L58.0003 10.9654L57.8499 11.0534C57.8123 11.0793 57.7747 11.0793 57.749 11.0793L57.6106 11.0672L57.3337 11.3468L57.2448 11.4746C57.2448 11.4866 57.2191 11.5125 57.2072 11.5125L57.0807 11.6144L57.055 11.6403L56.9166 11.73L56.7901 11.9596C56.7644 12.0097 56.7149 12.0614 56.6516 12.0735L56.5508 12.0994C56.4756 12.1253 56.4243 12.1115 56.3627 12.0614L56.2362 11.9596L55.9713 11.7697H55.908C55.8585 11.7697 55.7952 11.7317 55.7576 11.6938L55.6311 11.554L55.3918 11.4141L55.1781 11.3123L55.0021 11.2105C54.9764 11.1984 54.9388 11.1604 54.9269 11.1207L54.8004 10.867C54.7747 10.829 54.7747 10.7772 54.7884 10.7151L54.838 10.5252C54.838 10.4993 54.8499 10.4751 54.8636 10.4613L54.9269 10.3595L55.1542 10.0799L55.2927 9.91414L55.3679 9.73635C55.3798 9.71046 55.3935 9.66041 55.4175 9.6466L55.5679 9.53267L55.6055 9.50678L55.8328 9.41702L55.8824 9.27721C55.908 9.20126 55.9576 9.16328 56.0209 9.13739L56.2089 9.07352L56.5115 8.81978L56.6123 8.78181L56.8516 8.73175L57.1661 8.6558L57.2414 8.61783C57.267 8.60574 57.3166 8.61783 57.3422 8.61783L57.5935 8.6558L57.8584 8.60575L58.0858 8.51599C58.1114 8.5039 58.1354 8.50391 58.161 8.50391L58.6259 8.51599H58.6636L58.9285 8.56604L59.1559 8.52807H59.2191L59.3695 8.54015C59.4191 8.54015 59.4704 8.57813 59.508 8.6161L59.5576 8.66616L59.8977 8.81806L60.0362 8.80598C60.0618 8.80598 60.0858 8.81806 60.1114 8.81806L60.3251 8.88192C60.3883 8.90781 60.4122 8.94579 60.4379 8.99585L60.5387 9.17364L60.7268 9.24959C60.7268 9.24959 60.7387 9.24959 60.7524 9.26167L60.8652 9.32554L61.0926 9.55511L61.2567 9.64487C61.3062 9.67076 61.3439 9.72082 61.3575 9.79677L61.3951 10.0263L61.496 10.2162L61.6344 10.2922C61.7233 10.356 61.7473 10.4199 61.7353 10.4958L61.7097 10.6098L61.8225 10.7755C61.8344 10.8014 61.8481 10.8514 61.8481 10.8773L61.8601 11.1949L61.9097 11.3227C61.9216 11.3347 61.9216 11.3865 61.9216 11.3986L61.9336 11.6523L61.9968 11.9958C61.9968 12.0217 62.0088 12.0718 61.9968 12.0977L61.896 12.4153L61.8208 12.707L61.7951 12.8347L61.8447 12.9487C61.8567 12.9987 61.8567 13.0626 61.8327 13.1144L61.7695 13.2542L61.7438 13.3042L61.5165 13.5459L61.4037 13.6857V13.8135C61.4156 13.9533 61.3661 14.0551 61.2909 14.0672L61.1524 14.0931L61.0772 14.3468C61.0652 14.4107 61.0276 14.4487 60.9763 14.4746L60.7883 14.5764C60.7507 14.6023 60.7251 14.6023 60.6875 14.6023H60.5866L60.3097 14.9579C60.2977 14.9838 60.2721 14.9838 60.2601 14.9958L60.0464 15.1236L59.896 15.3273C59.884 15.3532 59.8584 15.3773 59.8328 15.3911L59.6943 15.4671L59.5063 15.543L59.2294 15.7467C59.2037 15.7726 59.1661 15.7726 59.1405 15.7726L58.9388 15.7985L58.8003 16.0281L58.7747 16.066L58.6482 16.1938L58.4465 16.3595L58.3336 16.4613L58.2841 16.4993L58.0191 16.6132L57.9183 16.7789C57.9183 16.791 57.9063 16.8048 57.8926 16.8169L57.6909 17.0068L57.6277 17.3365C57.6277 17.3485 57.6157 17.3624 57.6157 17.3744L57.5781 17.4504L57.5661 17.6023C57.5781 17.6023 57.5918 17.6144 57.6037 17.6144L57.7302 17.6644L57.9576 17.6385L58.2601 17.5885L58.4242 17.5505C58.4499 17.5384 58.4738 17.5505 58.4875 17.5505L58.7148 17.5626C58.7268 17.5626 58.7644 17.5747 58.7781 17.5885L59.0294 17.6903L59.1935 17.6403C59.2191 17.6282 59.2311 17.6282 59.243 17.6282L59.4943 17.6161L59.7712 17.5902L59.9473 17.5522C59.9729 17.5401 59.9849 17.5522 60.0105 17.5522L60.137 17.5643C60.145 17.5643 60.1575 17.5683 60.1746 17.5764L60.4396 17.6782L60.8669 17.5885H60.9421L61.1302 17.6006L61.4943 17.6886L61.5319 17.6627C61.6327 17.5868 61.7832 17.5868 61.8584 17.6748L61.9473 17.7766C61.9729 17.8146 61.9968 17.8526 61.9968 17.9044V18.0822L62.0225 18.2979C62.0225 18.348 62.0225 18.3739 61.9968 18.4256L61.9951 18.4377Z" fill="#FE5000"/>
</svg>
