<svg viewBox="0 0 242 14" fill="none" xmlns="http://www.w3.org/2000/svg">
<path d="M1.708 6.59C1.344 6.674 1.05 6.996 1.05 7.402C1.05 7.92 1.554 8.326 2.058 8.214C3.626 7.85 4.872 7.024 5.418 5.778C5.964 7.024 7.196 7.85 8.764 8.214C9.282 8.326 9.772 7.92 9.772 7.402C9.772 6.996 9.492 6.674 9.128 6.59C7.546 6.198 6.37 5.204 6.37 3.37V2.922H8.904C9.324 2.922 9.688 2.558 9.688 2.124C9.688 1.704 9.324 1.34 8.904 1.34H6.384V0.766C6.384 0.289999 5.964 0.0379993 5.432 0.0379993C4.886 0.0379993 4.452 0.289999 4.452 0.766V1.34H1.932C1.498 1.34 1.148 1.704 1.148 2.124C1.148 2.558 1.498 2.922 1.932 2.922H4.466V3.37C4.466 5.204 3.29 6.212 1.708 6.59ZM11.97 0.303999C11.424 0.303999 10.976 0.668 10.976 1.214V12.456C10.976 13.002 11.424 13.366 11.97 13.366C12.516 13.366 12.964 13.002 12.964 12.456V1.214C12.964 0.668 12.516 0.303999 11.97 0.303999ZM9.576 10.678C8.512 10.846 7.434 10.986 6.37 11.084V9.096C6.37 8.592 5.95 8.242 5.418 8.242C4.886 8.242 4.466 8.592 4.466 9.096V11.238C3.444 11.308 2.422 11.35 1.386 11.378C0.966 11.392 0.63 11.756 0.63 12.19C0.63 12.652 1.036 13.002 1.498 12.988C4.228 12.904 6.958 12.722 9.688 12.288C10.15 12.218 10.444 11.896 10.444 11.462C10.444 11 10.094 10.608 9.576 10.678ZM26.264 13.366C26.768 13.366 27.16 13.044 27.16 12.554V1.116C27.16 0.625999 26.768 0.303999 26.264 0.303999C25.76 0.303999 25.354 0.625999 25.354 1.116V5.554H23.73V1.102C23.73 0.611999 23.338 0.303999 22.862 0.303999C22.358 0.303999 21.966 0.611999 21.966 1.102V12.568C21.966 13.058 22.358 13.366 22.862 13.366C23.338 13.366 23.73 13.058 23.73 12.568V7.192H25.354V12.554C25.354 13.044 25.76 13.366 26.264 13.366ZM15.946 12.694C17.472 12.666 18.998 12.498 20.594 12.162C20.958 12.092 21.238 11.77 21.238 11.378C21.238 10.888 20.776 10.496 20.3 10.594C19.138 10.888 17.92 11.07 16.884 11.084V2.516H20.076C20.51 2.516 20.86 2.166 20.86 1.732C20.86 1.298 20.51 0.933999 20.076 0.933999H15.932C15.372 0.933999 15.064 1.256 15.064 1.816V11.84C15.064 12.414 15.386 12.708 15.946 12.694ZM36.0893 1.298C36.0893 0.737999 35.7673 0.388 35.1793 0.388C34.6893 0.388 34.4373 0.569999 34.1573 0.99C33.9753 1.256 33.6393 1.536 33.1353 1.62C32.8553 1.676 32.5333 1.886 32.5333 2.362C32.5333 2.782 32.8273 3.09 33.2193 3.09H34.1853V12.26C34.1853 12.82 34.5633 13.254 35.1373 13.254C35.7113 13.254 36.0893 12.82 36.0893 12.26V1.298ZM38.0809 10.552C38.0809 12.4 39.5789 13.436 41.4689 13.436C43.3589 13.436 44.8569 12.4 44.8569 10.552V3.104C44.8569 1.256 43.3589 0.219999 41.4689 0.219999C39.5789 0.219999 38.0809 1.256 38.0809 3.104V10.552ZM39.9289 3.104C39.9289 2.292 40.5729 1.732 41.4689 1.732C42.3649 1.732 43.0089 2.292 43.0089 3.104V10.552C43.0089 11.35 42.3649 11.91 41.4689 11.91C40.5729 11.91 39.9289 11.35 39.9289 10.552V3.104ZM57.2007 9.95C57.7607 9.95 58.1807 9.642 58.1807 9.11V5.512H59.1467C59.6087 5.512 59.9307 5.148 59.9307 4.7C59.9307 4.252 59.6087 3.888 59.1467 3.888H58.1807V1.144C58.1807 0.611999 57.7607 0.303999 57.2007 0.303999C56.6547 0.303999 56.2207 0.611999 56.2207 1.144V9.11C56.2207 9.642 56.6547 9.95 57.2007 9.95ZM52.9307 7.36C53.4907 7.36 53.7987 7.052 53.7987 6.492V1.55C53.7987 0.99 53.4907 0.681999 52.9307 0.681999H47.5267C46.9527 0.681999 46.6447 0.99 46.6447 1.55V6.492C46.6447 7.052 46.9527 7.36 47.5267 7.36H52.9307ZM48.5767 2.208H51.8947V5.834H48.5767V2.208ZM57.7887 13.254C58.2227 13.254 58.5727 12.904 58.5727 12.484C58.5727 12.064 58.2227 11.714 57.7887 11.714H49.2627V9.446C49.2627 8.914 48.8287 8.606 48.2827 8.606C47.7367 8.606 47.2887 8.914 47.2887 9.446V12.344C47.2887 12.932 47.6247 13.254 48.2127 13.254H57.7887ZM67.3927 8.046C67.0147 8.046 66.6927 8.368 66.6927 8.746C66.6927 9.138 67.0147 9.46 67.3927 9.46H70.6827V9.922C70.6827 10.44 71.1167 10.748 71.6627 10.748C72.2087 10.748 72.6427 10.44 72.6427 9.922V1.144C72.6427 0.611999 72.2087 0.303999 71.6627 0.303999C71.1167 0.303999 70.6827 0.611999 70.6827 1.144V8.046H67.3927ZM66.8187 4.84C68.0787 4.84 69.0447 3.902 69.0447 2.712C69.0447 1.508 68.0787 0.569999 66.8187 0.569999H63.0667C61.7927 0.569999 60.8547 1.508 60.8547 2.712C60.8547 3.902 61.7927 4.84 63.0667 4.84H66.8187ZM66.4127 1.956C66.8327 1.956 67.1967 2.292 67.1967 2.726C67.1967 3.146 66.8327 3.482 66.4127 3.482H63.5007C63.0667 3.482 62.7027 3.146 62.7027 2.726C62.7027 2.292 63.0667 1.956 63.5007 1.956H66.4127ZM63.6267 8.872C63.4587 9.418 63.9767 9.88 64.5507 9.88C65.0127 9.88 65.3347 9.586 65.4747 9.166C65.7127 8.466 65.8527 7.794 65.9507 7.094H69.4227C69.8287 7.094 70.1647 6.758 70.1647 6.352C70.1647 5.946 69.8287 5.61 69.4227 5.61H60.8407C60.4347 5.61 60.0987 5.946 60.0987 6.352C60.0987 6.758 60.4347 7.094 60.8407 7.094H64.0747C64.0047 7.696 63.8227 8.27 63.6267 8.872ZM63.3047 11.798V10.048C63.3047 9.53 62.8847 9.236 62.3527 9.236C61.8207 9.236 61.4007 9.53 61.4007 10.048V12.344C61.4007 12.932 61.7227 13.254 62.3107 13.254H72.2227C72.6287 13.254 72.9507 12.932 72.9507 12.526C72.9507 12.12 72.6287 11.798 72.2227 11.798H63.3047ZM85.9007 13.366C86.4047 13.366 86.7967 13.044 86.7967 12.554V1.116C86.7967 0.625999 86.4047 0.303999 85.9007 0.303999C85.3967 0.303999 84.9907 0.625999 84.9907 1.116V5.554H83.3667V1.102C83.3667 0.611999 82.9747 0.303999 82.4987 0.303999C81.9947 0.303999 81.6027 0.611999 81.6027 1.102V12.568C81.6027 13.058 81.9947 13.366 82.4987 13.366C82.9747 13.366 83.3667 13.058 83.3667 12.568V7.192H84.9907V12.554C84.9907 13.044 85.3967 13.366 85.9007 13.366ZM75.5827 12.694C77.1087 12.666 78.6347 12.498 80.2307 12.162C80.5947 12.092 80.8747 11.77 80.8747 11.378C80.8747 10.888 80.4127 10.496 79.9367 10.594C78.7747 10.888 77.5567 11.07 76.5207 11.084V2.516H79.7127C80.1467 2.516 80.4967 2.166 80.4967 1.732C80.4967 1.298 80.1467 0.933999 79.7127 0.933999H75.5687C75.0087 0.933999 74.7007 1.256 74.7007 1.816V11.84C74.7007 12.414 75.0227 12.708 75.5827 12.694ZM103.566 5.316C103.986 4.042 104.266 2.782 104.434 1.494C104.504 0.891999 104.196 0.528 103.58 0.528H93.822C93.416 0.528 93.08 0.863999 93.08 1.284C93.08 1.69 93.416 2.026 93.822 2.026H102.446C102.32 3.048 102.068 4.154 101.634 5.316H93.108C92.688 5.316 92.352 5.666 92.352 6.072C92.352 6.492 92.688 6.842 93.108 6.842H97.826V8.76H93.78C93.36 8.76 93.024 9.096 93.024 9.516C93.024 9.936 93.36 10.272 93.78 10.272H102.53V12.61C102.53 13.142 102.964 13.436 103.51 13.436C104.042 13.436 104.476 13.142 104.476 12.61V9.684C104.476 9.096 104.154 8.76 103.566 8.76H99.758V6.842H104.56C104.98 6.842 105.316 6.492 105.316 6.072C105.316 5.666 104.98 5.316 104.56 5.316H103.566ZM114.598 13.366C115.088 13.366 115.48 13.058 115.48 12.568V7.192H117.188V12.554C117.188 13.044 117.594 13.366 118.098 13.366C118.602 13.366 118.994 13.044 118.994 12.554V1.116C118.994 0.625999 118.602 0.303999 118.098 0.303999C117.594 0.303999 117.188 0.625999 117.188 1.116V5.554H115.48V1.102C115.48 0.611999 115.088 0.303999 114.598 0.303999C114.108 0.303999 113.716 0.611999 113.716 1.102V12.568C113.716 13.058 114.108 13.366 114.598 13.366ZM108.018 12.596C109.446 12.498 110.888 12.33 112.33 11.938C112.834 11.812 113.072 11.518 113.072 11.084C113.072 10.58 112.708 10.146 112.148 10.286C111.014 10.608 109.894 10.762 108.774 10.832V1.62C108.774 1.102 108.354 0.766 107.836 0.766C107.318 0.766 106.898 1.102 106.898 1.62V11.602C106.898 12.316 107.304 12.624 108.018 12.596ZM121.682 6.856C124.216 6.604 126.134 5.386 126.834 3.902C127.534 5.386 129.452 6.604 131.986 6.856C132.448 6.912 132.84 6.548 132.84 6.086C132.84 5.68 132.532 5.344 132.14 5.316C129.592 5.05 128.01 3.482 127.884 2.334H131.916C132.35 2.334 132.7 1.984 132.7 1.55C132.7 1.116 132.35 0.766 131.916 0.766H121.752C121.318 0.766 120.968 1.116 120.968 1.55C120.968 1.984 121.318 2.334 121.752 2.334H125.77C125.672 3.482 124.076 5.05 121.528 5.316C121.136 5.344 120.828 5.68 120.828 6.086C120.828 6.548 121.234 6.912 121.682 6.856ZM126.834 13.506C127.394 13.506 127.828 13.142 127.828 12.596V9.488H132.532C132.966 9.488 133.316 9.138 133.316 8.704C133.316 8.27 132.966 7.92 132.532 7.92H121.136C120.702 7.92 120.352 8.27 120.352 8.704C120.352 9.138 120.702 9.488 121.136 9.488H125.84V12.596C125.84 13.142 126.288 13.506 126.834 13.506ZM145.804 7.948C146.35 7.948 146.798 7.64 146.798 7.108V1.158C146.798 0.625999 146.35 0.303999 145.804 0.303999C145.258 0.303999 144.81 0.625999 144.81 1.158V7.108C144.81 7.64 145.258 7.948 145.804 7.948ZM135.374 7.402C135.5 7.402 135.598 7.388 135.696 7.346C137.096 6.8 138.314 5.848 138.804 4.7C139.308 5.848 140.512 6.8 141.926 7.36C142.024 7.402 142.136 7.416 142.248 7.416C142.696 7.416 143.074 7.038 143.074 6.576C143.074 6.24 142.878 5.946 142.57 5.806C140.974 5.162 139.798 3.902 139.798 2.306V1.284C139.798 0.737999 139.364 0.429999 138.818 0.429999C138.258 0.429999 137.824 0.737999 137.824 1.284V2.306C137.824 3.902 136.648 5.162 135.052 5.806C134.758 5.932 134.548 6.24 134.548 6.576C134.548 7.038 134.926 7.402 135.374 7.402ZM145.776 13.394C146.336 13.394 146.798 13.058 146.798 12.512V9.362C146.798 8.774 146.476 8.452 145.888 8.452H136.074C135.654 8.452 135.304 8.802 135.304 9.222C135.304 9.656 135.654 10.006 136.074 10.006H144.768V12.512C144.768 13.058 145.216 13.394 145.776 13.394ZM155.923 1.298C155.923 0.737999 155.601 0.388 155.013 0.388C154.523 0.388 154.271 0.569999 153.991 0.99C153.809 1.256 153.473 1.536 152.969 1.62C152.689 1.676 152.367 1.886 152.367 2.362C152.367 2.782 152.661 3.09 153.053 3.09H154.019V12.26C154.019 12.82 154.397 13.254 154.971 13.254C155.545 13.254 155.923 12.82 155.923 12.26V1.298ZM158.979 6.856C161.513 6.604 163.431 5.386 164.131 3.902C164.831 5.386 166.749 6.604 169.283 6.856C169.745 6.912 170.137 6.548 170.137 6.086C170.137 5.68 169.829 5.344 169.437 5.316C166.889 5.05 165.307 3.482 165.181 2.334H169.213C169.647 2.334 169.997 1.984 169.997 1.55C169.997 1.116 169.647 0.766 169.213 0.766H159.049C158.615 0.766 158.265 1.116 158.265 1.55C158.265 1.984 158.615 2.334 159.049 2.334H163.067C162.969 3.482 161.373 5.05 158.825 5.316C158.433 5.344 158.125 5.68 158.125 6.086C158.125 6.548 158.531 6.912 158.979 6.856ZM164.131 13.506C164.691 13.506 165.125 13.142 165.125 12.596V9.488H169.829C170.263 9.488 170.613 9.138 170.613 8.704C170.613 8.27 170.263 7.92 169.829 7.92H158.433C157.999 7.92 157.649 8.27 157.649 8.704C157.649 9.138 157.999 9.488 158.433 9.488H163.137V12.596C163.137 13.142 163.585 13.506 164.131 13.506ZM179.22 1.298C179.22 0.737999 178.898 0.388 178.31 0.388C177.82 0.388 177.568 0.569999 177.288 0.99C177.106 1.256 176.77 1.536 176.266 1.62C175.986 1.676 175.664 1.886 175.664 2.362C175.664 2.782 175.958 3.09 176.35 3.09H177.316V12.26C177.316 12.82 177.694 13.254 178.268 13.254C178.842 13.254 179.22 12.82 179.22 12.26V1.298ZM181.212 10.552C181.212 12.4 182.71 13.436 184.6 13.436C186.49 13.436 187.988 12.4 187.988 10.552V3.104C187.988 1.256 186.49 0.219999 184.6 0.219999C182.71 0.219999 181.212 1.256 181.212 3.104V10.552ZM183.06 3.104C183.06 2.292 183.704 1.732 184.6 1.732C185.496 1.732 186.14 2.292 186.14 3.104V10.552C186.14 11.35 185.496 11.91 184.6 11.91C183.704 11.91 183.06 11.35 183.06 10.552V3.104ZM189.552 10.552C189.552 12.4 191.05 13.436 192.94 13.436C194.83 13.436 196.328 12.4 196.328 10.552V3.104C196.328 1.256 194.83 0.219999 192.94 0.219999C191.05 0.219999 189.552 1.256 189.552 3.104V10.552ZM191.4 3.104C191.4 2.292 192.044 1.732 192.94 1.732C193.836 1.732 194.48 2.292 194.48 3.104V10.552C194.48 11.35 193.836 11.91 192.94 11.91C192.044 11.91 191.4 11.35 191.4 10.552V3.104ZM206.361 1.13C206.529 0.681999 206.375 0.359999 206.025 0.248C205.563 0.122 205.227 0.332 205.073 0.737999L200.635 12.512C200.467 12.96 200.621 13.296 200.971 13.394C201.433 13.534 201.783 13.324 201.923 12.932L206.361 1.13ZM197.975 5.736C197.975 6.856 198.885 7.486 200.145 7.486C201.405 7.486 202.329 6.856 202.329 5.736V2.278C202.329 1.172 201.405 0.528 200.145 0.528C198.885 0.528 197.975 1.172 197.975 2.278V5.736ZM199.305 2.572C199.305 2.124 199.599 1.816 200.145 1.816C200.691 1.816 200.999 2.124 200.999 2.572V5.442C200.999 5.89 200.691 6.198 200.145 6.198C199.599 6.198 199.305 5.89 199.305 5.442V2.572ZM204.653 11.364C204.653 12.484 205.577 13.114 206.837 13.114C208.097 13.114 209.021 12.484 209.021 11.364V7.906C209.021 6.8 208.097 6.156 206.837 6.156C205.577 6.156 204.653 6.8 204.653 7.906V11.364ZM205.983 8.2C205.983 7.752 206.291 7.444 206.837 7.444C207.383 7.444 207.691 7.752 207.691 8.2V11.07C207.691 11.518 207.383 11.826 206.837 11.826C206.291 11.826 205.983 11.518 205.983 11.07V8.2ZM215.894 5.47C218.498 5.316 220.36 4.574 221.074 3.468C221.788 4.574 223.65 5.316 226.254 5.47C226.674 5.498 227.024 5.162 227.024 4.742C227.024 4.35 226.702 4.028 226.324 4.014C223.86 3.888 222.166 3.034 222.096 2.054H226.086C226.492 2.054 226.814 1.718 226.814 1.312C226.814 0.92 226.492 0.584 226.086 0.584H216.062C215.67 0.584 215.334 0.92 215.334 1.312C215.334 1.718 215.67 2.054 216.062 2.054H220.052C219.968 3.034 218.302 3.888 215.824 4.014C215.446 4.028 215.138 4.35 215.138 4.742C215.138 5.162 215.488 5.498 215.894 5.47ZM226.8 7.864C227.22 7.864 227.556 7.514 227.556 7.108C227.556 6.688 227.22 6.338 226.8 6.338H215.362C214.942 6.338 214.592 6.688 214.592 7.108C214.592 7.514 214.942 7.864 215.362 7.864H226.8ZM215.222 11.014C215.222 12.26 216.146 13.31 217.532 13.31H224.616C226.002 13.31 226.926 12.26 226.926 11.014C226.926 9.796 226.002 8.732 224.616 8.732H217.532C216.146 8.732 215.222 9.796 215.222 11.014ZM217.966 11.84C217.462 11.84 217.098 11.476 217.098 10.986C217.098 10.524 217.462 10.174 217.966 10.174H224.14C224.658 10.174 225.036 10.524 225.036 10.986C225.036 11.476 224.658 11.84 224.14 11.84H217.966ZM240.058 8.074C240.604 8.074 241.038 7.78 241.038 7.234V1.158C241.038 0.611999 240.604 0.303999 240.058 0.303999C239.512 0.303999 239.078 0.611999 239.078 1.158V3.356H237.09C236.684 3.356 236.348 3.692 236.348 4.098C236.348 4.504 236.684 4.84 237.09 4.84H239.078V7.234C239.078 7.78 239.512 8.074 240.058 8.074ZM229.768 7.598C231.224 7.234 232.442 6.464 232.946 5.204C233.436 6.478 234.654 7.234 236.124 7.598C236.6 7.71 237.104 7.332 237.104 6.814C237.104 6.422 236.838 6.1 236.502 6.016C235.046 5.652 233.884 4.56 233.87 2.698V2.264H236.208C236.628 2.264 236.964 1.914 236.964 1.494C236.964 1.074 236.628 0.724 236.208 0.724H229.684C229.278 0.724 228.928 1.074 228.928 1.494C228.928 1.914 229.278 2.264 229.684 2.264H232.022V2.698C232.022 4.574 230.846 5.652 229.404 6.016C229.054 6.114 228.788 6.422 228.788 6.814C228.788 7.332 229.278 7.71 229.768 7.598ZM238.56 13.324C240.1 13.324 241.304 12.302 241.304 10.874C241.304 9.418 240.1 8.41 238.56 8.41H232.372C230.846 8.41 229.642 9.418 229.642 10.874C229.642 12.302 230.846 13.324 232.372 13.324H238.56ZM232.722 11.854C232.078 11.854 231.602 11.462 231.602 10.874C231.602 10.272 232.078 9.894 232.722 9.894H238.196C238.868 9.894 239.344 10.272 239.344 10.874C239.344 11.462 238.868 11.854 238.196 11.854H232.722Z" fill="#8C8C8C"/>
</svg>
