<svg viewBox="0 0 35 35" fill="none" xmlns="http://www.w3.org/2000/svg">
<path d="M1.14061e-05 9C1.14061e-05 4.02944 4.02945 3.61191e-06 9.00001 3.61191e-06H25.5C30.4706 3.61191e-06 34.5 4.02944 34.5 9V25.5C34.5 30.4706 30.4706 34.5 25.5 34.5H9.00001C4.02945 34.5 1.14061e-05 30.4706 1.14061e-05 25.5L1.14061e-05 9Z" fill="#7C492C"/>
<path d="M19.7381 9.63C19.7381 8.67 19.1381 8.01 18.0781 8.01C17.2181 8.01 16.6781 8.23 16.2581 8.91C15.9781 9.35 15.4981 9.81 14.8181 9.99C14.4581 10.09 13.8381 10.45 13.8381 11.37C13.8381 12.15 14.3381 12.71 15.0581 12.71H16.1381V24.71C16.1381 25.77 16.8981 26.55 17.9381 26.55C18.9781 26.55 19.7381 25.77 19.7381 24.71V9.63Z" fill="#FFF9F0"/>
</svg>
