<svg viewBox="0 0 142 16" fill="none" xmlns="http://www.w3.org/2000/svg">
<path d="M12.616 15.704C13.24 15.704 13.736 15.288 13.736 14.68V1.784C13.736 1.192 13.24 0.775999 12.616 0.775999C11.992 0.775999 11.496 1.192 11.496 1.784V6.696H7.96C7.432 6.696 7 7.128 7 7.64C7 8.168 7.432 8.6 7.96 8.6H11.496V14.68C11.496 15.288 11.992 15.704 12.616 15.704ZM1.736 14.872C4.072 14.792 6.424 14.616 8.776 14.056C9.304 13.944 9.656 13.56 9.656 13.064C9.656 12.488 9.224 11.992 8.616 12.12C6.44 12.616 4.472 12.856 2.712 12.904V3.416H7.832C8.344 3.416 8.776 2.984 8.776 2.456C8.776 1.928 8.344 1.496 7.832 1.496H1.688C0.904 1.496 0.472 1.928 0.472 2.712V13.72C0.472 14.52 0.92 14.904 1.736 14.872ZM32.5649 15.704C33.2049 15.704 33.6849 15.288 33.6849 14.68V8.6H35.2689C35.7969 8.6 36.1329 8.168 36.1329 7.64C36.1329 7.112 35.7969 6.68 35.2689 6.68H33.6849V1.784C33.6849 1.192 33.2049 0.775999 32.5649 0.775999C31.9409 0.775999 31.4449 1.192 31.4449 1.784V14.68C31.4449 15.288 31.9409 15.704 32.5649 15.704ZM22.4049 14.872C24.7569 14.808 27.1089 14.584 29.4609 14.088C30.0049 13.976 30.3569 13.608 30.3569 13.096C30.3569 12.536 29.9089 12.04 29.3009 12.184C27.3329 12.632 25.1409 12.888 23.3809 12.952V2.312C23.3809 1.72 22.9009 1.304 22.2609 1.304C21.6369 1.304 21.1409 1.72 21.1409 2.312V13.72C21.1409 14.52 21.6049 14.904 22.4049 14.872ZM47.7329 6.728C49.2049 6.728 50.4209 5.512 50.4209 3.848C50.4209 2.184 49.2049 0.952 47.7329 0.952H39.8769C38.3729 0.952 37.1889 2.184 37.1889 3.848C37.1889 5.512 38.3729 6.728 39.8769 6.728H47.7329ZM40.3569 5C39.7809 5 39.3489 4.552 39.3489 3.832C39.3489 3.128 39.7809 2.68 40.3569 2.68H47.2369C47.8129 2.68 48.2449 3.128 48.2449 3.832C48.2449 4.552 47.8129 5 47.2369 5H40.3569ZM50.3409 9.896C50.8049 9.896 51.2049 9.512 51.2049 9.032C51.2049 8.536 50.8049 8.152 50.3409 8.152H37.2689C36.7889 8.152 36.3889 8.536 36.3889 9.032C36.3889 9.512 36.7889 9.896 37.2689 9.896H50.3409ZM49.7489 15.576C50.2129 15.576 50.5969 15.208 50.5969 14.744C50.5969 14.264 50.2129 13.896 49.7489 13.896H39.5729V11.752C39.5729 11.144 39.0769 10.792 38.4689 10.792C37.8449 10.792 37.3489 11.144 37.3489 11.752V14.536C37.3489 15.208 37.7169 15.576 38.3889 15.576H49.7489ZM67.3138 15.704C67.8738 15.704 68.3058 15.352 68.3058 14.808V1.672C68.3058 1.128 67.8738 0.775999 67.3138 0.775999C66.7538 0.775999 66.3058 1.128 66.3058 1.672V6.232H64.4978C63.9858 6.232 63.5698 6.648 63.5698 7.16C63.5698 7.656 63.9858 8.088 64.4978 8.088H66.3058V14.808C66.3058 15.352 66.7538 15.704 67.3138 15.704ZM70.6258 15.704C71.1858 15.704 71.6338 15.336 71.6338 14.792V1.688C71.6338 1.144 71.1858 0.775999 70.6258 0.775999C70.0658 0.775999 69.6178 1.144 69.6178 1.688V14.792C69.6178 15.336 70.0658 15.704 70.6258 15.704ZM58.1138 14.712C58.3698 14.712 58.6098 14.616 58.7858 14.44C59.8418 13.464 60.7378 12.136 61.1378 10.584C61.5378 12.152 62.4338 13.464 63.4898 14.44C63.6498 14.616 63.8898 14.728 64.1618 14.728C64.7058 14.728 65.1538 14.28 65.1538 13.72C65.1538 13.432 65.0098 13.16 64.8018 12.984C63.2018 11.592 62.1618 9.416 62.1618 5.656V2.088C62.1618 1.528 61.7138 1.16 61.1378 1.16C60.5618 1.16 60.1138 1.528 60.1138 2.088V5.656C60.1138 9.416 59.0578 11.592 57.4738 12.984C57.2658 13.16 57.1217 13.432 57.1217 13.72C57.1217 14.28 57.5698 14.712 58.1138 14.712ZM85.8098 9.624C86.4498 9.624 86.9298 9.272 86.9298 8.664V5.768H88.0658C88.5618 5.768 88.9298 5.368 88.9298 4.856C88.9298 4.36 88.5618 3.944 88.0658 3.944H86.9298V1.736C86.9298 1.128 86.4498 0.775999 85.8098 0.775999C85.1858 0.775999 84.6898 1.128 84.6898 1.736V8.664C84.6898 9.272 85.1858 9.624 85.8098 9.624ZM74.3538 8.92C74.4818 8.92 74.5938 8.888 74.7057 8.84C76.3218 8.184 77.6818 7.064 78.2418 5.72C78.8018 6.968 80.1618 8.024 81.7618 8.664C81.8738 8.696 81.9858 8.728 82.1138 8.728C82.6258 8.728 83.0578 8.296 83.0578 7.768C83.0578 7.384 82.8178 7.048 82.4658 6.904C80.6737 6.184 79.3458 4.76 79.3458 2.968V1.88C79.3458 1.272 78.8498 0.919999 78.2258 0.919999C77.6178 0.919999 77.1218 1.272 77.1218 1.88V2.92C77.1218 4.824 75.8098 6.344 73.9858 7.112C73.6497 7.256 73.4098 7.576 73.4098 7.976C73.4098 8.488 73.8418 8.92 74.3538 8.92ZM84.1938 15.656C85.9538 15.656 87.3298 14.504 87.3298 12.856C87.3298 11.208 85.9538 10.072 84.1938 10.072H77.3778C75.6338 10.072 74.2578 11.208 74.2578 12.856C74.2578 14.504 75.6338 15.656 77.3778 15.656H84.1938ZM77.8258 13.96C77.0738 13.96 76.5138 13.56 76.5138 12.856C76.5138 12.168 77.0738 11.768 77.8258 11.768H83.7458C84.5138 11.768 85.0898 12.168 85.0898 12.856C85.0898 13.56 84.5138 13.96 83.7458 13.96H77.8258ZM100.514 5.784C102.002 5.784 103.202 4.744 103.202 3.368C103.202 1.992 102.002 0.952 100.514 0.952H92.6738C91.1698 0.952 89.9858 1.992 89.9858 3.368C89.9858 4.744 91.1698 5.784 92.6738 5.784H100.514ZM93.1698 4.184C92.6098 4.184 92.1778 3.864 92.1778 3.368C92.1778 2.888 92.6098 2.568 93.1698 2.568H100.034C100.594 2.568 101.042 2.888 101.042 3.368C101.042 3.864 100.594 4.184 100.034 4.184H93.1698ZM103.17 8.44C103.634 8.44 104.002 8.072 104.002 7.608C104.002 7.144 103.634 6.776 103.17 6.776H90.0178C89.5538 6.776 89.1858 7.144 89.1858 7.608C89.1858 8.072 89.5538 8.44 90.0178 8.44H103.17ZM102.642 15.576C103.058 15.576 103.394 15.24 103.394 14.824C103.394 14.408 103.058 14.072 102.642 14.072H92.3858V13.176H102.162C102.722 13.176 103.042 12.856 103.042 12.28V10.376C103.042 9.816 102.722 9.496 102.162 9.496H90.7538C90.3538 9.496 90.0338 9.832 90.0338 10.216C90.0338 10.616 90.3538 10.952 90.7538 10.952H100.818V11.784H91.0418C90.4658 11.784 90.1458 12.104 90.1458 12.664V14.696C90.1458 15.272 90.4658 15.576 91.0418 15.576H102.642ZM123.119 15.704C123.759 15.704 124.255 15.288 124.255 14.664V1.816C124.255 1.192 123.759 0.775999 123.119 0.775999C122.495 0.775999 121.983 1.192 121.983 1.816V14.664C121.983 15.288 122.495 15.704 123.119 15.704ZM117.039 7.96C118.911 7.96 120.255 6.408 120.255 4.52C120.255 2.616 118.911 1.08 117.039 1.08H113.983C112.111 1.08 110.783 2.616 110.783 4.52C110.783 6.408 112.111 7.96 113.983 7.96H117.039ZM114.335 6.2C113.503 6.2 112.879 5.416 112.879 4.52C112.879 3.608 113.503 2.84 114.335 2.84H116.703C117.519 2.84 118.159 3.608 118.159 4.52C118.159 5.416 117.519 6.2 116.703 6.2H114.335ZM114.495 15.688C115.023 15.688 115.391 15.368 115.583 14.888C116.047 13.592 116.383 12.232 116.527 10.84H120.511C120.991 10.84 121.391 10.44 121.391 9.96C121.391 9.48 120.991 9.096 120.511 9.096H110.799C110.319 9.096 109.919 9.48 109.919 9.96C109.919 10.44 110.319 10.84 110.799 10.84H114.255C114.143 12.024 113.839 13.208 113.423 14.392C113.183 15.064 113.743 15.688 114.495 15.688ZM135.039 3.704C135.487 3.704 135.871 3.336 135.871 2.872C135.871 2.408 135.487 2.04 135.039 2.04H132.159V1.192C132.159 0.664 131.647 0.36 131.007 0.36C130.367 0.36 129.855 0.664 129.855 1.192V2.04H126.975C126.527 2.04 126.143 2.408 126.143 2.872C126.143 3.336 126.527 3.704 126.975 3.704H135.039ZM138.607 11.88C139.247 11.88 139.727 11.528 139.727 10.92V6.792H140.831C141.359 6.792 141.727 6.376 141.727 5.864C141.727 5.352 141.359 4.936 140.831 4.936H139.727V1.736C139.727 1.128 139.247 0.775999 138.607 0.775999C137.983 0.775999 137.487 1.128 137.487 1.736V10.92C137.487 11.528 137.983 11.88 138.607 11.88ZM126.543 7.208C126.543 8.84 127.727 9.976 129.103 9.976H132.927C134.303 9.976 135.471 8.84 135.471 7.208C135.471 5.576 134.303 4.456 132.927 4.456H129.103C127.727 4.456 126.543 5.576 126.543 7.208ZM129.791 8.328C129.023 8.328 128.591 7.816 128.591 7.208C128.591 6.584 129.023 6.088 129.791 6.088H132.255C133.023 6.088 133.455 6.584 133.455 7.208C133.455 7.816 133.023 8.328 132.255 8.328H129.791ZM139.279 15.576C139.775 15.576 140.175 15.176 140.175 14.696C140.175 14.216 139.775 13.816 139.279 13.816H129.535V11.752C129.535 11.144 129.039 10.792 128.415 10.792C127.791 10.792 127.279 11.144 127.279 11.752V14.536C127.279 15.208 127.663 15.576 128.335 15.576H139.279Z" fill="#424242"/>
</svg>
