<svg viewBox="0 0 135 43" fill="none" xmlns="http://www.w3.org/2000/svg">
<path d="M25.2207 10.2594H20.2239V8H14.2954V10.2594H9.27038V14.9195H13.8437C13.0815 17.0377 11.2748 18.3651 8 19.3818L10.5972 24.0983C16.1022 22.1778 19.1793 19.0994 20.0263 14.9195H25.2207V10.2594ZM27.338 23.6464H33.2665V18.7887H36.0331V13.1402H33.2665V8.56485H27.338V23.6464ZM20.8167 25.0586H9.55269V34.8305H20.8167V30.7354H15.6223V29.1538H20.8167V25.0586ZM22.0024 29.1538H27.1969V30.7354H22.0024V34.8305H33.2665V25.0586H22.0024V29.1538ZM26.7734 19.0994C24.3738 18.478 22.3976 17.3483 20.9861 15.569C20.478 17.7437 19.6593 19.1559 18.3324 20.5962C19.998 21.9801 21.8048 23.1381 24.1762 23.8159L26.7734 19.0994Z" fill="#FE5000"/>
<path d="M48.3699 24.5502C48.3699 28.0805 47.7488 29.0408 46.6196 29.0408H46.3372V34.2657H47.4382C50.5154 34.2657 52.8021 32.8253 53.649 29.0408H56.6979V34.5481H62.6263V8.56485H56.6979V13.7897H53.5078C52.548 10.4289 50.346 9.12971 47.4382 9.12971H46.3372V14.3546H46.6196C47.7488 14.3546 48.3699 15.3149 48.3699 18.8452V24.5502ZM43.1189 18.8452C43.1189 15.3149 43.74 14.3546 44.8692 14.3546H45.1516V9.12971H44.0506C40.1265 9.12971 37.4728 11.4738 37.4728 18.0826V25.3128C37.4728 31.9215 40.1265 34.2657 44.0506 34.2657H45.1516V29.0408H44.8692C43.74 29.0408 43.1189 28.0805 43.1189 24.5502V18.8452ZM54.016 19.2971H56.6979V23.5335H54.016V19.2971Z" fill="#FE5000"/>
<path d="M78.9514 24.4937C75.1402 24.4937 73.644 26.6402 73.644 29.7469C73.644 32.8536 75.1402 35 78.9514 35H85.3315V30.4812H80.4476C79.7983 30.4812 79.5725 30.227 79.5725 29.7469C79.5725 29.2667 79.7983 29.0126 80.4476 29.0126H85.3315V24.4937H78.9514ZM86.5172 24.4937V29.0126H91.4011C92.0504 29.0126 92.2763 29.2667 92.2763 29.7469C92.2763 30.227 92.0504 30.4812 91.4011 30.4812H86.5172V35H92.8973C96.7085 35 98.2047 32.8536 98.2047 29.7469C98.2047 26.6402 96.7085 24.4937 92.8973 24.4937H86.5172ZM91.7116 23.364H97.6401V18.7887H100.407V13.1402H97.6401V8.56485H91.7116V23.364ZM82.1979 15.9362H84.0894V18.2803H82.1979V22.7992H89.4532V8.70607H84.0894V11.5586H82.1979V15.9362ZM73.7852 22.7992H81.0122V18.2803H79.149V15.9362H81.0122V11.5586H79.149V8.70607H73.7852V22.7992Z" fill="#FE5000"/>
<path d="M110.711 15.3713H112.602V17.3201H110.711V21.387H117.966V17.659H121.072V21.387H127V8.56485H121.072V12.5753H117.966V8.70607H112.602V11.4456H110.711V15.3713ZM115.312 29.0126H120.93V30.5941H115.312V34.8305H127V22.7992H120.93V24.9174H115.312V29.0126ZM114.127 24.9174H108.509V22.7992H102.439V34.8305H114.127V30.5941H108.509V29.0126H114.127V24.9174ZM102.298 21.387H109.525V17.3201H107.662V15.3713H109.525V11.4456H107.662V8.70607H102.298V21.387Z" fill="#FE5000"/>
</svg>
