<svg  viewBox="0 0 147 16" fill="none" xmlns="http://www.w3.org/2000/svg">
<path d="M10.1415 0.775999C9.5815 0.775999 9.1335 1.128 9.1335 1.672V4.648H6.9095C6.9415 4.088 6.9575 3.496 6.9575 2.888V2.568C6.9575 1.88 6.5735 1.496 5.8855 1.496H1.2935C0.7815 1.496 0.3655 1.928 0.3655 2.424C0.3655 2.952 0.7815 3.352 1.2935 3.352H4.8615C4.8775 7.896 3.9815 11.576 0.8295 12.984C0.5095 13.128 0.2695 13.464 0.2695 13.832C0.2695 14.36 0.7015 14.776 1.2295 14.776C1.3415 14.776 1.4855 14.744 1.5975 14.696C4.2535 13.56 6.1255 11.096 6.7495 6.472H9.1335V9.752H7.1495C6.6535 9.752 6.2695 10.152 6.2695 10.632C6.2695 11.128 6.6535 11.528 7.1495 11.528H9.1335V14.808C9.1335 15.352 9.5815 15.704 10.1415 15.704C10.7015 15.704 11.1335 15.352 11.1335 14.808V1.672C11.1335 1.128 10.7015 0.775999 10.1415 0.775999ZM13.4695 0.775999C12.9095 0.775999 12.4615 1.144 12.4615 1.688V14.792C12.4615 15.336 12.9095 15.704 13.4695 15.704C14.0295 15.704 14.4775 15.336 14.4775 14.792V1.688C14.4775 1.144 14.0295 0.775999 13.4695 0.775999ZM29.7095 6.68V1.784C29.7095 1.192 29.2135 0.775999 28.5895 0.775999C27.9815 0.775999 27.4695 1.192 27.4695 1.784V14.68C27.4695 15.288 27.9815 15.704 28.5895 15.704C29.2135 15.704 29.7095 15.288 29.7095 14.68V8.6H30.8615C31.3735 8.6 31.7735 8.168 31.7735 7.64C31.7735 7.112 31.3735 6.68 30.8615 6.68H29.7095ZM17.2935 7.608C16.8775 7.72 16.5575 8.072 16.5575 8.52C16.5575 9.128 17.1175 9.608 17.7255 9.448C19.4055 9.032 20.7655 8.056 21.3895 6.632C21.9975 8.056 23.3575 9.048 25.0375 9.448C25.6295 9.592 26.2055 9.128 26.2055 8.52C26.2055 8.072 25.9015 7.72 25.5015 7.592C23.7735 7.096 22.4775 5.864 22.4775 3.768V3.096H25.2135C25.6935 3.096 26.1095 2.696 26.1095 2.2C26.1095 1.704 25.6935 1.304 25.2135 1.304H17.5655C17.0695 1.304 16.6695 1.704 16.6695 2.2C16.6695 2.696 17.0695 3.096 17.5655 3.096H20.3015V3.768C20.3015 5.848 18.9895 7.112 17.2935 7.608ZM25.8535 12.648C24.7335 12.84 23.6135 12.984 22.4935 13.096V10.504C22.4935 9.896 22.0135 9.496 21.3895 9.496C20.7655 9.496 20.2695 9.896 20.2695 10.504V13.272C19.1655 13.352 18.0615 13.4 16.9575 13.432C16.4935 13.432 16.0935 13.864 16.0935 14.344C16.0935 14.888 16.5575 15.288 17.0855 15.272C20.0615 15.176 23.0055 14.984 25.9815 14.488C26.5095 14.408 26.8455 14.04 26.8455 13.56C26.8455 13.016 26.4455 12.552 25.8535 12.648ZM41.6775 15.704C42.2375 15.704 42.6855 15.352 42.6855 14.808V8.648H44.4615V14.792C44.4615 15.336 44.9095 15.704 45.4695 15.704C46.0295 15.704 46.4775 15.336 46.4775 14.792V1.688C46.4775 1.144 46.0295 0.775999 45.4695 0.775999C44.9095 0.775999 44.4615 1.144 44.4615 1.688V6.776H42.6855V1.672C42.6855 1.128 42.2375 0.775999 41.6775 0.775999C41.1335 0.775999 40.6855 1.128 40.6855 1.672V14.808C40.6855 15.352 41.1335 15.704 41.6775 15.704ZM33.2615 14.792C33.3895 14.792 33.5175 14.776 33.6135 14.728C37.0855 13.336 39.2775 9.912 39.2775 2.888V2.568C39.2775 1.88 38.9095 1.496 38.2055 1.496H33.3255C32.8295 1.496 32.3975 1.928 32.3975 2.424C32.3975 2.952 32.8295 3.352 33.3255 3.352H37.1975C37.1975 7.864 36.2375 11.56 32.8935 12.968C32.5735 13.112 32.3175 13.464 32.3175 13.848C32.3175 14.376 32.7495 14.792 33.2615 14.792ZM61.1335 8.6C61.7575 8.6 62.2535 8.248 62.2535 7.64V1.736C62.2535 1.128 61.7575 0.775999 61.1335 0.775999C60.5095 0.775999 60.0135 1.128 60.0135 1.736V3H57.2615C56.7815 3 56.3975 3.384 56.3975 3.864C56.3975 4.344 56.7815 4.728 57.2615 4.728H60.0135V7.64C60.0135 8.248 60.5095 8.6 61.1335 8.6ZM49.1655 8.168C49.2775 8.168 49.3575 8.152 49.4375 8.12C51.0855 7.56 52.3975 6.552 52.9735 5.336C53.5495 6.568 54.8295 7.56 56.4935 8.12C56.5735 8.152 56.6695 8.168 56.7815 8.168C57.2775 8.168 57.6775 7.752 57.6775 7.256C57.6775 6.856 57.4215 6.536 57.0695 6.408C55.2615 5.752 54.0775 4.52 54.0775 2.76V1.88C54.0775 1.272 53.5815 0.919999 52.9735 0.919999C52.3655 0.919999 51.8695 1.272 51.8695 1.88V2.728C51.8695 4.488 50.6855 5.752 48.8455 6.408C48.4935 6.536 48.2535 6.856 48.2535 7.256C48.2535 7.752 48.6695 8.168 49.1655 8.168ZM61.9335 15.576C62.3495 15.576 62.7175 15.24 62.7175 14.808C62.7175 14.392 62.3495 14.04 61.9335 14.04H51.6295V12.968H61.4375C61.9975 12.968 62.3175 12.648 62.3175 12.088V9.944C62.3175 9.368 61.9975 9.048 61.4375 9.048H50.0615C49.6455 9.048 49.3095 9.4 49.3095 9.8C49.3095 10.232 49.6455 10.568 50.0615 10.568H60.0775V11.56H50.2695C49.7095 11.56 49.3895 11.88 49.3895 12.456V14.696C49.3895 15.272 49.7095 15.576 50.2695 15.576H61.9335ZM82.3944 3.624C82.8424 3.624 83.2104 3.256 83.2104 2.808C83.2104 2.36 82.8424 1.992 82.3944 1.992H77.3864V1.24C77.3864 0.695999 76.8744 0.391999 76.2344 0.391999C75.5944 0.391999 75.0824 0.695999 75.0824 1.24V1.992H70.0744C69.6264 1.992 69.2584 2.36 69.2584 2.808C69.2584 3.256 69.6264 3.624 70.0744 3.624H82.3944ZM80.1224 9.4C81.6904 9.4 82.7624 8.312 82.7624 6.904C82.7624 5.496 81.6904 4.408 80.1224 4.408H72.3784C70.8104 4.408 69.7064 5.496 69.7064 6.904C69.7064 8.312 70.8104 9.4 72.3784 9.4H80.1224ZM72.8744 7.784C72.2664 7.784 71.8344 7.416 71.8344 6.92C71.8344 6.408 72.2664 6.04 72.8744 6.04H79.6264C80.2344 6.04 80.6664 6.408 80.6664 6.92C80.6664 7.416 80.2344 7.784 79.6264 7.784H72.8744ZM76.2344 15.864C76.8744 15.864 77.3704 15.448 77.3704 14.824V12.088H82.7784C83.2584 12.088 83.6424 11.704 83.6424 11.224C83.6424 10.76 83.2584 10.376 82.7784 10.376H69.6904C69.2104 10.376 68.8264 10.76 68.8264 11.224C68.8264 11.704 69.2104 12.088 69.6904 12.088H75.0984V14.824C75.0984 15.448 75.6104 15.864 76.2344 15.864ZM97.6873 3.88C97.6873 1.832 96.0073 0.679999 93.8313 0.679999C91.6713 0.679999 89.9753 1.864 89.9753 3.976V12.488C89.9753 14.6 91.6873 15.784 93.8473 15.784C96.0073 15.784 97.7193 14.6 97.7193 12.488V9.672C97.7193 7.544 96.5513 6.376 94.3753 6.376C93.2873 6.376 92.5513 6.84 92.0873 7.24V3.88C92.0873 2.952 92.8073 2.344 93.8313 2.344C94.8393 2.344 95.5753 2.952 95.5753 3.848V3.976C95.5753 4.536 95.9753 4.888 96.6313 4.888C97.3033 4.888 97.6873 4.488 97.6873 3.976V3.88ZM92.0873 9.528C92.1033 8.616 92.8553 8.024 93.8793 8.024C94.9033 8.024 95.5913 8.648 95.5913 9.576V12.568C95.5913 13.496 94.8553 14.104 93.8473 14.104C92.8233 14.104 92.0873 13.496 92.0873 12.568V9.528ZM108.803 15.704C109.363 15.704 109.811 15.352 109.811 14.808V8.648H111.587V14.792C111.587 15.336 112.035 15.704 112.595 15.704C113.155 15.704 113.603 15.336 113.603 14.792V1.688C113.603 1.144 113.155 0.775999 112.595 0.775999C112.035 0.775999 111.587 1.144 111.587 1.688V6.776H109.811V1.672C109.811 1.128 109.363 0.775999 108.803 0.775999C108.259 0.775999 107.811 1.128 107.811 1.672V14.808C107.811 15.352 108.259 15.704 108.803 15.704ZM100.387 14.792C100.515 14.792 100.643 14.776 100.739 14.728C104.211 13.336 106.403 9.912 106.403 2.888V2.568C106.403 1.88 106.035 1.496 105.331 1.496H100.451C99.9545 1.496 99.5225 1.928 99.5225 2.424C99.5225 2.952 99.9545 3.352 100.451 3.352H104.323C104.323 7.864 103.363 11.56 100.019 12.968C99.6985 13.112 99.4425 13.464 99.4425 13.848C99.4425 14.376 99.8745 14.792 100.387 14.792ZM127.187 4.616V8.2C127.187 8.808 127.683 9.16 128.307 9.16C128.931 9.16 129.427 8.808 129.427 8.2V1.736C129.427 1.128 128.931 0.775999 128.307 0.775999C127.683 0.775999 127.187 1.128 127.187 1.736V2.888H126.211C125.747 2.888 125.395 3.272 125.395 3.752C125.395 4.216 125.747 4.616 126.211 4.616H127.187ZM122.499 5.752C123.939 5.752 125.027 4.712 125.027 3.416C125.027 2.104 123.939 1.08 122.499 1.08H118.483C117.027 1.08 115.955 2.104 115.955 3.416C115.955 4.712 117.027 5.752 118.483 5.752H122.499ZM122.067 2.648C122.562 2.648 122.979 3 122.979 3.432C122.979 3.864 122.562 4.216 122.067 4.216H118.931C118.435 4.216 118.019 3.864 118.019 3.432C118.019 3 118.435 2.648 118.931 2.648H122.067ZM118.707 14.104V13.256H128.547C129.107 13.256 129.427 12.936 129.427 12.36V10.488C129.427 9.912 129.107 9.608 128.547 9.608H121.107C121.267 9.112 121.379 8.6 121.459 8.104H125.795C126.227 8.104 126.595 7.736 126.595 7.304C126.595 6.872 126.227 6.504 125.795 6.504H115.891C115.459 6.504 115.09 6.872 115.09 7.304C115.09 7.736 115.459 8.104 115.891 8.104H119.315C119.235 8.6 119.107 9.112 118.947 9.608H117.171C116.771 9.608 116.435 9.944 116.435 10.344C116.435 10.744 116.771 11.08 117.171 11.08H127.235V11.88H117.395C116.835 11.88 116.515 12.184 116.515 12.76V14.696C116.515 15.272 116.835 15.576 117.395 15.576H129.011C129.427 15.576 129.763 15.24 129.763 14.84C129.763 14.44 129.427 14.104 129.011 14.104H118.707ZM143.651 11.8C144.291 11.8 144.771 11.384 144.771 10.792V6.824H146.003C146.531 6.824 146.899 6.408 146.899 5.896C146.899 5.384 146.531 4.968 146.003 4.968H144.771V1.784C144.771 1.192 144.291 0.775999 143.651 0.775999C143.027 0.775999 142.531 1.192 142.531 1.784V10.792C142.531 11.384 143.027 11.8 143.651 11.8ZM132.467 9.496C136.739 9.144 140.115 7.112 140.115 2.376V2.152C140.115 1.544 139.779 1.208 139.155 1.208H132.483C132.003 1.208 131.603 1.592 131.603 2.072C131.603 2.552 132.003 2.952 132.483 2.952H137.955C137.955 5.72 135.923 7.432 132.323 7.752C131.875 7.8 131.523 8.152 131.523 8.616C131.523 9.144 131.971 9.528 132.467 9.496ZM144.323 15.576C144.819 15.576 145.219 15.176 145.219 14.696C145.219 14.216 144.819 13.816 144.323 13.816H134.707V11.32C134.707 10.712 134.211 10.36 133.587 10.36C132.963 10.36 132.451 10.712 132.451 11.32V14.536C132.451 15.208 132.835 15.576 133.507 15.576H144.323Z" fill="#424242"/>
</svg>
