<svg viewBox="0 0 198 43" fill="none" xmlns="http://www.w3.org/2000/svg">
<path d="M24.9663 10.25H20.0433V8H14.2024V10.25H9.25161V15.0312H14.0078C13.5071 17.7313 11.6714 19.2781 8 20.4312L10.5589 25.1281C16.3997 23.075 19.4592 19.6719 19.9877 15.0312H24.9663V10.25ZM34.1448 29.5156H15.9269V26.1125H9.80789V34.4375H34.1448V29.5156ZM27.8868 26.5344H33.7276V8.5625H27.8868V26.5344ZM26.4961 20.15C24.1319 19.5312 22.185 18.4063 20.7943 16.6344C20.2936 18.8 19.487 20.2063 18.1798 21.6406C19.8208 23.0188 21.6009 24.1719 23.9372 24.8469L26.4961 20.15Z" fill="#FE5000"/>
<path d="M36.2309 28.2219H45.8266V35H52.5019V28.2219H62.3757V22.8781H36.2309V28.2219ZM55.1442 14.8063C55.1442 16.6344 54.7548 19.1375 54.1707 20.9375L60.0116 22.0344C60.7069 19.8969 61.1241 16.9719 61.1241 13.7656V9.125H37.7606V14.3844H55.1442V14.8063Z" fill="#FE5000"/>
<path d="M73.0916 15.2844H81.4913C80.7403 18.6875 77.5418 20.0938 71.8678 20.8813L74.0372 25.8031C79.4331 25.1 86.915 22.85 87.9163 15.2844H96.7332V10.5031H88.111V8H81.7138V10.5031H73.0916V15.2844ZM71.84 34.0156H97.9848V29.2344H88.25V24.9875H81.5747V29.2344H71.84V34.0156ZM97.9848 20.6563C93.924 20.0656 91.0036 18.7438 88.9454 16.7469C88.5282 18.8281 87.7216 20.4031 86.3865 21.8656C88.7785 23.8906 91.7824 25.2969 95.565 25.8313L97.9848 20.6563Z" fill="#FE5000"/>
<path d="M114.395 34.4375H119.068V23.3281H120.569V34.4375H125.242V8.5625H120.569V18.2656H119.068V8.5625H114.395V34.4375ZM100.349 33.875H113.004V28.5313H105.634V14.75H112.726V9.40625H100.349V33.875Z" fill="#FE5000"/>
<path d="M136.653 34.4375H160.99V29.5156H142.772V26.1125H136.653V34.4375ZM152.479 15.9875H154.732V17.5625H152.479V22.625H154.732V26.5344H160.573V8.5625H154.732V10.925H152.479V15.9875ZM143.968 14.8625H144.107C145.303 14.8625 145.665 15.6219 145.665 17.4781C145.665 19.3344 145.303 20.0938 144.107 20.0938H143.968V24.875H144.692C149.03 24.875 151.228 22.5688 151.228 18.4906C151.228 16.9438 150.922 15.65 150.31 14.8906H151.617V10.1094H147.445V8H143.968V14.8625ZM142.8 8H139.324V10.1094H135.151V14.8906H136.459C135.847 15.65 135.541 16.9438 135.541 18.4906C135.541 22.5688 137.738 24.875 142.077 24.875H142.8V20.0938H142.661C141.465 20.0938 141.104 19.3344 141.104 17.4781C141.104 15.6219 141.465 14.8625 142.661 14.8625H142.8V8Z" fill="#FE5000"/>
<path d="M163.049 14.0188H164.133C163.911 14.4969 163.827 15.0594 163.827 15.65C163.827 18.1531 165.162 19.475 167.749 19.475H168.778V20.9094H162.798V24.7344H180.321V20.9094H174.341V19.475H175.37C177.957 19.475 179.292 18.1531 179.292 15.65C179.292 15.0594 179.18 14.4969 178.986 14.0188H180.071V10.1375H174.758V8H168.361V10.1375H163.049V14.0188ZM181.433 24.7344H187.274V19.7H190V13.9625H187.274V8.5625H181.433V24.7344ZM163.633 30.3594C163.633 33.1156 165.218 34.8875 168.583 34.8875H175.148V31.0625H170.28C169.696 31.0625 169.474 30.8375 169.474 30.3594C169.474 29.8812 169.696 29.6563 170.28 29.6563H175.148V25.8313H168.583C165.218 25.8313 163.633 27.6031 163.633 30.3594ZM187.831 30.3594C187.831 27.6031 186.245 25.8313 182.88 25.8313H176.316V29.6563H181.183C181.767 29.6563 181.99 29.8812 181.99 30.3594C181.99 30.8375 181.767 31.0625 181.183 31.0625H176.316V34.8875H182.88C186.245 34.8875 187.831 33.1156 187.831 30.3594ZM168.138 14.8906C168.138 14.3281 168.333 14.075 168.862 14.0188H174.063C174.73 14.0188 174.981 14.2437 174.981 14.8906C174.981 15.5375 174.73 15.7625 174.063 15.7625H169.056C168.389 15.7625 168.138 15.5375 168.138 14.8906Z" fill="#FE5000"/>
</svg>
