<svg viewBox="0 0 35 35" fill="none" xmlns="http://www.w3.org/2000/svg">
<path d="M1.14061e-05 9C1.14061e-05 4.02944 4.02945 3.61191e-06 9.00001 3.61191e-06H25.5C30.4706 3.61191e-06 34.5 4.02944 34.5 9V25.5C34.5 30.4706 30.4706 34.5 25.5 34.5H9.00001C4.02945 34.5 1.14061e-05 30.4706 1.14061e-05 25.5L1.14061e-05 9Z" fill="#7C492C"/>
<path d="M18.6245 12.93C18.6245 14.27 18.1245 15.15 15.9045 17.19C12.5045 20.33 12.1845 21.47 12.1845 22.97V24.27C12.1845 25.57 12.8845 26.27 14.1845 26.27H20.9245C21.8245 26.27 22.4645 25.77 22.4645 24.89C22.4645 23.99 21.8245 23.49 20.9245 23.49H15.9245V22.85C15.9245 21.77 16.6645 21.21 18.9245 18.87C21.1845 16.53 22.2245 15.33 22.2245 12.93V12.07C22.2245 9.31 20.2645 7.81 17.2245 7.81C14.1845 7.81 12.3645 9.31 12.3645 11.83V12.23C12.3645 13.03 12.9645 13.69 14.0845 13.69C15.2045 13.69 15.8445 13.03 15.8445 12.23V11.81C15.8445 11.13 16.2245 10.59 17.2245 10.59C18.1245 10.59 18.6245 11.23 18.6245 12.07V12.93Z" fill="#FFF9F0"/>
</svg>
