<svg viewBox="0 0 80 28" fill="none" xmlns="http://www.w3.org/2000/svg">
<rect width="80" height="28" rx="14" fill="#FFEBE0"/>
<path d="M21.5789 11.5907L21.2131 11.7806L21.0627 11.8945L20.8234 12.0602L20.9242 12.6454C20.9738 12.6713 21.0131 12.7472 21.0131 12.8111V12.9388L21.2268 13.0786L21.567 13.2443L21.7311 13.3082C21.743 13.3203 21.7687 13.3203 21.7943 13.3462L21.9208 13.4739L22.1345 13.5378C22.1721 13.5499 22.1977 13.5637 22.2216 13.6017L22.3857 13.7794L22.8507 14.0332L23.2148 14.135L23.4165 14.173C23.4285 14.173 23.4541 14.173 23.4661 14.1851L23.6541 14.2869L23.7037 14.3128L23.8797 14.4906L24.1191 14.5286C24.131 14.5286 24.1447 14.5286 24.1567 14.5407L24.3327 14.6045C24.3447 14.6166 24.3703 14.6166 24.396 14.6425L24.5601 14.7944L24.7994 15.062L24.9378 15.1638C24.9498 15.1638 24.9635 15.1897 24.9635 15.1897L25.0763 15.2915L25.2524 15.4814L25.29 15.5573L25.3532 15.7351L25.466 16.0148L25.5293 16.1926L25.6421 16.3065C25.6917 16.3565 25.7173 16.4463 25.6917 16.5361L25.6045 16.8416L25.7173 16.9814C25.7549 17.0315 25.7669 17.0953 25.7549 17.1471L25.7293 17.2489L25.7036 17.8341L25.678 18.0378C25.678 18.0637 25.666 18.0758 25.666 18.0878L25.5908 18.2535V18.4313C25.5908 18.4434 25.5908 18.4814 25.5789 18.4952L25.5156 18.6851L25.3652 19.0286C25.3652 19.0407 25.3532 19.0545 25.3395 19.0666L25.2643 19.1805L25.2011 19.3583C25.1754 19.4083 25.1259 19.4601 25.0746 19.486L24.9105 19.5619L24.8216 19.7915C24.8096 19.8416 24.772 19.8675 24.7464 19.8934L24.6336 19.9572L24.4575 20.047L24.2062 20.1868L23.9789 20.3525L23.9293 20.4285C23.8917 20.4785 23.8028 20.5044 23.7413 20.5044L23.5396 20.4923L23.4268 20.6063C23.3891 20.6442 23.3259 20.6563 23.2763 20.6563H23.1259L22.9242 20.7443C22.9122 20.7564 22.8746 20.7564 22.861 20.7564L22.3071 20.7944L21.6661 20.8704L21.6029 20.8583L21.3259 20.8082L21.0371 20.7323L20.873 20.7064C20.861 20.7064 20.8234 20.6943 20.8097 20.6805L20.6969 20.6166L20.5328 20.6667C20.4832 20.6788 20.4319 20.6788 20.3824 20.6546L20.0798 20.5027L19.9789 20.4267L19.714 20.3249L19.2867 20.135C19.261 20.1229 19.249 20.1229 19.2234 20.097L19.1106 19.9952L18.9226 19.8433C18.9106 19.8312 18.8969 19.8312 18.8969 19.8312L18.6952 19.6155C18.6952 19.6155 18.6696 19.6155 18.6696 19.6034L18.5567 19.4256L18.3927 19.158L18.1653 19.0441L18.1157 19.0061L18.0662 18.9561C18.0166 18.906 17.9909 18.8422 18.0029 18.7783L18.0286 18.5625C18.0405 18.4607 18.0918 18.3727 18.155 18.3588L18.2559 18.3468L18.432 18.1431C18.4576 18.1051 18.4952 18.093 18.5209 18.0792L18.7345 18.0153L18.8097 17.8876C18.8354 17.8376 18.8969 17.7996 18.9482 17.7858L19.1499 17.7478L19.2627 17.608C19.2884 17.5821 19.326 17.5579 19.3636 17.5441L19.5396 17.4941L19.6405 17.3922C19.7037 17.3163 19.779 17.2783 19.8285 17.3025L19.8661 17.3145C19.8918 17.3266 19.9294 17.3525 19.9413 17.3784L20.0918 17.5683L20.2678 17.772L20.4815 17.8099C20.5191 17.822 20.5824 17.8358 20.608 17.8738L20.6969 17.9877L20.873 18.0758L21.1499 18.1897L21.4268 18.2397C21.4388 18.2397 21.4524 18.2656 21.4644 18.2656L21.6029 18.3295L22.2199 18.4693L22.5225 18.3675L22.5977 18.2794C22.6097 18.2536 22.6473 18.2294 22.6729 18.2156L22.9994 18.0637L23.2387 17.7961L23.2131 17.2748L23.1122 17.1229L22.861 16.9452L22.6849 16.7933L22.6473 16.7432L22.5584 16.5913L22.3191 16.5412C22.2695 16.5292 22.2182 16.5033 22.1926 16.4653L22.1293 16.3755L21.89 16.2996L21.5003 16.1977L21.0969 16.0458C21.0712 16.0338 21.0473 16.02 21.0217 15.9958L20.8336 15.78L20.5943 15.6903H20.5687C20.4935 15.6903 20.4183 15.6644 20.3807 15.6005L20.2542 15.4348L20.0029 15.4227C19.9653 15.4227 19.914 15.4227 19.8764 15.3847L19.7755 15.3088L19.7379 15.2587L19.6251 15.0689L19.4234 14.8393L19.2593 14.7633C19.2473 14.7513 19.2217 14.7512 19.2097 14.7254L18.9961 14.4958L18.8456 14.3059L18.6696 14.0643L18.632 14.0384C18.5824 14.0004 18.5431 13.9486 18.5431 13.8727L18.5311 13.6189L18.4815 13.3652L18.3944 13.3151C18.3448 13.2771 18.3055 13.2254 18.2935 13.1494L18.2679 12.9198C18.2679 12.8698 18.2798 12.8439 18.2935 12.8059L18.3568 12.6782L18.2679 12.3105C18.2559 12.2725 18.2559 12.2208 18.2679 12.1828L18.3687 11.9532L18.3568 11.6477V11.5838L18.3824 11.5199L18.42 11.444L18.6217 11.2023L18.7089 11.0245L18.7841 10.7328C18.7841 10.7069 18.7961 10.669 18.8097 10.6569L18.8593 10.5809L19.0354 10.2892C19.0473 10.2633 19.061 10.2512 19.0986 10.2254L19.1858 10.1753C19.1978 10.1753 19.1978 10.1632 19.2114 10.1494L19.3875 10.0855L19.6268 9.90775L19.6644 9.80591C19.6901 9.72996 19.7533 9.69199 19.8148 9.67818L19.9533 9.65229L20.2183 9.41063C20.2302 9.39855 20.2439 9.38473 20.2559 9.38473L20.3191 9.34676C20.3687 9.30879 20.42 9.30879 20.4695 9.32087L20.6336 9.35885L20.8217 9.23112C20.8712 9.19314 20.9482 9.18105 20.9977 9.19314L21.1618 9.2432L21.3755 9.16725L21.6644 9.11719C21.69 9.11719 21.702 9.12927 21.7276 9.12927L22.2063 9.21903H22.5088L22.9994 9.257H23.1755C23.2644 9.257 23.3396 9.30707 23.3772 9.37093L23.4268 9.47277H23.678C23.69 9.47277 23.7037 9.47277 23.7276 9.48485L24.0045 9.5608L24.0302 9.57289L24.1686 9.63675L24.2062 9.67473L24.4831 9.9043L24.6592 10.0821L24.772 10.2098L25.0113 10.3876C25.037 10.4135 25.0609 10.4377 25.0746 10.4774L25.1002 10.5412L25.3019 10.6293C25.3515 10.6552 25.4148 10.6931 25.4284 10.757L25.478 10.9227L25.5789 11.1005C25.6045 11.1385 25.6284 11.2023 25.6165 11.2524L25.5669 11.4941C25.5549 11.5838 25.5036 11.646 25.4284 11.6718L25.2011 11.7478L24.8609 12.0154L24.6968 12.1931C24.6849 12.219 24.6592 12.2311 24.6336 12.2432L24.331 12.3571L24.2678 12.4849L24.2302 12.5349L24.1549 12.5988C24.1054 12.6488 24.0165 12.6747 23.9413 12.6488L23.7396 12.585C23.7139 12.5729 23.6763 12.5591 23.6507 12.5349L23.5379 12.421C23.5003 12.383 23.4883 12.3571 23.4746 12.3071L23.437 12.0533L23.0968 11.8755L22.9464 11.8117L22.7823 11.7219C22.7704 11.7219 22.7567 11.7098 22.7447 11.696L22.5686 11.5303L22.1789 11.4802L21.6627 11.608L21.5755 11.5959L21.5789 11.5907Z" fill="#FE5000"/>
<path d="M33.6723 11.4254L33.5971 11.5272L33.5475 11.667C33.5219 11.7568 33.4211 11.7948 33.3339 11.7948H33.1834C33.1578 11.7948 33.1202 11.7948 33.0963 11.7827L32.8689 11.6808L32.8057 11.7188C32.7681 11.7309 32.7168 11.7447 32.6792 11.7447L32.339 11.7067C32.3271 11.7067 32.3134 11.6946 32.3014 11.6946L32.2518 11.6687L32.0006 11.7326C31.9749 11.7447 31.9117 11.7447 31.8877 11.7326L31.6604 11.6567L31.3202 11.8086L31.3083 11.8206C31.2963 11.8206 31.2826 11.8206 31.2707 11.8327L31.3459 12.0485C31.3715 12.1124 31.3715 12.1624 31.3459 12.2142L31.3083 12.2781L31.2707 12.6975L31.2963 12.7614C31.3083 12.7735 31.3219 12.8114 31.3219 12.8373L31.3476 13.0531V13.4208L31.31 13.6745L31.3219 13.7884V13.8644L31.2587 14.1941L31.3083 14.2441C31.3459 14.2821 31.3715 14.3322 31.3715 14.4098L31.3595 14.6515L31.3476 14.8672L31.3852 15.0071C31.3852 15.0191 31.3972 15.033 31.3972 15.0571L31.4228 15.4645V15.5922C31.4228 15.6043 31.4108 15.6181 31.4108 15.6302L31.3613 15.9357L31.3356 16.1774L31.3852 16.4691L31.4108 16.6469V16.8126C31.4108 16.8506 31.3989 16.8626 31.3852 16.8885L31.2587 17.1561L31.2843 17.2838C31.2843 17.3097 31.2963 17.3218 31.2963 17.3339V17.5755L31.3083 17.9052V17.9553L31.2963 18.0951L31.3219 18.3368L31.3595 18.6164C31.3715 18.6664 31.3595 18.7182 31.3339 18.7683L31.2707 18.8822L31.2826 19.0859L31.3459 19.3776V19.4656L31.2963 19.6814L31.3339 19.8471V19.9369L31.2843 20.2044L31.2587 20.3442C31.2587 20.3563 31.2467 20.3701 31.2467 20.3822L31.1972 20.5099C31.1596 20.6377 31.0587 20.7136 30.9578 20.6877L30.8074 20.6498C30.7955 20.6498 30.7818 20.6498 30.7698 20.6377L30.657 20.5876L30.3544 20.6377L30.204 20.7015C30.1664 20.7274 30.1408 20.7274 30.1032 20.7274L29.8758 20.7153H29.6878C29.6245 20.7153 29.5613 20.7033 29.5237 20.6515L29.4485 20.5755L29.1596 20.6515L29.0724 20.6636C29.0228 20.6756 28.9716 20.6636 28.922 20.6256L28.8468 20.5617C28.7083 20.4599 28.6451 20.3719 28.6827 20.3201L28.7579 20.232L28.7835 19.8626L28.7459 19.6469L28.7203 19.4173C28.7203 19.3793 28.7322 19.3534 28.7459 19.3155L28.7955 19.2136L28.7698 18.9081L28.7203 18.7804C28.7083 18.7303 28.7083 18.6906 28.7203 18.6405L28.7955 18.4507L28.7459 18.083L28.6827 17.9812C28.6451 17.9173 28.6451 17.8534 28.6707 17.8034L28.7083 17.7136L28.7203 17.4461L28.7459 17.0646L28.6963 16.9628C28.6707 16.9248 28.6844 16.8609 28.6963 16.8109L28.7459 16.659V16.2913L28.7083 16.1256C28.6963 16.0617 28.7083 16.0358 28.734 15.9858L28.7716 15.9219L28.6707 15.6302C28.6587 15.6043 28.6587 15.5922 28.6587 15.5542L28.6707 15.4265L28.6963 15.045L28.6707 14.995C28.6587 14.957 28.6331 14.919 28.6451 14.8672L28.7083 14.5755L28.6707 14.4236C28.6587 14.3857 28.6587 14.3477 28.6707 14.3097L28.7203 14.182L28.7083 13.8523C28.7083 13.8022 28.7203 13.7625 28.7459 13.7246L28.7955 13.6607L28.6451 13.3931C28.6194 13.3431 28.6075 13.3034 28.6194 13.2654L28.669 13.0237L28.6314 12.8339C28.6314 12.7959 28.6314 12.7579 28.6434 12.732L28.7186 12.5422L28.6297 12.4024C28.6177 12.3644 28.6177 12.3385 28.6177 12.3126V12.1607C28.6177 12.0968 28.6434 12.0209 28.6929 11.9829L28.7818 11.919L28.7322 11.7292H28.6194L28.481 11.8051C28.4553 11.8172 28.4177 11.831 28.3938 11.831H28.1049C28.0673 11.831 28.0417 11.831 28.004 11.8051L27.8776 11.7292L27.5887 11.6532L27.5511 11.6912C27.5015 11.7292 27.4382 11.7412 27.375 11.7292L27.1237 11.6653H26.8348C26.734 11.7551 26.5955 11.7412 26.546 11.6394L26.4451 11.4875C26.4451 11.4754 26.4331 11.4495 26.4331 11.4495L26.3955 11.3598C26.3699 11.2959 26.3699 11.2579 26.3955 11.1941L26.4588 11.0663L26.4212 10.7746L26.3836 10.533V10.495L26.3955 10.2412C26.3955 10.2292 26.4075 10.2033 26.4075 10.2033L26.4451 10.0635L26.3186 9.77174C26.3066 9.74585 26.3066 9.72168 26.3066 9.69579V9.65781C26.3066 9.58186 26.3323 9.50592 26.3938 9.46794L26.5818 9.32813C26.5938 9.32813 26.6075 9.32813 26.6195 9.31604L26.7459 9.26598C26.7716 9.2539 26.8092 9.25391 26.8348 9.25391H27.0998C27.1254 9.25391 27.163 9.2539 27.2006 9.27979L27.428 9.40752L27.5169 9.33157C27.5664 9.28152 27.6673 9.26771 27.7305 9.2936L27.8434 9.33157L28.2092 9.40752L28.2468 9.36955C28.2844 9.33158 28.3596 9.31949 28.4109 9.31949L28.6622 9.33157L28.7374 9.30569C28.7869 9.2798 28.8382 9.27979 28.8758 9.2936L29.1527 9.35747L29.2912 9.31949C29.3032 9.31949 29.3168 9.30742 29.3288 9.30742L29.6177 9.28152L29.9322 9.2936C29.9579 9.2936 29.9818 9.30568 29.9955 9.31949L30.2348 9.40925L30.4228 9.39717L30.7254 9.3333L30.8006 9.29533C30.8382 9.26944 30.8895 9.25735 30.9271 9.25735L31.216 9.28325L31.4433 9.29533H31.5698C31.5954 9.29533 31.633 9.29533 31.6587 9.30742L31.9356 9.39717L32.0997 9.3592L32.2877 9.29533C32.3134 9.28325 32.351 9.28325 32.3766 9.28325L32.7168 9.29533C32.7288 9.29533 32.7424 9.30742 32.7544 9.30742L32.9048 9.34539L33.245 9.28152H33.2826C33.3715 9.26944 33.4587 9.29361 33.5099 9.38337L33.6108 9.56115C33.6364 9.59913 33.6484 9.66299 33.6364 9.71305L33.6108 9.87876L33.6604 9.96851C33.7099 10.0445 33.7356 10.1204 33.698 10.1843L33.6484 10.2861L33.6364 10.6158L33.6245 10.8696L33.674 11.0094C33.674 11.0215 33.686 11.0214 33.686 11.0473L33.7236 11.2769C33.7356 11.3408 33.7116 11.3908 33.686 11.4288L33.6723 11.4254Z" fill="#FE5000"/>
<path d="M41.0103 19.2911L40.8838 19.4948L40.971 19.5846C41.0206 19.6346 41.0462 19.6864 41.0462 19.7365V20.1059C41.0462 20.1697 41.0206 20.2577 40.971 20.2836L40.8958 20.3337L40.7077 20.6013C40.6821 20.6392 40.6445 20.6651 40.6069 20.6772C40.5573 20.7031 40.4941 20.6893 40.4428 20.6651L40.2787 20.5892L40.0274 20.653C39.9898 20.6651 39.9266 20.653 39.8889 20.6409L39.7625 20.5909L39.4599 20.565L39.3471 20.6151C39.3351 20.6271 39.2975 20.6271 39.2838 20.6271L39.0326 20.653L38.4668 20.6151L38.3403 20.5892L37.9762 20.6271L37.8001 20.691C37.7881 20.7031 37.7745 20.7031 37.7625 20.7031L37.624 20.729C37.5864 20.729 37.5232 20.729 37.4856 20.7031L37.2343 20.5633H37.0702L36.9317 20.6392C36.9061 20.6513 36.8565 20.6651 36.8189 20.6651H36.5044C36.4787 20.6651 36.4548 20.653 36.4411 20.653L36.3403 20.6409L36.1899 20.691C36.1642 20.7031 36.1266 20.7031 36.101 20.7031L35.8736 20.691H35.6463L35.4583 20.7169C35.4206 20.729 35.3711 20.729 35.3318 20.7048L35.0548 20.5909L34.8907 20.565C34.8412 20.565 34.7899 20.5529 34.7523 20.5011L34.6258 20.3492C34.6001 20.3113 34.5882 20.2992 34.5882 20.2474L34.5762 20.0817L34.5386 20.0178C34.513 19.9678 34.489 19.8901 34.513 19.84L34.6019 19.5984L34.513 19.3688C34.501 19.3429 34.513 19.3308 34.513 19.2928L34.5249 19.1789L34.5369 18.9114L34.5249 18.7215L34.4754 18.4678C34.4634 18.4298 34.4754 18.3797 34.501 18.3279L34.6138 18.1622L34.5249 17.8705V17.6289L34.5625 17.4511L34.6121 17.1214L34.5369 17.0316C34.4993 16.9937 34.4873 16.9298 34.4873 16.8797L34.5249 16.5742L34.4993 16.4085V16.3446L34.5625 16.027L34.5249 15.8492V15.7733L34.5506 15.7094L34.6258 15.2779L34.5762 15.126C34.5643 15.0759 34.5643 15.0362 34.5762 14.9862L34.6395 14.8584L34.5643 14.7186C34.5643 14.7065 34.5523 14.6927 34.5523 14.6927L34.489 14.4632C34.4771 14.3993 34.489 14.3492 34.5147 14.2975L34.6275 14.1076L34.6019 13.8021L34.6138 13.5604L34.6395 13.3446L34.5899 13.1789L34.5027 13.0011C34.4771 12.9511 34.4771 12.8613 34.5027 12.8113L34.6412 12.5316L34.5779 12.3659L34.5284 12.1881L34.5164 12.1622L34.4907 11.8826C34.4907 11.8067 34.5164 11.7428 34.566 11.7048L34.6412 11.6409L34.6292 11.2716L34.6412 11.0817V10.84L34.5403 10.7382C34.5027 10.6881 34.4771 10.6363 34.4771 10.5725L34.5027 10.3567C34.5027 10.2928 34.5284 10.2549 34.566 10.2169L34.6412 10.1668L34.5523 9.96316C34.5403 9.92519 34.5266 9.84924 34.5403 9.81127L34.6155 9.62139L34.6531 9.50747C34.6907 9.43152 34.766 9.36765 34.8548 9.36765H35.0189L35.2702 9.39355L35.5471 9.35557C35.5728 9.35557 35.5847 9.34348 35.6104 9.35557L35.8121 9.39355H35.9762L36.0394 9.38146C36.0394 9.36938 36.0514 9.36938 36.0514 9.36938L36.1779 9.30551C36.2155 9.27962 36.2411 9.26753 36.2651 9.26753H36.4924C36.5181 9.26753 36.542 9.27962 36.5676 9.29343L36.6805 9.34348H36.7557C36.7933 9.34348 36.8428 9.36938 36.8822 9.39355L36.9078 9.40562H36.971L37.3745 9.37973L37.4377 9.35384C37.4753 9.34176 37.5129 9.32795 37.5505 9.32795L37.8651 9.36592L38.0035 9.28997C38.0668 9.252 38.1044 9.252 38.1676 9.27789L38.3317 9.31587H38.4582C38.4702 9.31587 38.4838 9.32795 38.4958 9.32795L38.7471 9.36592L38.9232 9.30206C38.9488 9.28997 38.9864 9.27616 39.024 9.28997L39.289 9.32795H39.7163C39.7419 9.32795 39.7659 9.31587 39.7915 9.32795L40.0565 9.41599L40.2069 9.34004C40.2189 9.32795 40.2565 9.31414 40.2701 9.31414L40.4206 9.28825C40.5095 9.27616 40.5966 9.30033 40.6479 9.39009L40.7231 9.51782C40.7488 9.56788 40.7727 9.60758 40.7607 9.65764L40.7351 9.82335L40.7983 9.93727C40.8359 10.0132 40.8359 10.0771 40.7983 10.153L40.7488 10.2549L40.7864 10.4706L40.7983 10.7503L40.8359 10.8521C40.8616 10.9022 40.8616 10.9919 40.8359 11.042L40.7727 11.1818V11.3855C40.7727 11.4355 40.7607 11.4873 40.7351 11.5253L40.6462 11.6392C40.559 11.7531 40.4445 11.8049 40.3812 11.7532L40.2684 11.6634L40.0804 11.6755L39.93 11.7652C39.8924 11.7911 39.8548 11.7911 39.8291 11.7911H39.3129L39.0479 11.817H39.0103L38.8975 11.8049C38.8719 11.8049 38.8223 11.7929 38.7967 11.767L38.6462 11.653L38.2821 11.7549L38.1556 11.7928C38.0924 11.8049 38.0052 11.7929 37.9539 11.7428L37.8531 11.653L37.6394 11.7928C37.6018 11.8187 37.5505 11.8187 37.5129 11.8187L37.3488 11.8067C37.3369 11.8067 37.3112 11.8067 37.2992 11.7946L37.0975 11.7065L37.1232 11.8084C37.1351 11.8723 37.1232 11.9482 37.0856 11.9983L37.0104 12.1001L37.0856 12.2399C37.1112 12.2779 37.1232 12.3297 37.1112 12.3918L37.0616 12.6714L37.0993 12.7854C37.1249 12.8492 37.1249 12.8872 37.0993 12.9511L36.9864 13.1927L36.9984 13.3705L37.024 13.4983C37.024 13.5241 37.036 13.5362 37.036 13.5483V13.7779L37.1488 13.7658H37.2121L37.3129 13.7779L37.5266 13.7019C37.5386 13.6899 37.5762 13.6761 37.6018 13.6761H37.8531L38.0668 13.664C38.1044 13.664 38.1556 13.664 38.1796 13.6761L38.4445 13.8038L38.5573 13.7658C38.5693 13.7537 38.583 13.7537 38.595 13.7537L38.771 13.7278H38.8343L39.1608 13.7779H39.3625L39.6513 13.752C39.689 13.752 39.7266 13.7641 39.7642 13.7779L39.877 13.828L40.2548 13.8159L40.3436 13.79C40.4189 13.7641 40.4941 13.7779 40.5573 13.828L40.5949 13.8659C40.6582 13.916 40.6958 14.0057 40.6701 14.1076L40.6206 14.3233L40.6838 14.3993C40.7334 14.4632 40.7471 14.527 40.7214 14.6151L40.6582 14.8049L40.7077 14.9327C40.7197 14.9706 40.7334 14.9965 40.7334 15.0466L40.7077 15.3383L40.6701 15.6559L40.6821 15.706C40.7197 15.8199 40.6821 15.9217 40.5932 15.9856L40.4804 16.0754C40.4548 16.1012 40.4171 16.1133 40.3795 16.1133L39.9146 16.1634C39.8513 16.1755 39.7881 16.1513 39.7505 16.1133L39.6753 16.0374L39.4103 16.0495L38.9454 16.1513L38.6565 16.1893H38.3044L37.7881 16.0754L37.6992 16.1013H37.624L37.3471 16.0512L37.2087 16.1013C37.171 16.1133 37.1334 16.1271 37.0958 16.1133C37.0958 16.1392 37.1078 16.1634 37.0958 16.2031L37.0463 16.3809L37.1095 16.4706C37.1351 16.5086 37.1471 16.5725 37.1471 16.6105V16.84C37.1471 16.878 37.1351 16.9039 37.1215 16.9298L36.995 17.2094L37.0839 17.3751C37.0958 17.401 37.1095 17.4252 37.1095 17.4649V17.6686C37.1095 17.7065 37.1095 17.7186 37.0975 17.7445L37.0599 17.8584L37.0719 18.0621V18.1001L37.0599 18.2779H37.0975C37.1608 18.2278 37.2616 18.2019 37.3249 18.2399L37.4377 18.29L37.8411 18.3159L37.9163 18.29C37.942 18.2779 37.9659 18.29 37.9915 18.29L38.2309 18.3021L38.3061 18.2382C38.3813 18.1743 38.4821 18.1622 38.5573 18.2123L38.6838 18.2882L38.9984 18.2123C39.036 18.2002 39.0736 18.2002 39.1112 18.2123L39.224 18.2382L39.5505 18.1622C39.5625 18.1622 39.5761 18.1502 39.5881 18.1502H39.689L39.9163 18.1881L40.3197 18.2382L40.4462 18.2002C40.4718 18.1881 40.5095 18.1881 40.5351 18.1881L40.6616 18.2002C40.7248 18.2002 40.7881 18.2382 40.8257 18.29L40.9009 18.3918C40.9265 18.4177 40.9385 18.4678 40.9385 18.5057V18.6956L41.0274 18.8475C41.0394 18.8855 41.053 18.9114 41.053 18.9373V19.1668C41.053 19.2048 41.0411 19.2566 41.0154 19.2946L41.0103 19.2911Z" fill="#FE5000"/>
<path d="M44.1678 20.6137L43.9541 20.5636C43.8789 20.6534 43.778 20.6914 43.7028 20.6534L43.5763 20.5895L43.2242 20.6275L42.696 20.6534H42.4447L42.3319 20.6413C42.243 20.6413 42.1439 20.5774 42.1182 20.4894L42.0686 20.3237L41.9934 20.2219C41.9439 20.1459 41.9302 20.0561 41.9678 19.9802L42.043 19.8404L41.9934 19.7265C41.9934 19.7144 41.9815 19.7006 41.9815 19.6764L41.9695 19.3709V19.1171C41.9695 19.0912 41.9815 19.0792 41.9815 19.0671L42.0191 18.9652L41.9815 18.6597V18.5959L42.0191 18.4681L41.9695 18.0608L41.9439 17.883C41.9319 17.8329 41.9439 17.7552 41.9815 17.7173L42.0447 17.6413L41.9558 17.3738C41.9439 17.3237 41.9439 17.2598 41.9678 17.208L42.043 17.0803L41.9302 16.8507C41.9182 16.8248 41.9182 16.7748 41.9182 16.7368L41.9302 16.6488C41.9302 16.6229 41.9422 16.5849 41.9558 16.5728L42.0567 16.4209L42.0191 16.0274L41.9934 16.0015C41.9558 15.9376 41.9558 15.8876 41.9678 15.8237L42.0174 15.6459L42.0054 15.3922L41.9165 15.0866C41.9045 15.0487 41.9045 15.0107 41.9165 14.9727L41.9661 14.8329L41.9917 14.5913L42.0174 14.4014L41.9165 14.1338V14.0579L41.9285 13.7903L41.9165 13.7144V13.6505L42.0054 13.2828V13.143L41.9302 12.7616L41.8926 12.6718V12.5959L41.9302 12.3162L41.9045 12.1505V12.1005L41.9302 11.7949L41.9422 11.7311L42.031 11.5412L41.9815 11.2736L41.9319 11.1459C41.9199 11.1079 41.9063 11.07 41.9199 11.032L41.9832 10.8024L41.9199 10.6246C41.908 10.5867 41.9199 10.5746 41.9199 10.5366L41.9575 10.3588L42.0208 10.0671L41.9199 9.83751C41.908 9.79953 41.8943 9.72359 41.908 9.68562L41.9199 9.65972C41.9319 9.60966 41.9575 9.58377 41.9951 9.55788L42.2088 9.41806C42.2345 9.39217 42.284 9.38009 42.3097 9.38009L42.4738 9.36801L42.8772 9.30414C42.9028 9.30414 42.9404 9.29206 42.9661 9.30414L43.2686 9.38009L43.5455 9.35419H43.696L44.0481 9.36628H44.1113C44.2002 9.36628 44.2754 9.40426 44.3131 9.48021L44.4002 9.63211C44.4122 9.64419 44.4259 9.67008 44.4259 9.69597L44.4515 9.80989L44.5404 10.1275V10.2035L44.5284 10.433V10.5211L44.5541 10.7247C44.5541 10.7506 44.5541 10.7886 44.5421 10.8266L44.4669 11.0803L44.4413 11.4238L44.4789 11.4497C44.5421 11.4998 44.5797 11.6016 44.5541 11.6914L44.5165 11.8312C44.5165 11.8571 44.5045 11.8571 44.4908 11.8812L44.4156 12.0331L44.5028 12.3128C44.5148 12.3507 44.5028 12.4025 44.4908 12.4526L44.4413 12.6183L44.4789 12.8599L44.5421 13.0377C44.5421 13.0498 44.5541 13.0636 44.5541 13.0878L44.5797 13.2777V13.5573L44.5677 13.6212L44.5045 13.799L44.5541 14.0147C44.566 14.0786 44.566 14.1287 44.5284 14.1925L44.4156 14.3824V14.6879L44.4652 14.7518C44.5404 14.8415 44.5541 14.9417 44.5148 14.9934L44.4395 15.0953L44.4515 15.3249L44.4891 15.5786L44.5267 15.8962L44.5387 15.9221V16.1378C44.5387 16.1758 44.5267 16.1879 44.513 16.2138L44.4242 16.4175L44.4498 16.6212L44.4754 16.8749L44.4874 17.1287C44.4874 17.1545 44.4874 17.1787 44.4754 17.2184L44.4259 17.3461L44.4635 17.498C44.4754 17.536 44.4635 17.5619 44.4635 17.5861L44.4139 17.8398L44.4635 18.0556L44.5267 18.3093C44.5267 18.3352 44.5387 18.3473 44.5387 18.3594V18.6891C44.5387 18.715 44.5267 18.727 44.5267 18.7391L44.4772 18.929L44.4652 19.1327L44.5028 19.4002L44.5148 19.5142C44.5148 19.54 44.5148 19.5901 44.5028 19.616L44.4156 19.8835L44.4908 20.0492C44.5028 20.0751 44.5165 20.0872 44.5165 20.1252L44.5284 20.3289C44.5284 20.4186 44.5028 20.4808 44.4395 20.5187L44.3524 20.5826C44.3028 20.6206 44.2395 20.6327 44.1763 20.6085L44.1678 20.6137ZM45.2498 14.6154L45.3626 14.5895C45.3746 14.5895 45.3882 14.5774 45.4002 14.5774H45.7404L46.1301 14.6672L46.419 14.5274L46.6207 14.4635L46.8087 14.2478L46.8583 14.07L46.8327 13.9181V13.8421L46.9592 13.2708L46.9216 13.2069C46.9096 13.1689 46.8959 13.1051 46.9096 13.0671L46.9592 12.8893L46.8959 12.2541L46.8327 12.204C46.807 12.1781 46.7831 12.1281 46.7694 12.0901L46.7438 11.9002L46.5301 11.7483C46.5045 11.7224 46.4805 11.6983 46.4669 11.6586L46.4036 11.4929L46.1387 11.4549L45.5968 11.4048L45.5216 11.4808C45.4959 11.4929 45.4583 11.5188 45.4344 11.5188L45.3335 11.5446C45.2327 11.5705 45.1455 11.5326 45.0942 11.4428L45.0566 11.3789C45.031 11.3289 45.0071 11.2909 45.019 11.2391L45.0686 10.9854L44.9934 10.7955C44.9934 10.7834 44.9814 10.7834 44.9814 10.7575L44.9694 10.6557C44.9694 10.6298 44.9695 10.5797 44.9814 10.5539L45.0823 10.3243L45.0071 10.0067L44.9575 9.81679C44.9455 9.7909 44.9455 9.72877 44.9575 9.70287L44.9951 9.57514C45.0071 9.52509 45.0327 9.48538 45.0703 9.46121L45.1831 9.37319C45.272 9.29724 45.3712 9.27134 45.4224 9.32313L45.4976 9.38699L45.7746 9.29724L45.8378 9.28516H46.1267L46.6429 9.33521C46.6686 9.33521 46.7062 9.33521 46.7181 9.34729L46.9198 9.44913C46.9831 9.35937 47.1079 9.34729 47.2087 9.38526L47.3728 9.46121L47.5865 9.49919L48.1403 9.68906L48.1779 9.71496L48.3164 9.80472C48.354 9.83061 48.3916 9.88067 48.4053 9.91864L48.4549 10.0844L48.8446 10.4278L48.8702 10.4537L48.9078 10.5038L48.9455 10.5677L49.0463 10.8991L49.0839 11.0648L49.2104 11.2944C49.2224 11.3202 49.236 11.3323 49.236 11.3703L49.2737 11.5999L49.3369 11.8295L49.3625 12.059V12.135L49.313 12.3387L49.4514 12.7063C49.4634 12.7443 49.4634 12.7961 49.4514 12.8341L49.3642 13.1016L49.3386 13.2673L49.4395 13.7368C49.4514 13.7869 49.4395 13.8507 49.4019 13.9025L49.3266 14.0044L49.4155 14.322C49.4275 14.3858 49.4275 14.4359 49.4036 14.4877L49.3027 14.6655C49.3027 14.6776 49.2907 14.6776 49.2907 14.6914L49.1779 14.8312L49.2036 14.971C49.2036 14.9969 49.2036 15.059 49.1916 15.0849L49.1164 15.2627L49.0275 15.5423C49.0155 15.5924 48.9899 15.6183 48.9643 15.6442L48.901 15.6942L48.5985 15.91L48.5865 15.9739C48.5865 16.0377 48.5369 16.1016 48.4856 16.1396L48.2583 16.2915L48.0446 16.4814C48.0326 16.4934 48.019 16.5072 48.007 16.5072L47.9062 16.5711C47.8429 16.6091 47.7933 16.6091 47.7557 16.597L47.6925 16.5711L47.4156 16.635L47.2395 16.7748C47.2139 16.7869 47.1763 16.8128 47.1506 16.8128L46.9626 16.8387C46.9369 16.8387 46.8874 16.8387 46.8617 16.8266L46.6104 16.7247L46.207 16.8766H45.8412C45.7917 16.8766 45.7404 16.8646 45.7028 16.8387L45.6019 16.7368L45.4891 16.7869C45.3626 16.8369 45.2378 16.8128 45.1865 16.6988L45.1113 16.5211L45.0361 16.2535L44.9729 16.1396L44.9609 16.0895L44.9353 15.8358V15.746C44.9353 15.7201 44.9353 15.696 44.9472 15.658L45.0737 15.4163L45.0618 15.0608C44.9985 15.0107 45.0122 14.883 45.1113 14.7552L45.1489 14.7052C45.1746 14.6793 45.2122 14.6413 45.2498 14.6292V14.6154Z" fill="#FE5000"/>
<path d="M58.4759 16.8253C58.464 16.7994 58.4503 16.7753 58.4503 16.7356L58.4247 16.5319L58.1853 16.3662L58.1221 16.2764L58.0212 16.0727L57.6691 16.1366C57.6435 16.1366 57.6195 16.1366 57.5939 16.1245L57.0913 16.0106H56.852L56.7136 16.0365C56.664 16.0486 56.5871 16.0365 56.5375 15.9985L56.4367 15.9088C56.3991 15.8708 56.3614 15.819 56.3614 15.7689L56.3495 15.4893L56.3119 15.2356L56.2999 15.1337L56.2503 14.842L56.2384 14.6124C56.2384 14.5486 56.2503 14.5227 56.2879 14.4726L56.4008 14.3328L56.3888 14.1291C56.3888 14.0532 56.4144 14.0014 56.464 13.9513L56.5529 13.8875C56.5649 13.8754 56.5785 13.8616 56.5905 13.8616L56.7922 13.7597C56.8674 13.7218 56.9563 13.7218 57.0196 13.7718L57.1324 13.8478L57.623 13.8219L57.8247 13.7839L58.0127 13.632L58.3153 13.4542L58.4024 13.2005L58.4144 12.9329L58.44 12.4755L58.3648 12.2217L58.2896 11.8903L58.0127 11.7005L57.9255 11.6504L57.6486 11.5106L57.1324 11.4985L56.9307 11.6642C56.905 11.6901 56.8674 11.7022 56.8418 11.7022L56.5392 11.7402L56.4008 11.9939C56.3888 12.0198 56.3751 12.0198 56.3632 12.0319L56.3136 12.0819L56.0486 12.4513L56.011 12.5273C55.9734 12.6032 55.8845 12.6412 55.7974 12.6412L55.5085 12.6291L55.4589 12.6412C55.4093 12.6412 55.358 12.6291 55.3204 12.5911L55.182 12.4893L54.8418 12.2597L54.6538 12.1078L54.4777 11.9421L54.3393 11.9041C54.3273 11.9041 54.3016 11.8921 54.2897 11.8783L54.1256 11.7505C54.088 11.7246 54.0623 11.6746 54.0504 11.6366L53.9632 11.3311C53.9512 11.3052 53.9512 11.243 53.9632 11.2171L53.9752 11.1671L54.0384 11.0773L54.2521 10.8736L54.264 10.7597C54.276 10.6959 54.3136 10.6199 54.3769 10.594L54.4777 10.544L54.6657 10.3662L54.7786 10.1884L54.9546 9.89667C54.9803 9.85869 54.9922 9.84661 55.0435 9.82072L55.3085 9.70679L55.3837 9.63085C55.4333 9.58079 55.4965 9.56697 55.5597 9.58078L55.6486 9.60668L55.9256 9.46686L56.2401 9.35293L56.3033 9.30288C56.3409 9.26491 56.3666 9.25283 56.4042 9.25283L56.6179 9.22693C56.6298 9.22693 56.6435 9.21485 56.6555 9.21485L56.9443 9.24074L57.1084 9.22866H57.6503L57.852 9.15271C57.8777 9.14063 57.9153 9.14062 57.9409 9.14062L58.1683 9.15271C58.1939 9.15271 58.2178 9.16479 58.2435 9.17859L58.5204 9.34431L58.7221 9.35639C58.7341 9.35639 58.7477 9.36847 58.7597 9.36847L58.8486 9.39436L59.1631 9.47031C59.2127 9.48239 59.252 9.50828 59.2759 9.53418L59.3135 9.59805L59.5409 9.63602C59.5785 9.6481 59.6281 9.66191 59.6537 9.68607L59.8041 9.83797L59.9545 9.96571L59.9922 10.0158L60.1426 10.2833H60.2178C60.293 10.2833 60.3682 10.3334 60.4058 10.411L60.5067 10.6406L60.5939 10.6786C60.6434 10.7045 60.6947 10.7546 60.7067 10.8063L60.7819 11.01C60.7938 11.048 60.7938 11.086 60.7938 11.1119L60.7562 11.3535L60.9203 11.5434C60.9323 11.5555 60.946 11.5693 60.9579 11.6072L60.9836 11.6573L60.9956 11.7212V11.9507L60.9067 12.2943L61.0451 12.7776C61.0451 12.8035 61.0571 12.8276 61.0571 12.8535L61.0451 12.9674C61.0451 12.9795 61.0332 13.0054 61.0195 13.0175L60.9186 13.2333L60.8058 13.5008L60.7802 13.5888C60.7802 13.6147 60.7545 13.6389 60.7426 13.6648L60.6041 13.8547L60.5289 14.1222L60.4913 14.338C60.4913 14.3759 60.4656 14.4277 60.4417 14.4519L60.3785 14.5158L60.3033 14.5658L59.9887 14.6798L59.7751 14.8316L59.9392 15.1372L60.0144 15.1631L60.2793 15.2908C60.3169 15.3167 60.3665 15.3409 60.3802 15.3788L60.4298 15.5066L60.5802 15.7741L60.681 16.0279L60.8315 16.2315L60.9203 16.2954C60.9956 16.3455 61.0332 16.4231 61.0212 16.4732L61.0092 16.575L61.0981 16.9185L61.1357 17.1343V17.1982L61.0349 17.7695C61.0844 17.8196 61.1101 17.9093 61.0844 17.9853L61.0212 18.2528L60.9956 18.4306C60.9956 18.4807 60.9699 18.5204 60.946 18.5445L60.8964 18.5825L60.8844 18.7983C60.8844 18.8483 60.8725 18.8863 60.8468 18.9122L60.6588 19.1418L60.6468 19.2315C60.6468 19.3075 60.6092 19.3713 60.546 19.4093L60.3699 19.4991L60.3443 19.6389C60.3323 19.7028 60.2691 19.7666 60.2058 19.7908L60.0417 19.8667L59.9528 20.0066C59.9528 20.0186 59.9409 20.0324 59.9272 20.0445L59.6622 20.3121L59.599 20.3501L59.5101 20.388L59.4845 20.4001L59.1956 20.464L59.0828 20.5658C59.0452 20.5917 59.0076 20.6297 58.9563 20.6297L58.6537 20.6556L58.4896 20.6815L58.1631 20.7833L57.9614 20.8213C57.9238 20.8334 57.8725 20.8213 57.8349 20.7954L57.6965 20.7315L57.1922 20.8334C57.1546 20.8455 57.1033 20.8455 57.0794 20.8334L57.0298 20.8075H56.7529C56.7272 20.8075 56.7033 20.7954 56.6777 20.7816L56.4127 20.6677L56.2247 20.6038L55.8982 20.5399H55.7478C55.7102 20.5399 55.6589 20.5279 55.635 20.514L55.4213 20.3742L55.3085 20.3362C55.2709 20.3242 55.2333 20.2983 55.2076 20.2603L55.1068 20.0946H54.9683C54.9051 20.0946 54.8298 20.0445 54.7922 19.9927L54.6794 19.815L54.4658 19.6113L54.3273 19.4456L54.2384 19.3178L53.9735 19.0261C53.9478 19.0002 53.9358 18.9623 53.9358 18.9364L53.8982 18.7965L53.835 18.6826C53.8094 18.6326 53.7974 18.5929 53.8093 18.5428L53.835 18.3529C53.847 18.2891 53.8982 18.2252 53.9615 18.1872L54.088 18.1234L54.3649 18.0215L54.6418 17.8437L54.8555 17.716L55.0059 17.5503C55.0316 17.5123 55.0948 17.4864 55.1324 17.4743L55.3085 17.4484L55.3204 17.4226C55.358 17.2948 55.4709 17.2448 55.5854 17.2569L55.7615 17.2827C55.8247 17.2948 55.8999 17.3328 55.9256 17.3967L56.0144 17.5745L56.1529 17.7143L56.1905 17.7902L56.2401 17.9421L56.5666 18.094L56.705 18.1441C56.7307 18.1562 56.7546 18.1562 56.7683 18.17L56.8948 18.2597L57.2469 18.4634L57.6742 18.2977H57.6999L57.864 18.2718L58.1289 18.1579L58.4059 18.006L58.4178 17.8282C58.4178 17.7781 58.4298 17.7384 58.4554 17.7005L58.6315 17.4968L58.6195 17.0273L58.4811 16.8236L58.4759 16.8253Z" fill="#FE5000"/>
</svg>
