<svg viewBox="0 0 142 29" fill="none" xmlns="http://www.w3.org/2000/svg">
<rect width="141.999" height="29" rx="14.5" fill="#7C492C"/>
<path d="M19.2054 18.5252C19.2054 19.1552 19.6954 19.7152 20.3394 19.7152C20.5494 19.7152 20.8014 19.6732 20.9834 19.5892C23.7554 18.3012 25.3234 16.4672 26.1774 14.4792H29.2574V19.1552C29.2574 19.8832 29.8174 20.4152 30.5174 20.4152C31.2174 20.4152 31.7774 19.8832 31.7774 19.1552V8.38917C31.7774 7.67517 31.2174 7.12917 30.5174 7.12917C29.8174 7.12917 29.2574 7.67517 29.2574 8.38917V12.4072H26.8214C27.0314 11.4132 27.1154 10.4052 27.1154 9.43917V8.66917C27.1154 8.12317 26.6814 7.68917 26.1354 7.68917H20.4514C19.8774 7.68917 19.4154 8.15117 19.4154 8.75317C19.4154 9.32717 19.8774 9.78917 20.4514 9.78917H24.5954C24.5954 13.0792 23.3774 15.6972 19.8774 17.4332C19.4854 17.6292 19.2054 18.0632 19.2054 18.5252ZM43.1874 19.1972C43.1874 19.8972 43.7334 20.4152 44.4054 20.4152C45.0914 20.4152 45.6374 19.8972 45.6374 19.1972V8.34717C45.6374 7.66117 45.0914 7.12917 44.4054 7.12917C43.7334 7.12917 43.1874 7.66117 43.1874 8.34717V12.2672H42.4034V8.40317C42.4034 7.73117 41.8714 7.19917 41.1854 7.19917C40.5274 7.19917 39.9814 7.73117 39.9814 8.40317V19.1412C39.9814 19.8272 40.5274 20.3452 41.1854 20.3452C41.8714 20.3452 42.4034 19.8272 42.4034 19.1412V14.3392H43.1874V19.1972ZM39.0014 8.65517C39.0014 8.12317 38.5674 7.68917 38.0354 7.68917H34.1434C33.5834 7.68917 33.1354 8.15117 33.1354 8.72517C33.1354 9.28517 33.5834 9.74717 34.1434 9.74717H36.5654V12.4632H34.1714C33.6394 12.4632 33.2054 12.8972 33.2054 13.4292V18.7492C33.2054 19.2812 33.6394 19.7152 34.1714 19.7152H34.8714C36.1454 19.7152 37.5034 19.6172 38.8474 19.1972C39.2954 19.0572 39.6314 18.6792 39.6314 18.2032C39.6314 17.6432 39.1694 17.1672 38.6094 17.1672C38.4554 17.1672 38.3154 17.2092 38.1894 17.2512C37.4194 17.5032 36.5514 17.6572 35.6414 17.6572V14.4512H38.0214C38.5674 14.4512 39.0014 14.0172 39.0014 13.4712V8.65517ZM50.5627 15.6832C50.5627 16.2432 51.0527 16.7332 51.6267 16.7332H55.7287V19.2952C55.7287 20.0092 56.2747 20.5552 56.9887 20.5552C57.7027 20.5552 58.2487 20.0092 58.2487 19.2952V16.7332H62.3647C62.9667 16.7332 63.4427 16.2432 63.4427 15.6832C63.4427 15.1092 62.9667 14.6332 62.3647 14.6332H51.6267C51.0527 14.6332 50.5627 15.1092 50.5627 15.6832ZM52.1867 13.5832C54.2307 13.3312 56.0647 12.5472 57.0027 11.0352C57.9267 12.5472 59.7747 13.3312 61.8187 13.5832C61.9307 13.5972 61.9867 13.5972 62.0427 13.5972C62.6307 13.5972 63.0927 13.1352 63.0927 12.5472C63.0927 12.0152 62.7287 11.5672 62.2107 11.5112C60.5867 11.3292 58.2627 10.2792 58.2627 8.58517V8.05317C58.2627 7.49317 57.7307 6.98917 57.0307 6.98917C56.3027 6.98917 55.7427 7.49317 55.7427 8.05317V8.58517C55.7427 10.2792 53.4187 11.3292 51.7947 11.5112C51.2767 11.5672 50.9127 12.0152 50.9127 12.5472C50.9127 13.1352 51.3747 13.5972 51.9627 13.5972C52.0187 13.5972 52.0747 13.5972 52.1867 13.5832ZM64.2827 15.6832C64.2827 16.2432 64.7727 16.7332 65.3467 16.7332H69.4487V19.2952C69.4487 20.0092 69.9947 20.5552 70.7087 20.5552C71.4227 20.5552 71.9687 20.0092 71.9687 19.2952V16.7332H76.0847C76.6867 16.7332 77.1627 16.2432 77.1627 15.6832C77.1627 15.1092 76.6867 14.6332 76.0847 14.6332H65.3467C64.7727 14.6332 64.2827 15.1092 64.2827 15.6832ZM65.9067 13.5832C67.9507 13.3312 69.7847 12.5472 70.7227 11.0352C71.6467 12.5472 73.4947 13.3312 75.5387 13.5832C75.6507 13.5972 75.7067 13.5972 75.7627 13.5972C76.3507 13.5972 76.8127 13.1352 76.8127 12.5472C76.8127 12.0152 76.4487 11.5672 75.9307 11.5112C74.3067 11.3292 71.9827 10.2792 71.9827 8.58517V8.05317C71.9827 7.49317 71.4507 6.98917 70.7507 6.98917C70.0227 6.98917 69.4627 7.49317 69.4627 8.05317V8.58517C69.4627 10.2792 67.1387 11.3292 65.5147 11.5112C64.9967 11.5672 64.6327 12.0152 64.6327 12.5472C64.6327 13.1352 65.0947 13.5972 65.6827 13.5972C65.7387 13.5972 65.7947 13.5972 65.9067 13.5832ZM81.0127 13.5272V12.4912H89.4127C89.9587 12.4912 90.3927 12.0712 90.3927 11.5252V8.58517C90.3927 8.05317 89.9587 7.61917 89.4267 7.61917H79.4167C78.8707 7.61917 78.4227 8.05317 78.4227 8.59917C78.4227 9.14517 78.8707 9.57917 79.4167 9.57917H87.8727V10.5872H79.4587C78.9267 10.5872 78.4927 10.9372 78.4927 11.4692V14.5212C78.4927 15.0532 78.9267 15.4872 79.4587 15.4872H89.5527C90.0987 15.4872 90.5327 15.0532 90.5327 14.5072C90.5327 13.9612 90.0987 13.5272 89.5527 13.5272H81.0127ZM78.0027 18.8892C78.0027 19.4492 78.4927 19.9252 79.0667 19.9252H89.8047C90.4067 19.9252 90.8827 19.4492 90.8827 18.8892C90.8827 18.3152 90.4067 17.8532 89.8047 17.8532H88.2647V16.9572C88.2647 16.2432 87.7187 15.9072 87.0047 15.9072C86.2907 15.9072 85.7447 16.2432 85.7447 16.9572V17.8532H83.1407V16.9572C83.1407 16.2432 82.5947 15.9072 81.8807 15.9072C81.1667 15.9072 80.6207 16.2432 80.6207 16.9572V17.8532H79.0667C78.4927 17.8532 78.0027 18.3152 78.0027 18.8892ZM95.9899 17.2232C95.9899 18.8332 97.2079 19.9252 98.8739 19.9252C100.54 19.9252 101.758 18.8332 101.758 17.2232V16.0752C101.842 16.5372 102.108 16.8732 102.626 16.8732H102.892V19.1412C102.892 19.8272 103.438 20.3452 104.096 20.3452C104.782 20.3452 105.314 19.8272 105.314 19.1412V8.40317C105.314 7.73117 104.782 7.19917 104.096 7.19917C103.438 7.19917 102.892 7.73117 102.892 8.40317V10.9372H102.626C102.01 10.9372 101.73 11.4272 101.73 12.0432C101.73 12.6592 102.01 13.1492 102.626 13.1492H102.892V14.6612H102.626C102.108 14.6612 101.842 14.9972 101.758 15.4592V13.9752C101.758 12.3652 100.54 11.2592 98.8739 11.2592C97.2079 11.2592 95.9899 12.3652 95.9899 13.9752V17.2232ZM105.902 19.1972C105.902 19.8972 106.448 20.4152 107.12 20.4152C107.806 20.4152 108.352 19.8972 108.352 19.1972V8.34717C108.352 7.66117 107.806 7.12917 107.12 7.12917C106.448 7.12917 105.902 7.66117 105.902 8.34717V19.1972ZM95.6399 9.71917C95.6399 10.3072 95.9899 10.7692 96.6059 10.7692H101.128C101.716 10.7692 102.108 10.3072 102.108 9.71917C102.108 9.13117 101.716 8.66917 101.128 8.66917H100.092V8.10917C100.092 7.39517 99.5739 6.98917 98.8739 6.98917C98.1739 6.98917 97.6559 7.39517 97.6559 8.10917V8.66917H96.6059C95.9899 8.66917 95.6399 9.14517 95.6399 9.71917ZM98.2719 13.9332C98.2719 13.5412 98.5099 13.2752 98.8739 13.2752C99.2379 13.2752 99.4759 13.5412 99.4759 13.9332V17.2652C99.4759 17.6432 99.2379 17.9092 98.8739 17.9092C98.5099 17.9092 98.2719 17.6432 98.2719 17.2652V13.9332ZM119.622 14.3812C119.622 15.0812 120.168 15.5992 120.84 15.5992C121.526 15.5992 122.072 15.0812 122.072 14.3812V8.34717C122.072 7.66117 121.526 7.12917 120.84 7.12917C120.168 7.12917 119.622 7.66117 119.622 8.34717V10.3352H118.838V8.40317C118.838 7.73117 118.306 7.19917 117.62 7.19917C116.962 7.19917 116.416 7.73117 116.416 8.40317V14.3252C116.416 15.0112 116.962 15.5292 117.62 15.5292C118.306 15.5292 118.838 15.0112 118.838 14.3252V12.2672H119.622V14.3812ZM122.072 17.2092C122.072 16.4812 121.498 16.0192 120.882 16.0192H111.082C110.536 16.0192 110.102 16.4532 110.102 16.9992C110.102 17.5452 110.536 17.9792 111.082 17.9792H119.552V19.2252C119.552 19.9252 120.112 20.4152 120.812 20.4152C121.512 20.4152 122.072 19.9252 122.072 19.2252V17.2092ZM112.076 11.8892H114.498C115.03 11.8892 115.436 11.5112 115.436 10.9792C115.436 10.4472 115.03 10.0692 114.498 10.0692H110.578C110.046 10.0692 109.64 10.4472 109.64 10.9792V14.1852C109.64 14.7172 110.046 15.0952 110.578 15.0952H111.306C112.678 15.0952 114.078 15.0392 115.338 14.7032C115.758 14.5912 116.066 14.2552 116.066 13.7932C116.066 13.2612 115.66 12.8692 115.128 12.8692C115.03 12.8692 114.918 12.8832 114.82 12.9112C113.938 13.1632 112.902 13.2332 112.076 13.2332V11.8892ZM114.638 9.35517C115.17 9.35517 115.576 8.94917 115.576 8.41717C115.576 7.88517 115.17 7.47917 114.638 7.47917H110.508C109.976 7.47917 109.57 7.88517 109.57 8.41717C109.57 8.94917 109.976 9.35517 110.508 9.35517H114.638Z" fill="white"/>
</svg>
