<svg viewBox="0 0 240 14" fill="none" xmlns="http://www.w3.org/2000/svg">
<path d="M1.75 8.45716C3.22 8.06516 4.48 7.25316 4.984 5.97916C5.474 7.26716 6.734 8.06516 8.218 8.45716C8.708 8.59716 9.254 8.20516 9.254 7.65916C9.254 7.28116 8.988 6.95916 8.638 6.86116C7.224 6.48316 5.95 5.44716 5.95 3.68316V3.16516H8.316C8.75 3.16516 9.114 2.80116 9.114 2.36716C9.114 1.93316 8.75 1.56916 8.316 1.56916H5.978V1.03716C5.978 0.533156 5.53 0.225156 4.984 0.225156C4.424 0.225156 3.99 0.533156 3.99 1.03716V1.56916H1.638C1.204 1.56916 0.854 1.93316 0.854 2.36716C0.854 2.80116 1.204 3.16516 1.638 3.16516H4.018V3.68316C4.018 5.44716 2.744 6.48316 1.33 6.86116C0.98 6.95916 0.714 7.28116 0.714 7.65916C0.714 8.19116 1.232 8.58316 1.75 8.45716ZM11.97 10.5432C12.516 10.5432 12.964 10.2352 12.964 9.68916V1.44316C12.964 0.911155 12.516 0.589155 11.97 0.589155C11.424 0.589155 10.976 0.911155 10.976 1.44316V9.68916C10.976 10.2352 11.424 10.5432 11.97 10.5432ZM12.53 13.5392C12.95 13.5392 13.3 13.1892 13.3 12.7692C13.3 12.3492 12.95 11.9992 12.53 11.9992H3.766V10.0532C3.766 9.50716 3.318 9.19916 2.758 9.19916C2.212 9.19916 1.764 9.50716 1.764 10.0532V12.6292C1.764 13.2172 2.086 13.5392 2.674 13.5392H12.53ZM24.99 6.76316C25.494 6.76316 25.872 6.49716 25.998 6.02116C26.348 4.67716 26.544 3.29116 26.614 1.96116C26.628 1.33116 26.348 0.995156 25.746 0.995156H15.974C15.54 0.995156 15.19 1.34516 15.19 1.77916C15.19 2.21316 15.54 2.56316 15.974 2.56316H24.598C24.542 3.62716 24.36 4.73316 24.08 5.79716C23.954 6.35716 24.416 6.76316 24.99 6.76316ZM20.958 13.7912C21.504 13.7912 21.952 13.4272 21.952 12.8812V9.05916H26.67C27.118 9.05916 27.482 8.69516 27.482 8.24716C27.482 7.79916 27.118 7.43516 26.67 7.43516H15.33C14.896 7.43516 14.518 7.79916 14.518 8.24716C14.518 8.69516 14.896 9.05916 15.33 9.05916H19.964V12.8812C19.964 13.4272 20.412 13.7912 20.958 13.7912ZM40.194 5.65716C40.53 5.65716 40.81 5.37716 40.81 5.02716C40.81 4.69116 40.53 4.41116 40.194 4.41116H31.304V3.79516H39.872C40.362 3.79516 40.642 3.51516 40.642 3.01116V1.59716C40.642 1.09316 40.362 0.813156 39.872 0.813156H29.932C29.596 0.813156 29.302 1.09316 29.302 1.44316C29.302 1.77916 29.596 2.07316 29.932 2.07316H38.696V2.63316H30.142C29.638 2.63316 29.358 2.91316 29.358 3.41716V4.88716C29.358 5.39116 29.638 5.65716 30.142 5.65716H40.194ZM40.782 7.78516C41.16 7.78516 41.482 7.47716 41.482 7.07116C41.482 6.69316 41.16 6.37116 40.782 6.37116H29.218C28.84 6.37116 28.518 6.69316 28.518 7.07116C28.518 7.47716 28.84 7.78516 29.218 7.78516H40.782ZM40.32 13.5392C40.67 13.5392 40.95 13.2592 40.95 12.9092C40.95 12.5592 40.67 12.2792 40.32 12.2792H31.304V11.5932H39.872C40.362 11.5932 40.642 11.3132 40.642 10.8092V9.29716C40.642 8.79316 40.362 8.51316 39.872 8.51316H29.932C29.596 8.51316 29.302 8.79316 29.302 9.14316C29.302 9.49316 29.596 9.75916 29.932 9.75916H38.696V10.4032H30.142C29.638 10.4032 29.358 10.6832 29.358 11.1732V12.7692C29.358 13.2732 29.638 13.5392 30.142 13.5392H40.32ZM48.0873 8.80716C50.5793 8.52716 52.4553 7.25316 53.1973 5.81116C53.9393 7.25316 55.8153 8.51316 58.3073 8.80716C58.7833 8.86316 59.2033 8.47116 59.2033 8.00916C59.2033 7.58916 58.8953 7.26716 58.5033 7.21116C56.2493 6.93116 54.2753 5.41916 54.1913 3.71116V3.24916H58.2793C58.7133 3.24916 59.0633 2.88516 59.0633 2.45116C59.0633 2.01716 58.7133 1.66716 58.2793 1.66716H54.1913V1.07916C54.1913 0.589155 53.7573 0.323156 53.1973 0.323156C52.6513 0.323156 52.2173 0.589155 52.2173 1.07916V1.66716H48.1293C47.6953 1.66716 47.3313 2.01716 47.3313 2.45116C47.3313 2.88516 47.6813 3.24916 48.1153 3.24916H52.1893V3.71116C52.1193 5.41916 50.1593 6.93116 47.8913 7.21116C47.4993 7.26716 47.1913 7.58916 47.1913 8.00916C47.1913 8.48516 47.6113 8.86316 48.0873 8.80716ZM58.8673 13.2172C59.3153 13.2172 59.6793 12.8672 59.6793 12.4052C59.6793 11.9572 59.3153 11.5932 58.8673 11.5932H54.1773V9.42316C54.1773 8.87716 53.7433 8.48516 53.1973 8.48516C52.6513 8.48516 52.2173 8.87716 52.2173 9.42316V11.5932H47.5273C47.0933 11.5932 46.7153 11.9572 46.7153 12.4052C46.7153 12.8672 47.0933 13.2172 47.5273 13.2172H58.8673ZM72.4613 13.6512C72.9653 13.6512 73.3573 13.3292 73.3573 12.8392V1.40116C73.3573 0.911155 72.9653 0.589155 72.4613 0.589155C71.9573 0.589155 71.5513 0.911155 71.5513 1.40116V5.83916H69.9273V1.38716C69.9273 0.897156 69.5353 0.589155 69.0593 0.589155C68.5553 0.589155 68.1633 0.897156 68.1633 1.38716V12.8532C68.1633 13.3432 68.5553 13.6512 69.0593 13.6512C69.5353 13.6512 69.9273 13.3432 69.9273 12.8532V7.47716H71.5513V12.8392C71.5513 13.3292 71.9573 13.6512 72.4613 13.6512ZM62.1433 12.9792C63.6693 12.9512 65.1953 12.7832 66.7913 12.4472C67.1553 12.3772 67.4353 12.0552 67.4353 11.6632C67.4353 11.1732 66.9733 10.7812 66.4973 10.8792C65.3353 11.1732 64.1173 11.3552 63.0813 11.3692V2.80116H66.2733C66.7073 2.80116 67.0573 2.45116 67.0573 2.01716C67.0573 1.58316 66.7073 1.21916 66.2733 1.21916H62.1293C61.5693 1.21916 61.2613 1.54116 61.2613 2.10116V12.1252C61.2613 12.6992 61.5833 12.9932 62.1433 12.9792ZM82.0233 3.97716C82.4573 3.97716 82.8213 3.61316 82.8213 3.17916C82.8213 2.74516 82.4573 2.39516 82.0233 2.39516H79.8393V1.20516C79.8393 0.729156 79.4193 0.421156 78.8593 0.421156C78.3133 0.421156 77.8793 0.729156 77.8793 1.20516V2.39516H75.6953C75.2613 2.39516 74.9113 2.74516 74.9113 3.17916C74.9113 3.61316 75.2753 3.97716 75.7093 3.97716H82.0233ZM85.7053 13.6512C86.2513 13.6512 86.6853 13.2872 86.6853 12.7552V7.49116H87.7353C88.1973 7.49116 88.4913 7.11316 88.4913 6.65116C88.4913 6.18916 88.1973 5.81116 87.7353 5.81116H86.6853V1.47116C86.6853 0.953156 86.2513 0.589155 85.7053 0.589155C85.1733 0.589155 84.7253 0.953156 84.7253 1.47116V12.7552C84.7253 13.2872 85.1733 13.6512 85.7053 13.6512ZM78.8593 13.2172C80.9313 13.2172 82.5133 12.0132 82.5133 10.0252V7.95316C82.5133 5.97916 80.9313 4.76116 78.8593 4.76116C76.8013 4.76116 75.2053 5.97916 75.2053 7.95316V10.0252C75.2053 12.0132 76.8013 13.2172 78.8593 13.2172ZM78.8733 11.7052C77.8933 11.7052 77.0813 11.0892 77.0813 10.0252V7.98116C77.0813 6.90316 77.8933 6.28716 78.8733 6.28716C79.8393 6.28716 80.6653 6.90316 80.6653 7.98116V10.0252C80.6653 11.0892 79.8393 11.7052 78.8733 11.7052ZM95.5473 8.03716C96.1073 8.03716 96.4153 7.72916 96.4153 7.16916V6.70716H99.2573V9.39516C99.2573 9.92716 99.6913 10.2352 100.237 10.2352C100.783 10.2352 101.217 9.92716 101.217 9.39516V1.44316C101.217 0.897156 100.783 0.589155 100.237 0.589155C99.6913 0.589155 99.2573 0.897156 99.2573 1.44316V2.24116H96.4153V1.83516C96.4153 1.27516 96.1073 0.967156 95.5473 0.967156H90.1293C89.5693 0.967156 89.2613 1.27516 89.2613 1.83516V7.16916C89.2613 7.72916 89.5693 8.03716 90.1293 8.03716H95.5473ZM94.5113 2.49316V6.51116H91.1793V2.49316H94.5113ZM99.2573 5.25116H96.4153V3.71116H99.2573V5.25116ZM91.8793 11.9852V9.91316C91.8793 9.36716 91.4453 9.05916 90.8993 9.05916C90.3533 9.05916 89.9053 9.36716 89.9053 9.91316V12.6292C89.9053 13.2172 90.2273 13.5392 90.8153 13.5392H100.783C101.203 13.5392 101.567 13.1892 101.567 12.7692C101.567 12.3352 101.203 11.9852 100.783 11.9852H91.8793ZM108.145 8.45716C109.615 8.06516 110.875 7.25316 111.379 5.97916C111.869 7.26716 113.129 8.06516 114.613 8.45716C115.103 8.59716 115.649 8.20516 115.649 7.65916C115.649 7.28116 115.383 6.95916 115.033 6.86116C113.619 6.48316 112.345 5.44716 112.345 3.68316V3.16516H114.711C115.145 3.16516 115.509 2.80116 115.509 2.36716C115.509 1.93316 115.145 1.56916 114.711 1.56916H112.373V1.03716C112.373 0.533156 111.925 0.225156 111.379 0.225156C110.819 0.225156 110.385 0.533156 110.385 1.03716V1.56916H108.033C107.599 1.56916 107.249 1.93316 107.249 2.36716C107.249 2.80116 107.599 3.16516 108.033 3.16516H110.413V3.68316C110.413 5.44716 109.139 6.48316 107.725 6.86116C107.375 6.95916 107.109 7.28116 107.109 7.65916C107.109 8.19116 107.627 8.58316 108.145 8.45716ZM118.365 10.5432C118.911 10.5432 119.359 10.2352 119.359 9.68916V1.44316C119.359 0.911155 118.911 0.589155 118.365 0.589155C117.819 0.589155 117.371 0.911155 117.371 1.44316V9.68916C117.371 10.2352 117.819 10.5432 118.365 10.5432ZM118.925 13.5392C119.345 13.5392 119.695 13.1892 119.695 12.7692C119.695 12.3492 119.345 11.9992 118.925 11.9992H110.161V10.0532C110.161 9.50716 109.713 9.19916 109.153 9.19916C108.607 9.19916 108.159 9.50716 108.159 10.0532V12.6292C108.159 13.2172 108.481 13.5392 109.069 13.5392H118.925ZM131.385 6.76316C131.889 6.76316 132.267 6.49716 132.393 6.02116C132.743 4.67716 132.939 3.29116 133.009 1.96116C133.023 1.33116 132.743 0.995156 132.141 0.995156H122.369C121.935 0.995156 121.585 1.34516 121.585 1.77916C121.585 2.21316 121.935 2.56316 122.369 2.56316H130.993C130.937 3.62716 130.755 4.73316 130.475 5.79716C130.349 6.35716 130.811 6.76316 131.385 6.76316ZM127.353 13.7912C127.899 13.7912 128.347 13.4272 128.347 12.8812V9.05916H133.065C133.513 9.05916 133.877 8.69516 133.877 8.24716C133.877 7.79916 133.513 7.43516 133.065 7.43516H121.725C121.291 7.43516 120.913 7.79916 120.913 8.24716C120.913 8.69516 121.291 9.05916 121.725 9.05916H126.359V12.8812C126.359 13.4272 126.807 13.7912 127.353 13.7912ZM146.477 7.95316C146.911 7.95316 147.275 7.60316 147.275 7.15516C147.275 6.72116 146.911 6.35716 146.477 6.35716H137.727V2.57716H146.351C146.785 2.57716 147.135 2.21316 147.135 1.77916C147.135 1.34516 146.785 0.995156 146.351 0.995156H136.621C136.061 0.995156 135.753 1.28916 135.753 1.86316V7.08516C135.753 7.64516 136.061 7.95316 136.621 7.95316H146.477ZM147.065 13.2172C147.513 13.2172 147.877 12.8672 147.877 12.4052C147.877 11.9572 147.513 11.5932 147.065 11.5932H142.389V9.39516C142.389 8.86316 141.955 8.54116 141.395 8.54116C140.849 8.54116 140.401 8.86316 140.401 9.39516V11.5932H135.725C135.291 11.5932 134.913 11.9572 134.913 12.4052C134.913 12.8672 135.291 13.2172 135.725 13.2172H147.065ZM163.764 13.6512C164.324 13.6512 164.744 13.2872 164.744 12.7552V7.43516H166.13C166.592 7.43516 166.886 7.05716 166.886 6.59516C166.886 6.13316 166.592 5.75516 166.13 5.75516H164.744V1.47116C164.744 0.953156 164.324 0.589155 163.764 0.589155C163.218 0.589155 162.784 0.953156 162.784 1.47116V12.7552C162.784 13.2872 163.218 13.6512 163.764 13.6512ZM154.874 12.9232C156.932 12.8672 158.99 12.6712 161.048 12.2372C161.524 12.1392 161.832 11.8172 161.832 11.3692C161.832 10.8792 161.44 10.4452 160.908 10.5712C159.186 10.9632 157.268 11.1872 155.728 11.2432V1.93316C155.728 1.41516 155.308 1.05116 154.748 1.05116C154.202 1.05116 153.768 1.41516 153.768 1.93316V11.9152C153.768 12.6152 154.174 12.9512 154.874 12.9232ZM178.674 7.95316C179.108 7.95316 179.472 7.60316 179.472 7.15516C179.472 6.72116 179.108 6.35716 178.674 6.35716H169.924V2.57716H178.548C178.982 2.57716 179.332 2.21316 179.332 1.77916C179.332 1.34516 178.982 0.995156 178.548 0.995156H168.818C168.258 0.995156 167.95 1.28916 167.95 1.86316V7.08516C167.95 7.64516 168.258 7.95316 168.818 7.95316H178.674ZM179.262 13.2172C179.71 13.2172 180.074 12.8672 180.074 12.4052C180.074 11.9572 179.71 11.5932 179.262 11.5932H174.586V9.39516C174.586 8.86316 174.152 8.54116 173.592 8.54116C173.046 8.54116 172.598 8.86316 172.598 9.39516V11.5932H167.922C167.488 11.5932 167.11 11.9572 167.11 12.4052C167.11 12.8672 167.488 13.2172 167.922 13.2172H179.262ZM188.681 1.58316C188.681 1.02316 188.359 0.673156 187.771 0.673156C187.281 0.673156 187.029 0.855155 186.749 1.27516C186.567 1.54116 186.231 1.82116 185.727 1.90516C185.447 1.96116 185.125 2.17116 185.125 2.64716C185.125 3.06716 185.419 3.37516 185.811 3.37516H186.777V12.5452C186.777 13.1052 187.155 13.5392 187.729 13.5392C188.303 13.5392 188.681 13.1052 188.681 12.5452V1.58316ZM191.737 7.14116C194.271 6.88916 196.189 5.67116 196.889 4.18716C197.589 5.67116 199.507 6.88916 202.041 7.14116C202.503 7.19716 202.895 6.83316 202.895 6.37116C202.895 5.96516 202.587 5.62916 202.195 5.60116C199.647 5.33516 198.065 3.76716 197.939 2.61916H201.971C202.405 2.61916 202.755 2.26916 202.755 1.83516C202.755 1.40116 202.405 1.05116 201.971 1.05116H191.807C191.373 1.05116 191.023 1.40116 191.023 1.83516C191.023 2.26916 191.373 2.61916 191.807 2.61916H195.825C195.727 3.76716 194.131 5.33516 191.583 5.60116C191.191 5.62916 190.883 5.96516 190.883 6.37116C190.883 6.83316 191.289 7.19716 191.737 7.14116ZM196.889 13.7912C197.449 13.7912 197.883 13.4272 197.883 12.8812V9.77316H202.587C203.021 9.77316 203.371 9.42316 203.371 8.98916C203.371 8.55516 203.021 8.20516 202.587 8.20516H191.191C190.757 8.20516 190.407 8.55516 190.407 8.98916C190.407 9.42316 190.757 9.77316 191.191 9.77316H195.895V12.8812C195.895 13.4272 196.343 13.7912 196.889 13.7912ZM215.971 8.59716C216.503 8.59716 216.937 8.28916 216.937 7.77116V1.41516C216.937 0.897156 216.503 0.589155 215.971 0.589155C215.425 0.589155 215.005 0.897156 215.005 1.41516V7.77116C215.005 8.28916 215.425 8.59716 215.971 8.59716ZM213.031 7.82716C213.493 7.82716 213.871 7.47716 213.871 7.01516C213.871 6.74916 213.717 6.53916 213.563 6.35716C212.961 5.72716 212.233 4.77516 212.233 3.05316V1.54116C212.233 1.06516 211.855 0.771156 211.365 0.771156C210.889 0.771156 210.497 1.06516 210.497 1.54116V3.05316C210.497 4.74716 209.993 5.57316 209.167 6.27316C208.341 5.57316 207.837 4.74716 207.837 3.05316V1.54116C207.837 1.06516 207.459 0.771156 206.983 0.771156C206.493 0.771156 206.115 1.06516 206.115 1.54116V3.05316C206.115 4.78916 205.401 5.71316 204.785 6.35716C204.631 6.53916 204.491 6.74916 204.491 7.01516C204.491 7.47716 204.869 7.81316 205.317 7.81316C205.541 7.81316 205.709 7.72916 205.835 7.60316C206.339 7.19716 206.787 6.55316 206.983 5.82516C207.249 6.62316 207.809 7.22516 208.495 7.68716C208.929 8.00916 209.391 8.02316 209.853 7.67316C210.539 7.22516 211.085 6.62316 211.351 5.82516C211.547 6.55316 212.023 7.19716 212.513 7.61716C212.639 7.75716 212.807 7.82716 213.031 7.82716ZM215.943 13.6792C216.503 13.6792 216.937 13.3712 216.937 12.8252V9.99716C216.937 9.40916 216.615 9.08716 216.027 9.08716H206.115C205.695 9.08716 205.359 9.42316 205.359 9.84316C205.359 10.2492 205.695 10.5992 206.115 10.5992H214.949V12.8252C214.949 13.3712 215.397 13.6792 215.943 13.6792ZM223.78 8.42916C225.74 8.19116 227.504 7.28116 228.4 5.25116H230.584V7.40716C230.584 7.89716 230.976 8.19116 231.466 8.19116C231.956 8.19116 232.334 7.89716 232.334 7.40716V1.37316C232.334 0.897156 231.956 0.589155 231.466 0.589155C230.976 0.589155 230.584 0.897156 230.584 1.37316V3.66916H228.848C228.946 3.16516 228.988 2.60516 228.988 1.98916V1.79316C228.988 1.26116 228.694 0.967156 228.148 0.967156H223.766C223.346 0.967156 222.996 1.30316 222.996 1.72316C222.996 2.14316 223.346 2.49316 223.766 2.49316H227.196C227.196 5.13916 225.866 6.60916 223.584 6.91716C223.22 6.97316 222.926 7.28116 222.926 7.67316C222.926 8.13516 223.332 8.48516 223.78 8.42916ZM234.364 8.84916C234.854 8.84916 235.246 8.54116 235.246 8.06516V1.38716C235.246 0.911155 234.854 0.589155 234.364 0.589155C233.874 0.589155 233.482 0.911155 233.482 1.38716V8.06516C233.482 8.54116 233.874 8.84916 234.364 8.84916ZM235.036 11.9572C232.18 11.8032 230.626 10.6692 230.626 9.52116V9.15716C230.626 8.68116 230.192 8.37316 229.632 8.37316C229.086 8.37316 228.638 8.68116 228.638 9.15716V9.52116C228.638 10.6692 227.084 11.8032 224.228 11.9572C223.836 11.9852 223.5 12.3352 223.5 12.7412C223.5 13.1892 223.892 13.5532 224.326 13.5252C227.224 13.3712 228.904 12.3912 229.632 11.2992C230.374 12.3912 232.026 13.3712 234.938 13.5252C235.386 13.5532 235.764 13.1892 235.764 12.7412C235.764 12.3352 235.442 11.9852 235.036 11.9572ZM237.304 9.11516C237.332 9.68916 237.696 10.0392 238.186 10.0392C238.676 10.0392 239.04 9.68916 239.054 9.11516L239.152 6.06316V1.48516C239.152 0.911155 238.732 0.547156 238.186 0.547156C237.626 0.547156 237.206 0.911155 237.206 1.48516V6.06316L237.304 9.11516ZM238.396 13.3572C238.816 13.3572 239.124 13.0632 239.124 12.6432V12.1952C239.124 11.7752 238.816 11.4672 238.396 11.4672H237.948C237.528 11.4672 237.234 11.7752 237.234 12.1952V12.6432C237.234 13.0632 237.528 13.3572 237.948 13.3572H238.396Z" fill="#424242"/>
</svg>
