<svg viewBox="0 0 80 29" fill="none" xmlns="http://www.w3.org/2000/svg">
<rect width="80" height="29" rx="14.5" fill="#FFEBE0"/>
<path d="M22.5789 10.954L22.2131 11.1439L22.0627 11.2578L21.8234 11.4235L21.9242 12.0087C21.9738 12.0346 22.0131 12.1105 22.0131 12.1744V12.3021L22.2268 12.4419L22.567 12.6076L22.7311 12.6715C22.743 12.6836 22.7687 12.6836 22.7943 12.7095L22.9208 12.8372L23.1345 12.9011C23.1721 12.9131 23.1977 12.927 23.2216 12.9649L23.3857 13.1427L23.8507 13.3965L24.2148 13.4983L24.4165 13.5363C24.4285 13.5363 24.4541 13.5363 24.4661 13.5484L24.6541 13.6502L24.7037 13.6761L24.8797 13.8539L25.1191 13.8919C25.131 13.8919 25.1447 13.8919 25.1567 13.9039L25.3327 13.9678C25.3447 13.9799 25.3703 13.9799 25.396 14.0058L25.5601 14.1577L25.7994 14.4252L25.9378 14.5271C25.9498 14.5271 25.9635 14.553 25.9635 14.553L26.0763 14.6548L26.2524 14.8447L26.29 14.9206L26.3532 15.0984L26.466 15.3781L26.5293 15.5558L26.6421 15.6698C26.6917 15.7198 26.7173 15.8096 26.6917 15.8993L26.6045 16.2049L26.7173 16.3447C26.7549 16.3947 26.7669 16.4586 26.7549 16.5104L26.7293 16.6122L26.7036 17.1974L26.678 17.4011C26.678 17.427 26.666 17.439 26.666 17.4511L26.5908 17.6168V17.7946C26.5908 17.8067 26.5908 17.8447 26.5789 17.8585L26.5156 18.0484L26.3652 18.3919C26.3652 18.4039 26.3532 18.4177 26.3395 18.4298L26.2643 18.5438L26.2011 18.7215C26.1754 18.7716 26.1259 18.8234 26.0746 18.8493L25.9105 18.9252L25.8216 19.1548C25.8096 19.2049 25.772 19.2308 25.7464 19.2566L25.6336 19.3205L25.4575 19.4103L25.2062 19.5501L24.9789 19.7158L24.9293 19.7917C24.8917 19.8418 24.8028 19.8677 24.7413 19.8677L24.5396 19.8556L24.4268 19.9695C24.3891 20.0075 24.3259 20.0196 24.2763 20.0196H24.1259L23.9242 20.1076C23.9122 20.1197 23.8746 20.1197 23.861 20.1197L23.3071 20.1577L22.6661 20.2336L22.6029 20.2215L22.3259 20.1715L22.0371 20.0955L21.873 20.0696C21.861 20.0696 21.8234 20.0576 21.8097 20.0438L21.6969 19.9799L21.5328 20.0299C21.4832 20.042 21.4319 20.042 21.3824 20.0179L21.0798 19.866L20.9789 19.79L20.714 19.6882L20.2867 19.4983C20.261 19.4862 20.249 19.4862 20.2234 19.4603L20.1106 19.3585L19.9226 19.2066C19.9106 19.1945 19.8969 19.1945 19.8969 19.1945L19.6952 18.9787C19.6952 18.9787 19.6696 18.9787 19.6696 18.9667L19.5567 18.7889L19.3927 18.5213L19.1653 18.4074L19.1157 18.3694L19.0662 18.3194C19.0166 18.2693 18.9909 18.2054 19.0029 18.1416L19.0286 17.9258C19.0405 17.824 19.0918 17.7359 19.155 17.7221L19.2559 17.71L19.432 17.5064C19.4576 17.4684 19.4952 17.4563 19.5209 17.4425L19.7345 17.3786L19.8097 17.2509C19.8354 17.2008 19.8969 17.1629 19.9482 17.1491L20.1499 17.1111L20.2627 16.9713C20.2884 16.9454 20.326 16.9212 20.3636 16.9074L20.5396 16.8573L20.6405 16.7555C20.7037 16.6795 20.779 16.6416 20.8285 16.6657L20.8661 16.6778C20.8918 16.6899 20.9294 16.7158 20.9413 16.7417L21.0918 16.9316L21.2678 17.1352L21.4815 17.1732C21.5191 17.1853 21.5824 17.1991 21.608 17.2371L21.6969 17.351L21.873 17.439L22.1499 17.553L22.4268 17.603C22.4388 17.603 22.4524 17.6289 22.4644 17.6289L22.6029 17.6928L23.2199 17.8326L23.5225 17.7308L23.5977 17.6427C23.6097 17.6168 23.6473 17.5927 23.6729 17.5789L23.9994 17.427L24.2387 17.1594L24.2131 16.6381L24.1122 16.4862L23.861 16.3084L23.6849 16.1565L23.6473 16.1065L23.5584 15.9546L23.3191 15.9045C23.2695 15.8924 23.2182 15.8665 23.1926 15.8286L23.1293 15.7388L22.89 15.6629L22.5003 15.561L22.0969 15.4091C22.0712 15.397 22.0473 15.3832 22.0217 15.3591L21.8336 15.1433L21.5943 15.0535H21.5687C21.4935 15.0535 21.4183 15.0276 21.3807 14.9638L21.2542 14.7981L21.0029 14.786C20.9653 14.786 20.914 14.786 20.8764 14.748L20.7755 14.6721L20.7379 14.622L20.6251 14.4321L20.4234 14.2026L20.2593 14.1266C20.2473 14.1145 20.2217 14.1145 20.2097 14.0886L19.9961 13.8591L19.8456 13.6692L19.6696 13.4275L19.632 13.4016C19.5824 13.3637 19.5431 13.3119 19.5431 13.2359L19.5311 12.9822L19.4815 12.7285L19.3944 12.6784C19.3448 12.6404 19.3055 12.5886 19.2935 12.5127L19.2679 12.2831C19.2679 12.2331 19.2798 12.2072 19.2935 12.1692L19.3568 12.0415L19.2679 11.6738C19.2559 11.6358 19.2559 11.584 19.2679 11.5461L19.3687 11.3165L19.3568 11.011V10.9471L19.3824 10.8832L19.42 10.8073L19.6217 10.5656L19.7089 10.3878L19.7841 10.0961C19.7841 10.0702 19.7961 10.0323 19.8097 10.0202L19.8593 9.94422L20.0354 9.65251C20.0473 9.62661 20.061 9.61453 20.0986 9.58864L20.1858 9.53858C20.1978 9.53858 20.1978 9.5265 20.2114 9.51269L20.3875 9.44882L20.6268 9.27103L20.6644 9.16919C20.6901 9.09324 20.7533 9.05527 20.8148 9.04146L20.9533 9.01557L21.2183 8.77391C21.2302 8.76183 21.2439 8.74802 21.2559 8.74802L21.3191 8.71004C21.3687 8.67207 21.42 8.67207 21.4695 8.68415L21.6336 8.72213L21.8217 8.59439C21.8712 8.55642 21.9482 8.54434 21.9977 8.55642L22.1618 8.60648L22.3755 8.53053L22.6644 8.48047C22.69 8.48047 22.702 8.49255 22.7276 8.49255L23.2063 8.58231H23.5088L23.9994 8.62028H24.1755C24.2644 8.62028 24.3396 8.67034 24.3772 8.73421L24.4268 8.83605H24.678C24.69 8.83605 24.7037 8.83605 24.7276 8.84813L25.0045 8.92408L25.0302 8.93616L25.1686 9.00003L25.2062 9.03801L25.4831 9.26758L25.6592 9.44537L25.772 9.5731L26.0113 9.75089C26.037 9.77679 26.0609 9.80095 26.0746 9.84065L26.1002 9.90452L26.3019 9.99255C26.3515 10.0184 26.4148 10.0564 26.4284 10.1203L26.478 10.286L26.5789 10.4638C26.6045 10.5018 26.6284 10.5656 26.6165 10.6157L26.5669 10.8573C26.5549 10.9471 26.5036 11.0092 26.4284 11.0351L26.2011 11.1111L25.8609 11.3786L25.6968 11.5564C25.6849 11.5823 25.6592 11.5944 25.6336 11.6065L25.331 11.7204L25.2678 11.8481L25.2302 11.8982L25.1549 11.9621C25.1054 12.0121 25.0165 12.038 24.9413 12.0121L24.7396 11.9482C24.7139 11.9362 24.6763 11.9224 24.6507 11.8982L24.5379 11.7843C24.5003 11.7463 24.4883 11.7204 24.4746 11.6703L24.437 11.4166L24.0968 11.2388L23.9464 11.1749L23.7823 11.0852C23.7704 11.0852 23.7567 11.0731 23.7447 11.0593L23.5686 10.8936L23.1789 10.8435L22.6627 10.9713L22.5755 10.9592L22.5789 10.954Z" fill="#FE5000"/>
<path d="M34.6723 10.7886L34.5971 10.8905L34.5475 11.0303C34.5219 11.1201 34.4211 11.158 34.3339 11.158H34.1834C34.1578 11.158 34.1202 11.158 34.0963 11.146L33.8689 11.0441L33.8057 11.0821C33.7681 11.0942 33.7168 11.108 33.6792 11.108L33.339 11.07C33.3271 11.07 33.3134 11.0579 33.3014 11.0579L33.2518 11.032L33.0006 11.0959C32.9749 11.108 32.9117 11.108 32.8877 11.0959L32.6604 11.0199L32.3202 11.1718L32.3083 11.1839C32.2963 11.1839 32.2826 11.1839 32.2707 11.196L32.3459 11.4118C32.3715 11.4756 32.3715 11.5257 32.3459 11.5775L32.3083 11.6414L32.2707 12.0608L32.2963 12.1247C32.3083 12.1367 32.3219 12.1747 32.3219 12.2006L32.3476 12.4164V12.784L32.31 13.0378L32.3219 13.1517V13.2277L32.2587 13.5573L32.3083 13.6074C32.3459 13.6454 32.3715 13.6954 32.3715 13.7731L32.3595 14.0148L32.3476 14.2305L32.3852 14.3703C32.3852 14.3824 32.3972 14.3962 32.3972 14.4204L32.4228 14.8278V14.9555C32.4228 14.9676 32.4108 14.9814 32.4108 14.9935L32.3613 15.299L32.3356 15.5407L32.3852 15.8324L32.4108 16.0102V16.1759C32.4108 16.2138 32.3989 16.2259 32.3852 16.2518L32.2587 16.5194L32.2843 16.6471C32.2843 16.673 32.2963 16.6851 32.2963 16.6972V16.9388L32.3083 17.2685V17.3186L32.2963 17.4584L32.3219 17.7L32.3595 17.9797C32.3715 18.0297 32.3595 18.0815 32.3339 18.1316L32.2707 18.2455L32.2826 18.4492L32.3459 18.7409V18.8289L32.2963 19.0447L32.3339 19.2104V19.3002L32.2843 19.5677L32.2587 19.7075C32.2587 19.7196 32.2467 19.7334 32.2467 19.7455L32.1972 19.8732C32.1596 20.001 32.0587 20.0769 31.9578 20.051L31.8074 20.013C31.7955 20.013 31.7818 20.013 31.7698 20.001L31.657 19.9509L31.3544 20.001L31.204 20.0648C31.1664 20.0907 31.1408 20.0907 31.1032 20.0907L30.8758 20.0786H30.6878C30.6245 20.0786 30.5613 20.0665 30.5237 20.0148L30.4485 19.9388L30.1596 20.0148L30.0724 20.0268C30.0228 20.0389 29.9716 20.0268 29.922 19.9889L29.8468 19.925C29.7083 19.8232 29.6451 19.7351 29.6827 19.6834L29.7579 19.5953L29.7835 19.2259L29.7459 19.0102L29.7203 18.7806C29.7203 18.7426 29.7322 18.7167 29.7459 18.6787L29.7955 18.5769L29.7698 18.2714L29.7203 18.1437C29.7083 18.0936 29.7083 18.0539 29.7203 18.0038L29.7955 17.814L29.7459 17.4463L29.6827 17.3445C29.6451 17.2806 29.6451 17.2167 29.6707 17.1667L29.7083 17.0769L29.7203 16.8094L29.7459 16.4279L29.6963 16.326C29.6707 16.2881 29.6844 16.2242 29.6963 16.1741L29.7459 16.0222V15.6546L29.7083 15.4889C29.6963 15.425 29.7083 15.3991 29.734 15.3491L29.7716 15.2852L29.6707 14.9935C29.6587 14.9676 29.6587 14.9555 29.6587 14.9175L29.6707 14.7898L29.6963 14.4083L29.6707 14.3583C29.6587 14.3203 29.6331 14.2823 29.6451 14.2305L29.7083 13.9388L29.6707 13.7869C29.6587 13.7489 29.6587 13.711 29.6707 13.673L29.7203 13.5453L29.7083 13.2156C29.7083 13.1655 29.7203 13.1258 29.7459 13.0878L29.7955 13.024L29.6451 12.7564C29.6194 12.7064 29.6075 12.6667 29.6194 12.6287L29.669 12.387L29.6314 12.1972C29.6314 12.1592 29.6314 12.1212 29.6434 12.0953L29.7186 11.9054L29.6297 11.7656C29.6177 11.7277 29.6177 11.7018 29.6177 11.6759V11.524C29.6177 11.4601 29.6434 11.3842 29.6929 11.3462L29.7818 11.2823L29.7322 11.0924H29.6194L29.481 11.1684C29.4553 11.1805 29.4177 11.1943 29.3938 11.1943H29.1049C29.0673 11.1943 29.0417 11.1943 29.004 11.1684L28.8776 11.0924L28.5887 11.0165L28.5511 11.0545C28.5015 11.0924 28.4382 11.1045 28.375 11.0924L28.1237 11.0286H27.8348C27.734 11.1183 27.5955 11.1045 27.546 11.0027L27.4451 10.8508C27.4451 10.8387 27.4331 10.8128 27.4331 10.8128L27.3955 10.7231C27.3699 10.6592 27.3699 10.6212 27.3955 10.5573L27.4588 10.4296L27.4212 10.1379L27.3836 9.89624V9.85827L27.3955 9.60453C27.3955 9.59245 27.4075 9.56655 27.4075 9.56655L27.4451 9.42674L27.3186 9.13502C27.3066 9.10913 27.3066 9.08497 27.3066 9.05907V9.0211C27.3066 8.94515 27.3323 8.8692 27.3938 8.83123L27.5818 8.69141C27.5938 8.69141 27.6075 8.69141 27.6195 8.67933L27.7459 8.62927C27.7716 8.61719 27.8092 8.61719 27.8348 8.61719H28.0998C28.1254 8.61719 28.163 8.61719 28.2006 8.64308L28.428 8.77081L28.5169 8.69486C28.5664 8.64481 28.6673 8.631 28.7305 8.65689L28.8434 8.69486L29.2092 8.77081L29.2468 8.73284C29.2844 8.69486 29.3596 8.68278 29.4109 8.68278L29.6622 8.69486L29.7374 8.66897C29.7869 8.64308 29.8382 8.64308 29.8758 8.65689L30.1527 8.72075L30.2912 8.68278C30.3032 8.68278 30.3168 8.6707 30.3288 8.6707L30.6177 8.64481L30.9322 8.65689C30.9579 8.65689 30.9818 8.66897 30.9955 8.68278L31.2348 8.77254L31.4228 8.76046L31.7254 8.69659L31.8006 8.65861C31.8382 8.63272 31.8895 8.62064 31.9271 8.62064L32.216 8.64653L32.4433 8.65861H32.5698C32.5954 8.65861 32.633 8.65861 32.6587 8.6707L32.9356 8.76046L33.0997 8.72248L33.2877 8.65861C33.3134 8.64653 33.351 8.64653 33.3766 8.64653L33.7168 8.65861C33.7288 8.65861 33.7424 8.6707 33.7544 8.6707L33.9048 8.70867L34.245 8.64481H34.2826C34.3715 8.63272 34.4587 8.65689 34.5099 8.74665L34.6108 8.92444C34.6364 8.96241 34.6484 9.02628 34.6364 9.07634L34.6108 9.24204L34.6604 9.3318C34.7099 9.40775 34.7356 9.4837 34.698 9.54757L34.6484 9.64941L34.6364 9.9791L34.6245 10.2328L34.674 10.3727C34.674 10.3847 34.686 10.3847 34.686 10.4106L34.7236 10.6402C34.7356 10.7041 34.7116 10.7541 34.686 10.7921L34.6723 10.7886Z" fill="#FE5000"/>
<path d="M42.0103 18.6544L41.8838 18.8581L41.971 18.9478C42.0206 18.9979 42.0462 19.0497 42.0462 19.0997V19.4691C42.0462 19.533 42.0206 19.621 41.971 19.6469L41.8958 19.697L41.7077 19.9645C41.6821 20.0025 41.6445 20.0284 41.6069 20.0405C41.5573 20.0664 41.4941 20.0526 41.4428 20.0284L41.2787 19.9524L41.0274 20.0163C40.9898 20.0284 40.9266 20.0163 40.8889 20.0042L40.7625 19.9542L40.4599 19.9283L40.3471 19.9783C40.3351 19.9904 40.2975 19.9904 40.2838 19.9904L40.0326 20.0163L39.4668 19.9783L39.3403 19.9524L38.9762 19.9904L38.8001 20.0543C38.7881 20.0664 38.7745 20.0664 38.7625 20.0664L38.624 20.0923C38.5864 20.0923 38.5232 20.0923 38.4856 20.0664L38.2343 19.9266H38.0702L37.9317 20.0025C37.9061 20.0146 37.8565 20.0284 37.8189 20.0284H37.5044C37.4787 20.0284 37.4548 20.0163 37.4411 20.0163L37.3403 20.0042L37.1899 20.0543C37.1642 20.0664 37.1266 20.0664 37.101 20.0664L36.8736 20.0543H36.6463L36.4583 20.0802C36.4206 20.0923 36.3711 20.0923 36.3318 20.0681L36.0548 19.9542L35.8907 19.9283C35.8412 19.9283 35.7899 19.9162 35.7523 19.8644L35.6258 19.7125C35.6001 19.6745 35.5882 19.6625 35.5882 19.6107L35.5762 19.445L35.5386 19.3811C35.513 19.331 35.489 19.2534 35.513 19.2033L35.6019 18.9617L35.513 18.7321C35.501 18.7062 35.513 18.6941 35.513 18.6561L35.5249 18.5422L35.5369 18.2747L35.5249 18.0848L35.4754 17.831C35.4634 17.7931 35.4754 17.743 35.501 17.6912L35.6138 17.5255L35.5249 17.2338V16.9921L35.5625 16.8144L35.6121 16.4847L35.5369 16.3949C35.4993 16.3569 35.4873 16.2931 35.4873 16.243L35.5249 15.9375L35.4993 15.7718V15.7079L35.5625 15.3903L35.5249 15.2125V15.1366L35.5506 15.0727L35.6258 14.6412L35.5762 14.4893C35.5643 14.4392 35.5643 14.3995 35.5762 14.3495L35.6395 14.2217L35.5643 14.0819C35.5643 14.0698 35.5523 14.056 35.5523 14.056L35.489 13.8264C35.4771 13.7626 35.489 13.7125 35.5147 13.6607L35.6275 13.4709L35.6019 13.1653L35.6138 12.9237L35.6395 12.7079L35.5899 12.5422L35.5027 12.3644C35.4771 12.3144 35.4771 12.2246 35.5027 12.1745L35.6412 11.8949L35.5779 11.7292L35.5284 11.5514L35.5164 11.5255L35.4907 11.2459C35.4907 11.1699 35.5164 11.1061 35.566 11.0681L35.6412 11.0042L35.6292 10.6348L35.6412 10.445V10.2033L35.5403 10.1015C35.5027 10.0514 35.4771 9.99963 35.4771 9.93576L35.5027 9.72C35.5027 9.65613 35.5284 9.61816 35.566 9.58018L35.6412 9.53012L35.5523 9.32644C35.5403 9.28847 35.5266 9.21252 35.5403 9.17454L35.6155 8.98467L35.6531 8.87075C35.6907 8.7948 35.766 8.73093 35.8548 8.73093H36.0189L36.2702 8.75682L36.5471 8.71885C36.5728 8.71885 36.5847 8.70676 36.6104 8.71885L36.8121 8.75682H36.9762L37.0394 8.74474C37.0394 8.73266 37.0514 8.73266 37.0514 8.73266L37.1779 8.66879C37.2155 8.6429 37.2411 8.63081 37.2651 8.63081H37.4924C37.5181 8.63081 37.542 8.6429 37.5676 8.65671L37.6805 8.70676H37.7557C37.7933 8.70676 37.8428 8.73266 37.8822 8.75682L37.9078 8.7689H37.971L38.3745 8.74301L38.4377 8.71712C38.4753 8.70504 38.5129 8.69123 38.5505 8.69123L38.8651 8.7292L39.0035 8.65325C39.0668 8.61528 39.1044 8.61528 39.1676 8.64117L39.3317 8.67915H39.4582C39.4702 8.67915 39.4838 8.69123 39.4958 8.69123L39.7471 8.7292L39.9232 8.66534C39.9488 8.65325 39.9864 8.63944 40.024 8.65325L40.289 8.69123H40.7163C40.7419 8.69123 40.7659 8.67915 40.7915 8.69123L41.0565 8.77926L41.2069 8.70331C41.2189 8.69123 41.2565 8.67742 41.2701 8.67742L41.4206 8.65153C41.5095 8.63944 41.5966 8.66361 41.6479 8.75337L41.7231 8.8811C41.7488 8.93116 41.7727 8.97086 41.7607 9.02092L41.7351 9.18663L41.7983 9.30055C41.8359 9.3765 41.8359 9.44037 41.7983 9.51631L41.7488 9.61816L41.7864 9.83392L41.7983 10.1136L41.8359 10.2154C41.8616 10.2655 41.8616 10.3552 41.8359 10.4053L41.7727 10.5451V10.7488C41.7727 10.7988 41.7607 10.8506 41.7351 10.8886L41.6462 11.0025C41.559 11.1164 41.4445 11.1682 41.3812 11.1164L41.2684 11.0267L41.0804 11.0388L40.93 11.1285C40.8924 11.1544 40.8548 11.1544 40.8291 11.1544H40.3129L40.0479 11.1803H40.0103L39.8975 11.1682C39.8719 11.1682 39.8223 11.1561 39.7967 11.1302L39.6462 11.0163L39.2821 11.1182L39.1556 11.1561C39.0924 11.1682 39.0052 11.1561 38.9539 11.1061L38.8531 11.0163L38.6394 11.1561C38.6018 11.182 38.5505 11.182 38.5129 11.182L38.3488 11.1699C38.3369 11.1699 38.3112 11.1699 38.2992 11.1579L38.0975 11.0698L38.1232 11.1717C38.1351 11.2355 38.1232 11.3115 38.0856 11.3615L38.0104 11.4634L38.0856 11.6032C38.1112 11.6412 38.1232 11.693 38.1112 11.7551L38.0616 12.0347L38.0993 12.1486C38.1249 12.2125 38.1249 12.2505 38.0993 12.3144L37.9864 12.556L37.9984 12.7338L38.024 12.8615C38.024 12.8874 38.036 12.8995 38.036 12.9116V13.1412L38.1488 13.1291H38.2121L38.3129 13.1412L38.5266 13.0652C38.5386 13.0531 38.5762 13.0393 38.6018 13.0393H38.8531L39.0668 13.0272C39.1044 13.0272 39.1556 13.0272 39.1796 13.0393L39.4445 13.1671L39.5573 13.1291C39.5693 13.117 39.583 13.117 39.595 13.117L39.771 13.0911H39.8343L40.1608 13.1412H40.3625L40.6513 13.1153C40.689 13.1153 40.7266 13.1274 40.7642 13.1412L40.877 13.1912L41.2548 13.1791L41.3436 13.1533C41.4189 13.1274 41.4941 13.1412 41.5573 13.1912L41.5949 13.2292C41.6582 13.2793 41.6958 13.369 41.6701 13.4709L41.6206 13.6866L41.6838 13.7626C41.7334 13.8264 41.7471 13.8903 41.7214 13.9783L41.6582 14.1682L41.7077 14.2959C41.7197 14.3339 41.7334 14.3598 41.7334 14.4099L41.7077 14.7016L41.6701 15.0192L41.6821 15.0692C41.7197 15.1832 41.6821 15.285 41.5932 15.3489L41.4804 15.4386C41.4548 15.4645 41.4171 15.4766 41.3795 15.4766L40.9146 15.5267C40.8513 15.5388 40.7881 15.5146 40.7505 15.4766L40.6753 15.4007L40.4103 15.4127L39.9454 15.5146L39.6565 15.5526H39.3044L38.7881 15.4386L38.6992 15.4645H38.624L38.3471 15.4145L38.2087 15.4645C38.171 15.4766 38.1334 15.4904 38.0958 15.4766C38.0958 15.5025 38.1078 15.5267 38.0958 15.5664L38.0463 15.7442L38.1095 15.8339C38.1351 15.8719 38.1471 15.9358 38.1471 15.9737V16.2033C38.1471 16.2413 38.1351 16.2672 38.1215 16.2931L37.995 16.5727L38.0839 16.7384C38.0958 16.7643 38.1095 16.7885 38.1095 16.8282V17.0318C38.1095 17.0698 38.1095 17.0819 38.0975 17.1078L38.0599 17.2217L38.0719 17.4254V17.4634L38.0599 17.6412H38.0975C38.1608 17.5911 38.2616 17.5652 38.3249 17.6032L38.4377 17.6533L38.8411 17.6791L38.9163 17.6533C38.942 17.6412 38.9659 17.6533 38.9915 17.6533L39.2309 17.6653L39.3061 17.6015C39.3813 17.5376 39.4821 17.5255 39.5573 17.5756L39.6838 17.6515L39.9984 17.5756C40.036 17.5635 40.0736 17.5635 40.1112 17.5756L40.224 17.6015L40.5505 17.5255C40.5625 17.5255 40.5761 17.5134 40.5881 17.5134H40.689L40.9163 17.5514L41.3197 17.6015L41.4462 17.5635C41.4718 17.5514 41.5095 17.5514 41.5351 17.5514L41.6616 17.5635C41.7248 17.5635 41.7881 17.6015 41.8257 17.6533L41.9009 17.7551C41.9265 17.781 41.9385 17.831 41.9385 17.869V18.0589L42.0274 18.2108C42.0394 18.2488 42.053 18.2747 42.053 18.3005V18.5301C42.053 18.5681 42.0411 18.6199 42.0154 18.6579L42.0103 18.6544Z" fill="#FE5000"/>
<path d="M45.1678 19.977L44.9541 19.9269C44.8789 20.0167 44.778 20.0546 44.7028 20.0167L44.5763 19.9528L44.2242 19.9908L43.696 20.0167H43.4447L43.3319 20.0046C43.243 20.0046 43.1439 19.9407 43.1182 19.8527L43.0686 19.687L42.9934 19.5851C42.9439 19.5092 42.9302 19.4194 42.9678 19.3435L43.043 19.2037L42.9934 19.0897C42.9934 19.0777 42.9815 19.0639 42.9815 19.0397L42.9695 18.7342V18.4804C42.9695 18.4545 42.9815 18.4425 42.9815 18.4304L43.0191 18.3285L42.9815 18.023V17.9591L43.0191 17.8314L42.9695 17.424L42.9439 17.2462C42.9319 17.1962 42.9439 17.1185 42.9815 17.0805L43.0447 17.0046L42.9558 16.737C42.9439 16.687 42.9439 16.6231 42.9678 16.5713L43.043 16.4436L42.9302 16.214C42.9182 16.1881 42.9182 16.1381 42.9182 16.1001L42.9302 16.0121C42.9302 15.9862 42.9422 15.9482 42.9558 15.9361L43.0567 15.7842L43.0191 15.3907L42.9934 15.3648C42.9558 15.3009 42.9558 15.2509 42.9678 15.187L43.0174 15.0092L43.0054 14.7555L42.9165 14.4499C42.9045 14.412 42.9045 14.374 42.9165 14.336L42.9661 14.1962L42.9917 13.9545L43.0174 13.7647L42.9165 13.4971V13.4212L42.9285 13.1536L42.9165 13.0777V13.0138L43.0054 12.6461V12.5063L42.9302 12.1248L42.8926 12.0351V11.9591L42.9302 11.6795L42.9045 11.5138V11.4637L42.9302 11.1582L42.9422 11.0944L43.031 10.9045L42.9815 10.6369L42.9319 10.5092C42.9199 10.4712 42.9063 10.4332 42.9199 10.3953L42.9832 10.1657L42.9199 9.98791C42.908 9.94993 42.9199 9.93785 42.9199 9.89988L42.9575 9.72208L43.0208 9.43037L42.9199 9.2008C42.908 9.16282 42.8943 9.08687 42.908 9.0489L42.9199 9.02301C42.9319 8.97295 42.9575 8.94706 42.9951 8.92116L43.2088 8.78135C43.2345 8.75546 43.284 8.74337 43.3097 8.74337L43.4738 8.73129L43.8772 8.66742C43.9028 8.66742 43.9404 8.65534 43.9661 8.66742L44.2686 8.74337L44.5455 8.71748H44.696L45.0481 8.72957H45.1113C45.2002 8.72957 45.2754 8.76754 45.3131 8.84349L45.4002 8.99539C45.4122 9.00747 45.4259 9.03336 45.4259 9.05925L45.4515 9.17318L45.5404 9.49078V9.56673L45.5284 9.79631V9.88434L45.5541 10.088C45.5541 10.1139 45.5541 10.1519 45.5421 10.1899L45.4669 10.4436L45.4413 10.7871L45.4789 10.813C45.5421 10.8631 45.5797 10.9649 45.5541 11.0547L45.5165 11.1945C45.5165 11.2204 45.5045 11.2204 45.4908 11.2445L45.4156 11.3964L45.5028 11.6761C45.5148 11.714 45.5028 11.7658 45.4908 11.8159L45.4413 11.9816L45.4789 12.2232L45.5421 12.401C45.5421 12.4131 45.5541 12.4269 45.5541 12.4511L45.5797 12.641V12.9206L45.5677 12.9845L45.5045 13.1622L45.5541 13.378C45.566 13.4419 45.566 13.4919 45.5284 13.5558L45.4156 13.7457V14.0512L45.4652 14.1151C45.5404 14.2048 45.5541 14.3049 45.5148 14.3567L45.4395 14.4586L45.4515 14.6881L45.4891 14.9419L45.5267 15.2595L45.5387 15.2854V15.5011C45.5387 15.5391 45.5267 15.5512 45.513 15.5771L45.4242 15.7808L45.4498 15.9845L45.4754 16.2382L45.4874 16.4919C45.4874 16.5178 45.4874 16.542 45.4754 16.5817L45.4259 16.7094L45.4635 16.8613C45.4754 16.8993 45.4635 16.9252 45.4635 16.9494L45.4139 17.2031L45.4635 17.4189L45.5267 17.6726C45.5267 17.6985 45.5387 17.7106 45.5387 17.7227V18.0523C45.5387 18.0782 45.5267 18.0903 45.5267 18.1024L45.4772 18.2923L45.4652 18.496L45.5028 18.7635L45.5148 18.8774C45.5148 18.9033 45.5148 18.9534 45.5028 18.9793L45.4156 19.2468L45.4908 19.4125C45.5028 19.4384 45.5165 19.4505 45.5165 19.4885L45.5284 19.6922C45.5284 19.7819 45.5028 19.8441 45.4395 19.882L45.3524 19.9459C45.3028 19.9839 45.2395 19.996 45.1763 19.9718L45.1678 19.977ZM46.2498 13.9787L46.3626 13.9528C46.3746 13.9528 46.3882 13.9407 46.4002 13.9407H46.7404L47.1301 14.0305L47.419 13.8907L47.6207 13.8268L47.8087 13.611L47.8583 13.4332L47.8327 13.2813V13.2054L47.9592 12.6341L47.9216 12.5702C47.9096 12.5322 47.8959 12.4683 47.9096 12.4304L47.9592 12.2526L47.8959 11.6174L47.8327 11.5673C47.807 11.5414 47.7831 11.4914 47.7694 11.4534L47.7438 11.2635L47.5301 11.1116C47.5045 11.0857 47.4805 11.0616 47.4669 11.0219L47.4036 10.8561L47.1387 10.8182L46.5968 10.7681L46.5216 10.8441C46.4959 10.8561 46.4583 10.882 46.4344 10.882L46.3335 10.9079C46.2327 10.9338 46.1455 10.8958 46.0942 10.8061L46.0566 10.7422C46.031 10.6922 46.0071 10.6542 46.019 10.6024L46.0686 10.3487L45.9934 10.1588C45.9934 10.1467 45.9814 10.1467 45.9814 10.1208L45.9694 10.019C45.9694 9.99309 45.9695 9.94303 45.9814 9.91714L46.0823 9.68756L46.0071 9.36996L45.9575 9.18008C45.9455 9.15419 45.9455 9.09205 45.9575 9.06616L45.9951 8.93843C46.0071 8.88837 46.0327 8.84867 46.0703 8.8245L46.1831 8.73647C46.272 8.66052 46.3712 8.63463 46.4224 8.68641L46.4976 8.75028L46.7746 8.66052L46.8378 8.64844H47.1267L47.6429 8.6985C47.6686 8.6985 47.7062 8.6985 47.7181 8.71058L47.9198 8.81242C47.9831 8.72266 48.1079 8.71058 48.2087 8.74855L48.3728 8.8245L48.5865 8.86248L49.1403 9.05235L49.1779 9.07824L49.3164 9.168C49.354 9.19389 49.3916 9.24395 49.4053 9.28192L49.4549 9.44763L49.8446 9.79113L49.8702 9.81702L49.9078 9.86708L49.9455 9.93095L50.0463 10.2624L50.0839 10.4281L50.2104 10.6576C50.2224 10.6835 50.236 10.6956 50.236 10.7336L50.2737 10.9632L50.3369 11.1927L50.3625 11.4223V11.4983L50.313 11.7019L50.4514 12.0696C50.4634 12.1076 50.4634 12.1594 50.4514 12.1973L50.3642 12.4649L50.3386 12.6306L50.4395 13.1001C50.4514 13.1502 50.4395 13.214 50.4019 13.2658L50.3266 13.3677L50.4155 13.6853C50.4275 13.7491 50.4275 13.7992 50.4036 13.851L50.3027 14.0288C50.3027 14.0408 50.2907 14.0408 50.2907 14.0546L50.1779 14.1945L50.2036 14.3343C50.2036 14.3602 50.2036 14.4223 50.1916 14.4482L50.1164 14.626L50.0275 14.9056C50.0155 14.9557 49.9899 14.9816 49.9643 15.0075L49.901 15.0575L49.5985 15.2733L49.5865 15.3372C49.5865 15.401 49.5369 15.4649 49.4856 15.5029L49.2583 15.6548L49.0446 15.8446C49.0326 15.8567 49.019 15.8705 49.007 15.8705L48.9062 15.9344C48.8429 15.9724 48.7933 15.9724 48.7557 15.9603L48.6925 15.9344L48.4156 15.9983L48.2395 16.1381C48.2139 16.1502 48.1763 16.1761 48.1506 16.1761L47.9626 16.2019C47.9369 16.2019 47.8874 16.2019 47.8617 16.1899L47.6104 16.088L47.207 16.2399H46.8412C46.7917 16.2399 46.7404 16.2278 46.7028 16.2019L46.6019 16.1001L46.4891 16.1502C46.3626 16.2002 46.2378 16.1761 46.1865 16.0621L46.1113 15.8843L46.0361 15.6168L45.9729 15.5029L45.9609 15.4528L45.9353 15.1991V15.1093C45.9353 15.0834 45.9353 15.0593 45.9472 15.0213L46.0737 14.7796L46.0618 14.424C45.9985 14.374 46.0122 14.2462 46.1113 14.1185L46.1489 14.0685C46.1746 14.0426 46.2122 14.0046 46.2498 13.9925V13.9787Z" fill="#FE5000"/>
<path d="M61.7407 19.4942C61.7407 19.5322 61.7407 19.5822 61.7287 19.6081L61.6535 19.76L61.4654 19.9758C61.4278 20.0138 61.3646 20.0518 61.315 20.0518L61.127 20.0638L60.9253 20.0518L60.8244 20.0638C60.7868 20.0759 60.7492 20.0638 60.7116 20.0518L60.4347 19.924L60.2962 20.0138C60.233 20.0638 60.1458 20.0638 60.0826 20.0397L59.9817 20.0017L59.6176 19.9257L59.5544 19.9896C59.5287 20.0276 59.4792 20.0397 59.4279 20.0535L59.2142 20.0794H59.139L58.8877 20.0155L58.5988 19.9516L58.3715 20.0535C58.3595 20.0656 58.3219 20.0794 58.2963 20.0794H58.2211C58.1834 20.0794 58.1322 20.0794 58.1082 20.0535L57.8946 19.9257L57.8057 20.0017C57.7561 20.0518 57.6672 20.0656 57.592 20.0397L57.3903 19.9896L57.3014 20.0535C57.2638 20.0794 57.2125 20.1035 57.1749 20.1035H56.9869C56.9612 20.1035 56.9236 20.0915 56.8997 20.0776L56.6348 19.9499L56.3835 19.924L56.2331 20.0138C56.1835 20.0518 56.1202 20.0638 56.057 20.0397L55.9305 20.0138L55.6655 19.9879C55.6536 19.9879 55.616 19.9879 55.6023 19.9758L55.4638 19.9257L55.4143 19.8999C55.2638 19.8498 55.1493 19.76 55.175 19.71L55.2245 19.6081L55.1237 19.3026V19.073C55.1237 19.0472 55.1237 18.9971 55.1356 18.9712L55.2245 18.8314L55.1356 18.5897C55.1237 18.5397 55.11 18.4758 55.1356 18.424L55.2108 18.2963L55.2485 18.0046C55.2108 17.9545 55.1989 17.8906 55.2228 17.8009L55.2604 17.699C55.298 17.6093 55.3869 17.5472 55.4741 17.5472L55.8638 17.5213C55.8895 17.5213 55.939 17.5213 55.9647 17.5333L56.192 17.6231L56.3681 17.5851C56.4313 17.573 56.4946 17.573 56.5322 17.611L56.5954 17.6611L56.8724 17.5592C56.898 17.5472 56.91 17.5472 56.9219 17.5472L57.1356 17.5213H57.2741L57.2365 17.2537V17.126L57.1493 16.8463C57.1493 16.8343 57.1373 16.8205 57.1373 16.8084L57.1253 16.5788V16.5149L57.2006 16.2474L57.2382 16.0575L57.2758 15.752L57.1749 15.5863C57.1373 15.5103 57.1493 15.4206 57.1869 15.3567L57.2877 15.2169L57.1869 15.0892C57.1612 15.0633 57.1373 15.0253 57.1373 14.9752L57.1253 14.8233C57.1253 14.7854 57.1253 14.7336 57.151 14.6956L57.2006 14.6317L57.1373 14.3141C57.1373 14.2762 57.1373 14.2382 57.1493 14.2002L57.2245 14.0483L57.1356 13.7946C57.1356 13.7825 57.1236 13.7687 57.1236 13.7445V13.439L57.1869 13.1973L57.1612 13.0575C57.1493 13.0075 57.1612 12.9678 57.1732 12.9298L57.2108 12.8797V12.588L56.9459 12.3084L56.6946 12.2186L56.2912 12.3325C56.2416 12.3446 56.1784 12.3446 56.1271 12.3066L56.0006 12.2169L55.7613 12.229C55.7237 12.229 55.6861 12.229 55.6484 12.2031L55.522 12.1271C55.4467 12.0771 55.3955 11.9873 55.4091 11.9373L55.4348 11.8354L55.4724 11.5679L55.4228 11.1864L55.3732 11.1104C55.3356 11.0604 55.3237 10.9965 55.3476 10.9206L55.4604 10.6409V10.3734C55.3852 10.2595 55.3972 10.1317 55.498 10.0679L55.6861 9.96603L55.7989 9.89008C55.8365 9.86419 55.886 9.8521 55.9254 9.8521H56.1134L56.2775 9.77615C56.3271 9.75026 56.404 9.73818 56.4536 9.76407L56.5664 9.80205L56.8553 9.63634L57.0057 9.48444L57.1698 9.29457L57.2706 9.02702L57.3715 8.83714L57.4091 8.78709L57.51 8.68525C57.5595 8.63519 57.6484 8.6093 57.7117 8.62138L57.9629 8.67144L58.151 8.69733L58.2894 8.60757C58.327 8.58168 58.3903 8.58168 58.4279 8.58168L58.6672 8.60757C58.6792 8.60757 58.6928 8.60757 58.7048 8.61965L58.8433 8.66971L59.0706 8.59376L59.0963 8.58168L59.2347 8.55579C59.2723 8.5437 59.3099 8.55579 59.3356 8.56787L59.5629 8.65763C59.6005 8.66971 59.6501 8.6956 59.6757 8.74739L59.7253 8.83542C59.7373 8.86131 59.7629 8.89928 59.7629 8.92518L59.7749 9.09088L59.8638 9.42057C59.8757 9.45855 59.8757 9.49652 59.8638 9.5345L59.8142 9.72437V9.87627C59.8142 9.88835 59.8022 9.88835 59.8022 9.91424L59.7646 10.1041L59.7766 10.3337V10.7031L59.7885 10.9568L59.8894 11.1985C59.9014 11.2365 59.9014 11.2744 59.9014 11.3124L59.8757 11.4522C59.8757 11.4643 59.8638 11.4781 59.8638 11.4902L59.8142 11.6179L59.8398 11.9614C59.8398 11.9873 59.8398 12.0115 59.8279 12.0512L59.7646 12.229L59.8398 12.4327C59.8518 12.4706 59.8655 12.5224 59.8518 12.5604L59.8142 12.7641L59.8398 12.916L59.8655 13.1576V13.5391L59.8279 13.6668L59.7527 13.9585L59.7903 14.2261L59.8398 14.4298V14.5195L59.8022 14.7871L59.8655 14.9528C59.8911 15.0287 59.8911 15.0926 59.8655 15.1306L59.8159 15.1944L59.7903 15.4741L59.7527 15.8038L59.7646 16.0195L59.8142 16.2992V16.3872L59.7766 16.5771L59.8022 16.6271C59.8774 16.729 59.8911 16.8429 59.8398 16.8809L59.7509 16.9568L59.8398 17.0966C59.8774 17.1605 59.8774 17.2106 59.8655 17.2744L59.8022 17.5161H59.8398C59.8894 17.5161 59.9526 17.5282 59.9903 17.5661L60.0911 17.6542L60.4689 17.6421L60.7338 17.63H60.8603L61.2381 17.5282C61.2637 17.5161 61.2877 17.5282 61.3013 17.5282H61.327C61.3902 17.5282 61.4398 17.5661 61.4774 17.6179L61.6415 17.8337C61.6672 17.8717 61.6911 17.9096 61.6911 17.9735V18.1133L61.703 18.317V18.3809L61.6398 18.6484L61.6142 18.7244L61.6894 18.9142C61.7013 18.9522 61.727 18.9781 61.715 19.0282L61.6894 19.1939L61.7389 19.4856L61.7407 19.4942Z" fill="#FE5000"/>
</svg>
