<svg  viewBox="0 0 42 42" fill="none" xmlns="http://www.w3.org/2000/svg">
<rect width="42" height="42" rx="21" fill="#E31937"/>
<path d="M21.0001 35.782L24.4868 16.1392C27.81 16.1392 28.859 16.5041 29.0098 17.9945C29.0098 17.9945 31.24 17.1619 32.3644 15.4704C27.9761 13.4335 23.5666 13.3418 23.5666 13.3418L20.9942 16.4821H21.0001L18.4268 13.3418C18.4268 13.3418 14.0207 13.4335 9.62988 15.4704C10.7534 17.1619 12.9844 17.9945 12.9844 17.9945C13.1361 16.5041 14.1834 16.1392 17.4846 16.1366L21.0001 35.782Z" fill="white"/>
<path d="M20.9976 12.4343C24.5411 12.4071 28.6082 12.9843 32.7601 14.7988C33.3151 13.7965 33.4583 13.356 33.4583 13.356C29.493 11.7709 25.266 10.9453 20.9967 10.9219C16.7276 10.945 12.5006 11.7701 8.53516 13.3543C8.7357 13.8502 8.96894 14.3322 9.23335 14.7971C13.3852 12.9826 17.4524 12.4054 20.9976 12.4326" fill="white"/>
</svg>
